<?xml version="1.0" encoding="UTF-8" standalone="no"?>
<svg
   xmlns:dc="http://purl.org/dc/elements/1.1/"
   xmlns:cc="http://creativecommons.org/ns#"
   xmlns:rdf="http://www.w3.org/1999/02/22-rdf-syntax-ns#"
   xmlns:svg="http://www.w3.org/2000/svg"
   xmlns="http://www.w3.org/2000/svg"
   xmlns:sodipodi="http://sodipodi.sourceforge.net/DTD/sodipodi-0.dtd"
   xmlns:inkscape="http://www.inkscape.org/namespaces/inkscape"
   viewBox="0 0 1280 720"
   version="1.1"
   id="svg514"
   sodipodi:docname="segment_7.svg"
   inkscape:version="1.0.2 (e86c870879, 2021-01-15)">
  <metadata
     id="metadata518">
    <rdf:RDF>
      <cc:Work
         rdf:about="">
        <dc:format>image/svg+xml</dc:format>
        <dc:type
           rdf:resource="http://purl.org/dc/dcmitype/StillImage" />
      </cc:Work>
    </rdf:RDF>
  </metadata>
  <sodipodi:namedview
     pagecolor="#ffffff"
     bordercolor="#666666"
     borderopacity="1"
     objecttolerance="10"
     gridtolerance="10"
     guidetolerance="10"
     inkscape:pageopacity="0"
     inkscape:pageshadow="2"
     inkscape:window-width="1600"
     inkscape:window-height="1147"
     id="namedview516"
     showgrid="false"
     inkscape:zoom="1.9987459"
     inkscape:cx="752.26358"
     inkscape:cy="222.22657"
     inkscape:window-x="0"
     inkscape:window-y="0"
     inkscape:window-maximized="1"
     inkscape:current-layer="svg514"
     inkscape:document-rotation="0" />
  <defs
     id="defs4">
    <style
       id="style2">.zkqgLHJXSB{fill:#f7efe2;}.NuhImFmUCb,.tOJeAzelMf,.qUrmSxdMxS,.fGIrxSrYip,.gutDTQYALg,.SqGQVBiDmf,.aSYmhfmTFY{fill:none;}.qUrmSxdMxS{stroke:#ff81e7;}.NuhImFmUCb,.tOJeAzelMf,.qUrmSxdMxS,.iRYqHPcfRS,.jKmLJWxisb,.fGIrxSrYip,.gutDTQYALg,.aySfchqiOw,.rjuoVkGqdV,.SqGQVBiDmf,.aSYmhfmTFY{stroke-miterlimit:10;}.tOJeAzelMf,.qUrmSxdMxS,.gutDTQYALg,.aSYmhfmTFY{stroke-width:16px;}.qUrmSxdMxS,.gutDTQYALg{stroke-dasharray:30.47 20.31;}.tOJeAzelMf,.gutDTQYALg{stroke:#ff0020;}.fGIrxSrYip,.aySfchqiOw,.aSYmhfmTFY{stroke:#00ffa9;}.aSYmhfmTFY{stroke-dasharray:29.94 19.96;}.spBrdtQwKN{fill:#d8e5a5;}.XQuAdpNnqw{fill:#a8e0a1;}.fJKgHoonIP{fill:#fff3ae;}.GNncxDtHLj{fill:#0097dd;}.qkcRWPwSDM{fill:#ff81e7;}.NuhImFmUCb{stroke:#fff;stroke-width:5px;}.aHaNYIduKn,.rjuoVkGqdV{fill:#fff;}.uOzPVTcCRu,.aySfchqiOw{fill:#00ffa9;}.RzILTXOtpM{fill:#ff6b5c;}.xnfjGJrmNt{fill:#a3877f;}.rwBJxKaDxa{fill:#ffd400;}.VzzPMlOzrh{fill:#ff1e00;}.llTxsNrSXW{fill:#5fe;}.fJxjhPyArN{fill:#b9fcf7;}.XkYbKxSGIn{fill:#ff0020;}.RDaJUztpjq{fill:#754c24;}.luRkJdynSX{fill:#f0ed00;}.iRYqHPcfRS,.jKmLJWxisb,.rjuoVkGqdV,.SqGQVBiDmf{stroke:#000;}.iRYqHPcfRS{stroke-width:0.25px;}.AydpBKjGXd{fill:#fdff00;}.mIntIJpUCV{fill:#f9c6ca;}.DvZGornfXn{fill:#eb7000;}.fthTCcuWVC{fill:#6000ff;}.fGIrxSrYip,.aySfchqiOw,.rjuoVkGqdV,.SqGQVBiDmf{stroke-width:2px;}.SlbKpYrcdQ{font-size:20px;font-family:IBMPlexMono-Text, IBM Plex Mono;letter-spacing:0em;}</style>
  </defs>
  <g
     id="фон">
    <rect
       class="zkqgLHJXSB"
       x="-2572.87"
       y="-743.29"
       width="3863.25"
       height="2193.02"
       id="rect6" />
  </g>
  <g
     id="линии">
    <path
       class="qUrmSxdMxS"
       d="M342.53,270.06C323.84,247,300.15,211.87,267.39,243c-53.47,50.8-132.11.42-175.5,33.36C31.66,322.1-28.66,295.69-73.59,285.22c-26-6.06-91.56-8.79-126.76,21.36-33.11,28.33-57.59,49.13-117.94,27.52-40.8-14.61-60.46,5.37-73.4,9.82a211.44,211.44,0,0,1-71.71-14.05"
       id="path9" />
    <path
       class="gutDTQYALg"
       d="M1169.51,803.65c-31.73,14.2-73.74,37.8-107.92-5.57-55.76-70.8-193.61,5.61-241.34-43.93-66.27-68.81-184.52-6.48-247.33-15.26-36.34-5.08-101.18-27.81-138.88-71.28-35.48-40.86,35.27-69.17-21-154.92-21.82-23.57-96.5-24-110.44-39.72A111.23,111.23,0,0,0,252,440.41c-41.34-12.68-107.89-29.56-134.9-30.54"
       id="path11" />
    <path
       class="aSYmhfmTFY"
       d="M-34.67,54.31C-3.39,22.5,36.5-34.76,93.21,22.32c88.61,89.12,218,25.83,289.87,85.27,99.76,82.55,199.18,53.06,273.17,45.31,42.85-4.46,151,3.79,209.4,57.36,54.85,50.32,95.4,87.31,194.84,65.23,67.25-14.94,98.82,27.07,121.2,29.23a349.85,349.85,0,0,0,125.2-10"
       id="path13" />
  </g>
  <g
     id="части_ланндш"
     data-name="части ланндш">
    <rect
       class="spBrdtQwKN"
       x="505.25"
       y="407.63"
       width="553.44"
       height="274.86"
       rx="47.61"
       id="rect16" />
    <path
       class="XQuAdpNnqw"
       d="M659.72,505.21c-91,5-146.46-12.57-185.43-45.81-9.89-8.43-65.57-55.92-54.54-109.08,4.53-21.83,19.91-42.66,39.27-54.53,38.19-23.44,73.72-.88,89.66-22,10.71-14.18-3.74-26.47,1.25-69.69,2.63-22.75,5.2-45.05,22.53-61,16.44-15.18,42-20.83,63.26-15.27,25.61,6.7,25.57,24.66,61.08,45.81,16.47,9.81,44.56,26.54,62.71,16.52,16.67-9.2,7.2-31.21,26.74-60.15,3.19-4.73,21.64-31.11,54.53-39.27,47.93-11.89,87.69,24.53,89.61,26.34,22.94,21.69,12.33,33.38,36.92,65.29,13.25,17.18,20.38,19.05,78.54,63.26,32.65,24.82,49,37.31,50.17,41.45C1112.3,344.24,894.14,492.44,659.72,505.21Z"
       id="path18" />
    <path
       class="fJKgHoonIP"
       d="M1020,460.44H867a30,30,0,0,0-26,15L764.53,607.92a30.07,30.07,0,0,0,0,30L841,770.42a30,30,0,0,0,26,15h153a30,30,0,0,0,26-15L1122.47,638a30,30,0,0,0,0-30L1046,475.46A30,30,0,0,0,1020,460.44Z"
       id="path20" />
    <path
       class="spBrdtQwKN"
       d="M1317.4,557.47V943.65a57.1,57.1,0,0,1-57.1,57.09H814.7a57.09,57.09,0,0,1-57.1-57.1v-138a57.1,57.1,0,0,1,57.09-57.1h205.63a17.17,17.17,0,0,0,17.18-17.17V540.28a28.58,28.58,0,0,1,28.58-28.58h205.55A45.77,45.77,0,0,1,1317.4,557.47Z"
       id="path22" />
    <path
       class="fJKgHoonIP"
       d="M415.72-373.1,687.71,98c18.47,32,64.66,32,83.13,0l272-471.08c18.48-32-4.62-72-41.57-72h-544C420.34-445.1,397.25-405.1,415.72-373.1Z"
       id="path24" />
    <path
       class="GNncxDtHLj"
       d="M1328.43,278.58c-29.69,13.68-63.42,1.81-130.86-21.92-18.08-6.36-93.87-34.14-186.27-107.74C933.35,86.83,936.46,66.12,889,50.31c-66.73-22.21-114.13,4.9-133.31-23.74-17.7-26.42,6.76-73.19,23.74-95,6.34-8.13,35.81-43.77,78.52-45.66,30.5-1.34,38.34-17,45.72-28.66C922-171.86,900.28-211.34,931-252.83c47.34-64.06,292.47-37,405.4,118.7C1441.37,10.62,1412.65,239.78,1328.43,278.58Z"
       id="path26" />
    <path
       class="qkcRWPwSDM"
       d="M433.92-71.12H281a30,30,0,0,0-26,15L178.47,76.36a30,30,0,0,0,0,30L255,238.86a30,30,0,0,0,26,15h153a30,30,0,0,0,26-15l76.48-132.47a30.05,30.05,0,0,0,0-30L459.93-56.11A30,30,0,0,0,433.92-71.12Z"
       id="path28" />
  </g>
  <g
     id="hover3"
     data-name="выделение правильный цвет"
     style="visibility: hidden">
    <ellipse
       class="NuhImFmUCb"
       cx="780.96997"
       cy="346"
       rx="96.5"
       ry="20.209999"
       id="ellipse31" />
  </g>
  <g
     id="Layer_1"
     data-name="Layer 1">
    <path
       class="spBrdtQwKN"
       d="M356.29,288.32V548.83A144,144,0,0,1,219.38,692.67c-1.42.07-2.84.22-4.25.43a102.75,102.75,0,0,1-15.08,1.1H-222.16A140.89,140.89,0,0,1-363,553.31V494.2a140.43,140.43,0,0,1,41.27-99.62c27.83-27.83,60.48-36,68.55-37.83a138.23,138.23,0,0,1,31.07-3.44H-46.67A38.31,38.31,0,0,0-8.36,315V288.32a182.55,182.55,0,0,1,4.52-40.5c39.21,4.29,77.48-4.26,99.08-15.73,49.54-26.3,65.1-82,16.2-115.09A182.18,182.18,0,0,1,174,106h0A182.32,182.32,0,0,1,356.29,288.32Z"
       id="path34" />
    <path
       class="XQuAdpNnqw"
       d="M-213.72,355.32c-2.18,11.94,14.38,15.34,19.32,40.85,3.82,19.7-3.7,29.95-11.89,63.54-8.67,35.57-13,53.36-8.91,71.1,7.55,32.8,38.1,51.6,62.4,66.57,38,23.36,56.12,19.6,98.08,37.82,46.5,20.19,62.5,41.39,89.15,59,88.63,58.57,255.22,51.88,296.7-24.76,26-48-1.63-115.22-26.51-150.21-26.8-37.69-70.82-58-157.78-97.19C117.19,408.69,81,406,37,377.86,11.44,361.49,11.55,356.19-5.9,345-84.33,294.9-208,324-213.72,355.32Z"
       id="path36" />
    <path
       class="tOJeAzelMf"
       d="M.36,113.38C-2,114.2-5.18,113.28-9,111"
       id="path38" />
    <path
       class="GNncxDtHLj"
       d="M-.08,32.66h-458c-20.9.84-31.3,25.9-17.61,41.72,32.66,37.75,65.28,73.44,97,106.07,21.77,22.42,43.66,43.12,65.86,63.79a10.46,10.46,0,0,0,7.12,2.8H-.06A40.09,40.09,0,0,0,15.3,244a40.09,40.09,0,0,0,13-8.7,40,40,0,0,0,8.7-13,40.09,40.09,0,0,0,3.06-15.36V72.81A40.28,40.28,0,0,0,37,57.44a40,40,0,0,0-8.71-13,40.16,40.16,0,0,0-13-8.71A40.12,40.12,0,0,0-.08,32.66Z"
       id="path40" />
    <path
       class="spBrdtQwKN"
       d="M95.24,232.09c-21.6,11.47-59.87,20-99.08,15.73-1.52-.16-3-.35-4.57-.55a2,2,0,0,0-.48,0c-5.8.56-12.87.73-20.29.74-32.09,0-60-23.05-65.05-54.74a49.87,49.87,0,0,1,1.89-25C-81,136.78-32.18,96.82,36,93.8a62.06,62.06,0,0,1,12.77.77C76.1,99.05,96.7,107,111.44,117,160.34,150.14,144.78,205.79,95.24,232.09Z"
       id="path42" />
    <path
       class="aHaNYIduKn"
       d="M-10.9,265.14a6.46,6.46,0,0,0,0-4.12c-1.26-3.4-5.3-4-5.77-4.12a8.16,8.16,0,0,0-4.76.79A8.1,8.1,0,0,0-24.91,261c-.12.23-.34,1.53-.82,4.12V266a3.44,3.44,0,0,0-.83-.83c-2-1.36-5-.18-6.59.83a7.91,7.91,0,0,0-3.3,4.12,8.17,8.17,0,0,0,0,4.94,10.71,10.71,0,0,0,4.13,5.77H4.75a11.35,11.35,0,0,1-2.47-2.47A8.92,8.92,0,0,1,.63,275c-.43-1.91.32-2.35,0-4.12a7.23,7.23,0,0,0-2.47-4.12c-1.59-1.29-3.37-1.44-5.76-1.65A20.2,20.2,0,0,0-10.9,265.14Z"
       id="path44" />
    <path
       class="uOzPVTcCRu"
       d="M13.25,152.49c-3.93,3.45-8.3,7.29-14.63,8.11-5.46.7-6.65-1.6-22.32-4.36a54.27,54.27,0,0,0-6.72-.8,51.44,51.44,0,0,0-10.88.61C-61,158.93-62.77,158.88-65,157.84c-4.45-2.06-8.79-7-7.52-10.49s7.81-3.91,8.47-3.95c-3.49.14-13.8,0-21.5-7.32-4.17-4-9.11-11.57-6.73-15.62,2.72-4.62,13.37-2,14.22-5.13.7-2.6-6.49-4.61-6.91-9.5s6.1-9.91,11.67-11.66c9.18-2.88,17.32,2.67,18.58,3.56,0-.32.53-5.1,4.35-6.92s8.62.58,10.67,4a8.48,8.48,0,0,1,1.2,3.82A13.27,13.27,0,0,1-35,92.23c.22-.22,5.06-4.9,11.85-3.75,5.7,1,10.91,5.71,11.47,11.85a13.32,13.32,0,0,1-2.62,8.89,20.26,20.26,0,0,1,7.16-5.12c4.15-1.75,12.36-3.53,16.62.77"
       id="path46" />
    <rect
       class="fJKgHoonIP"
       x="-297.02"
       y="542.65"
       width="470.6"
       height="92.14"
       id="rect48" />
    <polygon
       class="RzILTXOtpM"
       points="-308.08 530.31 -293.01 489.22 169.55 489.22 183.73 530.31 -308.08 530.31"
       id="polygon50" />
    <rect
       class="xnfjGJrmNt"
       x="-311.2"
       y="530.31"
       width="499.75"
       height="12.34"
       id="rect52" />
    <rect
       class="rwBJxKaDxa"
       x="-173.25"
       y="510.58"
       width="223.8"
       height="124.21"
       id="rect54" />
    <rect
       class="xnfjGJrmNt"
       x="-293.01"
       y="481.51"
       width="462.59"
       height="7.7"
       id="rect56" />
    <polygon
       class="VzzPMlOzrh"
       points="-135.21 499.91 -178.63 499.91 -165.67 456.88 42.55 456.88 55.79 499.91 -135.21 499.91"
       id="polygon58" />
    <rect
       class="xnfjGJrmNt"
       x="-181.91"
       y="499.91"
       width="240.72"
       height="10.59"
       id="rect60" />
    <rect
       class="xnfjGJrmNt"
       x="-165.67"
       y="447.89"
       width="208.22"
       height="8.99"
       id="rect62" />
    <polygon
       class="xnfjGJrmNt"
       points="-145.81 510.58 -59.95 424.19 20.71 510.42 -145.81 510.58"
       id="polygon64" />
    <polygon
       class="llTxsNrSXW"
       points="6.33 552.17 -5.2 552.17 -16.73 552.17 -16.73 518.59 -5.2 518.59 6.33 518.59 6.33 552.17"
       id="polygon66" />
    <polyline
       class="llTxsNrSXW"
       points="-5.2 535.38 -5.2 518.59 -5.2 552.17 6.33 552.17 6.33 541.11 -16.73 541.11 -16.73 528.87 6.33 529.03"
       id="polyline68" />
    <polygon
       class="fJxjhPyArN"
       points="41.63 552.17 30.09 552.17 18.56 552.17 18.56 518.59 30.09 518.59 41.63 518.59 41.63 552.17"
       id="polygon70" />
    <polyline
       class="fJxjhPyArN"
       points="30.09 535.38 30.09 518.59 30.09 552.17 41.63 552.17 41.63 541.11 18.56 541.11 18.56 528.87 41.63 529.03"
       id="polyline72" />
    <polygon
       class="fJxjhPyArN"
       points="6.33 603.59 -5.2 603.59 -16.73 603.59 -16.73 570.01 -5.2 570.01 6.33 570.01 6.33 603.59"
       id="polygon74" />
    <polyline
       class="fJxjhPyArN"
       points="-5.2 586.8 -5.2 570.01 -5.2 603.59 6.33 603.59 6.33 592.52 -16.73 592.52 -16.73 580.28 6.33 580.45"
       id="polyline76" />
    <polygon
       class="llTxsNrSXW"
       points="41.63 603.59 30.09 603.59 18.56 603.59 18.56 570.01 30.09 570.01 41.63 570.01 41.63 603.59"
       id="polygon78" />
    <polyline
       class="llTxsNrSXW"
       points="30.09 586.8 30.09 570.01 30.09 603.59 41.63 603.59 41.63 592.52 18.56 592.52 18.56 580.28 41.63 580.45"
       id="polyline80" />
    <polygon
       class="llTxsNrSXW"
       points="89.47 578.82 78.66 578.82 67.86 578.82 67.86 547.35 78.66 547.35 89.47 547.35 89.47 578.82"
       id="polygon82" />
    <polyline
       class="llTxsNrSXW"
       points="78.66 563.09 78.66 547.35 78.66 578.82 89.47 578.82 89.47 568.45 67.86 568.45 67.86 556.98 89.47 557.14"
       id="polyline84" />
    <polygon
       class="fJxjhPyArN"
       points="122.26 578.82 111.45 578.82 100.65 578.82 100.65 547.35 111.45 547.35 122.26 547.35 122.26 578.82"
       id="polygon86" />
    <polyline
       class="fJxjhPyArN"
       points="111.45 563.09 111.45 547.35 111.45 578.82 122.26 578.82 122.26 568.45 100.65 568.45 100.65 556.98 122.26 557.14"
       id="polyline88" />
    <polygon
       class="llTxsNrSXW"
       points="155.28 578.82 144.47 578.82 133.67 578.82 133.67 547.35 144.47 547.35 155.28 547.35 155.28 578.82"
       id="polygon90" />
    <polyline
       class="llTxsNrSXW"
       points="144.47 563.09 144.47 547.35 144.47 578.82 155.28 578.82 155.28 568.45 133.67 568.45 133.67 556.98 155.28 557.14"
       id="polyline92" />
    <polygon
       class="fJxjhPyArN"
       points="89.36 618.16 78.55 618.16 67.75 618.16 67.75 586.69 78.55 586.69 89.36 586.69 89.36 618.16"
       id="polygon94" />
    <polyline
       class="fJxjhPyArN"
       points="78.55 602.43 78.55 586.69 78.55 618.16 89.36 618.16 89.36 607.79 67.75 607.79 67.75 596.32 89.36 596.48"
       id="polyline96" />
    <polygon
       class="llTxsNrSXW"
       points="122.15 618.16 111.34 618.16 100.54 618.16 100.54 586.69 111.34 586.69 122.15 586.69 122.15 618.16"
       id="polygon98" />
    <polyline
       class="llTxsNrSXW"
       points="111.34 602.43 111.34 586.69 111.34 618.16 122.15 618.16 122.15 607.79 100.54 607.79 100.54 596.32 122.15 596.48"
       id="polyline100" />
    <polygon
       class="fJxjhPyArN"
       points="155.16 618.16 144.36 618.16 133.55 618.16 133.55 586.69 144.36 586.69 155.16 586.69 155.16 618.16"
       id="polygon102" />
    <polyline
       class="fJxjhPyArN"
       points="144.36 602.43 144.36 586.69 144.36 618.16 155.16 618.16 155.16 607.79 133.55 607.79 133.55 596.32 155.16 596.48"
       id="polyline104" />
    <path
       class="spBrdtQwKN"
       d="M840.38-521a26.34,26.34,0,0,0-8.55,5.73,26.21,26.21,0,0,0-5.71,8.57,26.48,26.48,0,0,0-2,10.1v22.81a26.35,26.35,0,0,0,7.73,18.62,26.34,26.34,0,0,0,18.62,7.72H953.05a26.35,26.35,0,0,1,18.65,7.72,26.37,26.37,0,0,1,7.72,18.64V-20.71a26.33,26.33,0,0,0,7.72,18.64,26.37,26.37,0,0,0,18.64,7.72h267.84a26.35,26.35,0,0,0,18.64-7.72A26.34,26.34,0,0,0,1300-20.71V-240.12a26.42,26.42,0,0,0-7.73-18.64,26.36,26.36,0,0,0-18.64-7.71H1144a26.42,26.42,0,0,1-18.64-7.73,26.42,26.42,0,0,1-7.73-18.64V-496.62a26.34,26.34,0,0,0-7.71-18.63,26.36,26.36,0,0,0-18.64-7.73H850.47A26.48,26.48,0,0,0,840.38-521ZM962-518.35c17-.71,34.17-1.42,51.29-1.42C996.16-519.77,979.06-519,962-518.35Z"
       id="path106" />
    <path
       class="XkYbKxSGIn"
       d="M1276.51-16.43c-16.29-9.87-30-35.16-26.43-55.49,3.08-17.5,17.44-22.46,15.27-32.09-2.27-10.12-20.07-12.66-29.42-12.54-17.65.22-31.68,10.24-38.21,15-18.37,13.45-20.84,24.93-30.62,24.1-11-1-12.84-16-23.87-16.23-8.56-.15-15.31,8.67-24.16,20.18-14,18.27-12.08,26.33-20.67,31-14.33,7.86-29.24-9.32-34.5-2-3.74,5.2.78,17.85,4.7,28.89,2.89,8.1,6.32,18.76,8.8,22.94,66.71.89,133.27-2.68,200-1.8,10.2-3.79,21.09-8.71,20.76-12.84S1287.44-9.82,1276.51-16.43Z"
       id="path108" />
    <path
       d="M1139.14,7.77c.21-6,.84-16,1.63-26,1.35-16.75,3.21-21.61,6.42-25.68,5-6.42,11.58-8.47,23.53-12.11,15.47-4.72,29-8.83,34.91-2.84,6.94,7-3.92,20,0,32.77,3.48,11.32,18.76,23.13,67.67,27.81q-6.35,2.41-12.52,4.62C1220.25,10.42,1179.68,6.68,1139.14,7.77Z"
       id="path110" />
    <path
       class="uOzPVTcCRu"
       d="M113.72,192c-5,4.42-10.65,9.36-18.79,10.4-7,.9-8.52-2-28.65-5.6a65.23,65.23,0,0,0-22.6-.25c-25.26,3.71-27.56,3.64-30.45,2.3-5.7-2.65-11.29-9-9.67-13.48s10-5,10.9-5.06c-4.5.18-17.73,0-27.62-9.47-5.35-5.11-11.7-14.86-8.63-20.07,3.5-5.92,17.18-2.52,18.26-6.58.9-3.33-8.35-5.92-8.88-12.21s7.89-12.71,15-15c11.77-3.7,22.23,3.44,23.84,4.56,0-.4.69-6.52,5.59-8.87s11,.74,13.7,5.08a11,11,0,0,1,1.58,4.91,17.32,17.32,0,0,1,4.56-8.23,18.7,18.7,0,0,1,15.22-4.81c7.31,1.25,14,7.34,14.72,15.22a17.09,17.09,0,0,1-3.36,11.41,26.05,26.05,0,0,1,9.18-6.56c5.34-2.25,15.89-4.54,21.35,1,6.32,6.43,2.12,19.66-3,26.84a28.72,28.72,0,0,1-8.16,7.68,22.25,22.25,0,0,1,6.14-.56c8.62.38,19.15,5.75,19.77,13C124.08,182.88,119.34,187,113.72,192Z"
       id="path112" />
    <path
       class="RDaJUztpjq"
       d="M60.69,182.79H50.39V260h10.3Z"
       id="path114" />
    <path
       class="uOzPVTcCRu"
       d="M54.89,190.51c11.72,0,21.22-7.78,21.22-17.37s-9.5-17.37-21.22-17.37-21.22,7.78-21.22,17.37S43.17,190.51,54.89,190.51Z"
       id="path116" />
    <path
       class="uOzPVTcCRu"
       d="M311.32,483.8c-3.23,2.84-6.83,6-12.05,6.68-4.49.57-5.46-1.32-18.37-3.6a42,42,0,0,0-14.49-.16c-16.2,2.38-17.68,2.34-19.53,1.48-3.66-1.7-7.24-5.79-6.2-8.65s6.44-3.22,7-3.24c-2.89.11-11.37,0-17.71-6.07-3.43-3.28-7.5-9.53-5.54-12.87,2.25-3.8,11-1.62,11.71-4.22.58-2.14-5.35-3.8-5.7-7.83s5.07-8.15,9.62-9.6c7.56-2.37,14.26,2.21,15.29,2.93,0-.26.45-4.18,3.59-5.69s7.08.47,8.78,3.26a7,7,0,0,1,1,3.15,11.14,11.14,0,0,1,2.92-5.28,12.14,12.14,0,0,1,4.54-2.64,12,12,0,0,1,5.22-.45c4.69.8,9,4.71,9.44,9.76a10.92,10.92,0,0,1-2.16,7.32,16.93,16.93,0,0,1,5.9-4.21c3.42-1.44,10.18-2.9,13.69.64,4.05,4.12,1.35,12.6-2,17.21a18.44,18.44,0,0,1-5.23,4.92,14.09,14.09,0,0,1,3.94-.35c5.52.24,12.28,3.68,12.67,8.3C318,478,314.93,480.64,311.32,483.8Z"
       id="path118" />
    <path
       class="RDaJUztpjq"
       d="M277.31,477.91h-6.6v49.48h6.6Z"
       id="path120" />
    <path
       class="uOzPVTcCRu"
       d="M273.6,482.86c7.51,0,13.61-5,13.61-11.13s-6.1-11.14-13.61-11.14-13.61,5-13.61,11.14S266.08,482.86,273.6,482.86Z"
       id="path122" />
  </g>
  <g
     id="Layer_2"
     data-name="Layer 2">
    <path
       class="luRkJdynSX"
       d="M370.59,114.42A76.39,76.39,0,0,0,361,126l-26.63-4.7c13.61-20.54-6.49-45.72-27.84-33.49a21.41,21.41,0,0,0-6.9,7.32,122,122,0,0,0-60.16-4.25c.17-4.91.17-9.81.17-14.68C260.25,69.31,304.7,44.83,313.92-1l8.6,24.49c71.07-34.29,136.1,8.56,120.87,83.37a73.79,73.79,0,0,1-5.63,14.47C422.53,98.6,399.05,85,370.59,114.42Z"
       id="path125" />
    <path
       class="luRkJdynSX"
       d="M361.74,35.37l-41.44,116c51,14.43,98.39,1.35,98.15-41.44.48-26.25-17.27-47.77-31.08-56.57-31.29-20.17-83.54-9.22-116.56,34.15C315.12,103.3,319.61,150,292,174.16h24.18c12.81-13.12,30.73-43.34,21.93-76,23.1-14.12,47.62-21.3,58.15-12.26,12.89,11.06,7.26,48.28-22.93,88.24h28.91a191.23,191.23,0,0,0,41-67.13Z"
       id="path127" />
    <path
       class="aHaNYIduKn"
       d="M305.14,74.15a12.43,12.43,0,0,1-5.31-1.35,16.49,16.49,0,0,1-3.46-2.52,10.06,10.06,0,0,1-2.66-4.42,12.27,12.27,0,0,1,4.53-13.4c6.94-4.9,19-.28,20.51,6.91C320.13,65.83,313.09,74.22,305.14,74.15Z"
       id="path129" />
    <path
       class="iRYqHPcfRS"
       d="M305.73,73.73H304a14.21,14.21,0,0,1-4.81-1.38A9,9,0,0,1,296.09,70a8.59,8.59,0,0,1-.93-1.07l-.41-.58c-3.63-4.36-1.83-10.3,1.27-14.44a14,14,0,0,1,6,2.31,14.1,14.1,0,0,1,5,17.34A8.62,8.62,0,0,1,305.73,73.73Z"
       id="path131" />
    <path
       class="AydpBKjGXd"
       d="M433.82,53.5c-2.62-.56-3.83,3.42-1.17,4a22,22,0,0,0,11.33.55,10.09,10.09,0,0,0,6.59-6,8.79,8.79,0,0,0-2-8.32c-.8-1-2-2.38-2.42-3s-1.66-2.07-1.35-2.83l-.55.89c.31-.38-.34,0,0,0l.83-.2,2-.56,3.66-1,7.7-2.11c2.45-.59,1.59-4.76-1-4l-13,3.45c-1.63.45-3.46.87-4,2.73a6.43,6.43,0,0,0,1,4.46c1.28,2.35,3.59,4.07,4.73,6.53a4.33,4.33,0,0,1,.3,1.67,4.14,4.14,0,0,1-.37,1.66,4.3,4.3,0,0,1-2.42,2.29,14.71,14.71,0,0,1-10.05,0Z"
       id="path133" />
    <path
       class="mIntIJpUCV"
       d="M552.18,589.27c.31.64,1.49,3,9.86,4.64a56.29,56.29,0,0,0,10.44,1.16c10.75,0,13.11-2.58,19.14-.58a13.59,13.59,0,0,1,7.23,4.92c1,1.5,1.39,2.76,2,9a75.83,75.83,0,0,1,0,18.56,8.63,8.63,0,0,1-2,5.24c-1.76,1.77-3.34,1.15-4.92,2.89a6.9,6.9,0,0,0-1.16,7,8.07,8.07,0,0,0,2.05,2.52,8.32,8.32,0,0,0,2.87,1.54,16.89,16.89,0,0,0,11.31.28c1.67-1.64,4-4,6.67-7,6.25-6.91,6.75-8.64,7-9.58.67-3.18-.83-3.49-1.74-11-1-8.09.46-10.45,1.16-11.3,1.31-1.7,3.69-3.28,4.92-2.61s.47,3.82,0,11c-.43,6.76-.62,10.21.59,13.92a21.56,21.56,0,0,0,5.8,8.95c3.09,3,6.52,6.39,10.72,5.52a9.2,9.2,0,0,0,7-8.7c-.21-3.13-2.88-3.35-4.35-7.54-1.75-4.91.13-9.72.86-11.6,1-2.55,2.69-6.87,7.25-9a13.26,13.26,0,0,1,9-.58,13.61,13.61,0,0,1,5.1,2.55,13.42,13.42,0,0,1,3.61,4.42c1.81,4,.75,7.73,0,10.44-.59,2.09-1.94,6.91-6.08,9.88-2,1.49-3.6,1.65-4.36,3.47a5.6,5.6,0,0,0,.87,5.51c2.7,3,9.22,1,14.21-.57,5.52-1.74,11.33-3.55,12.46-7.83.73-2.7-1.16-3.52-1.49-7.83-.43-6.63,3.43-13.43,6.08-13.34,1.26,0,2.05,1.7,3.48,4.64,1.85,3.79,4,8.14,2.33,11.93-1.24,2.85-3.31,2.3-5.81,6.39-1.08,1.77-2.65,4.35-1.73,6.37,1.14,2.52,5.51,2.74,8.7,2.91a19,19,0,0,0,7-.87,12.73,12.73,0,0,0,5.22-2.89c6.75-10.94,12.71-23.87,4.11-35.7-.17-1.58.46-4,1.73-8.7,1.56-5.79,2.31-7.59,3-9.86a35.63,35.63,0,0,0,0-16.24,41.89,41.89,0,0,0-11.31-21.2,42.93,42.93,0,0,0-24.64-11.61c-1.49-.19-8.7.36-23.2,1.49-9.71.73-12.59,1.06-16.53,2.61A92.39,92.39,0,0,0,634.25,549c-4.38,2.58-5.4,3.66-8.11,4.06-.9.13-2.37.25-10.44-1.75-6.63-1.64-7.09-2.07-9.28-2a20.66,20.66,0,0,0-8.95,2.61c-6.12,3-6.31,5.66-10.73,6.37a23.29,23.29,0,0,1-7-.28c-4.25-.61-5.61-1.62-6.95-.86s-2.27,2.77-1.49,8.95a8.31,8.31,0,0,0-6.09,1.49c-.65.51-1.22,1.15-3.47,5.22-1,1.76-1.76,3.27-2.33,4.36a11.06,11.06,0,0,0-7,6.08,7.67,7.67,0,0,0-.31,6.06Z"
       id="path135" />
    <path
       class="aHaNYIduKn"
       d="M579.46,575.87c-.42-2.29-4.22-3.88-6.48-2.41a3.81,3.81,0,0,0-1.58,4.19,3.16,3.16,0,0,0,.81,1.49,5.83,5.83,0,0,0,1.07.84,4.15,4.15,0,0,0,1.69.47,4.29,4.29,0,0,0,3.24-1.31,4.35,4.35,0,0,0,1-1.5A4.45,4.45,0,0,0,579.46,575.87Z"
       id="path137" />
    <path
       class="jKmLJWxisb"
       d="M575.6,580.26a3.77,3.77,0,0,0,.53-2,3.71,3.71,0,0,0-.62-2,3.84,3.84,0,0,0-1.31-1.62,3.88,3.88,0,0,0-2-.71,3.7,3.7,0,0,0-1.07,2.19,3.66,3.66,0,0,0,.54,2.37.83.83,0,0,0,.13.18c.09.18.18.21.3.36a3.08,3.08,0,0,0,1,.78,5,5,0,0,0,1.5.49h.53A1.63,1.63,0,0,0,575.6,580.26Z"
       id="path139" />
    <path
       class="RzILTXOtpM"
       d="M1051.1,341.6V639.06H964.64V341.6a43.23,43.23,0,1,1,86.46,0Z"
       id="path141" />
    <rect
       class="VzzPMlOzrh"
       x="1007.87"
       y="474.24"
       width="259.6"
       height="164.82"
       id="rect143" />
    <polygon
       class="VzzPMlOzrh"
       points="1072.15 373.7 1137.67 353.09 1201.54 373.7 1258.4 469.06 1016.15 469.06 1072.15 373.7"
       id="polygon145" />
    <rect
       class="aHaNYIduKn"
       x="1007.87"
       y="461.05"
       width="262.89"
       height="13.19"
       id="rect147" />
    <polygon
       class="xnfjGJrmNt"
       points="989.91 515.85 978.49 505.65 1064.18 359.97 1135.18 336.31 1210.27 359.16 1296.37 503.2 1288.21 515.85 1201.54 373.7 1137.67 353.09 1072.15 373.7 989.91 515.85"
       id="polygon149" />
    <rect
       class="aHaNYIduKn"
       x="1100.52"
       y="382.38"
       width="76.29"
       height="68.89"
       id="rect151" />
    <polygon
       class="VzzPMlOzrh"
       points="1110.98 433.67 1110.98 397.44 1164.06 397.44 1110.98 433.67"
       id="polygon153" />
    <polygon
       class="VzzPMlOzrh"
       points="1123.49 435.71 1167.37 403.56 1167.37 435.71 1123.49 435.71"
       id="polygon155" />
    <rect
       class="aHaNYIduKn"
       x="1047.87"
       y="482.77"
       width="181.45"
       height="156.3"
       id="rect157" />
    <polygon
       class="VzzPMlOzrh"
       points="1077.69 499.13 1137.67 552.95 1197.68 499.13 1077.69 499.13"
       id="polygon159" />
    <polygon
       class="VzzPMlOzrh"
       points="1077.28 628.81 1137.26 574.99 1197.28 628.81 1077.28 628.81"
       id="polygon161" />
    <polygon
       class="VzzPMlOzrh"
       points="1062.41 617.31 1062.41 508.22 1125.32 564.22 1062.41 617.31"
       id="polygon163" />
    <polygon
       class="VzzPMlOzrh"
       points="1215.45 617.31 1215.45 508.22 1152.55 564.22 1215.45 617.31"
       id="polygon165" />
  </g>
  <g
     id="Layer_3"
     data-name="Layer 3">
    <path
       class="DvZGornfXn"
       d="M201.81,265.79c-7.81,1-12.67.7-18.59.74-11.87.07-17.8.11-22.26,1.71-9.7,3.49-15.5,11.28-23.48,22a64.09,64.09,0,0,0-7.58,12.23c-3.24,7-2.29,8.59-5.38,14.43a55.18,55.18,0,0,1-10.28,13.21c-5.69,5.74-7.78,5.93-10,10.27-.93,1.8-3.23,6.26-1.95,11.74a16.45,16.45,0,0,0,7.58,10,10.74,10.74,0,0,1,2.69-4.64c2.44-2.42,5.14-2.48,8.32-3.43a25.07,25.07,0,0,0,12-7.83c3.46-4.37,3.71-9.46,3.92-13.7.47-9.53-3.13-13.11-.74-18.34,1.63-3.57,5-5.54,7.34-6.61a31.92,31.92,0,0,1,1,7.34,22.83,22.83,0,0,1-1.22,9.05c-1.24,3.28-3.22,3.32-4.75,7.19a19,19,0,0,0-1.11,4.38c-.49,3-.33,5.27,0,9.75.39,5.28.64,3.63,1.27,10,.32,3.29.33,4.49,1.38,5.53s2.8,1.18,6.22,1.38c4.39.26,5.85-.6,6.34-.92.76-.51,1.69-1,1.84-1.85.3-1.74-2.58-3.61-4.38-4.37a10.22,10.22,0,0,0-3.8-.81,28.57,28.57,0,0,1-.92-9.1c.14-2.33.23-3.76,1-5.3,1.58-3,4.25-3.28,8.87-5.88,3.79-2.13,6.15-4.3,10.13-7.94a73.23,73.23,0,0,0,7.61-8.07s-2.47,2.78-13.78,15.65a8.86,8.86,0,0,0-.27,2.27,9.42,9.42,0,0,0,.8,3.6c.8,1.94,1.74,4.81,3.6,10.54,1.59,4.87,1.48,6,2.94,7.08s2.88,1.16,5.61,1.33c3.61.23,6.83.43,8.27-1.6,1.24-1.75.52-4.27.13-5.34a36.54,36.54,0,0,0-4.13-.8c-1-.14-2-.22-2.94-.27a28.68,28.68,0,0,1-2.54-5.2c-1-2.75-1.83-5.12-1.2-7.88a10.58,10.58,0,0,1,1.34-3.06c2.7-4.43,6.34-5.09,10.27-8.55a23.12,23.12,0,0,0,5.21-6.67c2.21.21,4.44.44,6.67.67,3.28.34,6.53.69,9.74,1.07-.44,5.57-.73,10.29-.93,13.88-.49,9,.13,1.88-.13,15.08-.11,5.21-.23,7.79,1.6,9.34,1,.85,2.76,1,6.27,1.33,4.2.39,6.31.56,7.21-.53,1.11-1.36.83-4.1-.8-5.74a5,5,0,0,0-4.94-1.2c.09-1.41.24-3.5.53-6,.67-5.64,1.16-9.82,2.94-14.41a36,36,0,0,1,5.2-9.08,37.11,37.11,0,0,0-1.6,7.08c-.17,1.4-.57,5.36.94,14.15a114.22,114.22,0,0,0,3.2,13.61l14.81-.14a5.26,5.26,0,0,0,0-3.06c-.83-2.65-4-4.52-7.87-4.54-.07-1-.14-2.5-.13-4.27,0-5,.64-7.35,1.87-14.95,1.57-9.8,1.71-13.23,4.27-15.88l2.67-2.67,4.67-4.67c4.12-4.12,6.72-6.32,8-7.61,2.81-2.82,5.87-7.86,6.68-17.62a6.45,6.45,0,0,1,1.6-2.27,7,7,0,0,1,2.67-1.46,9.69,9.69,0,0,1,3.87-.14c3.32.27,3.46.62,4.94.54a10.63,10.63,0,0,0,4.4-1.34,13,13,0,0,0,4.94-4.54c-2.07-2.16-3.76-3.94-4.94-5.2-2.47-2.63-5.47-5.87-5.47-5.87a12.72,12.72,0,0,0,0-4.81c-.45-2.26-1.4-3.67-3.07-6.14a32.36,32.36,0,0,0-6.81-7.34c-.65-.51-1.2-.9-1.58-1.17a14.34,14.34,0,0,0,.37-2.34,16.1,16.1,0,0,0-2-8.81,13.78,13.78,0,0,0-5.8,3.63A14,14,0,0,0,247,241a17.55,17.55,0,0,0-5.73.13,18.83,18.83,0,0,0-7.4,3.33c-3.53,2.42-5.17,4.42-8.75,8.14-5.6,5.81-8.4,8.71-11.23,10.23C210.55,264.65,207.59,265.06,201.81,265.79Z"
       id="path168" />
    <path
       class="aHaNYIduKn"
       d="M251.22,259.5c.3-3.49,5.66-6.37,9.23-4.5a5.76,5.76,0,0,1,2.89,6,5.11,5.11,0,0,1-1,2.26,7.47,7.47,0,0,1-1.49,1.37,6,6,0,0,1-2.41,1C254.73,266.19,251,262.61,251.22,259.5Z"
       id="path170" />
    <path
       class="jKmLJWxisb"
       d="M257.55,265.48c-1.15-1.19-1.42-3.62-.43-6s2.81-3.85,4.48-3.89c1.69,1.79,2.89,4.46,1.43,6.71l-.16.29a4.24,4.24,0,0,1-.38.56,4.17,4.17,0,0,1-1.33,1.28,7,7,0,0,1-2.17.93c-.23.05-.57.05-.78.11A2.43,2.43,0,0,1,257.55,265.48Z"
       id="path172" />
    <path
       class="fthTCcuWVC button"
       d="m 604.37,337.89 c -2.43,-1.24 -4.08,-5.46 -4.5,-6.54 a 17.94,17.94 0 0 1 -1.22,-6.54 c 0.63,-0.63 1.54,-1.51 2.64,-2.54 0,0 3.46,-3.24 7.34,-6.45 10,-8.25 41,-29.41 62.7,-45.58 5.26,-3.93 10.69,-8.11 19.34,-11.56 8.65,-3.45 19.71,-4.58 24.67,-5 0.11,-1.3 -2.19,-3.79 -2,-6.26 0.32,-4.63 0.47,-4.91 0.89,-5.68 1.73,-3.87 6.12,-6.24 9.23,-5.75 2.95,0.46 6,1.61 6.81,5.08 0.66,3 1.32,6.72 -1.48,10.39 a 43.43,43.43 0 0 1 5.76,-3.5 c 7.8,-4 14.15,-4.29 33.36,-4.66 20.28,-0.4 24.76,-0.27 30.17,0.24 a 127.9,127.9 0 0 1 17.17,2.95 36.71,36.71 0 0 1 8.59,2.69 35.87,35.87 0 0 1 8.34,5.65 c 6.85,6.06 6.47,9.61 11.53,12.51 2.43,1.39 4.92,1.94 9.56,2.2 13.56,0.78 25.27,-2 31.15,-3.43 17.48,-4.17 26.24,-6.26 27.23,-6.38 7.47,-0.88 19.78,-2.21 34.1,2.46 a 69.41,69.41 0 0 1 24,13.73 53.8,53.8 0 0 1 -4.91,5.4 c -22.4,21.52 -57.69,18 -72.36,15.7 a 8.57,8.57 0 0 0 2,3.92 c 3.43,3.84 9.16,2.78 9.57,2.7 a 61.33,61.33 0 0 1 -11,7.6 c -17.27,9.27 -34.69,7.73 -42.93,6.38 L 836.82,313 c 0.22,5.45 0.61,11.18 1.22,17.17 0.48,4.69 1.07,9.19 1.72,13.49 l -9.32,4.66 q -0.86,-6 -1.72,-12 l -4.41,-23.79 q -2.46,19.62 -4.91,39.25 H 802 l 1.71,-47.1 a 13.3,13.3 0 0 0 -1.22,-5.64 14.68,14.68 0 0 0 -8.59,-7.36 45,45 0 0 0 -26.25,-0.49 43.48,43.48 0 0 0 -13.73,6.87 c 0.94,11.88 3.41,19.57 5.64,24.53 a 38.18,38.18 0 0 1 3.91,17.41 c 0,1.34 -0.15,2.45 -0.24,3.19 l -12,1.72 q -0.76,-6.15 -2,-12.76 a 227.09,227.09 0 0 0 -6.38,-26 q -0.6,7.25 -1.23,14.47 -1.27,14.73 -2.7,29.44 H 720.3 c 0.26,-5.19 0.51,-11 0.74,-17.42 0.51,-14.43 0.77,-22.14 0.49,-32.13 -0.15,-5.26 -0.45,-11.09 -1,-17.41 a 16.59,16.59 0 0 0 -6.13,-5.16 c -6.22,-2.95 -12.71,-0.81 -17.18,0.74 A 45.23,45.23 0 0 0 684,286 c -9.47,7.29 -19.82,13.36 -29.68,20.11 -21.64,14.83 -18.63,10.69 -28,18.15 -9.88,7.96 -17.41,15.95 -21.95,13.63 z"
       id="animal3"
       onmouseover="hover('hover3', 1)"
       onmouseout="hover('hover3', 0)" />
    <path
       class="aHaNYIduKn"
       d="M717,263.07c-.35-4.09-6.64-7.47-10.83-5.27a6.74,6.74,0,0,0-3.39,7,6,6,0,0,0,1.16,2.66,8.12,8.12,0,0,0,1.75,1.61,6.9,6.9,0,0,0,2.83,1.12C712.85,270.93,717.29,266.73,717,263.07Z"
       id="path176" />
    <path
       class="jKmLJWxisb"
       d="M709.55,270.1c1.34-1.4,1.67-4.25.5-7s-3.3-4.53-5.26-4.57c-2,2.1-3.4,5.23-1.68,7.88,0,0,.16.29.19.33a4.36,4.36,0,0,0,.45.67,4.86,4.86,0,0,0,1.56,1.5,8.17,8.17,0,0,0,2.54,1.09c.28,0,.68.06.92.12A2.55,2.55,0,0,0,709.55,270.1Z"
       id="path178" />
    <ellipse
       class="DvZGornfXn"
       cx="601.97"
       cy="424.49"
       rx="3.37"
       ry="5.81"
       transform="translate(-5.06 841.71) rotate(-69.69)"
       id="ellipse180" />
    <circle
       class="DvZGornfXn"
       cx="595.94"
       cy="422.25"
       r="4.17"
       id="circle182" />
    <circle
       class="DvZGornfXn"
       cx="591.41"
       cy="420.58"
       r="2.61"
       id="circle184" />
    <line
       class="DvZGornfXn"
       x1="590.23"
       y1="425.18"
       x2="594.07"
       y2="424.59"
       id="line186" />
    <path
       class="DvZGornfXn"
       d="M590.23,425.18a4.7,4.7,0,0,1,1.86-.67,4.76,4.76,0,0,1,2,.08,4.62,4.62,0,0,1-1.87.66A4.7,4.7,0,0,1,590.23,425.18Z"
       id="path188" />
    <line
       class="DvZGornfXn"
       x1="592.1"
       y1="428.52"
       x2="594.1"
       y2="425.71"
       id="line190" />
    <path
       class="DvZGornfXn"
       d="M592.1,428.52a3.87,3.87,0,0,1,.69-1.62,3.78,3.78,0,0,1,1.31-1.19,3.87,3.87,0,0,1-.7,1.63A3.71,3.71,0,0,1,592.1,428.52Z"
       id="path192" />
    <line
       class="DvZGornfXn"
       x1="590.46"
       y1="421.03"
       x2="583.22"
       y2="421.58"
       id="line194" />
    <path
       class="DvZGornfXn"
       d="M590.46,421a17.71,17.71,0,0,1-7.24.55,16,16,0,0,1,3.6-.65A16.48,16.48,0,0,1,590.46,421Z"
       id="path196" />
    <line
       class="DvZGornfXn"
       x1="591.12"
       y1="420.06"
       x2="585.6"
       y2="414.38"
       id="line198" />
    <path
       class="DvZGornfXn"
       d="M591.12,420.06a18.78,18.78,0,0,1-3-2.58,18.29,18.29,0,0,1-2.49-3.1,21.11,21.11,0,0,1,5.52,5.68Z"
       id="path200" />
    <line
       class="DvZGornfXn"
       x1="593.32"
       y1="416.21"
       x2="595.85"
       y2="419.15"
       id="line202" />
    <path
       class="DvZGornfXn"
       d="M593.32,416.21a4.62,4.62,0,0,1,1.55,1.23,4.46,4.46,0,0,1,1,1.71,5.23,5.23,0,0,1-2.53-2.94Z"
       id="path204" />
    <line
       class="DvZGornfXn"
       x1="596.92"
       y1="414.89"
       x2="596.61"
       y2="418.32"
       id="line206" />
    <path
       class="DvZGornfXn"
       d="M596.92,414.89a4.12,4.12,0,0,1-.31,3.43,3.83,3.83,0,0,1-.22-1.75A3.93,3.93,0,0,1,596.92,414.89Z"
       id="path208" />
    <ellipse
       class="DvZGornfXn"
       cx="685.31"
       cy="463.48"
       rx="3.37"
       ry="5.81"
       transform="translate(12.79 945.32) rotate(-69.69)"
       id="ellipse210" />
    <circle
       class="DvZGornfXn"
       cx="679.27"
       cy="461.24"
       r="4.17"
       id="circle212" />
    <circle
       class="DvZGornfXn"
       cx="674.74"
       cy="459.57"
       r="2.61"
       id="circle214" />
    <line
       class="DvZGornfXn"
       x1="673.56"
       y1="464.17"
       x2="677.4"
       y2="463.58"
       id="line216" />
    <path
       class="DvZGornfXn"
       d="M673.56,464.17a4.8,4.8,0,0,1,1.87-.67,4.55,4.55,0,0,1,2,.08,4.68,4.68,0,0,1-1.86.66A4.76,4.76,0,0,1,673.56,464.17Z"
       id="path218" />
    <line
       class="DvZGornfXn"
       x1="675.44"
       y1="467.51"
       x2="677.43"
       y2="464.7"
       id="line220" />
    <path
       class="DvZGornfXn"
       d="M675.44,467.51a4.16,4.16,0,0,1,2-2.81,4.16,4.16,0,0,1-2,2.81Z"
       id="path222" />
    <line
       class="DvZGornfXn"
       x1="673.8"
       y1="460.02"
       x2="666.56"
       y2="460.57"
       id="line224" />
    <path
       class="DvZGornfXn"
       d="M673.8,460a15.32,15.32,0,0,1-3.59.65,16,16,0,0,1-3.65-.1,15.5,15.5,0,0,1,3.59-.65A16,16,0,0,1,673.8,460Z"
       id="path226" />
    <line
       class="DvZGornfXn"
       x1="674.46"
       y1="459.05"
       x2="668.93"
       y2="453.37"
       id="line228" />
    <path
       class="DvZGornfXn"
       d="M674.46,459.05a18,18,0,0,1-3-2.58,18.35,18.35,0,0,1-2.5-3.1,18,18,0,0,1,3,2.58A18.85,18.85,0,0,1,674.46,459.05Z"
       id="path230" />
    <line
       class="DvZGornfXn"
       x1="676.66"
       y1="455.2"
       x2="679.19"
       y2="458.14"
       id="line232" />
    <path
       class="DvZGornfXn"
       d="M676.66,455.2a4.6,4.6,0,0,1,1.55,1.22,4.71,4.71,0,0,1,1,1.72,4.72,4.72,0,0,1-1.55-1.23A4.81,4.81,0,0,1,676.66,455.2Z"
       id="path234" />
    <line
       class="DvZGornfXn"
       x1="680.26"
       y1="453.88"
       x2="679.95"
       y2="457.31"
       id="line236" />
    <path
       class="DvZGornfXn"
       d="M680.26,453.88a3.8,3.8,0,0,1,.22,1.75,4,4,0,0,1-.53,1.68,3.7,3.7,0,0,1-.22-1.75A3.93,3.93,0,0,1,680.26,453.88Z"
       id="path238" />
    <ellipse
       class="DvZGornfXn"
       cx="494.32"
       cy="426.23"
       rx="3.37"
       ry="5.81"
       transform="translate(-76.97 741.89) rotate(-69.69)"
       id="ellipse240" />
    <circle
       class="DvZGornfXn"
       cx="488.29"
       cy="423.99"
       r="4.17"
       id="circle242" />
    <circle
       class="DvZGornfXn"
       cx="483.76"
       cy="422.32"
       r="2.61"
       id="circle244" />
    <line
       class="DvZGornfXn"
       x1="482.58"
       y1="426.92"
       x2="486.42"
       y2="426.33"
       id="line246" />
    <path
       class="DvZGornfXn"
       d="M482.58,426.92a4.7,4.7,0,0,1,1.86-.67,4.6,4.6,0,0,1,2,.08,4.78,4.78,0,0,1-1.87.66A4.7,4.7,0,0,1,482.58,426.92Z"
       id="path248" />
    <line
       class="DvZGornfXn"
       x1="484.45"
       y1="430.26"
       x2="486.45"
       y2="427.45"
       id="line250" />
    <path
       class="DvZGornfXn"
       d="M484.45,430.26a3.82,3.82,0,0,1,.69-1.62,3.87,3.87,0,0,1,1.31-1.19,3.76,3.76,0,0,1-.69,1.62A3.68,3.68,0,0,1,484.45,430.26Z"
       id="path252" />
    <line
       class="DvZGornfXn"
       x1="482.82"
       y1="422.77"
       x2="475.58"
       y2="423.32"
       id="line254" />
    <path
       class="DvZGornfXn"
       d="M482.82,422.77a15.49,15.49,0,0,1-3.6.65,15.89,15.89,0,0,1-3.64-.1,15.32,15.32,0,0,1,3.59-.65A16,16,0,0,1,482.82,422.77Z"
       id="path256" />
    <line
       class="DvZGornfXn"
       x1="483.47"
       y1="421.8"
       x2="477.95"
       y2="416.12"
       id="line258" />
    <path
       class="DvZGornfXn"
       d="M483.47,421.8a21.11,21.11,0,0,1-5.52-5.68,21.11,21.11,0,0,1,5.52,5.68Z"
       id="path260" />
    <line
       class="DvZGornfXn"
       x1="485.68"
       y1="417.95"
       x2="488.21"
       y2="420.89"
       id="line262" />
    <path
       class="DvZGornfXn"
       d="M485.68,418a4.8,4.8,0,0,1,1.55,1.22,4.86,4.86,0,0,1,1,1.72,4.62,4.62,0,0,1-1.55-1.23A4.53,4.53,0,0,1,485.68,418Z"
       id="path264" />
    <line
       class="DvZGornfXn"
       x1="489.28"
       y1="416.62"
       x2="488.96"
       y2="420.06"
       id="line266" />
    <path
       class="DvZGornfXn"
       d="M489.28,416.62a3.85,3.85,0,0,1,.21,1.76,3.71,3.71,0,0,1-.53,1.68,3.69,3.69,0,0,1-.21-1.75A3.75,3.75,0,0,1,489.28,416.62Z"
       id="path268" />
    <ellipse
       class="DvZGornfXn"
       cx="476.94"
       cy="370.11"
       rx="3.37"
       ry="5.81"
       transform="translate(-35.69 688.95) rotate(-69.69)"
       id="ellipse270" />
    <circle
       class="DvZGornfXn"
       cx="470.91"
       cy="367.87"
       r="4.17"
       id="circle272" />
    <circle
       class="DvZGornfXn"
       cx="466.38"
       cy="366.2"
       r="2.61"
       id="circle274" />
    <line
       class="DvZGornfXn"
       x1="465.2"
       y1="370.8"
       x2="469.04"
       y2="370.21"
       id="line276" />
    <path
       class="DvZGornfXn"
       d="M465.2,370.8a4.7,4.7,0,0,1,1.86-.67,4.76,4.76,0,0,1,2,.08,4.62,4.62,0,0,1-1.87.66A4.7,4.7,0,0,1,465.2,370.8Z"
       id="path278" />
    <line
       class="DvZGornfXn"
       x1="467.07"
       y1="374.14"
       x2="469.07"
       y2="371.33"
       id="line280" />
    <path
       class="DvZGornfXn"
       d="M467.07,374.14a4.13,4.13,0,0,1,2-2.81,4.21,4.21,0,0,1-2,2.81Z"
       id="path282" />
    <line
       class="DvZGornfXn"
       x1="465.43"
       y1="366.65"
       x2="458.2"
       y2="367.2"
       id="line284" />
    <path
       class="DvZGornfXn"
       d="M465.43,366.65a17.67,17.67,0,0,1-7.23.55,17.67,17.67,0,0,1,7.23-.55Z"
       id="path286" />
    <line
       class="DvZGornfXn"
       x1="466.09"
       y1="365.68"
       x2="460.57"
       y2="360"
       id="line288" />
    <path
       class="DvZGornfXn"
       d="M466.09,365.68a18.78,18.78,0,0,1-3-2.58,18.29,18.29,0,0,1-2.49-3.1,21.11,21.11,0,0,1,5.52,5.68Z"
       id="path290" />
    <line
       class="DvZGornfXn"
       x1="468.29"
       y1="361.83"
       x2="470.83"
       y2="364.77"
       id="line292" />
    <path
       class="DvZGornfXn"
       d="M468.29,361.83a5.3,5.3,0,0,1,2.54,2.94,5.3,5.3,0,0,1-2.54-2.94Z"
       id="path294" />
    <line
       class="DvZGornfXn"
       x1="471.9"
       y1="360.51"
       x2="471.58"
       y2="363.94"
       id="line296" />
    <path
       class="DvZGornfXn"
       d="M471.9,360.51a3.81,3.81,0,0,1,.21,1.75,3.67,3.67,0,0,1-.53,1.68,4.08,4.08,0,0,1,.32-3.43Z"
       id="path298" />
    <ellipse
       class="DvZGornfXn"
       cx="603.35"
       cy="484.35"
       rx="3.37"
       ry="5.81"
       transform="translate(-60.29 882.09) rotate(-69.69)"
       id="ellipse300" />
    <circle
       class="DvZGornfXn"
       cx="597.32"
       cy="482.11"
       r="4.17"
       id="circle302" />
    <circle
       class="DvZGornfXn"
       cx="592.79"
       cy="480.44"
       r="2.61"
       id="circle304" />
    <line
       class="DvZGornfXn"
       x1="591.61"
       y1="485.04"
       x2="595.45"
       y2="484.45"
       id="line306" />
    <path
       class="DvZGornfXn"
       d="M591.61,485a4.7,4.7,0,0,1,1.86-.67,4.6,4.6,0,0,1,2,.08,4.78,4.78,0,0,1-1.87.66A4.7,4.7,0,0,1,591.61,485Z"
       id="path308" />
    <line
       class="DvZGornfXn"
       x1="593.48"
       y1="488.38"
       x2="595.48"
       y2="485.57"
       id="line310" />
    <path
       class="DvZGornfXn"
       d="M593.48,488.38a3.82,3.82,0,0,1,.69-1.62,3.87,3.87,0,0,1,1.31-1.19,4.13,4.13,0,0,1-2,2.81Z"
       id="path312" />
    <line
       class="DvZGornfXn"
       x1="591.85"
       y1="480.89"
       x2="584.61"
       y2="481.44"
       id="line314" />
    <path
       class="DvZGornfXn"
       d="M591.85,480.89a15.49,15.49,0,0,1-3.6.65,15.89,15.89,0,0,1-3.64-.1,15.32,15.32,0,0,1,3.59-.65A16,16,0,0,1,591.85,480.89Z"
       id="path316" />
    <line
       class="DvZGornfXn"
       x1="592.5"
       y1="479.92"
       x2="586.98"
       y2="474.24"
       id="line318" />
    <path
       class="DvZGornfXn"
       d="M592.5,479.92a21.11,21.11,0,0,1-5.52-5.68,21.11,21.11,0,0,1,5.52,5.68Z"
       id="path320" />
    <line
       class="DvZGornfXn"
       x1="594.71"
       y1="476.07"
       x2="597.24"
       y2="479.01"
       id="line322" />
    <path
       class="DvZGornfXn"
       d="M594.71,476.07a4.8,4.8,0,0,1,1.55,1.22,4.86,4.86,0,0,1,1,1.72,4.62,4.62,0,0,1-1.55-1.23A4.53,4.53,0,0,1,594.71,476.07Z"
       id="path324" />
    <line
       class="DvZGornfXn"
       x1="598.31"
       y1="474.74"
       x2="597.99"
       y2="478.18"
       id="line326" />
    <path
       class="DvZGornfXn"
       d="M598.31,474.74a3.85,3.85,0,0,1,.21,1.76,3.71,3.71,0,0,1-.53,1.68,3.69,3.69,0,0,1-.21-1.75A3.75,3.75,0,0,1,598.31,474.74Z"
       id="path328" />
    <ellipse
       class="DvZGornfXn"
       cx="756.08"
       cy="438.96"
       rx="3.37"
       ry="5.81"
       transform="translate(81.99 995.69) rotate(-69.69)"
       id="ellipse330" />
    <circle
       class="DvZGornfXn"
       cx="750.04"
       cy="436.73"
       r="4.17"
       id="circle332" />
    <circle
       class="DvZGornfXn"
       cx="745.51"
       cy="435.05"
       r="2.61"
       id="circle334" />
    <line
       class="DvZGornfXn"
       x1="744.33"
       y1="439.65"
       x2="748.17"
       y2="439.07"
       id="line336" />
    <path
       class="DvZGornfXn"
       d="M744.33,439.65a4.78,4.78,0,0,1,1.87-.66,4.55,4.55,0,0,1,2,.08,4.68,4.68,0,0,1-1.86.66A4.6,4.6,0,0,1,744.33,439.65Z"
       id="path338" />
    <line
       class="DvZGornfXn"
       x1="746.21"
       y1="443"
       x2="748.2"
       y2="440.19"
       id="line340" />
    <path
       class="DvZGornfXn"
       d="M746.21,443a3.76,3.76,0,0,1,.69-1.62,3.84,3.84,0,0,1,1.3-1.19,3.76,3.76,0,0,1-.69,1.62A3.84,3.84,0,0,1,746.21,443Z"
       id="path342" />
    <line
       class="DvZGornfXn"
       x1="744.57"
       y1="435.51"
       x2="737.33"
       y2="436.06"
       id="line344" />
    <path
       class="DvZGornfXn"
       d="M744.57,435.51a15.32,15.32,0,0,1-3.59.65,16,16,0,0,1-3.65-.1,15.5,15.5,0,0,1,3.59-.65A16,16,0,0,1,744.57,435.51Z"
       id="path346" />
    <line
       class="DvZGornfXn"
       x1="745.23"
       y1="434.54"
       x2="739.7"
       y2="428.86"
       id="line348" />
    <path
       class="DvZGornfXn"
       d="M745.23,434.54a18,18,0,0,1-3-2.58,18.75,18.75,0,0,1-2.5-3.1,21.35,21.35,0,0,1,5.53,5.68Z"
       id="path350" />
    <line
       class="DvZGornfXn"
       x1="747.43"
       y1="430.68"
       x2="749.96"
       y2="433.63"
       id="line352" />
    <path
       class="DvZGornfXn"
       d="M747.43,430.68a5.21,5.21,0,0,1,2.53,2.95,5.21,5.21,0,0,1-2.53-2.95Z"
       id="path354" />
    <line
       class="DvZGornfXn"
       x1="751.03"
       y1="429.36"
       x2="750.72"
       y2="432.8"
       id="line356" />
    <path
       class="DvZGornfXn"
       d="M751,429.36a3.83,3.83,0,0,1,.22,1.75,4,4,0,0,1-.53,1.69,3.7,3.7,0,0,1-.22-1.75A4,4,0,0,1,751,429.36Z"
       id="path358" />
    <ellipse
       class="DvZGornfXn"
       cx="541.86"
       cy="455.42"
       rx="3.37"
       ry="5.81"
       transform="matrix(0.35, -0.94, 0.94, 0.35, -73.32, 805.54)"
       id="ellipse360" />
    <circle
       class="DvZGornfXn"
       cx="535.83"
       cy="453.19"
       r="4.17"
       id="circle362" />
    <circle
       class="DvZGornfXn"
       cx="531.3"
       cy="451.51"
       r="2.61"
       id="circle364" />
    <line
       class="DvZGornfXn"
       x1="530.12"
       y1="456.11"
       x2="533.96"
       y2="455.53"
       id="line366" />
    <path
       class="DvZGornfXn"
       d="M530.12,456.11a4.68,4.68,0,0,1,1.86-.66,4.6,4.6,0,0,1,2,.08,4.78,4.78,0,0,1-1.87.66A4.55,4.55,0,0,1,530.12,456.11Z"
       id="path368" />
    <line
       class="DvZGornfXn"
       x1="531.99"
       y1="459.46"
       x2="533.99"
       y2="456.65"
       id="line370" />
    <path
       class="DvZGornfXn"
       d="M532,459.46a3.76,3.76,0,0,1,.69-1.62,3.87,3.87,0,0,1,1.31-1.19,3.76,3.76,0,0,1-.69,1.62A3.87,3.87,0,0,1,532,459.46Z"
       id="path372" />
    <line
       class="DvZGornfXn"
       x1="530.36"
       y1="451.97"
       x2="523.12"
       y2="452.52"
       id="line374" />
    <path
       class="DvZGornfXn"
       d="M530.36,452a17.74,17.74,0,0,1-7.24.55,15.32,15.32,0,0,1,3.59-.65A16,16,0,0,1,530.36,452Z"
       id="path376" />
    <line
       class="DvZGornfXn"
       x1="531.01"
       y1="451"
       x2="525.49"
       y2="445.32"
       id="line378" />
    <path
       class="DvZGornfXn"
       d="M531,451a18.78,18.78,0,0,1-3-2.58,19.22,19.22,0,0,1-2.49-3.1,18.78,18.78,0,0,1,3,2.58A18.39,18.39,0,0,1,531,451Z"
       id="path380" />
    <line
       class="DvZGornfXn"
       x1="533.22"
       y1="447.14"
       x2="535.75"
       y2="450.09"
       id="line382" />
    <path
       class="DvZGornfXn"
       d="M533.22,447.14a5,5,0,0,1,1.55,1.23,4.77,4.77,0,0,1,1,1.72,4.75,4.75,0,0,1-1.55-1.23A4.5,4.5,0,0,1,533.22,447.14Z"
       id="path384" />
    <line
       class="DvZGornfXn"
       x1="536.82"
       y1="445.82"
       x2="536.5"
       y2="449.26"
       id="line386" />
    <path
       class="DvZGornfXn"
       d="M536.82,445.82a3.82,3.82,0,0,1,.21,1.75,3.71,3.71,0,0,1-.53,1.69,4.21,4.21,0,0,1,.32-3.44Z"
       id="path388" />
    <ellipse
       class="DvZGornfXn"
       cx="477.49"
       cy="316.23"
       rx="3.37"
       ry="5.81"
       transform="translate(15.2 654.28) rotate(-69.69)"
       id="ellipse390" />
    <circle
       class="DvZGornfXn"
       cx="471.46"
       cy="313.99"
       r="4.17"
       id="circle392" />
    <circle
       class="DvZGornfXn"
       cx="466.93"
       cy="312.32"
       r="2.61"
       id="circle394" />
    <line
       class="DvZGornfXn"
       x1="465.75"
       y1="316.92"
       x2="469.59"
       y2="316.33"
       id="line396" />
    <path
       class="DvZGornfXn"
       d="M465.75,316.92a4.75,4.75,0,0,1,1.86-.67,4.6,4.6,0,0,1,2,.08,5.29,5.29,0,0,1-3.84.59Z"
       id="path398" />
    <line
       class="DvZGornfXn"
       x1="467.62"
       y1="320.26"
       x2="469.62"
       y2="317.45"
       id="line400" />
    <path
       class="DvZGornfXn"
       d="M467.62,320.26a3.83,3.83,0,0,1,.7-1.62,3.75,3.75,0,0,1,1.3-1.19,3.76,3.76,0,0,1-.69,1.62A3.87,3.87,0,0,1,467.62,320.26Z"
       id="path402" />
    <line
       class="DvZGornfXn"
       x1="465.99"
       y1="312.77"
       x2="458.75"
       y2="313.32"
       id="line404" />
    <path
       class="DvZGornfXn"
       d="M466,312.77a15.5,15.5,0,0,1-3.59.65,16,16,0,0,1-3.65-.1,15.32,15.32,0,0,1,3.59-.65A16,16,0,0,1,466,312.77Z"
       id="path406" />
    <line
       class="DvZGornfXn"
       x1="466.64"
       y1="311.8"
       x2="461.12"
       y2="306.12"
       id="line408" />
    <path
       class="DvZGornfXn"
       d="M466.64,311.8a21.11,21.11,0,0,1-5.52-5.68,21.11,21.11,0,0,1,5.52,5.68Z"
       id="path410" />
    <line
       class="DvZGornfXn"
       x1="468.85"
       y1="307.95"
       x2="471.38"
       y2="310.89"
       id="line412" />
    <path
       class="DvZGornfXn"
       d="M468.85,308a4.7,4.7,0,0,1,1.55,1.22,4.86,4.86,0,0,1,1,1.72,4.62,4.62,0,0,1-1.55-1.23A4.67,4.67,0,0,1,468.85,308Z"
       id="path414" />
    <line
       class="DvZGornfXn"
       x1="472.45"
       y1="306.62"
       x2="472.13"
       y2="310.06"
       id="line416" />
    <path
       class="DvZGornfXn"
       d="M472.45,306.62a3.85,3.85,0,0,1,.21,1.76,3.71,3.71,0,0,1-.53,1.68,3.69,3.69,0,0,1-.21-1.75A3.75,3.75,0,0,1,472.45,306.62Z"
       id="path418" />
    <ellipse
       class="DvZGornfXn"
       cx="541.07"
       cy="394.44"
       rx="3.37"
       ry="5.81"
       transform="translate(-16.64 764.97) rotate(-69.69)"
       id="ellipse420" />
    <circle
       class="DvZGornfXn"
       cx="535.03"
       cy="392.2"
       r="4.17"
       id="circle422" />
    <circle
       class="DvZGornfXn"
       cx="530.5"
       cy="390.53"
       r="2.61"
       id="circle424" />
    <line
       class="DvZGornfXn"
       x1="529.32"
       y1="395.13"
       x2="533.16"
       y2="394.54"
       id="line426" />
    <path
       class="DvZGornfXn"
       d="M529.32,395.13a4.8,4.8,0,0,1,1.87-.67,4.55,4.55,0,0,1,2,.08,4.68,4.68,0,0,1-1.86.66A4.76,4.76,0,0,1,529.32,395.13Z"
       id="path428" />
    <line
       class="DvZGornfXn"
       x1="531.2"
       y1="398.47"
       x2="533.19"
       y2="395.66"
       id="line430" />
    <path
       class="DvZGornfXn"
       d="M531.2,398.47a4.16,4.16,0,0,1,2-2.81,3.76,3.76,0,0,1-.69,1.62A3.65,3.65,0,0,1,531.2,398.47Z"
       id="path432" />
    <line
       class="DvZGornfXn"
       x1="529.56"
       y1="390.98"
       x2="522.32"
       y2="391.53"
       id="line434" />
    <path
       class="DvZGornfXn"
       d="M529.56,391a17.71,17.71,0,0,1-7.24.55,15.5,15.5,0,0,1,3.59-.65A16,16,0,0,1,529.56,391Z"
       id="path436" />
    <line
       class="DvZGornfXn"
       x1="530.22"
       y1="390.01"
       x2="524.69"
       y2="384.33"
       id="line438" />
    <path
       class="DvZGornfXn"
       d="M530.22,390a18,18,0,0,1-3-2.58,18.35,18.35,0,0,1-2.5-3.1,18,18,0,0,1,3,2.58A18.85,18.85,0,0,1,530.22,390Z"
       id="path440" />
    <line
       class="DvZGornfXn"
       x1="532.42"
       y1="386.16"
       x2="534.95"
       y2="389.1"
       id="line442" />
    <path
       class="DvZGornfXn"
       d="M532.42,386.16A5.15,5.15,0,0,1,535,389.1a4.72,4.72,0,0,1-1.55-1.23A4.81,4.81,0,0,1,532.42,386.16Z"
       id="path444" />
    <line
       class="DvZGornfXn"
       x1="536.02"
       y1="384.84"
       x2="535.71"
       y2="388.27"
       id="line446" />
    <path
       class="DvZGornfXn"
       d="M536,384.84a3.82,3.82,0,0,1,.22,1.75,4,4,0,0,1-.53,1.68,3.7,3.7,0,0,1-.22-1.75A3.93,3.93,0,0,1,536,384.84Z"
       id="path448" />
    <path
       class="qkcRWPwSDM"
       d="M941.56,647.91c.52,2.61,1.37,6.89-1.17,11a13.23,13.23,0,0,1-7.75,5.63,8.7,8.7,0,0,1-5.87,0,7.88,7.88,0,0,1-3.29-2.58c-2,2-4,4.59-3.29,6.57.42,1.19,1.44,1.21,2.82,2.82,1.88,2.19,3.16,5.83,1.88,7.52-.35.46-1.14,1.09-5.17.94-4.42-.18-6.51-1.07-9.86-1.65A37.09,37.09,0,0,0,899.3,678c-5.66.57-8.48.86-10.57,1.88a6,6,0,0,1-4,.7,4.86,4.86,0,0,1-2.35-1.41,11.51,11.51,0,0,1,.23-6.11,11.69,11.69,0,0,1,4.7-6.1,12,12,0,0,1,5.16-1.88c-3.44-2.36-15.13-11-16-24.19a23.73,23.73,0,0,1,.23-5.16c-6.92,4-13.93,4.76-17.61,1.64a7.59,7.59,0,0,1-2.82-5.16,7.21,7.21,0,0,1,3-6.11c1.7-1.2,2.44-.48,5.64-1.64a26.67,26.67,0,0,0,6.9-3.5c2.81-2.14,3-2.54,4.34-4.67a36,36,0,0,0,4.36-13c-8.13,5-24.92,7-28.85,2-.65-.83-1.72-2.65-.79-9.08,1-6.67,3.12-21.53,16.58-30.4a37.15,37.15,0,0,1,19.74-5.92,34.4,34.4,0,0,1,8.13-9.61c3.25-2.62,5.39-3.28,10.35-7.39,2.91-2.41,4.37-3.61,5.43-5.18,2.28-3.37,1.88-5.45,4.68-10.11,1.6-2.66,2.69-4.43,4.19-4.43,2.24,0,3.89,3.92,4.93,6.41,1.36,3.24,3.19,7.6,2,12.57-.65,2.64-1.46,2.58-6.41,10.1-4.16,6.33-3.68,6.52-5.91,9.12s-5.31,6.1-10.36,7.64a17.91,17.91,0,0,1-6.41.74,9.6,9.6,0,0,0,2.35,4c1.24,1.23,4.28,3.51,17.62,2.35,7.79-.67,8.29-1.58,12.68-1.17,2.45.23,10.91,1,12.21,5.4.87,2.92-1.87,6.1-3.29,7.75-3.5,4.06-7.94,5.44-13.86,7.28A38.82,38.82,0,0,1,915,597.42c-3.16.14-7,.27-11.27-1.64a20.5,20.5,0,0,1-5.88-4c0,1.65,4.72,13,8.13,19.79a21.23,21.23,0,0,0,3.09,4.57c4,4.56,14,16,14.42,16.52l0,0a9.28,9.28,0,0,1,1.82,2.54,12,12,0,0,1,1.17,4.69c.76-.67,4.38-3.76,8.22-2.81C939.65,638.31,941,645.12,941.56,647.91Z"
       id="path450" />
    <path
       class="aHaNYIduKn"
       d="M878.94,590.79c-.27-3.08-5-5.62-8.16-4a5.12,5.12,0,0,0-2.12,2.25,5,5,0,0,0-.43,3.06,4.54,4.54,0,0,0,.87,2,6.6,6.6,0,0,0,1.32,1.21,5.32,5.32,0,0,0,2.13.84C875.84,596.71,879.18,593.54,878.94,590.79Z"
       id="path452" />
    <path
       d="M873.35,596.08c1-1.05,1.26-3.2.38-5.28s-2.48-3.41-4-3.44c-1.49,1.58-2.56,3.94-1.27,5.93l.15.25a3.32,3.32,0,0,0,.33.5,3.64,3.64,0,0,0,1.18,1.13,6,6,0,0,0,1.91.82c.21,0,.51,0,.7.1A2.25,2.25,0,0,0,873.35,596.08Z"
       id="path454" />
    <path
       class="XkYbKxSGIn"
       d="M850.68,602.13c-.47.65.45,2.15.74,2.62a3.44,3.44,0,0,0,1.81,1.75c1.64.46,3.84-1.21,3.74-2.39C856.81,602.38,851.51,601,850.68,602.13Z"
       id="path456" />
    <path
       class="aHaNYIduKn"
       d="M865.54,584.7c-.24-2.78-4.51-5.07-7.35-3.58a4.54,4.54,0,0,0-2.3,4.78,3.94,3.94,0,0,0,.78,1.8,5.66,5.66,0,0,0,1.19,1.1,4.78,4.78,0,0,0,1.92.76C862.74,590,865.75,587.18,865.54,584.7Z"
       id="path458" />
    <path
       d="M860.5,589.46c.91-.94,1.13-2.88.34-4.76s-2.24-3.07-3.57-3.1c-1.34,1.43-2.3,3.55-1.14,5.35l.13.23a3.52,3.52,0,0,0,.3.45,3.44,3.44,0,0,0,1.06,1,5.76,5.76,0,0,0,1.73.74c.19,0,.46,0,.62.08A1.57,1.57,0,0,0,860.5,589.46Z"
       id="path460" />
  </g>
  <g
     id="Layer_4"
     data-name="Layer 4">
    <path
       class="fGIrxSrYip"
       d="M725.61,32.27a115.31,115.31,0,0,1-2.22-45.21c.44-2.84,1-5.58,1.59-8.2"
       id="path463" />
    <path
       class="fGIrxSrYip"
       d="M734.66,29.26a115.3,115.3,0,0,1,30-33.88c2.3-1.72,4.6-3.3,6.87-4.75"
       id="path465" />
    <path
       class="fGIrxSrYip"
       d="M728.7,31.72a115.26,115.26,0,0,1,13-43.35c1.36-2.53,2.78-4.93,4.24-7.2"
       id="path467" />
    <path
       class="aySfchqiOw"
       d="M728.28,33.68c1.73-2.19-5.65-16.48-20.1-21.44-9.84-3.38-27.32-4-38.36,8.4a34.59,34.59,0,0,0-6.56,11.15c9.58-5,22.49-9.85,36-8.69C717.11,24.64,726.57,35.85,728.28,33.68Z"
       id="path469" />
    <path
       class="aySfchqiOw"
       d="M728.25,33.1c-1.08-1.85,8.2-12.71,21.79-15.72,9.25-2,24.62-1.38,31.8,9.13a22.06,22.06,0,0,1,3.52,9.26c-7.38-4.55-17.68-9.26-29.72-9.2C739.79,26.64,729.32,34.93,728.25,33.1Z"
       id="path471" />
  </g>
  <g
     id="clouds">
    <path
       class="aHaNYIduKn"
       d="M906.57,21.09a12.11,12.11,0,0,0,0-7.8c-2.39-6.43-10-7.57-10.93-7.8a15.57,15.57,0,0,0-9,1.5,15.41,15.41,0,0,0-6.59,6.3c-.23.44-.65,2.9-1.58,7.8v1.57a6.5,6.5,0,0,0-1.57-1.57c-3.79-2.58-9.48-.34-12.49,1.57a14.88,14.88,0,0,0-6.24,7.79,15.38,15.38,0,0,0,0,9.35A20.17,20.17,0,0,0,866,50.72h70.27a22.09,22.09,0,0,1-4.69-4.67,16.67,16.67,0,0,1-3.1-6.25c-.84-3.61.58-4.44,0-7.79a13.86,13.86,0,0,0-4.69-7.8c-3-2.44-6.4-2.73-10.93-3.12A36.35,36.35,0,0,0,906.57,21.09Z"
       id="path474" />
    <path
       class="aHaNYIduKn"
       d="M1190.06,84.43a12.11,12.11,0,0,0,0-7.8c-2.39-6.43-10-7.57-10.94-7.8a15.55,15.55,0,0,0-9,1.5,15.38,15.38,0,0,0-6.6,6.3c-.22.44-.64,2.9-1.57,7.8V86a6.5,6.5,0,0,0-1.57-1.57c-3.79-2.58-9.48-.34-12.5,1.57a14.89,14.89,0,0,0-6.23,7.8,15.35,15.35,0,0,0,0,9.34,20.12,20.12,0,0,0,7.81,10.92h70.26a22.28,22.28,0,0,1-4.68-4.67,16.55,16.55,0,0,1-3.11-6.25c-.83-3.61.59-4.44,0-7.79a13.79,13.79,0,0,0-4.68-7.8c-3-2.44-6.41-2.73-10.94-3.12A36.24,36.24,0,0,0,1190.06,84.43Z"
       id="path476" />
    <path
       class="aHaNYIduKn"
       d="M546.4,87.67a12.22,12.22,0,0,0,0-7.79c-2.39-6.44-10-7.57-10.94-7.8a15.45,15.45,0,0,0-15.6,7.8c-.23.43-.64,2.89-1.57,7.79v1.57a6.37,6.37,0,0,0-1.58-1.57c-3.79-2.57-9.47-.34-12.49,1.57A14.93,14.93,0,0,0,498,97a15.38,15.38,0,0,0,0,9.35,20.15,20.15,0,0,0,7.81,10.92h70.26a22.52,22.52,0,0,1-4.68-4.67,16.55,16.55,0,0,1-3.11-6.25c-.83-3.61.59-4.45,0-7.8a13.84,13.84,0,0,0-4.68-7.79c-3-2.44-6.41-2.73-10.94-3.13A38.36,38.36,0,0,0,546.4,87.67Z"
       id="path478" />
    <path
       class="aHaNYIduKn"
       d="M886.51,138.77a12.08,12.08,0,0,0,0-7.79c-2.38-6.44-10-7.57-10.93-7.8A15.45,15.45,0,0,0,860,131c-.23.43-.65,2.89-1.57,7.79v1.58a6.41,6.41,0,0,0-1.58-1.58c-3.79-2.57-9.48-.34-12.49,1.58a15,15,0,0,0-6.24,7.79,15.38,15.38,0,0,0,0,9.35,20.25,20.25,0,0,0,7.81,10.92h70.27a22.28,22.28,0,0,1-4.68-4.67,16.55,16.55,0,0,1-3.11-6.25c-.84-3.61.59-4.45,0-7.8a13.84,13.84,0,0,0-4.68-7.79c-3-2.44-6.41-2.73-10.94-3.13A38.48,38.48,0,0,0,886.51,138.77Z"
       id="path480" />
    <path
       class="aHaNYIduKn"
       d="M535,232.1a12.25,12.25,0,0,0,0-7.8c-2.39-6.43-10.05-7.57-10.94-7.8a15.49,15.49,0,0,0-15.6,7.8c-.23.44-.65,2.9-1.57,7.8v1.57a6.54,6.54,0,0,0-1.58-1.57c-3.79-2.57-9.48-.34-12.49,1.57a14.93,14.93,0,0,0-6.23,7.8,15.35,15.35,0,0,0,0,9.34,20.15,20.15,0,0,0,7.8,10.92h70.27a22.28,22.28,0,0,1-4.68-4.67,16.55,16.55,0,0,1-3.11-6.25c-.83-3.61.59-4.44,0-7.79a13.9,13.9,0,0,0-4.68-7.8c-3-2.44-6.41-2.72-10.94-3.12A38.36,38.36,0,0,0,535,232.1Z"
       id="path482" />
    <path
       class="aHaNYIduKn"
       d="M913.14,377.73a12.11,12.11,0,0,0,0-7.8c-2.38-6.43-10-7.57-10.93-7.8a15.49,15.49,0,0,0-15.6,7.8c-.23.44-.65,2.9-1.58,7.8v1.57a6.33,6.33,0,0,0-1.57-1.57c-3.79-2.57-9.48-.34-12.49,1.57a15,15,0,0,0-6.24,7.8,15.35,15.35,0,0,0,0,9.34,20.17,20.17,0,0,0,7.81,10.92h70.27a22,22,0,0,1-4.68-4.67,16.55,16.55,0,0,1-3.11-6.25c-.84-3.61.58-4.44,0-7.79a13.9,13.9,0,0,0-4.68-7.8c-3-2.44-6.41-2.72-10.94-3.12A38.48,38.48,0,0,0,913.14,377.73Z"
       id="path484" />
    <path
       class="aHaNYIduKn"
       d="M256.48,582.54a12.25,12.25,0,0,0,0-7.8c-2.39-6.43-10.05-7.57-10.94-7.8a15.49,15.49,0,0,0-15.6,7.8c-.23.44-.64,2.9-1.57,7.8v1.57a6.37,6.37,0,0,0-1.58-1.57c-3.79-2.58-9.47-.34-12.49,1.57a14.91,14.91,0,0,0-6.23,7.79,15.38,15.38,0,0,0,0,9.35,20.12,20.12,0,0,0,7.81,10.92h70.26a22.52,22.52,0,0,1-4.68-4.67,16.55,16.55,0,0,1-3.11-6.25c-.83-3.61.59-4.44,0-7.79a13.86,13.86,0,0,0-4.68-7.8c-3-2.44-6.41-2.73-10.94-3.12A36.24,36.24,0,0,0,256.48,582.54Z"
       id="path486" />
    <path
       class="aHaNYIduKn"
       d="M383.33,331.49a19.49,19.49,0,0,0,0-12.49c-3.83-10.31-16.09-12.13-17.52-12.49a24.78,24.78,0,0,0-25,12.49c-.37.69-1,4.64-2.52,12.49V334a10.19,10.19,0,0,0-2.52-2.51c-6.07-4.13-15.18-.55-20,2.51a24,24,0,0,0-10,12.49,24.71,24.71,0,0,0,0,15A32.34,32.34,0,0,0,318.29,379H430.85a35.51,35.51,0,0,1-7.5-7.49,26.5,26.5,0,0,1-5-10c-1.34-5.79.94-7.12,0-12.49a22.14,22.14,0,0,0-7.5-12.49c-4.86-3.91-10.27-4.37-17.52-5A59.87,59.87,0,0,0,383.33,331.49Z"
       id="path488" />
    <path
       class="aHaNYIduKn"
       d="M1157.2,210.23a19.36,19.36,0,0,0,0-12.49c-3.83-10.3-16.09-12.12-17.52-12.49a24.82,24.82,0,0,0-25,12.49c-.36.7-1,4.64-2.52,12.49v2.52a10.4,10.4,0,0,0-2.52-2.52c-6.07-4.12-15.18-.54-20,2.52a23.91,23.91,0,0,0-10,12.49,24.71,24.71,0,0,0,0,15,32.39,32.39,0,0,0,12.51,17.49h112.56a35.74,35.74,0,0,1-7.5-7.49,26.5,26.5,0,0,1-5-10c-1.34-5.79.94-7.13,0-12.49a22.14,22.14,0,0,0-7.5-12.49c-4.86-3.91-10.26-4.37-17.52-5A62.08,62.08,0,0,0,1157.2,210.23Z"
       id="path490" />
    <path
       class="aHaNYIduKn"
       d="M782.07,474.23a19.36,19.36,0,0,0,0-12.49c-3.83-10.31-16.09-12.12-17.52-12.49a24.78,24.78,0,0,0-25,12.49c-.36.7-1,4.64-2.52,12.49v2.52a10.4,10.4,0,0,0-2.52-2.52c-6.07-4.12-15.18-.54-20,2.52a23.87,23.87,0,0,0-10,12.49,24.68,24.68,0,0,0,0,15A32.38,32.38,0,0,0,717,521.71H829.59a36,36,0,0,1-7.5-7.49,26.62,26.62,0,0,1-5-10c-1.34-5.79.94-7.12,0-12.49a22.17,22.17,0,0,0-7.5-12.49c-4.86-3.91-10.26-4.36-17.52-5A59.87,59.87,0,0,0,782.07,474.23Z"
       id="path492" />
    <path
       class="aHaNYIduKn"
       d="M428.65,630.94a19.49,19.49,0,0,0,0-12.49c-3.83-10.31-16.1-12.13-17.52-12.49a24.78,24.78,0,0,0-25,12.49c-.37.7-1,4.64-2.52,12.49v2.51a10.36,10.36,0,0,0-2.52-2.51c-6.08-4.12-15.19-.55-20,2.51a23.9,23.9,0,0,0-10,12.49,24.56,24.56,0,0,0,0,15,32.3,32.3,0,0,0,12.51,17.49H476.16a36,36,0,0,1-7.5-7.49,26.65,26.65,0,0,1-5-10c-1.33-5.79.95-7.12,0-12.49a22.12,22.12,0,0,0-7.49-12.49c-4.86-3.91-10.27-4.37-17.52-5A59.87,59.87,0,0,0,428.65,630.94Z"
       id="path494" />
    <path
       class="aHaNYIduKn"
       d="M484.41,510.86a12.08,12.08,0,0,0,0-7.79c-2.38-6.44-10-7.57-10.93-7.8a15.45,15.45,0,0,0-15.6,7.8c-.23.43-.65,2.89-1.58,7.79v1.57a6.33,6.33,0,0,0-1.57-1.57c-3.79-2.57-9.48-.34-12.49,1.57a15,15,0,0,0-6.24,7.8,15.38,15.38,0,0,0,0,9.35,20.24,20.24,0,0,0,7.81,10.92h70.27a22.09,22.09,0,0,1-4.68-4.68,16.43,16.43,0,0,1-3.11-6.24c-.84-3.62.58-4.45,0-7.8a13.84,13.84,0,0,0-4.68-7.79c-3-2.45-6.41-2.73-10.94-3.13A38.48,38.48,0,0,0,484.41,510.86Z"
       id="path496" />
    <path
       class="aHaNYIduKn"
       d="M165,416.24a12.11,12.11,0,0,0,0-7.8c-2.38-6.43-10-7.57-10.93-7.79a15.46,15.46,0,0,0-15.6,7.79c-.23.44-.65,2.9-1.58,7.8v1.57a6.5,6.5,0,0,0-1.57-1.57c-3.79-2.57-9.48-.34-12.49,1.57a15,15,0,0,0-6.24,7.8,15.38,15.38,0,0,0,0,9.35,20.24,20.24,0,0,0,7.81,10.92h70.27A22.33,22.33,0,0,1,190,441.2a16.58,16.58,0,0,1-3.11-6.24c-.84-3.62.58-4.45,0-7.8a13.86,13.86,0,0,0-4.69-7.8c-3-2.44-6.4-2.72-10.93-3.12A38.48,38.48,0,0,0,165,416.24Z"
       id="path498" />
    <path
       class="aHaNYIduKn"
       d="M131.16,97.81a12.08,12.08,0,0,0,0-7.79c-2.39-6.44-10-7.57-10.94-7.8a15.47,15.47,0,0,0-15.6,7.8c-.23.43-.64,2.89-1.57,7.79v1.57a6.5,6.5,0,0,0-1.57-1.57c-3.8-2.57-9.48-.34-12.5,1.57a14.93,14.93,0,0,0-6.23,7.8,15.38,15.38,0,0,0,0,9.35,20.19,20.19,0,0,0,7.81,10.92h70.26a22.33,22.33,0,0,1-4.68-4.68,16.43,16.43,0,0,1-3.11-6.24c-.83-3.62.59-4.45,0-7.8a13.73,13.73,0,0,0-4.68-7.79c-3-2.45-6.41-2.73-10.94-3.13A38.36,38.36,0,0,0,131.16,97.81Z"
       id="path500" />
    <path
       class="aHaNYIduKn"
       d="M315.73,153.77a12.08,12.08,0,0,0,0-7.79c-2.39-6.44-10.05-7.57-10.94-7.8a15.47,15.47,0,0,0-15.6,7.8c-.23.43-.64,2.89-1.57,7.79v1.58a6.24,6.24,0,0,0-1.58-1.58c-3.79-2.57-9.47-.34-12.49,1.58a14.91,14.91,0,0,0-6.23,7.79,15.38,15.38,0,0,0,0,9.35,20.15,20.15,0,0,0,7.81,10.92h70.26a22.52,22.52,0,0,1-4.68-4.67,16.55,16.55,0,0,1-3.11-6.25c-.83-3.61.59-4.45,0-7.8a13.73,13.73,0,0,0-4.68-7.79c-3-2.44-6.41-2.73-10.94-3.13A38.36,38.36,0,0,0,315.73,153.77Z"
       id="path502" />
  </g>
  <g
     id="реплики">
    <g
       id="window7">
      <rect
         class="rjuoVkGqdV"
         x="838.53998"
         y="139.35001"
         width="374.26999"
         height="67.589996"
         id="rect505" />
      <text
         class="SlbKpYrcdQ"
         transform="translate(857.84,178.71)"
         id="text507">О нет! Мой обед убегает!!!</text>
      <line
         class="SqGQVBiDmf"
         x1="1186.66"
         y1="161.97"
         x2="1201.83"
         y2="146.8"
         id="line509" />
      <line
         class="SqGQVBiDmf"
         x1="1201.83"
         y1="161.97"
         x2="1186.66"
         y2="146.8"
         id="line511" />
    </g>
    <rect
       style="fill:#0000ff;fill-opacity:0"
       id="rect526"
       width="15.169922"
       height="15.169998"
       x="1186.66"
       y="146.8"
       onclick="closeWindow('window7')"
       class="button" />
  </g>
</svg>
