<?xml version="1.0" encoding="UTF-8" standalone="no"?>
<svg
   xmlns:dc="http://purl.org/dc/elements/1.1/"
   xmlns:cc="http://creativecommons.org/ns#"
   xmlns:rdf="http://www.w3.org/1999/02/22-rdf-syntax-ns#"
   xmlns:svg="http://www.w3.org/2000/svg"
   xmlns="http://www.w3.org/2000/svg"
   version="1.1"
   id="svg5"
   xml:space="preserve"
   width="1706.6667"
   height="960"
   viewBox="0 0 1706.6667 960"><metadata
     id="metadata8"><rdf:RDF><cc:Work
         rdf:about=""><dc:format>image/svg+xml</dc:format><dc:type
           rdf:resource="http://purl.org/dc/dcmitype/StillImage" /><dc:title></dc:title></cc:Work></rdf:RDF></metadata><defs
     id="defs6"><clipPath
       clipPathUnits="userSpaceOnUse"
       id="clipPath20"><path
         d="M 0,720 H 1280 V 0 H 0 Z"
         id="path18" /></clipPath><clipPath
       clipPathUnits="userSpaceOnUse"
       id="clipPath36"><path
         d="M 0,720 H 1280 V 0 H 0 Z"
         id="path34" /></clipPath><clipPath
       clipPathUnits="userSpaceOnUse"
       id="clipPath84"><path
         d="M 0,720 H 1280 V 0 H 0 Z"
         id="path82" /></clipPath><clipPath
       clipPathUnits="userSpaceOnUse"
       id="clipPath152"><path
         d="M 0,720 H 1280 V 0 H 0 Z"
         id="path150" /></clipPath><clipPath
       clipPathUnits="userSpaceOnUse"
       id="clipPath164"><path
         d="M 0,720 H 1280 V 0 H 0 Z"
         id="path162" /></clipPath><clipPath
       clipPathUnits="userSpaceOnUse"
       id="clipPath220"><path
         d="M 0,720 H 1280 V 0 H 0 Z"
         id="path218" /></clipPath><clipPath
       clipPathUnits="userSpaceOnUse"
       id="clipPath536"><path
         d="M 0,720 H 1280 V 0 H 0 Z"
         id="path534" /></clipPath></defs><g
     id="g10"
     transform="matrix(1.3333333,0,0,-1.3333333,0,960)"><path
       d="M 0,0 H 1280 V 720 H 0 Z"
       style="fill:#f7efe2;fill-opacity:1;fill-rule:nonzero;stroke:none"
       id="path12" /><g
       id="g14"><g
         id="g16"
         clip-path="url(#clipPath20)"><g
           id="g22"
           transform="translate(1254.0532,626.4473)"><path
             d="m 0,0 c -29.171,9.637 -69.13,26.914 -84.075,-17.929 -24.375,-73.189 -123.529,-72.938 -147.498,-125.184 -33.272,-72.554 -103.133,-82.911 -150.511,-98.562 -27.413,-9.052 -90.205,-42.717 -107.918,-88.058 -16.682,-42.627 -29.09,-74.019 -96.546,-88.531 -45.611,-9.814 -53.913,-37.846 -63.786,-48.797 -23.069,-12.999 -48.112,-22.195 -74.269,-27.27"
             style="fill:none;stroke:#ff81e7;stroke-width:16;stroke-linecap:butt;stroke-linejoin:miter;stroke-miterlimit:10;stroke-dasharray:30.47, 20.31;stroke-dashoffset:0;stroke-opacity:1"
             id="path24" /></g><g
           id="g26"
           transform="translate(1114.8862,255.5439)"><path
             d="m 0,0 c -26.013,-23.07 -59,-58.19 -104.62,-27.07 -74.436,50.799 -183.001,-63.458 -243.404,-30.519 -83.865,45.75 -163.701,37.175 -226.255,26.705 -36.19,-6.06 -59.282,-9.162 -108.285,20.988 -46.103,28.33 -95.291,-44.444 -174.694,20.468 -27.883,15.934 -50.914,33.907 -68.923,44.713 -17.539,10.526 -37.621,16.02 -58.075,15.871 -43.234,-0.313 -111.786,-4.186 -137.84,-11.346"
             style="fill:none;stroke:#ff0020;stroke-width:16;stroke-linecap:butt;stroke-linejoin:miter;stroke-miterlimit:10;stroke-dasharray:30.47, 20.31;stroke-dashoffset:0;stroke-opacity:1"
             id="path28" /></g></g></g><g
       id="g30"><g
         id="g32"
         clip-path="url(#clipPath36)"><g
           id="g38"
           transform="translate(514.3003,161.5127)"><path
             d="m 0,0 v -134.152 c 0,-22.64 -15.526,-40.994 -34.678,-40.994 h -526.836 c -19.152,0 -34.678,18.354 -34.678,40.994 V 81.985 c 0,22.64 15.526,40.993 34.678,40.993 h 228.74 c 19.152,0 34.678,-18.353 34.678,-40.993 0,-22.639 15.526,-40.993 34.678,-40.993 h 228.74 C -15.526,40.992 0,22.64 0,0"
             style="fill:#d8e5a5;fill-opacity:1;fill-rule:nonzero;stroke:none"
             id="path40" /></g><g
           id="g42"
           transform="translate(1280,779.8604)"><path
             d="m 0,0 v 0 c 0,-33.061 -26.8,-59.86 -59.86,-59.86 h -301.13 c -8.152,0 -14.76,-6.609 -14.76,-14.76 v -106.561 h 0.99 v -295.38 c 0,-8.151 -6.608,-14.759 -14.76,-14.759 h -618.41 c -8.152,0 -14.76,6.608 -14.76,14.759 v 280.621 c 0,8.151 6.608,14.759 14.76,14.759 h 219.56 c 8.152,0 14.76,6.609 14.76,14.761 v 133.274 c 0,1.516 -0.231,3.025 -0.699,4.467 -1.424,4.385 -2.191,9.062 -2.191,13.918 V 0 c 0,33.06 26.8,59.859 59.86,59.859 H -59.86 C -26.8,59.859 0,33.06 0,0"
             style="fill:#d8e5a5;fill-opacity:1;fill-rule:nonzero;stroke:none"
             id="path44" /></g><g
           id="g46"
           transform="translate(816.0239,731.9805)"><path
             d="M 0,0 C 1.826,2.415 1.492,5.631 -0.353,7.225 -2.575,9.146 -5.918,7.784 -7.578,6.344 -8.979,5.126 -10.41,2.782 -9.692,0.528 c 0.822,-2.581 4.244,-4.364 7.93,-3.348 -2.52,0.354 -4.966,-0.773 -6.168,-2.82 -1.508,-2.569 -0.583,-5.778 1.41,-7.577 1.985,-1.792 5.083,-2.233 7.225,-0.882 2.763,1.745 3.676,6.312 1.057,9.87 0.56,-0.948 1.858,-2.824 4.23,-3.877 2.838,-1.262 7.472,-1.462 8.811,1.056 1.125,2.118 -0.331,5.684 -2.996,7.05 -2.706,1.387 -6.432,0.388 -8.459,-2.644 4.7,0.695 7.383,3.704 7.049,5.816 -0.315,2 -3.454,3.918 -6.344,3.172 C 1.434,5.667 -0.388,2.956 0,0"
             style="fill:#6000ff;fill-opacity:1;fill-rule:nonzero;stroke:none"
             id="path48" /></g><g
           id="g50"
           transform="translate(509.168,345.793)"><path
             d="m 0,0 h -408.743 c -43.401,0 -78.584,35.183 -78.584,78.584 v 111.857 c 0,43.401 35.183,78.584 78.584,78.584 H 0 c 43.401,0 78.584,-35.183 78.584,-78.584 V 78.584 C 78.584,35.183 43.401,0 0,0"
             style="fill:#fff3ae;fill-opacity:1;fill-rule:nonzero;stroke:none"
             id="path52" /></g><g
           id="g54"
           transform="translate(594.251,647.6025)"><path
             d="M 0,0 C 1.826,2.416 1.491,5.632 -0.353,7.226 -2.575,9.146 -5.919,7.785 -7.578,6.345 -8.98,5.127 -10.41,2.783 -9.692,0.529 c 0.821,-2.581 4.244,-4.365 7.93,-3.348 -2.52,0.354 -4.966,-0.773 -6.168,-2.82 -1.509,-2.569 -0.583,-5.778 1.409,-7.578 1.985,-1.791 5.084,-2.233 7.226,-0.881 2.763,1.745 3.676,6.312 1.057,9.869 0.56,-0.948 1.858,-2.823 4.229,-3.876 2.839,-1.262 7.473,-1.462 8.812,1.056 C 15.928,-4.931 14.472,-1.365 11.807,0 9.101,1.387 5.375,0.389 3.348,-2.643 8.047,-1.948 10.73,1.061 10.397,3.172 10.081,5.173 6.943,7.091 4.053,6.345 1.434,5.668 -0.389,2.956 0,0"
             style="fill:#6000ff;fill-opacity:1;fill-rule:nonzero;stroke:none"
             id="path56" /></g><g
           id="g58"
           transform="translate(853.2378,523.1006)"><path
             d="M 0,0 C 1.826,2.416 1.492,5.631 -0.353,7.225 -2.575,9.146 -5.919,7.784 -7.578,6.344 -8.979,5.126 -10.41,2.782 -9.692,0.528 c 0.821,-2.581 4.244,-4.364 7.93,-3.348 -2.52,0.354 -4.966,-0.773 -6.168,-2.82 -1.509,-2.568 -0.583,-5.778 1.41,-7.577 1.985,-1.792 5.083,-2.233 7.225,-0.882 2.763,1.745 3.676,6.313 1.057,9.87 0.56,-0.948 1.858,-2.824 4.23,-3.877 2.838,-1.262 7.472,-1.462 8.811,1.057 C 15.928,-4.932 14.472,-1.366 11.807,0 9.101,1.387 5.375,0.388 3.348,-2.644 8.048,-1.949 10.731,1.06 10.397,3.172 10.081,5.173 6.943,7.091 4.053,6.344 1.434,5.667 -0.388,2.956 0,0"
             style="fill:#6000ff;fill-opacity:1;fill-rule:nonzero;stroke:none"
             id="path60" /></g><g
           id="g62"
           transform="translate(745.5571,421.4365)"><path
             d="M 0,0 C 1.826,2.416 1.491,5.632 -0.353,7.226 -2.575,9.146 -5.919,7.784 -7.578,6.344 -8.98,5.127 -10.41,2.782 -9.692,0.528 c 0.821,-2.581 4.244,-4.364 7.93,-3.347 -2.52,0.353 -4.966,-0.774 -6.168,-2.82 -1.509,-2.569 -0.583,-5.779 1.409,-7.578 1.985,-1.792 5.084,-2.233 7.226,-0.881 2.763,1.744 3.676,6.312 1.057,9.869 0.56,-0.948 1.858,-2.823 4.229,-3.877 2.839,-1.261 7.473,-1.461 8.812,1.057 C 15.928,-4.931 14.472,-1.365 11.807,0 9.101,1.387 5.375,0.389 3.348,-2.644 8.047,-1.948 10.73,1.061 10.397,3.172 10.081,5.173 6.943,7.091 4.053,6.344 1.434,5.668 -0.389,2.956 0,0"
             style="fill:#6000ff;fill-opacity:1;fill-rule:nonzero;stroke:none"
             id="path64" /></g><g
           id="g66"
           transform="translate(865.7729,363.3574)"><path
             d="M 0,0 C 1.826,2.416 1.491,5.632 -0.353,7.226 -2.575,9.146 -5.919,7.784 -7.578,6.344 -8.979,5.127 -10.41,2.782 -9.692,0.528 c 0.821,-2.581 4.244,-4.364 7.93,-3.347 -2.52,0.353 -4.966,-0.774 -6.168,-2.82 -1.509,-2.569 -0.583,-5.779 1.409,-7.578 1.985,-1.792 5.084,-2.233 7.226,-0.881 2.763,1.744 3.676,6.312 1.057,9.869 0.56,-0.948 1.858,-2.823 4.23,-3.877 2.838,-1.262 7.472,-1.461 8.811,1.057 C 15.928,-4.932 14.472,-1.365 11.807,0 9.101,1.387 5.375,0.389 3.348,-2.644 8.047,-1.948 10.73,1.061 10.397,3.172 10.081,5.173 6.943,7.091 4.053,6.344 1.434,5.667 -0.389,2.956 0,0"
             style="fill:#6000ff;fill-opacity:1;fill-rule:nonzero;stroke:none"
             id="path68" /></g><g
           id="g70"
           transform="translate(585.1011,335.7539)"><path
             d="M 0,0 C 1.826,2.416 1.492,5.632 -0.353,7.225 -2.575,9.146 -5.919,7.784 -7.578,6.344 -8.979,5.126 -10.41,2.782 -9.692,0.528 c 0.821,-2.581 4.244,-4.364 7.93,-3.347 -2.52,0.353 -4.966,-0.774 -6.168,-2.821 -1.509,-2.568 -0.583,-5.778 1.409,-7.577 1.986,-1.792 5.084,-2.233 7.226,-0.881 2.763,1.744 3.676,6.312 1.057,9.869 0.56,-0.948 1.858,-2.823 4.23,-3.877 2.838,-1.262 7.472,-1.461 8.811,1.057 C 15.928,-4.932 14.472,-1.366 11.807,0 9.101,1.387 5.375,0.388 3.348,-2.644 8.047,-1.949 10.73,1.061 10.397,3.172 10.081,5.173 6.943,7.091 4.053,6.344 1.434,5.667 -0.389,2.956 0,0"
             style="fill:#6000ff;fill-opacity:1;fill-rule:nonzero;stroke:none"
             id="path72" /></g><g
           id="g74"
           transform="translate(-5.041,146.5352)"><path
             d="m 0,0 c 8.359,-2.371 20.572,-6.541 34.086,-14.055 19.339,-10.752 27.901,-20.878 40.406,-30.451 10e-4,0 25.437,-19.473 63.245,-27.522 47.593,-10.134 59.337,20.719 121.804,26.351 16.81,1.516 80.591,7.266 124.146,-33.964 22.207,-21.022 31.187,-46.714 35.135,-62.837 H 0 Z"
             style="fill:#a8e0a1;fill-opacity:1;fill-rule:nonzero;stroke:none"
             id="path76" /></g></g></g><g
       id="g78"><g
         id="g80"
         clip-path="url(#clipPath84)"><g
           id="g86"
           transform="translate(1361.8315,272.5264)"><path
             d="m 0,0 c -6.211,4.283 -10.677,6.901 -17.396,9.703 3.35,-9.236 5.603,-19.974 6.679,-32.336 1.238,-24.013 1.34,-43.663 1.197,-57.162 -0.507,-47.864 -4.506,-70.051 3.573,-103.604 3.369,-13.987 7.673,-25.09 10.718,-32.155 -20.584,-4.85 -44.292,-8.505 -48.819,0 -3.877,7.247 8.363,19.183 15.488,29.779 34.508,51.397 -1.868,145.136 -14.291,144.101 -8.119,-0.689 -14.412,-42.363 -14.29,-176.255 -15.386,-4.181 -34.305,-7.632 -39.298,0 -5.441,8.283 8.281,25.516 14.29,34.529 15.407,23.181 27.525,63.88 9.52,140.529 h -90.513 c -4.587,-43.4 -5.196,-92.847 2.375,-146.477 1.381,-9.784 2.984,-19.324 4.771,-28.581 -16.706,-4.242 -36.092,-7.428 -40.496,0 -4.365,7.389 8.16,21.659 13.092,28.581 15.103,21.172 22.025,61.708 -13.093,146.477 -26.428,-77.745 -21.8,-119.235 -11.915,-142.904 2.761,-6.618 10.393,-22.511 3.573,-32.154 -8.445,-11.915 -36.761,-11.083 -41.674,-1.197 -3.999,8.018 8.972,18.816 16.665,32.153 18.452,31.971 1.361,54.218 -4.77,141.706 -2.719,38.852 -0.203,46.383 -4.77,86.941 -1.786,15.914 -3.978,29.656 -8.343,57.161 -6.495,41.023 -9.764,61.525 -15.488,84.545 -5.724,23.099 -11.265,38.059 -19.06,61.932 -19.061,58.359 -4.77,14.29 -19.061,58.359 -1.644,5.095 -5.278,13.133 -10.718,15.487 -9.297,4.04 -24.683,-9.56 -46.444,-19.06 -15.589,-6.8 -31.341,-13.682 -36.923,-8.343 -8.201,7.815 7.044,40.516 27.383,60.734 12.91,12.829 25.191,17.964 32.153,20.238 5.441,1.766 11.997,3.918 18.797,3.979 -0.305,14.94 -0.629,29.899 -0.933,44.84 5.947,-0.792 11.915,-1.583 17.862,-2.375 -2.659,-12.199 -5.318,-24.4 -7.957,-36.599 7.978,7.713 21.01,15.265 37.736,21.131 1.258,-5.115 3.126,-15.752 -1.198,-27.383 -2.842,-7.674 -8.83,-17.091 -16.239,-22.349 1.827,-4.039 3.207,-7.937 4.344,-11.002 13.073,-35.28 14.473,-32.357 44.069,-90.513 35.766,-70.295 61.282,-136.935 67.879,-161.964 12.159,-0.629 30.063,-2.862 50.016,-10.718 28.5,-11.205 69.889,-26.672 86.94,-42.871 4.101,-3.897 7.694,-8.424 10.799,-13.621 1.563,-0.568 3.126,-1.177 4.689,-1.867 C 15.854,6.354 31.971,-27.444 38.081,-42.892 26.186,-29.778 19.041,-13.093 0,0"
             style="fill:#fdff00;fill-opacity:1;fill-rule:nonzero;stroke:none"
             id="path88" /></g><g
           id="g90"
           transform="translate(1038.5117,631.6533)"><path
             d="m 0,0 c -3.999,6.049 -16.666,5.968 -21.273,-0.913 -2.477,-3.695 -2.801,-9.622 0.629,-13.864 1.32,-1.645 2.517,-2.416 4.019,-3.107 1.32,-0.548 2.68,-0.892 4.06,-1.055 1.868,-0.163 3.735,0.082 5.339,0.669 C 0.142,-15.609 3.552,-5.399 0,0"
             style="fill:#ffffff;fill-opacity:1;fill-rule:nonzero;stroke:none"
             id="path92" /></g><g
           id="g94"
           transform="translate(1032.8887,614.501)"><path
             d="m 0,0 c 0.975,3.35 -0.995,7.998 -5.115,11.327 -4.06,3.288 -8.952,4.242 -12.017,2.679 -1.36,-4.871 -0.853,-10.982 4.019,-13.641 0.081,-0.04 0.508,-0.324 0.589,-0.386 0.487,-0.365 0.751,-0.344 1.258,-0.649 1.076,-0.649 2.456,-0.893 3.715,-1.015 1.461,-0.142 3.309,-0.02 4.892,0.426 0.487,0.143 1.096,0.447 1.543,0.569 C -0.588,-0.446 -0.142,-0.122 0,0"
             style="fill:#000000;fill-opacity:1;fill-rule:nonzero;stroke:none"
             id="path96" /></g><g
           id="g98"
           transform="translate(1032.8887,614.501)"><path
             d="m 0,0 c 0.975,3.35 -0.995,7.998 -5.115,11.327 -4.06,3.288 -8.952,4.242 -12.017,2.679 -1.36,-4.871 -0.853,-10.982 4.019,-13.641 0.081,-0.04 0.508,-0.324 0.589,-0.386 0.487,-0.365 0.751,-0.344 1.258,-0.649 1.076,-0.649 2.456,-0.893 3.715,-1.015 1.461,-0.142 3.309,-0.02 4.892,0.426 0.487,0.143 1.096,0.447 1.543,0.569 C -0.588,-0.446 -0.142,-0.122 0,0 Z"
             style="fill:none;stroke:#000000;stroke-width:1;stroke-linecap:butt;stroke-linejoin:miter;stroke-miterlimit:10;stroke-dasharray:none;stroke-opacity:1"
             id="path100" /></g><g
           id="g102"
           transform="translate(1257.1514,264.6533)"><path
             d="m 0,0 8.372,5.323 4.412,-17.385 3.763,-33.134 17.022,-58.065 -3.997,-21.513 26.106,9.464 -9.754,15.473 -14.648,83.371 32.166,-99.448 22.014,7.08 -9.818,18.132 -28.676,77.223 51.942,9.927 22.344,-80.295 -1.423,-18.723 21.714,8.226 -8.301,15.102 -16.003,84.387 26.244,-79.992 5.95,-17.305 24.214,3.459 -17.414,14.613 -14.581,81.935 -13.938,48.803 0.32,33.749 -7.623,49.455 5.661,37.409 -1.806,35.748 6.982,8.553 27.905,-0.372 23.31,-2.327 -26.914,29.397 -19.852,10.388 -12.819,-3.734 -2.822,27.698 -9.283,-5.106 6.165,-18.22 -22.19,3.238 2.6,-14.372 15.405,-7.595 -4.224,-8.03 -7.583,-57.812 L 82.661,75.168 59.208,59.517 13.823,25.48 13.271,14.384 l -5.408,0.675 -21.2,-43.988 z"
             style="fill:#fb6700;fill-opacity:1;fill-rule:nonzero;stroke:none"
             id="path104" /></g><g
           id="g106"
           transform="translate(1256.0308,607.7676)"><path
             d="m 0,0 c 3.05,10.35 15.08,11.51 20.94,23.649 13.11,27.111 27,9.611 29.83,21.691 1.48,6.28 3.43,9.5 6.66,12.399 C 64.56,64.17 85,55 111.77,49.85 c 7.71,-1.48 19.43,-4.51 54.8,-0.21 9.89,1.2 13.15,6.87 25.06,9.62 7.42,1.719 28,6.469 35.51,-2.531 4.43,-5.279 0.43,-10.589 3.66,-16.709 4.07,-7.73 22.32,0.91 33.71,0.799 6.43,-0.059 16.76,-6.509 22.14,-9.939 18.71,-11.941 11.23,-55.05 -7.29,-70.391 -7.19,-5.949 -17.41,-7.649 -56.92,-0.5 -52.86,9.561 -57.41,16.75 -83,20.261 C 72.93,-10.65 33.59,-49.54 9.94,-27.851 2.93,-21.46 -2.85,-9.62 0,0"
             style="fill:#ffffff;fill-opacity:1;fill-rule:nonzero;stroke:none"
             id="path108" /></g><g
           id="g110"
           transform="translate(1510.6387,26.5225)"><path
             d="m 0,0 h -195.542 c -26.619,0 -48.198,21.579 -48.198,48.198 v 174.7 c 0,26.62 21.579,48.199 48.198,48.199 H 0 c 26.62,0 48.199,-21.579 48.199,-48.199 V 48.198 C 48.199,21.579 26.62,0 0,0"
             style="fill:#d8e5a5;fill-opacity:1;fill-rule:nonzero;stroke:none"
             id="path112" /></g><g
           id="g114"
           transform="translate(201.8638,134.2451)"><path
             d="m 0,0 c -5.209,-4.571 -11.022,-9.683 -19.432,-10.761 -7.25,-0.93 -8.818,2.123 -29.637,5.797 -7.716,1.443 -15.622,1.53 -23.368,0.262 -26.126,-3.838 -28.51,-3.773 -31.499,-2.385 -5.894,2.744 -11.675,9.341 -9.993,13.945 1.682,4.606 10.386,5.194 11.267,5.226 -4.653,-0.18 -18.338,0 -28.559,9.798 -5.536,5.29 -12.1,15.365 -8.932,20.754 3.625,6.124 17.766,2.613 18.892,6.809 0.931,3.446 -8.638,6.123 -9.193,12.622 -0.555,6.499 8.164,13.146 15.513,15.481 12.181,3.821 22.991,-3.56 24.657,-4.72 0,0.408 0.719,6.744 5.78,9.178 5.063,2.432 11.431,-0.768 14.174,-5.259 0.937,-1.539 1.496,-3.28 1.633,-5.078 0.759,3.216 2.392,6.159 4.719,8.508 2.092,1.941 4.59,3.394 7.311,4.257 2.722,0.86 5.601,1.107 8.431,0.723 7.56,-1.29 14.484,-7.593 15.218,-15.741 0.291,-4.225 -0.943,-8.415 -3.478,-11.807 2.636,2.928 5.879,5.247 9.504,6.793 5.519,2.32 16.427,4.687 22.076,-1.028 6.532,-6.646 2.189,-20.33 -3.151,-27.76 -2.269,-3.171 -5.137,-5.867 -8.442,-7.935 2.08,0.481 4.218,0.674 6.352,0.571 C -1.241,27.858 9.65,22.306 10.287,14.86 10.712,9.406 5.813,5.111 0,0"
             style="fill:#00ffa9;fill-opacity:1;fill-rule:nonzero;stroke:none"
             id="path116" /></g><path
           d="M 147.012,143.749 H 136.366 V 63.948 h 10.646 z"
           style="fill:#754c24;fill-opacity:1;fill-rule:nonzero;stroke:none"
           id="path118" /><g
           id="g120"
           transform="translate(141.021,135.7646)"><path
             d="m 0,0 c 12.12,0 21.946,8.042 21.946,17.962 0,9.92 -9.826,17.962 -21.946,17.962 -12.121,0 -21.946,-8.042 -21.946,-17.962 C -21.946,8.042 -12.121,0 0,0"
             style="fill:#00ffa9;fill-opacity:1;fill-rule:nonzero;stroke:none"
             id="path122" /></g><g
           id="g124"
           transform="translate(345.353,124.2979)"><path
             d="m 0,0 c -2.759,-2.422 -5.838,-5.129 -10.292,-5.7 -3.841,-0.493 -4.671,1.125 -15.699,3.07 -4.087,0.764 -8.275,0.811 -12.377,0.139 -13.84,-2.032 -15.102,-1.998 -16.685,-1.263 -3.122,1.453 -6.184,4.947 -5.293,7.387 0.89,2.438 5.501,2.75 5.968,2.767 -2.465,-0.094 -9.713,0 -15.128,5.19 -2.932,2.803 -6.409,8.139 -4.731,10.993 1.92,3.244 9.41,1.384 10.007,3.607 0.493,1.825 -4.576,3.244 -4.87,6.686 -0.294,3.442 4.325,6.963 8.217,8.199 6.453,2.025 12.178,-1.885 13.061,-2.499 0,0.216 0.381,3.572 3.062,4.861 2.681,1.289 6.054,-0.407 7.508,-2.786 0.496,-0.815 0.792,-1.737 0.864,-2.689 0.403,1.703 1.267,3.263 2.5,4.506 1.108,1.028 2.431,1.799 3.872,2.255 1.442,0.456 2.967,0.587 4.466,0.383 4.005,-0.683 7.672,-4.022 8.061,-8.337 0.154,-2.239 -0.5,-4.457 -1.842,-6.254 1.396,1.55 3.114,2.779 5.034,3.598 2.923,1.228 8.701,2.482 11.693,-0.545 3.46,-3.52 1.16,-10.768 -1.669,-14.704 -1.202,-1.679 -2.721,-3.107 -4.472,-4.204 1.102,0.256 2.235,0.358 3.365,0.303 C -0.657,14.756 5.112,11.814 5.449,7.871 5.674,4.981 3.079,2.707 0,0"
             style="fill:#00ffa9;fill-opacity:1;fill-rule:nonzero;stroke:none"
             id="path126" /></g><path
           d="m 316.299,129.332 h -5.64 v -42.27 h 5.64 z"
           style="fill:#754c24;fill-opacity:1;fill-rule:nonzero;stroke:none"
           id="path128" /><g
           id="g130"
           transform="translate(313.1255,125.1025)"><path
             d="m 0,0 c 6.42,0 11.625,4.26 11.625,9.514 0,5.255 -5.205,9.514 -11.625,9.514 -6.42,0 -11.625,-4.259 -11.625,-9.514 C -11.625,4.26 -6.42,0 0,0"
             style="fill:#00ffa9;fill-opacity:1;fill-rule:nonzero;stroke:none"
             id="path132" /></g><g
           id="g134"
           transform="translate(727.186,311.9307)"><path
             d="m 0,0 -195.039,-302.699 c -8.395,-13.03 0.96,-30.186 16.46,-30.186 h 390.077 c 15.501,0 24.855,17.156 16.46,30.186 L 32.919,0 C 25.208,11.967 7.71,11.967 0,0"
             style="fill:#a8e0a1;fill-opacity:1;fill-rule:nonzero;stroke:none"
             id="path136" /></g><g
           id="g138"
           transform="translate(903.8047,159.21)"><path
             d="m 0,0 -84.177,-145.8 c -7.537,-13.054 1.884,-29.37 16.957,-29.37 h 168.354 c 15.074,0 24.494,16.316 16.958,29.37 L 33.915,0 C 26.378,13.054 7.537,13.054 0,0"
             style="fill:#d8e5a5;fill-opacity:1;fill-rule:nonzero;stroke:none"
             id="path140" /></g><g
           id="g142"
           transform="translate(1098.894,254.1416)"><path
             d="m 0,0 -174.246,-270.429 c -8.396,-13.03 0.959,-30.185 16.46,-30.185 h 348.492 c 15.5,0 24.855,17.155 16.459,30.185 L 32.919,0 C 25.208,11.967 7.71,11.967 0,0"
             style="fill:#a8e0a1;fill-opacity:1;fill-rule:nonzero;stroke:none"
             id="path144" /></g></g></g><g
       id="g146"><g
         id="g148"
         clip-path="url(#clipPath152)"><g
           id="g154"
           transform="translate(-37.5449,574.5615)"><path
             d="m 0,0 c -11.24,33.819 55.991,231.91 79.762,261.768 11.729,14.7 30.236,37.891 60.76,53.348 72.669,36.725 110.973,-22.179 263.042,-26.708 24.505,-0.722 59.236,-0.266 90.396,-22.979 21.199,-15.436 22.869,-28.578 43.723,-51.124 C 575.544,173.382 573.553,89.688 571.881,55.337 571.16,40.508 566.202,26.195 557.534,14.142 527.662,-27.398 448.341,-96.416 311.903,-100.908 164.612,-105.759 16.544,-49.927 0,0"
             style="fill:#0097dd;fill-opacity:1;fill-rule:nonzero;stroke:none"
             id="path156" /></g></g></g><g
       id="g158"><g
         id="g160"
         clip-path="url(#clipPath164)"><g
           id="g166"
           transform="translate(29.3423,68.3076)"><path
             d="m 0,0 c -0.339,-1.708 -0.896,-4.51 0.769,-7.224 1.564,-2.55 4.111,-3.428 5.072,-3.688 0.905,-0.246 2.302,-0.625 3.842,0 1.127,0.457 1.816,1.242 2.151,1.69 1.335,-1.336 2.612,-3.003 2.152,-4.303 -0.274,-0.775 -0.939,-0.788 -1.843,-1.845 -1.227,-1.431 -2.07,-3.815 -1.231,-4.918 0.232,-0.304 0.75,-0.718 3.382,-0.614 2.894,0.115 4.265,0.695 6.455,1.076 3.056,0.53 5.537,0.295 6.916,0.154 3.699,-0.379 5.548,-0.567 6.916,-1.23 0.414,-0.201 1.454,-0.744 2.612,-0.461 0.709,0.173 1.22,0.596 1.538,0.922 0.166,0.721 0.41,2.24 -0.154,3.996 -0.731,2.28 -2.362,3.525 -3.074,3.996 -1.35,0.89 -2.664,1.143 -3.381,1.229 2.257,1.546 9.905,7.18 10.451,15.83 0.064,1.021 0.034,2.152 -0.154,3.381 4.527,-2.63 9.116,-3.117 11.526,-1.075 0.3,0.252 1.737,1.47 1.845,3.38 0.102,1.8 -0.955,3.26 -1.998,3.996 -1.112,0.786 -1.593,0.318 -3.688,1.076 -1.143,0.414 -3.03,1.155 -4.519,2.288 -1.835,1.399 -1.966,1.661 -2.84,3.06 -1.314,2.102 -2.572,5.877 -2.854,8.541 5.327,-3.31 16.313,-4.605 18.885,-1.337 0.426,0.54 1.126,1.733 0.516,5.942 -0.631,4.364 -2.042,14.091 -10.851,19.894 -5.001,3.295 -10.114,3.826 -12.917,3.876 -1.849,3.153 -3.846,5.098 -5.324,6.291 -2.128,1.717 -3.524,2.148 -6.776,4.84 -1.903,1.575 -2.855,2.362 -3.548,3.387 -1.493,2.206 -1.233,3.567 -3.065,6.615 -1.05,1.744 -1.765,2.9 -2.743,2.903 -1.464,0.007 -2.544,-2.566 -3.227,-4.194 -0.891,-2.124 -2.089,-4.98 -1.29,-8.227 0.426,-1.732 0.955,-1.688 4.194,-6.614 2.724,-4.144 2.411,-4.267 3.872,-5.969 1.488,-1.733 3.474,-3.991 6.775,-5.001 1.714,-0.526 3.223,-0.545 4.195,-0.485 -0.229,-0.731 -0.659,-1.74 -1.537,-2.613 -0.807,-0.801 -2.801,-2.291 -11.527,-1.536 -5.101,0.441 -5.431,1.038 -8.299,0.768 -1.604,-0.151 -7.142,-0.671 -7.992,-3.535 -0.568,-1.914 1.223,-3.992 2.152,-5.071 2.289,-2.658 5.195,-3.561 9.068,-4.765 2.075,-0.645 4.101,-1.259 6.916,-1.383 2.067,-0.091 4.575,-0.173 7.377,1.076 1.782,0.794 3.05,1.845 3.842,2.612 C 28.562,35.651 25.5,28.249 23.267,23.774 22.727,22.693 22.049,21.689 21.248,20.786 18.6,17.8 12.113,10.324 11.811,9.976 11.808,9.971 11.803,9.966 11.8,9.963 11.284,9.436 10.909,8.925 10.605,8.298 10.027,7.104 9.874,5.979 9.837,5.226 9.344,5.664 6.974,7.688 4.458,7.069 1.25,6.28 0.364,1.824 0,0"
             style="fill:#ff0020;fill-opacity:1;fill-rule:nonzero;stroke:none"
             id="path168" /></g><g
           id="g170"
           transform="translate(70.3296,105.6895)"><path
             d="M 0,0 C 0.174,2.017 3.271,3.683 5.337,2.601 5.942,2.266 6.428,1.752 6.728,1.13 7.026,0.508 7.125,-0.192 7.008,-0.873 6.929,-1.35 6.733,-1.799 6.438,-2.182 6.189,-2.485 5.899,-2.752 5.576,-2.976 5.156,-3.259 4.68,-3.447 4.179,-3.528 2.03,-3.872 -0.158,-1.8 0,0"
             style="fill:#ffffff;fill-opacity:1;fill-rule:nonzero;stroke:none"
             id="path172" /></g><g
           id="g174"
           transform="translate(73.9863,102.2285)"><path
             d="M 0,0 C -0.662,0.687 -0.821,2.093 -0.247,3.457 0.328,4.822 1.378,5.688 2.345,5.709 3.321,4.675 4.021,3.132 3.174,1.828 3.174,1.828 3.093,1.683 3.08,1.661 3.015,1.547 2.942,1.437 2.86,1.335 2.663,1.033 2.4,0.779 2.091,0.594 1.706,0.344 1.282,0.163 0.837,0.058 0.701,0.031 0.504,0.026 0.383,-0.004 0.255,-0.021 0.126,-0.021 0,0"
             style="fill:#000000;fill-opacity:1;fill-rule:nonzero;stroke:none"
             id="path176" /></g><g
           id="g178"
           transform="translate(88.8257,98.2705)"><path
             d="M 0,0 C 0.308,-0.427 -0.295,-1.408 -0.484,-1.716 -0.75,-2.149 -1.085,-2.695 -1.672,-2.861 -2.743,-3.165 -4.183,-2.067 -4.115,-1.3 -4.013,-0.162 -0.546,0.757 0,0"
             style="fill:#f0ed00;fill-opacity:1;fill-rule:nonzero;stroke:none"
             id="path180" /></g><g
           id="g182"
           transform="translate(79.1016,109.6768)"><path
             d="M 0,0 C 0.156,1.818 2.947,3.318 4.81,2.344 5.355,2.042 5.792,1.579 6.062,1.018 6.332,0.458 6.42,-0.174 6.316,-0.787 6.244,-1.217 6.068,-1.621 5.802,-1.966 5.578,-2.239 5.316,-2.479 5.024,-2.682 4.646,-2.937 4.217,-3.106 3.766,-3.18 1.83,-3.489 -0.142,-1.622 0,0"
             style="fill:#ffffff;fill-opacity:1;fill-rule:nonzero;stroke:none"
             id="path184" /></g><g
           id="g186"
           transform="translate(82.397,106.5586)"><path
             d="m 0,0 c -0.597,0.618 -0.74,1.886 -0.222,3.115 0.517,1.23 1.464,2.011 2.335,2.029 0.88,-0.932 1.51,-2.323 0.748,-3.498 0,0 -0.074,-0.13 -0.086,-0.15 C 2.717,1.394 2.651,1.295 2.578,1.202 2.4,0.931 2.163,0.702 1.884,0.534 1.538,0.31 1.156,0.146 0.754,0.052 0.631,0.027 0.454,0.023 0.345,-0.004 0.23,-0.021 0.114,-0.02 0,0"
             style="fill:#000000;fill-opacity:1;fill-rule:nonzero;stroke:none"
             id="path188" /></g><g
           id="g190"
           transform="translate(212.9741,73.1299)"><path
             d="m 0,0 c -0.264,-1.328 -0.697,-3.505 0.597,-5.613 1.215,-1.982 3.195,-2.664 3.942,-2.866 0.703,-0.192 1.788,-0.486 2.985,0 0.875,0.354 1.411,0.964 1.671,1.313 1.038,-1.038 2.03,-2.333 1.673,-3.344 -0.213,-0.601 -0.73,-0.611 -1.433,-1.433 -0.953,-1.112 -1.608,-2.964 -0.956,-3.822 0.18,-0.236 0.583,-0.558 2.627,-0.477 2.25,0.089 3.315,0.54 5.016,0.836 2.376,0.412 4.303,0.228 5.374,0.12 2.875,-0.295 4.312,-0.442 5.374,-0.956 0.322,-0.156 1.13,-0.578 2.03,-0.359 0.551,0.135 0.948,0.464 1.195,0.717 0.13,0.561 0.319,1.74 -0.12,3.106 -0.568,1.771 -1.835,2.739 -2.388,3.104 -1.048,0.692 -2.07,0.889 -2.627,0.955 1.754,1.201 7.697,5.579 8.121,12.301 0.049,0.793 0.026,1.672 -0.12,2.627 3.518,-2.044 7.083,-2.422 8.956,-0.835 0.233,0.195 1.35,1.142 1.434,2.626 0.079,1.398 -0.742,2.533 -1.553,3.105 -0.863,0.611 -1.237,0.248 -2.866,0.836 -0.887,0.322 -2.354,0.898 -3.511,1.779 -1.426,1.086 -1.527,1.29 -2.207,2.377 -1.021,1.633 -1.998,4.566 -2.217,6.636 4.139,-2.572 12.675,-3.578 14.674,-1.039 0.331,0.419 0.875,1.347 0.401,4.618 -0.49,3.39 -1.587,10.949 -8.431,15.459 -3.886,2.559 -7.86,2.972 -10.037,3.01 -1.437,2.451 -2.989,3.962 -4.138,4.889 -1.654,1.334 -2.738,1.67 -5.265,3.761 -1.479,1.224 -2.219,1.836 -2.757,2.632 -1.16,1.714 -0.958,2.771 -2.381,5.139 -0.816,1.357 -1.372,2.254 -2.132,2.257 C 9.794,63.464 8.955,61.465 8.424,60.2 7.731,58.549 6.8,56.33 7.421,53.808 c 0.331,-1.347 0.743,-1.313 3.259,-5.141 2.117,-3.219 1.874,-3.314 3.008,-4.638 1.157,-1.346 2.701,-3.1 5.266,-3.885 1.331,-0.41 2.504,-0.423 3.259,-0.377 -0.177,-0.568 -0.512,-1.352 -1.194,-2.03 -0.627,-0.624 -2.177,-1.781 -8.957,-1.194 -3.964,0.343 -4.221,0.807 -6.449,0.597 -1.246,-0.118 -5.55,-0.522 -6.21,-2.747 -0.442,-1.488 0.95,-3.103 1.672,-3.941 1.779,-2.064 4.037,-2.766 7.047,-3.702 1.612,-0.501 3.186,-0.979 5.374,-1.075 1.606,-0.071 3.554,-0.134 5.731,0.836 1.385,0.617 2.371,1.433 2.986,2.03 C 22.194,27.702 19.815,21.95 18.079,18.473 17.66,17.633 17.133,16.854 16.51,16.151 14.452,13.83 9.412,8.021 9.178,7.751 9.175,7.747 9.171,7.743 9.168,7.741 8.768,7.331 8.477,6.935 8.24,6.447 7.792,5.521 7.672,4.646 7.644,4.06 7.26,4.4 5.418,5.974 3.464,5.492 0.971,4.88 0.283,1.417 0,0"
             style="fill:#ff0020;fill-opacity:1;fill-rule:nonzero;stroke:none"
             id="path192" /></g><g
           id="g194"
           transform="translate(244.8228,102.1768)"><path
             d="M 0,0 C 0.135,1.567 2.542,2.861 4.147,2.021 4.617,1.761 4.995,1.361 5.228,0.877 5.46,0.395 5.536,-0.15 5.446,-0.679 5.384,-1.049 5.232,-1.398 5.003,-1.695 4.81,-1.931 4.583,-2.139 4.333,-2.313 4.006,-2.532 3.636,-2.679 3.248,-2.742 1.578,-3.009 -0.123,-1.399 0,0"
             style="fill:#ffffff;fill-opacity:1;fill-rule:nonzero;stroke:none"
             id="path196" /></g><g
           id="g198"
           transform="translate(247.6641,99.4873)"><path
             d="M 0,0 C -0.515,0.533 -0.638,1.626 -0.191,2.687 0.254,3.747 1.071,4.42 1.822,4.436 2.581,3.633 3.124,2.434 2.467,1.42 2.467,1.42 2.403,1.308 2.393,1.291 2.343,1.202 2.286,1.117 2.223,1.037 2.069,0.803 1.865,0.605 1.625,0.461 1.326,0.268 0.997,0.127 0.65,0.045 0.544,0.024 0.392,0.021 0.297,-0.003 0.199,-0.017 0.098,-0.016 0,0"
             style="fill:#000000;fill-opacity:1;fill-rule:nonzero;stroke:none"
             id="path200" /></g><g
           id="g202"
           transform="translate(259.1948,96.4111)"><path
             d="M 0,0 C 0.239,-0.331 -0.229,-1.094 -0.376,-1.333 -0.583,-1.669 -0.844,-2.094 -1.299,-2.223 -2.131,-2.458 -3.25,-1.605 -3.197,-1.01 -3.119,-0.125 -0.425,0.589 0,0"
             style="fill:#f0ed00;fill-opacity:1;fill-rule:nonzero;stroke:none"
             id="path204" /></g><g
           id="g206"
           transform="translate(251.6387,105.2754)"><path
             d="M 0,0 C 0.122,1.412 2.291,2.578 3.738,1.82 4.161,1.586 4.501,1.227 4.711,0.79 4.92,0.355 4.989,-0.136 4.908,-0.612 4.852,-0.945 4.715,-1.26 4.509,-1.528 4.334,-1.74 4.131,-1.928 3.904,-2.084 3.61,-2.282 3.277,-2.414 2.927,-2.472 1.422,-2.712 -0.11,-1.261 0,0"
             style="fill:#ffffff;fill-opacity:1;fill-rule:nonzero;stroke:none"
             id="path208" /></g><g
           id="g210"
           transform="translate(254.1997,102.8516)"><path
             d="M 0,0 C -0.464,0.48 -0.575,1.466 -0.173,2.421 0.229,3.376 0.965,3.983 1.642,3.997 2.326,3.273 2.815,2.192 2.223,1.28 L 2.157,1.163 C 2.111,1.083 2.06,1.007 2.002,0.935 1.865,0.724 1.68,0.546 1.464,0.415 1.194,0.241 0.897,0.114 0.586,0.04 0.49,0.021 0.353,0.019 0.268,-0.003 0.179,-0.016 0.088,-0.015 0,0"
             style="fill:#000000;fill-opacity:1;fill-rule:nonzero;stroke:none"
             id="path212" /></g></g></g><g
       id="g214"><g
         id="g216"
         clip-path="url(#clipPath220)"><g
           id="g222"
           transform="translate(856.001,662.418)"><path
             d="m 0,0 c -1.797,1.554 -4.067,2.047 -6.047,2.146 -2.187,2.923 -5.593,6.871 -10.535,10.534 -11.998,8.896 -24.776,9.988 -37.649,10.924 -14.322,1.042 -12.453,-1.517 -39.406,-2.34 0,0 -6.111,-0.187 -23.02,-3.317 -1.097,-0.203 -3.641,-0.693 -6.632,-2.145 -2.05,-0.995 -3.597,-2.097 -4.604,-2.894 -3.271,1.022 -8.49,3.203 -11.312,-0.661 -3.382,-4.632 -5.412,-10.344 -12.627,-17.783 -7.119,-7.34 -13.939,-4.932 -18.166,-12.846 -2.03,-3.799 -2.455,-8.087 -2.569,-9.358 -0.273,-3.004 -0.586,-6.451 1.153,-10.159 1.571,-3.343 5.328,-8.004 10.099,-7.864 1.484,0.044 2.69,0.54 3.494,0.97 2.473,-0.98 7.222,-2.423 12.912,-1.359 4.48,0.839 11.488,3.595 11.942,7.185 0.081,0.639 0.041,1.984 0.874,3.494 0.564,1.022 1.3,1.71 1.845,2.136 6.288,-0.339 7.859,-4.626 9.087,-9.932 0.379,-1.634 0.075,-3.503 0.39,-5.629 0.608,-4.117 0.208,2.099 0.67,-7.906 0.045,-0.957 0.089,-4.752 0.533,-4.494 -0.041,-0.938 -0.115,-2.584 -0.21,-4.638 -0.344,-7.435 -0.454,-7.889 0,-8.584 3.038,-4.631 11.506,-2.705 14.827,-1.95 4.252,0.968 5.335,2.434 5.657,2.926 1.308,2.006 0.732,4.335 0.195,7.218 -0.595,3.184 -1.267,7.709 -1.561,13.461 11.538,-0.04 21.077,-0.364 29.135,-0.906 0.618,0.247 1.277,0.374 1.944,0.344 2.975,-0.135 5.88,-0.738 8.796,-1.276 1.46,-0.159 2.863,-0.327 4.213,-0.503 0.19,-0.025 0.387,-0.051 0.591,-0.078 3.194,-0.086 6.381,0.302 9.56,0.721 3.77,0.525 7.562,1.17 11.341,0.524 3.228,-0.096 6.35,-1.559 7.347,-4.917 0.089,-0.302 0.157,-0.613 0.204,-0.931 0.084,-0.205 0.163,-0.413 0.236,-0.625 0.451,-1.319 0.567,-2.776 0.619,-4.163 0.059,-1.585 -0.093,-3.218 -0.534,-4.743 -0.01,-0.035 -0.022,-0.069 -0.033,-0.104 0.04,-0.17 0.082,-0.339 0.125,-0.509 0.104,-0.404 0.213,-0.8 0.328,-1.188 0.368,-1.228 1.34,-2.181 2.568,-2.544 8.099,-2.382 14.8,-1.975 17.002,1.389 0.382,0.583 0.683,1.34 0.78,2.343 0.225,10.534 -0.039,21.678 -0.975,33.356 -0.229,2.838 -0.489,5.636 -0.78,8.389 1.73,3.059 4.322,8.637 4.682,15.997 0.198,4.08 -0.345,7.553 -0.977,10.143 2.758,-0.987 3.818,-2.353 4.293,-3.315 2.214,-4.491 -3.671,-9.588 -2.146,-17.753 0.255,-1.368 0.575,-3.08 1.171,-3.122 C 0.898,-26.478 7.515,-6.496 0,0"
             style="fill:#a5a5a5;fill-opacity:1;fill-rule:nonzero;stroke:none"
             id="path224" /></g><g
           id="g226"
           transform="translate(718.4878,679.1895)"><path
             d="M 0,0 C 1.632,-2.827 1.225,-6.118 -0.911,-7.352 -3.046,-8.584 -6.1,-7.291 -7.733,-4.464 -9.365,-1.637 -8.958,1.655 -6.822,2.888 -4.687,4.12 -1.633,2.828 0,0"
             style="fill:#7c7c7c;fill-opacity:1;fill-rule:nonzero;stroke:none"
             id="path228" /></g><g
           id="g230"
           transform="translate(734.4116,673.4736)"><path
             d="m 0,0 c -1.632,-2.827 -4.687,-4.12 -6.822,-2.887 -2.135,1.233 -2.543,4.525 -0.91,7.352 1.632,2.827 4.686,4.12 6.821,2.887 C 1.225,6.119 1.632,2.828 0,0"
             style="fill:#7c7c7c;fill-opacity:1;fill-rule:nonzero;stroke:none"
             id="path232" /></g><g
           id="g234"
           transform="translate(683.2949,633.0146)"><path
             d="m 0,0 c 0.433,0.104 -2.321,-11.061 8.209,-15.742 2.361,-1.05 4.913,-0.316 6.676,0.353 0.563,-0.225 1.338,-0.51 2.279,-0.781 3.057,-0.881 5.613,-0.96 6.842,-0.95 4.646,0.034 8.022,1.462 10.21,2.414 2.581,1.123 4.315,1.906 4.915,3.601 0.243,0.685 0.211,1.265 0.814,3.228 0.451,1.466 0.735,2.008 1.099,2.486 0.547,0.721 0.881,0.781 1.414,1.458 0.649,0.826 0.928,1.721 1.058,2.425 -1.291,0.162 -3.255,0.205 -5.158,-0.773 -1.708,-0.879 -1.996,-1.877 -4.641,-4.47 -2.345,-2.3 -3.517,-3.449 -4.985,-3.868 -2.992,-0.854 -6.041,0.692 -7.219,1.29 -2.649,1.343 -2.812,2.543 -4.986,2.922 C 14.952,-6.133 13.59,-6.512 11.8,-7.009 8.844,-7.831 8.588,-8.649 6.901,-8.642 4.447,-8.632 2.689,-6.861 2.346,-6.579 1.022,-5.488 -0.235,-0.057 0,0"
             style="fill:#7c7c7c;fill-opacity:1;fill-rule:nonzero;stroke:none"
             id="path236" /></g><g
           id="g238"
           transform="translate(753.5264,586.6846)"><path
             d="M 0,0 C 0.792,0.708 0.251,2.473 -0.043,3.438 -0.422,4.675 -0.866,6.043 -1.55,6.139 -2.381,6.255 -3.448,4.747 -4.2,2.502 -3.831,3.58 -4.127,4.741 -4.927,5.411 -5.521,5.909 -6.363,6.158 -7.057,5.931 -8.134,5.577 -8.872,4.169 -8.511,2.606 -8.503,3.027 -8.54,4.114 -9.291,5.1 c -0.262,0.344 -0.787,1.033 -1.402,1.039 -0.883,0.008 -1.85,-1.39 -2.182,-3.533 0.029,0.377 0.052,1.372 -0.571,2.337 -0.194,0.3 -0.8,1.239 -1.611,1.299 -0.984,0.074 -2.17,-1.149 -2.543,-3.113 -0.046,-0.399 -0.071,-1.141 0.297,-1.914 0.099,-0.207 0.471,-0.932 1.758,-1.706 1.299,-0.781 2.543,-1.021 3.321,-1.136 2.833,-0.417 5.082,-0.008 8.521,0.618 1.654,0.302 0.893,0.295 2.811,0.698 C -0.379,-0.203 -0.195,-0.175 0,0"
             style="fill:#7c7c7c;fill-opacity:1;fill-rule:nonzero;stroke:none"
             id="path240" /></g><g
           id="g242"
           transform="translate(830.4238,589.3789)"><path
             d="m 0,0 c -0.525,0.793 0.048,2.004 0.631,3.239 0.605,1.28 1.078,2.281 1.81,2.3 C 3.096,5.558 3.605,4.782 3.95,4.258 4.729,3.07 4.84,1.799 4.817,0.977 4.781,1.836 4.883,3.079 5.609,4.22 5.883,4.65 6.225,5.17 6.778,5.238 7.453,5.32 8.014,4.678 8.249,4.408 9.266,3.244 9.144,1.66 9.079,1.127 9.02,1.739 9.005,2.939 9.72,4.068 c 0.28,0.444 0.813,1.286 1.546,1.283 0.887,-0.003 1.494,-1.243 1.773,-1.81 0.47,-0.961 0.532,-1.858 0.527,-2.376 -0.043,0.232 -0.355,2.05 0.868,3.318 0.272,0.284 0.711,0.845 1.319,0.83 0.733,-0.018 1.229,-0.834 1.547,-1.357 0.416,-0.685 1.48,-2.29 0.831,-3.607 -0.245,-0.497 -0.63,-0.745 -1.248,-1.128 -1.446,-0.9 -2.838,-1.148 -3.463,-1.244 C 12.887,-2.105 11.326,-2.321 8.18,-2.109 7.329,-2.052 5.28,-1.59 1.182,-0.666 0.855,-0.593 0.305,-0.46 0,0"
             style="fill:#7c7c7c;fill-opacity:1;fill-rule:nonzero;stroke:none"
             id="path244" /></g><g
           id="g246"
           transform="translate(724.0874,653.5693)"><path
             d="m 0,0 c -0.54,0.176 -1.034,0.464 -1.449,0.849 -0.32,0.302 -0.595,0.647 -0.819,1.024 -0.261,0.474 -0.4,1.003 -0.407,1.543 -0.013,0.772 0.215,1.53 0.652,2.166 0.437,0.638 1.061,1.123 1.786,1.389 C 2.232,7.815 5.372,5.447 5.22,3.188 5.088,1.172 2.316,-0.745 0,0"
             style="fill:#ffffff;fill-opacity:1;fill-rule:nonzero;stroke:none"
             id="path248" /></g><g
           id="g250"
           transform="translate(724.2529,653.6162)"><path
             d="M 0,0 C -0.129,0.054 -0.346,0.093 -0.492,0.146 -0.966,0.338 -1.404,0.609 -1.786,0.951 -2.096,1.209 -2.344,1.534 -2.51,1.901 -2.583,2.028 -2.646,2.162 -2.698,2.3 -2.708,2.325 -2.774,2.5 -2.774,2.5 -3.487,4.085 -2.452,5.671 -1.196,6.647 -0.131,6.461 0.882,5.324 1.285,3.718 1.687,2.112 1.272,0.585 0.423,-0.061 0.281,-0.062 0.137,-0.042 0,0"
             style="fill:#000000;fill-opacity:1;fill-rule:nonzero;stroke:none"
             id="path252" /></g><g
           id="g254"
           transform="translate(724.2529,653.6162)"><path
             d="M 0,0 C -0.129,0.054 -0.346,0.093 -0.492,0.146 -0.966,0.338 -1.404,0.609 -1.786,0.951 -2.096,1.209 -2.344,1.534 -2.51,1.901 -2.583,2.028 -2.646,2.162 -2.698,2.3 -2.708,2.325 -2.774,2.5 -2.774,2.5 -3.487,4.085 -2.452,5.671 -1.196,6.647 -0.131,6.461 0.882,5.324 1.285,3.718 1.687,2.112 1.272,0.585 0.423,-0.061 0.281,-0.062 0.137,-0.042 0,0 Z"
             style="fill:none;stroke:#000000;stroke-width:1;stroke-linecap:butt;stroke-linejoin:miter;stroke-miterlimit:10;stroke-dasharray:none;stroke-opacity:1"
             id="path256" /></g><g
           id="g258"
           transform="translate(712.5894,653.5693)"><path
             d="m 0,0 c -0.539,0.176 -1.033,0.464 -1.449,0.849 -0.319,0.302 -0.595,0.647 -0.818,1.024 -0.261,0.474 -0.4,1.003 -0.407,1.543 -0.013,0.772 0.215,1.53 0.651,2.166 0.437,0.638 1.061,1.123 1.787,1.389 C 2.232,7.815 5.372,5.447 5.22,3.188 5.088,1.172 2.317,-0.745 0,0"
             style="fill:#ffffff;fill-opacity:1;fill-rule:nonzero;stroke:none"
             id="path260" /></g><g
           id="g262"
           transform="translate(712.7549,653.6162)"><path
             d="M 0,0 C -0.128,0.054 -0.345,0.093 -0.492,0.146 -0.966,0.338 -1.403,0.609 -1.786,0.951 -2.096,1.209 -2.344,1.534 -2.51,1.901 -2.583,2.028 -2.646,2.162 -2.698,2.3 -2.708,2.325 -2.773,2.5 -2.773,2.5 -3.487,4.085 -2.451,5.671 -1.196,6.647 -0.13,6.461 0.883,5.324 1.285,3.718 1.687,2.112 1.272,0.585 0.424,-0.061 0.281,-0.062 0.138,-0.042 0,0"
             style="fill:#000000;fill-opacity:1;fill-rule:nonzero;stroke:none"
             id="path264" /></g><g
           id="g266"
           transform="translate(712.7549,653.6162)"><path
             d="M 0,0 C -0.128,0.054 -0.345,0.093 -0.492,0.146 -0.966,0.338 -1.403,0.609 -1.786,0.951 -2.096,1.209 -2.344,1.534 -2.51,1.901 -2.583,2.028 -2.646,2.162 -2.698,2.3 -2.708,2.325 -2.773,2.5 -2.773,2.5 -3.487,4.085 -2.451,5.671 -1.196,6.647 -0.13,6.461 0.883,5.324 1.285,3.718 1.687,2.112 1.272,0.585 0.424,-0.061 0.281,-0.062 0.138,-0.042 0,0 Z"
             style="fill:none;stroke:#000000;stroke-width:1;stroke-linecap:butt;stroke-linejoin:miter;stroke-miterlimit:10;stroke-dasharray:none;stroke-opacity:1"
             id="path268" /></g><g
           id="g270"
           transform="translate(352.6309,103.668)"><path
             d="m 0,0 c 0.215,6.634 0.543,16.756 8.359,23.188 8.379,6.897 19.449,4.685 21.302,4.315 3.325,-0.664 10.923,-2.183 15.369,-9.168 3.532,-5.548 3.651,-12.308 1.887,-17.257 -1.09,-3.06 -2.024,-2.971 -8.897,-12.134 -4.283,-5.71 -6.424,-8.564 -7.281,-10.515 -3.203,-7.298 -1.528,-11.67 -5.393,-14.83 -1.963,-1.606 -4.627,-2.303 -6.741,-2.158 C 8.677,-37.876 -0.577,-17.811 0,0"
             style="fill:#f0ed00;fill-opacity:1;fill-rule:nonzero;stroke:none"
             id="path272" /></g><g
           id="g274"
           transform="translate(369.4565,54.7607)"><path
             d="m 0,0 c -1.273,2.385 -5.224,3.533 -7.956,2.558 -5.949,-2.124 -9.134,-15.398 -4.262,-24.719 4.745,-9.079 15.275,-10.855 16.764,-11.081 7.18,-1.095 12.753,1.457 15.058,2.556 10.141,4.836 14.09,14.223 15.343,17.332 2.931,7.274 2.716,13.875 2.274,17.617 0.801,-1.98 2.043,-4.486 3.977,-7.104 2.359,-3.192 4.891,-5.393 6.819,-6.819 -0.091,-1.752 1.767,-2.914 1.928,-6.299 0.526,-11.053 -3.372,-25.571 4.031,-29.827 0.29,-0.167 9.149,-1.304 13.646,1.179 7.056,3.893 2.957,20.043 9.092,22.162 1.537,0.53 1.839,-0.468 5.115,-0.853 9.323,-1.097 14.952,6.041 17.615,3.978 1.435,-1.112 0.179,-3.477 -0.284,-12.218 -0.34,-6.438 -0.483,-9.697 0.853,-11.649 3.126,-4.569 12.847,-5.794 18.752,-1.989 5.831,3.758 6.429,12.122 7.387,28.697 0.849,14.673 1.33,22.995 -1.704,34.095 -3.244,11.868 -6.095,22.296 -14.775,28.413 -18.395,12.962 -42,-8.216 -62.224,6.251 C 41.342,56.648 40.531,60.7 33.811,62.509 23.189,65.367 10.622,59.174 3.693,50.291 3.006,49.41 -6.363,37.081 -2.557,26.424 -2.211,25.454 -0.243,22.179 3.693,15.628 7.345,9.551 8.169,8.494 9.66,5.398 c 2.695,-5.592 4.201,-8.719 3.694,-12.785 -0.156,-1.247 -0.954,-7.64 -5.967,-9.376 -3.713,-1.286 -8.572,0.389 -9.944,3.409 C -4.586,-8.891 2.129,-3.987 0,0"
             style="fill:#6000ff;fill-opacity:1;fill-rule:nonzero;stroke:none"
             id="path276" /></g><g
           id="g278"
           transform="translate(403.3359,97.5918)"><path
             d="m 0,0 c 0.215,6.635 0.543,16.757 8.359,23.189 8.379,6.897 19.449,4.685 21.302,4.315 3.325,-0.665 10.923,-2.184 15.369,-9.168 3.532,-5.549 3.651,-12.309 1.887,-17.257 -1.09,-3.061 -2.025,-2.971 -8.897,-12.134 -4.283,-5.71 -6.424,-8.564 -7.281,-10.516 -3.203,-7.298 -1.528,-11.67 -5.393,-14.83 -1.963,-1.606 -4.627,-2.303 -6.741,-2.158 C 8.677,-37.875 -0.577,-17.811 0,0"
             style="fill:#f0ed00;fill-opacity:1;fill-rule:nonzero;stroke:none"
             id="path280" /></g><g
           id="g282"
           transform="translate(496.7749,75.6465)"><path
             d="m 0,0 c -2.205,-0.209 -4.416,0.36 -6.245,1.61 -0.299,0.212 -0.555,0.482 -0.749,0.793 -0.197,0.311 -0.327,0.659 -0.387,1.02 -0.06,0.363 -0.049,0.733 0.036,1.091 0.085,0.358 0.241,0.695 0.457,0.992 1.101,1.341 2.815,2.044 3.986,3.298 0.742,0.68 1.211,1.61 1.314,2.613 -0.044,1.248 -1.116,1.799 -2.052,2.337 l -7.494,4.221 c -1.493,0.865 -2.699,-1.593 -1.27,-2.351 l 4.448,-2.542 2.109,-1.23 1.178,-0.67 0.482,-0.262 c 0.214,-0.055 -0.133,0.286 0,0 l -0.2,0.646 C -4.316,11.045 -5.305,10.315 -5.678,10.022 -6.051,9.73 -7.001,9.06 -7.656,8.564 -8.463,8.043 -9.123,7.322 -9.575,6.474 c -0.449,-0.848 -0.676,-1.799 -0.658,-2.76 0.115,-0.988 0.459,-1.938 1.002,-2.772 0.544,-0.836 1.271,-1.533 2.128,-2.04 2.209,-1.1 4.664,-1.607 7.127,-1.471 1.747,-0.062 1.632,2.6 -0.087,2.677 z"
             style="fill:#f0ed00;fill-opacity:1;fill-rule:nonzero;stroke:none"
             id="path284" /></g><g
           id="g286"
           transform="translate(376.7642,70.6201)"><path
             d="m 0,0 c -0.751,0.259 -1.436,0.684 -2.003,1.239 -0.425,0.444 -0.792,0.941 -1.088,1.48 -0.358,0.66 -0.537,1.402 -0.517,2.154 0.018,1.087 0.373,2.142 1.014,3.02 0.643,0.878 1.541,1.535 2.572,1.881 C 3.455,10.885 7.777,7.435 7.484,4.292 7.214,1.469 3.244,-1.057 0,0"
             style="fill:#ffffff;fill-opacity:1;fill-rule:nonzero;stroke:none"
             id="path288" /></g><g
           id="g290"
           transform="translate(377.0571,70.7139)"><path
             d="M 0,0 C -0.198,0.062 -0.481,0.152 -0.693,0.219 -1.354,0.507 -1.959,0.908 -2.48,1.406 -2.903,1.785 -3.238,2.252 -3.463,2.774 -3.559,2.954 -3.64,3.141 -3.707,3.333 L -3.8,3.627 C -4.722,5.878 -3.218,8.078 -1.41,9.373 -0.561,8.973 0.184,8.382 0.765,7.646 1.347,6.908 1.75,6.047 1.942,5.129 2.134,4.21 2.11,3.259 1.873,2.352 1.636,1.443 1.19,0.604 0.574,-0.104 0.38,-0.084 0.188,-0.049 0,0"
             style="fill:#000000;fill-opacity:1;fill-rule:nonzero;stroke:none"
             id="path292" /></g><g
           id="g294"
           transform="translate(377.0571,70.7139)"><path
             d="M 0,0 C -0.198,0.062 -0.481,0.152 -0.693,0.219 -1.354,0.507 -1.959,0.908 -2.48,1.406 -2.903,1.785 -3.238,2.252 -3.463,2.774 -3.559,2.954 -3.64,3.141 -3.707,3.333 L -3.8,3.627 C -4.722,5.878 -3.218,8.078 -1.41,9.373 -0.561,8.973 0.184,8.382 0.765,7.646 1.347,6.908 1.75,6.047 1.942,5.129 2.134,4.21 2.11,3.259 1.873,2.352 1.636,1.443 1.19,0.604 0.574,-0.104 0.38,-0.084 0.188,-0.049 0,0 Z"
             style="fill:none;stroke:#000000;stroke-width:1;stroke-linecap:butt;stroke-linejoin:miter;stroke-miterlimit:10;stroke-dasharray:none;stroke-opacity:1"
             id="path296" /></g><g
           id="g298"
           transform="translate(393.0586,70.0996)"><path
             d="m 0,0 c -0.752,0.26 -1.436,0.684 -2.003,1.24 -0.425,0.444 -0.792,0.941 -1.089,1.479 -0.357,0.66 -0.536,1.403 -0.517,2.154 0.019,1.088 0.374,2.142 1.015,3.021 0.643,0.877 1.541,1.535 2.572,1.881 C 3.455,10.885 7.777,7.436 7.484,4.293 7.214,1.47 3.244,-1.056 0,0"
             style="fill:#ffffff;fill-opacity:1;fill-rule:nonzero;stroke:none"
             id="path300" /></g><g
           id="g302"
           transform="translate(393.3511,70.1943)"><path
             d="m 0,0 c -0.198,0.062 -0.48,0.151 -0.693,0.219 -0.66,0.288 -1.266,0.689 -1.787,1.186 -0.423,0.379 -0.757,0.846 -0.983,1.368 -0.096,0.18 -0.177,0.368 -0.243,0.56 L -3.8,3.627 C -4.722,5.878 -3.218,8.078 -1.409,9.373 -0.561,8.973 0.185,8.381 0.765,7.646 1.347,6.907 1.75,6.046 1.942,5.128 2.134,4.209 2.111,3.259 1.874,2.351 1.637,1.442 1.191,0.604 0.574,-0.104 0.381,-0.085 0.188,-0.049 0,0"
             style="fill:#000000;fill-opacity:1;fill-rule:nonzero;stroke:none"
             id="path304" /></g><g
           id="g306"
           transform="translate(393.3511,70.1943)"><path
             d="m 0,0 c -0.198,0.062 -0.48,0.151 -0.693,0.219 -0.66,0.288 -1.266,0.689 -1.787,1.186 -0.423,0.379 -0.757,0.846 -0.983,1.368 -0.096,0.18 -0.177,0.368 -0.243,0.56 L -3.8,3.627 C -4.722,5.878 -3.218,8.078 -1.409,9.373 -0.561,8.973 0.185,8.381 0.765,7.646 1.347,6.907 1.75,6.046 1.942,5.128 2.134,4.209 2.111,3.259 1.874,2.351 1.637,1.442 1.191,0.604 0.574,-0.104 0.381,-0.085 0.188,-0.049 0,0 Z"
             style="fill:none;stroke:#000000;stroke-width:1;stroke-linecap:butt;stroke-linejoin:miter;stroke-miterlimit:10;stroke-dasharray:none;stroke-opacity:1"
             id="path308" /></g><g
           id="g310"
           transform="translate(367.2852,651.4951)"><path
             d="m 0,0 c 0.366,1.341 0.803,2.264 1.232,3.168 1.058,2.231 3.133,6.61 7.393,8.978 4.567,2.537 9.357,1.489 12.145,0.879 2.589,-0.566 7.539,-1.648 10.914,-6.161 2.791,-3.731 2.962,-7.746 2.992,-8.801 0.29,-10.075 -9.782,-16.358 -10.385,-16.721 1.311,-0.086 3.195,-0.239 5.456,-0.529 3.019,-0.386 5.565,-0.711 8.625,-1.584 4.203,-1.198 3.864,-1.855 6.161,-2.112 3.868,-0.432 7.011,1.189 8.801,2.112 3.833,1.977 6.167,4.763 7.393,6.513 0.742,-3.028 2.912,-13.498 -2.694,-24.091 -7.477,-14.13 -22.687,-16.949 -26.296,-17.618 -5.263,-0.975 -17.504,-3.244 -26.75,4.923 -1.469,1.298 -10.088,8.494 -8.614,18.815 1.079,7.557 6.866,11.972 8.298,13.004 0.262,0.37 0.602,0.973 0.499,1.64 -0.171,1.108 -1.459,1.727 -1.925,1.997 C -0.235,-13.576 -1.587,-5.811 0,0"
             style="fill:#fdff00;fill-opacity:1;fill-rule:nonzero;stroke:none"
             id="path312" /></g><g
           id="g314"
           transform="translate(369.1348,644.585)"><path
             d="m 0,0 c 1.021,-1.265 1.972,-1.563 3.511,-1.95 0.923,-0.232 0.72,-2.048 0.26,-2.861 -1.204,-2.126 -7.359,-2.03 -11.703,0.651 -4.409,2.722 -6.939,8.099 -5.851,9.361 0.65,0.755 2.717,0.184 3.381,0 2.224,-0.614 2.362,-1.728 3.641,-1.69 2.093,0.063 3.129,3.093 4.728,2.661 0.295,-0.08 0.475,-0.241 0.676,-0.421 C 0.312,4.26 -1.349,1.671 0,0"
             style="fill:#fb6700;fill-opacity:1;fill-rule:nonzero;stroke:none"
             id="path316" /></g><g
           id="g318"
           transform="translate(357.9448,638.1494)"><path
             d="m 0,0 c -0.088,-0.273 0.144,-0.543 0.428,-0.497 1.089,0.178 2.55,0.393 4.276,0.589 C 9.532,0.639 10.941,0.4 11.061,0.894 11.295,1.86 6.539,5.461 2.871,3.643 1.098,2.765 0.315,0.984 0,0"
             style="fill:#fb6700;fill-opacity:1;fill-rule:nonzero;stroke:none"
             id="path320" /></g><g
           id="g322"
           transform="translate(377.6514,616.0479)"><path
             d="m 0,0 c 0.048,0.892 0.139,3.024 1.353,4.755 2.079,2.962 7.036,3.066 7.965,3.086 4.545,0.095 5.871,-2.517 10.796,-3.296 3.266,-0.517 6.092,0.094 7.954,0.683 -2.386,-2.236 -4.773,-4.47 -7.159,-6.706 1.894,0.077 3.788,0.152 5.682,0.228 C 25.977,-2.108 25.013,-3.315 23.636,-4.546 22.715,-5.368 15.111,-11.345 7.5,-9.318 2.785,-8.063 -0.212,-3.981 0,0"
             style="fill:#ffd400;fill-opacity:1;fill-rule:nonzero;stroke:none"
             id="path324" /></g><g
           id="g326"
           transform="translate(379.791,646.043)"><path
             d="m 0,0 c -0.735,0.239 -1.408,0.633 -1.974,1.156 -0.435,0.412 -0.811,0.882 -1.115,1.397 -0.356,0.644 -0.546,1.366 -0.555,2.101 -0.017,1.052 0.293,2.084 0.888,2.951 0.595,0.869 1.445,1.53 2.434,1.893 C 3.041,10.647 7.318,7.422 7.112,4.344 6.932,1.597 3.156,-1.016 0,0"
             style="fill:#ffffff;fill-opacity:1;fill-rule:nonzero;stroke:none"
             id="path328" /></g><g
           id="g330"
           transform="translate(380.0161,646.1074)"><path
             d="M 0,0 C -0.175,0.073 -0.47,0.126 -0.669,0.198 -1.316,0.46 -1.912,0.83 -2.433,1.295 -2.855,1.647 -3.193,2.09 -3.42,2.59 -3.519,2.764 -3.604,2.945 -3.675,3.132 -3.689,3.168 -3.778,3.405 -3.778,3.405 -4.75,5.564 -3.339,7.726 -1.629,9.057 -0.178,8.802 1.203,7.253 1.751,5.065 2.299,2.877 1.734,0.797 0.577,-0.083 0.383,-0.085 0.187,-0.057 0,0"
             style="fill:#000000;fill-opacity:1;fill-rule:nonzero;stroke:none"
             id="path332" /></g><g
           id="g334"
           transform="translate(380.0161,646.1074)"><path
             d="M 0,0 C -0.175,0.073 -0.47,0.126 -0.669,0.198 -1.316,0.46 -1.912,0.83 -2.433,1.295 -2.855,1.647 -3.193,2.09 -3.42,2.59 -3.519,2.764 -3.604,2.945 -3.675,3.132 -3.689,3.168 -3.778,3.405 -3.778,3.405 -4.75,5.564 -3.339,7.726 -1.629,9.057 -0.178,8.802 1.203,7.253 1.751,5.065 2.299,2.877 1.734,0.797 0.577,-0.083 0.383,-0.085 0.187,-0.057 0,0 Z"
             style="fill:none;stroke:#000000;stroke-width:1;stroke-linecap:butt;stroke-linejoin:miter;stroke-miterlimit:10;stroke-dasharray:none;stroke-opacity:1"
             id="path336" /></g><g
           id="g338"
           transform="translate(47.6997,448.0244)"><path
             d="M 0,0 C -0.907,1.826 -0.575,6.352 -0.048,7.078 1.297,6.609 5.415,3.817 7.91,4.316 c 3.542,0.708 5.351,2.429 6.393,3.965 5.34,7.871 11.195,20.613 14.052,23.086 7.364,6.375 12.841,13.82 36.887,15.558 1.162,0.136 2.638,0.411 4.266,1.004 15.696,5.713 19.854,31.54 21.078,39.145 0.143,0.888 -0.155,4.61 1.004,9.284 0.774,3.123 1.295,5.223 2.761,7.027 3.997,4.918 13.846,6.177 20.074,1.506 0.985,-0.74 4.449,-3.553 5.27,-8.533 1.131,-6.864 -3.757,-11.798 -4.266,-12.295 -1.102,-0.09 -2.709,-0.327 -4.517,-1.004 -5.807,-2.175 -8.742,-7.048 -9.787,-8.783 C 97.952,69.006 98.532,65.175 97.863,48.682 97.25,33.528 96.476,29.735 95.605,26.6 94.935,24.184 93.39,18.758 89.833,12.798 80.403,-3.007 65,-8.869 62.482,-9.786 56.802,-11.854 46.893,-15.464 35.381,-11.793 28.096,-9.471 23.195,-5.198 20.576,-2.509 19.379,-3.312 12.188,-7.986 5.521,-5.27 4.215,-4.737 1.444,-2.907 0,0"
             style="fill:#fdff00;fill-opacity:1;fill-rule:nonzero;stroke:none"
             id="path340" /></g><g
           id="g342"
           transform="translate(85.8193,435.4844)"><path
             d="M 0,0 C 0.707,2.186 4.315,3.6 5.669,2.561 6.394,2.005 6.13,1.006 5.794,-3.316 c -0.469,-6.032 -0.26,-7.986 0,-9.38 0.366,-1.968 0.64,-3.343 1.751,-4.627 0.902,-1.044 2.238,-1.891 5.877,-2.627 2.414,-0.487 6.006,-0.96 10.505,-0.625 -0.123,-0.052 -2.392,-1.058 -2.751,-3.502 -0.258,-1.756 0.578,-3.53 2.126,-4.502 -2.31,0.703 -5.594,1.376 -9.504,1.126 -2.087,-0.134 -3.798,0.248 -4.253,-0.625 -0.41,-0.789 0.393,-1.996 0.876,-2.627 -0.779,0.477 -1.978,1.168 -3.502,1.876 -3.307,1.537 -3.975,1.215 -4.752,2.001 -1.974,1.996 1.231,5.188 1,12.006 -0.114,3.389 -0.235,6.968 -2.125,10.88 C 0.356,-2.523 -0.43,-1.332 0,0"
             style="fill:#fb6700;fill-opacity:1;fill-rule:nonzero;stroke:none"
             id="path344" /></g><g
           id="g346"
           transform="translate(114.7373,440.1953)"><path
             d="m 0,0 c 0.255,-0.728 0.612,-1.768 1.012,-3.025 0.659,-2.07 1.055,-3.315 1.376,-4.752 0.767,-3.437 1.247,-5.589 0.125,-6.754 -0.471,-0.489 -1.353,-0.817 -3.117,-1.472 -1.064,-0.395 -1.88,-0.601 -2.135,-1.279 -0.172,-0.456 -0.018,-0.937 0.125,-1.251 0.106,0.136 0.614,0.753 1.512,0.876 0.727,0.099 1.279,-0.184 1.458,-0.284 -0.454,-1.246 -0.895,-2.7 -1.234,-4.345 -0.443,-2.144 -0.604,-4.076 -0.633,-5.693 0.354,0.302 0.707,0.605 1.06,0.909 0.626,0.535 1.471,0.727 2.271,0.532 0.658,-0.16 1.37,-0.299 2.132,-0.399 3.115,-0.409 5.764,-0.008 7.598,0.448 0.341,0.053 1.357,0.169 2.433,-0.398 1.259,-0.662 1.727,-1.795 1.838,-2.086 0.673,1.074 0.66,2.354 0,3.179 -0.501,0.626 -1.217,0.795 -1.49,0.844 0.548,-0.448 1.395,-0.994 2.483,-1.093 0.739,-0.066 1.054,0.121 3.03,0.646 2.521,0.669 3.154,0.669 3.675,0.596 0.889,-0.126 1.571,-0.484 1.986,-0.745 0.212,1.693 0.013,3.153 -0.596,3.079 -4.871,-0.597 -6.343,-0.624 -12.217,1.689 -3.431,1.35 -4.392,3.774 -4.668,4.22 -0.212,0.343 -0.678,1.159 -1.241,3.577 -0.717,3.076 -0.83,5.48 -0.894,6.554 C 5.763,-4.308 5.465,-1.25 4.687,2.577 3.125,1.719 1.562,0.859 0,0"
             style="fill:#fb6700;fill-opacity:1;fill-rule:nonzero;stroke:none"
             id="path348" /></g><g
           id="g350"
           transform="translate(160.3022,532.1172)"><path
             d="m 0,0 c 0.293,-1.003 2.627,-0.651 4.798,-1.199 4.781,-1.206 6.078,-4.67 8.71,-5.842 1.549,-0.689 3.647,1.294 3.756,2.556 0.148,1.726 -3.077,4.329 -16.847,8.293 C 0.451,3.547 0.484,3.168 0.469,2.712 0.417,1.119 -0.162,0.555 0,0"
             style="fill:#fb6700;fill-opacity:1;fill-rule:nonzero;stroke:none"
             id="path352" /></g><g
           id="g354"
           transform="translate(164.2427,542.2744)"><path
             d="M 0,0 C 0.242,0.179 0.908,-0.121 2.005,0.17 2.6,0.328 2.768,1.084 3.28,1.05 3.754,1.019 4.049,0.343 4.196,0.065 4.85,-1.167 6.361,-1.619 8.577,-2.281 c 3.012,-0.901 10.434,-2.375 13.456,-0.365 0.266,0.176 1.231,0.867 2.243,0.625 0.037,-0.008 0.912,-0.229 1.095,-0.834 0.277,-0.913 -1.208,-2.079 -1.617,-2.4 C 20.53,-7.786 17.083,-6.009 10.298,-7.602 7.713,-8.208 7.613,-8.95 5.917,-8.696 c -3.57,0.532 -7.177,1.678 -9.44,2.346 0.369,0.03 1.93,0.381 2.555,0.678 0.734,0.349 1.525,0.905 1.774,1.513 C 1.503,-2.455 -1.151,-0.851 0,0"
             style="fill:#fb6700;fill-opacity:1;fill-rule:nonzero;stroke:none"
             id="path356" /></g><g
           id="g358"
           transform="translate(148.2031,545.0684)"><path
             d="M 0,0 C -0.207,3.085 4.08,6.318 7.451,5.165 8.442,4.802 9.294,4.139 9.892,3.269 10.487,2.4 10.798,1.365 10.781,0.312 10.771,-0.427 10.582,-1.149 10.225,-1.796 9.92,-2.312 9.543,-2.782 9.107,-3.195 8.54,-3.721 7.865,-4.115 7.128,-4.354 3.965,-5.372 0.181,-2.754 0,0"
             style="fill:#ffffff;fill-opacity:1;fill-rule:nonzero;stroke:none"
             id="path360" /></g><g
           id="g362"
           transform="translate(154.5273,540.6953)"><path
             d="m 0,0 c -1.159,0.882 -1.726,2.967 -1.177,5.16 0.55,2.194 1.934,3.745 3.389,4.001 1.714,-1.334 3.128,-3.5 2.154,-5.665 0,0 -0.089,-0.237 -0.104,-0.273 C 4.191,3.035 4.105,2.854 4.006,2.68 3.779,2.178 3.441,1.734 3.017,1.381 2.495,0.915 1.897,0.544 1.25,0.281 1.05,0.21 0.754,0.156 0.578,0.083 0.391,0.026 0.195,-0.002 0,0"
             style="fill:#000000;fill-opacity:1;fill-rule:nonzero;stroke:none"
             id="path364" /></g><g
           id="g366"
           transform="translate(154.5273,540.6953)"><path
             d="m 0,0 c -1.159,0.882 -1.726,2.967 -1.177,5.16 0.55,2.194 1.934,3.745 3.389,4.001 1.714,-1.334 3.128,-3.5 2.154,-5.665 0,0 -0.089,-0.237 -0.104,-0.273 C 4.191,3.035 4.105,2.854 4.006,2.68 3.779,2.178 3.441,1.734 3.017,1.381 2.495,0.915 1.897,0.544 1.25,0.281 1.05,0.21 0.754,0.156 0.578,0.083 0.391,0.026 0.195,-0.002 0,0 Z"
             style="fill:none;stroke:#000000;stroke-width:1;stroke-linecap:butt;stroke-linejoin:miter;stroke-miterlimit:10;stroke-dasharray:none;stroke-opacity:1"
             id="path368" /></g><g
           id="g370"
           transform="translate(122.4756,470.4053)"><path
             d="m 0,0 c -0.21,-7.948 -10.768,-12.484 -14.472,-14.075 -19.824,-8.517 -46.096,0.927 -46.587,8.524 -0.213,3.309 4.439,6.615 7.533,7.93 6.22,2.642 9.251,-1.445 17.049,0.396 4.792,1.132 4.234,2.815 12.886,6.542 6.422,2.768 9.633,4.152 13.084,3.371 C -4.999,11.441 0.15,5.665 0,0"
             style="fill:#ffd400;fill-opacity:1;fill-rule:nonzero;stroke:none"
             id="path372" /></g><g
           id="g374"
           transform="translate(620.3975,521.8965)"><path
             d="m 0,0 c 1.797,1.554 4.068,2.048 6.048,2.146 2.186,2.923 5.593,6.871 10.534,10.534 11.998,8.896 24.776,9.989 37.649,10.924 14.322,1.043 12.454,-1.517 39.407,-2.34 0,0 6.11,-0.186 23.019,-3.316 1.097,-0.203 3.641,-0.694 6.633,-2.146 2.05,-0.995 3.597,-2.097 4.603,-2.894 3.271,1.022 8.49,3.203 11.313,-0.661 3.381,-4.632 5.411,-10.344 12.626,-17.783 7.119,-7.34 13.939,-4.932 18.166,-12.846 2.03,-3.799 2.455,-8.087 2.569,-9.358 0.273,-3.004 0.586,-6.451 -1.153,-10.159 -1.571,-3.343 -5.328,-8.004 -10.098,-7.864 -1.485,0.044 -2.691,0.541 -3.494,0.971 -2.474,-0.981 -7.223,-2.424 -12.913,-1.359 -4.48,0.838 -11.487,3.595 -11.942,7.184 -0.081,0.64 -0.041,1.984 -0.873,3.494 -0.565,1.023 -1.301,1.71 -1.846,2.137 -6.287,-0.34 -7.858,-4.627 -9.087,-9.932 -0.379,-1.635 -0.075,-3.503 -0.389,-5.63 -0.609,-4.117 -0.209,2.099 -0.671,-7.905 -0.044,-0.958 -0.088,-4.752 -0.532,-4.494 0.04,-0.939 0.114,-2.585 0.209,-4.639 0.344,-7.434 0.455,-7.889 0,-8.584 -3.038,-4.631 -11.506,-2.704 -14.827,-1.95 -4.252,0.968 -5.335,2.434 -5.657,2.926 -1.308,2.007 -0.732,4.335 -0.195,7.218 0.595,3.184 1.268,7.709 1.561,13.461 -11.537,-0.04 -21.076,-0.364 -29.135,-0.906 -0.618,0.248 -1.277,0.375 -1.944,0.344 -2.974,-0.135 -5.879,-0.738 -8.796,-1.276 -1.46,-0.159 -2.863,-0.327 -4.213,-0.503 -0.19,-0.024 -0.387,-0.051 -0.59,-0.077 -3.195,-0.087 -6.382,0.302 -9.56,0.721 -3.77,0.525 -7.562,1.169 -11.342,0.523 -3.227,-0.096 -6.35,-1.559 -7.347,-4.917 -0.089,-0.302 -0.157,-0.613 -0.203,-0.931 -0.085,-0.204 -0.164,-0.413 -0.237,-0.625 -0.45,-1.319 -0.566,-2.776 -0.619,-4.163 -0.059,-1.584 0.093,-3.218 0.534,-4.743 0.011,-0.035 0.023,-0.069 0.033,-0.104 -0.04,-0.169 -0.082,-0.339 -0.125,-0.509 -0.103,-0.404 -0.213,-0.8 -0.328,-1.188 -0.368,-1.228 -1.34,-2.181 -2.568,-2.544 -8.099,-2.382 -14.8,-1.975 -17.002,1.389 -0.381,0.583 -0.683,1.34 -0.78,2.343 -0.225,10.534 0.04,21.679 0.976,33.357 0.228,2.838 0.489,5.635 0.779,8.388 -1.73,3.06 -4.322,8.638 -4.681,15.998 -0.199,4.08 0.345,7.552 0.976,10.142 C 1.73,-3.133 0.67,-4.499 0.196,-5.461 -2.019,-9.952 3.866,-15.048 2.341,-23.213 2.086,-24.582 1.766,-26.293 1.171,-26.336 -0.898,-26.478 -7.515,-6.496 0,0"
             style="fill:#a5a5a5;fill-opacity:1;fill-rule:nonzero;stroke:none"
             id="path376" /></g><g
           id="g378"
           transform="translate(757.9111,538.6689)"><path
             d="M 0,0 C -1.632,-2.827 -1.225,-6.119 0.911,-7.352 3.046,-8.585 6.1,-7.292 7.732,-4.465 9.365,-1.637 8.957,1.654 6.822,2.887 4.687,4.12 1.632,2.827 0,0"
             style="fill:#7c7c7c;fill-opacity:1;fill-rule:nonzero;stroke:none"
             id="path380" /></g><g
           id="g382"
           transform="translate(741.9873,532.9531)"><path
             d="M 0,0 C 1.632,-2.828 4.687,-4.12 6.822,-2.888 8.957,-1.655 9.365,1.637 7.732,4.464 6.1,7.291 3.045,8.584 0.91,7.352 -1.225,6.118 -1.633,2.827 0,0"
             style="fill:#7c7c7c;fill-opacity:1;fill-rule:nonzero;stroke:none"
             id="path384" /></g><g
           id="g386"
           transform="translate(793.1035,492.4941)"><path
             d="m 0,0 c -0.433,0.104 2.322,-11.062 -8.209,-15.743 -2.36,-1.049 -4.913,-0.316 -6.676,0.353 -0.563,-0.224 -1.338,-0.51 -2.279,-0.781 -3.057,-0.88 -5.613,-0.959 -6.841,-0.95 -4.646,0.034 -8.022,1.463 -10.21,2.414 -2.582,1.123 -4.316,1.907 -4.916,3.602 -0.243,0.684 -0.211,1.265 -0.814,3.227 -0.451,1.466 -0.735,2.008 -1.098,2.486 -0.548,0.721 -0.882,0.782 -1.415,1.458 -0.648,0.826 -0.927,1.722 -1.057,2.425 1.29,0.162 3.254,0.205 5.157,-0.773 1.708,-0.879 1.997,-1.877 4.641,-4.47 2.345,-2.299 3.518,-3.449 4.985,-3.867 2.992,-0.855 6.041,0.691 7.22,1.289 2.648,1.343 2.811,2.543 4.985,2.922 1.575,0.274 2.938,-0.104 4.727,-0.602 2.956,-0.822 3.212,-1.639 4.899,-1.633 2.455,0.011 4.213,1.781 4.555,2.063 C -1.022,-5.489 0.235,-0.057 0,0"
             style="fill:#7c7c7c;fill-opacity:1;fill-rule:nonzero;stroke:none"
             id="path388" /></g><g
           id="g390"
           transform="translate(722.8721,446.1631)"><path
             d="M 0,0 C -0.792,0.709 -0.251,2.474 0.044,3.438 0.423,4.676 0.866,6.043 1.55,6.139 2.381,6.255 3.449,4.747 4.2,2.502 3.831,3.58 4.127,4.741 4.927,5.411 5.522,5.909 6.364,6.158 7.057,5.931 8.134,5.578 8.872,4.169 8.512,2.606 8.503,3.027 8.54,4.114 9.291,5.1 c 0.263,0.344 0.788,1.033 1.402,1.039 0.883,0.008 1.85,-1.389 2.182,-3.533 -0.028,0.377 -0.052,1.372 0.572,2.338 0.193,0.3 0.799,1.238 1.61,1.299 0.985,0.073 2.17,-1.15 2.544,-3.114 C 17.646,2.731 17.672,1.988 17.303,1.215 17.205,1.008 16.833,0.284 15.545,-0.49 14.247,-1.272 13.003,-1.512 12.224,-1.626 9.392,-2.044 7.143,-1.635 3.704,-1.009 2.049,-0.707 2.811,-0.713 0.892,-0.311 0.379,-0.202 0.195,-0.175 0,0"
             style="fill:#7c7c7c;fill-opacity:1;fill-rule:nonzero;stroke:none"
             id="path392" /></g><g
           id="g394"
           transform="translate(645.9746,448.8574)"><path
             d="M 0,0 C 0.525,0.793 -0.047,2.004 -0.631,3.239 -1.235,4.519 -1.708,5.52 -2.441,5.54 -3.096,5.558 -3.605,4.782 -3.95,4.258 -4.729,3.071 -4.839,1.799 -4.817,0.977 -4.781,1.836 -4.883,3.079 -5.609,4.22 -5.883,4.65 -6.225,5.171 -6.778,5.238 -7.453,5.32 -8.013,4.679 -8.249,4.408 -9.265,3.244 -9.144,1.661 -9.079,1.128 -9.02,1.739 -9.005,2.939 -9.72,4.069 -10,4.512 -10.533,5.354 -11.266,5.352 -12.153,5.348 -12.76,4.109 -13.038,3.541 -13.509,2.58 -13.571,1.683 -13.566,1.165 c 0.044,0.232 0.355,2.05 -0.868,3.318 -0.272,0.284 -0.71,0.846 -1.319,0.83 -0.733,-0.018 -1.228,-0.834 -1.546,-1.357 -0.417,-0.685 -1.481,-2.29 -0.832,-3.606 0.246,-0.498 0.631,-0.745 1.248,-1.129 1.446,-0.9 2.838,-1.148 3.464,-1.243 0.532,-0.083 2.093,-0.299 5.24,-0.087 0.85,0.057 2.899,0.519 6.997,1.443 C -0.855,-0.592 -0.305,-0.46 0,0"
             style="fill:#7c7c7c;fill-opacity:1;fill-rule:nonzero;stroke:none"
             id="path396" /></g><g
           id="g398"
           transform="translate(752.3115,513.0479)"><path
             d="M 0,0 C 0.539,0.176 1.033,0.465 1.449,0.849 1.768,1.151 2.044,1.496 2.268,1.874 2.529,2.347 2.667,2.876 2.674,3.417 2.687,4.188 2.459,4.946 2.023,5.582 1.586,6.22 0.962,6.705 0.236,6.972 -2.232,7.815 -5.372,5.447 -5.22,3.188 -5.088,1.172 -2.316,-0.745 0,0"
             style="fill:#ffffff;fill-opacity:1;fill-rule:nonzero;stroke:none"
             id="path400" /></g><g
           id="g402"
           transform="translate(752.146,513.0947)"><path
             d="M 0,0 C 0.128,0.054 0.345,0.093 0.492,0.146 0.966,0.338 1.404,0.61 1.786,0.951 2.096,1.21 2.344,1.534 2.51,1.901 2.583,2.029 2.646,2.162 2.698,2.3 2.708,2.326 2.773,2.5 2.773,2.5 3.487,4.085 2.451,5.672 1.196,6.648 0.131,6.461 -0.883,5.324 -1.285,3.719 -1.687,2.112 -1.272,0.586 -0.423,-0.061 -0.281,-0.062 -0.138,-0.041 0,0"
             style="fill:#000000;fill-opacity:1;fill-rule:nonzero;stroke:none"
             id="path404" /></g><g
           id="g406"
           transform="translate(752.146,513.0947)"><path
             d="M 0,0 C 0.128,0.054 0.345,0.093 0.492,0.146 0.966,0.338 1.404,0.61 1.786,0.951 2.096,1.21 2.344,1.534 2.51,1.901 2.583,2.029 2.646,2.162 2.698,2.3 2.708,2.326 2.773,2.5 2.773,2.5 3.487,4.085 2.451,5.672 1.196,6.648 0.131,6.461 -0.883,5.324 -1.285,3.719 -1.687,2.112 -1.272,0.586 -0.423,-0.061 -0.281,-0.062 -0.138,-0.041 0,0 Z"
             style="fill:none;stroke:#000000;stroke-width:1;stroke-linecap:butt;stroke-linejoin:miter;stroke-miterlimit:10;stroke-dasharray:none;stroke-opacity:1"
             id="path408" /></g><g
           id="g410"
           transform="translate(763.8091,513.0479)"><path
             d="m 0,0 c 0.539,0.176 1.033,0.465 1.449,0.849 0.32,0.302 0.595,0.647 0.819,1.025 0.261,0.473 0.4,1.002 0.407,1.543 C 2.688,4.188 2.46,4.946 2.023,5.582 1.586,6.22 0.962,6.705 0.236,6.972 -2.232,7.815 -5.372,5.447 -5.22,3.188 -5.088,1.172 -2.316,-0.745 0,0"
             style="fill:#ffffff;fill-opacity:1;fill-rule:nonzero;stroke:none"
             id="path412" /></g><g
           id="g414"
           transform="translate(763.6436,513.0947)"><path
             d="M 0,0 C 0.129,0.054 0.346,0.093 0.492,0.146 0.966,0.338 1.404,0.61 1.786,0.951 2.096,1.21 2.344,1.534 2.51,1.901 2.583,2.029 2.646,2.162 2.698,2.3 2.708,2.326 2.774,2.5 2.774,2.5 3.487,4.085 2.452,5.672 1.196,6.648 0.131,6.461 -0.882,5.324 -1.285,3.719 -1.687,2.112 -1.272,0.586 -0.423,-0.061 -0.281,-0.062 -0.137,-0.041 0,0"
             style="fill:#000000;fill-opacity:1;fill-rule:nonzero;stroke:none"
             id="path416" /></g><g
           id="g418"
           transform="translate(763.6436,513.0947)"><path
             d="M 0,0 C 0.129,0.054 0.346,0.093 0.492,0.146 0.966,0.338 1.404,0.61 1.786,0.951 2.096,1.21 2.344,1.534 2.51,1.901 2.583,2.029 2.646,2.162 2.698,2.3 2.708,2.326 2.774,2.5 2.774,2.5 3.487,4.085 2.452,5.672 1.196,6.648 0.131,6.461 -0.882,5.324 -1.285,3.719 -1.687,2.112 -1.272,0.586 -0.423,-0.061 -0.281,-0.062 -0.137,-0.041 0,0 Z"
             style="fill:none;stroke:#000000;stroke-width:1;stroke-linecap:butt;stroke-linejoin:miter;stroke-miterlimit:10;stroke-dasharray:none;stroke-opacity:1"
             id="path420" /></g><g
           id="g422"
           transform="translate(117.5171,712.9111)"><path
             d="m 0,0 c -0.366,1.342 -0.803,2.264 -1.232,3.169 -1.058,2.231 -3.133,6.61 -7.393,8.977 -4.567,2.537 -9.357,1.49 -12.146,0.879 -2.588,-0.565 -7.538,-1.648 -10.913,-6.16 -2.791,-3.732 -2.962,-7.746 -2.992,-8.801 -0.29,-10.075 9.782,-16.358 10.385,-16.722 -1.311,-0.086 -3.195,-0.238 -5.457,-0.528 -3.018,-0.386 -5.564,-0.711 -8.625,-1.585 -4.202,-1.197 -3.863,-1.855 -6.16,-2.112 -3.868,-0.431 -7.011,1.19 -8.801,2.112 -3.833,1.978 -6.167,4.764 -7.393,6.513 -0.742,-3.027 -2.912,-13.497 2.694,-24.091 7.477,-14.129 22.686,-16.948 26.296,-17.617 5.263,-0.975 17.504,-3.245 26.75,4.923 1.469,1.298 10.088,8.494 8.614,18.815 -1.079,7.557 -6.866,11.972 -8.298,13.004 -0.262,0.37 -0.602,0.973 -0.499,1.64 0.171,1.107 1.459,1.727 1.925,1.996 C 0.235,-13.576 1.587,-5.81 0,0"
             style="fill:#fdff00;fill-opacity:1;fill-rule:nonzero;stroke:none"
             id="path424" /></g><g
           id="g426"
           transform="translate(115.6675,706.002)"><path
             d="m 0,0 c -1.021,-1.265 -1.972,-1.564 -3.511,-1.95 -0.923,-0.232 -0.72,-2.048 -0.26,-2.861 1.204,-2.126 7.359,-2.03 11.703,0.65 4.409,2.722 6.939,8.099 5.851,9.362 -0.65,0.754 -2.717,0.184 -3.381,0 C 8.178,4.587 8.04,3.473 6.761,3.511 4.668,3.574 3.632,6.604 2.033,6.172 1.738,6.092 1.558,5.931 1.357,5.751 -0.312,4.26 1.349,1.67 0,0"
             style="fill:#fb6700;fill-opacity:1;fill-rule:nonzero;stroke:none"
             id="path428" /></g><g
           id="g430"
           transform="translate(126.8574,699.5664)"><path
             d="m 0,0 c 0.088,-0.273 -0.144,-0.543 -0.428,-0.497 -1.089,0.177 -2.551,0.393 -4.276,0.589 -4.828,0.547 -6.237,0.308 -6.357,0.802 -0.234,0.966 4.522,4.567 8.19,2.749 C -1.099,2.764 -0.315,0.984 0,0"
             style="fill:#fb6700;fill-opacity:1;fill-rule:nonzero;stroke:none"
             id="path432" /></g><g
           id="g434"
           transform="translate(107.1509,677.4648)"><path
             d="m 0,0 c -0.048,0.892 -0.139,3.024 -1.353,4.754 -2.079,2.963 -7.036,3.067 -7.965,3.087 -4.545,0.095 -5.871,-2.517 -10.796,-3.296 -3.266,-0.517 -6.092,0.094 -7.954,0.682 2.386,-2.235 4.773,-4.47 7.159,-6.705 -1.894,0.077 -3.788,0.152 -5.682,0.228 0.614,-0.858 1.578,-2.065 2.954,-3.296 0.922,-0.823 8.526,-6.8 16.137,-4.772 C -2.785,-8.063 0.212,-3.981 0,0"
             style="fill:#ffd400;fill-opacity:1;fill-rule:nonzero;stroke:none"
             id="path436" /></g><g
           id="g438"
           transform="translate(105.0112,707.46)"><path
             d="M 0,0 C 0.734,0.239 1.408,0.633 1.974,1.156 2.409,1.568 2.785,2.038 3.089,2.552 3.445,3.197 3.635,3.918 3.644,4.654 3.661,5.706 3.351,6.738 2.756,7.605 2.161,8.473 1.311,9.135 0.322,9.497 -3.041,10.647 -7.318,7.421 -7.112,4.344 -6.932,1.597 -3.156,-1.016 0,0"
             style="fill:#ffffff;fill-opacity:1;fill-rule:nonzero;stroke:none"
             id="path440" /></g><g
           id="g442"
           transform="translate(104.7856,707.5234)"><path
             d="M 0,0 C 0.175,0.073 0.471,0.127 0.67,0.198 1.316,0.46 1.913,0.831 2.434,1.296 2.856,1.647 3.193,2.091 3.42,2.591 3.52,2.765 3.604,2.945 3.675,3.133 3.69,3.169 3.779,3.405 3.779,3.405 4.75,5.565 3.34,7.727 1.63,9.058 0.178,8.802 -1.202,7.254 -1.75,5.065 -2.299,2.878 -1.733,0.798 -0.577,-0.082 -0.382,-0.085 -0.187,-0.057 0,0"
             style="fill:#000000;fill-opacity:1;fill-rule:nonzero;stroke:none"
             id="path444" /></g><g
           id="g446"
           transform="translate(104.7856,707.5234)"><path
             d="M 0,0 C 0.175,0.073 0.471,0.127 0.67,0.198 1.316,0.46 1.913,0.831 2.434,1.296 2.856,1.647 3.193,2.091 3.42,2.591 3.52,2.765 3.604,2.945 3.675,3.133 3.69,3.169 3.779,3.405 3.779,3.405 4.75,5.565 3.34,7.727 1.63,9.058 0.178,8.802 -1.202,7.254 -1.75,5.065 -2.299,2.878 -1.733,0.798 -0.577,-0.082 -0.382,-0.085 -0.187,-0.057 0,0 Z"
             style="fill:none;stroke:#000000;stroke-width:1;stroke-linecap:butt;stroke-linejoin:miter;stroke-miterlimit:10;stroke-dasharray:none;stroke-opacity:1"
             id="path448" /></g><g
           id="g450"
           transform="translate(535.2031,596.7979)"><path
             d="m 0,0 c -12.659,11.416 -26.238,27.099 -36.18,48.046 -1.638,3.451 -3.089,6.859 -4.375,10.206"
             style="fill:none;stroke:#00ffa9;stroke-width:2;stroke-linecap:butt;stroke-linejoin:miter;stroke-miterlimit:10;stroke-dasharray:none;stroke-opacity:1"
             id="path452" /></g><g
           id="g454"
           transform="translate(499.8735,669.4492)"><path
             d="m 0,0 c 2.281,-10.483 0.87,-19.689 -3.152,-20.564 -4.021,-0.875 -9.13,6.913 -11.411,17.395 -2.28,10.482 -0.869,19.69 3.152,20.565 C -7.389,18.271 -2.281,10.482 0,0"
             style="fill:#754c24;fill-opacity:1;fill-rule:nonzero;stroke:none"
             id="path456" /></g><g
           id="g458"
           transform="translate(542.915,606.8525)"><path
             d="m 0,0 c -1.073,17.012 0.178,37.719 7.711,59.648 1.241,3.613 2.585,7.065 4.005,10.357"
             style="fill:none;stroke:#00ffa9;stroke-width:2;stroke-linecap:butt;stroke-linejoin:miter;stroke-miterlimit:10;stroke-dasharray:none;stroke-opacity:1"
             id="path460" /></g><g
           id="g462"
           transform="translate(568.4326,683.502)"><path
             d="m 0,0 c -5.696,-9.09 -13.141,-14.688 -16.628,-12.503 -3.488,2.186 -1.697,11.326 3.999,20.416 C -6.933,17.004 0.512,22.602 4,20.416 7.487,18.231 5.696,9.091 0,0"
             style="fill:#754c24;fill-opacity:1;fill-rule:nonzero;stroke:none"
             id="path464" /></g><g
           id="g466"
           transform="translate(538.187,599.6973)"><path
             d="m 0,0 c -8.119,14.989 -15.679,34.308 -18.051,57.373 -0.391,3.8 -0.62,7.497 -0.715,11.08"
             style="fill:none;stroke:#00ffa9;stroke-width:2;stroke-linecap:butt;stroke-linejoin:miter;stroke-miterlimit:10;stroke-dasharray:none;stroke-opacity:1"
             id="path468" /></g><g
           id="g470"
           transform="translate(529.1567,679.9775)"><path
             d="m 0,0 c -1.353,-10.643 -5.758,-18.85 -9.841,-18.33 -4.082,0.518 -6.296,9.566 -4.944,20.208 1.353,10.643 5.759,18.849 9.841,18.33 C -0.861,19.689 1.352,10.642 0,0"
             style="fill:#754c24;fill-opacity:1;fill-rule:nonzero;stroke:none"
             id="path472" /></g><g
           id="g474"
           transform="translate(539.1943,597.2334)"><path
             d="m 0,0 c 0.271,3.699 -18.515,13.897 -38.11,8.574 -13.342,-3.625 -32.984,-16.053 -35.902,-37.869 -0.922,-6.893 0.06,-12.967 1.105,-17.148 6.833,12.594 17.382,27.615 33.139,36.44 C -19.032,1.608 -0.268,-3.663 0,0"
             style="fill:#00ffa9;fill-opacity:1;fill-rule:nonzero;stroke:none"
             id="path476" /></g><g
           id="g478"
           transform="translate(539.1943,597.2334)"><path
             d="m 0,0 c 0.271,3.699 -18.515,13.897 -38.11,8.574 -13.342,-3.625 -32.984,-16.053 -35.902,-37.869 -0.922,-6.893 0.06,-12.967 1.105,-17.148 6.833,12.594 17.382,27.615 33.139,36.44 C -19.032,1.608 -0.268,-3.663 0,0 Z"
             style="fill:none;stroke:#00ffa9;stroke-width:2;stroke-linecap:butt;stroke-linejoin:miter;stroke-miterlimit:10;stroke-dasharray:none;stroke-opacity:1"
             id="path480" /></g><g
           id="g482"
           transform="translate(538.7285,597.8477)"><path
             d="m 0,0 c -2.564,1.228 -0.473,20.092 12.223,33.549 8.643,9.162 26.041,19.888 41.78,13.699 4.973,-1.955 8.513,-5.101 10.778,-7.559 C 53.28,39.182 38.439,36.674 25.237,27.623 7.865,15.713 2.539,-1.215 0,0"
             style="fill:#00ffa9;fill-opacity:1;fill-rule:nonzero;stroke:none"
             id="path484" /></g><g
           id="g486"
           transform="translate(538.7285,597.8477)"><path
             d="m 0,0 c -2.564,1.228 -0.473,20.092 12.223,33.549 8.643,9.162 26.041,19.888 41.78,13.699 4.973,-1.955 8.513,-5.101 10.778,-7.559 C 53.28,39.182 38.439,36.674 25.237,27.623 7.865,15.713 2.539,-1.215 0,0 Z"
             style="fill:none;stroke:#00ffa9;stroke-width:2;stroke-linecap:butt;stroke-linejoin:miter;stroke-miterlimit:10;stroke-dasharray:none;stroke-opacity:1"
             id="path488" /></g><g
           id="g490"
           transform="translate(447.0415,412.2139)"><path
             d="m 0,0 c -3.925,10.541 -7.086,23.859 -6.513,39.149 0.095,2.52 0.285,4.956 0.554,7.307"
             style="fill:none;stroke:#00ffa9;stroke-width:2;stroke-linecap:butt;stroke-linejoin:miter;stroke-miterlimit:10;stroke-dasharray:none;stroke-opacity:1"
             id="path492" /></g><g
           id="g494"
           transform="translate(448.5317,465.501)"><path
             d="m 0,0 c -1.863,-6.829 -5.498,-11.786 -8.117,-11.071 -2.62,0.715 -3.234,6.831 -1.37,13.66 C -7.624,9.418 -3.99,14.375 -1.37,13.66 1.25,12.945 1.863,6.829 0,0"
             style="fill:#754c24;fill-opacity:1;fill-rule:nonzero;stroke:none"
             id="path496" /></g><g
           id="g498"
           transform="translate(454.6211,415.7441)"><path
             d="m 0,0 c 4.562,10.281 11.611,22.017 22.708,32.55 1.828,1.735 3.668,3.345 5.503,4.838"
             style="fill:none;stroke:#00ffa9;stroke-width:2;stroke-linecap:butt;stroke-linejoin:miter;stroke-miterlimit:10;stroke-dasharray:none;stroke-opacity:1"
             id="path500" /></g><g
           id="g502"
           transform="translate(492.9346,452.8096)"><path
             d="m 0,0 c -6.106,-3.581 -12.17,-4.586 -13.543,-2.243 -1.374,2.343 2.461,7.144 8.568,10.725 6.106,3.582 12.17,4.586 13.544,2.245 C 9.942,8.384 6.106,3.581 0,0"
             style="fill:#754c24;fill-opacity:1;fill-rule:nonzero;stroke:none"
             id="path504" /></g><g
           id="g506"
           transform="translate(449.6719,413)"><path
             d="m 0,0 c -0.178,11.247 1.292,24.856 6.939,39.077 0.931,2.343 1.925,4.575 2.963,6.701"
             style="fill:none;stroke:#00ffa9;stroke-width:2;stroke-linecap:butt;stroke-linejoin:miter;stroke-miterlimit:10;stroke-dasharray:none;stroke-opacity:1"
             id="path508" /></g><g
           id="g510"
           transform="translate(468.8779,462.7285)"><path
             d="m 0,0 c -4.038,-5.814 -9.119,-9.272 -11.35,-7.724 -2.23,1.549 -0.765,7.519 3.272,13.333 4.038,5.815 9.12,9.273 11.35,7.724 C 5.502,11.784 4.038,5.814 0,0"
             style="fill:#754c24;fill-opacity:1;fill-rule:nonzero;stroke:none"
             id="path512" /></g><g
           id="g514"
           transform="translate(449.5098,411.251)"><path
             d="m 0,0 c 1.287,2.082 -6.594,13.78 -19.684,16.643 -8.912,1.949 -24.196,0.669 -32.559,-11.206 -2.642,-3.752 -3.921,-7.606 -4.585,-10.372 7.841,5.286 18.595,10.857 30.507,11.213 C -10.646,6.747 -1.274,-2.062 0,0"
             style="fill:#00ffa9;fill-opacity:1;fill-rule:nonzero;stroke:none"
             id="path516" /></g><g
           id="g518"
           transform="translate(449.5098,411.251)"><path
             d="m 0,0 c 1.287,2.082 -6.594,13.78 -19.684,16.643 -8.912,1.949 -24.196,0.669 -32.559,-11.206 -2.642,-3.752 -3.921,-7.606 -4.585,-10.372 7.841,5.286 18.595,10.857 30.507,11.213 C -10.646,6.747 -1.274,-2.062 0,0 Z"
             style="fill:none;stroke:#00ffa9;stroke-width:2;stroke-linecap:butt;stroke-linejoin:miter;stroke-miterlimit:10;stroke-dasharray:none;stroke-opacity:1"
             id="path520" /></g><g
           id="g522"
           transform="translate(449.4248,411.752)"><path
             d="M 0,0 C -1.126,1.501 5.853,11.9 17.386,15.902 25.239,18.627 38.69,19.595 46.012,11.173 48.325,8.512 49.437,5.591 50.013,3.462 43.128,6.673 33.679,9.733 23.193,8.465 9.395,6.795 1.115,-1.484 0,0"
             style="fill:#00ffa9;fill-opacity:1;fill-rule:nonzero;stroke:none"
             id="path524" /></g><g
           id="g526"
           transform="translate(449.4248,411.752)"><path
             d="M 0,0 C -1.126,1.501 5.853,11.9 17.386,15.902 25.239,18.627 38.69,19.595 46.012,11.173 48.325,8.512 49.437,5.591 50.013,3.462 43.128,6.673 33.679,9.733 23.193,8.465 9.395,6.795 1.115,-1.484 0,0 Z"
             style="fill:none;stroke:#00ffa9;stroke-width:2;stroke-linecap:butt;stroke-linejoin:miter;stroke-miterlimit:10;stroke-dasharray:none;stroke-opacity:1"
             id="path528" /></g></g></g><g
       id="g530"><g
         id="g532"
         clip-path="url(#clipPath536)"><g
           id="g538"
           transform="translate(1289.4282,448.0762)"><path
             d="m 0,0 c 0.655,1.929 0.655,4.019 0,5.947 -1.822,4.909 -7.664,5.776 -8.344,5.949 -2.352,0.319 -4.747,-0.078 -6.87,-1.139 -2.123,-1.062 -3.877,-2.737 -5.031,-4.81 -0.173,-0.331 -0.491,-2.208 -1.2,-5.947 v -1.199 c -0.326,0.467 -0.733,0.872 -1.2,1.199 -2.892,1.963 -7.23,0.26 -9.53,-1.199 -2.222,-1.378 -3.902,-3.479 -4.757,-5.947 -0.74,-2.321 -0.74,-4.813 0,-7.133 0.977,-3.373 3.078,-6.313 5.958,-8.33 H 22.63 c -1.36,1.005 -2.564,2.207 -3.571,3.565 -1.12,1.403 -1.928,3.027 -2.372,4.765 -0.636,2.758 0.448,3.392 0,5.948 -0.484,2.328 -1.743,4.425 -3.571,5.948 C 10.802,-0.521 8.228,-0.304 4.772,0 3.185,0.132 1.587,0.132 0,0"
             style="fill:#ffffff;fill-opacity:1;fill-rule:nonzero;stroke:none"
             id="path540" /></g><g
           id="g542"
           transform="translate(655.7754,240.667)"><path
             d="M 0,0 C 1.391,4.096 1.391,8.535 0,12.632 -3.869,23.057 -16.276,24.896 -17.72,25.265 -22.716,25.942 -27.802,25.099 -32.311,22.846 -36.82,20.592 -40.544,17.032 -42.995,12.632 -43.363,11.927 -44.038,7.94 -45.542,0 v -2.546 c -0.695,0.99 -1.558,1.852 -2.55,2.546 -6.142,4.169 -15.356,0.551 -20.239,-2.546 -4.719,-2.927 -8.287,-7.388 -10.103,-12.632 -1.571,-4.926 -1.571,-10.219 0,-15.146 2.076,-7.165 6.538,-13.408 12.653,-17.693 H 48.062 c -2.891,2.136 -5.446,4.687 -7.585,7.574 -2.378,2.978 -4.096,6.427 -5.038,10.119 -1.35,5.855 0.952,7.204 0,12.632 -1.029,4.944 -3.702,9.397 -7.585,12.631 C 22.94,-1.104 17.474,-0.645 10.135,0 6.763,0.28 3.372,0.28 0,0"
             style="fill:#ffffff;fill-opacity:1;fill-rule:nonzero;stroke:none"
             id="path544" /></g><g
           id="g546"
           transform="translate(994.52,337.6992)"><path
             d="m 0,0 c 0.655,1.929 0.655,4.02 0,5.948 -1.822,4.908 -7.664,5.776 -8.344,5.948 -2.352,0.32 -4.747,-0.078 -6.87,-1.138 -2.123,-1.062 -3.877,-2.737 -5.031,-4.81 -0.173,-0.332 -0.491,-2.209 -1.2,-5.948 v -1.198 c -0.326,0.466 -0.733,0.871 -1.2,1.198 -2.892,1.963 -7.23,0.26 -9.53,-1.198 -2.222,-1.378 -3.902,-3.479 -4.757,-5.948 -0.74,-2.321 -0.74,-4.813 0,-7.132 0.977,-3.374 3.078,-6.314 5.958,-8.331 h 53.605 c -1.361,1.005 -2.565,2.207 -3.572,3.566 -1.12,1.402 -1.928,3.026 -2.372,4.765 -0.636,2.757 0.448,3.391 0,5.947 -0.484,2.329 -1.743,4.426 -3.571,5.948 C 10.802,-0.52 8.228,-0.303 4.772,0 3.185,0.132 1.588,0.132 0,0"
             style="fill:#ffffff;fill-opacity:1;fill-rule:nonzero;stroke:none"
             id="path548" /></g><g
           id="g550"
           transform="translate(54.561,242.6172)"><path
             d="m 0,0 c 0.655,1.928 0.655,4.019 0,5.947 -1.822,4.909 -7.664,5.776 -8.344,5.949 -2.352,0.319 -4.747,-0.078 -6.87,-1.139 -2.123,-1.062 -3.877,-2.737 -5.031,-4.81 -0.173,-0.332 -0.491,-2.209 -1.2,-5.947 v -1.199 c -0.326,0.467 -0.733,0.872 -1.2,1.199 -2.892,1.963 -7.23,0.259 -9.53,-1.199 -2.222,-1.378 -3.902,-3.479 -4.757,-5.948 -0.74,-2.32 -0.74,-4.812 0,-7.132 0.977,-3.374 3.078,-6.314 5.958,-8.331 H 22.63 c -1.36,1.006 -2.564,2.207 -3.571,3.566 -1.12,1.402 -1.928,3.026 -2.372,4.765 -0.636,2.757 0.448,3.392 0,5.948 -0.484,2.328 -1.743,4.425 -3.571,5.948 C 10.802,-0.521 8.228,-0.304 4.772,0 3.185,0.132 1.587,0.132 0,0"
             style="fill:#ffffff;fill-opacity:1;fill-rule:nonzero;stroke:none"
             id="path552" /></g><g
           id="g554"
           transform="translate(923.915,584.0273)"><path
             d="m 0,0 c 1.066,3.14 1.066,6.542 0,9.682 -2.965,7.989 -12.475,9.399 -13.581,9.681 -3.829,0.52 -7.727,-0.127 -11.183,-1.853 -3.456,-1.728 -6.309,-4.456 -8.188,-7.828 C -33.233,9.141 -33.751,6.086 -34.904,0 v -1.951 c -0.533,0.76 -1.194,1.419 -1.954,1.951 -4.708,3.195 -11.769,0.423 -15.511,-1.951 -3.618,-2.243 -6.352,-5.661 -7.744,-9.681 -1.204,-3.776 -1.204,-7.833 0,-11.608 1.591,-5.492 5.011,-10.277 9.698,-13.561 h 87.25 c -2.215,1.637 -4.173,3.593 -5.814,5.805 -1.821,2.283 -3.138,4.927 -3.86,7.756 -1.035,4.487 0.73,5.52 0,9.68 -0.789,3.79 -2.838,7.203 -5.813,9.682 C 17.582,-0.846 13.392,-0.493 7.767,0 5.183,0.216 2.584,0.216 0,0"
             style="fill:#ffffff;fill-opacity:1;fill-rule:nonzero;stroke:none"
             id="path556" /></g><g
           id="g558"
           transform="translate(1177.6416,517.9883)"><path
             d="m 0,0 c 1.066,3.14 1.066,6.542 0,9.682 -2.965,7.989 -12.475,9.399 -13.581,9.681 -3.829,0.52 -7.727,-0.127 -11.183,-1.853 -3.456,-1.728 -6.31,-4.456 -8.188,-7.828 C -33.233,9.142 -33.751,6.086 -34.904,0 v -1.951 c -0.533,0.76 -1.194,1.419 -1.954,1.951 -4.708,3.195 -11.769,0.423 -15.511,-1.951 -3.618,-2.243 -6.352,-5.661 -7.744,-9.681 -1.204,-3.776 -1.204,-7.833 0,-11.608 1.591,-5.492 5.011,-10.277 9.698,-13.561 h 87.25 c -2.215,1.637 -4.173,3.593 -5.814,5.805 -1.821,2.283 -3.138,4.927 -3.86,7.756 -1.035,4.487 0.73,5.52 0,9.68 -0.789,3.79 -2.838,7.203 -5.813,9.682 C 17.582,-0.846 13.392,-0.493 7.767,0 5.183,0.216 2.584,0.216 0,0"
             style="fill:#ffffff;fill-opacity:1;fill-rule:nonzero;stroke:none"
             id="path560" /></g><g
           id="g562"
           transform="translate(1165.6382,720.8477)"><path
             d="m 0,0 c 1.066,3.139 1.066,6.541 0,9.681 -2.965,7.99 -12.475,9.4 -13.581,9.681 -3.829,0.52 -7.727,-0.126 -11.183,-1.853 -3.456,-1.728 -6.31,-4.455 -8.188,-7.828 C -33.234,9.141 -33.751,6.085 -34.905,0 v -1.951 c -0.532,0.759 -1.193,1.419 -1.953,1.951 -4.708,3.195 -11.769,0.422 -15.512,-1.951 -3.617,-2.243 -6.351,-5.662 -7.743,-9.682 -1.204,-3.776 -1.204,-7.832 0,-11.608 1.591,-5.491 5.011,-10.277 9.697,-13.56 h 87.251 c -2.215,1.637 -4.174,3.592 -5.814,5.804 -1.821,2.283 -3.138,4.927 -3.86,7.756 -1.035,4.487 0.729,5.52 0,9.68 -0.789,3.79 -2.838,7.204 -5.813,9.682 C 17.582,-0.847 13.392,-0.494 7.767,0 5.183,0.215 2.584,0.215 0,0"
             style="fill:#ffffff;fill-opacity:1;fill-rule:nonzero;stroke:none"
             id="path564" /></g><g
           id="g566"
           transform="translate(1041.2246,170.791)"><path
             d="m 0,0 c 1.066,3.139 1.066,6.542 0,9.681 -2.965,7.99 -12.475,9.4 -13.581,9.682 -3.829,0.52 -7.727,-0.127 -11.183,-1.854 -3.456,-1.728 -6.31,-4.455 -8.188,-7.828 C -33.234,9.141 -33.751,6.086 -34.905,0 v -1.951 c -0.532,0.759 -1.193,1.419 -1.954,1.951 -4.707,3.195 -11.768,0.423 -15.511,-1.951 -3.617,-2.243 -6.351,-5.662 -7.743,-9.682 -1.204,-3.775 -1.204,-7.832 0,-11.608 1.591,-5.491 5.011,-10.276 9.697,-13.56 h 87.251 c -2.215,1.637 -4.174,3.593 -5.814,5.805 -1.822,2.283 -3.138,4.927 -3.86,7.755 -1.035,4.488 0.729,5.521 0,9.681 -0.789,3.789 -2.838,7.203 -5.813,9.681 C 17.582,-0.847 13.392,-0.494 7.767,0 5.183,0.215 2.584,0.215 0,0"
             style="fill:#ffffff;fill-opacity:1;fill-rule:nonzero;stroke:none"
             id="path568" /></g><g
           id="g570"
           transform="translate(390.7988,366.0986)"><path
             d="m 0,0 c 1.066,3.139 1.066,6.541 0,9.681 -2.965,7.99 -12.475,9.4 -13.581,9.681 -3.829,0.52 -7.727,-0.126 -11.183,-1.853 -3.456,-1.728 -6.31,-4.455 -8.188,-7.828 C -33.233,9.141 -33.751,6.085 -34.904,0 v -1.951 c -0.533,0.759 -1.194,1.419 -1.954,1.951 -4.708,3.195 -11.769,0.422 -15.512,-1.951 -3.617,-2.243 -6.351,-5.662 -7.743,-9.682 -1.204,-3.776 -1.204,-7.832 0,-11.608 1.591,-5.491 5.011,-10.277 9.698,-13.56 h 87.25 c -2.215,1.637 -4.173,3.592 -5.814,5.804 -1.821,2.283 -3.138,4.927 -3.86,7.756 -1.035,4.487 0.73,5.521 0,9.681 -0.789,3.789 -2.838,7.203 -5.813,9.681 C 17.582,-0.847 13.392,-0.494 7.767,0 5.183,0.215 2.584,0.215 0,0"
             style="fill:#ffffff;fill-opacity:1;fill-rule:nonzero;stroke:none"
             id="path572" /></g><g
           id="g574"
           transform="translate(425.8716,201.2812)"><path
             d="m 0,0 c 1.066,3.14 1.066,6.542 0,9.682 -2.965,7.989 -12.475,9.399 -13.581,9.681 -3.829,0.52 -7.727,-0.127 -11.183,-1.853 -3.456,-1.728 -6.31,-4.456 -8.188,-7.828 C -33.234,9.142 -33.751,6.086 -34.905,0 v -1.951 c -0.532,0.76 -1.193,1.419 -1.953,1.951 -4.708,3.195 -11.769,0.423 -15.512,-1.951 -3.617,-2.243 -6.351,-5.661 -7.743,-9.681 -1.204,-3.776 -1.204,-7.833 0,-11.608 1.591,-5.492 5.011,-10.277 9.697,-13.561 h 87.251 c -2.215,1.637 -4.174,3.593 -5.814,5.805 -1.821,2.283 -3.138,4.927 -3.86,7.756 -1.035,4.487 0.729,5.52 0,9.68 -0.789,3.79 -2.838,7.203 -5.813,9.682 C 17.582,-0.846 13.392,-0.493 7.767,0 5.183,0.216 2.584,0.216 0,0"
             style="fill:#ffffff;fill-opacity:1;fill-rule:nonzero;stroke:none"
             id="path576" /></g><g
           id="g578"
           transform="translate(1070.5884,425.8877)"><path
             d="m 0,0 c 0.655,1.928 0.655,4.019 0,5.947 -1.822,4.909 -7.664,5.776 -8.344,5.949 -2.353,0.319 -4.747,-0.078 -6.87,-1.139 -2.124,-1.062 -3.877,-2.737 -5.031,-4.81 -0.173,-0.332 -0.491,-2.209 -1.2,-5.947 v -1.199 c -0.327,0.467 -0.733,0.872 -1.201,1.199 -2.892,1.963 -7.23,0.259 -9.529,-1.199 -2.222,-1.378 -3.902,-3.479 -4.757,-5.948 -0.74,-2.32 -0.74,-4.812 0,-7.132 0.977,-3.374 3.078,-6.314 5.958,-8.331 H 22.63 c -1.36,1.006 -2.564,2.207 -3.571,3.566 -1.12,1.402 -1.929,3.026 -2.372,4.765 -0.636,2.757 0.448,3.392 0,5.948 -0.485,2.328 -1.744,4.425 -3.572,5.948 C 10.802,-0.521 8.228,-0.304 4.772,0 3.184,0.132 1.587,0.132 0,0"
             style="fill:#ffffff;fill-opacity:1;fill-rule:nonzero;stroke:none"
             id="path580" /></g><g
           id="g582"
           transform="translate(853.0972,131.0283)"><path
             d="m 0,0 c 0.655,1.929 0.655,4.019 0,5.948 -1.822,4.908 -7.664,5.775 -8.344,5.948 -2.353,0.319 -4.747,-0.078 -6.87,-1.139 C -17.338,9.696 -19.091,8.02 -20.245,5.948 -20.418,5.616 -20.736,3.739 -21.445,0 v -1.199 c -0.327,0.467 -0.733,0.872 -1.201,1.199 -2.892,1.963 -7.23,0.26 -9.529,-1.199 -2.222,-1.378 -3.902,-3.479 -4.758,-5.947 -0.739,-2.321 -0.739,-4.813 0,-7.133 0.978,-3.373 3.079,-6.313 5.958,-8.33 H 22.63 c -1.36,1.005 -2.564,2.207 -3.571,3.565 -1.12,1.403 -1.929,3.027 -2.372,4.765 -0.636,2.758 0.448,3.392 0,5.948 -0.485,2.328 -1.744,4.425 -3.572,5.948 C 10.802,-0.521 8.228,-0.304 4.772,0 3.184,0.132 1.587,0.132 0,0"
             style="fill:#ffffff;fill-opacity:1;fill-rule:nonzero;stroke:none"
             id="path584" /></g><g
           id="g586"
           transform="translate(1198.3203,180.3799)"><path
             d="m 0,0 c 0.655,1.928 0.655,4.019 0,5.947 -1.822,4.909 -7.664,5.776 -8.343,5.949 -2.353,0.319 -4.748,-0.078 -6.871,-1.139 C -17.337,9.695 -19.091,8.02 -20.245,5.947 -20.418,5.615 -20.736,3.738 -21.444,0 v -1.199 c -0.327,0.467 -0.734,0.872 -1.201,1.199 -2.892,1.963 -7.23,0.259 -9.529,-1.199 -2.223,-1.378 -3.903,-3.479 -4.758,-5.948 -0.74,-2.32 -0.74,-4.812 0,-7.132 0.977,-3.374 3.079,-6.314 5.958,-8.331 h 53.605 c -1.361,1.006 -2.564,2.207 -3.572,3.566 -1.119,1.402 -1.928,3.026 -2.372,4.765 -0.635,2.757 0.448,3.392 0,5.948 -0.484,2.328 -1.743,4.425 -3.571,5.948 C 10.802,-0.521 8.228,-0.304 4.772,0 3.185,0.132 1.588,0.132 0,0"
             style="fill:#ffffff;fill-opacity:1;fill-rule:nonzero;stroke:none"
             id="path588" /></g><g
           id="g590"
           transform="translate(689.8027,376.9072)"><path
             d="m 0,0 c 0.655,1.929 0.655,4.019 0,5.947 -1.822,4.909 -7.664,5.776 -8.344,5.949 -2.353,0.319 -4.747,-0.078 -6.87,-1.139 -2.124,-1.062 -3.877,-2.737 -5.031,-4.81 -0.173,-0.332 -0.491,-2.209 -1.2,-5.947 v -1.199 c -0.327,0.467 -0.733,0.872 -1.201,1.199 -2.891,1.963 -7.23,0.259 -9.529,-1.199 -2.222,-1.378 -3.902,-3.479 -4.757,-5.948 -0.74,-2.32 -0.74,-4.812 0,-7.132 0.977,-3.374 3.078,-6.314 5.958,-8.331 H 22.63 c -1.36,1.006 -2.564,2.207 -3.571,3.566 -1.12,1.402 -1.929,3.027 -2.372,4.765 -0.636,2.758 0.448,3.392 0,5.948 -0.485,2.328 -1.744,4.425 -3.572,5.948 C 10.802,-0.521 8.228,-0.304 4.772,0 3.184,0.132 1.587,0.132 0,0"
             style="fill:#ffffff;fill-opacity:1;fill-rule:nonzero;stroke:none"
             id="path592" /></g><g
           id="g594"
           transform="translate(624.3267,608.8682)"><path
             d="m 0,0 c 0.655,1.929 0.655,4.02 0,5.948 -1.822,4.908 -7.664,5.776 -8.343,5.948 -2.353,0.32 -4.748,-0.078 -6.871,-1.139 C -17.337,9.696 -19.091,8.021 -20.245,5.948 -20.418,5.616 -20.736,3.739 -21.444,0 v -1.198 c -0.327,0.466 -0.734,0.871 -1.201,1.198 -2.892,1.963 -7.23,0.26 -9.53,-1.198 -2.222,-1.379 -3.902,-3.479 -4.757,-5.948 -0.74,-2.321 -0.74,-4.813 0,-7.132 0.977,-3.374 3.079,-6.314 5.958,-8.331 h 53.605 c -1.361,1.005 -2.565,2.207 -3.572,3.566 -1.119,1.402 -1.928,3.026 -2.372,4.765 -0.636,2.757 0.448,3.391 0,5.947 -0.484,2.328 -1.743,4.426 -3.571,5.948 C 10.802,-0.52 8.228,-0.303 4.772,0 3.185,0.132 1.588,0.132 0,0"
             style="fill:#ffffff;fill-opacity:1;fill-rule:nonzero;stroke:none"
             id="path596" /></g><g
           id="g598"
           transform="translate(285.0479,681.0088)"><path
             d="m 0,0 c 0.655,1.929 0.655,4.02 0,5.948 -1.822,4.909 -7.664,5.776 -8.344,5.948 -2.352,0.32 -4.747,-0.078 -6.87,-1.138 -2.123,-1.062 -3.877,-2.737 -5.031,-4.81 -0.173,-0.332 -0.491,-2.209 -1.2,-5.948 v -1.198 c -0.326,0.467 -0.733,0.872 -1.2,1.198 -2.892,1.964 -7.23,0.26 -9.53,-1.198 -2.222,-1.378 -3.902,-3.479 -4.757,-5.948 -0.74,-2.32 -0.74,-4.812 0,-7.132 0.977,-3.374 3.078,-6.314 5.958,-8.331 H 22.63 c -1.36,1.005 -2.564,2.207 -3.571,3.566 -1.12,1.402 -1.928,3.026 -2.372,4.765 -0.636,2.757 0.448,3.391 0,5.948 -0.484,2.328 -1.743,4.425 -3.571,5.947 C 10.802,-0.52 8.228,-0.303 4.772,0 3.185,0.133 1.587,0.133 0,0"
             style="fill:#ffffff;fill-opacity:1;fill-rule:nonzero;stroke:none"
             id="path600" /></g><g
           id="g602"
           transform="translate(462.0493,538.8301)"><path
             d="m 0,0 c 0.655,1.929 0.655,4.019 0,5.947 -1.822,4.909 -7.664,5.776 -8.344,5.949 -2.352,0.319 -4.747,-0.078 -6.87,-1.139 -2.123,-1.062 -3.877,-2.737 -5.031,-4.81 -0.173,-0.332 -0.491,-2.209 -1.2,-5.947 v -1.199 c -0.326,0.467 -0.733,0.872 -1.2,1.199 -2.892,1.963 -7.23,0.259 -9.53,-1.199 -2.222,-1.378 -3.902,-3.479 -4.757,-5.948 -0.74,-2.32 -0.74,-4.812 0,-7.132 0.977,-3.374 3.078,-6.314 5.958,-8.331 h 53.605 c -1.361,1.006 -2.565,2.207 -3.572,3.566 -1.12,1.402 -1.928,3.027 -2.372,4.765 -0.636,2.758 0.448,3.392 0,5.948 -0.484,2.328 -1.743,4.425 -3.571,5.948 C 10.802,-0.521 8.228,-0.304 4.772,0 3.185,0.132 1.588,0.132 0,0"
             style="fill:#ffffff;fill-opacity:1;fill-rule:nonzero;stroke:none"
             id="path604" /></g></g></g><path
       d="M 1068.157,233.912 H 682.05 v 255.644 h 386.107 z"
       style="fill:#ffffff;fill-opacity:1;fill-rule:nonzero;stroke:#000000;stroke-width:2;stroke-linecap:butt;stroke-linejoin:miter;stroke-miterlimit:10;stroke-dasharray:none;stroke-opacity:1"
       id="path606" /><g
       id="g620"
       transform="translate(1040.1772,461.9365)"><path
         d="M 0,0 15.163,15.163"
         style="fill:none;stroke:#000000;stroke-width:2;stroke-linecap:butt;stroke-linejoin:miter;stroke-miterlimit:10;stroke-dasharray:none;stroke-opacity:1"
         id="path622" /></g><g
       id="g624"
       transform="translate(1055.3398,461.9365)"><path
         d="M 0,0 -15.163,15.163"
         style="fill:none;stroke:#000000;stroke-width:2;stroke-linecap:butt;stroke-linejoin:miter;stroke-miterlimit:10;stroke-dasharray:none;stroke-opacity:1"
         id="path626" /></g><path
       d="M 0,0 H 1280 Z"
       style="fill:#606060;fill-opacity:1;fill-rule:nonzero;stroke:none"
       id="path628" /><g
       id="g630"
       transform="translate(0,720)"><path
         d="M 0,0 V -720 Z"
         style="fill:#606060;fill-opacity:1;fill-rule:nonzero;stroke:none"
         id="path632" /></g></g></svg>
