<?xml version="1.0" encoding="UTF-8" standalone="no"?>
<svg
   xmlns:dc="http://purl.org/dc/elements/1.1/"
   xmlns:cc="http://creativecommons.org/ns#"
   xmlns:rdf="http://www.w3.org/1999/02/22-rdf-syntax-ns#"
   xmlns:svg="http://www.w3.org/2000/svg"
   xmlns="http://www.w3.org/2000/svg"
   xmlns:sodipodi="http://sodipodi.sourceforge.net/DTD/sodipodi-0.dtd"
   xmlns:inkscape="http://www.inkscape.org/namespaces/inkscape"
   viewBox="0 0 1280 720"
   version="1.1"
   id="svg318"
   sodipodi:docname="segment_8.svg"
   inkscape:version="1.0.2 (e86c870879, 2021-01-15)">
  <metadata
     id="metadata322">
    <rdf:RDF>
      <cc:Work
         rdf:about="">
        <dc:format>image/svg+xml</dc:format>
        <dc:type
           rdf:resource="http://purl.org/dc/dcmitype/StillImage" />
      </cc:Work>
    </rdf:RDF>
  </metadata>
  <sodipodi:namedview
     pagecolor="#ffffff"
     bordercolor="#666666"
     borderopacity="1"
     objecttolerance="10"
     gridtolerance="10"
     guidetolerance="10"
     inkscape:pageopacity="0"
     inkscape:pageshadow="2"
     inkscape:window-width="1366"
     inkscape:window-height="738"
     id="namedview320"
     showgrid="false"
     inkscape:zoom="1.2302287"
     inkscape:cx="382.52277"
     inkscape:cy="200.58991"
     inkscape:window-x="0"
     inkscape:window-y="0"
     inkscape:window-maximized="1"
     inkscape:current-layer="svg318"
     inkscape:document-rotation="0" />
  <defs
     id="defs4">
    <style
       id="style2">.lbsNakiSmu{fill:#f7efe2;}.gIEbfogOxP,.tNcdHjJNpN,.VydtEQlIIN,.KsPrrJaFPK,.boDeCCdpev{fill:none;}.gIEbfogOxP{stroke:#ff81e7;}.bFXTsbZXNq,.vxeTrrLYVH,.gIEbfogOxP,.tNcdHjJNpN,.yQLBBpkNNY,.VydtEQlIIN,.KsPrrJaFPK,.boDeCCdpev{stroke-miterlimit:10;}.gIEbfogOxP,.tNcdHjJNpN,.KsPrrJaFPK{stroke-width:16px;}.gIEbfogOxP,.KsPrrJaFPK{stroke-dasharray:30.47 20.31;}.tNcdHjJNpN{stroke:#00ffa9;stroke-dasharray:29.94 19.96;}.KsPrrJaFPK{stroke:#ff0020;}.zscmNELqeO{fill:#fff3ae;}.nmNkVTSlza{fill:#d8e5a5;}.mdCWnEKJqh{fill:#ff81e7;}.ILpxEQHfDk{fill:#a8e0a1;}.boDeCCdpev{stroke-width:5px;}.mkSabwhUYs,.yQLBBpkNNY{fill:#fff;}.QrmUzzfYVV{fill:#0097dd;}.bFXTsbZXNq,.yQLBBpkNNY,.VydtEQlIIN{stroke:#000;}.YtmkIFLfvP{fill:#ff0020;}.vxeTrrLYVH{fill:#ff00bd;stroke:#ff00bd;stroke-width:0.5px;}.IzNlJSHZRp{fill:#00ffa9;}.UXvqFjYhtV{fill:#754c24;}.NRytZGpiti{fill:#ffd400;}.wzgzrFgJOX{fill:#6000ff;}.UqjnErwBMy{fill:#f9c6ca;}.lhzfAbhCXg{fill:#f6a9cb;}.MtpFsssJEp{fill:#fdff00;}.UnUIZAucdK{fill:#a3877f;}.EKyINXJjld{fill:#ff6b5c;}.DdENBeVyfg{fill:#92918e;}.ugnMBraYQr{fill:#b9fcf7;}.YfQDPClLKj{fill:#5fe;}.lyOwGJnReh{fill:#ff1e00;}.MNnTGPmulL{fill:#839e9e;}.DKFsIOPSqh{font-size:19.07px;font-family:IBMPlexMono, IBM Plex Mono;letter-spacing:0em;}.yQLBBpkNNY,.VydtEQlIIN{stroke-width:2px;}.mWtfkvKgBw{font-size:20px;font-family:IBMPlexMono-Text, IBM Plex Mono;letter-spacing:0em;}</style>
  </defs>
  <g
     id="фон">
    <rect
       class="lbsNakiSmu"
       x="-2572.87"
       y="-1463.29"
       width="3863.25"
       height="2193.02"
       id="rect6" />
  </g>
  <g
     id="линии">
    <path
       class="gIEbfogOxP"
       d="M-702.88,371.83c21-20.21,48.81-56.74,80.83-19.54,50,58.08,133.5,18.41,174.74,57.24,57.28,54,120.38,35.78,166.57,31.4,26.75-2.52,93.22,3.67,126.46,38.62,31.23,32.84,54.33,57,117,43.58,42.41-9.07,59.68,18.23,73.41,19.8a212,212,0,0,0,78-5.41"
       id="path9" />
    <path
       class="tNcdHjJNpN"
       d="M5.67,286.61c28.6-33.92,64.74-93.56,119.07-42.44C209.63,324,329.49,250.7,398,302.83c95.19,72.41,187.67,34.88,256.79,20.88,40-8.08,141.52-9.32,197.33,38.21,52.45,44.66,91.22,77.46,183.87,47.2,62.66-20.47,93.13,18,114.13,18.22a322.34,322.34,0,0,0,117-20.62"
       id="path11" />
    <path
       class="KsPrrJaFPK"
       d="M1169.51,83.65c-31.73,14.2-73.74,37.8-107.92-5.57C1005.83,7.28,868,83.69,820.25,34.15,754-34.66,635.73,27.67,572.92,18.89,536.58,13.81,471.74-8.92,434-52.39c-35.48-40.86,35.27-69.17-21-154.92-21.82-23.57-96.5-24-110.44-39.72A111.23,111.23,0,0,0,252-279.59c-41.34-12.68-107.89-29.56-134.9-30.54"
       id="path13" />
  </g>
  <g
     id="части_ланндш"
     data-name="части ланндш">
    <path
       class="zscmNELqeO"
       d="M 1020,-259.56 H 867 a 30,30 0 0 0 -26,15 l -76.47,132.48 a 30.07,30.07 0 0 0 0,30 L 841,50.42 a 30,30 0 0 0 26,15 h 153 a 30,30 0 0 0 26,-15 L 1122.47,-82 a 30,30 0 0 0 0,-30 L 1046,-244.54 a 30,30 0 0 0 -26,-15.02 z"
       id="path16" />
    <rect
       class="nmNkVTSlza"
       x="121.42"
       y="175.2"
       width="490.29999"
       height="291"
       rx="142.33"
       id="rect18" />
    <rect
       class="mdCWnEKJqh"
       x="173.31"
       y="210.97"
       width="386.53"
       height="219.46001"
       rx="85.980003"
       id="rect20" />
    <path
       class="nmNkVTSlza"
       d="m 1317.4,-162.53 v 386.18 a 57.1,57.1 0 0 1 -57.1,57.09 H 814.7 a 57.09,57.09 0 0 1 -57.1,-57.1 V 85.6 a 57.1,57.1 0 0 1 57.09,-57.1 h 205.63 a 17.17,17.17 0 0 0 17.18,-17.17 v -191 a 28.58,28.58 0 0 1 28.58,-28.58 h 205.55 a 45.77,45.77 0 0 1 45.77,45.72 z"
       id="path22" />
    <path
       class="ILpxEQHfDk"
       d="m 757.6,240.82 a 157.62,157.62 0 0 1 29,-18 c 15,-7.19 75.22,-33.11 122.07,-8.39 16.89,8.91 28.79,22.69 56.45,29 a 81.86,81.86 0 0 0 20.6,2.29 c 20.85,-0.5 35.2,-9.46 45,-14.5 4.32,-2.21 36.2,-17.73 67.13,-16 34.81,1.93 39.16,24.1 83.16,29 a 129.61,129.61 0 0 0 43.49,-2.28 125.28,125.28 0 0 0 55.5,-29.82 v 68.54 l -482.47,0.08 a 39,39 0 0 1 -7.75,-0.75 43.62,43.62 0 0 1 -18,-8.68 C 758.73,260.39 757.71,243.44 757.6,240.82 Z"
       id="path24" />
  </g>
  <g
     id="hover4"
     data-name="выделение правильный цвет"
     style="visibility: hidden">
    <ellipse
       stroke="url(#hover0grad)"
       class="boDeCCdpev"
       cx="376.73999"
       cy="347.51999"
       rx="67.099998"
       ry="14.05"
       id="ellipse27" />
  </g>
  <g
     id="Layer_1"
     data-name="Layer 1">
    <rect
       class="nmNkVTSlza"
       x="-358.27"
       y="88.04"
       width="436.93"
       height="290.74"
       rx="48.2"
       id="rect30" />
    <path
       class="ILpxEQHfDk"
       d="M-213.72-364.68c-2.18,11.94,14.38,15.34,19.32,40.85,3.82,19.7-3.7,29.95-11.89,63.54-8.67,35.57-13,53.36-8.91,71.1,7.55,32.8,38.1,51.6,62.4,66.57,38,23.36,56.12,19.6,98.08,37.82,46.5,20.19,62.5,41.39,89.15,59,88.63,58.57,255.22,51.88,296.7-24.76,26-48-1.63-115.22-26.51-150.21-26.8-37.69-70.82-58-157.78-97.19C117.19-311.31,81-314,37-342.14,11.44-358.51,11.55-363.81-5.9-375-84.33-425.1-208-396-213.72-364.68Z"
       id="path32" />
    <path
       class="ILpxEQHfDk"
       d="M84.08,518.67l-149,231.22a19.58,19.58,0,0,0,16.46,30.19h298A19.59,19.59,0,0,0,266,749.89L117,518.67A19.59,19.59,0,0,0,84.08,518.67Z"
       id="path34" />
    <path
       class="nmNkVTSlza"
       d="M-79.13,601.51l-84.18,145.8a19.58,19.58,0,0,0,17,29.37H22a19.58,19.58,0,0,0,17-29.37l-84.18-145.8A19.58,19.58,0,0,0-79.13,601.51Z"
       id="path36" />
    <path
       class="ILpxEQHfDk"
       d="M1029.91,390,833.83,711.52a19.58,19.58,0,0,0,16.72,29.77H1242.7a19.58,19.58,0,0,0,16.72-29.77L1063.34,390A19.57,19.57,0,0,0,1029.91,390Z"
       id="path38" />
    <path
       class="nmNkVTSlza"
       d="M1206.56,554.5l-85.08,155.71a19.58,19.58,0,0,0,17.18,29h170.16a19.58,19.58,0,0,0,17.19-29L1240.93,554.5A19.58,19.58,0,0,0,1206.56,554.5Z"
       id="path40" />
    <path
       class="ILpxEQHfDk"
       d="M371,398.56,175,720.12a19.57,19.57,0,0,0,16.71,29.77H583.83a19.57,19.57,0,0,0,16.72-29.77L404.48,398.56A19.59,19.59,0,0,0,371,398.56Z"
       id="path42" />
    <path
       class="nmNkVTSlza"
       d="M581,556.48,496.8,702.28a19.58,19.58,0,0,0,17,29.37H682.12a19.58,19.58,0,0,0,17-29.37L614.9,556.48A19.58,19.58,0,0,0,581,556.48Z"
       id="path44" />
    <path
       class="nmNkVTSlza"
       d="M222.94,572.62l-84.18,145.8a19.58,19.58,0,0,0,17,29.37H324.07a19.58,19.58,0,0,0,17-29.37l-84.18-145.8A19.57,19.57,0,0,0,222.94,572.62Z"
       id="path46" />
    <path
       class="mkSabwhUYs"
       d="M96.36,93.35c3.87-13.12,19.11-14.59,26.54-30C139.52,29,157.13,51.19,160.72,35.88c1.87-8,4.34-12,8.44-15.72,9-8.15,35,3.47,68.88,10,9.77,1.88,24.63,5.72,69.47.27,12.53-1.52,16.67-8.71,31.76-12.2,9.41-2.18,35.5-8.2,45,3.21,5.61,6.69.54,13.43,4.64,21.18,5.16,9.8,28.29-1.15,42.73-1,8.15.07,21.24,8.25,28.06,12.6C483.44,69.34,474,124,450.48,143.44c-9.11,7.54-22.07,9.69-72.15.63-67-12.12-72.78-21.23-105.21-25.68C188.81,106.85,138.94,156.15,109,128.66,100.07,120.56,92.75,105.55,96.36,93.35Z"
       id="path48" />
    <path
       class="QrmUzzfYVV"
       d="M378.06,57c11.39,0,20.63-8.59,20.63-19.19s-9.24-19.19-20.63-19.19-20.62,8.59-20.62,19.19S366.67,57,378.06,57Z"
       id="path50" />
    <path
       class="mkSabwhUYs"
       d="M367.73,39.92c.12,7.38,11,14.26,18.77,10.87a12.25,12.25,0,0,0,7.07-12.25,10.42,10.42,0,0,0-1.75-4.88,16.11,16.11,0,0,0-2.92-3.14A12.54,12.54,0,0,0,384,28.17C376.16,26.45,367.64,33.33,367.73,39.92Z"
       id="path52" />
    <path
       class="bFXTsbZXNq"
       d="M382,28.27c-2.69,2.35-3.54,7.41-1.83,12.53s5.35,8.55,8.88,8.87c3.8-3.43,6.77-9,4-13.94,0-.09-.27-.57-.29-.65a10.62,10.62,0,0,0-.72-1.27,8.94,8.94,0,0,0-2.63-2.91A14.44,14.44,0,0,0,385,28.58c-.49-.14-1.19-.21-1.63-.36A5.7,5.7,0,0,0,382,28.27Z"
       id="path54" />
    <path
       class="QrmUzzfYVV"
       d="M423.32,57c11.39,0,20.62-8.59,20.62-19.19s-9.23-19.19-20.62-19.19-20.63,8.59-20.63,19.19S411.93,57,423.32,57Z"
       id="path56" />
    <path
       class="mkSabwhUYs"
       d="M413.05,40.56c.1,7.37,11,14.24,18.76,10.86a12.23,12.23,0,0,0,7.06-12.25,10.39,10.39,0,0,0-1.75-4.88,16.3,16.3,0,0,0-2.9-3.14,12.92,12.92,0,0,0-5-2.36C421.48,27.09,413,34,413.05,40.56Z"
       id="path58" />
    <path
       class="bFXTsbZXNq"
       d="M427.27,28.91c-2.67,2.33-3.54,7.4-1.82,12.52s5.35,8.56,8.87,8.87c3.8-3.44,6.76-8.94,4-13.94a5.37,5.37,0,0,1-.29-.65,10.49,10.49,0,0,0-.72-1.26,9,9,0,0,0-2.63-2.91,14.54,14.54,0,0,0-4.45-2.32c-.48-.15-1.19-.21-1.62-.35A4.84,4.84,0,0,0,427.27,28.91Z"
       id="path60" />
    <path
       class="YtmkIFLfvP"
       d="M373.47,62.69a46.54,46.54,0,0,0,17.24,7.5c17.55,3.59,31.69-4.48,35.5-6.87a24.67,24.67,0,0,1-4.59,5.73c-9.34,8.58-24.9,8.88-36.09,3.44A35.05,35.05,0,0,1,373.47,62.69Z"
       id="path62" />
    <path
       class="vxeTrrLYVH"
       d="M312.83,49.91c8.87,7.8,17.57,16.25,28,22,1.8,1,3.27-1.84,1.47-2.82C332.16,63.48,323.67,55.12,315,47.52c-1.56-1.35-3.73,1-2.18,2.34Z"
       id="path64" />
    <path
       class="vxeTrrLYVH"
       d="M341.27,72.1,351.62,84a1.6,1.6,0,0,0,1.14.42,1.58,1.58,0,0,0,1.12-.5,1.65,1.65,0,0,0-.08-2.26q-5.19-5.94-10.34-11.9a1.59,1.59,0,0,0-2.26.08,1.64,1.64,0,0,0,.07,2.27Z"
       id="path66" />
    <path
       class="vxeTrrLYVH"
       d="M343.2,73.3a44.74,44.74,0,0,0,17,3.46c2.06,0,1.89-3.17-.15-3.18a40.65,40.65,0,0,1-15.34-3.11,1.64,1.64,0,0,0-1.21-.08,1.6,1.6,0,0,0-.94.77,1.6,1.6,0,0,0,.68,2.14Z"
       id="path68" />
    <path
       class="vxeTrrLYVH"
       d="M344.35,71.66a107.11,107.11,0,0,0,13.71-3.8,1.4,1.4,0,0,0,.57-.29,1.62,1.62,0,0,0,.42-.48,1.66,1.66,0,0,0,.19-.62,1.68,1.68,0,0,0-.07-.63,1.61,1.61,0,0,0-.31-.56,1.65,1.65,0,0,0-.51-.4,1.83,1.83,0,0,0-.62-.16,1.52,1.52,0,0,0-.63.1,106.81,106.81,0,0,1-13.72,3.8,1.59,1.59,0,0,0-1,2,1.69,1.69,0,0,0,.79.93A1.61,1.61,0,0,0,344.35,71.66Z"
       id="path70" />
    <path
       class="IzNlJSHZRp"
       d="M1084.13,177.41c-5.21,4.57-11,9.68-19.43,10.76-7.25.93-8.82-2.12-29.64-5.8a67.63,67.63,0,0,0-23.36-.26c-26.13,3.84-28.52,3.77-31.5,2.38-5.9-2.74-11.68-9.34-10-13.94s10.39-5.19,11.27-5.23c-4.65.18-18.34,0-28.56-9.79-5.54-5.29-12.1-15.37-8.93-20.76,3.62-6.12,17.76-2.61,18.89-6.81.93-3.44-8.64-6.12-9.19-12.62s8.16-13.14,15.51-15.48c12.18-3.82,23,3.56,24.66,4.72,0-.41.72-6.74,5.78-9.18s11.43.77,14.17,5.26a11.31,11.31,0,0,1,1.63,5.08,18,18,0,0,1,4.72-8.51,19.29,19.29,0,0,1,15.75-5c7.56,1.29,14.48,7.59,15.21,15.74a17.72,17.72,0,0,1-3.47,11.81,26.86,26.86,0,0,1,9.5-6.79c5.52-2.32,16.43-4.69,22.08,1,6.53,6.65,2.18,20.33-3.16,27.76a29.85,29.85,0,0,1-8.44,7.94,23,23,0,0,1,6.35-.57c8.92.39,19.81,5.94,20.45,13.39C1094.84,168,1089.94,172.3,1084.13,177.41Z"
       id="path72" />
    <path
       class="UXvqFjYhtV"
       d="M1029.28,167.9h-10.65v79.8h10.65Z"
       id="path74" />
    <path
       class="IzNlJSHZRp"
       d="M1023.29,175.89c12.12,0,22-8,22-18s-9.83-18-22-18-21.95,8-21.95,18S1011.17,175.89,1023.29,175.89Z"
       id="path76" />
    <path
       class="IzNlJSHZRp"
       d="M996.05,232c-2.44,2.15-5.18,4.56-9.13,5.06-3.41.44-4.15-1-13.93-2.72a31.7,31.7,0,0,0-11-.12c-12.28,1.8-13.4,1.77-14.81,1.12-2.77-1.29-5.49-4.4-4.7-6.56s4.89-2.44,5.3-2.46c-2.19.09-8.62,0-13.43-4.6-2.6-2.49-5.68-7.23-4.2-9.76,1.71-2.88,8.36-1.23,8.89-3.2.43-1.62-4.06-2.88-4.33-5.94s3.84-6.18,7.3-7.27c5.72-1.8,10.81,1.67,11.59,2.22,0-.2.34-3.17,2.72-4.32s5.37.36,6.66,2.47a5.52,5.52,0,0,1,.77,2.39,8.4,8.4,0,0,1,2.22-4,9,9,0,0,1,3.43-2,9.2,9.2,0,0,1,4-.34,8.62,8.62,0,0,1,7.15,7.4,8.29,8.29,0,0,1-1.63,5.55,12.56,12.56,0,0,1,4.47-3.19c2.59-1.09,7.72-2.21,10.37.48,3.07,3.12,1,9.56-1.48,13.05a13.85,13.85,0,0,1-4,3.73,11.57,11.57,0,0,1,3-.27c4.19.19,9.31,2.8,9.61,6.3C1001.09,227.6,998.79,229.62,996.05,232Z"
       id="path78" />
    <path
       class="UXvqFjYhtV"
       d="M970.27,227.56h-5v37.51h5Z"
       id="path80" />
    <path
       class="IzNlJSHZRp"
       d="M967.45,231.31c5.7,0,10.32-3.78,10.32-8.44s-4.62-8.45-10.32-8.45-10.32,3.78-10.32,8.45S961.75,231.31,967.45,231.31Z"
       id="path82" />
  </g>
  <g
     id="cheese"
     data-name="Layer 2">
    <path
       class="zscmNELqeO"
       d="m 256.09,397.44 a 4,4 0 0 1 -1.13,-1.21 2.72,2.72 0 0 1 -0.45,-1.45 2.49,2.49 0 0 1 1,-2.28 1.9,1.9 0 0 1 0.43,-0.21 3.83,3.83 0 0 1 2.16,-0.51 L 257.98,381.56 219,365.89 v 26.16 l 39.25,15.88 -0.12,-10 a 2.78,2.78 0 0 1 -2.04,-0.49 z"
       id="path85" />
    <path
       class="NRytZGpiti"
       d="m 253.16,370.25 c -1.64,0.34 -3.77,-0.52 -3.75,-2.4 a 2.75,2.75 0 0 1 1.76,-2.32 l -2.55,-6 c -6.72,-1.06 -17.58,-1.54 -27.06,4.57 a 29.36,29.36 0 0 0 -2.56,1.84 l 38.93,15.67 z"
       id="path87" />
    <path
       class="NRytZGpiti"
       d="m 234.18,386.37 c -0.84,-0.11 -1.3,0 -1.59,0.25 -0.81,0.77 -0.05,2.67 0,2.79 1.19,2.9 5,3.43 5.73,3.52 1.51,0.16 1.9,-0.25 2,-0.36 0.62,-0.73 0,-2.17 -0.2,-2.54 -1.4,-3.03 -5.31,-3.58 -5.94,-3.66 z"
       id="path89" />
    <path
       class="NRytZGpiti"
       d="m 227.54,376.72 c -0.66,-0.09 -1,0 -1.25,0.19 -0.63,0.6 0,2.1 0,2.19 0.94,2.28 3.9,2.69 4.5,2.76 1.19,0.13 1.49,-0.19 1.57,-0.28 0.49,-0.58 0,-1.7 -0.16,-2 -1.09,-2.41 -4.2,-2.8 -4.66,-2.86 z"
       id="path91" />
    <path
       class="NRytZGpiti"
       d="m 242.62,383.28 c -0.51,-0.06 -0.79,0 -1,0.15 -0.49,0.47 0,1.63 0,1.7 0.72,1.77 3,2.09 3.49,2.14 0.92,0.1 1.15,-0.15 1.22,-0.22 0.37,-0.44 0,-1.31 -0.13,-1.54 -0.82,-1.88 -3.2,-2.18 -3.58,-2.23 z"
       id="path93" />
    <path
       class="zscmNELqeO"
       d="m 506.84,377 a 3.84,3.84 0 0 1 -1.13,-1.21 2.72,2.72 0 0 1 -0.45,-1.45 2.47,2.47 0 0 1 0.95,-2.27 2.49,2.49 0 0 1 0.43,-0.22 3.83,3.83 0 0 1 2.16,-0.51 l -0.12,-10.22 -38.93,-15.67 v 26.15 l 39.25,15.89 -0.12,-10 A 2.78,2.78 0 0 1 506.84,377 Z"
       id="path95" />
    <path
       class="NRytZGpiti"
       d="m 503.91,349.8 c -1.64,0.34 -3.77,-0.52 -3.75,-2.4 a 2.75,2.75 0 0 1 1.76,-2.32 L 499.37,339 c -6.72,-1.06 -17.58,-1.53 -27.06,4.57 a 29.36,29.36 0 0 0 -2.56,1.84 l 38.93,15.67 z"
       id="path97" />
    <path
       class="NRytZGpiti"
       d="m 484.93,365.92 c -0.84,-0.11 -1.3,0 -1.59,0.25 -0.82,0.77 0,2.68 0,2.8 1.19,2.89 5,3.42 5.73,3.51 1.51,0.16 1.9,-0.24 2,-0.36 0.62,-0.73 0,-2.16 -0.2,-2.54 -1.4,-3.08 -5.31,-3.58 -5.94,-3.66 z"
       id="path99" />
    <path
       class="NRytZGpiti"
       d="m 478.29,356.27 c -0.66,-0.09 -1,0 -1.25,0.2 -0.63,0.6 0,2.09 0,2.19 0.94,2.27 3.9,2.68 4.5,2.75 1.19,0.13 1.49,-0.19 1.57,-0.28 0.49,-0.57 0,-1.7 -0.16,-2 -1.1,-2.41 -4.16,-2.8 -4.66,-2.86 z"
       id="path101" />
    <path
       class="NRytZGpiti"
       d="m 493.37,362.83 c -0.51,-0.06 -0.79,0 -1,0.16 -0.49,0.46 0,1.62 0,1.7 0.72,1.76 3,2.08 3.49,2.13 0.92,0.1 1.15,-0.14 1.22,-0.22 0.37,-0.44 0,-1.31 -0.13,-1.54 -0.82,-1.87 -3.2,-2.18 -3.58,-2.23 z"
       id="path103" />
    <path
       class="zscmNELqeO"
       d="m 272.13,272.45 a 4.14,4.14 0 0 1 -0.94,-1.37 2.77,2.77 0 0 1 -0.23,-1.5 2.47,2.47 0 0 1 1.28,-2.1 2.06,2.06 0 0 1 0.46,-0.15 3.88,3.88 0 0 1 2.22,-0.19 l 1.4,-10.12 -36.15,-21.31 -3.91,25.87 36.43,21.57 1.38,-9.9 a 2.76,2.76 0 0 1 -1.94,-0.8 z"
       id="path105" />
    <path
       class="NRytZGpiti"
       d="m 273.3,245.13 c -1.68,0.09 -3.66,-1.08 -3.36,-2.94 a 2.76,2.76 0 0 1 2.09,-2 q -0.79,-3.18 -1.61,-6.36 c -6.49,-2.05 -17.16,-4.15 -27.44,0.47 a 30.81,30.81 0 0 0 -2.81,1.44 L 276.32,257 Z"
       id="path107" />
    <path
       class="NRytZGpiti"
       d="m 252.12,258.23 c -0.82,-0.23 -1.28,-0.22 -1.61,0 -0.92,0.64 -0.45,2.63 -0.42,2.76 0.74,3 4.4,4.13 5.14,4.33 1.47,0.39 1.92,0.05 2,-0.05 0.72,-0.63 0.29,-2.15 0.18,-2.54 -0.89,-3.25 -4.68,-4.33 -5.29,-4.5 z"
       id="path109" />
    <path
       class="NRytZGpiti"
       d="m 247,247.69 c -0.64,-0.18 -1,-0.17 -1.27,0 -0.72,0.5 -0.35,2.07 -0.32,2.17 0.58,2.38 3.45,3.24 4,3.39 1.15,0.31 1.51,0 1.6,0 0.56,-0.49 0.22,-1.68 0.14,-2 -0.7,-2.58 -3.67,-3.42 -4.15,-3.56 z"
       id="path111" />
    <path
       class="NRytZGpiti"
       d="m 260.92,256.44 c -0.49,-0.14 -0.77,-0.14 -1,0 -0.55,0.39 -0.27,1.61 -0.25,1.68 0.45,1.85 2.68,2.52 3.13,2.64 0.89,0.23 1.17,0 1.24,0 0.43,-0.38 0.17,-1.3 0.1,-1.54 -0.54,-2.02 -2.84,-2.68 -3.22,-2.78 z"
       id="path113" />
    <path
       class="zscmNELqeO"
       d="m 449.87,282.23 a 3.78,3.78 0 0 1 0.23,-1.64 2.61,2.61 0 0 1 0.84,-1.26 2.48,2.48 0 0 1 2.37,-0.7 2.11,2.11 0 0 1 0.43,0.2 3.9,3.9 0 0 1 1.76,1.36 l 7.87,-6.52 -12.31,-40.12 -20.34,16.45 12.35,40.5 7.69,-6.38 a 2.8,2.8 0 0 1 -0.89,-1.89 z"
       id="path115" />
    <path
       class="NRytZGpiti"
       d="m 469.16,262.85 c -1.29,-1.06 -2,-3.26 -0.49,-4.43 a 2.74,2.74 0 0 1 2.91,-0.09 q 1.55,-2.9 3.1,-5.79 c -3.41,-5.89 -9.87,-14.63 -20.58,-18.16 a 29.28,29.28 0 0 0 -3,-0.83 q 6.17,20.05 12.31,40.12 z"
       id="path117" />
    <path
       class="NRytZGpiti"
       d="m 444.69,258.23 c -0.45,-0.72 -0.79,-1 -1.2,-1.08 -1.1,-0.15 -2.11,1.64 -2.17,1.76 -1.5,2.75 0.46,6 0.88,6.66 0.82,1.28 1.38,1.33 1.54,1.34 0.95,0 1.66,-1.39 1.84,-1.76 1.52,-3.02 -0.58,-6.38 -0.89,-6.92 z"
       id="path119" />
    <path
       class="NRytZGpiti"
       d="m 448,247 c -0.35,-0.57 -0.62,-0.81 -0.94,-0.85 -0.87,-0.12 -1.66,1.29 -1.71,1.38 -1.17,2.16 0.37,4.72 0.69,5.23 0.65,1 1.09,1 1.21,1 0.75,0 1.3,-1.08 1.45,-1.37 1.21,-2.34 -0.42,-4.97 -0.7,-5.39 z"
       id="path121" />
    <path
       class="NRytZGpiti"
       d="m 452.4,262.85 c -0.27,-0.44 -0.48,-0.62 -0.73,-0.66 -0.67,-0.09 -1.28,1 -1.32,1.07 -0.92,1.67 0.28,3.66 0.53,4.05 0.5,0.78 0.84,0.81 0.94,0.81 0.58,0 1,-0.84 1.12,-1.06 0.92,-1.84 -0.34,-3.88 -0.54,-4.21 z"
       id="path123" />
    <path
       class="zscmNELqeO"
       d="m 417.31,386.26 a 2.62,2.62 0 0 1 -0.66,-1 2,2 0 0 1 -0.17,-1.06 1.74,1.74 0 0 1 0.91,-1.48 1.19,1.19 0 0 1 0.32,-0.1 2.64,2.64 0 0 1 1.55,-0.13 l 1,-7.12 -25.42,-15 -2.75,18.2 25.62,15.16 1,-7 a 1.92,1.92 0 0 1 -1.4,-0.47 z"
       id="path125" />
    <path
       class="NRytZGpiti"
       d="m 418.13,367 c -1.18,0.07 -2.58,-0.75 -2.36,-2.06 a 1.92,1.92 0 0 1 1.47,-1.43 l -1.14,-4.47 c -4.56,-1.45 -12.07,-2.92 -19.3,0.33 a 21.39,21.39 0 0 0 -2,1 l 25.42,15 z"
       id="path127" />
    <path
       class="NRytZGpiti"
       d="m 403.23,376.26 c -0.57,-0.16 -0.9,-0.16 -1.13,0 -0.65,0.44 -0.32,1.85 -0.3,1.94 0.53,2.14 3.1,2.9 3.62,3 1,0.28 1.35,0 1.43,0 0.51,-0.44 0.21,-1.5 0.13,-1.78 -0.65,-2.28 -3.32,-3.04 -3.75,-3.16 z"
       id="path129" />
    <path
       class="NRytZGpiti"
       d="m 399.63,368.85 c -0.45,-0.13 -0.71,-0.13 -0.89,0 -0.51,0.35 -0.25,1.46 -0.23,1.53 0.41,1.68 2.43,2.28 2.84,2.38 0.81,0.22 1.06,0 1.12,0 0.4,-0.34 0.16,-1.18 0.1,-1.4 -0.51,-1.82 -2.57,-2.42 -2.94,-2.51 z"
       id="path131" />
    <path
       class="NRytZGpiti"
       d="m 409.42,375 c -0.35,-0.1 -0.54,-0.1 -0.69,0 -0.39,0.27 -0.19,1.13 -0.18,1.18 0.32,1.31 1.89,1.77 2.2,1.86 0.63,0.16 0.83,0 0.88,0 0.3,-0.27 0.12,-0.91 0.07,-1.08 A 3.19,3.19 0 0 0 409.42,375 Z"
       id="path133" />
    <path
       class="zscmNELqeO"
       d="m 290.46,343.87 a 2.65,2.65 0 0 1 -0.15,-1.15 1.87,1.87 0 0 1 0.33,-1 1.73,1.73 0 0 1 1.48,-0.91 1.14,1.14 0 0 1 0.33,0.05 2.77,2.77 0 0 1 1.45,0.6 l 4.13,-5.89 -15.79,-24.93 -10.75,14.94 15.89,25.18 4,-5.75 a 2,2 0 0 1 -0.92,-1.14 z"
       id="path135" />
    <path
       class="NRytZGpiti"
       d="m 300,327.15 c -1.08,-0.48 -1.94,-1.85 -1.16,-2.92 a 2,2 0 0 1 2,-0.6 c 0.34,-1.5 0.69,-3 1,-4.5 -3.4,-3.36 -9.41,-8.1 -17.33,-8.5 a 20.36,20.36 0 0 0 -2.21,0 q 7.89,12.47 15.79,24.93 z"
       id="path137" />
    <path
       class="NRytZGpiti"
       d="m 282.49,328.56 c -0.44,-0.41 -0.73,-0.55 -1,-0.52 -0.78,0.11 -1.13,1.51 -1.15,1.6 -0.51,2.14 1.43,4 1.83,4.36 0.8,0.71 1.19,0.64 1.29,0.62 0.65,-0.17 0.87,-1.25 0.93,-1.53 0.45,-2.34 -1.57,-4.23 -1.9,-4.53 z"
       id="path139" />
    <path
       class="NRytZGpiti"
       d="m 282.66,320.32 c -0.34,-0.32 -0.57,-0.43 -0.79,-0.4 -0.61,0.08 -0.88,1.18 -0.9,1.25 -0.4,1.68 1.12,3.13 1.44,3.42 0.62,0.56 0.93,0.5 1,0.48 0.51,-0.13 0.68,-1 0.73,-1.2 0.37,-1.87 -1.22,-3.31 -1.48,-3.55 z"
       id="path141" />
    <path
       class="NRytZGpiti"
       d="m 288.58,330.26 c -0.27,-0.25 -0.45,-0.34 -0.62,-0.31 -0.47,0.06 -0.68,0.91 -0.7,1 a 3,3 0 0 0 1.12,2.65 c 0.48,0.43 0.72,0.39 0.78,0.37 0.4,-0.1 0.53,-0.75 0.56,-0.93 a 3.22,3.22 0 0 0 -1.14,-2.78 z"
       id="path143" />
    <path
       class="zscmNELqeO"
       d="m 525.07,289.78 a 1.3,1.3 0 0 1 -0.08,-0.58 1,1 0 0 1 0.17,-0.51 0.88,0.88 0 0 1 0.74,-0.46 0.51,0.51 0 0 1 0.17,0 1.38,1.38 0 0 1 0.73,0.3 l 2.07,-3 -7.93,-12.52 -5.4,7.5 8,12.65 2,-2.89 a 1,1 0 0 1 -0.47,-0.49 z"
       id="path145" />
    <path
       class="NRytZGpiti"
       d="m 529.83,281.38 c -0.54,-0.24 -1,-0.93 -0.58,-1.47 a 1,1 0 0 1 1,-0.3 l 0.51,-2.26 a 13.74,13.74 0 0 0 -8.7,-4.27 10.27,10.27 0 0 0 -1.11,0 l 7.93,12.52 z"
       id="path147" />
    <path
       class="NRytZGpiti"
       d="m 521.06,282.08 c -0.21,-0.2 -0.36,-0.27 -0.5,-0.25 -0.39,0.05 -0.57,0.75 -0.58,0.8 a 2.5,2.5 0 0 0 0.92,2.19 c 0.4,0.36 0.6,0.32 0.65,0.31 0.33,-0.08 0.43,-0.63 0.46,-0.77 a 2.66,2.66 0 0 0 -0.95,-2.28 z"
       id="path149" />
    <path
       class="NRytZGpiti"
       d="m 521.15,278 c -0.17,-0.16 -0.28,-0.22 -0.4,-0.2 -0.3,0 -0.44,0.59 -0.45,0.62 a 2,2 0 0 0 0.72,1.72 c 0.32,0.28 0.47,0.25 0.51,0.24 0.26,-0.06 0.34,-0.49 0.37,-0.6 A 2.09,2.09 0 0 0 521.15,278 Z"
       id="path151" />
    <path
       class="NRytZGpiti"
       d="m 524.12,282.94 c -0.13,-0.13 -0.22,-0.17 -0.31,-0.16 -0.09,0.01 -0.34,0.46 -0.35,0.49 a 1.54,1.54 0 0 0 0.56,1.33 c 0.24,0.22 0.36,0.2 0.4,0.19 0.19,-0.05 0.26,-0.38 0.28,-0.47 a 1.62,1.62 0 0 0 -0.58,-1.38 z"
       id="path153" />
    <path
       class="zscmNELqeO"
       d="m 210,317.25 a 1.6,1.6 0 0 1 -0.08,-0.58 1,1 0 0 1 0.17,-0.5 0.89,0.89 0 0 1 0.75,-0.46 0.45,0.45 0 0 1 0.16,0 1.33,1.33 0 0 1 0.73,0.29 l 2.07,-2.95 -7.93,-12.52 -5.39,7.5 8,12.65 2,-2.89 A 1,1 0 0 1 210,317.25 Z"
       id="path155" />
    <path
       class="NRytZGpiti"
       d="m 214.76,308.85 c -0.54,-0.24 -1,-0.92 -0.58,-1.46 a 1,1 0 0 1 1,-0.3 l 0.52,-2.26 a 13.72,13.72 0 0 0 -8.71,-4.27 10.27,10.27 0 0 0 -1.11,0 l 7.93,12.52 z"
       id="path157" />
    <path
       class="NRytZGpiti"
       d="m 206,309.56 c -0.22,-0.2 -0.37,-0.27 -0.51,-0.26 -0.39,0.06 -0.56,0.76 -0.58,0.81 a 2.51,2.51 0 0 0 0.92,2.18 c 0.4,0.36 0.6,0.33 0.65,0.32 0.33,-0.09 0.44,-0.63 0.47,-0.77 A 2.69,2.69 0 0 0 206,309.56 Z"
       id="path159" />
    <path
       class="NRytZGpiti"
       d="m 206.08,305.42 c -0.17,-0.16 -0.29,-0.21 -0.4,-0.2 -0.31,0 -0.45,0.6 -0.45,0.63 a 2,2 0 0 0 0.72,1.72 c 0.31,0.28 0.47,0.25 0.51,0.24 0.25,-0.06 0.34,-0.49 0.36,-0.6 a 2.13,2.13 0 0 0 -0.74,-1.79 z"
       id="path161" />
    <path
       class="NRytZGpiti"
       d="m 209.05,310.42 c -0.14,-0.13 -0.23,-0.17 -0.31,-0.16 -0.24,0 -0.35,0.46 -0.35,0.49 a 1.49,1.49 0 0 0 0.56,1.33 c 0.24,0.22 0.36,0.2 0.39,0.19 0.2,0 0.27,-0.38 0.28,-0.47 a 1.6,1.6 0 0 0 -0.57,-1.38 z"
       id="path163" />
    <path
       class="zscmNELqeO"
       d="m 365.5,239.47 a 1.41,1.41 0 0 1 -0.58,-0.09 0.89,0.89 0 0 1 -0.44,-0.3 0.85,0.85 0 0 1 -0.23,-0.84 0.51,0.51 0 0 1 0.07,-0.15 1.39,1.39 0 0 1 0.48,-0.62 l -2.27,-2.8 -14.22,4.17 5.73,7.25 14.35,-4.18 -2.22,-2.74 a 0.93,0.93 0 0 1 -0.67,0.3 z"
       id="path165" />
    <path
       class="NRytZGpiti"
       d="m 358.74,232.58 a 1,1 0 0 1 -1.57,0.15 1,1 0 0 1 0,-1 l -2,-1.12 a 13.73,13.73 0 0 0 -6.5,7.19 c -0.12,0.36 -0.23,0.72 -0.31,1.07 l 14.22,-4.17 z"
       id="path167" />
    <path
       class="NRytZGpiti"
       d="m 357,241.2 c -0.25,0.15 -0.36,0.27 -0.38,0.42 -0.06,0.39 0.57,0.75 0.61,0.77 a 2.5,2.5 0 0 0 2.35,-0.28 c 0.46,-0.29 0.48,-0.48 0.48,-0.54 0,-0.34 -0.48,-0.59 -0.61,-0.66 A 2.66,2.66 0 0 0 357,241.2 Z"
       id="path169" />
    <path
       class="NRytZGpiti"
       d="m 353.05,240 c -0.2,0.13 -0.29,0.22 -0.3,0.33 -0.05,0.31 0.44,0.59 0.48,0.61 a 2,2 0 0 0 1.85,-0.22 c 0.35,-0.22 0.37,-0.38 0.37,-0.42 0,-0.27 -0.38,-0.47 -0.48,-0.52 a 2.1,2.1 0 0 0 -1.92,0.22 z"
       id="path171" />
    <path
       class="NRytZGpiti"
       d="m 358.67,238.5 c -0.16,0.09 -0.23,0.16 -0.24,0.25 0,0.24 0.35,0.46 0.37,0.47 a 1.52,1.52 0 0 0 1.44,-0.17 c 0.27,-0.17 0.29,-0.29 0.29,-0.33 0,-0.2 -0.3,-0.36 -0.37,-0.4 a 1.6,1.6 0 0 0 -1.49,0.18 z"
       id="path173" />
    <path
       class="zscmNELqeO"
       d="m 339.41,409.07 a 1.41,1.41 0 0 1 -0.58,-0.09 0.92,0.92 0 0 1 -0.44,-0.3 0.86,0.86 0 0 1 -0.24,-0.84 0.77,0.77 0 0 1 0.07,-0.16 1.38,1.38 0 0 1 0.49,-0.61 l -2.27,-2.81 -14.22,4.18 5.72,7.25 14.36,-4.18 -2.22,-2.75 a 1,1 0 0 1 -0.67,0.31 z"
       id="path175" />
    <path
       class="NRytZGpiti"
       d="m 332.64,402.17 c -0.38,0.45 -1.16,0.68 -1.56,0.16 a 1,1 0 0 1 0,-1 l -2,-1.12 a 13.69,13.69 0 0 0 -6.5,7.19 8.62,8.62 0 0 0 -0.31,1.07 l 14.22,-4.18 z"
       id="path177" />
    <path
       class="NRytZGpiti"
       d="m 330.91,410.79 c -0.26,0.16 -0.37,0.28 -0.39,0.42 -0.06,0.39 0.57,0.75 0.61,0.78 a 2.52,2.52 0 0 0 2.36,-0.28 c 0.46,-0.29 0.48,-0.49 0.48,-0.54 0,-0.34 -0.48,-0.59 -0.61,-0.66 a 2.68,2.68 0 0 0 -2.45,0.28 z"
       id="path179" />
    <path
       class="NRytZGpiti"
       d="m 327,409.57 c -0.21,0.12 -0.29,0.22 -0.31,0.33 0,0.3 0.45,0.59 0.48,0.61 a 2,2 0 0 0 1.85,-0.22 c 0.36,-0.23 0.37,-0.38 0.38,-0.43 0,-0.26 -0.38,-0.46 -0.48,-0.51 a 2.09,2.09 0 0 0 -1.92,0.22 z"
       id="path181" />
    <path
       class="NRytZGpiti"
       d="m 332.57,408.09 c -0.15,0.1 -0.22,0.17 -0.23,0.26 -0.01,0.09 0.34,0.45 0.37,0.47 a 1.53,1.53 0 0 0 1.43,-0.17 c 0.28,-0.18 0.29,-0.3 0.29,-0.33 0,-0.21 -0.29,-0.36 -0.37,-0.4 a 1.62,1.62 0 0 0 -1.49,0.17 z"
       id="path183" />
  </g>
  <g
     id="Layer_3"
     data-name="Layer 3">
    <path
       class="IzNlJSHZRp"
       d="m 141.12,598.41 c 1.78,-6.62 6,-10.54 10.69,-14.85 a 58.11,58.11 0 0 1 15.45,-10.1 60.18,60.18 0 0 1 13.06,-4.15 20.78,20.78 0 0 1 -3.26,-5.65 c -3.19,-8.36 0.18,-16.39 1.78,-20.19 4.95,-11.77 14.88,-17.61 18.71,-19.6 a 72.07,72.07 0 0 1 3.56,7.42 c 6.4,15.54 6.14,30.4 4.75,40.69 2.78,-0.85 5.65,-1.65 8.62,-2.38 a 160.64,160.64 0 0 1 44.07,-4.46 l 0.27,0.33 c 1.85,2.16 3.09,5.55 3.7,8.94 0.93,5.86 0.93,11.72 2.47,17.58 2.65,12.61 4.36,24.89 6,37.21 -4.5,-0.35 -7.83,-0.83 -9.53,-1.09 a 135.87,135.87 0 0 1 -25.62,-6.83 153.37,153.37 0 0 1 -44.25,-26.14 59.5,59.5 0 0 1 -5.05,3.57 68.76,68.76 0 0 1 -16,7.12 c -12.89,3.77 -25.3,2.44 -30,1.79 a 24.19,24.19 0 0 1 0.58,-9.21 z"
       id="path186" />
    <path
       class="YtmkIFLfvP"
       d="m 264.06,602.94 c 1.17,8.61 2.24,17.18 3,25.73 11.49,1.3 20.41,0.49 22.32,-0.07 a 13.31,13.31 0 0 1 3.06,-0.55 12.7,12.7 0 0 1 1.53,0 c 0,1.62 0.1,4 0.22,6.78 0.19,4.45 0.54,12.68 1.53,21.22 0.99,8.54 1.39,6.63 2.3,14.65 1.87,16.45 0.37,25.8 -0.55,28.54 a 17.73,17.73 0 0 0 -0.76,3.28 c -0.42,2.48 -0.62,3.77 0.11,4.82 0.73,1.05 1.41,0.83 2,2 a 3.78,3.78 0 0 1 0.33,2.08 c -0.23,2.06 -1.93,2.29 -3.17,5 a 4.11,4.11 0 0 0 -0.44,3.28 3.07,3.07 0 0 0 1.32,1.42 c 5.94,2.36 15.17,4.75 24.16,1.21 0.68,-0.27 1.34,-0.56 2,-0.88 a 13.22,13.22 0 0 0 -6.78,-11.92 c -3.46,-1.6 -3.61,-1.64 -3.61,-1.64 a 3.27,3.27 0 0 1 -1.43,-0.68 4,4 0 0 1 -1.09,-1.91 5.41,5.41 0 0 1 -0.23,-1.5 c -0.08,-3.42 -0.56,-25 0.14,-35.77 a 35.94,35.94 0 0 1 0.67,-5.91 c 1.24,-5.55 3.75,-8.63 3.63,-12.59 -0.11,-3.46 -0.12,-3.5 -0.12,-3.5 a 18.82,18.82 0 0 1 -0.06,-3.1 c 0.05,-0.63 0.11,-1.09 0.46,-1.37 a 1.81,1.81 0 0 1 1.55,-0.12 2.18,2.18 0 0 1 0.91,0.59 c 2.61,4.3 6.86,11.25 12.24,19.92 6.34,10.21 7,11.11 8.3,14.11 4,9.3 3.29,13.73 6.64,24.28 a 13.91,13.91 0 0 1 1,6 c -0.31,3.34 -2,5 -1,6.64 0.4,0.67 0.75,0.49 3.53,2.28 1.66,1.07 2.49,1.62 2.7,2.08 0.7,1.59 -1,2.87 -1.66,6.22 -0.36,1.84 -0.66,3.39 0,4.57 2.05,3.68 12.29,1.87 18.58,0.76 2.93,-0.52 5.3,-1.1 6.87,-1.52 A 25.35,25.35 0 0 0 367,716 a 25.05,25.05 0 0 0 -8.34,-4.93 1.47,1.47 0 0 1 -0.15,-0.53 1.41,1.41 0 0 1 0.15,-0.77 4.52,4.52 0 0 0 -0.27,-2.84 5.15,5.15 0 0 0 -1.95,-2.39 5.1,5.1 0 0 0 -1.69,-0.71 c -0.28,-0.76 -0.67,-1.87 -1.1,-3.23 a 79.94,79.94 0 0 1 -2.74,-13.11 c -1.47,-9.71 -1.08,-7 -1.83,-12 -0.75,-5 -1.23,-8.42 -2.09,-13.35 -0.33,-1.88 -0.61,-3.41 -0.8,-4.42 a 40.17,40.17 0 0 1 -4.47,-4.46 28.85,28.85 0 0 1 -5.58,-8.77 c -0.4,-1.08 -0.74,-3.43 -1.43,-8.14 -0.63,-4.3 -1,-7 -1.28,-10.84 -0.17,-2.58 -0.21,-4.8 -0.24,-6.33 -0.05,-2.44 -0.08,-3.65 0,-4.6 a 24.9,24.9 0 0 1 2.45,-8.15 c 3.13,-7.4 6.61,-9.15 9.89,-14.55 5.75,-9.49 4.59,-19.93 4.3,-22.11 -0.72,-5.43 -3,-9.55 -7.56,-17.57 A 154.9,154.9 0 0 0 329,532.53 a 17.18,17.18 0 0 0 4.08,-1.28 30.81,30.81 0 0 0 3.84,-2.33 41.35,41.35 0 0 1 5.58,-2.91 27.71,27.71 0 0 1 6.52,-2.21 c 3.67,-0.65 4.48,0.24 6.63,-0.81 a 7.52,7.52 0 0 0 3.73,-4 c 1.33,-3.69 -1.38,-7.22 -1.75,-7.68 -1.68,-2.11 -3.87,-2.91 -8.26,-4.07 -6.77,-1.79 -10,-2.13 -15.6,-3.38 -10.78,-2.42 -12.26,-4.25 -12.91,-5.47 -1.7,-3.15 -0.46,-7.16 -0.12,-8.26 1.18,-3.81 3.16,-4.13 4.54,-8.26 1.06,-3.19 1.32,-7.3 0,-7.91 -1.05,-0.49 -3.07,1.23 -4.19,2.79 -2,2.85 -1.2,5.33 -2.68,5.93 -1.3,0.53 -3.28,-0.85 -4.19,-2.32 -1.14,-1.85 -0.64,-3.91 -0.35,-5.12 0.39,-1.57 1,-2.38 2.33,-4.54 1.67,-2.66 0.13,-0.42 4,-6.75 1.94,-3.21 2.77,-4.52 3.26,-6.75 0.18,-0.86 0.68,-3.16 -0.24,-3.73 -0.63,-0.39 -1.66,0.22 -2.09,0.47 -2.45,1.43 -2.91,4.2 -3.49,4.07 -0.17,0 -0.42,-0.32 -0.47,-3.26 -0.05,-3.12 0.22,-3.84 0,-5.7 -0.22,-1.86 -0.44,-3.79 -1.63,-4.19 -0.93,-0.31 -2.24,0.49 -2.79,1.51 -0.69,1.27 -0.15,2.75 0.12,3.61 0.4,1.33 0.34,4 0.23,9.43 0,1.85 -0.41,4.68 -1.16,10.36 -0.43,3.23 -0.67,4.63 -1.52,4.88 -1.21,0.36 -2.83,-1.85 -3.72,-3.06 -1.06,-1.45 -3.37,-4.61 -2.29,-7 a 9.41,9.41 0 0 1 2.29,-2.37 c 1.2,-1.05 1.57,-1.17 2.86,-2.29 1.51,-1.31 2.27,-2 2.37,-2.86 0.15,-1.27 -0.78,-2.68 -1.55,-2.7 -0.52,0 -0.62,0.63 -1.64,1.15 -0.17,0.09 -1.47,0.76 -2,0.33 -0.53,-0.43 -0.21,-1.41 0.57,-4.66 a 39.65,39.65 0 0 0 1,-4.58 c 0.27,-2.05 0.55,-4.19 -0.4,-4.74 -0.75,-0.43 -2.07,0.22 -2.86,1 -1,0.95 -1.22,2.12 -1.88,6.79 -0.49,3.39 -0.66,4.83 -1.47,5.06 -0.56,0.16 -1.14,-0.31 -1.48,-0.57 -0.65,-0.52 -1.06,-1.26 -1.79,-4 -0.6,-2.26 -0.67,-3.05 -1.39,-3.44 a 1.66,1.66 0 0 0 -1.72,0.09 c -0.63,0.5 -0.49,1.59 -0.33,2.69 a 14.2,14.2 0 0 0 1.23,3.84 c 0.84,1.91 1.19,2.23 1.72,3.76 0.53,1.53 0.91,2.67 0.41,3.11 -0.5,0.44 -1.92,-0.15 -2.78,-0.82 -1.07,-0.83 -1.66,-2 -2.29,-4.33 a 35.89,35.89 0 0 1 -1.14,-7.68 41,41 0 0 1 -0.09,-6.05 c 0.25,-2.26 0.74,-3.86 -0.24,-5.06 -0.06,-0.07 -0.83,-1 -1.72,-0.88 -0.72,0.11 -1.29,0.89 -1.8,2.26 -2.1,5.76 -1.06,12.75 -1.06,12.75 0.87,5.8 1.33,8.86 3.76,11.85 2.43,2.99 4.93,3.49 5.88,6.86 a 9.4,9.4 0 0 1 -0.24,5.56 c -0.34,1 -1.32,3.8 -3.36,4.2 -0.78,0.16 -1.75,-0.36 -3.66,-1.4 a 30.41,30.41 0 0 1 -5.52,-3.81 15.15,15.15 0 0 1 -1.95,-1.87 c -3,-4 -0.79,-11.69 0.47,-16.12 a 13,13 0 0 0 0.23,-6.54 3.1,3.1 0 0 0 -1.48,-2.25 2,2 0 0 0 -2,0.15 2.12,2.12 0 0 0 -0.55,1.56 c -0.06,10.11 -0.12,18.6 -2.64,19.85 -0.62,0.3 -1.39,0 -3,-0.55 -2.51,-0.88 -4,-2.59 -6.62,-5.68 a 17.09,17.09 0 0 1 -2.72,-3.73 16.61,16.61 0 0 1 -1.4,-5.76 c -0.31,-3 0.13,-3.74 -0.7,-5.38 -0.29,-0.56 -1.12,-2.18 -2.57,-2.33 a 2.49,2.49 0 0 0 -1.87,0.62 c -1.13,1 -0.86,3 -0.47,5.45 1,6.21 1.46,9.33 1.71,9.89 1.13,2.48 2.49,3.89 5.22,6.69 a 58,58 0 0 0 9.26,7.63 c 2.33,1.58 3.53,2.25 11,6.46 7.47,4.21 11.22,6.36 14.87,9.5 a 21.07,21.07 0 0 1 5.52,6.93 19.22,19.22 0 0 1 1.33,3.58 c -5,3.9 -8,7.88 -7.24,10 a 3.68,3.68 0 0 0 1.63,2 3.21,3.21 0 0 0 2.18,0.15 20.51,20.51 0 0 0 -4,5 c -0.58,1 -2.18,4.1 -2.72,11.06 a 80.88,80.88 0 0 0 3.66,27.71 52.94,52.94 0 0 0 2.71,6.13 c -1.14,1.61 -2.38,3.27 -3.74,4.95 -0.73,0.92 -1.47,1.8 -2.2,2.64 -5.73,-0.51 -14.54,-1.49 -25.2,-3.52 -6.6,-1.25 -11.24,-2.4 -15.24,-3.39 4.84,12.28 6.78,25.26 8.49,38.46 z m 43.3,-111.59 c -1.07,-1.37 -2.42,-2.48 -3.48,-3.86 a 6.9,6.9 0 0 1 -1.36,-5.46 2.27,2.27 0 0 1 2.21,-1.68 c 4.78,0.2 6.43,5.1 7.31,9 a 2.4,2.4 0 0 1 -3.46,2.59 1.79,1.79 0 0 1 -1.22,-0.59 z"
       id="path188" />
    <path
       class="mkSabwhUYs"
       d="m 323,513.05 c -0.54,-3 3.32,-6.63 6.75,-5.86 a 5,5 0 0 1 3.78,4.4 4.42,4.42 0 0 1 -0.32,2.13 6.85,6.85 0 0 1 -1,1.49 5.31,5.31 0 0 1 -1.81,1.34 c -2.99,1.34 -6.98,-0.82 -7.4,-3.5 z"
       id="path190" />
    <path
       class="bFXTsbZXNq"
       d="m 329.61,516.66 c -1.23,-0.74 -2,-2.73 -1.7,-4.93 0.3,-2.2 1.49,-3.88 2.89,-4.28 1.82,1.12 3.44,3.09 2.71,5.32 l -0.07,0.27 a 3.35,3.35 0 0 1 -0.19,0.56 3.55,3.55 0 0 1 -0.83,1.38 6.07,6.07 0 0 1 -1.62,1.27 c -0.18,0.09 -0.47,0.17 -0.63,0.26 a 1.86,1.86 0 0 1 -0.56,0.15 z"
       id="path192" />
    <path
       class="YtmkIFLfvP"
       d="m 1140.64,164.88 c -0.45,1.64 -1.17,4.12 -2.24,7.08 -2.19,6.06 -3.33,9.1 -5.78,10.06 a 6.84,6.84 0 0 1 -6.89,-1.49 c -1.5,-1.44 -1.77,-3.31 -2,-6.15 -0.65,-6.48 -1,-9.72 -0.75,-13.23 a 57.26,57.26 0 0 1 2.43,-14.9 49.24,49.24 0 0 1 10.06,-17.52 3.19,3.19 0 0 1 2,-1.3 c 1.51,-0.19 2.68,1.12 3.17,1.67 1.35,1.53 1.39,3 2,5.22 a 39.54,39.54 0 0 0 2.6,5.78 71.35,71.35 0 0 0 6.15,9.69 c 3.72,5.22 5.58,7.83 6.9,9.13 a 34.91,34.91 0 0 0 12.67,8 34.5,34.5 0 0 0 11.37,1.86 c 11.9,0.26 20.81,-4.45 25,-6.7 7.06,-3.84 11,-6 13.41,-10.63 5.46,-10.46 -2.15,-23.14 -3.16,-24.78 a 14.5,14.5 0 0 1 6.15,2.8 c 1.3,1 5.61,4.8 5.4,10.8 -0.21,6.17 -5,9.66 -5.59,10.07 0.1,1.13 0.2,2.74 0.19,4.65 a 39.66,39.66 0 0 1 -2,13.61 33.9,33.9 0 0 1 -7.08,11.55 q -0.31,6 -0.56,12.11 -0.36,9 -0.56,17.71 a 4.67,4.67 0 0 1 2.42,1.86 5.08,5.08 0 0 1 0.37,4.29 5.88,5.88 0 0 1 -2.23,3 c 0,1.13 0,2.88 0,5 0.08,6.51 0.4,6.86 0.56,13.6 0.11,5 -0.06,5.38 0.37,6.9 0.48,1.69 1.12,2.8 0.56,3.91 -0.82,1.64 -3.43,1.68 -3.54,1.68 -2,0 -4.2,-1.25 -4.29,-2.61 -0.07,-1.17 1.45,-2.12 1.86,-2.42 2.18,-1.6 3.61,-7.23 0,-25.35 a 4.54,4.54 0 0 1 -2.42,-2 4.75,4.75 0 0 1 0.56,-5 39.82,39.82 0 0 1 -3,-6 40.3,40.3 0 0 1 -2.8,-13.42 32.33,32.33 0 0 1 -3.72,2.61 c -11.85,7.12 -25.33,5 -32,3.36 q -0.76,4.37 -1.5,8.75 -0.66,4 -1.3,8 a 5.58,5.58 0 0 1 1.49,2.23 c 0.84,2.38 -0.08,5.24 -2.24,7.46 a 53.63,53.63 0 0 0 -0.18,7.64 c 0.09,1.87 0.26,3.14 0.37,6.15 0.17,4.54 -0.06,5.47 -0.56,6.33 -0.76,1.32 -2.46,3 -4.47,2.8 a 3.39,3.39 0 0 1 -3,-2.43 c -0.19,-1.35 1.23,-2.55 1.68,-3 1.8,-1.72 3.27,-5.76 1.67,-16 a 4.27,4.27 0 0 1 -2.05,-2.24 4.41,4.41 0 0 1 1.31,-4.66 q 0,-3 0,-6.15 0,-9.39 -0.38,-18.45 a 43.92,43.92 0 0 1 -8,-8.38 45.71,45.71 0 0 1 -8.43,-22.55 z"
       id="path194" />
    <path
       class="wzgzrFgJOX"
       d="m 1156.07,245.34 c -1,-0.43 -1.74,-0.2 -4.69,0.22 -1.79,0.25 -3.23,0.41 -4.11,0.5 a 7.74,7.74 0 0 0 1,0.72 7.5,7.5 0 0 0 3.25,1 l -3.1,1.44 a 9.55,9.55 0 0 0 2.3,1.09 c 3,0.94 7.21,0.52 7.79,-1.23 0.42,-1.21 -0.9,-3.08 -2.44,-3.74 z"
       id="path196" />
    <path
       class="wzgzrFgJOX"
       d="m 1212.16,250.22 c 0,-0.7 -1,-1.26 -2.17,-1.94 a 5.85,5.85 0 0 0 -4.15,-0.95 c -0.89,0.22 -1,0.59 -2.07,1.07 a 7.66,7.66 0 0 1 -3.7,0.61 4.56,4.56 0 0 0 1.4,0.79 5.44,5.44 0 0 0 4,-0.28 5.23,5.23 0 0 1 -1.51,1.23 5.36,5.36 0 0 1 -2.53,0.62 9.47,9.47 0 0 0 3.37,1.23 c 3.45,0.53 7.32,-1.01 7.36,-2.38 z"
       id="path198" />
    <path
       class="wzgzrFgJOX"
       d="m 1136,127.44 c -0.33,-0.79 0.67,-1.94 1.82,-3.1 a 30,30 0 0 1 7.28,-5.89 c 3.39,-2 5.09,-3 7.49,-2.89 1,0 4.08,0.1 5.13,2.25 a 4.57,4.57 0 0 1 -0.21,3.74 3.57,3.57 0 0 0 -1.07,-2.14 c -1.63,-1.4 -4.44,-0.35 -5.67,0.11 a 14.61,14.61 0 0 0 -6.74,5.67 19.73,19.73 0 0 0 -3,6.63 5.64,5.64 0 0 0 -2,-2.88 c -1.39,-0.94 -2.69,-0.73 -3.03,-1.5 z"
       id="path200" />
    <path
       class="wzgzrFgJOX"
       d="m 1136.53,139.47 c -1.66,0.89 -1.24,4.54 -0.88,7.66 0.4,3.48 0.76,6.63 3.09,9.87 a 15.92,15.92 0 0 0 4.87,4.42 26.45,26.45 0 0 0 1.17,-7.51 c 0,-2.18 0.12,-10.61 -4.86,-13.71 -0.49,-0.3 -2.2,-1.37 -3.39,-0.73 z"
       id="path202" />
    <path
       class="wzgzrFgJOX"
       d="m 1125.5,180.3 a 7.21,7.21 0 0 0 2,-6.57 3.91,3.91 0 0 0 -2.52,0.77 3.79,3.79 0 0 0 -1.11,1.39 8.27,8.27 0 0 0 0.38,2 7.91,7.91 0 0 0 1.25,2.41 z"
       id="path204" />
    <path
       class="mkSabwhUYs"
       d="m 1135.08,154.09 c -0.23,-2.61 -4.25,-4.78 -6.93,-3.37 a 4.34,4.34 0 0 0 -2.17,4.51 3.9,3.9 0 0 0 0.74,1.69 5.54,5.54 0 0 0 1.12,1 4.58,4.58 0 0 0 1.81,0.71 c 2.79,0.49 5.63,-2.2 5.43,-4.54 z"
       id="path206" />
    <path
       d="m 1130.33,158.58 c 0.86,-0.89 1.07,-2.71 0.32,-4.48 -0.75,-1.77 -2.11,-2.9 -3.36,-2.92 -1.27,1.34 -2.18,3.34 -1.08,5 0,0 0.11,0.19 0.12,0.22 a 3.13,3.13 0 0 0 0.29,0.42 3.16,3.16 0 0 0 1,1 5.13,5.13 0 0 0 1.63,0.7 c 0.17,0 0.43,0 0.58,0.08 a 1.67,1.67 0 0 0 0.5,-0.02 z"
       id="path208" />
    <g
       id="animal4"
       class="button"
       onmouseover="hover('hover4', 1)"
       onmouseout="hover('hover4', 0)"
       onclick="mouse()">
      <path
         class="YtmkIFLfvP"
         d="m 420.2,325.9 a 15.06,15.06 0 0 1 4.07,7.36 c 1,4.81 -0.82,8.68 -1.94,11 a 23.67,23.67 0 0 1 -7.56,8.91 c -4.89,3.5 -9.73,4.17 -14.72,4.85 a 47.7,47.7 0 0 1 -13,0 c -2.85,-0.42 -2.72,-0.69 -15.3,-4.26 a 95.09,95.09 0 0 0 -9.88,-2.52 99.54,99.54 0 0 0 -10.07,-1.16 c -4.92,-0.43 -7.42,-0.64 -9.3,-0.39 -3,0.4 -6.69,0.88 -9.49,3.87 a 10.92,10.92 0 0 0 -2.25,11.76 13.43,13.43 0 0 0 3.58,4.91 20.25,20.25 0 0 0 10,4.71 25.22,25.22 0 0 0 13.6,-1.23 35.78,35.78 0 0 1 -7.77,-1 26.59,26.59 0 0 1 -9.31,-3.89 c -2.65,-1.83 -5.55,-3.83 -5.83,-7.06 a 6.76,6.76 0 0 1 1.54,-4.7 c 1.06,-1.21 2.47,-1.81 4.8,-2.25 a 28.64,28.64 0 0 1 10,-0.1 c 8.85,1.55 13.28,2.32 16.16,3.07 8.28,2.14 8.41,2.81 15,4.19 a 82.53,82.53 0 0 0 12,1.64 48.34,48.34 0 0 0 6.54,0.1 37.33,37.33 0 0 0 13.5,-3.48 28.76,28.76 0 0 0 8.39,-5.73 25.09,25.09 0 0 0 6.44,-10.33 27.12,27.12 0 0 0 1.13,-8.79 23.32,23.32 0 0 0 -0.92,-7.26 c -1.23,-3.88 -4.26,-9 -6.55,-8.6 -1.96,0.42 -2.67,5.07 -2.86,6.38 z"
         id="path210" />
      <path
         class="UqjnErwBMy"
         d="m 340.53,288.54 c -0.77,-0.27 -1.94,-0.66 -3.38,-1 a 31.52,31.52 0 0 0 -10.28,-1.44 24.74,24.74 0 0 0 -5.86,1.05 11.9,11.9 0 0 0 -0.39,-4.3 c -0.45,-1.57 -1.3,-4.56 -3.65,-5.21 -2,-0.54 -3.85,0.93 -4.16,1.18 -1.89,1.48 -2.24,3.7 -2.48,5.2 a 11.14,11.14 0 0 0 2,8.33 9.61,9.61 0 0 0 1.67,1.65 c -0.69,1.12 -1.66,2.77 -2.73,4.81 -5.44,10.36 -6.53,17.73 -6.77,19.66 a 28.12,28.12 0 0 0 -0.13,5.73 c 0.16,3.69 0.68,4.59 1,5.07 1.19,1.62 3.18,2 4.42,2.22 1.24,0.22 3.91,0.53 10,-1.83 a 46.67,46.67 0 0 0 11.71,-6.51 45.9,45.9 0 0 0 5.34,-4.81 36.6,36.6 0 0 0 4.43,3.12 36,36 0 0 0 5.59,2.74 c -0.35,1.3 -0.71,2.78 -1,4.42 -0.62,3.1 -0.55,3.94 -1.43,4.95 a 6.25,6.25 0 0 1 -3.52,1.95 8.41,8.41 0 0 0 -2.59,0.43 4,4 0 0 0 -1.66,1.23 c -1.16,1.57 -0.34,3.71 -0.25,3.93 l 2,-2.21 a 9.74,9.74 0 0 0 -0.06,1.47 11.32,11.32 0 0 0 0.3,2.34 c 0.29,-0.43 0.61,-0.89 1,-1.35 a 16.62,16.62 0 0 1 1.72,-1.85 4.75,4.75 0 0 0 0.24,1.85 4.64,4.64 0 0 0 1.05,1.72 2.62,2.62 0 0 1 0.06,-1.78 c 0.26,-0.58 0.71,-0.87 1.9,-1.6 1.19,-0.73 1.62,-1 2.15,-1.29 a 13.19,13.19 0 0 0 3.44,-3 19.69,19.69 0 0 0 4,-8.23 l 2.39,0.49 c 0.21,1 0.41,1.92 0.62,2.88 0.21,0.96 0.33,2.05 0.4,2.82 0.05,0.42 0.12,1.19 0.15,2.16 0,0.66 0,0.33 0,1.72 a 8.16,8.16 0 0 1 -0.07,0.93 1.92,1.92 0 0 1 -0.19,0.74 1.26,1.26 0 0 1 -0.35,0.44 1.41,1.41 0 0 1 -0.7,0.21 3.79,3.79 0 0 1 -1.11,-0.07 11.85,11.85 0 0 1 -1.19,-0.34 4.18,4.18 0 0 0 -2,0 3.16,3.16 0 0 0 -1.55,0.9 3.24,3.24 0 0 0 -0.62,2.7 6.2,6.2 0 0 1 0.68,-0.32 6,6 0 0 1 1.67,-0.42 4.22,4.22 0 0 0 -0.62,1.16 4.32,4.32 0 0 0 -0.24,1.66 l 1.09,-0.32 2.21,-1.24 c -0.09,0.26 -0.18,0.54 -0.26,0.83 a 10.51,10.51 0 0 0 -0.36,2.48 10.48,10.48 0 0 1 2.06,-1.53 9.22,9.22 0 0 1 4.19,-1.31 c 1.13,-0.05 1.57,0.18 2.37,-0.17 a 3.61,3.61 0 0 0 1.55,-1.46 c 1.23,-1.87 1.7,-3.9 2.33,-7.06 0.21,-1 0.45,-2.24 0.71,-3.64 3,0.91 5.6,1.56 7.68,2 a 54.62,54.62 0 0 0 8.52,1.51 c 0.93,0.07 3,0.18 6.27,0.47 l 1.55,0.14 a 16,16 0 0 1 -4.52,1.74 c -2.85,0.65 -3.49,0.4 -5.7,0.9 a 19.29,19.29 0 0 0 -4.62,1.69 c -2.93,1.48 -3.66,2.69 -3.9,3.16 a 5.51,5.51 0 0 0 -0.57,1.74 11.83,11.83 0 0 1 4,-2.07 4.51,4.51 0 0 0 -1,1.51 4.7,4.7 0 0 0 -0.23,2.92 7.68,7.68 0 0 1 0.94,-1.18 8.18,8.18 0 0 1 2.68,-1.84 5.2,5.2 0 0 0 -0.75,1.84 5.37,5.37 0 0 0 0.33,3.15 8,8 0 0 1 1.46,-2 8.55,8.55 0 0 1 3.11,-2 46.1,46.1 0 0 1 10,-2.57 c 6.29,-0.78 5.81,-0.32 8.74,-0.84 a 29.17,29.17 0 0 0 11.41,-4.09 25.74,25.74 0 0 0 8.6,-9.16 26.26,26.26 0 0 0 3,-10.15 c 0.44,-5.16 -0.73,-9 -1.83,-12.54 a 42.9,42.9 0 0 0 -9.73,-17.19 36.71,36.71 0 0 0 -26.07,-12.26 48.81,48.81 0 0 0 -23,4.51 56,56 0 0 0 -7.75,4.05 7.74,7.74 0 0 0 -2.22,-1.17 9.63,9.63 0 0 0 -5.39,0 14,14 0 0 0 -5.29,2.33 13.36,13.36 0 0 0 -2.56,2.52 z"
         id="path212" />
      <path
         class="YtmkIFLfvP"
         d="m 304.32,323.69 a 3,3 0 0 0 -1.19,1.28 3.26,3.26 0 0 0 -0.46,2.65 3,3 0 0 0 1.55,1.73 3.6,3.6 0 0 0 3.2,-0.54 c 0.63,-0.36 2,-1.12 2,-2.2 0.11,-1.78 -3.27,-3.82 -5.1,-2.92 z"
         id="path214" />
      <path
         class="YtmkIFLfvP"
         d="m 316.62,291 c 0,-0.49 0.07,-1.17 0.08,-2 a 29.71,29.71 0 0 0 -0.15,-3.75 14.46,14.46 0 0 0 -0.59,-3.17 4.81,4.81 0 0 0 -1.55,-2.73 3.46,3.46 0 0 0 -1.6,-0.62 6,6 0 0 0 -1.25,1.37 7.43,7.43 0 0 0 -0.84,1.92 12.73,12.73 0 0 0 -0.52,3.31 10.61,10.61 0 0 0 0.5,3.86 13,13 0 0 0 1.85,3.39 c 0.48,0.71 0.92,1.27 1.25,1.67 z"
         id="path216" />
      <path
         class="YtmkIFLfvP"
         d="m 340.91,296.5 c 0.08,-0.43 0.25,-0.91 1.56,-2.74 a 34.44,34.44 0 0 1 4.19,-5.11 c 2.59,-2.57 4,-3.94 6.3,-4.29 a 5.34,5.34 0 0 1 2.23,0 4.88,4.88 0 0 1 2.36,1.63 7.18,7.18 0 0 1 1.69,4.17 8.34,8.34 0 0 1 -0.29,2.93 10.43,10.43 0 0 1 -2.13,3.7 17.16,17.16 0 0 1 -5.05,4.17 c -2.76,1.46 -5.15,2.73 -7.51,1.69 a 6,6 0 0 1 -3.35,-6.15 z"
         id="path218" />
      <path
         class="mkSabwhUYs"
         d="m 320.57,306.73 c 0.5,-2.66 -2.89,-5.92 -5.94,-5.27 a 4.46,4.46 0 0 0 -3.4,3.88 3.83,3.83 0 0 0 0.27,1.89 5.89,5.89 0 0 0 0.82,1.33 4.74,4.74 0 0 0 1.6,1.21 c 2.64,1.23 6.21,-0.67 6.65,-3.04 z"
         id="path220" />
      <path
         class="bFXTsbZXNq"
         d="m 314.62,309.87 c 1.1,-0.65 1.81,-2.4 1.56,-4.36 -0.25,-1.96 -1.3,-3.46 -2.53,-3.83 -1.63,1 -3.09,2.72 -2.46,4.7 l 0.06,0.25 a 4.83,4.83 0 0 0 0.16,0.5 3.27,3.27 0 0 0 0.73,1.23 5.4,5.4 0 0 0 1.42,1.14 c 0.17,0.08 0.42,0.16 0.56,0.24 a 1.76,1.76 0 0 0 0.5,0.13 z"
         id="path222" />
      <path
         class="mkSabwhUYs"
         d="m 334.1,309.68 c 0.5,-2.66 -2.89,-5.92 -5.94,-5.27 a 4.54,4.54 0 0 0 -2.32,1.4 4.46,4.46 0 0 0 -1.08,2.48 3.83,3.83 0 0 0 0.27,1.89 5.89,5.89 0 0 0 0.82,1.33 4.74,4.74 0 0 0 1.6,1.21 c 2.65,1.21 6.21,-0.67 6.65,-3.04 z"
         id="path224" />
      <path
         class="bFXTsbZXNq"
         d="m 328.15,312.82 c 1.1,-0.64 1.81,-2.4 1.56,-4.36 -0.25,-1.96 -1.29,-3.46 -2.53,-3.83 -1.63,1 -3.08,2.72 -2.46,4.7 0,0 0,0.22 0.06,0.25 a 3,3 0 0 0 0.17,0.5 3.13,3.13 0 0 0 0.72,1.23 5.57,5.57 0 0 0 1.42,1.14 c 0.17,0.08 0.42,0.16 0.57,0.24 a 1.61,1.61 0 0 0 0.49,0.13 z"
         id="path226" />
    </g>
    <path
       class="YtmkIFLfvP"
       d="m 899.74,161 c 0.45,1.64 1.17,4.12 2.24,7.08 2.19,6.06 3.34,9.11 5.78,10.07 a 6.88,6.88 0 0 0 6.89,-1.49 c 1.5,-1.45 1.77,-3.31 2.05,-6.15 0.65,-6.49 1,-9.73 0.75,-13.23 a 57.7,57.7 0 0 0 -2.45,-14.87 49.4,49.4 0 0 0 -10,-17.52 3.19,3.19 0 0 0 -2.05,-1.3 c -1.51,-0.19 -2.67,1.12 -3.17,1.67 -1.35,1.53 -1.39,3 -2,5.22 a 39.94,39.94 0 0 1 -2.61,5.78 70.25,70.25 0 0 1 -6.15,9.69 c -3.72,5.22 -5.58,7.83 -6.9,9.13 A 33.31,33.31 0 0 1 858,165 c -11.9,0.25 -20.81,-4.46 -25,-6.71 -7.06,-3.84 -11,-6 -13.41,-10.62 -5.46,-10.47 2.15,-23.15 3.16,-24.79 a 14.5,14.5 0 0 0 -6.15,2.8 c -1.3,1 -5.61,4.8 -5.4,10.8 0.21,6.17 5,9.66 5.59,10.07 -0.1,1.14 -0.2,2.74 -0.19,4.66 a 39.64,39.64 0 0 0 2,13.6 33.66,33.66 0 0 0 7.09,11.55 q 0.3,6 0.55,12.12 0.36,9 0.56,17.7 a 4.67,4.67 0 0 0 -2.42,1.86 5.08,5.08 0 0 0 -0.37,4.29 5.88,5.88 0 0 0 2.23,3 c 0,1.13 0,2.88 0,5 -0.08,6.51 -0.4,6.86 -0.55,13.6 -0.12,5.06 0.05,5.39 -0.38,6.9 -0.48,1.7 -1.11,2.8 -0.56,3.91 0.82,1.64 3.43,1.68 3.54,1.68 2,0 4.2,-1.25 4.29,-2.61 0.07,-1.17 -1.45,-2.12 -1.86,-2.42 -2.18,-1.59 -3.61,-7.23 0,-25.35 a 4.49,4.49 0 0 0 2.42,-2 4.75,4.75 0 0 0 -0.56,-5 38.43,38.43 0 0 0 3,-6 40.3,40.3 0 0 0 2.8,-13.42 31.14,31.14 0 0 0 3.72,2.61 c 11.85,7.12 25.33,5 32.06,3.36 q 0.75,4.36 1.49,8.75 0.66,4 1.3,8 a 5.58,5.58 0 0 0 -1.49,2.23 c -0.84,2.38 0.08,5.24 2.24,7.46 a 53.63,53.63 0 0 1 0.18,7.64 c -0.09,1.87 -0.26,3.14 -0.37,6.15 -0.17,4.54 0.06,5.47 0.56,6.33 0.76,1.32 2.46,3 4.47,2.8 a 3.4,3.4 0 0 0 3,-2.42 c 0.19,-1.36 -1.23,-2.56 -1.67,-3 -1.81,-1.72 -3.28,-5.76 -1.68,-16 a 4.27,4.27 0 0 0 2,-2.24 4.41,4.41 0 0 0 -1.31,-4.66 q 0,-3 0,-6.15 0.06,-9.39 0.38,-18.44 a 44,44 0 0 0 8,-8.39 45.71,45.71 0 0 0 8.48,-22.65 z"
       id="path228" />
    <path
       class="wzgzrFgJOX"
       d="m 884.31,241.5 c 1,-0.43 1.75,-0.2 4.69,0.22 1.79,0.25 3.24,0.41 4.11,0.5 a 7.74,7.74 0 0 1 -1,0.72 7.5,7.5 0 0 1 -3.25,1 l 3.1,1.45 a 10,10 0 0 1 -2.3,1.08 c -3,0.94 -7.21,0.52 -7.79,-1.23 -0.42,-1.24 0.91,-3.08 2.44,-3.74 z"
       id="path230" />
    <path
       class="wzgzrFgJOX"
       d="m 828.22,246.38 c 0,-0.7 1,-1.25 2.17,-1.93 a 5.8,5.8 0 0 1 4.15,-1 c 0.89,0.22 1,0.59 2.07,1.07 a 7.66,7.66 0 0 0 3.7,0.61 4.56,4.56 0 0 1 -1.4,0.79 5.44,5.44 0 0 1 -4,-0.28 5.23,5.23 0 0 0 1.51,1.23 5.36,5.36 0 0 0 2.53,0.62 9.28,9.28 0 0 1 -3.37,1.23 c -3.45,0.57 -7.32,-0.97 -7.36,-2.34 z"
       id="path232" />
    <path
       class="wzgzrFgJOX"
       d="m 904.36,123.6 c 0.33,-0.79 -0.67,-1.94 -1.82,-3.1 a 30,30 0 0 0 -7.28,-5.89 c -3.39,-2 -5.09,-3 -7.49,-2.89 -0.95,0 -4.08,0.11 -5.13,2.25 a 4.61,4.61 0 0 0 0.21,3.75 3.52,3.52 0 0 1 1.07,-2.14 c 1.63,-1.41 4.44,-0.36 5.67,0.1 a 14.61,14.61 0 0 1 6.74,5.67 19.51,19.51 0 0 1 3,6.64 5.7,5.7 0 0 1 2,-2.89 c 1.41,-0.96 2.67,-0.73 3.03,-1.5 z"
       id="path234" />
    <path
       class="wzgzrFgJOX"
       d="m 903.85,135.63 c 1.66,0.89 1.24,4.54 0.88,7.66 -0.4,3.48 -0.76,6.63 -3.09,9.88 a 16.19,16.19 0 0 1 -4.87,4.42 26.56,26.56 0 0 1 -1.17,-7.52 c 0,-2.18 -0.12,-10.61 4.86,-13.7 0.54,-0.31 2.2,-1.37 3.39,-0.74 z"
       id="path236" />
    <path
       class="wzgzrFgJOX"
       d="m 914.88,176.46 a 7.21,7.21 0 0 1 -2,-6.57 3.91,3.91 0 0 1 2.52,0.77 3.79,3.79 0 0 1 1.11,1.39 8.27,8.27 0 0 1 -0.38,2 7.91,7.91 0 0 1 -1.25,2.41 z"
       id="path238" />
    <path
       class="mkSabwhUYs"
       d="m 905.3,150.25 c 0.23,-2.61 4.25,-4.77 6.93,-3.37 a 4.21,4.21 0 0 1 1.8,1.91 4.31,4.31 0 0 1 0.37,2.6 3.82,3.82 0 0 1 -0.74,1.7 5.49,5.49 0 0 1 -1.12,1 4.58,4.58 0 0 1 -1.81,0.71 c -2.79,0.48 -5.63,-2.21 -5.43,-4.55 z"
       id="path240" />
    <path
       d="m 910.05,154.75 c -0.86,-0.9 -1.07,-2.72 -0.32,-4.49 0.75,-1.77 2.11,-2.9 3.36,-2.92 1.27,1.34 2.18,3.34 1.08,5 0,0 -0.11,0.19 -0.12,0.22 a 3.13,3.13 0 0 1 -0.29,0.42 3.19,3.19 0 0 1 -1,1 5.39,5.39 0 0 1 -1.62,0.69 c -0.18,0 -0.44,0 -0.59,0.08 a 2.09,2.09 0 0 1 -0.5,0 z"
       id="path242" />
  </g>
  <g
     id="Layer_4"
     data-name="Layer 4">
    <path
       class="lhzfAbhCXg"
       d="M.47,271.8c8.85,1.92,8.83,2,9.45,2.05,5.3.46,9.88-4.75,12-7.15,6-6.86,6.71-15,7.15-20.42.39-4.81,1.22-17.13-6.64-29.35A44.23,44.23,0,0,0,7.36,202.64,16,16,0,0,0,7.62,195a15.65,15.65,0,0,0-4.85-8.42c-5-4.4-11.32-3.75-13-3.58s-8.64.9-12.76,6.9c-5.07,7.38-1.31,16-1,16.59,2.66,5.77,8.69,10.42,15.65,10.3A17,17,0,0,0,2.05,212.7a29.52,29.52,0,0,1,3.81,2.41c13.65,10.14,13.42,28,13.35,32.93,0,2.77-.42,5.61-2.42,7a6,6,0,0,1-4.19.76c-2.88-.35-4.77-2.28-6.23-3.81a26,26,0,0,1-3.94-5.72c-.59-1-3.81-6.55-6.61-9.16-6.67-6.19-19-3.18-23.14-2.16-4.33,1.07-8.73,2.15-12.45,5.85-1.8,1.79-3.66,4.41-7.38,9.66-2.42,3.43-3,4.49-4.57,5.47-3.44,2.17-7.68,1.51-10.43.76A5.64,5.64,0,0,0-60,260.75a5.49,5.49,0,0,0,5.72.38,8.11,8.11,0,0,0,.89,3.05c2.26,4.2,8.54,6,13.61,5.21s5.56-3.38,9.66-2.92c3.46.39,7,2.74,7,4.7,0,.63-.39.64-.76,1.78A7.17,7.17,0,0,0-23.5,278a5.27,5.27,0,0,0,2.67,2.67,5.17,5.17,0,0,0,4.19-.26,5.64,5.64,0,0,0,2.8-3.94,3.83,3.83,0,0,0,.63,2.8,4.41,4.41,0,0,0,3.31,1.4c.68.06,3.19.29,4.58-1.15,2.14-2.23-.48-6.34,1.39-7.88C-3.15,271-1.93,271.28.47,271.8Z"
       id="path245" />
    <path
       class="mdCWnEKJqh"
       d="M-7.78,274.42c4.51-.2,6.24-.74,7.65-1.41,1.1-.53,4.53-2.16,5.88-5.41,1.44-3.46-.21-6.94-2.35-11.3C1,251.48-2.65,244-10.49,241.23c-1.66-.58-6.85-2.41-9.54.24a6.48,6.48,0,0,0-1.53,4.82,28.33,28.33,0,0,0-6.35-.82c-2.72-.05-5.25-.09-8,1.17-1.12.52-4.38,2-5.65,5.07-2,4.82,2.29,10.45,3.65,12.24,5.75,7.53,14.83,9.29,18.48,10A45.67,45.67,0,0,0-7.78,274.42Z"
       id="path247" />
    <path
       class="MtpFsssJEp"
       d="M-17.86,280.9c-.28,1-.67,2.39-1.06,4.11a68.8,68.8,0,0,0-1.77,19.63,55.45,55.45,0,0,0,8.5,24.83,29.71,29.71,0,0,1,3.18.4,30.86,30.86,0,0,1,9.83,3.59l-7.44-.53a8.55,8.55,0,0,1,3.86,1.86,8.67,8.67,0,0,1,2.39,3.32,25.56,25.56,0,0,0-5.32-1.73,25.54,25.54,0,0,0-4.38-.53,6.25,6.25,0,0,0,1.2,2.79,6.16,6.16,0,0,0,1.59,1.46,5.57,5.57,0,0,1-3.59-.27A11.26,11.26,0,0,1-13.26,338c-1.94-1.7-1.93-1.83-2.39-2.12-.93-.59-2.51-1-5.31-.13a4,4,0,0,1,.27-2.53c.87-1.82,3.34-2.86,6.11-2.39-1.61-3.36-2.89-6.3-3.86-8.63-2.47-5.95-3.82-9.26-4.78-13.81a50.41,50.41,0,0,1-1.06-9,47.47,47.47,0,0,1,3.45-18.62Z"
       id="path249" />
    <path
       class="MtpFsssJEp"
       d="M-8.11,280.72a44.18,44.18,0,0,0-6.21,7.58c-2.64,4.1-3,6.22-3.05,7.71a7.93,7.93,0,0,0,.53,3.45c.55,1.36,1.46,2.41,4.51,4.65,3.25,2.38,3.51,2.14,5.71,3.85a24.31,24.31,0,0,1,5.18,5,21.44,21.44,0,0,1,3.19,6.25,20.65,20.65,0,0,1,.66,9.29L-.37,321.9a7.39,7.39,0,0,1-.8,3.06,7.73,7.73,0,0,1-4.12,3.58c1.53-5.48,1.44-7.07.93-7.3-.09,0-.3-.09-2,1.06-1.1.75-2,1.45-2.66,2A9,9,0,0,1-8.74,320a9.73,9.73,0,0,1,4.91-5.57,38,38,0,0,0-3.58-3.06c-2.61-2-3.9-2.42-6.25-4.12-2.63-1.9-3.94-2.85-4.91-4.38-3.16-5-.59-11.49-.4-12,.77-1.86,1.84-3.23,4-6a53.51,53.51,0,0,1,3.88-4.44Z"
       id="path251" />
    <rect
       class="UnUIZAucdK"
       x="593.53"
       y="703.11"
       width="345.83"
       height="25.88"
       rx="11.74"
       id="rect253" />
    <rect
       class="NRytZGpiti"
       x="621.26"
       y="439.4"
       width="91.19"
       height="263.7"
       id="rect255" />
    <rect
       class="EKyINXJjld"
       x="593.53"
       y="526.95"
       width="147.45"
       height="58.48"
       rx="26.52"
       id="rect257" />
    <rect
       class="zscmNELqeO"
       x="712.45"
       y="515.19"
       width="200.86"
       height="187.92"
       id="rect259" />
    <rect
       class="DdENBeVyfg"
       x="712.45"
       y="515.19"
       width="200.86"
       height="63.19"
       id="rect261" />
    <rect
       class="ugnMBraYQr"
       x="645.9"
       y="456.03"
       width="45.72"
       height="30.99"
       id="rect263" />
    <rect
       class="ugnMBraYQr"
       x="645.9"
       y="609.15"
       width="45.72"
       height="30.99"
       id="rect265" />
    <rect
       class="YfQDPClLKj"
       x="746.3"
       y="531.29"
       width="45.72"
       height="30.99"
       id="rect267" />
    <rect
       class="YfQDPClLKj"
       x="831.78"
       y="531.29"
       width="45.72"
       height="30.99"
       id="rect269" />
    <polygon
       class="lyOwGJnReh"
       points="945.02 515.19 686.93 515.19 743.41 432.31 888.88 432.31 945.02 515.19"
       id="polygon271" />
    <polygon
       class="lyOwGJnReh"
       points="666.85 327.74 604.21 439.54 729.5 439.54 666.85 327.74"
       id="polygon273" />
    <rect
       class="MNnTGPmulL"
       x="786.98"
       y="607.51"
       width="57.09"
       height="95.6"
       id="rect275" />
    <rect
       x="814.19"
       y="607.51"
       width="1.34"
       height="95.6"
       id="rect277" />
    <rect
       class="mkSabwhUYs"
       x="783.04"
       y="477.67"
       width="70.22"
       height="18.7"
       id="rect279" />
    <text
       class="DKFsIOPSqh"
       transform="translate(794.97 493.42)"
       id="text281">info</text>
  </g>
  <g
     id="clouds"
     class="clouds-move">
    <path
       class="mkSabwhUYs"
       d="M112.74,442.75a15,15,0,0,0,0-9.68c-3-8-12.47-9.4-13.58-9.68a19.2,19.2,0,0,0-19.37,9.68c-.28.54-.8,3.6-2,9.68v1.95a8.07,8.07,0,0,0-2-1.95c-4.71-3.19-11.77-.42-15.51,1.95a18.52,18.52,0,0,0-7.74,9.68,19,19,0,0,0,0,11.61,25.08,25.08,0,0,0,9.69,13.56h87.25a27.78,27.78,0,0,1-5.81-5.8A20.66,20.66,0,0,1,139.9,466c-1-4.49.73-5.52,0-9.68a17.18,17.18,0,0,0-5.81-9.68c-3.77-3-8-3.39-13.58-3.88A48,48,0,0,0,112.74,442.75Z"
       id="path284" />
    <path
       class="mkSabwhUYs"
       d="M495.05,506.56a15,15,0,0,0,0-9.69c-3-8-12.47-9.4-13.58-9.68a19.25,19.25,0,0,0-19.37,9.68c-.28.55-.8,3.6-2,9.69v1.95a7.85,7.85,0,0,0-1.95-1.95c-4.71-3.2-11.77-.43-15.51,1.95a18.5,18.5,0,0,0-7.75,9.68,19.17,19.17,0,0,0,0,11.61,25.09,25.09,0,0,0,9.7,13.56h87.25a27.83,27.83,0,0,1-5.81-5.81,20.4,20.4,0,0,1-3.86-7.75c-1-4.49.73-5.52,0-9.68a17.17,17.17,0,0,0-5.82-9.69c-3.76-3-7.95-3.38-13.58-3.87A45.82,45.82,0,0,0,495.05,506.56Z"
       id="path286" />
    <path
       class="mkSabwhUYs"
       d="M610,102.52a15,15,0,0,0,0-9.68c-3-8-12.47-9.4-13.58-9.68a19.2,19.2,0,0,0-19.37,9.68c-.28.54-.8,3.6-2,9.68v2a8.07,8.07,0,0,0-2-2c-4.71-3.19-11.77-.42-15.51,2a18.54,18.54,0,0,0-7.74,9.69,19,19,0,0,0,0,11.6,25,25,0,0,0,9.69,13.56h87.25a27.78,27.78,0,0,1-5.81-5.8,20.59,20.59,0,0,1-3.86-7.76c-1-4.48.73-5.52,0-9.68a17.18,17.18,0,0,0-5.81-9.68c-3.77-3-8-3.38-13.58-3.88A48,48,0,0,0,610,102.52Z"
       id="path288" />
    <path
       class="mkSabwhUYs"
       d="M1148.05,488.23a15,15,0,0,0,0-9.68c-3-8-12.47-9.4-13.58-9.69a19.23,19.23,0,0,0-19.37,9.69c-.28.54-.8,3.59-1.95,9.68v1.95a8.07,8.07,0,0,0-2-1.95c-4.71-3.2-11.77-.43-15.51,1.95a18.48,18.48,0,0,0-7.74,9.68,19,19,0,0,0,0,11.61,25.12,25.12,0,0,0,9.69,13.56h87.26a27.64,27.64,0,0,1-5.82-5.81,20.55,20.55,0,0,1-3.86-7.75c-1-4.49.73-5.52,0-9.68a17.15,17.15,0,0,0-5.81-9.68c-3.77-3-8-3.39-13.58-3.88A45.82,45.82,0,0,0,1148.05,488.23Z"
       id="path290" />
    <path
       class="mkSabwhUYs"
       d="M876.46,363.25a15,15,0,0,0,0-9.68c-3-8-12.47-9.4-13.58-9.69a19.23,19.23,0,0,0-19.37,9.69c-.28.54-.8,3.59-2,9.68v1.95a8.07,8.07,0,0,0-2-1.95c-4.7-3.2-11.77-.43-15.51,1.95a18.48,18.48,0,0,0-7.74,9.68,19,19,0,0,0,0,11.61,25.09,25.09,0,0,0,9.7,13.56H913.3a27.87,27.87,0,0,1-5.82-5.81,20.55,20.55,0,0,1-3.86-7.75c-1-4.49.73-5.52,0-9.68a17.21,17.21,0,0,0-5.81-9.69c-3.77-3-8-3.38-13.58-3.87A45.82,45.82,0,0,0,876.46,363.25Z"
       id="path292" />
    <path
       class="mkSabwhUYs"
       d="M1235.83,274.85a15,15,0,0,0,0-9.68c-3-8-12.47-9.4-13.58-9.69a19.23,19.23,0,0,0-19.37,9.69c-.28.54-.8,3.59-2,9.68v1.95a7.73,7.73,0,0,0-2-1.95c-4.7-3.2-11.76-.42-15.51,1.95a18.53,18.53,0,0,0-7.74,9.68,19.17,19.17,0,0,0,0,11.61,25.09,25.09,0,0,0,9.7,13.56h87.25a27.64,27.64,0,0,1-5.82-5.81,20.7,20.7,0,0,1-3.86-7.75c-1-4.49.73-5.52,0-9.68a17.07,17.07,0,0,0-5.81-9.68c-3.76-3-8-3.39-13.58-3.88A45.82,45.82,0,0,0,1235.83,274.85Z"
       id="path294" />
    <path
       class="mkSabwhUYs"
       d="M690.24,217.15a13.46,13.46,0,0,0,0-8.73c-2.67-7.22-11.26-8.49-12.25-8.74a17.33,17.33,0,0,0-17.49,8.74c-.25.48-.72,3.24-1.76,8.73v1.76a7.35,7.35,0,0,0-1.76-1.76c-4.25-2.88-10.62-.38-14,1.76a16.73,16.73,0,0,0-7,8.74,17.2,17.2,0,0,0,0,10.48,22.7,22.7,0,0,0,8.75,12.24h78.75a25.32,25.32,0,0,1-5.25-5.24,18.65,18.65,0,0,1-3.48-7c-.94-4,.65-5,0-8.74a15.52,15.52,0,0,0-5.25-8.74c-3.4-2.73-7.18-3.05-12.26-3.5A43.18,43.18,0,0,0,690.24,217.15Z"
       id="path296" />
    <path
       class="mkSabwhUYs"
       d="M780.07,49.9a13.59,13.59,0,0,0,0-8.73c-2.68-7.21-11.26-8.49-12.26-8.74a17.32,17.32,0,0,0-17.48,8.74c-.25.49-.72,3.24-1.76,8.73v1.77a7.4,7.4,0,0,0-1.76-1.77c-4.25-2.88-10.63-.38-14,1.77a16.66,16.66,0,0,0-7,8.73,17.2,17.2,0,0,0,0,10.48,22.61,22.61,0,0,0,8.75,12.24h78.74a25.27,25.27,0,0,1-5.24-5.24,18.67,18.67,0,0,1-3.49-7c-.93-4,.66-5,0-8.74a15.45,15.45,0,0,0-5.24-8.73c-3.4-2.74-7.18-3.06-12.26-3.51A43.18,43.18,0,0,0,780.07,49.9Z"
       id="path298" />
    <path
       class="mkSabwhUYs"
       d="M1060.68,46.23a10.24,10.24,0,0,0,0-6.65c-2-5.49-8.57-6.46-9.33-6.65a13.17,13.17,0,0,0-13.3,6.65c-.2.37-.55,2.47-1.34,6.65v1.34a5.54,5.54,0,0,0-1.35-1.34c-3.23-2.2-8.08-.29-10.65,1.34a12.72,12.72,0,0,0-5.32,6.65,13.07,13.07,0,0,0,0,8,17.21,17.21,0,0,0,6.66,9.32H1086a19.15,19.15,0,0,1-4-4,14.21,14.21,0,0,1-2.65-5.33c-.71-3.08.5-3.79,0-6.65a11.82,11.82,0,0,0-4-6.65c-2.59-2.08-5.47-2.32-9.33-2.66A31.74,31.74,0,0,0,1060.68,46.23Z"
       id="path300" />
    <path
       class="mkSabwhUYs"
       d="M162.7,586.34a9.33,9.33,0,0,0,0-6c-1.85-5-7.78-5.86-8.47-6a12,12,0,0,0-12.07,6c-.18.34-.5,2.24-1.22,6v1.21a5,5,0,0,0-1.22-1.21c-2.94-2-7.34-.27-9.67,1.21a11.58,11.58,0,0,0-4.83,6,11.93,11.93,0,0,0,0,7.24,15.63,15.63,0,0,0,6.05,8.46h54.4a17.5,17.5,0,0,1-3.62-3.62,12.89,12.89,0,0,1-2.41-4.84c-.65-2.8.45-3.44,0-6a10.64,10.64,0,0,0-3.63-6c-2.34-1.89-5-2.11-8.46-2.42A28.06,28.06,0,0,0,162.7,586.34Z"
       id="path302" />
    <path
       class="mkSabwhUYs"
       d="M1142.63,592.32a9.46,9.46,0,0,0,0-6c-1.85-5-7.78-5.86-8.47-6a12,12,0,0,0-12.08,6c-.18.34-.5,2.25-1.22,6v1.22a4.72,4.72,0,0,0-1.22-1.22c-2.93-2-7.34-.26-9.67,1.22a11.61,11.61,0,0,0-4.83,6,11.93,11.93,0,0,0,0,7.24,15.64,15.64,0,0,0,6,8.46h54.41a17.07,17.07,0,0,1-3.63-3.62,12.74,12.74,0,0,1-2.41-4.84c-.64-2.79.46-3.44,0-6a10.71,10.71,0,0,0-3.62-6c-2.35-1.89-5-2.11-8.47-2.42A30.08,30.08,0,0,0,1142.63,592.32Z"
       id="path304" />
    <path
       class="mkSabwhUYs"
       d="M1248,84.26a10.37,10.37,0,0,0,0-6.65c-2-5.49-8.57-6.45-9.33-6.65a13.24,13.24,0,0,0-13.31,6.65c-.19.37-.54,2.47-1.34,6.65V85.6a5.5,5.5,0,0,0-1.34-1.34c-3.23-2.19-8.08-.29-10.65,1.34a12.67,12.67,0,0,0-5.32,6.65,13.1,13.1,0,0,0,0,8,17.18,17.18,0,0,0,6.66,9.31h59.93a19.1,19.1,0,0,1-4-4,14,14,0,0,1-2.65-5.32c-.71-3.09.5-3.8,0-6.65a11.72,11.72,0,0,0-4-6.65c-2.58-2.09-5.46-2.33-9.32-2.67A31.74,31.74,0,0,0,1248,84.26Z"
       id="path306" />
  </g>
  <g
     id="реплики">
    <g
       id="window8"
       style="visibility:hidden">
      <rect
         class="yQLBBpkNNY"
         x="377.04999"
         y="202"
         width="374.26999"
         height="53.110001"
         id="rect309" />
      <text
         class="mWtfkvKgBw"
         transform="translate(396.36,234.36)"
         id="text311">Я просто отдыхаю...</text>
      <line
         class="VydtEQlIIN"
         x1="725.17999"
         y1="224.61"
         x2="740.34003"
         y2="209.45"
         id="line313" />
      <line
         class="VydtEQlIIN"
         x1="740.34003"
         y1="224.61"
         x2="725.17999"
         y2="209.45"
         id="line315" />
    </g>
    <rect
       style="fill:#0000ff;fill-opacity:0"
       id="rect330"
       width="15.160034"
       height="15.160004"
       x="725.17999"
       y="209.45"
       class="button" />
  </g>
</svg>
