<?xml version="1.0" encoding="utf-8"?>
<!-- Generator: Adobe Illustrator 25.0.1, SVG Export Plug-In . SVG Version: 6.00 Build 0)  -->
<svg version="1.1" xmlns="http://www.w3.org/2000/svg" xmlns:xlink="http://www.w3.org/1999/xlink" x="0px" y="0px"
	 viewBox="0 0 1280 720" style="enable-background:new 0 0 1280 720;" xml:space="preserve">
<style type="text/css">
	.st0{fill:#F7EFE2;}
	.st1{fill:none;stroke:#FF0020;stroke-width:16;stroke-miterlimit:10;stroke-dasharray:30.47,20.31;}
	.st2{fill:none;stroke:#FF81E7;stroke-width:16;stroke-miterlimit:10;stroke-dasharray:30.47,20.31;}
	.st3{fill:none;stroke:#00FFA9;stroke-width:16;stroke-miterlimit:10;stroke-dasharray:29.94,19.96;}
	.st4{fill:#D8E5A5;}
	.st5{fill:#A8E0A1;}
	.st6{fill:#FFF3AE;}
	.st7{fill:#6000FF;}
	.st8{fill:#FF81E7;}
	.st9{fill:#FFFFFF;stroke:#FFFFFF;stroke-width:2;stroke-miterlimit:10;}
	.st10{fill:#0097DD;}
	.st11{fill:#FF76EB;}
	.st12{fill:#FFFFFF;}
	.st13{stroke:#000000;stroke-miterlimit:10;}
	.st14{fill:#FB6700;}
	.st15{fill:none;stroke:#FF0020;stroke-width:16;stroke-miterlimit:10;}
	.st16{fill:none;stroke:#FF0020;stroke-width:16;stroke-miterlimit:10;stroke-dasharray:29.82,19.88;}
	.st17{fill:none;stroke:#FF0020;stroke-width:16;stroke-miterlimit:10;stroke-dasharray:29.73,19.82;}
	.st18{fill:#6DFC6D;}
	.st19{fill:#00FFA9;}
	.st20{fill:#754C24;}
	.st21{fill:#FF0020;}
	.st22{fill:#FDFF00;}
	.st23{fill:#EB7000;}
	.st24{fill:none;}
	.st25{fill:#231F20;}
	.st26{fill:#FF00BD;stroke:#FF00BD;stroke-width:0.5;stroke-miterlimit:10;}
	.st27{opacity:0.59;}
	.st28{fill:none;stroke:#F7EFE2;stroke-width:50;stroke-miterlimit:10;}
	.st29{fill:none;stroke:#00FFA9;stroke-width:50;stroke-miterlimit:10;}
	.st30{fill:#F0ED00;}
	.st31{fill:none;stroke:#000000;stroke-miterlimit:10;}
	.st32{fill:#01140D;}
	.st33{fill:#F9C6CA;}
	.st34{fill:#FFFFFF;stroke:#000000;stroke-width:2;stroke-miterlimit:10;}
	.st35{stroke:#000000;stroke-width:0.25;stroke-miterlimit:10;}
	.st36{fill:#FFD400;}
	.st37{fill:#B9FCF7;}
	.st38{fill:#55FFEE;}
	.st39{fill:#FFFFFF;stroke:#FFFFFF;stroke-miterlimit:10;}
	.st40{fill:none;stroke:#00FFA9;stroke-width:2;stroke-miterlimit:10;}
	.st41{fill:#00FFA9;stroke:#00FFA9;stroke-width:2;stroke-miterlimit:10;}
	.st42{fill:#8E5F53;}
	.st43{fill:#634137;}
	.st44{fill:#F6A9CB;}
	.st45{fill:none;stroke:#6000FF;stroke-miterlimit:10;}
	.st46{fill:none;stroke:#F0ED00;stroke-miterlimit:10;}
	.st47{fill:none;stroke:#F0ED00;stroke-width:2;stroke-miterlimit:10;}
	.st48{fill:#A5A5A5;}
	.st49{fill:#7C7C7C;}
	.st50{display:none;}
	.st51{display:inline;}
	.st52{fill:none;stroke:#000000;stroke-width:2;stroke-miterlimit:10;}
	.st53{font-family:'IBMPlexMono-Text';}
	.st54{font-size:20px;}
	.st55{display:inline;fill:#FFFFFF;stroke:#231F20;stroke-width:2;stroke-miterlimit:10;}
	.st56{display:inline;opacity:0.12;fill:#0097DD;}
	.st57{display:inline;opacity:0.12;fill:#FF76EB;}
	.st58{display:inline;fill:#FF0020;}
	.st59{display:inline;fill:#6000FF;}
	.st60{display:inline;fill:#FF76EB;}
	.st61{display:inline;fill:#FDFF00;}
	.st62{display:inline;fill:#FB6700;}
	.st63{display:inline;fill:#FFFFFF;}
	.st64{display:inline;stroke:#000000;stroke-miterlimit:10;}
	.st65{display:inline;fill:#FFD400;}
	.st66{display:inline;fill:#EB7000;}
	.st67{display:inline;fill:#231F20;}
	.st68{display:inline;fill:#00FFA9;}
	.st69{display:inline;opacity:0.35;fill:#0097DD;}
	.st70{display:inline;opacity:0.35;}
	.st71{display:inline;opacity:0.35;fill:#0097DD;stroke:#0097DD;stroke-width:3;stroke-miterlimit:10;}
	.st72{fill:none;stroke:#000000;stroke-width:3;stroke-miterlimit:10;}
	.st73{fill:#606060;}
</style>
<g id="Layer_5">
	<rect x="-2572.9" y="-743.3" class="st0" width="3863.3" height="2193"/>
</g>
<g id="Layer_9">
	<path class="st2" d="M342.5,270.1c-18.7-23.1-42.4-58.2-75.1-27.1c-53.5,50.8-132.1,0.4-175.5,33.4
		c-60.2,45.8-120.6,19.3-165.5,8.9c-26-6.1-91.6-8.8-126.8,21.4c-33.1,28.3-57.6,49.1-117.9,27.5c-40.8-14.6-60.5,5.4-73.4,9.8
		c-24.4-0.5-48.6-5.2-71.7-14.1"/>
	<path class="st1" d="M1169.5,803.7c-31.7,14.2-73.7,37.8-107.9-5.6c-55.8-70.8-193.6,5.6-241.3-43.9
		c-66.3-68.8-184.5-6.5-247.3-15.3c-36.3-5.1-101.2-27.8-138.9-71.3c-35.5-40.9,35.3-69.2-21-154.9c-21.8-23.6-96.5-24-110.4-39.7
		c-13.6-15.3-31.1-26.6-50.6-32.6c-41.3-12.7-107.9-29.6-134.9-30.5"/>
	<path class="st3" d="M-34.7,54.3c31.3-31.8,71.2-89.1,127.9-32c88.6,89.1,218,25.8,289.9,85.3c99.8,82.6,199.2,53.1,273.2,45.3
		c42.9-4.5,151,3.8,209.4,57.4c54.9,50.3,95.4,87.3,194.8,65.2c67.2-14.9,98.8,27.1,121.2,29.2c42.6,4.2,85,0.8,125.2-10"/>
</g>
<g id="Layer_11">
	<path class="st4" d="M1011.1,682.5H552.9c-26.3,0-47.6-21.3-47.6-47.6V455.2c0-26.3,21.3-47.6,47.6-47.6h458.2
		c26.3,0,47.6,21.3,47.6,47.6v179.6C1058.7,661.2,1037.4,682.5,1011.1,682.5z"/>
	<path class="st5" d="M659.7,505.2c-91,5-146.5-12.6-185.4-45.8c-9.9-8.4-65.6-55.9-54.5-109.1c4.5-21.8,19.9-42.7,39.3-54.5
		c38.2-23.4,73.7-0.9,89.7-22c10.7-14.2-3.7-26.5,1.2-69.7c2.6-22.8,5.2-45.1,22.5-61c16.4-15.2,42-20.8,63.3-15.3
		c25.6,6.7,25.6,24.7,61.1,45.8c16.5,9.8,44.6,26.5,62.7,16.5c16.7-9.2,7.2-31.2,26.7-60.2c3.2-4.7,21.6-31.1,54.5-39.3
		c47.9-11.9,87.7,24.5,89.6,26.3c22.9,21.7,12.3,33.4,36.9,65.3c13.2,17.2,20.4,19.1,78.5,63.3c32.6,24.8,49,37.3,50.2,41.4
		C1112.3,344.2,894.1,492.4,659.7,505.2z"/>
	<path class="st6" d="M1020,460.4H867c-10.7,0-20.6,5.7-26,15l-76.5,132.5c-5.4,9.3-5.4,20.7,0,30L841,770.4c5.4,9.3,15.3,15,26,15
		h153c10.7,0,20.6-5.7,26-15l76.5-132.5c5.4-9.3,5.4-20.7,0-30L1046,475.5C1040.6,466.2,1030.7,460.4,1020,460.4z"/>
	<path class="st4" d="M1317.4,557.5v386.2c0,31.5-25.6,57.1-57.1,57.1H814.7c-31.5,0-57.1-25.6-57.1-57.1v-138
		c0-31.5,25.6-57.1,57.1-57.1h205.6c9.5,0,17.2-7.7,17.2-17.2v-191c0-15.8,12.8-28.6,28.6-28.6h205.6
		C1296.9,511.7,1317.4,532.2,1317.4,557.5z"/>
	<path class="st6" d="M415.7-373.1L687.7,98c18.5,32,64.7,32,83.1,0l272-471.1c18.5-32-4.6-72-41.6-72l-544,0
		C420.3-445.1,397.2-405.1,415.7-373.1z"/>
	<path class="st10" d="M1328.4,278.6c-29.7,13.7-63.4,1.8-130.9-21.9c-18.1-6.4-93.9-34.1-186.3-107.7
		c-77.9-62.1-74.8-82.8-122.4-98.6c-66.7-22.2-114.1,4.9-133.3-23.7c-17.7-26.4,6.8-73.2,23.7-95c6.3-8.1,35.8-43.8,78.5-45.7
		c30.5-1.3,38.3-17,45.7-28.7c18.4-29.1-3.3-68.6,27.3-110.1c47.3-64.1,292.5-37,405.4,118.7C1441.4,10.6,1412.6,239.8,1328.4,278.6
		z"/>
	<path class="st8" d="M433.9-71.1H281c-10.7,0-20.6,5.7-26,15L178.5,76.4c-5.4,9.3-5.4,20.7,0,30l76.5,132.5c5.4,9.3,15.3,15,26,15
		h153c10.7,0,20.6-5.7,26-15l76.5-132.5c5.4-9.3,5.4-20.7,0-30L459.9-56.1C454.6-65.4,444.6-71.1,433.9-71.1z"/>
</g>
<g id="Layer_1">
	<g>
		<g>
			<path class="st4" d="M356.3,288.3v260.5c0,77.2-60.7,140.1-136.9,143.8c-1.4,0.1-2.8,0.2-4.2,0.4c-4.9,0.7-10,1.1-15.1,1.1
				h-422.2c-77.8,0-140.9-63.1-140.9-140.9v-59.1c0-38.9,15.8-74.1,41.3-99.6c27.8-27.8,60.5-36,68.6-37.8
				c12.5-2.8,23.3-3.5,31.1-3.4h175.5c21.2,0,38.3-17.2,38.3-38.3v-26.7c0-13.9,1.6-27.5,4.5-40.5c39.2,4.3,77.5-4.3,99.1-15.7
				c49.5-26.3,65.1-82,16.2-115.1c19.5-7.1,40.6-11,62.5-11h0C274.7,106,356.3,187.6,356.3,288.3z"/>
			<path class="st5" d="M-213.7,355.3c-2.2,11.9,14.4,15.3,19.3,40.8c3.8,19.7-3.7,30-11.9,63.5c-8.7,35.6-13,53.4-8.9,71.1
				c7.6,32.8,38.1,51.6,62.4,66.6c38,23.4,56.1,19.6,98.1,37.8c46.5,20.2,62.5,41.4,89.2,59c88.6,58.6,255.2,51.9,296.7-24.8
				c26-48-1.6-115.2-26.5-150.2c-26.8-37.7-70.8-58-157.8-97.2C117.2,408.7,81,406,37,377.9C11.4,361.5,11.5,356.2-5.9,345
				C-84.3,294.9-208,324-213.7,355.3z"/>
			<path class="st15" d="M0.4,113.4c-2.3,0.8-5.5-0.1-9.4-2.4"/>
			<path class="st10" d="M-0.1,32.7h-456.8c-0.4,0-0.8,0-1.2,0c-20.9,0.8-31.3,25.9-17.6,41.7c32.7,37.7,65.3,73.4,97,106.1
				c21.8,22.4,43.7,43.1,65.9,63.8c1.9,1.8,4.5,2.8,7.1,2.8H-0.1c5.3,0,10.5-1,15.4-3.1c4.9-2,9.3-5,13-8.7c3.7-3.7,6.7-8.2,8.7-13
				c2-4.9,3.1-10.1,3.1-15.4V72.8c0-5.3-1-10.5-3-15.4c-2-4.9-5-9.3-8.7-13c-3.7-3.7-8.2-6.7-13-8.7C10.4,33.7,5.2,32.7-0.1,32.7z"
				/>
			<path class="st4" d="M95.2,232.1c-21.6,11.5-59.9,20-99.1,15.7c-1.5-0.2-3-0.4-4.6-0.5c-0.2,0-0.3,0-0.5,0
				c-5.8,0.6-12.9,0.7-20.3,0.7c-32.1,0-60-23-65.1-54.7c-1.4-9-0.9-17.4,1.9-25C-81,136.8-32.2,96.8,36,93.8
				c4.3-0.2,8.6,0.1,12.8,0.8C76.1,99,96.7,107,111.4,117C160.3,150.1,144.8,205.8,95.2,232.1z"/>
			<path class="st12" d="M-10.9,265.1c0.5-1.3,0.5-2.8,0-4.1c-1.3-3.4-5.3-4.1-5.8-4.1c-1.6-0.2-3.3,0.1-4.8,0.8
				c-1.5,0.7-2.7,1.9-3.5,3.3c-0.1,0.2-0.3,1.5-0.8,4.1v0.8c-0.2-0.3-0.5-0.6-0.8-0.8c-2-1.4-5-0.2-6.6,0.8c-1.5,1-2.7,2.4-3.3,4.1
				c-0.5,1.6-0.5,3.3,0,4.9c0.7,2.3,2.1,4.4,4.1,5.8H4.8c-0.9-0.7-1.8-1.5-2.5-2.5c-0.8-1-1.3-2.1-1.7-3.3c-0.4-1.9,0.3-2.4,0-4.1
				c-0.3-1.6-1.2-3.1-2.5-4.1c-1.6-1.3-3.4-1.4-5.8-1.6C-8.7,265-9.8,265-10.9,265.1z"/>
			<path class="st19" d="M13.2,152.5c-3.9,3.4-8.3,7.3-14.6,8.1c-5.5,0.7-6.7-1.6-22.3-4.4c-2.2-0.4-4.5-0.7-6.7-0.8
				c-3.6-0.2-7.3,0-10.9,0.6c-19.7,2.9-21.5,2.8-23.7,1.8c-4.4-2.1-8.8-7-7.5-10.5c1.3-3.5,7.8-3.9,8.5-3.9
				c-3.5,0.1-13.8,0-21.5-7.3c-4.2-4-9.1-11.6-6.7-15.6c2.7-4.6,13.4-2,14.2-5.1c0.7-2.6-6.5-4.6-6.9-9.5s6.1-9.9,11.7-11.7
				c9.2-2.9,17.3,2.7,18.6,3.6c0-0.3,0.5-5.1,4.3-6.9c3.8-1.8,8.6,0.6,10.7,4c0.7,1.2,1.1,2.5,1.2,3.8c0.6-2.4,1.8-4.6,3.6-6.4
				c0.2-0.2,5.1-4.9,11.8-3.8c5.7,1,10.9,5.7,11.5,11.8c0.2,3.2-0.7,6.3-2.6,8.9c2-2.2,4.4-4,7.2-5.1c4.2-1.8,12.4-3.5,16.6,0.8"/>
		</g>
	</g>
	<g id="Layer_8">
	</g>
	<g>
		<path class="st4" d="M840.4-521c-3.2,1.3-6.1,3.3-8.6,5.7c-2.4,2.5-4.4,5.4-5.7,8.6c-1.3,3.2-2,6.6-2,10.1v22.8
			c0,7,2.8,13.7,7.7,18.6c4.9,4.9,11.6,7.7,18.6,7.7h102.6c7,0,13.7,2.8,18.6,7.7c4.9,4.9,7.7,11.6,7.7,18.6v400.4
			c0,7,2.8,13.7,7.7,18.6c4.9,4.9,11.6,7.7,18.6,7.7h267.8c7,0,13.7-2.8,18.6-7.7c4.9-4.9,7.7-11.6,7.7-18.6v-219.4
			c0-7-2.8-13.7-7.7-18.6c-4.9-4.9-11.6-7.7-18.6-7.7H1144c-7,0-13.7-2.8-18.6-7.7c-4.9-4.9-7.7-11.6-7.7-18.6v-203.8
			c0-7-2.8-13.7-7.7-18.6c-4.9-4.9-11.6-7.7-18.6-7.7H850.5C847-523,843.6-522.3,840.4-521z M962-518.3c17.1-0.7,34.2-1.4,51.3-1.4
			C996.2-519.8,979.1-519,962-518.3z"/>
		<path class="st21" d="M1276.5-16.4c-16.3-9.9-30-35.2-26.4-55.5c3.1-17.5,17.4-22.5,15.3-32.1c-2.3-10.1-20.1-12.7-29.4-12.5
			c-17.7,0.2-31.7,10.2-38.2,15c-18.4,13.4-20.8,24.9-30.6,24.1c-11-1-12.8-16-23.9-16.2c-8.6-0.1-15.3,8.7-24.2,20.2
			c-14,18.3-12.1,26.3-20.7,31c-14.3,7.9-29.2-9.3-34.5-1.9c-3.7,5.2,0.8,17.8,4.7,28.9c2.9,8.1,6.3,18.8,8.8,22.9
			c66.7,0.9,133.3-2.7,200-1.8c10.2-3.8,21.1-8.7,20.8-12.8S1287.4-9.8,1276.5-16.4z"/>
		<path d="M1139.1,7.8c0.2-6,0.8-16,1.6-26c1.3-16.8,3.2-21.6,6.4-25.7c5-6.4,11.6-8.5,23.5-12.1c15.5-4.7,29-8.8,34.9-2.8
			c6.9,7-3.9,20,0,32.8c3.5,11.3,18.8,23.1,67.7,27.8c-4.2,1.6-8.4,3.1-12.5,4.6C1220.2,10.4,1179.7,6.7,1139.1,7.8z"/>
	</g>
	<g>
		<path class="st19" d="M113.7,192c-5,4.4-10.7,9.4-18.8,10.4c-7,0.9-8.5-2.1-28.7-5.6c-7.5-1.4-15.1-1.5-22.6-0.3
			c-25.3,3.7-27.6,3.6-30.5,2.3c-5.7-2.7-11.3-9-9.7-13.5c1.6-4.5,10-5,10.9-5.1c-4.5,0.2-17.7,0-27.6-9.5
			c-5.4-5.1-11.7-14.9-8.6-20.1c3.5-5.9,17.2-2.5,18.3-6.6c0.9-3.3-8.4-5.9-8.9-12.2c-0.5-6.3,7.9-12.7,15-15
			c11.8-3.7,22.2,3.4,23.8,4.6c0-0.4,0.7-6.5,5.6-8.9c4.9-2.4,11.1,0.7,13.7,5.1c0.9,1.5,1.4,3.2,1.6,4.9c0.7-3.1,2.3-6,4.6-8.2
			c2-1.9,4.4-3.3,7.1-4.1c2.6-0.8,5.4-1.1,8.2-0.7c7.3,1.2,14,7.3,14.7,15.2c0.3,4.1-0.9,8.1-3.4,11.4c2.5-2.8,5.7-5.1,9.2-6.6
			c5.3-2.2,15.9-4.5,21.3,1c6.3,6.4,2.1,19.7-3,26.8c-2.2,3.1-5,5.7-8.2,7.7c2-0.5,4.1-0.7,6.1-0.6c8.6,0.4,19.2,5.7,19.8,12.9
			C124.1,182.9,119.3,187,113.7,192z"/>
		<path class="st20" d="M60.7,182.8H50.4v77.2h10.3V182.8z"/>
		<path class="st19" d="M54.9,190.5c11.7,0,21.2-7.8,21.2-17.4c0-9.6-9.5-17.4-21.2-17.4c-11.7,0-21.2,7.8-21.2,17.4
			C33.7,182.7,43.2,190.5,54.9,190.5z"/>
	</g>
	<g>
		<path class="st19" d="M311.3,483.8c-3.2,2.8-6.8,6-12,6.7c-4.5,0.6-5.5-1.3-18.4-3.6c-4.8-0.9-9.7-0.9-14.5-0.2
			c-16.2,2.4-17.7,2.3-19.5,1.5c-3.7-1.7-7.2-5.8-6.2-8.6c1-2.9,6.4-3.2,7-3.2c-2.9,0.1-11.4,0-17.7-6.1c-3.4-3.3-7.5-9.5-5.5-12.9
			c2.2-3.8,11-1.6,11.7-4.2c0.6-2.1-5.4-3.8-5.7-7.8c-0.3-4,5.1-8.2,9.6-9.6c7.6-2.4,14.3,2.2,15.3,2.9c0-0.3,0.4-4.2,3.6-5.7
			c3.1-1.5,7.1,0.5,8.8,3.3c0.6,1,0.9,2,1,3.1c0.5-2,1.5-3.8,2.9-5.3c1.3-1.2,2.8-2.1,4.5-2.6c1.7-0.5,3.5-0.7,5.2-0.4
			c4.7,0.8,9,4.7,9.4,9.8c0.2,2.6-0.6,5.2-2.2,7.3c1.6-1.8,3.6-3.3,5.9-4.2c3.4-1.4,10.2-2.9,13.7,0.6c4,4.1,1.4,12.6-2,17.2
			c-1.4,2-3.2,3.6-5.2,4.9c1.3-0.3,2.6-0.4,3.9-0.4c5.5,0.2,12.3,3.7,12.7,8.3C318,478,314.9,480.6,311.3,483.8z"/>
		<path class="st20" d="M277.3,477.9h-6.6v49.5h6.6V477.9z"/>
		<path class="st19" d="M273.6,482.9c7.5,0,13.6-5,13.6-11.1c0-6.2-6.1-11.1-13.6-11.1c-7.5,0-13.6,5-13.6,11.1
			C260,477.9,266.1,482.9,273.6,482.9z"/>
	</g>
</g>
<g id="Layer_2">
	<g>
		<path class="st30" d="M370.6,114.4c-3.6,3.5-6.8,7.4-9.6,11.5l-26.6-4.7c13.6-20.5-6.5-45.7-27.8-33.5c-2.8,1.9-5.2,4.4-6.9,7.3
			c-19.4-6.4-40.1-7.9-60.2-4.2c0.2-4.9,0.2-9.8,0.2-14.7c20.7-6.8,65.1-31.3,74.3-77.1l8.6,24.5c71.1-34.3,136.1,8.6,120.9,83.4
			c-1.4,5-3.2,9.9-5.6,14.5C422.5,98.6,399,85,370.6,114.4z"/>
		<path class="st30" d="M361.7,35.4l-41.4,116c51,14.4,98.4,1.3,98.1-41.4c0.5-26.2-17.3-47.8-31.1-56.6
			c-31.3-20.2-83.5-9.2-116.6,34.2c44.3,15.8,48.8,62.5,21.2,86.6h24.2c12.8-13.1,30.7-43.3,21.9-76c23.1-14.1,47.6-21.3,58.2-12.3
			c12.9,11.1,7.3,48.3-22.9,88.2h28.9c18.2-19.3,32.1-42.2,41-67.1L361.7,35.4z"/>
		<path class="st12" d="M305.1,74.1c-1.9,0-3.7-0.5-5.3-1.3c-1.3-0.7-2.4-1.5-3.5-2.5c-1.3-1.2-2.2-2.7-2.7-4.4
			c-0.7-2.4-0.7-5,0.1-7.4c0.8-2.4,2.3-4.5,4.4-6c6.9-4.9,19-0.3,20.5,6.9C320.1,65.8,313.1,74.2,305.1,74.1z"/>
		<path class="st35" d="M305.7,73.7c-0.5,0-1.2,0-1.7,0c-1.7-0.2-3.3-0.6-4.8-1.4c-1.2-0.5-2.3-1.3-3.1-2.3
			c-0.3-0.3-0.6-0.7-0.9-1.1l-0.4-0.6c-3.6-4.4-1.8-10.3,1.3-14.4c2.2,0.3,4.2,1.1,6,2.3c1.8,1.2,3.3,2.9,4.4,4.8
			c1.1,1.9,1.7,4,1.8,6.2c0.1,2.2-0.3,4.4-1.2,6.4C306.6,73.7,306.2,73.7,305.7,73.7z"/>
		<path class="st22" d="M433.8,53.5c-2.6-0.6-3.8,3.4-1.2,4c3.7,1.2,7.6,1.4,11.3,0.6c1.5-0.4,2.9-1.2,4-2.3c1.1-1,2-2.3,2.6-3.8
			c0.4-1.4,0.4-3,0.1-4.4c-0.4-1.5-1.1-2.8-2.1-3.9c-0.8-1-2-2.4-2.4-3c-0.4-0.6-1.7-2.1-1.3-2.8l-0.6,0.9c0.3-0.4-0.3,0,0,0
			l0.8-0.2l2-0.6l3.7-1l7.7-2.1c2.5-0.6,1.6-4.8-1-4l-13,3.5c-1.6,0.4-3.5,0.9-4,2.7c-0.2,1.6,0.1,3.1,1,4.5
			c1.3,2.3,3.6,4.1,4.7,6.5c0.2,0.5,0.3,1.1,0.3,1.7s-0.1,1.1-0.4,1.7c-0.2,0.5-0.6,1-1,1.4c-0.4,0.4-0.9,0.7-1.4,0.9
			c-3.2,1.2-6.8,1.2-10,0L433.8,53.5z"/>
	</g>
	<g>
		<path class="st33" d="M552.2,589.3c0.3,0.6,1.5,3,9.9,4.6c3.4,0.7,6.9,1.1,10.4,1.2c10.8,0,13.1-2.6,19.1-0.6
			c2.9,0.8,5.4,2.5,7.2,4.9c1,1.5,1.4,2.8,2,9c0.8,6.2,0.8,12.4,0,18.6c-0.1,1.9-0.8,3.8-2,5.2c-1.8,1.8-3.3,1.1-4.9,2.9
			c-0.8,1-1.3,2.1-1.5,3.3c-0.2,1.2-0.1,2.5,0.4,3.6c0.5,1,1.2,1.8,2.1,2.5c0.8,0.7,1.8,1.2,2.9,1.5c3.6,1.4,7.6,1.5,11.3,0.3
			c1.7-1.6,4-4,6.7-7c6.3-6.9,6.8-8.6,7-9.6c0.7-3.2-0.8-3.5-1.7-11c-1-8.1,0.5-10.4,1.2-11.3c1.3-1.7,3.7-3.3,4.9-2.6
			c1.2,0.7,0.5,3.8,0,11c-0.4,6.8-0.6,10.2,0.6,13.9c1.2,3.4,3.2,6.5,5.8,9c3.1,3,6.5,6.4,10.7,5.5c2-0.5,3.7-1.6,4.9-3.2
			c1.3-1.6,2-3.5,2-5.5c-0.2-3.1-2.9-3.4-4.4-7.5c-1.7-4.9,0.1-9.7,0.9-11.6c1-2.6,2.7-6.9,7.3-9c2.8-1.2,6-1.4,9-0.6
			c1.9,0.5,3.6,1.3,5.1,2.5c1.5,1.2,2.7,2.7,3.6,4.4c1.8,4,0.7,7.7,0,10.4c-0.6,2.1-1.9,6.9-6.1,9.9c-2,1.5-3.6,1.7-4.4,3.5
			c-0.4,0.9-0.5,1.9-0.3,2.9c0.2,1,0.6,1.9,1.2,2.6c2.7,3,9.2,1,14.2-0.6c5.5-1.7,11.3-3.6,12.5-7.8c0.7-2.7-1.2-3.5-1.5-7.8
			c-0.4-6.6,3.4-13.4,6.1-13.3c1.3,0,2,1.7,3.5,4.6c1.8,3.8,4,8.1,2.3,11.9c-1.2,2.8-3.3,2.3-5.8,6.4c-1.1,1.8-2.7,4.4-1.7,6.4
			c1.1,2.5,5.5,2.7,8.7,2.9c2.4,0.1,4.7-0.1,7-0.9c1.9-0.5,3.7-1.5,5.2-2.9c6.7-10.9,12.7-23.9,4.1-35.7c-0.2-1.6,0.5-4,1.7-8.7
			c1.6-5.8,2.3-7.6,3-9.9c1.2-5.3,1.2-10.9,0-16.2c-1.6-8-5.6-15.4-11.3-21.2c-6.7-6.4-15.4-10.5-24.6-11.6
			c-1.5-0.2-8.7,0.4-23.2,1.5c-9.7,0.7-12.6,1.1-16.5,2.6c-4.2,1.7-8.3,3.8-12.2,6.1c-4.4,2.6-5.4,3.7-8.1,4.1
			c-0.9,0.1-2.4,0.3-10.4-1.7c-6.6-1.6-7.1-2.1-9.3-2c-3.1,0.2-6.2,1.1-9,2.6c-6.1,3-6.3,5.7-10.7,6.4c-2.3,0.3-4.7,0.2-7-0.3
			c-4.3-0.6-5.6-1.6-7-0.9c-1.3,0.8-2.3,2.8-1.5,9c-2.1-0.3-4.3,0.2-6.1,1.5c-0.7,0.5-1.2,1.1-3.5,5.2c-1,1.8-1.8,3.3-2.3,4.4
			c-1.5,0.5-2.9,1.2-4.1,2.3c-1.2,1.1-2.2,2.3-2.8,3.8c-0.5,0.9-0.7,2-0.8,3C551.7,587.2,551.8,588.3,552.2,589.3z"/>
		<path class="st12" d="M579.5,575.9c-0.4-2.3-4.2-3.9-6.5-2.4c-0.7,0.4-1.2,1.1-1.5,1.8s-0.3,1.6-0.1,2.4c0.1,0.6,0.4,1.1,0.8,1.5
			c0.3,0.3,0.7,0.6,1.1,0.8c0.5,0.3,1.1,0.4,1.7,0.5c0.6,0,1.2-0.1,1.8-0.3c0.6-0.2,1.1-0.6,1.5-1c0.4-0.4,0.8-0.9,1-1.5
			C579.4,577.1,579.5,576.5,579.5,575.9z"/>
		<path class="st13" d="M575.6,580.3c0.4-0.6,0.6-1.3,0.5-2c0-0.7-0.2-1.4-0.6-2c-0.3-0.6-0.7-1.2-1.3-1.6c-0.6-0.4-1.2-0.7-1.9-0.7
			c-0.6,0.6-1,1.4-1.1,2.2c-0.1,0.8,0.1,1.7,0.5,2.4c0,0.1,0.1,0.1,0.1,0.2c0.1,0.2,0.2,0.2,0.3,0.4c0.3,0.3,0.6,0.6,1,0.8
			c0.5,0.2,1,0.4,1.5,0.5h0.5C575.3,580.3,575.5,580.3,575.6,580.3z"/>
	</g>
</g>
<g id="Layer_3">
	<g>
		<path class="st23" d="M201.8,265.8c-7.8,1-12.7,0.7-18.6,0.7c-11.9,0.1-17.8,0.1-22.3,1.7c-9.7,3.5-15.5,11.3-23.5,22
			c-2.5,3.4-5.1,7-7.6,12.2c-3.2,7-2.3,8.6-5.4,14.4c-3.2,6.1-7.4,10.3-10.3,13.2c-5.7,5.7-7.8,5.9-10,10.3c-0.9,1.8-3.2,6.3-2,11.7
			c1.4,6.2,6.5,9.4,7.6,10c0.4-1.3,1.1-3.1,2.7-4.6c2.4-2.4,5.1-2.5,8.3-3.4c5-1.5,9.5-4.6,12-7.8c3.5-4.4,3.7-9.5,3.9-13.7
			c0.5-9.5-3.1-13.1-0.7-18.3c1.6-3.6,5-5.5,7.3-6.6c0.4,1.8,0.9,4.3,1,7.3c0,2.5,0.1,5.5-1.2,9.1c-1.2,3.3-3.2,3.3-4.7,7.2
			c-0.7,1.7-0.9,3-1.1,4.4c-0.5,3-0.3,5.3,0,9.8c0.4,5.3,0.6,3.6,1.3,10c0.3,3.3,0.3,4.5,1.4,5.5c1.1,1.1,2.8,1.2,6.2,1.4
			c4.4,0.3,5.9-0.6,6.3-0.9c0.8-0.5,1.7-1,1.8-1.8c0.3-1.7-2.6-3.6-4.4-4.4c-1.6-0.7-3-0.8-3.8-0.8c-0.5-2-1.2-5.2-0.9-9.1
			c0.1-2.3,0.2-3.8,1-5.3c1.6-3,4.3-3.3,8.9-5.9c3.8-2.1,6.2-4.3,10.1-7.9c4.6-4.3,7.6-8.1,7.6-8.1c0,0-2.5,2.8-13.8,15.6
			c-0.1,0.5-0.3,1.3-0.3,2.3c0,1.8,0.6,3.1,0.8,3.6c0.8,1.9,1.7,4.8,3.6,10.5c1.6,4.9,1.5,6,2.9,7.1c1.4,1.1,2.9,1.2,5.6,1.3
			c3.6,0.2,6.8,0.4,8.3-1.6c1.2-1.8,0.5-4.3,0.1-5.3c-1.2-0.3-2.6-0.6-4.1-0.8c-1-0.1-2-0.2-2.9-0.3c-1.3-2-2-3.9-2.5-5.2
			c-1-2.7-1.8-5.1-1.2-7.9c0.1-0.3,0.4-1.5,1.3-3.1c2.7-4.4,6.3-5.1,10.3-8.5c1.4-1.3,3.4-3.3,5.2-6.7c2.2,0.2,4.4,0.4,6.7,0.7
			c3.3,0.3,6.5,0.7,9.7,1.1c-0.4,5.6-0.7,10.3-0.9,13.9c-0.5,9,0.1,1.9-0.1,15.1c-0.1,5.2-0.2,7.8,1.6,9.3c1,0.8,2.8,1,6.3,1.3
			c4.2,0.4,6.3,0.6,7.2-0.5c1.1-1.4,0.8-4.1-0.8-5.7c-1.3-1.3-3.1-1.7-4.9-1.2c0.1-1.4,0.2-3.5,0.5-6c0.7-5.6,1.2-9.8,2.9-14.4
			c0.9-2.3,2.4-5.5,5.2-9.1c-0.6,1.7-1.2,4.1-1.6,7.1c-0.2,1.4-0.6,5.4,0.9,14.1c0.6,3.6,1.6,8.2,3.2,13.6c4.9,0,9.9-0.1,14.8-0.1
			c0.4-1.4,0.2-2.5,0-3.1c-0.8-2.6-4-4.5-7.9-4.5c-0.1-1-0.1-2.5-0.1-4.3c0-5,0.6-7.4,1.9-14.9c1.6-9.8,1.7-13.2,4.3-15.9
			c0,0,0,0,2.7-2.7c4.2-4.2,4.4-4.4,4.7-4.7c4.1-4.1,6.7-6.3,8-7.6c2.8-2.8,5.9-7.9,6.7-17.6c0.2-0.5,0.7-1.4,1.6-2.3
			c0.2-0.2,1.1-1,2.7-1.5c0.7-0.2,1.5-0.3,3.9-0.1c3.3,0.3,3.5,0.6,4.9,0.5c2-0.1,3.5-0.9,4.4-1.3c2.7-1.4,4.2-3.4,4.9-4.5
			c-2.1-2.2-3.8-3.9-4.9-5.2c-2.5-2.6-5.5-5.9-5.5-5.9c0.2-1.1,0.4-2.8,0-4.8c-0.4-2.3-1.4-3.7-3.1-6.1c-2.4-3.5-5-5.9-6.8-7.3
			c-0.6-0.5-1.2-0.9-1.6-1.2c0.2-0.7,0.3-1.5,0.4-2.3c0.3-3.9-1-7-2-8.8c-1.2,0.4-3.6,1.3-5.8,3.6c-1.9,2-2.8,4.1-3.2,5.3
			c-1.4-0.2-3.4-0.3-5.7,0.1c-2.5,0.5-4.7,1.5-7.4,3.3c-3.5,2.4-5.2,4.4-8.8,8.1c-5.6,5.8-8.4,8.7-11.2,10.2
			C210.6,264.7,207.6,265.1,201.8,265.8z"/>
		<g>
			<path class="st12" d="M251.2,259.5c0.3-3.5,5.7-6.4,9.2-4.5c1,0.6,1.9,1.5,2.4,2.5c0.5,1.1,0.7,2.3,0.5,3.5
				c-0.1,0.8-0.5,1.6-1,2.3c-0.4,0.5-0.9,1-1.5,1.4c-0.7,0.5-1.5,0.8-2.4,1C254.7,266.2,251,262.6,251.2,259.5z"/>
			<path class="st13" d="M257.5,265.5c-1.1-1.2-1.4-3.6-0.4-6c1-2.4,2.8-3.9,4.5-3.9c1.7,1.8,2.9,4.5,1.4,6.7c0,0-0.1,0.3-0.2,0.3
				c-0.1,0.2-0.2,0.4-0.4,0.6c-0.3,0.5-0.8,1-1.3,1.3c-0.7,0.4-1.4,0.7-2.2,0.9c-0.2,0-0.6,0.1-0.8,0.1
				C258,265.5,257.8,265.5,257.5,265.5z"/>
		</g>
	</g>
	<g>
		<path class="st8" d="M941.6,647.9c0.5,2.6,1.4,6.9-1.2,11c-2.4,3.9-6.3,5.2-7.7,5.6c-1.4,0.4-3.5,1-5.9,0
			c-1.7-0.7-2.8-1.9-3.3-2.6c-2,2-4,4.6-3.3,6.6c0.4,1.2,1.4,1.2,2.8,2.8c1.9,2.2,3.2,5.8,1.9,7.5c-0.4,0.5-1.1,1.1-5.2,0.9
			c-4.4-0.2-6.5-1.1-9.9-1.6c-4.7-0.8-8.5-0.5-10.6-0.2c-5.7,0.6-8.5,0.9-10.6,1.9c-0.6,0.3-2.2,1.1-4,0.7c-1.1-0.3-1.9-0.9-2.3-1.4
			c-0.3-1.1-0.6-3.4,0.2-6.1c1.1-3.5,3.6-5.4,4.7-6.1c2.1-1.4,4.1-1.7,5.2-1.9c-3.4-2.4-15.1-11-16-24.2c-0.1-1.6-0.1-3.3,0.2-5.2
			c-6.9,4-13.9,4.8-17.6,1.6c-0.5-0.4-2.7-2.2-2.8-5.2c-0.2-2.7,1.5-5,3.1-6.1c1.7-1.2,2.4-0.5,5.6-1.6c1.7-0.6,4.6-1.8,6.9-3.5
			c2.8-2.1,3-2.5,4.3-4.7c2-3.2,3.9-9,4.4-13.1c-8.1,5.1-24.9,7-28.9,2c-0.7-0.8-1.7-2.6-0.8-9.1c1-6.7,3.1-21.5,16.6-30.4
			c7.6-5,15.5-5.8,19.7-5.9c2.8-4.8,5.9-7.8,8.1-9.6c3.3-2.6,5.4-3.3,10.4-7.4c2.9-2.4,4.4-3.6,5.4-5.2c2.3-3.4,1.9-5.4,4.7-10.1
			c1.6-2.7,2.7-4.4,4.2-4.4c2.2,0,3.9,3.9,4.9,6.4c1.4,3.2,3.2,7.6,2,12.6c-0.7,2.6-1.5,2.6-6.4,10.1c-4.2,6.3-3.7,6.5-5.9,9.1
			c-2.3,2.6-5.3,6.1-10.4,7.6c-2.6,0.8-4.9,0.8-6.4,0.7c0.3,1.1,1,2.7,2.3,4c1.2,1.2,4.3,3.5,17.6,2.3c7.8-0.7,8.3-1.6,12.7-1.2
			c2.4,0.2,10.9,1,12.2,5.4c0.9,2.9-1.9,6.1-3.3,7.7c-3.5,4.1-7.9,5.4-13.9,7.3c-3.2,1-6.3,1.9-10.6,2.1c-3.2,0.1-7,0.3-11.3-1.6
			c-2.7-1.2-4.7-2.8-5.9-4c0,1.6,4.7,13,8.1,19.8c0.8,1.7,1.9,3.2,3.1,4.6c4,4.6,14,16,14.4,16.5c0,0,0,0,0,0
			c0.8,0.8,1.4,1.6,1.8,2.5c0.9,1.8,1.1,3.5,1.2,4.7c0.8-0.7,4.4-3.8,8.2-2.8C939.7,638.3,941,645.1,941.6,647.9z"/>
		<g>
			<path class="st12" d="M878.9,590.8c-0.3-3.1-5-5.6-8.2-4c-0.9,0.5-1.7,1.3-2.1,2.2c-0.5,0.9-0.6,2-0.4,3.1c0.1,0.7,0.4,1.4,0.9,2
				c0.4,0.5,0.8,0.9,1.3,1.2c0.6,0.4,1.4,0.7,2.1,0.8C875.8,596.7,879.2,593.5,878.9,590.8z"/>
			<path d="M873.4,596.1c1-1,1.3-3.2,0.4-5.3c-0.9-2.1-2.5-3.4-4-3.4c-1.5,1.6-2.6,3.9-1.3,5.9c0,0,0.1,0.2,0.1,0.3
				c0.1,0.2,0.2,0.3,0.3,0.5c0.3,0.5,0.7,0.8,1.2,1.1c0.6,0.4,1.2,0.7,1.9,0.8c0.2,0,0.5,0,0.7,0.1
				C873,596.1,873.2,596.1,873.4,596.1z"/>
		</g>
		<path class="st21" d="M850.7,602.1c-0.5,0.7,0.5,2.2,0.7,2.6c0.4,0.7,0.9,1.5,1.8,1.7c1.6,0.5,3.8-1.2,3.7-2.4
			C856.8,602.4,851.5,601,850.7,602.1z"/>
		<g>
			<path class="st12" d="M865.5,584.7c-0.2-2.8-4.5-5.1-7.3-3.6c-0.8,0.5-1.5,1.2-1.9,2c-0.4,0.9-0.5,1.8-0.4,2.8
				c0.1,0.7,0.4,1.3,0.8,1.8c0.3,0.4,0.7,0.8,1.2,1.1c0.6,0.4,1.2,0.6,1.9,0.8C862.7,590,865.8,587.2,865.5,584.7z"/>
			<path d="M860.5,589.5c0.9-0.9,1.1-2.9,0.3-4.8c-0.8-1.9-2.2-3.1-3.6-3.1c-1.3,1.4-2.3,3.5-1.1,5.3c0,0,0.1,0.2,0.1,0.2
				c0.1,0.2,0.2,0.3,0.3,0.4c0.3,0.4,0.6,0.8,1.1,1c0.5,0.3,1.1,0.6,1.7,0.7c0.2,0,0.5,0,0.6,0.1
				C860.1,589.5,860.3,589.5,860.5,589.5z"/>
		</g>
	</g>
</g>
<g id="Layer_4">
	<g>
		<path class="st40" d="M725.6,32.3c-3.1-12.5-4.9-28-2.2-45.2c0.4-2.8,1-5.6,1.6-8.2"/>
		<path class="st40" d="M734.7,29.3c6.5-11,16.1-23.4,30-33.9c2.3-1.7,4.6-3.3,6.9-4.8"/>
		<path class="st40" d="M728.7,31.7c1.3-12.8,4.7-28,13-43.4c1.4-2.5,2.8-4.9,4.2-7.2"/>
		<path class="st41" d="M728.3,33.7c1.7-2.2-5.7-16.5-20.1-21.4c-9.8-3.4-27.3-3.9-38.4,8.4c-3.5,3.9-5.4,8.1-6.6,11.1
			c9.6-5,22.5-9.8,36-8.7C717.1,24.6,726.6,35.8,728.3,33.7z"/>
		<path class="st41" d="M728.3,33.1c-1.1-1.8,8.2-12.7,21.8-15.7c9.3-2.1,24.6-1.4,31.8,9.1c2.3,3.3,3.1,6.8,3.5,9.3
			c-7.4-4.5-17.7-9.3-29.7-9.2C739.8,26.6,729.3,34.9,728.3,33.1z"/>
	</g>
</g>
<g id="Layer_10">
</g>
<g id="clouds">
	<path class="st12" d="M906.6,21.1c0.9-2.5,0.9-5.3,0-7.8c-2.4-6.4-10-7.6-10.9-7.8c-3.1-0.4-6.2,0.1-9,1.5
		c-2.8,1.4-5.1,3.6-6.6,6.3c-0.2,0.4-0.6,2.9-1.6,7.8v1.6c-0.4-0.6-1-1.1-1.6-1.6c-3.8-2.6-9.5-0.3-12.5,1.6
		c-2.9,1.8-5.1,4.6-6.2,7.8c-1,3-1,6.3,0,9.3c1.3,4.4,4,8.3,7.8,10.9h70.3c-1.8-1.3-3.4-2.9-4.7-4.7c-1.5-1.8-2.5-4-3.1-6.2
		c-0.8-3.6,0.6-4.4,0-7.8c-0.6-3.1-2.3-5.8-4.7-7.8c-3-2.4-6.4-2.7-10.9-3.1C910.7,20.9,908.7,20.9,906.6,21.1z"/>
	<path class="st12" d="M1190.1,84.4c0.9-2.5,0.9-5.3,0-7.8c-2.4-6.4-10-7.6-10.9-7.8c-3.1-0.4-6.2,0.1-9,1.5
		c-2.8,1.4-5.1,3.6-6.6,6.3c-0.2,0.4-0.6,2.9-1.6,7.8V86c-0.4-0.6-1-1.1-1.6-1.6c-3.8-2.6-9.5-0.3-12.5,1.6
		c-2.9,1.8-5.1,4.6-6.2,7.8c-1,3-1,6.3,0,9.3c1.3,4.4,4,8.3,7.8,10.9h70.3c-1.8-1.3-3.4-2.9-4.7-4.7c-1.5-1.8-2.5-4-3.1-6.2
		c-0.8-3.6,0.6-4.4,0-7.8c-0.6-3.1-2.3-5.8-4.7-7.8c-3-2.4-6.4-2.7-10.9-3.1C1194.2,84.3,1192.1,84.3,1190.1,84.4z"/>
	<path class="st12" d="M546.4,87.7c0.9-2.5,0.9-5.3,0-7.8c-2.4-6.4-10-7.6-10.9-7.8c-3.1-0.4-6.2,0.1-9,1.5
		c-2.8,1.4-5.1,3.6-6.6,6.3c-0.2,0.4-0.6,2.9-1.6,7.8v1.6c-0.4-0.6-1-1.1-1.6-1.6c-3.8-2.6-9.5-0.3-12.5,1.6
		c-2.9,1.8-5.1,4.6-6.2,7.8c-1,3-1,6.3,0,9.3c1.3,4.4,4,8.3,7.8,10.9h70.3c-1.8-1.3-3.4-2.9-4.7-4.7c-1.5-1.8-2.5-4-3.1-6.2
		c-0.8-3.6,0.6-4.4,0-7.8c-0.6-3.1-2.3-5.8-4.7-7.8c-3-2.4-6.4-2.7-10.9-3.1C550.6,87.5,548.5,87.5,546.4,87.7z"/>
	<path class="st12" d="M886.5,138.8c0.9-2.5,0.9-5.3,0-7.8c-2.4-6.4-10-7.6-10.9-7.8c-3.1-0.4-6.2,0.1-9,1.5
		c-2.8,1.4-5.1,3.6-6.6,6.3c-0.2,0.4-0.6,2.9-1.6,7.8v1.6c-0.4-0.6-1-1.1-1.6-1.6c-3.8-2.6-9.5-0.3-12.5,1.6
		c-2.9,1.8-5.1,4.6-6.2,7.8c-1,3-1,6.3,0,9.3c1.3,4.4,4,8.3,7.8,10.9h70.3c-1.8-1.3-3.4-2.9-4.7-4.7c-1.5-1.8-2.5-4-3.1-6.2
		c-0.8-3.6,0.6-4.4,0-7.8c-0.6-3.1-2.3-5.8-4.7-7.8c-3-2.4-6.4-2.7-10.9-3.1C890.7,138.6,888.6,138.6,886.5,138.8z"/>
	<path class="st12" d="M535,232.1c0.9-2.5,0.9-5.3,0-7.8c-2.4-6.4-10-7.6-10.9-7.8c-3.1-0.4-6.2,0.1-9,1.5c-2.8,1.4-5.1,3.6-6.6,6.3
		c-0.2,0.4-0.6,2.9-1.6,7.8v1.6c-0.4-0.6-1-1.1-1.6-1.6c-3.8-2.6-9.5-0.3-12.5,1.6c-2.9,1.8-5.1,4.6-6.2,7.8c-1,3-1,6.3,0,9.3
		c1.3,4.4,4,8.3,7.8,10.9h70.3c-1.8-1.3-3.4-2.9-4.7-4.7c-1.5-1.8-2.5-4-3.1-6.2c-0.8-3.6,0.6-4.4,0-7.8c-0.6-3.1-2.3-5.8-4.7-7.8
		c-3-2.4-6.4-2.7-10.9-3.1C539.1,231.9,537.1,231.9,535,232.1z"/>
	<path class="st12" d="M913.1,377.7c0.9-2.5,0.9-5.3,0-7.8c-2.4-6.4-10-7.6-10.9-7.8c-3.1-0.4-6.2,0.1-9,1.5
		c-2.8,1.4-5.1,3.6-6.6,6.3c-0.2,0.4-0.6,2.9-1.6,7.8v1.6c-0.4-0.6-1-1.1-1.6-1.6c-3.8-2.6-9.5-0.3-12.5,1.6
		c-2.9,1.8-5.1,4.6-6.2,7.8c-1,3-1,6.3,0,9.3c1.3,4.4,4,8.3,7.8,10.9h70.3c-1.8-1.3-3.4-2.9-4.7-4.7c-1.5-1.8-2.5-4-3.1-6.2
		c-0.8-3.6,0.6-4.4,0-7.8c-0.6-3.1-2.3-5.8-4.7-7.8c-3-2.4-6.4-2.7-10.9-3.1C917.3,377.6,915.2,377.6,913.1,377.7z"/>
	<path class="st12" d="M256.5,582.5c0.9-2.5,0.9-5.3,0-7.8c-2.4-6.4-10-7.6-10.9-7.8c-3.1-0.4-6.2,0.1-9,1.5
		c-2.8,1.4-5.1,3.6-6.6,6.3c-0.2,0.4-0.6,2.9-1.6,7.8v1.6c-0.4-0.6-1-1.1-1.6-1.6c-3.8-2.6-9.5-0.3-12.5,1.6
		c-2.9,1.8-5.1,4.6-6.2,7.8c-1,3-1,6.3,0,9.3c1.3,4.4,4,8.3,7.8,10.9h70.3c-1.8-1.3-3.4-2.9-4.7-4.7c-1.5-1.8-2.5-4-3.1-6.2
		c-0.8-3.6,0.6-4.4,0-7.8c-0.6-3.1-2.3-5.8-4.7-7.8c-3-2.4-6.4-2.7-10.9-3.1C260.7,582.4,258.6,582.4,256.5,582.5z"/>
	<path class="st12" d="M383.3,331.5c1.4-4,1.4-8.4,0-12.5c-3.8-10.3-16.1-12.1-17.5-12.5c-4.9-0.7-10,0.2-14.4,2.4
		c-4.5,2.2-8.1,5.7-10.6,10.1c-0.4,0.7-1,4.6-2.5,12.5v2.5c-0.7-1-1.5-1.8-2.5-2.5c-6.1-4.1-15.2-0.5-20,2.5
		c-4.7,2.9-8.2,7.3-10,12.5c-1.6,4.9-1.6,10.1,0,15c2.1,7.1,6.5,13.3,12.5,17.5h112.6c-2.9-2.1-5.4-4.6-7.5-7.5c-2.4-2.9-4-6.4-5-10
		c-1.3-5.8,0.9-7.1,0-12.5c-1-4.9-3.7-9.3-7.5-12.5c-4.9-3.9-10.3-4.4-17.5-5C390,331.2,386.7,331.2,383.3,331.5z"/>
	<path class="st12" d="M1157.2,210.2c1.4-4,1.4-8.4,0-12.5c-3.8-10.3-16.1-12.1-17.5-12.5c-4.9-0.7-10,0.2-14.4,2.4
		c-4.5,2.2-8.1,5.7-10.6,10.1c-0.4,0.7-1,4.6-2.5,12.5v2.5c-0.7-1-1.5-1.8-2.5-2.5c-6.1-4.1-15.2-0.5-20,2.5
		c-4.7,2.9-8.2,7.3-10,12.5c-1.6,4.9-1.6,10.1,0,15c2.1,7.1,6.5,13.3,12.5,17.5h112.6c-2.9-2.1-5.4-4.6-7.5-7.5c-2.4-2.9-4-6.4-5-10
		c-1.3-5.8,0.9-7.1,0-12.5c-1-4.9-3.7-9.3-7.5-12.5c-4.9-3.9-10.3-4.4-17.5-5C1163.9,210,1160.5,210,1157.2,210.2z"/>
	<path class="st12" d="M782.1,474.2c1.4-4,1.4-8.4,0-12.5c-3.8-10.3-16.1-12.1-17.5-12.5c-4.9-0.7-10,0.2-14.4,2.4
		c-4.5,2.2-8.1,5.7-10.6,10.1c-0.4,0.7-1,4.6-2.5,12.5v2.5c-0.7-1-1.5-1.8-2.5-2.5c-6.1-4.1-15.2-0.5-20,2.5
		c-4.7,2.9-8.2,7.3-10,12.5c-1.6,4.9-1.6,10.1,0,15c2.1,7.1,6.5,13.3,12.5,17.5h112.6c-2.9-2.1-5.4-4.6-7.5-7.5c-2.4-2.9-4-6.4-5-10
		c-1.3-5.8,0.9-7.1,0-12.5c-1-4.9-3.7-9.3-7.5-12.5c-4.9-3.9-10.3-4.4-17.5-5C788.8,474,785.4,474,782.1,474.2z"/>
	<path class="st12" d="M428.6,630.9c1.4-4,1.4-8.4,0-12.5c-3.8-10.3-16.1-12.1-17.5-12.5c-4.9-0.7-10,0.2-14.4,2.4
		c-4.5,2.2-8.1,5.7-10.6,10.1c-0.4,0.7-1,4.6-2.5,12.5v2.5c-0.7-1-1.5-1.8-2.5-2.5c-6.1-4.1-15.2-0.5-20,2.5
		c-4.7,2.9-8.2,7.3-10,12.5c-1.6,4.9-1.6,10.1,0,15c2.1,7.1,6.5,13.3,12.5,17.5h112.6c-2.9-2.1-5.4-4.6-7.5-7.5c-2.4-2.9-4-6.4-5-10
		c-1.3-5.8,0.9-7.1,0-12.5c-1-4.9-3.7-9.3-7.5-12.5c-4.9-3.9-10.3-4.4-17.5-5C435.3,630.7,432,630.7,428.6,630.9z"/>
	<path class="st12" d="M484.4,510.9c0.9-2.5,0.9-5.3,0-7.8c-2.4-6.4-10-7.6-10.9-7.8c-3.1-0.4-6.2,0.1-9,1.5
		c-2.8,1.4-5.1,3.6-6.6,6.3c-0.2,0.4-0.6,2.9-1.6,7.8v1.6c-0.4-0.6-1-1.1-1.6-1.6c-3.8-2.6-9.5-0.3-12.5,1.6
		c-2.9,1.8-5.1,4.6-6.2,7.8c-1,3-1,6.3,0,9.3c1.3,4.4,4,8.3,7.8,10.9h70.3c-1.8-1.3-3.4-2.9-4.7-4.7c-1.5-1.8-2.5-4-3.1-6.2
		c-0.8-3.6,0.6-4.4,0-7.8c-0.6-3.1-2.3-5.8-4.7-7.8c-3-2.4-6.4-2.7-10.9-3.1C488.6,510.7,486.5,510.7,484.4,510.9z"/>
	<path class="st12" d="M165,416.2c0.9-2.5,0.9-5.3,0-7.8c-2.4-6.4-10-7.6-10.9-7.8c-3.1-0.4-6.2,0.1-9,1.5c-2.8,1.4-5.1,3.6-6.6,6.3
		c-0.2,0.4-0.6,2.9-1.6,7.8v1.6c-0.4-0.6-1-1.1-1.6-1.6c-3.8-2.6-9.5-0.3-12.5,1.6c-2.9,1.8-5.1,4.6-6.2,7.8c-1,3-1,6.3,0,9.3
		c1.3,4.4,4,8.3,7.8,10.9h70.3c-1.8-1.3-3.4-2.9-4.7-4.7c-1.5-1.8-2.5-4-3.1-6.2c-0.8-3.6,0.6-4.4,0-7.8c-0.6-3.1-2.3-5.8-4.7-7.8
		c-3-2.4-6.4-2.7-10.9-3.1C169.2,416.1,167.1,416.1,165,416.2z"/>
	<path class="st12" d="M131.2,97.8c0.9-2.5,0.9-5.3,0-7.8c-2.4-6.4-10-7.6-10.9-7.8c-3.1-0.4-6.2,0.1-9,1.5
		c-2.8,1.4-5.1,3.6-6.6,6.3c-0.2,0.4-0.6,2.9-1.6,7.8v1.6c-0.4-0.6-1-1.1-1.6-1.6c-3.8-2.6-9.5-0.3-12.5,1.6
		c-2.9,1.8-5.1,4.6-6.2,7.8c-1,3-1,6.3,0,9.3c1.3,4.4,4,8.3,7.8,10.9h70.3c-1.8-1.3-3.4-2.9-4.7-4.7c-1.5-1.8-2.5-4-3.1-6.2
		c-0.8-3.6,0.6-4.4,0-7.8c-0.6-3.1-2.3-5.8-4.7-7.8c-3-2.4-6.4-2.7-10.9-3.1C135.3,97.6,133.2,97.6,131.2,97.8z"/>
	<path class="st12" d="M315.7,153.8c0.9-2.5,0.9-5.3,0-7.8c-2.4-6.4-10-7.6-10.9-7.8c-3.1-0.4-6.2,0.1-9,1.5
		c-2.8,1.4-5.1,3.6-6.6,6.3c-0.2,0.4-0.6,2.9-1.6,7.8v1.6c-0.4-0.6-1-1.1-1.6-1.6c-3.8-2.6-9.5-0.3-12.5,1.6
		c-2.9,1.8-5.1,4.6-6.2,7.8c-1,3-1,6.3,0,9.3c1.3,4.4,4,8.3,7.8,10.9h70.3c-1.8-1.3-3.4-2.9-4.7-4.7c-1.5-1.8-2.5-4-3.1-6.2
		c-0.8-3.6,0.6-4.4,0-7.8c-0.6-3.1-2.3-5.8-4.7-7.8c-3-2.4-6.4-2.7-10.9-3.1C319.9,153.6,317.8,153.6,315.7,153.8z"/>
</g>
<g id="реплики" class="st50">
	<g class="st51">
		<rect x="838.5" y="139.3" class="st34" width="374.3" height="67.6"/>
		<text transform="matrix(1 0 0 1 857.8413 178.7133)" class="st53 st54">О нет! Мой обед убегает!!!</text>
		<g>
			<line class="st52" x1="1186.7" y1="162" x2="1201.8" y2="146.8"/>
			<line class="st52" x1="1201.8" y1="162" x2="1186.7" y2="146.8"/>
		</g>
	</g>
	<g>
		<g class="st51">
			<rect x="658.4" y="402.1" class="st34" width="386.1" height="255.6"/>
			<text transform="matrix(1 0 0 1 677.6786 437.4438)"><tspan x="0" y="0" class="st53 st54">лорем ипсум лорем ипсум</tspan><tspan x="0" y="24" class="st53 st54">лорем ипсумлорем ипсум</tspan><tspan x="0" y="48" class="st53 st54">лорем ипсумлорем ипсумё</tspan><tspan x="0" y="72" class="st53 st54">лорем ипсумлорем ипсум</tspan><tspan x="0" y="96" class="st53 st54">лорем ипсумлорем ипсум</tspan><tspan x="0" y="144" class="st53 st54">лорем ипсумлорем ипсум</tspan><tspan x="0" y="168" class="st53 st54">лорем ипсум</tspan><tspan x="0" y="192" class="st53 st54">лорем ипсумлорем ипсум</tspan></text>
			<g>
				<line class="st52" x1="1016.5" y1="429.7" x2="1031.7" y2="414.5"/>
				<line class="st52" x1="1031.7" y1="429.7" x2="1016.5" y2="414.5"/>
			</g>
		</g>
	</g>
</g>
<g id="редактор" class="st50">
</g>
<g id="БОРДЕРЫ">
</g>
</svg>
