<?xml version="1.0" encoding="utf-8"?>
<!-- Generator: Adobe Illustrator 25.0.1, SVG Export Plug-In . SVG Version: 6.00 Build 0)  -->
<svg version="1.1" xmlns="http://www.w3.org/2000/svg" xmlns:xlink="http://www.w3.org/1999/xlink" x="0px" y="0px"
	 viewBox="0 0 1280 720" style="enable-background:new 0 0 1280 720;" xml:space="preserve">
<style type="text/css">
	.st0{fill:#F7EFE2;}
	.st1{fill:none;stroke:#FF0020;stroke-width:16;stroke-miterlimit:10;stroke-dasharray:30.47,20.31;}
	.st2{fill:none;stroke:#FF81E7;stroke-width:16;stroke-miterlimit:10;stroke-dasharray:30.47,20.31;}
	.st3{fill:none;stroke:#00FFA9;stroke-width:16;stroke-miterlimit:10;stroke-dasharray:29.94,19.96;}
	.st4{fill:#D8E5A5;}
	.st5{fill:#A8E0A1;}
	.st6{fill:#FFF3AE;}
	.st7{fill:#6000FF;}
	.st8{fill:#FF81E7;}
	.st9{fill:#FFFFFF;stroke:#FFFFFF;stroke-width:2;stroke-miterlimit:10;}
	.st10{fill:#0097DD;}
	.st11{fill:#FF76EB;}
	.st12{fill:#FFFFFF;}
	.st13{stroke:#000000;stroke-miterlimit:10;}
	.st14{fill:#FB6700;}
	.st15{fill:none;stroke:#FF0020;stroke-width:16;stroke-miterlimit:10;}
	.st16{fill:none;stroke:#FF0020;stroke-width:16;stroke-miterlimit:10;stroke-dasharray:29.82,19.88;}
	.st17{fill:none;stroke:#FF0020;stroke-width:16;stroke-miterlimit:10;stroke-dasharray:29.73,19.82;}
	.st18{fill:#6DFC6D;}
	.st19{fill:#00FFA9;}
	.st20{fill:#754C24;}
	.st21{fill:#FF0020;}
	.st22{fill:#FDFF00;}
	.st23{fill:#EB7000;}
	.st24{fill:none;}
	.st25{fill:#231F20;}
	.st26{fill:#FF00BD;stroke:#FF00BD;stroke-width:0.5;stroke-miterlimit:10;}
	.st27{opacity:0.59;}
	.st28{fill:none;stroke:#F7EFE2;stroke-width:50;stroke-miterlimit:10;}
	.st29{fill:none;stroke:#00FFA9;stroke-width:50;stroke-miterlimit:10;}
	.st30{fill:#F0ED00;}
	.st31{fill:none;stroke:#000000;stroke-miterlimit:10;}
	.st32{fill:#01140D;}
	.st33{fill:#F9C6CA;}
	.st34{fill:#FFFFFF;stroke:#000000;stroke-width:2;stroke-miterlimit:10;}
	.st35{stroke:#000000;stroke-width:0.25;stroke-miterlimit:10;}
	.st36{fill:#FFD400;}
	.st37{fill:#B9FCF7;}
	.st38{fill:#55FFEE;}
	.st39{fill:#FFFFFF;stroke:#FFFFFF;stroke-miterlimit:10;}
	.st40{fill:none;stroke:#00FFA9;stroke-width:2;stroke-miterlimit:10;}
	.st41{fill:#00FFA9;stroke:#00FFA9;stroke-width:2;stroke-miterlimit:10;}
	.st42{fill:#8E5F53;}
	.st43{fill:#634137;}
	.st44{fill:#F6A9CB;}
	.st45{fill:none;stroke:#6000FF;stroke-miterlimit:10;}
	.st46{fill:none;stroke:#F0ED00;stroke-miterlimit:10;}
	.st47{fill:none;stroke:#F0ED00;stroke-width:2;stroke-miterlimit:10;}
	.st48{fill:#A5A5A5;}
	.st49{fill:#7C7C7C;}
	.st50{display:none;}
	.st51{display:inline;}
	.st52{fill:none;stroke:#000000;stroke-width:2;stroke-miterlimit:10;}
	.st53{display:inline;fill:#FFFFFF;stroke:#231F20;stroke-width:2;stroke-miterlimit:10;}
	.st54{display:inline;opacity:0.12;fill:#0097DD;}
	.st55{display:inline;opacity:0.12;fill:#FF76EB;}
	.st56{display:inline;fill:#FF0020;}
	.st57{display:inline;fill:#6000FF;}
	.st58{display:inline;fill:#FF76EB;}
	.st59{display:inline;fill:#FDFF00;}
	.st60{display:inline;fill:#FB6700;}
	.st61{display:inline;fill:#FFFFFF;}
	.st62{display:inline;stroke:#000000;stroke-miterlimit:10;}
	.st63{display:inline;fill:#FFD400;}
	.st64{display:inline;fill:#EB7000;}
	.st65{display:inline;fill:#231F20;}
	.st66{display:inline;fill:#00FFA9;}
	.st67{display:inline;opacity:0.35;fill:#0097DD;}
	.st68{display:inline;opacity:0.35;}
	.st69{display:inline;opacity:0.35;fill:#0097DD;stroke:#0097DD;stroke-width:3;stroke-miterlimit:10;}
	.st70{fill:none;stroke:#000000;stroke-width:3;stroke-miterlimit:10;}
	.st71{fill:#606060;}
</style>
<g id="Layer_5">
	<rect x="-1292.9" y="-23.3" class="st0" width="3863.3" height="2193"/>
</g>
<g id="Layer_9">
	<path class="st1" d="M908.4,236.6c-21.1-23.1-47.9-58.2-84.9-27.1C763.1,260.3,675.1,146,626,179c-68,45.8-132.8,37.2-183.6,26.7
		c-29.4-6.1-107.5,37.3-147.3,67.4c-37.4,28.3-65.1,49.1-133.2,27.5c-46.1-14.6-68.3,5.4-82.9,9.8c-27.5-0.5-54.9-5.2-81-14.1"/>
	<path class="st3" d="M1245.3,774.3c31.3-31.8,71.2-89.1,127.9-32c88.6,89.1,218,25.8,289.9,85.3c99.8,82.6,199.2,53.1,273.2,45.3
		c42.9-4.5,151,3.8,209.4,57.4c54.9,50.3,95.4,87.3,194.8,65.2c67.2-14.9,98.8,27.1,121.2,29.2c42.6,4.2,85,0.8,125.2-10"/>
</g>
<g id="Layer_11">
	<path class="st5" d="M1891.4,696.3h-686.8c-27.9,0-50.5-22.6-50.5-50.5V253c0-27.9,22.6-50.5,50.5-50.5h686.8
		c27.9,0,50.5,22.6,50.5,50.5v392.8C1941.9,673.7,1919.3,696.3,1891.4,696.3z"/>
</g>
<g id="Layer_1">
	<g>
		<g>
			<path class="st16" d="M1260.4,823c-46.1-40-141.9-173.9-148.4-62.2c-9.1,153.7-163.4,57.3-180,160.6"/>
			<path class="st17" d="M748.4,1127.3c21.8-27.8,22.7-69.1-0.2-129.1c-70.8,3.4-12.9-93.6-72.2-96.9c-73.4-4-38.8-66-39.5-100.7
				c-0.4-20.1-37-55.3-84-55.2c-44.2,0.1-76.7,0-68.4-52c5.6-35.2-30.1-29.1-33.7-37.6c-8.3-18.9-7.3-39.2-3.9-55.4"/>
		</g>
	</g>
	<path class="st10" d="M1289.6,522.5H872.8c-28.4,0-51.5-23.1-51.5-51.5v-176c0-28.4,23.1-51.5,51.5-51.5h416.8
		c28.4,0,51.5,23.1,51.5,51.5v176C1341,499.5,1318,522.5,1289.6,522.5z"/>
	<path class="st4" d="M1346.2,717H758.4c-37,0-67-30-67-67V504.9c0-37,30-67,67-67h587.8c37,0,67,30,67,67V650
		C1413.2,687,1383.2,717,1346.2,717z"/>
	<g>
		<path class="st19" d="M802.3,613.7c-5.2,4.6-11,9.7-19.4,10.8c-7.3,0.9-8.8-2.1-29.6-5.8c-7.7-1.4-15.6-1.5-23.4-0.3
			c-26.1,3.8-28.5,3.8-31.5,2.4c-5.9-2.7-11.7-9.3-10-13.9c1.7-4.6,10.4-5.2,11.3-5.2c-4.7,0.2-18.3,0-28.6-9.8
			c-5.5-5.3-12.1-15.4-8.9-20.8c3.6-6.1,17.8-2.6,18.9-6.8c0.9-3.4-8.6-6.1-9.2-12.6s8.2-13.1,15.5-15.5c12.2-3.8,23,3.6,24.7,4.7
			c0-0.4,0.7-6.7,5.8-9.2c5.1-2.4,11.4,0.8,14.2,5.3c0.9,1.5,1.5,3.3,1.6,5.1c0.8-3.2,2.4-6.2,4.7-8.5c2.1-1.9,4.6-3.4,7.3-4.3
			c2.7-0.9,5.6-1.1,8.4-0.7c7.6,1.3,14.5,7.6,15.2,15.7c0.3,4.2-0.9,8.4-3.5,11.8c2.6-2.9,5.9-5.2,9.5-6.8c5.5-2.3,16.4-4.7,22.1,1
			c6.5,6.6,2.2,20.3-3.2,27.8c-2.3,3.2-5.1,5.9-8.4,7.9c2.1-0.5,4.2-0.7,6.4-0.6c8.9,0.4,19.8,5.9,20.4,13.4
			C813,604.3,808.1,608.6,802.3,613.7z"/>
		<path class="st20" d="M747.4,604.2h-10.6V684h10.6V604.2z"/>
		<path class="st19" d="M741.5,612.2c12.1,0,21.9-8,21.9-18c0-9.9-9.8-18-21.9-18c-12.1,0-21.9,8-21.9,18
			C719.5,604.1,729.3,612.2,741.5,612.2z"/>
	</g>
	<g>
		<path class="st19" d="M808,480.8c-2.8,2.4-5.8,5.1-10.3,5.7c-3.8,0.5-4.7-1.1-15.7-3.1c-4.1-0.8-8.3-0.8-12.4-0.1
			c-13.8,2-15.1,2-16.7,1.3c-3.1-1.5-6.2-4.9-5.3-7.4c0.9-2.4,5.5-2.8,6-2.8c-2.5,0.1-9.7,0-15.1-5.2c-2.9-2.8-6.4-8.1-4.7-11
			c1.9-3.2,9.4-1.4,10-3.6c0.5-1.8-4.6-3.2-4.9-6.7c-0.3-3.4,4.3-7,8.2-8.2c6.5-2,12.2,1.9,13.1,2.5c0-0.2,0.4-3.6,3.1-4.9
			c2.7-1.3,6.1,0.4,7.5,2.8c0.5,0.8,0.8,1.7,0.9,2.7c0.4-1.7,1.3-3.3,2.5-4.5c1.1-1,2.4-1.8,3.9-2.3c1.4-0.5,3-0.6,4.5-0.4
			c4,0.7,7.7,4,8.1,8.3c0.2,2.2-0.5,4.5-1.8,6.3c1.4-1.6,3.1-2.8,5-3.6c2.9-1.2,8.7-2.5,11.7,0.5c3.5,3.5,1.2,10.8-1.7,14.7
			c-1.2,1.7-2.7,3.1-4.5,4.2c1.1-0.3,2.2-0.4,3.4-0.3c4.7,0.2,10.5,3.1,10.8,7.1C813.7,475.8,811.1,478.1,808,480.8z"/>
		<path class="st20" d="M779,475.8h-5.6v42.3h5.6V475.8z"/>
		<path class="st19" d="M775.8,480c6.4,0,11.6-4.3,11.6-9.5c0-5.3-5.2-9.5-11.6-9.5c-6.4,0-11.6,4.3-11.6,9.5
			C764.2,475.8,769.4,480,775.8,480z"/>
	</g>
	<path class="st4" d="M525.8,723.6H-62c-37,0-67-30-67-67V414c0-37,30-67,67-67h587.8c37,0,67,30,67,67v242.6
		C592.8,693.6,562.8,723.6,525.8,723.6z"/>
	<g id="Layer_8">
		<path class="st5" d="M-1.3,646.1c102.4-99.7,204.7-199.4,307.1-299c60.4,0,120.7,0,181.1,0c-73.5,124.3-228.7,248.7-302.1,373
			c-88.8,0-95.9,0-184.8,0C-0.4,695.4-0.9,670.7-1.3,646.1z"/>
	</g>
</g>
<g id="Layer_2">
	<path class="st10" d="M125.2,56.9c8.3-3.3,16.7-4.9,25.4-5.2c1.7-0.1,3.4-0.1,5,0.1c6.7,0.5,13.5,2.8,20.5,7.5
		c1.1,0.6,2.8,0,4.5,0.2c1.5,0.1,3,0.1,4.5,0.1c1.5,0,2.9,0,4.4-0.1c12.3-2.5,23.6-14.2,37-9.2c6.7,2.8,12.3,9,19.9,9.1
		c1.5,0.1,3.1,0.2,4.6,0.1c2.1,0,4.2,0,6.1,0c9.5,0,15.5,0,15.5,0c12.7,0,23.8,7.3,29.1,18c7.6-22.8,17.5-65.1-4.6-95.1
		c-38.2-51.7-149.2-35.7-156.5-10.1c-3.1,10.9,14.4,17.2,12.9,31.4c-3.4,32.1-96,23.9-143.6,74.6c-41.5,44.1-48.2,132.2-13.5,163.3
		c30,26.8,115.4,13.3,188.1-21.9c1.2-0.6,2.5-1.2,3.7-1.8c4.6-2.1,9.1-5.4,14.2-6.5c2.1,0,4.1,0,6-0.2c12.7-1.4,22.6-8.2,29-17.9
		c1.1-1.6,2-3.3,2.9-5.1c0.9-1.8,1.6-3.6,2.3-5.5c0.7-1.9,1.2-3.9,1.6-5.9c0.4-2,0.8-4.1,1-6.2c0.5-1.4,1-2.8,1.8-4.7
		c6.9-19.4,16.1-45.3,16.1-45.3c-0.5,0.6-25.4,10.5-53.5,21.8c-1.5,0.6-3,1.3-4.5,1.9c-1.5,0.7-3,1.3-4.5,1.9
		c-1.5,0.6-3,1.3-4.5,1.9c-12.1,5-23.3,10.6-35.8,14.3c-1.7,0.7-3.4,1.4-5,2.1c-8.1,3.3-14.9,6.2-19.4,8.1c-1.3,0.6-2.5,1.1-3.5,1.6
		c-8.4,3.1-17.3,3.7-25.7,6.5c5-3.9,10.7-7.3,15.7-11c1.6-1.1,3.2-2.2,5-3.4c17.7-12,45.3-30.7,73-49.5c1.8-1.3,3.7-2.5,5.5-3.8
		c9.6-6.4,18.6-14.3,28.4-19.3c1.3-0.9,2.6-1.7,3.9-2.6c32.1-21.8,45.2-30,45.2-30c-2.9,2.2-15.6,12.7-47.4,37
		c-1.2,0.9-2.4,1.8-3.6,2.7c-4.5,4-9.6,6.8-14.2,10.8c-1.6,1.2-3.2,2.4-4.7,3.6c-23.9,18.1-49.4,37.2-71.5,53.2
		c-1,0.7-2,1.5-3.1,2.2c-14.8,12.1-31.1,21.1-48.5,27.8c-1.1,0.6-2.1,1.2-3.1,1.9c-1,0.7-1.9,1.4-2.8,2.2
		c-7.6,7.1-19.4,11.1-27.8,5.4c-10.1-6.2-17.4-17.4-18.5-29.5c0-1.3,0.2-2.6,0.4-3.8c0.3-1.4,0.9-2.9,1.6-4.2
		c0.7-1.5,1.6-2.9,2.5-4.5c3.9-6.3,9.5-14.1,11.2-19.2c3.9-9.5,6.7-21.9,11-32.5c0.9-1.6,2-3,3.2-4.2c5.4-6.4,13.3-6.4,20.6-5.9
		C85.8,93.5,92,84,97,75.7c0.7-1.2,1.5-2.4,2.3-3.5c0.9-1.1,1.8-2.1,2.7-3.1c5.6-5.3,11.2-9.2,18.6-11.2
		C122.1,57.5,123.6,57.2,125.2,56.9z"/>
	<path class="st9" d="M415.6,173.9c8.3-15-3-28.3-6.5-43.1c-0.1-2.2-0.4-4.4-1-6.6c-1.4-5.3-4.6-9.9-8.9-13.2
		c-4.3-3.3-9.6-5.1-15.1-5.1h-21.9c-2.7,0-0.7,2.6-1.7,4.1c-3.2,4.3-6.5,8.3-11.2,10.9c17.3-10,21.3-35.3,6.7-49.9
		c-8.6-9.3-20.6-8-31.2-11.7c-1.5-0.9-3-1.8-4.7-2.5c-5-2.3-10.4-3.4-15.9-3.4h-25.6c-1.8,0-3.7,0-5.5-0.2
		c-22.3-14.1-45-13.5-67.6,0.1c-1.8,0.1-3.5,0.1-5.3,0.1s-3.6,0-5.3-0.1c-11.4,1.1-18.7-8.3-29.4-10.9c-2-0.7-4.7,0-6.7,0
		c-19.3,6.6-42,6.6-57.3,22.3c-2.3,2.3-4.3,5-6,7.8c-5.9,9.8-12.6,21.2-9.9,33.1c-8.7,1.3-18.7-0.7-24.4,7.6c-1.5,1.5-2.7,3.2-3.8,5
		c-5.1,12.7-8.4,27.3-13.1,38.6c-2,6-8.7,15.3-13.3,22.8c-1.1,1.8-2.1,3.5-2.9,5.3c-0.8,1.6-1.5,3.3-1.9,5c-0.4,1.5-0.5,3-0.5,4.5
		c1.3,13.7,10,25.6,20,33.6c10.6,9.3,23.3,0,35.1-1c2.1-0.2,4.2-0.5,6.4-0.8c19-3.3,37.6-13.7,56.4-18.8c5.3-1.3,10-0.7,15.1-0.8
		c2,0,4.1,0.1,6.2,0.2c6.7,0,12.7,2.6,18.7,2.6c4,0,8-2,12-3.3c1.6-0.2,3.2-0.1,4.7,0.4c1.5,0.4,2.8,1.2,4.2,1.6
		c11.1,4,22.4,2,33.5,0.1c1.4,0.1,3.1,0.5,4.9,0.6c6.7,0,13.3,2,18.6,2.7c1.8,0.1,3.7-0.2,5.4-0.9c9.2-5.8,21.2-5.8,31.9-5.1
		c5.3,0,8,8,12.6,8.6c11.3,0.7,21.3-0.7,31,5.6c2.1,0.9,4.2,1.6,6.3,2.2c6.7,1.9,13.6,2.8,20.6,2.8c24.8,0,45.4-11.3,49.3-26.2
		c0.4-1.7,0.7-3.4,0.7-5.1c-0.7-5.3-0.7-10.7-2-15.2C416.9,176.7,416.3,175.2,415.6,173.9z"/>
	<path class="st33" d="M254,133.5c0.2,0.4,1,2,6.6,3.1c2.3,0.5,4.6,0.7,7,0.8c7.2,0,8.8-1.7,12.8-0.4c1.9,0.5,3.6,1.7,4.9,3.3
		c0.7,1,0.9,1.9,1.4,6c0.5,4.1,0.5,8.3,0,12.4c0,1.3-0.5,2.5-1.4,3.5c-1.2,1.2-2.2,0.8-3.3,1.9c-0.5,0.6-0.9,1.4-1,2.2
		c-0.1,0.8-0.1,1.7,0.2,2.4c0.3,0.7,0.8,1.2,1.4,1.7c0.6,0.5,1.2,0.8,1.9,1c2.4,0.9,5.1,1,7.6,0.2c1.1-1.1,2.7-2.7,4.5-4.7
		c4.2-4.6,4.5-5.8,4.7-6.4c0.4-2.1-0.6-2.3-1.2-7.4c-0.6-5.4,0.3-7,0.8-7.6c0.9-1.1,2.5-2.2,3.3-1.8c0.8,0.4,0.3,2.6,0,7.4
		c-0.3,4.5-0.4,6.8,0.4,9.3c0.8,2.3,2.1,4.4,3.9,6c2.1,2,4.4,4.3,7.2,3.7c1.3-0.3,2.5-1.1,3.3-2.1c0.8-1.1,1.3-2.4,1.4-3.7
		c-0.1-2.1-1.9-2.2-2.9-5.1c-1.2-3.3,0.1-6.5,0.6-7.8c0.7-1.7,1.8-4.6,4.9-6c1.9-0.8,4-1,6-0.4c1.2,0.3,2.4,0.9,3.4,1.7
		c1,0.8,1.8,1.8,2.4,3c1.2,2.7,0.5,5.2,0,7c-0.4,1.4-1.3,4.6-4.1,6.6c-1.3,1-2.4,1.1-2.9,2.3c-0.2,0.6-0.3,1.3-0.2,1.9
		c0.1,0.6,0.4,1.3,0.8,1.8c1.8,2,6.2,0.7,9.5-0.4c3.7-1.2,7.6-2.4,8.4-5.2c0.5-1.8-0.8-2.4-1-5.2c-0.3-4.4,2.3-9,4.1-8.9
		c0.8,0,1.4,1.1,2.3,3.1c1.2,2.5,2.7,5.5,1.6,8c-0.8,1.9-2.2,1.5-3.9,4.3c-0.7,1.2-1.8,2.9-1.2,4.3c0.8,1.7,3.7,1.8,5.8,1.9
		c1.6,0.1,3.2-0.1,4.7-0.6c1.3-0.4,2.5-1,3.5-1.9c4.5-7.3,8.5-16,2.8-23.9c-0.1-1.1,0.3-2.7,1.2-5.8c1-3.9,1.5-5.1,2-6.6
		c0.8-3.6,0.8-7.3,0-10.9c-1.1-5.4-3.7-10.3-7.6-14.2c-4.5-4.3-10.3-7-16.5-7.8c-1-0.1-5.8,0.2-15.6,1c-6.5,0.5-8.4,0.7-11.1,1.8
		c-2.8,1.2-5.6,2.5-8.2,4.1c-2.9,1.7-3.6,2.5-5.4,2.7c-0.6,0.1-1.6,0.2-7-1.2c-4.4-1.1-4.8-1.4-6.2-1.4c-2.1,0.1-4.2,0.7-6,1.8
		c-4.1,2-4.2,3.8-7.2,4.3c-1.6,0.2-3.1,0.1-4.7-0.2c-2.8-0.4-3.8-1.1-4.7-0.6c-0.9,0.5-1.5,1.9-1,6c-1.4-0.2-2.9,0.1-4.1,1
		c-0.4,0.3-0.8,0.8-2.3,3.5c-0.7,1.2-1.2,2.2-1.6,2.9c-1,0.3-2,0.8-2.8,1.5c-0.8,0.7-1.4,1.6-1.9,2.5c-0.3,0.6-0.5,1.3-0.5,2
		C253.7,132.1,253.8,132.8,254,133.5z"/>
	<path class="st12" d="M272.3,124.5c-0.3-1.5-2.8-2.6-4.3-1.6c-0.4,0.3-0.8,0.7-1,1.2s-0.2,1.1-0.1,1.6c0.1,0.4,0.3,0.7,0.5,1
		c0.2,0.2,0.5,0.4,0.7,0.6c0.4,0.2,0.7,0.3,1.1,0.3c0.4,0,0.8-0.1,1.2-0.2c0.4-0.2,0.7-0.4,1-0.7c0.3-0.3,0.5-0.6,0.6-1
		C272.3,125.3,272.4,124.9,272.3,124.5z"/>
	<path class="st13" d="M269.7,127.4c0.2-0.4,0.4-0.9,0.4-1.4c0-0.5-0.2-0.9-0.4-1.3c-0.2-0.4-0.5-0.8-0.9-1.1
		c-0.4-0.3-0.8-0.4-1.3-0.5c-0.4,0.4-0.7,0.9-0.7,1.5c-0.1,0.6,0.1,1.1,0.4,1.6c0,0,0.1,0.1,0.1,0.1c0.1,0.1,0.1,0.1,0.2,0.2
		c0.2,0.2,0.4,0.4,0.7,0.5c0.3,0.2,0.7,0.3,1,0.3h0.4C269.6,127.4,269.6,127.4,269.7,127.4z"/>
	<path class="st33" d="M125.2,196.5c4.4-5-5.6-7-4.6-13c-0.4-1.7-1.1-4.1,0.1-6.6c0.5-1.1,1.3-2,2.2-2.8s2-1.3,3.2-1.6
		c1.9-0.5,3.8-0.4,5.6,0.4c2.8,1.3,3.9,4,4.5,5.6c0.4,1.2,1.6,4.2,0.5,7.3c-0.5,2.3-4.5,3.7-3.2,7c2,4.7,8.6,4,11.5-0.3
		c1.7-1.5,2.9-3.5,3.7-5.6c0.8-2.3,0.6-4.5,0.4-8.7c-0.3-4.5-0.9-6.4,0-6.9c0.9-0.5,2.3,0.6,3.1,1.6c0.4,0.6,1.3,2,0.7,7.1
		c-0.6,4.7-1.5,4.9-1.1,6.9c0.1,0.6,0.5,1.7,4.4,6c1.7,1.8,3.1,3.3,4.2,4.3c2.3,0.8,4.8,0.7,7.1-0.2c1.5-1.6,4.1-0.2,3.5-4.9
		c-0.7-2-2.7-2.7-4.2-3.8c-0.8-0.9-1.2-2.1-1.3-3.3c-0.5-3.9-0.5-7.7,0-11.6c0.4-3.9,0.6-4.7,1.3-5.6c1.1-1.5,2.7-2.6,4.5-3.1
		c1.6-0.5,3.2-0.6,4.9-0.3c2.3,0.4,4.7,0.7,7,0.8c4.4,0.2,15.1,0.2,12.5-7.5c-0.4-0.9-1-1.7-1.7-2.4c-0.7-0.7-1.6-1.2-2.6-1.4
		c-0.4-0.7-0.8-1.6-1.5-2.7c-1.4-2.5-1.8-2.9-2.2-3.3c-1.1-0.8-2.5-1.1-3.8-0.9c0.5-3.9-0.1-5.2-0.9-5.6c-0.8-0.4-1.7,0.2-4.3,0.5
		c-1.4,0.3-2.9,0.3-4.4,0.2c-2.8-0.4-2.9-2.1-6.7-4c-1.7-1-3.6-1.5-5.6-1.6c-1.4,0-1.7,0.2-5.8,1.3c-5,1.2-6,1.2-6.5,1.1
		c-1.7-0.3-2.3-0.9-5.1-2.5c-2.4-1.5-5-2.7-7.6-3.8c-2.5-1-4.3-1.2-10.3-1.6c-4.5-0.4-7.9-0.6-10.3-0.8c-7.4-0.6-14.7,1.4-19.6,7.1
		c-1.2,1.3-2.3,2.7-3.3,4.1c-1.8,2.8-3.1,5.9-3.7,9.1c-0.8,3.3-0.8,6.8,0,10.1c0.4,1.4,0.8,2.5,1.8,6.2c0.8,3,1.2,4.4,1.1,5.4
		c-0.3,2.9-2,3.1-2.7,6.7c-0.4,1.6-0.4,3.3,0,4.9c0.6,2.3,1.5,2.2,2.9,5.2c0.1,1.5,0.5,2.9,1.3,4.2c0.8,1.3,1.8,2.3,3.1,3.1
		c1.3,0.8,2.7,1.2,4.2,1.3c1.5,0.1,3-0.2,4.3-0.9c4.7-2,0-7.3-2.2-9.7c-1-2.3,0.3-5.1,1.5-7.4c0.9-1.8,1.4-2.8,2.2-2.9
		c0.8,0,1.8,1,2.6,2.6c0.9,1.8,1.3,3.8,1.2,5.8c-3.9,6.4,3.4,12.4,10,12.7c0.8,0.2,1.6,0.1,2.4-0.1
		C123.9,197.5,124.6,197.1,125.2,196.5z"/>
	<path class="st12" d="M180.7,154.6c-0.5-1.5,1.2-3.7,3-3.6c0.5,0,1,0.3,1.5,0.6s0.7,0.8,0.8,1.3c0.1,0.4,0.1,0.7,0,1.1
		c-0.1,0.3-0.2,0.6-0.3,0.8c-0.2,0.3-0.5,0.6-0.8,0.8c-0.3,0.2-0.7,0.3-1.1,0.4c-0.4,0.1-0.8,0-1.2-0.1c-0.4-0.1-0.7-0.3-1.1-0.5
		C181.1,155.3,180.8,155,180.7,154.6z"/>
	<path class="st13" d="M184.4,155.9c-0.4-0.2-0.8-0.6-1-1c-0.2-0.4-0.3-0.9-0.3-1.4c-0.1-0.5,0-0.9,0.2-1.4c0.2-0.4,0.5-0.8,0.9-1.1
		c0.5,0.1,1,0.5,1.3,0.9c0.3,0.5,0.5,1,0.5,1.6c0,0,0,0.1,0,0.2c0,0.1,0,0.2,0,0.3c-0.1,0.3-0.2,0.5-0.3,0.8
		c-0.2,0.3-0.4,0.6-0.7,0.8c-0.1,0.1-0.2,0.1-0.3,0.2C184.6,155.8,184.5,155.9,184.4,155.9z"/>
	<g>
		<path class="st22" d="M1240.8,159.4h-224.6c-22.6,0-40.9,18.3-40.9,40.9v31c0,22.6,18.3,40.9,40.9,40.9h224.6
			c22.6,0,40.9-18.3,40.9-40.9v-31C1281.7,177.7,1263.4,159.4,1240.8,159.4z"/>
		<path class="st8" d="M1256.9,229.6c1.2-2.6,2.1-5.4,2.7-8.2c6.3-42-31.1-64-69.5-42.9c-1.9-4.5-3.7-8.9-5.5-13.5
			c-3.8,25.7-27.8,40.6-39.1,45c0.1,2.7,0.2,5.4,0.3,8.1c11.1-2.6,22.6-2.4,33.6,0.6c0.8-1.7,2.1-3.1,3.6-4.2
			c11.5-7.4,23.4,6,16.4,17.8l14.9,1.9c1.5-2.4,3.1-4.6,5-6.7C1234.4,210.5,1247.8,217.4,1256.9,229.6z"/>
		<path class="st8" d="M1259.6,221.4c-4.2,14.1-11.3,27.2-20.9,38.4l-16.1,0.8c15.6-23.1,17.7-43.9,10.2-49.7
			c-6.1-4.7-19.5,0-32,8.5c5.8,17.9-3.3,35.2-10,42.8l-13.5,0.7c14.7-14.2,10.8-40.1-14.3-47.5c17.1-25,45.8-32.7,63.8-22.4
			c7.8,4.5,18.4,16,18.8,30.6c1.4,23.8-24.6,32.4-53.4,25.9c6.6-21.9,13.2-43.8,19.8-65.7L1259.6,221.4z"/>
		<path class="st12" d="M1186.7,197.6c-1-3.8-7.5-5.9-11-3.2c-1,0.8-1.8,2-2.2,3.3c-0.4,1.3-0.3,2.7,0.1,3.9
			c0.3,0.9,0.8,1.7,1.5,2.3c0.6,0.5,1.2,0.9,1.9,1.2c0.9,0.4,1.9,0.6,2.8,0.6C1184.1,205.6,1187.6,201,1186.7,197.6z"/>
		<path class="st13" d="M1180.9,205.4c0.5-1.1,0.7-2.2,0.6-3.4c-0.1-1.2-0.6-2.3-1.3-3.2c-0.6-1-1.4-1.9-2.4-2.5
			c-1-0.6-2.2-0.9-3.4-0.9c-1.5,2.3-2.3,5.5-0.3,7.7l0.2,0.3c0.6,0.7,1.4,1.3,2.2,1.7c0.8,0.4,1.7,0.6,2.6,0.6c0.3,0,0.7,0,0.9,0
			C1180.4,205.6,1180.6,205.6,1180.9,205.4z"/>
		<path class="st8" d="M1002.2,234.6c-1.3-2.6-2.4-5.3-3.1-8.1c-8.5-41.6,27.7-65.5,67.3-46.4l4.8-13.6
			c5.1,25.5,29.9,39.1,41.4,42.9c0,2.7,0,5.4,0.1,8.2c-11.2-2-22.7-1.2-33.5,2.4c-0.9-1.6-2.3-3-3.8-4.1
			c-11.9-6.8-23.1,7.2-15.5,18.6l-14.8,2.6c-1.6-2.3-3.4-4.5-5.4-6.4C1023.8,214.3,1010.7,221.9,1002.2,234.6z"/>
		<path class="st8" d="M999.2,226.6c4.9,13.9,12.7,26.6,22.8,37.4h16.1c-16.8-22.2-19.9-43-12.8-49.1c5.9-5,19.5-1,32.4,6.8
			c-4.9,18.2,5.1,35,12.2,42.3h13.5c-15.4-13.5-12.9-39.4,11.8-48.2c-18.4-24.1-47.5-30.2-64.9-19c-7.7,4.9-17.6,16.9-17.3,31.5
			c-0.1,23.8,26.2,31.1,54.6,23.1l-23.1-64.6L999.2,226.6z"/>
		<path class="st12" d="M1068.5,200.1c0.9-4,7.6-6.6,11.4-3.8c1.1,0.8,2,2,2.4,3.3c0.4,1.3,0.5,2.8,0.1,4.1
			c-0.3,0.9-0.8,1.8-1.5,2.5c-0.6,0.5-1.2,1-1.9,1.4c-0.9,0.5-1.9,0.7-3,0.7C1071.6,208.3,1067.7,203.7,1068.5,200.1z"/>
		<path class="st13" d="M1075,208c-0.5-1.1-0.7-2.3-0.6-3.5c0.1-1.2,0.4-2.4,1-3.5c0.6-1.1,1.4-2,2.4-2.7c1-0.7,2.2-1.1,3.4-1.3
			c1.7,2.3,2.7,5.6,0.7,8l-0.2,0.3c-0.2,0.2-0.3,0.4-0.5,0.6c-0.5,0.6-1.1,1-1.7,1.3c-0.8,0.4-1.7,0.7-2.7,0.8c-0.3,0-0.7,0-0.9,0
			C1075.5,208,1075.2,208,1075,208z"/>
		<path class="st8" d="M1004.5,196.9c-1.8,0.7-3.8,0.7-5.6,0c-0.3-0.1-0.6-0.3-0.8-0.5c-0.2-0.2-0.4-0.5-0.5-0.8
			c-0.1-0.3-0.2-0.6-0.2-0.9c0-0.3,0.1-0.6,0.2-0.9c0.6-1.4,1.9-2.3,2.6-3.6c0.5-0.7,0.7-1.6,0.5-2.5c-0.3-1-1.3-1.3-2.2-1.5
			l-7.2-1.9c-1.4-0.4-1.9,1.9-0.6,2.2l4.3,1.2l2,0.6l1.1,0.3l0.5,0.1c0.2,0-0.2-0.2,0,0l-0.3-0.5c0.2,0.4-0.5,1.2-0.7,1.6
			c-0.2,0.3-0.9,1.1-1.3,1.7c-0.6,0.6-1,1.4-1.2,2.2c-0.2,0.8-0.2,1.7,0,2.5c0.3,0.8,0.8,1.5,1.4,2.1c0.6,0.6,1.4,1,2.2,1.3
			c2.1,0.4,4.3,0.3,6.3-0.3C1006.5,198.7,1005.9,196.5,1004.5,196.9L1004.5,196.9z"/>
		<path class="st8" d="M1255.6,205.4c2,0.4,4,0.3,6-0.3c1-0.4,1.8-1,2.3-1.9c0.5-1,0.8-2.1,0.9-3.2c0-0.5,0.1-1,0.4-1.4
			c0.3-0.4,0.6-0.8,1-1c1-0.3,1.9-0.6,2.9-0.8c1.9-0.5,4-1.9,3.8-4.2c-0.1-1.5-2.4-1.4-2.3,0c0.1,1.4-2.6,1.9-3.7,2.2
			c-0.9,0.1-1.8,0.5-2.6,1.1c-0.7,0.6-1.3,1.4-1.7,2.3c-0.5,1.5-0.1,3.7-1.9,4.6c-1.5,0.6-3.2,0.7-4.8,0.3c-1.5-0.2-2,2-0.6,2.2
			L1255.6,205.4z"/>
	</g>
	<path class="st8" d="M450.2,156V36.3c0-20.9,15.3-37.8,34.1-37.8h277.1c18.9,0,34.1,16.9,34.1,37.8v239.2
		c0,20.9-15.3,37.8-34.1,37.8H580.4c-18.9,0-34.1-16.9-34.1-37.8v-44c0-20.9-15.3-37.8-34.1-37.8h-27.7
		C465.5,193.8,450.2,176.9,450.2,156z"/>
	<g>
		<path class="st37" d="M-153.4,389.3c14.2-6.1,28.3-12.1,42.5-18.2c2,0.1,4.1,0.2,6.1,0.3c46.4,2.1,98.4-2.3,155.4-18
			c0.6-2.5,1.4-6.3,1.9-10.9c5.1-43.4-19-92.3-58.9-118.1c-25.3-16.4-49.8-18.8-56.3-19.3c-25.9-2-45.6,5.1-52.8,8
			c-27.2,11-42.4,29.4-49.2,38c-12.9,16.1-19.5,31.9-22.8,42.1c-3.2-0.5-8.5-1-14.6,0.7c0,0-8,2.2-15.3,9.1
			c-6.2,5.8-10.6,17-12,31.3c-0.8,8.6-0.6,18.3,1,28.7c4.9,2,9.9,4,14.8,5.9c-0.7-2.5-1.5-6.1-2-10.7c-0.4-3.9-1.1-12.9,1.7-23.8
			c2.5-9.5,5.4-12.3,6.9-13.4c1.2-0.9,3.4-2.5,6.3-2.6c5.1-0.1,8.9,4.8,11.4,8.2c1.1,1.4,5,6.8,8.2,18.8c3.2,11.7,3.5,21.6,3.7,27.9
			c0.1,3.3,0,6,0,7.8C-169.4,383.9-161.4,386.6-153.4,389.3z"/>
		<g>
			<path class="st12" d="M-160.5,255.3c13.7,5,27.8,8.4,42.2,10.4c14.3,2,28.8,2.6,43.3,1.8l5.4-0.4c1.8-0.1,3.6-0.2,5.4-0.5
				l5.4-0.6l2.7-0.3l2.7-0.4c3.6-0.5,7.1-1,10.7-1.7l5.3-0.9c1.8-0.3,3.5-0.7,5.3-1l5.3-1l5.3-1.2c1.8-0.4,3.5-0.7,5.3-1.2l5.3-1.3
				c7-1.7,14.1-3.6,21.1-5.4l0.1,0.4c-1.7,0.7-3.4,1.4-5,2.1c-1.7,0.7-3.4,1.4-5.1,2c-3.4,1.2-6.8,2.6-10.3,3.6
				c-3.5,1.1-7,2.2-10.5,3.1l-5.3,1.4l-5.3,1.2c-1.8,0.4-3.6,0.8-5.4,1.2l-5.4,1c-3.6,0.7-7.3,1-10.9,1.5
				c-7.3,0.8-14.6,1.2-21.9,1.5c-14.6,0.4-29.3-0.5-43.7-3c-14.4-2.5-28.5-6.5-42-12L-160.5,255.3z"/>
		</g>
		<g>
			<path class="st12" d="M-180.4,284.1c4,2.1,8,4.1,12.2,5.8c4.1,1.7,8.4,3.3,12.6,4.7c8.6,2.7,17.4,4.6,26.3,5.8
				c17.8,2.4,35.8,2.2,53.8,1.8c9-0.3,18-0.6,27-1c9-0.4,17.9-1,26.8-2.2c8.9-1.1,17.7-2.6,26.5-4.5c8.8-1.9,17.5-4.2,26.1-6.7
				l0.1,0.4c-16.6,7.2-34.3,12.1-52.2,14.8c-4.5,0.7-9,1.2-13.6,1.6c-4.5,0.3-9.1,0.5-13.6,0.6l-27.1,0.3c-18.1,0.1-36.2-0.1-54.2-3
				c-9-1.5-17.8-3.6-26.3-6.6c-4.3-1.5-8.5-3.2-12.6-5.1c-4.1-1.8-8.1-3.9-12.1-6.2L-180.4,284.1z"/>
		</g>
		<g>
			<path class="st12" d="M4.9,300.2c1.2,2.4,2.3,4.8,3.4,7.2c0.5,1.2,1,2.5,1.5,3.7c0.5,1.2,0.9,2.5,1.4,3.8
				c0.4,1.3,0.8,2.6,1.2,3.8l1,3.9l0.8,3.9c0.2,1.3,0.5,2.6,0.7,4c0.4,2.7,0.8,5.3,1.1,8c0.3,2.7,0.3,5.4,0.2,8.1
				c-0.1,1.3-0.2,2.7-0.4,4c-0.2,1.3-0.3,2.7-0.6,4c-0.5,2.6-1.2,5.3-2.1,7.8l-0.4-0.1c-0.4-5.4-0.3-10.6-0.5-15.8l-0.1-3.9l0-3.9
				c0-2.6-0.1-5.2-0.3-7.8c-0.5-5.2-1.3-10.4-2.5-15.5c-0.3-1.3-0.6-2.5-1-3.8c-0.4-1.3-0.7-2.5-1.1-3.8c-0.9-2.5-1.8-5-2.6-7.5
				L4.9,300.2z"/>
		</g>
	</g>
</g>
<g id="Layer_3">
</g>
<g id="Layer_4">
	<g>
		<path class="st19" d="M1274.8,665.8c-2.8,2.4-5.8,5.1-10.3,5.7c-3.8,0.5-4.7-1.1-15.7-3.1c-4.1-0.8-8.3-0.8-12.4-0.1
			c-13.8,2-15.1,2-16.7,1.3c-3.1-1.5-6.2-4.9-5.3-7.4c0.9-2.4,5.5-2.8,6-2.8c-2.5,0.1-9.7,0-15.1-5.2c-2.9-2.8-6.4-8.1-4.7-11
			c1.9-3.2,9.4-1.4,10-3.6c0.5-1.8-4.6-3.2-4.9-6.7c-0.3-3.4,4.3-7,8.2-8.2c6.5-2,12.2,1.9,13.1,2.5c0-0.2,0.4-3.6,3.1-4.9
			c2.7-1.3,6.1,0.4,7.5,2.8c0.5,0.8,0.8,1.7,0.9,2.7c0.4-1.7,1.3-3.3,2.5-4.5c1.1-1,2.4-1.8,3.9-2.3c1.4-0.5,3-0.6,4.5-0.4
			c4,0.7,7.7,4,8.1,8.3c0.2,2.2-0.5,4.5-1.8,6.3c1.4-1.6,3.1-2.8,5-3.6c2.9-1.2,8.7-2.5,11.7,0.5c3.5,3.5,1.2,10.8-1.7,14.7
			c-1.2,1.7-2.7,3.1-4.5,4.2c1.1-0.3,2.2-0.4,3.4-0.3c4.7,0.2,10.5,3.1,10.8,7.1C1280.4,660.8,1277.8,663.1,1274.8,665.8z"/>
		<path class="st20" d="M1245.7,660.8h-5.6v42.3h5.6V660.8z"/>
		<path class="st19" d="M1242.5,665c6.4,0,11.6-4.3,11.6-9.5c0-5.3-5.2-9.5-11.6-9.5c-6.4,0-11.6,4.3-11.6,9.5
			C1230.9,660.8,1236.1,665,1242.5,665z"/>
	</g>
	<g>
		<path class="st30" d="M359.9,574.8c0.3-8.4,0.7-21.1,10.5-29.3c10.6-8.7,24.5-5.9,26.9-5.4c4.2,0.8,13.8,2.8,19.4,11.6
			c4.5,7,4.6,15.5,2.4,21.8c-1.4,3.9-2.6,3.7-11.2,15.3c-5.4,7.2-8.1,10.8-9.2,13.3c-4,9.2-1.9,14.7-6.8,18.7
			c-2.5,2-5.8,2.9-8.5,2.7C370.8,622.6,359.2,597.2,359.9,574.8z"/>
		<path class="st7" d="M381.1,636.5c-1.6-3-6.6-4.5-10-3.2c-7.5,2.7-11.5,19.4-5.4,31.2c6,11.5,19.3,13.7,21.2,14
			c9.1,1.4,16.1-1.8,19-3.2c12.8-6.1,17.8-17.9,19.4-21.9c3.7-9.2,3.4-17.5,2.9-22.2c1,2.5,2.6,5.7,5,9c3,4,6.2,6.8,8.6,8.6
			c-0.1,2.2,2.2,3.7,2.4,8c0.7,13.9-4.3,32.3,5.1,37.6c0.4,0.2,11.5,1.6,17.2-1.5c8.9-4.9,3.7-25.3,11.5-28c1.9-0.7,2.3,0.6,6.5,1.1
			c11.8,1.4,18.9-7.6,22.2-5c1.8,1.4,0.2,4.4-0.4,15.4c-0.4,8.1-0.6,12.2,1.1,14.7c3.9,5.8,16.2,7.3,23.7,2.5
			c7.4-4.7,8.1-15.3,9.3-36.2c1.1-18.5,1.7-29-2.2-43c-4.1-15-7.7-28.1-18.6-35.9c-23.2-16.4-53,10.4-78.5-7.9
			c-7.7-5.5-8.7-10.6-17.2-12.9c-13.4-3.6-29.3,4.2-38,15.4c-0.9,1.1-12.7,16.7-7.9,30.1c0.4,1.2,2.9,5.4,7.9,13.6
			c4.6,7.7,5.6,9,7.5,12.9c3.4,7.1,5.3,11,4.7,16.1c-0.2,1.6-1.2,9.6-7.5,11.8c-4.7,1.6-10.8-0.5-12.5-4.3
			C375.3,647.7,383.8,641.5,381.1,636.5z"/>
		<path class="st30" d="M423.9,582.4c0.3-8.4,0.7-21.1,10.5-29.3c10.6-8.7,24.5-5.9,26.9-5.4c4.2,0.8,13.8,2.8,19.4,11.6
			c4.5,7,4.6,15.5,2.4,21.8c-1.4,3.9-2.6,3.7-11.2,15.3c-5.4,7.2-8.1,10.8-9.2,13.3c-4,9.2-1.9,14.7-6.8,18.7
			c-2.5,2-5.8,2.9-8.5,2.7C434.8,630.2,423.1,604.9,423.9,582.4z"/>
		<path class="st30" d="M541.8,610.1c-2.8,0.3-5.6-0.5-7.9-2c-0.4-0.3-0.7-0.6-0.9-1c-0.2-0.4-0.4-0.8-0.5-1.3
			c-0.1-0.5-0.1-0.9,0-1.4c0.1-0.5,0.3-0.9,0.6-1.3c1.4-1.7,3.6-2.6,5-4.2c0.9-0.9,1.5-2,1.7-3.3c-0.1-1.6-1.4-2.3-2.6-2.9l-9.5-5.3
			c-1.9-1.1-3.4,2-1.6,3l5.6,3.2l2.7,1.6l1.5,0.8l0.6,0.3c0.3,0.1-0.2-0.4,0,0l-0.3-0.8c0.1,0.7-1.2,1.6-1.6,1.9
			c-0.5,0.4-1.7,1.2-2.5,1.8c-1,0.7-1.9,1.6-2.4,2.6c-0.6,1.1-0.9,2.3-0.8,3.5c0.1,1.2,0.6,2.4,1.3,3.5c0.7,1.1,1.6,1.9,2.7,2.6
			c2.8,1.4,5.9,2,9,1.9c2.2,0.1,2.1-3.3-0.1-3.4L541.8,610.1z"/>
		<g>
			<path class="st12" d="M390.3,616.5c-0.9-0.3-1.8-0.9-2.5-1.6c-0.5-0.6-1-1.2-1.4-1.9c-0.5-0.8-0.7-1.8-0.7-2.7
				c0-1.4,0.5-2.7,1.3-3.8c0.8-1.1,1.9-1.9,3.2-2.4c4.4-1.4,9.8,3,9.5,6.9C399.4,614.6,394.4,617.8,390.3,616.5z"/>
			<path class="st13" d="M390.7,616.3c-0.2-0.1-0.6-0.2-0.9-0.3c-0.8-0.4-1.6-0.9-2.3-1.5c-0.5-0.5-1-1.1-1.2-1.7
				c-0.1-0.2-0.2-0.5-0.3-0.7l-0.1-0.4c-1.2-2.8,0.7-5.6,3-7.3c1.1,0.5,2,1.3,2.7,2.2c0.7,0.9,1.2,2,1.5,3.2
				c0.2,1.2,0.2,2.4-0.1,3.5c-0.3,1.1-0.9,2.2-1.6,3.1C391.2,616.4,390.9,616.4,390.7,616.3z"/>
		</g>
		<g>
			<path class="st12" d="M410.9,617.1c-0.9-0.3-1.8-0.9-2.5-1.6c-0.5-0.6-1-1.2-1.4-1.9c-0.5-0.8-0.7-1.8-0.7-2.7
				c0-1.4,0.5-2.7,1.3-3.8c0.8-1.1,1.9-1.9,3.2-2.4c4.4-1.4,9.8,3,9.5,6.9C420,615.3,415,618.4,410.9,617.1z"/>
			<path class="st13" d="M411.3,617c-0.2-0.1-0.6-0.2-0.9-0.3c-0.8-0.4-1.6-0.9-2.3-1.5c-0.5-0.5-1-1.1-1.2-1.7
				c-0.1-0.2-0.2-0.5-0.3-0.7l-0.1-0.4c-1.2-2.8,0.7-5.6,3-7.3c1.1,0.5,2,1.3,2.7,2.2c0.7,0.9,1.2,2,1.5,3.2
				c0.2,1.2,0.2,2.4-0.1,3.5c-0.3,1.1-0.9,2.2-1.6,3.1C411.8,617.1,411.5,617.1,411.3,617z"/>
		</g>
	</g>
	<path class="st30" d="M184.7,396.2c-0.2-6.7-0.5-16.8-8.4-23.3c-8.4-6.9-19.5-4.7-21.4-4.3c-3.3,0.7-11,2.2-15.4,9.2
		c-3.5,5.6-3.7,12.4-1.9,17.3c1.1,3.1,2,3,8.9,12.2c4.3,5.7,6.5,8.6,7.3,10.6c3.2,7.3,1.5,11.7,5.4,14.9c2,1.6,4.6,2.3,6.8,2.2
		C176,434.2,185.3,414.1,184.7,396.2z"/>
	<path class="st7" d="M167.8,445.3c1.3-2.4,5.2-3.5,8-2.6c6,2.1,9.2,15.5,4.3,24.8c-4.8,9.1-15.3,10.9-16.8,11.1
		c-7.2,1.1-12.8-1.5-15.1-2.6c-10.2-4.9-14.2-14.3-15.4-17.4c-2.9-7.3-2.7-13.9-2.3-17.7c-0.8,2-2.1,4.5-4,7.1
		c-2.4,3.2-4.9,5.4-6.8,6.8c0.1,1.8-1.8,2.9-1.9,6.3c-0.5,11.1,3.4,25.7-4,30c-0.3,0.2-9.2,1.3-13.7-1.2c-7.1-3.9-3-20.1-9.1-22.3
		c-1.5-0.5-1.8,0.5-5.1,0.9c-9.4,1.1-15-6.1-17.7-4c-1.4,1.1-0.2,3.5,0.3,12.3c0.3,6.5,0.5,9.7-0.9,11.7c-3.1,4.6-12.9,5.8-18.8,2
		c-5.9-3.8-6.5-12.2-7.4-28.8c-0.9-14.7-1.3-23.1,1.7-34.2c3.3-11.9,6.1-22.4,14.8-28.5c18.5-13,42.2,8.3,62.5-6.3
		c6.1-4.4,6.9-8.5,13.7-10.3c10.7-2.9,23.3,3.3,30.3,12.3c0.7,0.9,10.1,13.3,6.3,24c-0.3,1-2.3,4.3-6.3,10.8
		c-3.7,6.1-4.5,7.2-6,10.3c-2.7,5.6-4.2,8.8-3.7,12.8c0.2,1.3,1,7.7,6,9.4c3.7,1.3,8.6-0.4,10-3.4
		C172.4,454.2,165.7,449.3,167.8,445.3z"/>
	<path class="st30" d="M133.8,402.3c-0.2-6.7-0.5-16.8-8.4-23.3c-8.4-6.9-19.5-4.7-21.4-4.3c-3.3,0.7-11,2.2-15.4,9.2
		c-3.5,5.6-3.7,12.4-1.9,17.3c1.1,3.1,2,3,8.9,12.2c4.3,5.7,6.5,8.6,7.3,10.6c3.2,7.3,1.5,11.7,5.4,14.9c2,1.6,4.6,2.3,6.8,2.2
		C125.1,440.3,134.4,420.2,133.8,402.3z"/>
	<path class="st30" d="M40,424.2c-1.7,0.1-1.8,2.8-0.1,2.7c2.5,0.1,4.9-0.4,7.2-1.5c0.9-0.5,1.6-1.2,2.1-2c0.5-0.8,0.9-1.8,1-2.8
		c0-1-0.2-1.9-0.7-2.8c-0.5-0.9-1.1-1.6-1.9-2.1c-0.7-0.5-1.6-1.2-2-1.5c-0.4-0.3-1.4-1-1.3-1.6l-0.2,0.6c0.1-0.3-0.2,0.1,0,0
		l0.5-0.3l1.2-0.7l2.1-1.2l4.5-2.6c1.4-0.8,0.2-3.2-1.3-2.4l-7.5,4.2c-0.9,0.5-2,1.1-2.1,2.3c0.1,1,0.6,1.9,1.3,2.6
		c1.2,1.3,2.9,2,4,3.3c0.2,0.3,0.4,0.6,0.5,1s0.1,0.7,0,1.1c-0.1,0.4-0.2,0.7-0.4,1c-0.2,0.3-0.5,0.6-0.8,0.8
		c-1.8,1.3-4.1,1.8-6.3,1.6L40,424.2z"/>
	<g>
		<path class="st12" d="M153,425.1c-0.3-3.2,4-6.6,7.5-5.5c1,0.3,1.9,1,2.6,1.9c0.6,0.9,1,1.9,1,3c0,0.8-0.2,1.5-0.5,2.2
			c-0.3,0.5-0.7,1-1.1,1.5c-0.6,0.6-1.3,1-2,1.2C157.2,430.5,153.2,427.9,153,425.1z"/>
		<path class="st13" d="M159.6,429.4c-0.6-0.7-1.1-1.6-1.3-2.5c-0.2-0.9-0.3-1.9-0.1-2.8c0.2-0.9,0.6-1.8,1.2-2.5
			c0.6-0.7,1.3-1.3,2.2-1.7c1.8,1.3,3.3,3.5,2.4,5.8l-0.1,0.3c-0.1,0.2-0.1,0.4-0.2,0.6c-0.2,0.5-0.6,1-1,1.4
			c-0.5,0.5-1.1,0.9-1.8,1.2c-0.2,0.1-0.5,0.2-0.7,0.2C160,429.3,159.8,429.4,159.6,429.4z"/>
	</g>
	<g>
		<path class="st12" d="M136.6,425.6c-0.3-3.2,4-6.6,7.5-5.5c1,0.3,1.9,1,2.6,1.9c0.6,0.9,1,1.9,1,3c0,0.8-0.2,1.5-0.5,2.2
			c-0.3,0.5-0.7,1-1.1,1.5c-0.6,0.6-1.3,1-2,1.2C140.9,431,136.9,428.4,136.6,425.6z"/>
		<path class="st13" d="M143.2,429.9c-0.6-0.7-1.1-1.6-1.3-2.5c-0.2-0.9-0.3-1.9-0.1-2.8c0.2-0.9,0.6-1.8,1.2-2.5
			c0.6-0.7,1.3-1.3,2.2-1.7c1.8,1.3,3.3,3.5,2.4,5.8l-0.1,0.3c-0.1,0.2-0.1,0.4-0.2,0.6c-0.2,0.5-0.6,1-1,1.4
			c-0.5,0.5-1.1,0.9-1.8,1.2c-0.2,0.1-0.5,0.2-0.7,0.2C143.6,429.9,143.4,429.9,143.2,429.9z"/>
	</g>
	<g>
		<path class="st8" d="M207,557.3c0.3-1.3,0.6-3.1,2-4.8c3.4-4.3,9.5-3.8,9.8-3.8c4.6,0.4,7.3,3.5,8.2,4.5c1.1,1.2,2.4,2.7,2.8,5
			c0.8,4.9-3.5,8.8-4.3,9.5c-0.9,0.8-4.5,4-9.5,3.4c-0.7-0.1-5.4-0.7-8-4.9C205.8,562.7,206.6,559.1,207,557.3z"/>
		<path class="st8" d="M208.5,557.7c-1-1.5-2.5-1.5-5.9-2.7c-2.3-0.8-4.4-1.7-6-2.6c1.2,1.1,2.3,2.3,3.5,3.4
			c-1.2,0.5-2.3,1.1-3.5,1.6c1.2,0.7,2.4,1.3,3.6,2c-1.1,0.7-2.2,1.5-3.3,2.2c1,0.8,1.9,1.6,2.9,2.4c-0.8,1.1-1.5,2.1-2.3,3.2
			c0.6,0,1.6,0,2.7-0.2c3-0.4,7.3-1,8.7-4C209.6,561.4,209.5,559.2,208.5,557.7z"/>
		<path class="st8" d="M226.6,557.7c0.6-2,3.6-2.3,6.9-3.7c2.1-0.9,5-2.4,8-5.1c-0.8,1-1.7,2.1-2.5,3.1c0.7,0.4,1.4,0.8,2.1,1.2
			c-0.6,0.7-1.1,1.3-1.7,2c0.9,0.4,1.9,0.9,2.8,1.3c-0.9,0.9-1.7,1.7-2.6,2.6c0.7,0.3,1.5,0.5,2.2,0.8c-0.6,0.6-1.1,1.2-1.7,1.8
			c0.9,0.9,1.9,1.7,2.8,2.6c-5.2-1.2-10.3-2.3-15.5-3.5C226.8,560,226.3,558.8,226.6,557.7z"/>
		<path class="st30" d="M212.7,550.4c0,0.5,0.6,1,2,1.6c-0.4,0.8-0.8,1.5-1.2,2.3c0.8,0.5,1.5,1.1,2.3,1.6c-0.7,0.7-1.4,1.3-2.1,2
			c0.9,0.4,1.8,0.8,2.7,1.2c-0.7,0.7-1.5,1.3-2.2,2c0.8,0.4,1.5,0.9,2.3,1.3c-0.8,0.5-1.5,0.9-2.3,1.4c0.8,0.6,1.6,1.1,2.5,1.7
			c-0.8,0.4-1.6,0.8-2.5,1.1c0.8,0.2,1.7,0.4,2.5,0.5c-0.8,0.5-1.6,1.1-2.4,1.6c0.7,0.3,1.5,0.5,2.2,0.8c-0.5,0.3-1.1,0.6-1.6,0.9
			c0.7,0.3,1.5,0.5,2.5,0.6c0.8,0.1,1.3,0.1,2.1,0c1,0,1.5-0.1,1.6-0.3c0.3-0.5-0.9-1.2-1.7-2.9c-0.4-0.8-1.1-2.3-0.7-3.8
			c0.4-1.6,1.8-1.6,1.9-3c0-0.4-0.1-0.8-1.8-3.6c-1.4-2.1-1.8-2.6-1.6-3.2c0.4-0.9,2.3-0.5,2.5-1.3c0.2-0.8-1.7-1.5-1.8-3
			c0-0.6,0.3-1.1,0.5-1.5C214.8,549.1,212.8,549.7,212.7,550.4z"/>
		<circle class="st30" cx="221.9" cy="566" r="1.2"/>
		<circle class="st30" cx="220.8" cy="556.8" r="1.1"/>
		<circle class="st30" cx="220.7" cy="550.2" r="0.9"/>
		<path class="st45" d="M218.7,571.1c0.9-1.9-1.4-3.3-1.6-4.2c-0.1-0.8,2.3-2.5,1.4-4.5c-1-2.1-1.9-2.1-2-2.8
			c-0.2-1.6,0.7-2.5,0.5-3.8c-0.2-1.8-1.9-1.1-2-2.7c0-1,0.6-1.3,0.7-2.8c0-0.6-0.1-1.1-0.2-1.4"/>
		<circle class="st30" cx="211.2" cy="554.1" r="0.9"/>
		<circle class="st30" cx="211.9" cy="560.7" r="0.9"/>
		<circle class="st30" cx="211.9" cy="566.3" r="0.9"/>
		<path class="st46" d="M226,567.2c0-0.1-0.5-1.1-0.9-1.9c-0.3-0.6-0.5-1.3-0.7-1.9c-0.2-0.9-0.3-1.1-0.3-1.6c0-0.4,0-0.6,0.6-2.9
			c0.5-2.1,0.6-2.4,0.5-2.8c-0.1-1.2-0.8-2.1-1-2.4c-0.7-0.9-1.2-1-1.4-1.8c-0.2-0.7,0-1.5,0.2-2"/>
		<circle class="st7" cx="209.3" cy="557.8" r="0.6"/>
		<circle class="st7" cx="210.3" cy="563.5" r="0.4"/>
		<circle class="st7" cx="220.3" cy="564.4" r="0.5"/>
		<circle class="st7" cx="222.9" cy="559" r="0.4"/>
		<circle class="st7" cx="221.6" cy="553.6" r="0.4"/>
		<circle class="st7" cx="213" cy="552" r="0.3"/>
		<circle class="st7" cx="210.1" cy="552" r="0.2"/>
		<circle class="st7" cx="226.5" cy="562.1" r="0.5"/>
		<circle class="st7" cx="227.1" cy="557.8" r="0.5"/>
		<circle class="st7" cx="226.3" cy="553.4" r="0.2"/>
		<circle class="st7" cx="202.1" cy="559.5" r="0.3"/>
		<circle class="st7" cx="203.1" cy="565.6" r="0.4"/>
		<circle class="st7" cx="205.9" cy="557.7" r="0.2"/>
		<circle class="st7" cx="232" cy="559.5" r="0.3"/>
		<circle class="st7" cx="236.9" cy="554.7" r="0.3"/>
		<circle class="st30" cx="238.1" cy="560" r="0.2"/>
		<circle class="st30" cx="204.5" cy="562.2" r="0.4"/>
		<circle class="st30" cx="199.7" cy="561.8" r="0.4"/>
		<circle class="st30" cx="202.6" cy="557.6" r="0.1"/>
		<circle class="st30" cx="233.5" cy="556.3" r="0.3"/>
	</g>
	<g>
		<path class="st8" d="M196.8,620.5c0.3-1.3,0.6-3.1,2-4.8c3.4-4.3,9.5-3.8,9.8-3.8c4.6,0.4,7.3,3.5,8.2,4.5c1.1,1.2,2.4,2.7,2.8,5
			c0.8,4.9-3.5,8.8-4.3,9.5c-0.9,0.8-4.5,4-9.5,3.4c-0.7-0.1-5.4-0.7-8-4.9C195.7,626,196.4,622.3,196.8,620.5z"/>
		<path class="st8" d="M198.3,620.9c-1-1.5-2.5-1.5-5.9-2.7c-2.3-0.8-4.4-1.7-6-2.6c1.2,1.1,2.3,2.3,3.5,3.4
			c-1.2,0.5-2.3,1.1-3.5,1.6c1.2,0.7,2.4,1.3,3.6,2c-1.1,0.7-2.2,1.5-3.3,2.2c1,0.8,1.9,1.6,2.9,2.4c-0.8,1.1-1.5,2.1-2.3,3.2
			c0.6,0,1.6,0,2.7-0.2c3-0.4,7.3-1,8.7-4C199.5,624.6,199.3,622.4,198.3,620.9z"/>
		<path class="st8" d="M216.4,620.9c0.6-2,3.6-2.3,6.9-3.7c2.1-0.9,5-2.4,8-5.1c-0.8,1-1.7,2.1-2.5,3.1c0.7,0.4,1.4,0.8,2.1,1.2
			c-0.6,0.7-1.1,1.3-1.7,2c0.9,0.4,1.9,0.9,2.8,1.3c-0.9,0.9-1.7,1.7-2.6,2.6c0.7,0.3,1.5,0.5,2.2,0.8c-0.6,0.6-1.1,1.2-1.7,1.8
			c0.9,0.9,1.9,1.7,2.8,2.6c-5.2-1.2-10.3-2.3-15.5-3.5C216.7,623.2,216.1,622.1,216.4,620.9z"/>
		<path class="st30" d="M202.6,613.7c0,0.5,0.6,1,2,1.6c-0.4,0.8-0.8,1.5-1.2,2.3c0.8,0.5,1.5,1.1,2.3,1.6c-0.7,0.7-1.4,1.3-2.1,2
			c0.9,0.4,1.8,0.8,2.7,1.2c-0.7,0.7-1.5,1.3-2.2,2c0.8,0.4,1.5,0.9,2.3,1.3c-0.8,0.5-1.5,0.9-2.3,1.4c0.8,0.6,1.6,1.1,2.5,1.7
			c-0.8,0.4-1.6,0.8-2.5,1.1c0.8,0.2,1.7,0.4,2.5,0.5c-0.8,0.5-1.6,1.1-2.4,1.6c0.7,0.3,1.5,0.5,2.2,0.8c-0.5,0.3-1.1,0.6-1.6,0.9
			c0.7,0.3,1.5,0.5,2.5,0.6c0.8,0.1,1.3,0.1,2.1,0c1,0,1.5-0.1,1.6-0.3c0.3-0.5-0.9-1.2-1.7-2.9c-0.4-0.8-1.1-2.3-0.7-3.8
			c0.4-1.6,1.8-1.6,1.9-3c0-0.4-0.1-0.8-1.8-3.6c-1.4-2.1-1.8-2.6-1.6-3.2c0.4-0.9,2.3-0.5,2.5-1.3c0.2-0.8-1.7-1.5-1.8-3
			c0-0.6,0.3-1.1,0.5-1.5C204.6,612.3,202.7,612.9,202.6,613.7z"/>
		<circle class="st30" cx="211.8" cy="629.3" r="1.2"/>
		<circle class="st30" cx="210.6" cy="620" r="1.1"/>
		<circle class="st30" cx="210.6" cy="613.4" r="0.9"/>
		<path class="st45" d="M208.5,634.3c0.9-1.9-1.4-3.3-1.6-4.2c-0.1-0.8,2.3-2.5,1.4-4.5c-1-2.1-1.9-2.1-2-2.8
			c-0.2-1.6,0.7-2.5,0.5-3.8c-0.2-1.8-1.9-1.1-2-2.7c0-1,0.6-1.3,0.7-2.8c0-0.6-0.1-1.1-0.2-1.4"/>
		<circle class="st30" cx="201" cy="617.3" r="0.9"/>
		<circle class="st30" cx="201.7" cy="623.9" r="0.9"/>
		<circle class="st30" cx="201.7" cy="629.6" r="0.9"/>
		<path class="st47" d="M215.9,630.5c0-0.1-0.5-1.1-0.9-1.9c-0.3-0.6-0.5-1.3-0.7-1.9c-0.2-0.9-0.3-1.1-0.3-1.6c0-0.4,0-0.6,0.6-2.9
			c0.5-2.1,0.6-2.4,0.5-2.8c-0.1-1.2-0.8-2.1-1-2.4c-0.7-0.9-1.2-1-1.4-1.8c-0.2-0.7,0-1.5,0.2-2"/>
		<circle class="st7" cx="199.2" cy="621" r="0.6"/>
		<circle class="st7" cx="200.2" cy="626.7" r="0.4"/>
		<circle class="st7" cx="210.2" cy="627.6" r="0.5"/>
		<circle class="st7" cx="212.7" cy="622.2" r="0.4"/>
		<circle class="st7" cx="211.4" cy="616.8" r="0.4"/>
		<circle class="st7" cx="202.8" cy="615.2" r="0.3"/>
		<circle class="st7" cx="199.9" cy="615.3" r="0.2"/>
		<circle class="st7" cx="216.3" cy="625.3" r="0.5"/>
		<circle class="st7" cx="216.9" cy="621" r="0.5"/>
		<circle class="st7" cx="216.1" cy="616.6" r="0.2"/>
		<circle class="st7" cx="191.9" cy="622.7" r="0.3"/>
		<circle class="st7" cx="193" cy="628.9" r="0.4"/>
		<circle class="st7" cx="195.8" cy="620.9" r="0.2"/>
		<circle class="st7" cx="221.9" cy="622.7" r="0.3"/>
		<circle class="st7" cx="226.7" cy="617.9" r="0.3"/>
		<circle class="st30" cx="227.9" cy="623.3" r="0.2"/>
		<circle class="st30" cx="194.4" cy="625.4" r="0.4"/>
		<circle class="st30" cx="189.6" cy="625" r="0.4"/>
		<circle class="st30" cx="192.4" cy="620.8" r="0.1"/>
		<circle class="st30" cx="223.3" cy="619.5" r="0.3"/>
	</g>
	<g>
		<path class="st8" d="M129.2,554.4c-0.1-1.3-0.3-3.1,0.6-5.2c2-5.1,8-6.4,8.3-6.4c4.5-0.9,8,1.3,9.2,2c1.3,0.8,3.1,1.9,4.1,4
			c2.2,4.5-0.9,9.5-1.4,10.3c-0.7,1.1-3.1,5.1-8.2,6c-0.7,0.1-5.4,0.9-9.1-2.4C129.7,559.9,129.4,556.2,129.2,554.4z"/>
		<path class="st8" d="M130.8,554.4c-1.4-1.1-2.9-0.7-6.4-0.9c-2.5-0.1-4.7-0.4-6.5-0.8c1.4,0.8,2.9,1.5,4.3,2.3
			c-1,0.8-1.9,1.7-2.9,2.5c1.3,0.3,2.7,0.6,4,0.9c-0.8,1-1.7,2-2.5,3c1.2,0.5,2.3,1,3.5,1.5c-0.4,1.2-0.9,2.5-1.3,3.7
			c0.6-0.2,1.5-0.5,2.5-1c2.7-1.2,6.7-3,7.2-6.3C133,557.6,132.2,555.5,130.8,554.4z"/>
		<path class="st8" d="M148.2,549.2c0-2,2.8-3.3,5.6-5.5c1.8-1.4,4.1-3.7,6.2-7.2c-0.5,1.2-1,2.5-1.5,3.7c0.8,0.2,1.6,0.4,2.4,0.6
			c-0.4,0.8-0.7,1.6-1.1,2.4c1,0.2,2,0.3,3.1,0.5c-0.6,1.1-1.2,2.2-1.8,3.2c0.8,0,1.6,0.1,2.3,0.1c-0.4,0.7-0.7,1.5-1.1,2.2
			c1.1,0.6,2.3,1.1,3.4,1.7c-5.3,0.3-10.6,0.7-15.9,1C149,551.3,148.2,550.4,148.2,549.2z"/>
		<path class="st30" d="M132.8,546.2c0.1,0.5,0.9,0.8,2.4,1c-0.2,0.8-0.4,1.7-0.5,2.5c0.9,0.3,1.8,0.6,2.6,0.9
			c-0.5,0.8-1,1.7-1.4,2.5c1,0.1,2,0.3,3,0.4c-0.5,0.9-1,1.7-1.5,2.6c0.9,0.2,1.7,0.4,2.6,0.6c-0.6,0.7-1.2,1.3-1.8,2
			c0.9,0.3,1.9,0.6,2.8,0.9c-0.7,0.6-1.4,1.2-2,1.8c0.9-0.1,1.7-0.1,2.6-0.2c-0.6,0.7-1.2,1.5-1.8,2.2c0.8,0,1.6,0.1,2.3,0.1
			c-0.4,0.4-0.9,0.9-1.3,1.3c0.7,0.1,1.6,0,2.6-0.1c0.8-0.1,1.3-0.3,2-0.6c1-0.3,1.4-0.5,1.5-0.7c0.1-0.5-1.2-0.9-2.5-2.3
			c-0.6-0.6-1.7-1.9-1.7-3.4c0-1.7,1.2-2.1,1-3.4c-0.1-0.4-0.3-0.8-2.8-2.9c-1.9-1.6-2.5-2-2.4-2.6c0.1-1,2.1-1.2,2.1-2
			c0-0.8-2.1-0.9-2.5-2.4c-0.2-0.6-0.1-1.1,0.1-1.6C134.4,544.3,132.7,545.4,132.8,546.2z"/>
		<circle class="st30" cx="146.1" cy="558.5" r="1.2"/>
		<circle class="st30" cx="142.4" cy="549.9" r="1.1"/>
		<circle class="st30" cx="140.4" cy="543.7" r="0.9"/>
		<path class="st45" d="M144.4,564.3c0.3-2.1-2.3-2.8-2.7-3.6c-0.4-0.7,1.5-3.1,0.1-4.7c-1.5-1.7-2.4-1.5-2.7-2.2
			c-0.6-1.5,0-2.6-0.6-3.8c-0.8-1.7-2.2-0.5-2.7-2c-0.3-0.9,0.3-1.4-0.2-2.9c-0.2-0.6-0.4-1-0.6-1.3"/>
		<circle class="st30" cx="132.3" cy="550.1" r="0.9"/>
		<circle class="st30" cx="134.9" cy="556.3" r="0.9"/>
		<circle class="st30" cx="136.5" cy="561.7" r="0.9"/>
		<path class="st46" d="M150.3,558.5c-0.1-0.1-0.8-0.9-1.4-1.5c-0.5-0.5-0.9-1-1.2-1.6c-0.4-0.8-0.6-1-0.7-1.4
			c-0.1-0.4-0.1-0.6-0.3-2.9c-0.1-2.2-0.1-2.4-0.3-2.8c-0.5-1.1-1.3-1.8-1.6-2c-0.9-0.7-1.4-0.7-1.9-1.3c-0.4-0.6-0.5-1.4-0.4-2"/>
		<circle class="st7" cx="131.7" cy="554.2" r="0.6"/>
		<circle class="st7" cx="134.2" cy="559.4" r="0.4"/>
		<circle class="st7" cx="144.1" cy="557.4" r="0.5"/>
		<circle class="st7" cx="145" cy="551.5" r="0.4"/>
		<circle class="st7" cx="142.2" cy="546.7" r="0.4"/>
		<circle class="st7" cx="133.5" cy="547.6" r="0.3"/>
		<circle class="st7" cx="130.8" cy="548.4" r="0.2"/>
		<circle class="st7" cx="149.3" cy="553.5" r="0.5"/>
		<circle class="st7" cx="148.7" cy="549.2" r="0.5"/>
		<circle class="st7" cx="146.6" cy="545.1" r="0.2"/>
		<circle class="st7" cx="125.2" cy="557.9" r="0.3"/>
		<circle class="st7" cx="127.9" cy="563.5" r="0.4"/>
		<circle class="st7" cx="128.4" cy="555.1" r="0.2"/>
		<circle class="st7" cx="153.9" cy="549.4" r="0.3"/>
		<circle class="st7" cx="157.2" cy="543.4" r="0.3"/>
		<circle class="st30" cx="159.8" cy="548.2" r="0.2"/>
		<circle class="st30" cx="128.3" cy="559.8" r="0.4"/>
		<circle class="st30" cx="123.6" cy="560.8" r="0.4"/>
		<circle class="st30" cx="125.1" cy="555.9" r="0.1"/>
		<circle class="st30" cx="154.4" cy="545.9" r="0.3"/>
	</g>
	<g>
		<path class="st8" d="M282.3,519.2c0.4-0.8,1-2,2.2-2.9c3.1-2.4,7.1-1,7.3-0.9c3,1.1,4.4,3.6,4.8,4.5c0.5,1,1.2,2.2,1,3.9
			c-0.3,3.5-3.9,5.4-4.6,5.7c-0.8,0.4-3.7,2-7.1,0.7c-0.4-0.2-3.6-1.4-4.6-4.7C280.6,522.7,281.8,520.4,282.3,519.2z"/>
		<path class="st8" d="M283.3,519.8c-0.5-1.2-1.5-1.5-3.6-2.9c-1.5-1-2.7-1.9-3.6-2.8c0.6,1,1.2,1.9,1.8,2.9
			c-0.9,0.2-1.8,0.3-2.7,0.5c0.7,0.7,1.4,1.3,2.1,2c-0.9,0.3-1.8,0.6-2.6,0.9c0.5,0.7,1,1.4,1.6,2.1c-0.7,0.6-1.4,1.2-2.1,1.8
			c0.4,0.1,1.1,0.2,1.9,0.3c2.1,0.2,5.1,0.6,6.6-1.2C283.4,522.5,283.7,520.9,283.3,519.8z"/>
		<path class="st8" d="M295.6,522.9c0.7-1.2,2.8-1,5.3-1.3c1.6-0.2,3.8-0.7,6.3-2.1c-0.7,0.6-1.5,1.1-2.2,1.7
			c0.4,0.4,0.8,0.8,1.2,1.2c-0.5,0.4-1,0.7-1.5,1.1c0.6,0.5,1.1,0.9,1.7,1.4c-0.7,0.4-1.5,0.9-2.2,1.3c0.5,0.3,0.9,0.6,1.4,0.9
			c-0.5,0.3-1,0.6-1.5,0.9c0.5,0.8,1,1.5,1.5,2.3c-3.3-1.7-6.6-3.4-10-5.1C295.4,524.5,295.2,523.6,295.6,522.9z"/>
		<path class="st30" d="M287.4,515.5c-0.1,0.3,0.2,0.8,1.1,1.5c-0.4,0.4-0.8,0.9-1.2,1.3c0.4,0.5,0.9,1,1.3,1.5
			c-0.6,0.3-1.2,0.7-1.8,1c0.5,0.4,1.1,0.9,1.6,1.3c-0.6,0.3-1.2,0.7-1.8,1c0.4,0.4,0.9,0.9,1.3,1.3c-0.6,0.2-1.2,0.4-1.8,0.6
			c0.5,0.5,0.9,1,1.4,1.6c-0.6,0.1-1.2,0.2-1.9,0.4c0.5,0.3,1.1,0.5,1.6,0.8c-0.6,0.2-1.3,0.4-1.9,0.7c0.5,0.3,0.9,0.6,1.4,0.9
			c-0.4,0.1-0.8,0.2-1.3,0.3c0.4,0.3,1,0.6,1.6,0.8c0.5,0.2,0.9,0.3,1.4,0.4c0.7,0.1,1,0.2,1.2,0.1c0.3-0.3-0.4-1-0.7-2.3
			c-0.1-0.6-0.4-1.7,0.2-2.7c0.6-1,1.5-0.8,1.8-1.7c0.1-0.3,0.1-0.6-0.6-2.8c-0.6-1.7-0.8-2.1-0.5-2.4c0.4-0.6,1.7,0,2-0.5
			c0.3-0.5-0.9-1.3-0.7-2.3c0.1-0.4,0.4-0.7,0.6-0.9C289.1,515,287.6,515,287.4,515.5z"/>
		<circle class="st30" cx="291" cy="527.7" r="0.8"/>
		<circle class="st30" cx="291.9" cy="521.2" r="0.8"/>
		<circle class="st30" cx="292.9" cy="516.8" r="0.6"/>
		<path class="st45" d="M287.9,530.6c0.9-1.2-0.4-2.5-0.4-3.1c0-0.6,2-1.3,1.7-2.8c-0.3-1.6-0.9-1.8-0.8-2.3c0.2-1.1,0.9-1.5,1-2.5
			c0.1-1.3-1.1-1.1-0.9-2.2c0.2-0.7,0.7-0.8,0.9-1.8c0.1-0.4,0.1-0.8,0.1-1"/>
		<circle class="st30" cx="285.7" cy="517.7" r="0.6"/>
		<circle class="st30" cx="285.1" cy="522.4" r="0.6"/>
		<circle class="st30" cx="284.1" cy="526.2" r="0.6"/>
		<path class="st46" d="M293.6,529.3c0-0.1-0.2-0.9-0.3-1.4c-0.1-0.5-0.2-0.9-0.2-1.4c0-0.6,0-0.8,0.1-1.1c0.1-0.3,0.1-0.4,0.9-1.9
			c0.7-1.4,0.8-1.5,0.8-1.8c0.1-0.8-0.2-1.6-0.2-1.8c-0.3-0.8-0.6-0.9-0.6-1.5c0-0.5,0.2-1,0.5-1.3"/>
		<circle class="st7" cx="283.9" cy="520" r="0.4"/>
		<circle class="st7" cx="283.6" cy="524" r="0.3"/>
		<circle class="st7" cx="290.2" cy="526.3" r="0.3"/>
		<circle class="st7" cx="292.9" cy="523.1" r="0.3"/>
		<circle class="st7" cx="292.9" cy="519.2" r="0.2"/>
		<circle class="st7" cx="287.4" cy="516.6" r="0.2"/>
		<circle class="st7" cx="285.4" cy="516.2" r="0.1"/>
		<circle class="st7" cx="294.8" cy="525.8" r="0.3"/>
		<circle class="st7" cx="296" cy="523" r="0.4"/>
		<circle class="st7" cx="296.2" cy="519.9" r="0.1"/>
		<circle class="st7" cx="278.7" cy="519.9" r="0.2"/>
		<circle class="st7" cx="278.3" cy="524.2" r="0.3"/>
		<circle class="st7" cx="281.6" cy="519.3" r="0.1"/>
		<circle class="st7" cx="299" cy="525" r="0.2"/>
		<circle class="st7" cx="303.1" cy="522.6" r="0.2"/>
		<circle class="st30" cx="303" cy="526.4" r="0.2"/>
		<circle class="st30" cx="279.8" cy="522.1" r="0.3"/>
		<circle class="st30" cx="276.6" cy="521" r="0.3"/>
		<circle class="st30" cx="279.3" cy="518.6" r="0.1"/>
		<circle class="st30" cx="300.5" cy="523.1" r="0.2"/>
	</g>
	<g>
		<path class="st8" d="M219.7,486.2c0.4-0.8,1-2,2.2-2.9c3.1-2.4,7.1-1,7.3-0.9c3,1.1,4.4,3.6,4.8,4.5c0.5,1,1.2,2.2,1,3.9
			c-0.3,3.5-3.9,5.4-4.6,5.7c-0.8,0.4-3.7,2-7.1,0.7c-0.4-0.2-3.6-1.4-4.6-4.7C218,489.7,219.2,487.3,219.7,486.2z"/>
		<path class="st8" d="M220.7,486.7c-0.5-1.2-1.5-1.5-3.6-2.9c-1.5-1-2.7-1.9-3.6-2.8c0.6,1,1.2,1.9,1.8,2.9
			c-0.9,0.2-1.8,0.3-2.7,0.5c0.7,0.7,1.4,1.3,2.1,2c-0.9,0.3-1.8,0.6-2.6,0.9c0.5,0.7,1,1.4,1.6,2.1c-0.7,0.6-1.4,1.2-2.1,1.8
			c0.4,0.1,1.1,0.2,1.9,0.3c2.1,0.2,5.1,0.6,6.6-1.2C220.9,489.4,221.1,487.9,220.7,486.7z"/>
		<path class="st8" d="M233,489.8c0.7-1.2,2.8-1,5.3-1.3c1.6-0.2,3.8-0.7,6.3-2.1c-0.7,0.6-1.5,1.1-2.2,1.7c0.4,0.4,0.8,0.8,1.2,1.2
			c-0.5,0.4-1,0.7-1.5,1.1c0.6,0.5,1.1,0.9,1.7,1.4c-0.7,0.4-1.5,0.9-2.2,1.3c0.5,0.3,0.9,0.6,1.4,0.9c-0.5,0.3-1,0.6-1.5,0.9
			c0.5,0.8,1,1.5,1.5,2.3c-3.3-1.7-6.6-3.4-10-5.1C232.8,491.4,232.6,490.5,233,489.8z"/>
		<path class="st30" d="M224.8,482.5c-0.1,0.3,0.2,0.8,1.1,1.5c-0.4,0.4-0.8,0.9-1.2,1.3c0.4,0.5,0.9,1,1.3,1.5
			c-0.6,0.3-1.2,0.7-1.8,1c0.5,0.4,1.1,0.9,1.6,1.3c-0.6,0.3-1.2,0.7-1.8,1c0.4,0.4,0.9,0.9,1.3,1.3c-0.6,0.2-1.2,0.4-1.8,0.6
			c0.5,0.5,0.9,1,1.4,1.6c-0.6,0.1-1.2,0.2-1.9,0.4c0.5,0.3,1.1,0.5,1.6,0.8c-0.6,0.2-1.3,0.4-1.9,0.7c0.5,0.3,0.9,0.6,1.4,0.9
			c-0.4,0.1-0.8,0.2-1.3,0.3c0.4,0.3,1,0.6,1.6,0.8c0.5,0.2,0.9,0.3,1.4,0.4c0.7,0.1,1,0.2,1.2,0.1c0.3-0.3-0.4-1-0.7-2.3
			c-0.1-0.6-0.4-1.7,0.2-2.7c0.6-1,1.5-0.8,1.8-1.7c0.1-0.3,0.1-0.6-0.6-2.8c-0.6-1.7-0.8-2.1-0.5-2.4c0.4-0.6,1.7,0,2-0.5
			c0.3-0.5-0.9-1.3-0.7-2.3c0.1-0.4,0.4-0.7,0.6-0.9C226.5,481.9,225,482,224.8,482.5z"/>
		<circle class="st30" cx="228.4" cy="494.7" r="0.8"/>
		<circle class="st30" cx="229.3" cy="488.2" r="0.8"/>
		<circle class="st30" cx="230.3" cy="483.7" r="0.6"/>
		<path class="st45" d="M225.3,497.5c0.9-1.2-0.4-2.5-0.4-3.1c0-0.6,2-1.3,1.7-2.8c-0.3-1.6-0.9-1.8-0.8-2.3c0.2-1.1,0.9-1.5,1-2.5
			c0.1-1.3-1.1-1.1-0.9-2.2c0.2-0.7,0.7-0.8,0.9-1.8c0.1-0.4,0.1-0.8,0.1-1"/>
		<circle class="st30" cx="223.1" cy="484.7" r="0.6"/>
		<circle class="st30" cx="222.5" cy="489.3" r="0.6"/>
		<circle class="st30" cx="221.5" cy="493.1" r="0.6"/>
		<path class="st46" d="M231,496.2c0-0.1-0.2-0.9-0.3-1.4c-0.1-0.5-0.2-0.9-0.2-1.4c0-0.6,0-0.8,0.1-1.1c0.1-0.3,0.1-0.4,0.9-1.9
			c0.7-1.4,0.8-1.5,0.8-1.8c0.1-0.8-0.2-1.6-0.2-1.8c-0.3-0.8-0.6-0.9-0.6-1.5c0-0.5,0.2-1,0.5-1.3"/>
		<circle class="st7" cx="221.3" cy="486.9" r="0.4"/>
		<circle class="st7" cx="221" cy="490.9" r="0.3"/>
		<circle class="st7" cx="227.6" cy="493.3" r="0.3"/>
		<circle class="st7" cx="230.3" cy="490.1" r="0.3"/>
		<circle class="st7" cx="230.3" cy="486.1" r="0.2"/>
		<circle class="st7" cx="224.8" cy="483.6" r="0.2"/>
		<circle class="st7" cx="222.8" cy="483.1" r="0.1"/>
		<circle class="st7" cx="232.2" cy="492.8" r="0.3"/>
		<circle class="st7" cx="233.4" cy="490" r="0.4"/>
		<circle class="st7" cx="233.6" cy="486.8" r="0.1"/>
		<circle class="st7" cx="216.1" cy="486.8" r="0.2"/>
		<circle class="st7" cx="215.7" cy="491.2" r="0.3"/>
		<circle class="st7" cx="219" cy="486.2" r="0.1"/>
		<circle class="st7" cx="236.4" cy="491.9" r="0.2"/>
		<circle class="st7" cx="240.5" cy="489.5" r="0.2"/>
		<circle class="st30" cx="240.4" cy="493.4" r="0.2"/>
		<circle class="st30" cx="217.3" cy="489.1" r="0.3"/>
		<circle class="st30" cx="214" cy="488" r="0.3"/>
		<circle class="st30" cx="216.7" cy="485.6" r="0.1"/>
		<circle class="st30" cx="237.9" cy="490" r="0.2"/>
	</g>
	<g>
		<path class="st8" d="M281.8,431.5c1.3-0.4,3-0.9,5.2-0.4c5.4,1,7.8,6.6,7.9,6.9c1.7,4.3,0.3,8.1-0.2,9.4c-0.6,1.5-1.3,3.4-3.1,4.8
			c-4,3-9.5,0.9-10.4,0.6c-1.2-0.4-5.6-2.1-7.4-6.9c-0.2-0.6-1.9-5.2,0.6-9.4C276.5,433,280.1,432,281.8,431.5z"/>
		<path class="st8" d="M282.2,433c0.8-1.6,0.2-3-0.3-6.5c-0.4-2.5-0.5-4.7-0.5-6.5c-0.5,1.6-0.9,3.1-1.4,4.7c-1-0.8-2-1.6-3-2.4
			c0,1.4-0.1,2.7-0.1,4.1c-1.2-0.6-2.3-1.3-3.5-1.9c-0.3,1.2-0.5,2.5-0.8,3.7c-1.3-0.2-2.6-0.4-3.9-0.6c0.3,0.6,0.8,1.4,1.4,2.3
			c1.7,2.4,4.3,6,7.6,5.9C279.5,435.7,281.4,434.6,282.2,433z"/>
		<path class="st8" d="M290.6,449.1c2-0.4,3.7,2.1,6.5,4.4c1.7,1.5,4.4,3.3,8.2,4.7c-1.3-0.3-2.6-0.5-3.9-0.8c0,0.8-0.1,1.6-0.1,2.4
			c-0.9-0.2-1.7-0.4-2.6-0.6c0,1,0.1,2.1,0.1,3.1c-1.2-0.4-2.3-0.7-3.5-1.1c0.1,0.8,0.2,1.5,0.3,2.3c-0.8-0.2-1.6-0.5-2.4-0.7
			c-0.3,1.2-0.7,2.5-1,3.7c-1.4-5.1-2.7-10.3-4.1-15.4C288.7,450.3,289.4,449.3,290.6,449.1z"/>
		<path class="st30" d="M290.6,433.4c-0.4,0.2-0.6,1-0.5,2.5c-0.9,0-1.7,0-2.6,0c-0.1,0.9-0.2,1.8-0.3,2.8c-0.9-0.3-1.8-0.6-2.8-0.9
			c0.1,1,0.1,2,0.2,3c-0.9-0.3-1.9-0.7-2.8-1c0,0.9-0.1,1.8-0.1,2.6c-0.8-0.5-1.5-0.9-2.3-1.4c-0.1,1-0.2,2-0.3,2.9
			c-0.7-0.6-1.4-1.1-2.1-1.7c0.2,0.8,0.5,1.7,0.7,2.5c-0.8-0.5-1.7-0.9-2.5-1.4c0.1,0.8,0.2,1.5,0.3,2.3c-0.5-0.3-1-0.7-1.5-1
			c0.1,0.7,0.3,1.6,0.6,2.5c0.3,0.7,0.5,1.2,0.9,1.9c0.5,0.9,0.8,1.3,1,1.3c0.6,0,0.7-1.3,1.8-2.9c0.5-0.7,1.5-2,3-2.4
			c1.6-0.4,2.3,0.8,3.5,0.3c0.4-0.2,0.7-0.4,2.3-3.3c1.2-2.2,1.5-2.8,2.1-2.9c1-0.1,1.6,1.8,2.3,1.6c0.8-0.2,0.5-2.2,1.8-2.9
			c0.5-0.3,1.1-0.3,1.6-0.2C292.7,434.6,291.3,433.1,290.6,433.4z"/>
		<circle class="st30" cx="281" cy="448.8" r="1.2"/>
		<circle class="st30" cx="288.7" cy="443.5" r="1.1"/>
		<circle class="st30" cx="294.5" cy="440.4" r="0.9"/>
		<path class="st45" d="M275,448.2c2.1-0.1,2.3-2.8,3-3.3c0.6-0.5,3.3,0.9,4.6-0.8c1.4-1.8,1-2.6,1.6-3c1.4-0.9,2.5-0.5,3.7-1.3
			c1.5-1.1,0.1-2.2,1.5-3c0.9-0.5,1.4,0,2.8-0.7c0.5-0.3,0.9-0.6,1.2-0.8"/>
		<circle class="st30" cx="286.6" cy="433.7" r="0.9"/>
		<circle class="st30" cx="281.1" cy="437.4" r="0.9"/>
		<circle class="st30" cx="276.1" cy="440" r="0.9"/>
		<path class="st46" d="M281.9,453c0.1-0.1,0.8-1,1.2-1.7c0.4-0.6,0.9-1.1,1.4-1.5c0.7-0.6,0.9-0.8,1.3-0.9c0.4-0.2,0.6-0.3,2.8-0.8
			c2.1-0.5,2.3-0.6,2.7-0.8c1-0.7,1.5-1.7,1.7-2c0.5-1,0.4-1.5,0.9-2.1c0.5-0.6,1.3-0.7,1.8-0.8"/>
		<circle class="st7" cx="282.5" cy="433.8" r="0.6"/>
		<circle class="st7" cx="277.9" cy="437.3" r="0.4"/>
		<circle class="st7" cx="281.8" cy="446.6" r="0.5"/>
		<circle class="st7" cx="287.7" cy="446.4" r="0.4"/>
		<circle class="st7" cx="291.9" cy="442.7" r="0.4"/>
		<circle class="st7" cx="289.4" cy="434.4" r="0.3"/>
		<circle class="st7" cx="288" cy="431.8" r="0.2"/>
		<circle class="st7" cx="286.6" cy="451" r="0.5"/>
		<circle class="st7" cx="290.7" cy="449.6" r="0.5"/>
		<circle class="st7" cx="294.3" cy="446.8" r="0.2"/>
		<circle class="st7" cx="277.7" cy="428.2" r="0.3"/>
		<circle class="st7" cx="272.7" cy="431.9" r="0.4"/>
		<circle class="st7" cx="281" cy="430.7" r="0.2"/>
		<circle class="st7" cx="291.5" cy="454.7" r="0.3"/>
		<circle class="st7" cx="298" cy="456.8" r="0.3"/>
		<circle class="st30" cx="293.8" cy="460.3" r="0.2"/>
		<circle class="st30" cx="276.4" cy="431.6" r="0.4"/>
		<circle class="st30" cx="274.5" cy="427.1" r="0.4"/>
		<circle class="st30" cx="279.6" cy="427.7" r="0.1"/>
		<circle class="st30" cx="295" cy="454.5" r="0.3"/>
	</g>
	<g>
		<path class="st8" d="M377.2,400.6c0.4-0.8,1-2,2.2-2.9c3.1-2.4,7.1-1,7.3-0.9c3,1.1,4.4,3.6,4.8,4.5c0.5,1,1.2,2.2,1,3.9
			c-0.3,3.5-3.9,5.4-4.6,5.7c-0.8,0.4-3.7,2-7.1,0.7c-0.4-0.2-3.6-1.4-4.6-4.7C375.5,404.1,376.6,401.7,377.2,400.6z"/>
		<path class="st8" d="M378.1,401.1c-0.5-1.2-1.5-1.5-3.6-2.9c-1.5-1-2.7-1.9-3.6-2.8c0.6,1,1.2,1.9,1.8,2.9
			c-0.9,0.2-1.8,0.3-2.7,0.5c0.7,0.7,1.4,1.3,2.1,2c-0.9,0.3-1.8,0.6-2.6,0.9c0.5,0.7,1,1.4,1.6,2.1c-0.7,0.6-1.4,1.2-2.1,1.8
			c0.4,0.1,1.1,0.2,1.9,0.3c2.1,0.2,5.1,0.6,6.6-1.2C378.3,403.8,378.6,402.3,378.1,401.1z"/>
		<path class="st8" d="M390.5,404.2c0.7-1.2,2.8-1,5.3-1.3c1.6-0.2,3.8-0.7,6.3-2.1c-0.7,0.6-1.5,1.1-2.2,1.7
			c0.4,0.4,0.8,0.8,1.2,1.2c-0.5,0.4-1,0.7-1.5,1.1c0.6,0.5,1.1,0.9,1.7,1.4c-0.7,0.4-1.5,0.9-2.2,1.3c0.5,0.3,0.9,0.6,1.4,0.9
			c-0.5,0.3-1,0.6-1.5,0.9c0.5,0.8,1,1.5,1.5,2.3c-3.3-1.7-6.6-3.4-10-5.1C390.2,405.8,390,404.9,390.5,404.2z"/>
		<path class="st30" d="M382.3,396.9c-0.1,0.3,0.2,0.8,1.1,1.5c-0.4,0.4-0.8,0.9-1.2,1.3c0.4,0.5,0.9,1,1.3,1.5
			c-0.6,0.3-1.2,0.7-1.8,1c0.5,0.4,1.1,0.9,1.6,1.3c-0.6,0.3-1.2,0.7-1.8,1c0.4,0.4,0.9,0.9,1.3,1.3c-0.6,0.2-1.2,0.4-1.8,0.6
			c0.5,0.5,0.9,1,1.4,1.6c-0.6,0.1-1.2,0.2-1.9,0.4c0.5,0.3,1.1,0.5,1.6,0.8c-0.6,0.2-1.3,0.4-1.9,0.7c0.5,0.3,0.9,0.6,1.4,0.9
			c-0.4,0.1-0.8,0.2-1.3,0.3c0.4,0.3,1,0.6,1.6,0.8c0.5,0.2,0.9,0.3,1.4,0.4c0.7,0.1,1,0.2,1.2,0.1c0.3-0.3-0.4-1-0.7-2.3
			c-0.1-0.6-0.4-1.7,0.2-2.7c0.6-1,1.5-0.8,1.8-1.7c0.1-0.3,0.1-0.6-0.6-2.8c-0.6-1.7-0.8-2.1-0.5-2.4c0.4-0.6,1.7,0,2-0.5
			c0.3-0.5-0.9-1.3-0.7-2.3c0.1-0.4,0.4-0.7,0.6-0.9C383.9,396.3,382.5,396.4,382.3,396.9z"/>
		<circle class="st30" cx="385.9" cy="409.1" r="0.8"/>
		<circle class="st30" cx="386.7" cy="402.6" r="0.8"/>
		<circle class="st30" cx="387.8" cy="398.1" r="0.6"/>
		<path class="st45" d="M382.8,412c0.9-1.2-0.4-2.5-0.4-3.1c0-0.6,2-1.3,1.7-2.8c-0.3-1.6-0.9-1.8-0.8-2.3c0.2-1.1,0.9-1.5,1-2.5
			c0.1-1.3-1.1-1.1-0.9-2.2c0.2-0.7,0.7-0.8,0.9-1.8c0.1-0.4,0.1-0.8,0.1-1"/>
		<circle class="st30" cx="380.6" cy="399.1" r="0.6"/>
		<circle class="st30" cx="379.9" cy="403.7" r="0.6"/>
		<circle class="st30" cx="379" cy="407.6" r="0.6"/>
		<path class="st46" d="M388.4,410.6c0-0.1-0.2-0.9-0.3-1.4c-0.1-0.5-0.2-0.9-0.2-1.4c0-0.6,0-0.8,0.1-1.1c0.1-0.3,0.1-0.4,0.9-1.9
			c0.7-1.4,0.8-1.5,0.8-1.8c0.1-0.8-0.2-1.6-0.2-1.8c-0.3-0.8-0.6-0.9-0.6-1.5c0-0.5,0.2-1,0.5-1.3"/>
		<circle class="st7" cx="378.7" cy="401.3" r="0.4"/>
		<circle class="st7" cx="378.4" cy="405.4" r="0.3"/>
		<circle class="st7" cx="385.1" cy="407.7" r="0.3"/>
		<circle class="st7" cx="387.7" cy="404.5" r="0.3"/>
		<circle class="st7" cx="387.8" cy="400.6" r="0.2"/>
		<circle class="st7" cx="382.2" cy="398" r="0.2"/>
		<circle class="st7" cx="380.2" cy="397.5" r="0.1"/>
		<circle class="st7" cx="389.6" cy="407.2" r="0.3"/>
		<circle class="st7" cx="390.8" cy="404.4" r="0.4"/>
		<circle class="st7" cx="391" cy="401.2" r="0.1"/>
		<circle class="st7" cx="373.5" cy="401.2" r="0.2"/>
		<circle class="st7" cx="373.1" cy="405.6" r="0.3"/>
		<circle class="st7" cx="376.4" cy="400.7" r="0.1"/>
		<circle class="st7" cx="393.9" cy="406.4" r="0.2"/>
		<circle class="st7" cx="398" cy="404" r="0.2"/>
		<circle class="st30" cx="397.9" cy="407.8" r="0.2"/>
		<circle class="st30" cx="374.7" cy="403.5" r="0.3"/>
		<circle class="st30" cx="371.5" cy="402.4" r="0.3"/>
		<circle class="st30" cx="374.2" cy="400" r="0.1"/>
		<circle class="st30" cx="395.4" cy="404.5" r="0.2"/>
	</g>
	<g>
		<path class="st19" d="M541.7,458.5c-4.1,3.6-8.8,7.7-15.4,8.5c-5.8,0.7-7-1.7-23.5-4.6c-6.1-1.1-12.4-1.2-18.6-0.2
			c-20.7,3-22.6,3-25,1.9c-4.7-2.2-9.3-7.4-7.9-11.1c1.3-3.7,8.2-4.1,8.9-4.1c-3.7,0.1-14.6,0-22.7-7.8c-4.4-4.2-9.6-12.2-7.1-16.5
			c2.9-4.9,14.1-2.1,15-5.4c0.7-2.7-6.9-4.9-7.3-10c-0.4-5.2,6.5-10.4,12.3-12.3c9.7-3,18.3,2.8,19.6,3.7c0-0.3,0.6-5.4,4.6-7.3
			c4-1.9,9.1,0.6,11.3,4.2c0.7,1.2,1.2,2.6,1.3,4c0.6-2.6,1.9-4.9,3.7-6.8c1.7-1.5,3.6-2.7,5.8-3.4c2.2-0.7,4.4-0.9,6.7-0.6
			c6,1,11.5,6,12.1,12.5c0.2,3.4-0.7,6.7-2.8,9.4c2.1-2.3,4.7-4.2,7.5-5.4c4.4-1.8,13-3.7,17.5,0.8c5.2,5.3,1.7,16.1-2.5,22
			c-1.8,2.5-4.1,4.7-6.7,6.3c1.7-0.4,3.3-0.5,5-0.5c7.1,0.3,15.7,4.7,16.2,10.6C550.2,451,546.3,454.4,541.7,458.5z"/>
		<path class="st20" d="M498.1,451h-8.5v63.4h8.5V451z"/>
		<path class="st19" d="M493.4,457.3c9.6,0,17.4-6.4,17.4-14.3c0-7.9-7.8-14.3-17.4-14.3c-9.6,0-17.4,6.4-17.4,14.3
			C475.9,450.9,483.7,457.3,493.4,457.3z"/>
	</g>
	<g>
		<path class="st19" d="M75.1,526.6c-2.8,2.4-5.8,5.1-10.3,5.7c-3.8,0.5-4.7-1.1-15.7-3.1c-4.1-0.8-8.3-0.8-12.4-0.1
			c-13.8,2-15.1,2-16.7,1.3c-3.1-1.5-6.2-4.9-5.3-7.4c0.9-2.4,5.5-2.8,6-2.8c-2.5,0.1-9.7,0-15.1-5.2c-2.9-2.8-6.4-8.1-4.7-11
			c1.9-3.2,9.4-1.4,10-3.6c0.5-1.8-4.6-3.2-4.9-6.7c-0.3-3.4,4.3-7,8.2-8.2c6.5-2,12.2,1.9,13.1,2.5c0-0.2,0.4-3.6,3.1-4.9
			c2.7-1.3,6.1,0.4,7.5,2.8c0.5,0.8,0.8,1.7,0.9,2.7c0.4-1.7,1.3-3.3,2.5-4.5c1.1-1,2.4-1.8,3.9-2.3c1.4-0.5,3-0.6,4.5-0.4
			c4,0.7,7.7,4,8.1,8.3c0.2,2.2-0.5,4.5-1.8,6.3c1.4-1.6,3.1-2.8,5-3.6c2.9-1.2,8.7-2.5,11.7,0.5c3.5,3.5,1.2,10.8-1.7,14.7
			c-1.2,1.7-2.7,3.1-4.5,4.2c1.1-0.3,2.2-0.4,3.4-0.3c4.7,0.2,10.5,3.1,10.8,7.1C80.7,521.7,78.1,523.9,75.1,526.6z"/>
		<path class="st20" d="M46,521.6h-5.6v42.3H46V521.6z"/>
		<path class="st19" d="M42.8,525.8c6.4,0,11.6-4.3,11.6-9.5c0-5.3-5.2-9.5-11.6-9.5c-6.4,0-11.6,4.3-11.6,9.5
			C31.2,521.6,36.4,525.8,42.8,525.8z"/>
	</g>
	<g>
		<path class="st19" d="M307.7,670c-2.8,2.4-5.8,5.1-10.3,5.7c-3.8,0.5-4.7-1.1-15.7-3.1c-4.1-0.8-8.3-0.8-12.4-0.1
			c-13.8,2-15.1,2-16.7,1.3c-3.1-1.5-6.2-4.9-5.3-7.4c0.9-2.4,5.5-2.8,6-2.8c-2.5,0.1-9.7,0-15.1-5.2c-2.9-2.8-6.4-8.1-4.7-11
			c1.9-3.2,9.4-1.4,10-3.6c0.5-1.8-4.6-3.2-4.9-6.7c-0.3-3.4,4.3-7,8.2-8.2c6.5-2,12.2,1.9,13.1,2.5c0-0.2,0.4-3.6,3.1-4.9
			c2.7-1.3,6.1,0.4,7.5,2.8c0.5,0.8,0.8,1.7,0.9,2.7c0.4-1.7,1.3-3.3,2.5-4.5c1.1-1,2.4-1.8,3.9-2.3c1.4-0.5,3-0.6,4.5-0.4
			c4,0.7,7.7,4,8.1,8.3c0.2,2.2-0.5,4.5-1.8,6.3c1.4-1.6,3.1-2.8,5-3.6c2.9-1.2,8.7-2.5,11.7,0.5c3.5,3.5,1.2,10.8-1.7,14.7
			c-1.2,1.7-2.7,3.1-4.5,4.2c1.1-0.3,2.2-0.4,3.4-0.3c4.7,0.2,10.5,3.1,10.8,7.1C313.4,665,310.8,667.3,307.7,670z"/>
		<path class="st20" d="M278.7,665H273v42.3h5.6V665z"/>
		<path class="st19" d="M275.5,669.2c6.4,0,11.6-4.3,11.6-9.5s-5.2-9.5-11.6-9.5c-6.4,0-11.6,4.3-11.6,9.5S269.1,669.2,275.5,669.2z
			"/>
	</g>
	<path class="st12" d="M1268.8,122.7c-31.5,34.9-78.5-10.8-174.3,11.7c-36.8,8.7-56.9,24.8-132.7,46.1c-56.6,15.9-73.1,4.3-84.4-3.4
		c-29.1-19.8-46-81.7-20.4-101.7c7.4-5.7,21.5-16.6,30.9-17.6c16.6-1.7,44.4,8.3,49.3-3.5c3.9-9.4-2.7-16.6,3-24.9
		c9.7-14.2,40.4-10.1,51.4-8.6c17.8,2.4,23.3,10.2,37.9,10.6c52.2,1.4,68.9-4.7,79.9-7.9c38.3-11.2,66.9-27.4,78.2-19
		c5.1,3.8,8.4,8.2,11.4,17.2c5.8,17.2,23.6-10.2,46.5,27.5c10.2,16.9,27.9,16.9,33.8,31.6C1284.9,94.3,1278.1,112.4,1268.8,122.7z"
		/>
	<path class="st10" d="M972.9,45.3c-1.2-12.2-12.7-21.1-25.8-19.8c-13.1,1.2-22.8,12.1-21.6,24.3c1.2,12.2,12.7,21.1,25.8,19.8
		C964.4,68.4,974,57.5,972.9,45.3z"/>
	<path class="st12" d="M941.3,37.2c-2,0.7-3.9,1.8-5.4,3.2c-1.2,1.2-2.2,2.5-3,3.9c-1,1.8-1.5,3.8-1.5,5.8c0,2.9,0.9,5.8,2.6,8.2
		c1.7,2.4,4.1,4.2,6.9,5.2c9.3,3.1,21.1-6.1,20.4-14.6C960.6,41.3,950.1,34.3,941.3,37.2z"/>
	<path class="st13" d="M942,37.1c-0.5,0.2-1.3,0.4-1.8,0.6c-1.8,0.8-3.4,1.8-4.9,3.2c-1.2,1-2.1,2.2-2.7,3.6c-0.3,0.5-0.5,1-0.7,1.5
		c0,0.1-0.3,0.7-0.3,0.8c-2.6,6,1.4,12.1,6.2,15.6c4-0.8,7.8-5.1,9.2-11.2c1.4-6.1-0.1-11.8-3.5-14.2C943.1,37,942.5,37,942,37.1z"
		/>
	<path class="st10" d="M920.8,50.2C919.6,38,908.1,29.2,895,30.4c-13.1,1.2-22.8,12.1-21.6,24.3s12.7,21.1,25.8,19.8
		C912.3,73.3,922,62.4,920.8,50.2z"/>
	<path class="st12" d="M889.2,42.8c-2,0.7-3.9,1.8-5.4,3.3c-1.2,1.2-2.2,2.5-3,3.9c-1,1.8-1.5,3.8-1.5,5.8c0,2.9,0.9,5.8,2.6,8.2
		c1.7,2.4,4.1,4.2,6.9,5.2c9.3,3,21.1-6.1,20.4-14.6C908.6,47,898,40,889.2,42.8z"/>
	<path class="st13" d="M890,42.8c-0.5,0.2-1.3,0.4-1.8,0.6c-1.8,0.8-3.4,1.8-4.9,3.2c-1.2,1-2.1,2.2-2.7,3.6c-0.3,0.5-0.5,1-0.7,1.5
		c-0.1,0.3-0.2,0.5-0.3,0.8c-2.6,6,1.4,12.1,6.2,15.6c4-0.8,7.8-5.1,9.2-11.2c1.4-6.1-0.1-11.8-3.5-14.2
		C891,42.7,890.5,42.7,890,42.8z"/>
	<path class="st21" d="M944.3,88.3c-12.3,7.5-30.2,8.8-41.9,0c-2.3-1.7-4.3-3.8-5.9-6.1c4.6,2.3,21.8,10.1,41.6,4
		c7-2.2,13.5-5.8,19-10.5C953.9,80.8,949.5,85.1,944.3,88.3z"/>
	<path class="st26" d="M1025.5,54.3c1.6-1.7-1.1-4.2-2.8-2.5c-9.1,9.7-18,20.2-29,27.8c-2,1.3,0,4.4,2,3.1
		C1007.1,75,1016.2,64.3,1025.5,54.3L1025.5,54.3z"/>
	<path class="st26" d="M995.7,81.7c0-0.5-0.2-0.9-0.6-1.3c-0.4-0.3-0.8-0.5-1.3-0.5c-0.5,0-0.9,0.3-1.3,0.6
		c-3.5,4.9-7.1,9.9-10.6,14.8c-0.3,0.4-0.5,0.9-0.4,1.3c0,0.5,0.2,0.9,0.6,1.3c0.4,0.3,0.8,0.5,1.3,0.5c0.5,0,0.9-0.3,1.3-0.6
		L995.2,83C995.5,82.7,995.7,82.2,995.7,81.7z"/>
	<path class="st26" d="M993.9,83.5c0.1-0.5,0-1-0.2-1.4c-0.3-0.4-0.7-0.7-1.2-0.8c-0.5-0.1-1,0-1.4,0.2c-5.4,2.9-11.3,4.6-17.3,5.3
		c-2.3,0.2-2.2,3.9,0.2,3.7c6.7-0.7,13.2-2.7,19.1-5.8C993.6,84.4,993.8,83.9,993.9,83.5z"/>
	<path class="st26" d="M993,82.6c0.4-0.3,0.7-0.7,0.8-1.2c0.1-0.5,0-1-0.3-1.4c-0.3-0.4-0.7-0.7-1.2-0.8c-5.5-0.6-10.9-1.6-16.2-2.9
		c-0.2-0.1-0.5-0.1-0.7,0c-0.2,0-0.5,0.1-0.7,0.3c-0.2,0.1-0.4,0.3-0.5,0.5c-0.1,0.2-0.2,0.4-0.3,0.7c-0.1,0.2-0.1,0.5,0,0.7
		c0,0.2,0.1,0.5,0.3,0.7c0.1,0.2,0.3,0.4,0.5,0.5c0.2,0.1,0.4,0.2,0.7,0.3c5.3,1.3,10.7,2.3,16.2,2.9C992.1,83,992.6,82.9,993,82.6z
		"/>
	<path class="st22" d="M562.4,234c7.6,13.7,18.6,20.8,35.2,31.2c7.1,4.5,6.5,3.6,40.1,21.6c17.8,9.4,22.9,12.5,29,18.3
		c3.1,3,5.9,6.3,8.3,9.8c19.4-20.6,41.6-36.9,58.8-62.3c8.9-8.9,10.4-11.9,16.3-16.3c3.7-2.8,8.9-8.9,5.9-9.1
		c-12.3-45.8-42.2-78.4-58.6-96.2C651,80.5,596.4,60.7,568.2,52.8c-2,11-2,22.3,0,33.2c2.6,13.5,8.1,26.2,16,37.4
		c10.7,16.1,25.1,29.5,41.8,39.2l0.2,33.9c-18.4-1.3-33.8-1.5-44.9-1.3c-15.2,0.2-20.3,1-23.5,4.9
		C549.4,210.1,560.9,231.5,562.4,234z"/>
	<path class="st12" d="M607.7,73.4c-1.7-0.1-3.4,0.1-5.1,0.7c-1.2,0.6-2.4,1.3-3.5,2.1c-1.3,1-2.3,2.3-2.9,3.9
		c-0.9,2.2-1.1,4.6-0.6,6.9c0.5,2.3,1.7,4.4,3.5,6c5.9,5.1,17.5,2.1,19.8-4.5C620.8,82.6,615.1,74,607.7,73.4z"/>
	<path class="st13" d="M608.2,73.7c-0.4,0-1.1-0.2-1.6-0.2c-1.6,0-3.1,0.3-4.6,0.8c-1.2,0.4-2.2,1-3.1,1.8c-0.4,0.4-0.6,0.4-1,0.9
		l-0.4,0.5c-3.8,3.6-2.8,9.4-0.3,13.5c3.2,0.7,7.4-1.4,10.4-5.4c3-4.1,3.7-8.8,1.9-11.6C609.1,73.9,608.7,73.7,608.2,73.7z"/>
	<g>
		<path class="st13" d="M18.2,649v67.8c2.1,0,4.2,0,6.3,0V649"/>
		<path class="st13" d="M30,645.4v71.4c2.1,0,4.2,0,6.3,0.1v-71.5"/>
		<path class="st13" d="M41.8,641.9V717c2.1,0,4.2,0.1,6.3,0.2v-75.3"/>
		<path class="st13" d="M53.5,638.3v79.1c2.1,0.1,4.2,0.2,6.3,0.2v-79.3"/>
		<path class="st13" d="M65.3,634.7v83.1c2.1,0.1,4.2,0.2,6.3,0.3v-83.4"/>
		<path class="st13" d="M77.1,631.1v86.9c2.1-0.1,4.2-0.2,6.3-0.2v-86.7"/>
		<path class="st13" d="M88.9,627.6v90.2c2.1,0,4.2,0,6.3,0.1v-90.2"/>
		<path class="st13" d="M100.6,626.3v91.7c2.1,0.1,4.2,0.1,6.3,0.2V626"/>
		<path class="st13" d="M201.1,649v67.8c-2.1,0-4.2,0-6.3,0V649"/>
		<path class="st13" d="M189.4,645.4v71.4c-2.1,0-4.2,0-6.3,0.1v-71.5"/>
		<path class="st13" d="M177.6,641.9V717c-2.1,0-4.2,0.1-6.3,0.2v-75.3"/>
		<path class="st13" d="M165.8,638.3v79.1c-2.1,0.1-4.2,0.2-6.3,0.2v-79.3"/>
		<path class="st13" d="M154,634.7v83.1c-2.1,0.1-4.2,0.2-6.3,0.3v-83.4"/>
		<path class="st13" d="M136,631.1v87c0.1,0,0.1,0,0.2,0c2.4,0,3.7,0,6.1,0v-87"/>
		<path class="st13" d="M124.2,627.6v90.9c2.1,0,4.2,0,6.3-0.1v-90.8"/>
		<path class="st13" d="M112.4,625.7v92.6c2.1,0.1,4.2,0.1,6.3,0.1v-92.8"/>
	</g>
	<g>
		<path class="st19" d="M15.3,667.8c-3.5,3.1-7.4,6.5-13.1,7.3c-4.9,0.6-5.9-1.4-20-3.9c-5.2-1-10.5-1-15.7-0.2
			c-17.6,2.6-19.2,2.5-21.2,1.6c-4-1.8-7.9-6.3-6.7-9.4c1.1-3.1,7-3.5,7.6-3.5c-3.1,0.1-12.4,0-19.2-6.6c-3.7-3.6-8.2-10.4-6-14
			c2.4-4.1,12-1.8,12.7-4.6c0.6-2.3-5.8-4.1-6.2-8.5c-0.4-4.4,5.5-8.9,10.5-10.4c8.2-2.6,15.5,2.4,16.6,3.2c0-0.3,0.5-4.5,3.9-6.2
			c3.4-1.6,7.7,0.5,9.6,3.5c0.6,1,1,2.2,1.1,3.4c0.5-2.2,1.6-4.2,3.2-5.7c1.4-1.3,3.1-2.3,4.9-2.9c1.8-0.6,3.8-0.7,5.7-0.5
			c5.1,0.9,9.8,5.1,10.3,10.6c0.2,2.8-0.6,5.7-2.3,8c1.8-2,4-3.5,6.4-4.6c3.7-1.6,11.1-3.2,14.9,0.7c4.4,4.5,1.5,13.7-2.1,18.7
			c-1.5,2.1-3.5,4-5.7,5.3c1.4-0.3,2.8-0.5,4.3-0.4c6,0.3,13.3,4,13.8,9C22.5,661.5,19.2,664.4,15.3,667.8z"/>
	</g>
</g>
<g id="Layer_10">
</g>
<g id="clouds">
	<path class="st12" d="M903.3,341.7c0.7-1.9,0.7-4,0-5.9c-1.8-4.9-7.7-5.8-8.3-5.9c-2.4-0.3-4.7,0.1-6.9,1.1c-2.1,1.1-3.9,2.7-5,4.8
		c-0.2,0.3-0.5,2.2-1.2,5.9v1.2c-0.3-0.5-0.7-0.9-1.2-1.2c-2.9-2-7.2-0.3-9.5,1.2c-2.2,1.4-3.9,3.5-4.8,5.9c-0.7,2.3-0.7,4.8,0,7.1
		c1,3.4,3.1,6.3,6,8.3h53.6c-1.4-1-2.6-2.2-3.6-3.6c-1.1-1.4-1.9-3-2.4-4.8c-0.6-2.8,0.4-3.4,0-5.9c-0.5-2.3-1.7-4.4-3.6-5.9
		c-2.3-1.9-4.9-2.1-8.3-2.4C906.5,341.6,904.9,341.6,903.3,341.7z"/>
	<path class="st12" d="M1203.8,382.6c0.7-1.9,0.7-4,0-5.9c-1.8-4.9-7.7-5.8-8.3-5.9c-2.4-0.3-4.7,0.1-6.9,1.1
		c-2.1,1.1-3.9,2.7-5,4.8c-0.2,0.3-0.5,2.2-1.2,5.9v1.2c-0.3-0.5-0.7-0.9-1.2-1.2c-2.9-2-7.2-0.3-9.5,1.2c-2.2,1.4-3.9,3.5-4.8,5.9
		c-0.7,2.3-0.7,4.8,0,7.1c1,3.4,3.1,6.3,6,8.3h53.6c-1.4-1-2.6-2.2-3.6-3.6c-1.1-1.4-1.9-3-2.4-4.8c-0.6-2.8,0.4-3.4,0-5.9
		c-0.5-2.3-1.7-4.4-3.6-5.9c-2.3-1.9-4.9-2.1-8.3-2.4C1207,382.5,1205.4,382.5,1203.8,382.6z"/>
	<path class="st12" d="M1092.5,298.2c0.7-2.1,0.7-4.4,0-6.5c-2-5.4-8.4-6.3-9.2-6.5c-2.6-0.4-5.2,0.1-7.5,1.3
		c-2.3,1.2-4.3,3-5.5,5.3c-0.2,0.4-0.5,2.4-1.3,6.5v1.3c-0.4-0.5-0.8-1-1.3-1.3c-3.2-2.2-7.9-0.3-10.5,1.3c-2.4,1.5-4.3,3.8-5.2,6.5
		c-0.8,2.5-0.8,5.3,0,7.8c1.1,3.7,3.4,6.9,6.5,9.1h58.8c-1.5-1.1-2.8-2.4-3.9-3.9c-1.2-1.5-2.1-3.3-2.6-5.2c-0.7-3,0.5-3.7,0-6.5
		c-0.5-2.6-1.9-4.9-3.9-6.5c-2.5-2-5.4-2.3-9.2-2.6C1096,298,1094.2,298,1092.5,298.2z"/>
	<path class="st12" d="M248.9,328.3c1.1-3.3,1.1-6.9,0-10.2c-3.1-8.4-13.1-9.9-14.3-10.2c-4-0.5-8.1,0.1-11.8,2
		c-3.6,1.8-6.6,4.7-8.6,8.2c-0.3,0.6-0.8,3.8-2.1,10.2v2.1c-0.6-0.8-1.3-1.5-2.1-2.1c-5-3.4-12.4-0.4-16.3,2.1
		c-3.8,2.4-6.7,6-8.1,10.2c-1.3,4-1.3,8.2,0,12.2c1.7,5.8,5.3,10.8,10.2,14.3h91.8c-2.3-1.7-4.4-3.8-6.1-6.1
		c-1.9-2.4-3.3-5.2-4.1-8.2c-1.1-4.7,0.8-5.8,0-10.2c-0.8-4-3-7.6-6.1-10.2c-4-3.2-8.4-3.6-14.3-4.1
		C254.4,328.1,251.6,328.1,248.9,328.3z"/>
	<path class="st12" d="M63.3,280.2c0.9-2.5,0.9-5.3,0-7.8c-2.4-6.4-10-7.6-10.9-7.8c-3.1-0.4-6.2,0.1-9,1.5
		c-2.8,1.4-5.1,3.6-6.6,6.3c-0.2,0.4-0.6,2.9-1.6,7.8v1.6c-0.4-0.6-1-1.1-1.6-1.6c-3.8-2.6-9.5-0.3-12.5,1.6
		c-2.9,1.8-5.1,4.6-6.2,7.8c-1,3-1,6.3,0,9.3c1.3,4.4,4,8.3,7.8,10.9h70.3c-1.8-1.3-3.4-2.9-4.7-4.7c-1.5-1.8-2.5-4-3.1-6.2
		c-0.8-3.6,0.6-4.4,0-7.8c-0.6-3.1-2.3-5.8-4.7-7.8c-3-2.4-6.4-2.7-10.9-3.1C67.4,280.1,65.3,280.1,63.3,280.2z"/>
	<path class="st12" d="M78.2,580.2c0.9-2.5,0.9-5.3,0-7.8c-2.4-6.4-10-7.6-10.9-7.8c-3.1-0.4-6.2,0.1-9,1.5
		c-2.8,1.4-5.1,3.6-6.6,6.3c-0.2,0.4-0.6,2.9-1.6,7.8v1.6c-0.4-0.6-1-1.1-1.6-1.6c-3.8-2.6-9.5-0.3-12.5,1.6
		c-2.9,1.8-5.1,4.6-6.2,7.8c-1,3-1,6.3,0,9.3c1.3,4.4,4,8.3,7.8,10.9h70.3c-1.8-1.3-3.4-2.9-4.7-4.7c-1.5-1.8-2.5-4-3.1-6.2
		c-0.8-3.6,0.6-4.4,0-7.8c-0.6-3.1-2.3-5.8-4.7-7.8c-3-2.4-6.4-2.7-10.9-3.1C82.4,580,80.3,580,78.2,580.2z"/>
	<path class="st12" d="M692.3,644.3c0.9-2.5,0.9-5.3,0-7.8c-2.4-6.4-10-7.6-10.9-7.8c-3.1-0.4-6.2,0.1-9,1.5
		c-2.8,1.4-5.1,3.6-6.6,6.3c-0.2,0.4-0.6,2.9-1.6,7.8v1.6c-0.4-0.6-1-1.1-1.6-1.6c-3.8-2.6-9.5-0.3-12.5,1.6
		c-2.9,1.8-5.1,4.6-6.2,7.8c-1,3-1,6.3,0,9.3c1.3,4.4,4,8.3,7.8,10.9h70.3c-1.8-1.3-3.4-2.9-4.7-4.7c-1.5-1.8-2.5-4-3.1-6.2
		c-0.8-3.6,0.6-4.4,0-7.8c-0.6-3.1-2.3-5.8-4.7-7.8c-3-2.4-6.4-2.7-10.9-3.1C696.4,644.1,694.3,644.1,692.3,644.3z"/>
	<path class="st12" d="M797.2,48.7c0.9-2.5,0.9-5.3,0-7.8c-2.4-6.4-10-7.6-10.9-7.8c-3.1-0.4-6.2,0.1-9,1.5s-5.1,3.6-6.6,6.3
		c-0.2,0.4-0.6,2.9-1.6,7.8v1.6c-0.4-0.6-1-1.1-1.6-1.6c-3.8-2.6-9.5-0.3-12.5,1.6c-2.9,1.8-5.1,4.6-6.2,7.8c-1,3-1,6.3,0,9.3
		c1.3,4.4,4,8.3,7.8,10.9h70.3c-1.8-1.3-3.4-2.9-4.7-4.7c-1.5-1.8-2.5-4-3.1-6.2c-0.8-3.6,0.6-4.4,0-7.8c-0.6-3.1-2.3-5.8-4.7-7.8
		c-3-2.4-6.4-2.7-10.9-3.1C801.3,48.5,799.2,48.5,797.2,48.7z"/>
	<path class="st12" d="M466,36.7c0.9-2.5,0.9-5.3,0-7.8c-2.4-6.4-10-7.6-10.9-7.8c-3.1-0.4-6.2,0.1-9,1.5c-2.8,1.4-5.1,3.6-6.6,6.3
		c-0.2,0.4-0.6,2.9-1.6,7.8v1.6c-0.4-0.6-1-1.1-1.6-1.6c-3.8-2.6-9.5-0.3-12.5,1.6c-2.9,1.8-5.1,4.6-6.2,7.8c-1,3-1,6.3,0,9.3
		c1.3,4.4,4,8.3,7.8,10.9h70.3c-1.8-1.3-3.4-2.9-4.7-4.7c-1.5-1.8-2.5-4-3.1-6.2c-0.8-3.6,0.6-4.4,0-7.8c-0.6-3.1-2.3-5.8-4.7-7.8
		c-3-2.4-6.4-2.7-10.9-3.1C470.2,36.5,468.1,36.5,466,36.7z"/>
	<path class="st12" d="M591.6,492.5c1.4-4,1.4-8.4,0-12.5c-3.8-10.3-16.1-12.1-17.5-12.5c-4.9-0.7-10,0.2-14.4,2.4
		c-4.5,2.2-8.1,5.7-10.6,10.1c-0.4,0.7-1,4.6-2.5,12.5v2.5c-0.7-1-1.5-1.8-2.5-2.5c-6.1-4.1-15.2-0.5-20,2.5
		c-4.7,2.9-8.2,7.3-10,12.5c-1.6,4.9-1.6,10.1,0,15c2.1,7.1,6.5,13.3,12.5,17.5h112.6c-2.9-2.1-5.4-4.6-7.5-7.5c-2.4-2.9-4-6.4-5-10
		c-1.3-5.8,0.9-7.1,0-12.5c-1-4.9-3.7-9.3-7.5-12.5c-4.9-3.9-10.3-4.4-17.5-5C598.3,492.2,594.9,492.2,591.6,492.5z"/>
	<path class="st12" d="M722.9,285.1c1.7-5,1.7-10.4,0-15.4c-4.7-12.7-19.8-14.9-21.5-15.4c-6.1-0.8-12.3,0.2-17.7,2.9
		c-5.5,2.7-10,7.1-13,12.4c-0.4,0.9-1.3,5.7-3.1,15.4v3.1c-0.8-1.2-1.9-2.3-3.1-3.1c-7.5-5.1-18.7-0.7-24.6,3.1
		c-5.7,3.6-10.1,9-12.3,15.4c-1.9,6-1.9,12.4,0,18.4c2.5,8.7,8,16.3,15.4,21.5h138.4c-3.5-2.6-6.6-5.7-9.2-9.2
		c-2.9-3.6-5-7.8-6.1-12.3c-1.6-7.1,1.2-8.8,0-15.4c-1.3-6-4.5-11.4-9.2-15.4c-6-4.8-12.6-5.4-21.5-6.2
		C731.1,284.8,727,284.8,722.9,285.1z"/>
	<path class="st12" d="M701.1,402.2c0.9-2.5,0.9-5.3,0-7.8c-2.4-6.4-10-7.6-10.9-7.8c-3.1-0.4-6.2,0.1-9,1.5s-5.1,3.6-6.6,6.3
		c-0.2,0.4-0.6,2.9-1.6,7.8v1.6c-0.4-0.6-1-1.1-1.6-1.6c-3.8-2.6-9.5-0.3-12.5,1.6c-2.9,1.8-5.1,4.6-6.2,7.8c-1,3-1,6.3,0,9.3
		c1.3,4.4,4,8.3,7.8,10.9h70.3c-1.8-1.3-3.4-2.9-4.7-4.7c-1.5-1.8-2.5-4-3.1-6.2c-0.8-3.6,0.6-4.4,0-7.8c-0.6-3.1-2.3-5.8-4.7-7.8
		c-3-2.4-6.4-2.7-10.9-3.1C705.3,402,703.2,402,701.1,402.2z"/>
	<path class="st12" d="M471.8,288.2c0.9-2.5,0.9-5.3,0-7.8c-2.4-6.4-10-7.6-10.9-7.8c-3.1-0.4-6.2,0.1-9,1.5
		c-2.8,1.4-5.1,3.6-6.6,6.3c-0.2,0.4-0.6,2.9-1.6,7.8v1.6c-0.4-0.6-1-1.1-1.6-1.6c-3.8-2.6-9.5-0.3-12.5,1.6
		c-2.9,1.8-5.1,4.6-6.2,7.8c-1,3-1,6.3,0,9.3c1.3,4.4,4,8.3,7.8,10.9h70.3c-1.8-1.3-3.4-2.9-4.7-4.7c-1.5-1.8-2.5-4-3.1-6.2
		c-0.8-3.6,0.6-4.4,0-7.8c-0.6-3.1-2.3-5.8-4.7-7.8c-3-2.4-6.4-2.7-10.9-3.1C476,288,473.9,288,471.8,288.2z"/>
</g>
<g id="" class="st50">
</g>
<g id="" class="st50">
	<rect x="297.4" y="227.2" class="st53" width="509.5" height="363.1"/>
	<circle class="st54" cx="579.2" cy="284.4" r="27.6"/>
	<circle class="st54" cx="579.2" cy="368.4" r="27.6"/>
	<circle class="st54" cx="579.2" cy="452.3" r="27.6"/>
	<circle class="st54" cx="579.2" cy="536.2" r="27.6"/>
	<rect x="625.3" y="247.3" class="st55" width="77.9" height="103.7"/>
	<rect x="714.7" y="247.3" class="st55" width="77.9" height="103.7"/>
	<rect x="625.3" y="362.1" class="st55" width="77.9" height="103.7"/>
	<rect x="713.4" y="362.1" class="st55" width="77.9" height="103.7"/>
	<rect x="626" y="477" class="st55" width="77.9" height="103.7"/>
	<rect x="713.4" y="477" class="st55" width="77.9" height="103.7"/>
	<path class="st56" d="M455.3,496.3c-2.9,11.8-6.5,23.8-6.8,36.1c0,0.4,0.2,0.9,0.5,1.2c0.3,0.3,0.7,0.5,1.2,0.5
		c0.4,0,0.9-0.2,1.2-0.5c0.3-0.3,0.5-0.7,0.5-1.2c0.3-12,3.8-23.7,6.6-35.2C458.9,495.1,455.7,494.2,455.3,496.3L455.3,496.3z"/>
	<path class="st56" d="M448.5,532.8c-2,5-4,10.1-6,15.1c-0.1,0.2-0.1,0.4,0,0.6c0,0.2,0.1,0.4,0.2,0.6c0.1,0.2,0.3,0.4,0.4,0.5
		c0.2,0.1,0.4,0.2,0.6,0.3c0.2,0.1,0.4,0.1,0.6,0c0.2,0,0.4-0.1,0.6-0.2c0.2-0.1,0.4-0.3,0.5-0.4c0.1-0.2,0.2-0.4,0.3-0.6
		c2-5,4-10.1,6-15.1c0.1-0.2,0.1-0.4,0-0.6c0-0.2-0.1-0.4-0.2-0.6s-0.3-0.4-0.4-0.5c-0.2-0.1-0.4-0.2-0.6-0.3
		c-0.2-0.1-0.4-0.1-0.6,0c-0.2,0-0.4,0.1-0.6,0.2c-0.2,0.1-0.4,0.3-0.5,0.4C448.7,532.4,448.6,532.6,448.5,532.8z"/>
	<path class="st56" d="M448.3,535.2c0.5,6,2.2,11.8,4.9,17.2c1,1.9,3.8,0.2,2.8-1.6c-2.5-4.8-4-10.1-4.5-15.5c0-0.4-0.2-0.9-0.5-1.2
		c-0.3-0.3-0.7-0.5-1.2-0.5c-0.4,0-0.9,0.2-1.2,0.5C448.5,534.4,448.4,534.8,448.3,535.2L448.3,535.2z"/>
	<path class="st56" d="M450.4,535.5c3.1,3.8,6.4,7.4,10,10.8c0.3,0.3,0.7,0.4,1.1,0.4c0.4,0,0.8-0.2,1.1-0.5
		c0.3-0.3,0.5-0.7,0.5-1.1c0-0.4-0.1-0.8-0.4-1.1c-3.5-3.4-6.8-7-9.9-10.8c-0.3-0.3-0.7-0.5-1.2-0.5c-0.4,0-0.9,0.2-1.2,0.5
		c-0.3,0.3-0.5,0.7-0.5,1.2C450,534.7,450.2,535.2,450.4,535.5L450.4,535.5z"/>
	<path class="st56" d="M408.2,499.6c-2.9,11.8-6.5,23.8-6.8,36.1c0,0.4,0.2,0.9,0.5,1.2c0.3,0.3,0.7,0.5,1.2,0.5
		c0.4,0,0.9-0.2,1.2-0.5c0.3-0.3,0.5-0.7,0.5-1.2c0.3-12,3.8-23.7,6.7-35.2C411.9,498.5,408.7,497.6,408.2,499.6z"/>
	<path class="st56" d="M401.4,536.2c-2,5-4,10.1-6,15.1c-0.1,0.2-0.1,0.4,0,0.6c0,0.2,0.1,0.4,0.2,0.6c0.1,0.2,0.3,0.4,0.4,0.5
		c0.2,0.1,0.4,0.2,0.6,0.3c0.2,0.1,0.4,0.1,0.6,0c0.2,0,0.4-0.1,0.6-0.2c0.2-0.1,0.4-0.3,0.5-0.4c0.1-0.2,0.2-0.4,0.3-0.6
		c2-5,4-10.1,6-15.1c0.1-0.2,0.1-0.4,0-0.6c0-0.2-0.1-0.4-0.2-0.6c-0.1-0.2-0.3-0.4-0.4-0.5c-0.2-0.1-0.4-0.2-0.6-0.3
		c-0.2-0.1-0.4-0.1-0.6,0c-0.2,0-0.4,0.1-0.6,0.2c-0.2,0.1-0.4,0.3-0.5,0.4C401.5,535.8,401.4,536,401.4,536.2z"/>
	<path class="st56" d="M401.3,538.6c0.5,6,2.2,11.8,4.9,17.2c1,1.9,3.8,0.2,2.9-1.6c-2.5-4.8-4-10.1-4.5-15.5c0-0.4-0.2-0.9-0.5-1.2
		c-0.3-0.3-0.7-0.5-1.2-0.5c-0.4,0-0.9,0.2-1.2,0.5C401.5,537.7,401.3,538.1,401.3,538.6L401.3,538.6z"/>
	<path class="st56" d="M403.3,538.8c3.1,3.8,6.4,7.4,9.9,10.8c0.3,0.3,0.7,0.5,1.2,0.5s0.9-0.2,1.2-0.5c0.2-0.2,0.3-0.3,0.4-0.5
		c0.1-0.2,0.1-0.4,0.1-0.6s0-0.4-0.1-0.6c-0.1-0.2-0.2-0.4-0.4-0.5c-3.5-3.4-6.8-7-9.9-10.8c-0.3-0.3-0.7-0.4-1.1-0.4
		c-0.4,0-0.8,0.2-1.1,0.5c-0.3,0.3-0.5,0.7-0.5,1.1C402.9,538.1,403,538.5,403.3,538.8z"/>
	<path class="st57" d="M378.9,436.9c-1,0.6-2,1.2-3,1.7c-11.2,6.1-23.4,10-36,11.7c-0.1,14.7,3.3,28,11.5,38.4
		c14,17.4,46.6,23.6,78.8,29.8c24.7,4.7,39.5,3.7,52.7,0c3.7-1,7.4-2.2,11.1-3.6c1.4-20.1,1.8-39.5,7.3-58.8
		c1.1-6.1,3.1-11.7,5.4-16.8C464.1,439,421.5,440.9,378.9,436.9z"/>
	<g class="st51">
		<path class="st23" d="M475.4,377.8c-10.1-26.3-19.8-44.1-23.8-46.3c-0.7-0.4-1.6-1-1.3-1.8c2.4-6.4,1.1-12.5,0-18.5c0,0,0,0,0,0
			c0.1-0.4-0.2-3.8-0.3-4.3c-0.6-3.9-0.8-3.9-1.2-7.5c0-0.3-0.1-0.5-0.2-0.8c-0.2-1.6-0.2-2.1-0.1-3.1c0.6-6.5,0.6-13.1,0.2-19.6
			c-0.8-7.9-2.4-8.6-2.8-8.8c-1.7-0.5-4,1.6-5.2,3.3c-1.1,1.7-1.6,3.7-1.6,5.8c0,12,2.4,17-0.4,22.3c-0.8,1.7-2.2,3.1-3.8,4.1
			c-1.8,1.1-4,1.4-6.1,0.9c-0.6-0.2-2.9-1-5.3-5.3c-2.1-4.2-3.2-8.8-3.2-13.4c-0.4-6.9,0.7-8.8-1.1-12.7c-0.4-0.8-2.4-5.2-5.2-5.1
			c-0.6,0.1-1.1,0.3-1.6,0.6c-0.5,0.3-0.9,0.7-1.2,1.2c-2.8,3.4-1.3,8.2,0,17.6c0.4,2.7,0.8,6.7,1.2,11.5c0,0,0,0-0.1,0
			c0.1,3.3-0.2,6,1.7,9.4c0.2,0.4,0.5,0.9,0.6,1.4c0.1,0.2,0.2,0.5,0.3,0.7c0.2,0.3,0.4,0.6,0.5,0.9c0.4,0.7,0.5,1.6,0.1,2.4
			c-3.5,7-3.6,12.2-2.6,16.2c1.3,4.8,1.6,3.4,4.6,10.2c0.2,0.4,1.3,1.6,2.1,2.5c0.5,0.6,0.7,1.4,0.5,2.2c-0.1,0.5-0.3,1-0.4,1.4
			c0,0.1,0,0.1-0.1,0.2c-4.5,23-13.5,44.2-24.3,64.7c-0.9,1.7,0.4,3.6,2.2,3.6c29.3-0.4,58.6-0.1,87.6,1.5c1.7,0.1,3-1.6,2.5-3.2
			C483.6,399.4,479.4,388.2,475.4,377.8z"/>
		<path class="st12" d="M445.4,315.6c-0.2-0.6-0.6-1.2-1.1-1.6c-0.5-0.5-1-0.8-1.6-1c-0.6-0.2-1.3-0.3-1.9-0.3s-1.3,0.2-1.9,0.5
			c-0.7,0.4-1.2,1.1-1.5,1.9c-0.3,0.8-0.3,1.6-0.1,2.4c0.2,0.5,0.4,1,0.8,1.4c0.3,0.3,0.7,0.6,1.1,0.8c0.5,0.3,1.1,0.4,1.7,0.5
			c0.6,0,1.2-0.1,1.7-0.3c0.6-0.2,1.1-0.6,1.5-1c0.4-0.4,0.7-0.9,1-1.5C445.4,316.8,445.5,316.2,445.4,315.6z"/>
		<path d="M441.7,320c0.4-0.6,0.6-1.3,0.6-2c0-0.7-0.2-1.4-0.6-2c-0.3-0.7-0.7-1.2-1.3-1.7c-0.6-0.4-1.2-0.7-2-0.8
			c-0.6,0.6-1,1.4-1.1,2.2c-0.1,0.8,0.1,1.7,0.5,2.4l0.1,0.2c0.1,0.1,0.2,0.2,0.3,0.4c0.3,0.3,0.6,0.6,1,0.7c0.5,0.3,1,0.4,1.5,0.5
			h0.5C441.4,320,441.5,320,441.7,320z"/>
		<path class="st12" d="M431.3,316.2c-0.2-0.6-0.6-1.2-1.1-1.6s-1-0.8-1.6-1c-0.6-0.2-1.3-0.3-1.9-0.3c-0.7,0-1.3,0.2-1.9,0.5
			c-0.7,0.5-1.2,1.1-1.5,1.9c-0.3,0.8-0.3,1.6-0.1,2.4c0.1,0.5,0.4,1,0.8,1.4c0.3,0.3,0.7,0.6,1.1,0.8c0.5,0.3,1.1,0.4,1.7,0.5
			c0.6,0,1.2-0.1,1.7-0.3c0.6-0.2,1.1-0.6,1.5-1c0.4-0.4,0.7-0.9,1-1.5C431.2,317.4,431.3,316.8,431.3,316.2z"/>
		<path d="M427.4,320.7c0.4-0.6,0.6-1.3,0.6-2c0-0.7-0.2-1.4-0.6-2c-0.3-0.7-0.7-1.2-1.3-1.7c-0.6-0.4-1.3-0.7-2-0.7
			c-0.6,0.6-1,1.4-1.1,2.2c-0.1,0.8,0.1,1.7,0.5,2.4l0.1,0.2c0.1,0.1,0.2,0.2,0.3,0.3c0.3,0.3,0.6,0.6,1,0.8c0.5,0.3,1,0.4,1.5,0.5
			h0.5L427.4,320.7z"/>
	</g>
	<path class="st58" d="M403.2,311.4c-0.9-2.3-4.8-12.1-15.2-16.9c-10.4-4.8-23.2-2.8-32.8,5.1c1.2,3.7,3.7,9.6,9.5,13.9
		C374.6,320.9,390.1,320.2,403.2,311.4z"/>
	<path class="st58" d="M458.4,307.1c0.9-2.3,4.8-12.1,15.2-16.9c10.4-4.8,23.2-2.8,32.8,5.1c-1.2,3.7-3.7,9.6-9.5,13.9
		C487,316.6,471.6,315.9,458.4,307.1z"/>
	<path class="st59" d="M746.8,416.4c1-1.6,3.8-6.2,9.2-8.3c1.7-0.6,3.2-0.9,4.3-0.9c0.5-0.5,5.1-5.1,4-11.6c-0.8-4.7-4-7.3-5-8
		c-5.9-4.4-15.2-3.2-18.9,1.4c-1.4,1.7-1.9,3.7-2.6,6.6c-1.1,4.4-0.8,7.9-0.9,8.8c-1.1,6.6-4.5,27.7-16.5,35.2
		c7.9,1.7,15.6,4.4,23,7.8c0.1-2,0.2-4.2,0.3-6.8C744.4,425,743.8,421.4,746.8,416.4z"/>
	<path class="st60" d="M757.6,407.1c0.3,0.9,2.5,0.6,4.5,1.1c4.5,1.1,5.7,4.4,8.2,5.5c1.5,0.7,3.4-1.2,3.5-2.4
		c0.1-1.6-2.9-4.1-15.9-7.8c0,0.2,0.1,0.6,0,1C758,406.1,757.5,406.6,757.6,407.1z"/>
	<path class="st60" d="M761.4,397.5c0.2-0.2,0.9,0.1,1.9-0.2c0.6-0.1,0.7-0.9,1.2-0.8c0.4,0,0.7,0.7,0.9,0.9c0.6,1.2,2,1.6,4.1,2.2
		c2.8,0.8,9.8,2.2,12.7,0.3c0.3-0.2,1.2-0.8,2.1-0.6c0,0,0.9,0.2,1,0.8c0.3,0.9-1.1,2-1.5,2.3c-3,2.4-6.3,0.7-12.7,2.2
		c-2.4,0.6-2.5,1.3-4.1,1c-3.4-0.5-6.8-1.6-8.9-2.2c0.3,0,1.8-0.4,2.4-0.6c0.7-0.3,1.4-0.9,1.7-1.4
		C762.8,399.9,760.3,398.3,761.4,397.5z"/>
	<path class="st61" d="M746.2,394.9c-0.2-2.9,3.8-6,7-4.9c0.9,0.3,1.7,1,2.3,1.8c0.6,0.8,0.9,1.8,0.8,2.8c0,0.7-0.2,1.4-0.5,2
		c-0.3,0.5-0.6,0.9-1.1,1.3c-0.5,0.5-1.2,0.9-1.9,1.1C750,400,746.4,397.5,746.2,394.9z"/>
	<path class="st62" d="M752.2,399c-1.1-0.8-1.6-2.8-1.1-4.9c0.5-2.1,1.8-3.5,3.2-3.8c1.6,1.3,2.9,3.3,2,5.3c0,0-0.1,0.2-0.1,0.3
		c-0.1,0.2-0.1,0.3-0.2,0.5c-0.2,0.5-0.5,0.9-0.9,1.2c-0.5,0.4-1.1,0.8-1.7,1c-0.2,0.1-0.5,0.1-0.6,0.2
		C752.6,399,752.4,399,752.2,399z"/>
	<g class="st51">
		<path class="st23" d="M774.2,550.7c-6.1-15.8-11.9-26.6-14.3-27.9c-0.4-0.2-0.9-0.6-0.8-1.1c1.5-3.8,0.6-7.5,0-11.1c0,0,0,0,0,0
			c0-0.3-0.1-2.3-0.2-2.6c-0.3-2.4-0.5-2.4-0.7-4.5c0-0.2-0.1-0.3-0.1-0.5c-0.2-0.9-0.1-1.3-0.1-1.9c0.3-3.9,0.4-7.9,0.1-11.8
			c-0.5-4.8-1.4-5.2-1.7-5.3c-1-0.3-2.4,1-3.1,2c-0.6,1-1,2.3-0.9,3.5c0,7.2,1.4,10.2-0.3,13.4c-0.5,1-1.3,1.9-2.3,2.4
			c-1.1,0.7-2.4,0.8-3.7,0.5c-0.4-0.1-1.7-0.6-3.2-3.2c-1.3-2.5-1.9-5.3-1.9-8.1c-0.2-4.2,0.4-5.3-0.6-7.6c-0.2-0.5-1.4-3.1-3.1-3.1
			c-0.3,0-0.7,0.2-1,0.3c-0.3,0.2-0.6,0.4-0.7,0.7c-1.7,2-0.8,5,0,10.6c0.2,1.6,0.5,4,0.7,6.9c0,0,0,0,0,0c0.1,2-0.1,3.6,1,5.6
			c0.1,0.3,0.3,0.5,0.4,0.8c0,0.1,0.1,0.3,0.2,0.4c0.1,0.2,0.2,0.4,0.3,0.5c0.3,0.4,0.3,1,0.1,1.4c-2.1,4.2-2.2,7.4-1.6,9.7
			c0.8,2.9,0.9,2,2.8,6.2c0.1,0.2,0.8,1,1.2,1.5c0.3,0.4,0.4,0.9,0.3,1.3c-0.1,0.3-0.2,0.6-0.2,0.9c0,0,0,0.1,0,0.1
			c-2.7,13.8-8.1,26.6-14.6,39c-0.5,1,0.2,2.2,1.3,2.2c17.7-0.2,35.2-0.1,52.7,0.9c1,0.1,1.8-0.9,1.5-1.9
			C779.1,563.7,776.6,557,774.2,550.7z"/>
		<path class="st12" d="M756.2,513.3c-0.1-0.4-0.4-0.7-0.6-1c-0.3-0.3-0.6-0.5-1-0.6c-0.4-0.1-0.8-0.2-1.2-0.2
			c-0.4,0-0.8,0.1-1.1,0.3c-0.4,0.3-0.7,0.7-0.9,1.1c-0.2,0.5-0.2,1-0.1,1.4c0.1,0.3,0.3,0.6,0.5,0.9c0.2,0.2,0.4,0.4,0.7,0.5
			c0.3,0.2,0.7,0.3,1,0.3c0.4,0,0.7-0.1,1-0.2c0.3-0.1,0.6-0.3,0.9-0.6c0.3-0.3,0.4-0.6,0.6-0.9C756.1,514,756.2,513.6,756.2,513.3z
			"/>
		<path d="M753.9,515.9c0.2-0.4,0.3-0.8,0.3-1.2s-0.1-0.8-0.3-1.2c-0.2-0.4-0.4-0.7-0.8-1s-0.8-0.4-1.2-0.5
			c-0.4,0.4-0.6,0.8-0.6,1.3c-0.1,0.5,0.1,1,0.3,1.4l0.1,0.1c0.1,0.1,0.1,0.1,0.2,0.2c0.2,0.2,0.4,0.3,0.6,0.4
			c0.3,0.2,0.6,0.3,0.9,0.3h0.3C753.7,515.9,753.8,515.9,753.9,515.9z"/>
		<path class="st12" d="M747.7,513.6c-0.1-0.4-0.4-0.7-0.6-1c-0.3-0.3-0.6-0.5-1-0.6c-0.4-0.1-0.8-0.2-1.2-0.2
			c-0.4,0-0.8,0.1-1.1,0.3c-0.4,0.3-0.7,0.7-0.9,1.1c-0.2,0.5-0.2,1-0.1,1.4c0.1,0.3,0.3,0.6,0.5,0.9c0.2,0.2,0.4,0.4,0.7,0.5
			c0.3,0.2,0.7,0.3,1,0.3c0.4,0,0.7-0.1,1.1-0.2c0.3-0.1,0.6-0.3,0.9-0.6c0.3-0.3,0.4-0.6,0.6-0.9
			C747.6,514.4,747.7,514,747.7,513.6z"/>
		<path d="M745.3,516.3c0.2-0.4,0.3-0.8,0.3-1.2c0-0.4-0.1-0.8-0.3-1.2c-0.2-0.4-0.4-0.7-0.8-1c-0.3-0.3-0.8-0.4-1.2-0.5
			c-0.4,0.4-0.6,0.8-0.6,1.3c-0.1,0.5,0.1,1,0.3,1.4l0.1,0.1c0.1,0.1,0.1,0.1,0.2,0.2c0.2,0.2,0.4,0.4,0.6,0.5
			c0.3,0.2,0.6,0.3,0.9,0.3h0.3L745.3,516.3z"/>
	</g>
	<path class="st57" d="M690.5,428c0.1-0.1,0.1-0.3,0.2-0.4c1.3-1.5,1.9-1.9,2.9-3.1c2.4-4.2,1.9-8.5-0.9-12.3
		c-2.2-3.2-5.2-3-8.9-0.9c-0.4,0.7-0.8,1.4-1.2,2.1c-0.6,1.8-1,3.7-1.3,5.6c0,0.7-0.3,1.3-0.7,1.9c-0.4,0.6-0.9,1-1.6,1.2
		c-2.5,1-4.3-1.2-4.8-3.4c-0.5-2.2-0.3-4.3-0.2-6.4c-0.2-1.6-0.2-3.1-0.2-4.7c-0.6-3.1-1.7-6.2-4.3-8c-5.4-3.8-12.1-4.7-16.4-9.7
		c-4,0.7-10.8,8.2-16.6,18.1c3.1,0.3,6.1,0.3,9.2,0.1c3.4-0.3,7.1-1.2,9.8-3.6c-2.5,3.1-6.2,4.9-8.9,7.9c-4.4,0.7-8.9,1.3-13.4,1.8
		c-1.3,2.7-2.5,5.5-3.6,8.4c4.6,0.3,9.3-0.3,13.6-1.8c4.4-1.5,8.4-3.8,11.9-6.9c-3.7,7.5-7.4,16.3-15,20.9
		c15.4,1.4,30.7,0.8,46.1,0.8c1.1-2.4,2.4-4.5,3.6-6.7C690.1,428.5,690.3,428.2,690.5,428z"/>
	<path class="st64" d="M695.9,419.5l-2.6-0.1l1.2,3.3l0.3,0.8C695.2,422.1,695.6,420.8,695.9,419.5z"/>
	<path class="st64" d="M696.8,419.6l-2.1-2.8l-1.4,2.4l-0.1,0.1c1.1,0.9,2.1,1.8,3,2.8l2.7,0.3L696.8,419.6z"/>
	<path class="st61" d="M687.9,416.3c-0.2,1.1,1.2,2.4,2.4,2.2c0.4-0.1,0.7-0.3,1-0.6c0.3-0.3,0.4-0.6,0.4-1c0-0.3,0-0.5-0.1-0.8
		c-0.1-0.2-0.2-0.4-0.3-0.5c-0.2-0.2-0.4-0.4-0.7-0.5C689.6,414.5,688.1,415.3,687.9,416.3z"/>
	<path class="st62" d="M690.4,415c-0.2,0.2-0.4,0.5-0.5,0.8c-0.1,0.3-0.1,0.6-0.1,1c0,0.3,0.2,0.6,0.3,0.9c0.2,0.3,0.4,0.5,0.7,0.7
		c0.7-0.4,1.3-1.1,1-1.9c0,0,0-0.1,0-0.1c0-0.1,0-0.1-0.1-0.2c-0.1-0.2-0.2-0.4-0.3-0.5c-0.2-0.2-0.4-0.4-0.6-0.5
		c-0.1,0-0.2-0.1-0.2-0.1C690.5,415,690.4,415,690.4,415z"/>
	<path class="st58" d="M760.4,300.1c-4.1-16.2-4.7-15.5-6-25.1c-0.1-0.8-0.2-1.9-0.5-3c2.1-0.9,4.2-2.9,5.3-4.7
		c1.7-2.7,1.9-5.4,1.8-6.8c-4.5,0.5-8.2,1.7-10.6,3.2c1.3-2.9,2.7-5.8,4-8.7c-1.4-0.5-2.9-1.1-4.3-1.6c-0.8,3.8-1.5,7.5-2.3,11.3
		c-1.7-0.4-3.5-0.2-4.9-0.1c-1.9,0.2-5.2,0.8-9.2,3.3c-6.2,3.9-11.8,11.2-10.2,13.7c1.1,1.6,5.4,0.8,9.7,0c6-1.2,10.6-3.7,12.7-2.2
		c1.2,0.9,1.7,3.1,1.8,4.5c1.1,11.8,0,0,1.5,15.7c0.6,6.4,1.2,10.5,1.3,16.5c0.1,6.1-0.2,11.4-0.9,22c-0.1,2.3-0.3,4.2-0.4,5.9
		c6.3-0.3,12.5-1.5,18.7-3.2C767.2,332.5,764.7,316.8,760.4,300.1z"/>
	<g class="st51">
		<path class="st12" d="M745.4,268.8c-0.7-1.7-3.8-2.4-5.4-1c-0.8,0.8-1.2,2.2-0.6,3.5c0.2,0.5,0.5,0.7,0.8,1c0.3,0.2,0.6,0.4,1,0.5
			c0.5,0.1,0.9,0.2,1.4,0.1C744.5,272.7,745.9,270.3,745.4,268.8z"/>
		<path class="st13" d="M743,272.8c0.4-0.8,0.2-2.1-0.6-3.1c-0.8-1-2-1.6-2.9-1.3c-0.6,1.1-0.8,2.7,0.2,3.6c0,0,0.1,0.1,0.1,0.1
			c0.1,0.1,0.2,0.1,0.3,0.2c0.2,0.2,0.6,0.4,0.9,0.5c0.4,0.1,0.8,0.2,1.2,0.2c0.1,0,0.3-0.1,0.4-0.1
			C742.8,272.8,743,272.8,743,272.8z"/>
	</g>
	<path class="st56" d="M697.1,553.3v3.9c-35.8,1.7-44.9,0-45.3-2.3c-0.1-0.9,0.8-3.2,1.6-4.7c1-1.9,1.7-2.2,3.1-4.7
		c1-1.7,1.5-2.6,1.6-3.9c0.1-1.7-0.6-2.9-1.6-4.7l-0.1-0.1h0c-0.3,0-0.6-0.1-0.8-0.1l-0.3-0.1c-0.2,0-0.5-0.1-0.7-0.1
		c-2.4-0.7-4.6-1.9-6.5-3.6s-3.3-3.8-4.3-6.1c-0.5-0.4-1.2-1-2.1-1.6c-1.3-0.9-2.6-1.6-3.9-2.3c-2.8-1.5-3.3-1.5-3.9-2.3
		c-1.2-1.6-0.9-3.6-0.8-4.7c0.1-0.5,0.6-4.7,3.1-5.5c0.8-0.2,1.6-0.2,2.3,0c0.5,0.2,1.1,0.5,1.6,0.8c0.7,0.3,1.5,0.6,2.3,0.8
		c0,0,1.1,0.3,2.6,0.8c1.6-2.2,3.6-4.1,6-5.5c3.4-1.7,7.2-2.3,10.9-1.6c2.5,0.5,4.9,1.6,7,3.1c-1.1,1.2-2.2,2.6-3.1,3.9
		c0.1,0,2.3-3.8,5.5-3.9c2.5-0.1,4.4,2.1,4.7,2.3c0.6,0.6,1,1.3,1.3,2.1c0.3,0.8,0.4,1.6,0.3,2.4c-0.1,0.8-0.3,1.6-0.7,2.3
		c-0.4,0.7-1,1.3-1.6,1.8c-0.5,0.3-1,0.6-1.5,0.8h0.7c0.2,1,0.2,2.1,0,3.1c-0.1,0.9-0.4,1.7-0.7,2.6l0.7-1c-0.2,1.4,0.1,2.7,0.8,3.9
		c1.1,1.7,2.7,2,5.5,3.1c3,1.2,5.6,2.2,7.8,3.9c2.1,1.6,3.2,3.4,5.5,7c2.6,4.2,3,6.4,3.1,7.8C697.1,551.7,697.1,552.5,697.1,553.3z"
		/>
	<path class="st65" d="M635.2,513.2c0.6,0,1.2-0.1,1.7-0.2c0.5-0.2,1-0.4,1.4-0.8c0.2-0.1,0.3-0.3,0.4-0.5c0.1-0.2,0-0.4,0-0.6
		c-0.1-0.2-0.2-0.3-0.4-0.4c-0.4-0.2-0.8-0.2-1.2-0.1c-0.6,0.1-1.1,0.4-1.7,0.6c-0.2,0.1-0.3,0.3-0.4,0.5s0,0.4,0.1,0.6
		c0.1,0.2,0.3,0.3,0.5,0.4c0.2,0,0.4,0,0.7-0.1l0.2-0.1l-0.2,0.1c0.4-0.2,0.9-0.4,1.4-0.5h-0.2c0.1,0,0.2,0,0.3,0h-0.2h0.1l-0.2-0.1
		l-0.2-0.1l-0.2-0.4v-0.4l0.1-0.2c0-0.1,0.1-0.1,0.1-0.2c-0.1,0.1-0.2,0.3-0.4,0.4l0.2-0.1c-0.2,0.1-0.4,0.2-0.6,0.3l0.2-0.1
		c-0.2,0.1-0.4,0.1-0.6,0.2h0.2c-0.4,0.1-0.8,0.1-1.1,0.1c-0.2,0-0.4,0.1-0.6,0.2c-0.1,0.1-0.2,0.3-0.2,0.4c0,0.2,0,0.3,0.1,0.5
		c0.1,0.2,0.2,0.3,0.3,0.4C634.9,513.1,635,513.2,635.2,513.2L635.2,513.2z"/>
	<path class="st61" d="M659.6,516.6c1.1-2.3-1.3-6.1-4.3-6.2c-0.9,0-1.8,0.3-2.5,0.8c-0.7,0.5-1.3,1.2-1.6,2.1
		c-0.2,0.6-0.3,1.2-0.2,1.8c0.1,0.5,0.2,1,0.4,1.4c0.3,0.6,0.7,1.1,1.2,1.5C655,519.6,658.7,518.7,659.6,516.6z"/>
	<path class="st62" d="M653.4,518.1c1.2-0.3,2.2-1.8,2.5-3.7c0.2-1.9-0.4-3.5-1.5-4.1c-1.7,0.5-3.5,1.8-3.3,3.8c0,0,0,0.2,0,0.3
		c0,0.2,0,0.3,0,0.5c0,0.5,0.2,0.9,0.4,1.3c0.3,0.5,0.6,1,1.1,1.4c0.1,0.1,0.3,0.2,0.5,0.4C653.1,518,653.2,518.1,653.4,518.1z"/>
	<path class="st66" d="M680.3,321.7l-2.1-8.2c5.9-5.8,10.3-12.9,13-20.7c2.1-5.5,2.9-11.3,2.5-17.1c-0.4-4.7-1.6-9.4-3.6-13.7
		c-10.7,6.3-31.1,20.3-44.8,46.2c-2.5,4.7-6,11.4-8.9,19.5c4.7,1.5,9.5,2.7,14.6,1.6C661,327.3,670.7,324.8,680.3,321.7z"/>
	<path class="st61" d="M673.1,282.1c1.6,2.4,6.7,2.4,8.6-0.3c0.5-0.8,0.8-1.8,0.8-2.8c0-1-0.4-2-1-2.8c-0.4-0.6-1-1-1.6-1.3
		c-0.5-0.2-1.1-0.4-1.7-0.5c-0.7-0.1-1.5,0-2.2,0.3C673.1,275.8,671.7,279.9,673.1,282.1z"/>
	<path class="st62" d="M675.4,275.2c-0.4,1.4,0.4,3.2,2,4.6c1.7,1.4,3.6,1.7,4.9,1.1c0.6-2,0.4-4.5-1.6-5.5l-0.2-0.2
		c-0.2-0.2-0.3-0.1-0.5-0.3c-0.5-0.2-1-0.4-1.5-0.4c-0.7-0.1-1.3,0-2,0.2c-0.2,0.1-0.4,0.2-0.6,0.2
		C675.7,275,675.6,275.1,675.4,275.2z"/>
	<g class="st51">
		<path class="st10" d="M579.2,368.4c0.5-0.9,2-3.3,4.9-4.4c0.9-0.3,1.7-0.5,2.3-0.5c0.3-0.3,2.7-2.7,2.2-6.2
			c-0.4-2.5-2.2-3.9-2.7-4.3c-3.1-2.4-8.1-1.7-10.1,0.8c-0.7,0.9-1,2-1.4,3.6c-0.6,2.4-0.4,4.2-0.5,4.7c-0.6,3.5-2.4,14.8-8.8,18.9
			c4.2,0.9,8.4,2.3,12.3,4.2c0.1-1.1,0.1-2.3,0.2-3.7C577.9,373,577.6,371,579.2,368.4z"/>
		<path class="st10" d="M585,363.4c0.1,0.5,1.3,0.3,2.4,0.6c2.4,0.6,3.1,2.4,4.4,3c0.8,0.3,1.8-0.7,1.9-1.3c0.1-0.9-1.6-2.2-8.5-4.2
			c0,0.1,0,0.3,0,0.6C585.2,362.9,584.9,363.1,585,363.4z"/>
		<path class="st10" d="M587,358.3c0.1-0.1,0.5,0.1,1-0.1c0.3-0.1,0.4-0.5,0.6-0.4c0.2,0,0.4,0.4,0.5,0.5c0.3,0.6,1.1,0.9,2.2,1.2
			c1.5,0.5,5.3,1.2,6.8,0.2c0.1-0.1,0.6-0.4,1.1-0.3c0,0,0.5,0.1,0.6,0.4c0.1,0.5-0.6,1.1-0.8,1.2c-1.6,1.3-3.4,0.4-6.8,1.2
			c-1.3,0.3-1.4,0.7-2.2,0.6c-1.8-0.3-3.6-0.8-4.8-1.2c0.2,0,1-0.2,1.3-0.3c0.4-0.2,0.8-0.5,0.9-0.8
			C587.7,359.5,586.4,358.7,587,358.3z"/>
		<path class="st10" d="M578.9,356.9c-0.1-1.6,2.1-3.2,3.8-2.6c0.5,0.2,0.9,0.5,1.2,1c0.3,0.4,0.5,1,0.4,1.5c0,0.4-0.1,0.7-0.3,1.1
			c-0.2,0.3-0.3,0.5-0.6,0.7c-0.3,0.3-0.6,0.5-1,0.6C580.9,359.6,578.9,358.3,578.9,356.9z"/>
		<path class="st10" d="M582.1,359.1c-0.6-0.4-0.9-1.5-0.6-2.6c0.3-1.1,1-1.9,1.7-2c0.9,0.7,1.6,1.8,1.1,2.9c0,0,0,0.1-0.1,0.1
			c0,0.1-0.1,0.2-0.1,0.3c-0.1,0.3-0.3,0.5-0.5,0.7c-0.3,0.2-0.6,0.4-0.9,0.6c-0.1,0-0.3,0.1-0.3,0.1
			C582.3,359.1,582.2,359.1,582.1,359.1z"/>
	</g>
	<path class="st67" d="M595.5,285.3c1.6-5.1-2.6-9.8-3.3-10.6c-1-1.2-2.1-1.9-2.8-2.4c-0.9,0.8-1.8,1.7-2.6,2.9
		c-0.7,1-3.4,4.9-2.8,9.9c0.1,1.5,0.5,2.6,0.9,3.5c-0.9-0.4-2.8-1.2-5.2-1.1c-2.2,0.1-3.9,0.9-4.8,1.3c0.2-1.5,0.7-6.6-2.4-11.5
		c-1.8-2.8-4.1-4.5-5.4-5.3c-0.5,0.4-4.9,3.7-5,9.3c-0.1,4.5,2.4,6.3,3,7.1c0.9,1.1,1.7,1.4,2.5,1.9c2,2.1,1.4,3.6,1.4,6.4
		c3.8-1.5,7.3-2.9,11.3-2.4c3.4,0.4,7.2,1.1,10.2,2.7c0.3-3.6-0.5-3.4,0.8-6.5C592.2,289.7,594.5,288.1,595.5,285.3z"/>
	<g class="st68">
		<g>
			<g>
				<path class="st10" d="M597.9,444.3c-0.6-0.8-1.6-1.9-2.9-2.9c-3.3-2.5-6.9-2.8-10.5-3c-4-0.3-3.5,0.4-10.9,0.6
					c0,0-1.7,0.1-6.4,0.9c-0.3,0.1-1,0.2-1.8,0.6c-0.6,0.3-1,0.6-1.3,0.8c-0.9-0.3-2.4-0.9-3.1,0.2c-0.3,0.4-0.5,0.8-0.8,1.3
					c4,3,6,8.5,5.7,13.6c0.1,0.2,0.1,0.4,0.1,0.6c0.1,0.5,0,1,0.1,1.6c0.2,1.1,0.1-0.6,0.2,2.2c0,0.3,0,1.3,0.1,1.2
					c0,0.3,0,0.7-0.1,1.3c-0.1,2.1-0.1,2.2,0,2.4c0.8,1.3,3.2,0.8,4.1,0.5c1.2-0.3,1.5-0.7,1.6-0.8c0.4-0.6,0.2-1.2,0.1-2
					c-0.2-0.9-0.4-2.1-0.4-3.7c3.2,0,5.9,0.1,8.1,0.3c0.2,0,0.5,0,0.6,0c1.2,0.1,1.6,0.1,2.4,0.2c0.4,0,0.8,0.1,1.2,0.1
					c0.1,0,0.1,0,0.2,0c0.9,0,2.7,0,3.6-0.1c1-0.1,1.6-0.2,2.7,0c0.9,0,1.3,0.2,1.6,1.1c0,0.1,0,0.2,0.1,0.3c0,0.1,0,0.1,0.1,0.2
					c0.1,0.4,0.2,0.8,0.2,1.2c0,0.4,0,0.9-0.1,1.3c0,0,0,0,0,0c0,0,0,0.1,0,0.1c0,0.1,0.1,0.2,0.1,0.3c0.1,0.3,0.4,0.6,0.7,0.7
					c2.2,0.7,4.1,0.5,4.7-0.4c0.1-0.2,0.2-0.4,0.2-0.7c0.1-2.9,0-6-0.3-9.3c-0.1-0.8-0.1-1.6-0.2-2.3c0.5-0.8,1.2-2.4,1.3-4.4
					c0.1-1.1-0.1-2.1-0.3-2.8c0,0,0.1,0,0.1,0C598.3,445.1,598.1,444.7,597.9,444.3C598,444.3,597.9,444.3,597.9,444.3z"/>
			</g>
			<path class="st10" d="M551.6,453c0,0,0,0.1,0,0.2C551.6,453.1,551.6,453,551.6,453z"/>
			<path class="st10" d="M571.1,465.9c0.2-0.2,0.1-0.7,0-1c-0.1-0.3-0.2-0.7-0.4-0.8c-0.2,0-0.5,0.4-0.7,1c0.1-0.3,0-0.6-0.2-0.8
				c-0.2-0.1-0.4-0.2-0.6-0.1c-0.3,0.1-0.5,0.5-0.4,0.9c0-0.1,0-0.4-0.2-0.7c-0.1-0.1-0.2-0.3-0.4-0.3c-0.2,0-0.5,0.4-0.6,1
				c0-0.1,0-0.4-0.2-0.6c-0.1-0.1-0.2-0.3-0.4-0.4c-0.3,0-0.6,0.3-0.7,0.9c0,0.1,0,0.3,0.1,0.5c0,0.1,0.1,0.3,0.5,0.5
				c0.4,0.2,0.7,0.3,0.9,0.3c0.8,0.1,1.4,0,2.4-0.2c0.5-0.1,0.2-0.1,0.8-0.2C571,465.9,571.1,465.9,571.1,465.9z"/>
			<path class="st10" d="M592.5,465.1c-0.1-0.2,0-0.6,0.2-0.9c0.2-0.4,0.3-0.6,0.5-0.6c0.2,0,0.3,0.2,0.4,0.4
				c0.2,0.3,0.2,0.7,0.2,0.9c0-0.2,0-0.6,0.2-0.9c0.1-0.1,0.2-0.3,0.3-0.3c0.2,0,0.3,0.2,0.4,0.2c0.3,0.3,0.2,0.8,0.2,0.9
				c0-0.2,0-0.5,0.2-0.8c0.1-0.1,0.2-0.4,0.4-0.4c0.2,0,0.4,0.3,0.5,0.5c0.1,0.3,0.1,0.5,0.1,0.7c0-0.1-0.1-0.6,0.2-0.9
				c0.1-0.1,0.2-0.2,0.4-0.2c0.2,0,0.3,0.2,0.4,0.4c0.1,0.2,0.4,0.6,0.2,1c-0.1,0.1-0.2,0.2-0.3,0.3c-0.4,0.2-0.8,0.3-1,0.3
				c-0.1,0-0.6,0.1-1.5,0c-0.2,0-0.8-0.1-1.9-0.4C592.7,465.3,592.6,465.3,592.5,465.1z"/>
		</g>
	</g>
	<path class="st69" d="M591.9,547.3c-0.1,0.2-0.3,0.5-0.5,0.6c-0.2,0.1-0.5,0.2-0.8,0.1c-2.5-0.7-5-1.6-7.4-2.6
		c1.7,2.5,3.8,4.6,6.3,6.4c1.1,0.8,0,2.5-1.1,1.7c-2.9-2.1-5.3-4.6-7.3-7.6c0.1,2.4,0.3,4.8,0.6,7.1c0,0.3-0.1,0.5-0.3,0.7
		s-0.4,0.3-0.7,0.4c-0.3,0-0.5,0-0.7-0.2c-0.2-0.2-0.4-0.4-0.4-0.6c-0.4-3.1-0.6-6.2-0.7-9.3l0,0c0-0.3,0-0.6,0.2-0.8
		c0.1-0.1,0.3-0.2,0.4-0.3c-3.2-6.8-4.5-14.4-6.2-21.7l0,0c-0.3-1.3,1.7-1.7,2-0.4c1.7,7.3,3.1,14.9,6.3,21.7c0,0.1,0.1,0.1,0.1,0.2
		c0.2-0.1,0.5-0.1,0.7,0c2.8,1.3,5.7,2.4,8.7,3.2c0.2,0.1,0.4,0.3,0.5,0.5C592,546.8,592,547.1,591.9,547.3z"/>
	<g id="NACQn4.tif" class="st51">
		
			<image style="overflow:visible;" width="511" height="511" id="Layer_0" xlink:href="DCA6D687F9BEE5E4.png"  transform="matrix(5.220687e-02 0 0 5.220687e-02 311.5175 549.3468)">
		</image>
	</g>
	<g class="st51">
		<line class="st52" x1="309" y1="254.9" x2="324.2" y2="239.7"/>
		<line class="st52" x1="324.2" y1="254.9" x2="309" y2="239.7"/>
	</g>
</g>
<g id="">
</g>
</svg>
