<?xml version="1.0" encoding="UTF-8" standalone="no"?>
<svg
   xmlns:dc="http://purl.org/dc/elements/1.1/"
   xmlns:cc="http://creativecommons.org/ns#"
   xmlns:rdf="http://www.w3.org/1999/02/22-rdf-syntax-ns#"
   xmlns:svg="http://www.w3.org/2000/svg"
   xmlns="http://www.w3.org/2000/svg"
   xmlns:sodipodi="http://sodipodi.sourceforge.net/DTD/sodipodi-0.dtd"
   xmlns:inkscape="http://www.inkscape.org/namespaces/inkscape"
   viewBox="0 0 1280 720"
   version="1.1"
   id="svg295"
   sodipodi:docname="segment_2.svg"
   inkscape:version="1.0.2 (e86c870879, 2021-01-15)">
  <metadata
     id="metadata299">
    <rdf:RDF>
      <cc:Work
         rdf:about="">
        <dc:format>image/svg+xml</dc:format>
        <dc:type
           rdf:resource="http://purl.org/dc/dcmitype/StillImage" />
      </cc:Work>
    </rdf:RDF>
  </metadata>
  <sodipodi:namedview
     pagecolor="#ffffff"
     bordercolor="#666666"
     borderopacity="1"
     objecttolerance="10"
     gridtolerance="10"
     guidetolerance="10"
     inkscape:pageopacity="0"
     inkscape:pageshadow="2"
     inkscape:window-width="1366"
     inkscape:window-height="738"
     id="namedview297"
     showgrid="false"
     inkscape:zoom="1.7929285"
     inkscape:cx="1083.5389"
     inkscape:cy="161.20483"
     inkscape:window-x="0"
     inkscape:window-y="0"
     inkscape:window-maximized="1"
     inkscape:current-layer="svg295"
     inkscape:document-rotation="0" />
  <defs
     id="defs4">
    <style
       id="style2">.GzwZZcTDrs{fill:#f7efe2;}.HRInztcGVR,.VNWguXEjXb,.JGmqCYKqmF,.VQQpQYntcl{fill:none;}.HRInztcGVR{stroke:#ff81e7;}.dvTyJLbhHk,.HRInztcGVR,.VNWguXEjXb,.ACCnrXwLNv,.aOeAOZlSat,.JGmqCYKqmF,.VQQpQYntcl{stroke-miterlimit:10;}.HRInztcGVR,.VQQpQYntcl{stroke-width:16px;stroke-dasharray:30.47 20.31;}.VQQpQYntcl{stroke:#ff0020;}.PwYEgvROrM{fill:#d8e5a5;}.VhJfOegEfM{fill:#6000ff;}.YOjmZjufrh{fill:#fff3ae;}.AqOHHZQSCH{fill:#a8e0a1;}.ETzeSvgYRM{fill:#fdff00;}.aOeAOZlSat,.BrkPaTHiLf{fill:#fff;}.dvTyJLbhHk,.aOeAOZlSat,.JGmqCYKqmF{stroke:#000;}.EPNpiBpZlr{fill:#fb6700;}.tlHrMGQhTW,.ACCnrXwLNv{fill:#00ffa9;}.laMfGQUFQa{fill:#754c24;}.mQcpGRjgBc{fill:#0097dd;}.QiMjuwzbWb{fill:#ff0020;}.VxPJcTnETc{fill:#f0ed00;}.PaCEPpYmYF{fill:#a5a5a5;}.bQFhoXoyKE{fill:#7c7c7c;}.sKEynFbJKJ{fill:#ffd400;}.VNWguXEjXb,.ACCnrXwLNv{stroke:#00ffa9;}.VNWguXEjXb,.ACCnrXwLNv,.aOeAOZlSat,.JGmqCYKqmF{stroke-width:2px;}.VffrJaLWIi{font-size:20px;font-family:IBMPlexMono-Text, IBM Plex Mono;letter-spacing:0em;}.rMHYcGAVyV{font-family:IBMPlexMono-SemiBold, IBM Plex Mono;font-weight:600;}</style>
  </defs>
  <g
     id="фон">
    <rect
       class="GzwZZcTDrs"
       x="-12.87"
       y="-1463.29"
       width="3863.25"
       height="2193.02"
       id="rect6" />
  </g>
  <g
     id="линии">
    <path
       class="HRInztcGVR"
       d="M1254.05,93.55c-29.17-9.63-69.13-26.91-84.07,17.93-24.38,73.19-123.53,72.94-147.5,125.19C989.21,309.22,919.35,319.58,872,335.23c-27.41,9-90.21,42.71-107.92,88.06-16.68,42.62-29.09,74-96.55,88.53-45.61,9.81-53.91,37.84-63.78,48.79a246.81,246.81,0,0,1-74.27,27.27"
       id="path9" />
    <path
       class="VQQpQYntcl"
       d="M1114.89,464.46c-26,23.07-59,58.19-104.62,27.07-74.44-50.8-183,63.45-243.41,30.51-83.86-45.75-163.7-37.17-226.25-26.7-36.19,6.06-59.28,9.16-108.29-21C386.22,446,337,518.8,257.63,453.88,229.75,438,206.71,420,188.71,409.17a111.33,111.33,0,0,0-58.08-15.87c-43.23.31-111.79,4.19-137.84,11.35"
       id="path11" />
  </g>
  <g
     id="части_ланндш"
     data-name="части ланндш">
    <path
       class="PwYEgvROrM"
       d="M514.3,558.49V692.64c0,22.64-15.53,41-34.68,41H-47.21c-19.16,0-34.68-18.35-34.68-41V476.5c0-22.64,15.52-41,34.68-41H181.53c19.15,0,34.67,18.35,34.67,41h0c0,22.64,15.53,41,34.68,41H479.62C498.77,517.49,514.3,535.85,514.3,558.49Z"
       id="path14" />
    <path
       class="PwYEgvROrM"
       d="M1280-59.86h0A59.86,59.86,0,0,1,1220.14,0H919a14.76,14.76,0,0,0-14.76,14.76V121.32h1V416.7a14.76,14.76,0,0,1-14.76,14.76H272.07a14.76,14.76,0,0,1-14.76-14.76V136.08a14.76,14.76,0,0,1,14.76-14.76H491.63a14.76,14.76,0,0,0,14.76-14.76V-26.71a14.4,14.4,0,0,0-.7-4.47A45.12,45.12,0,0,1,503.5-45.1V-59.86a59.86,59.86,0,0,1,59.86-59.86h656.78A59.86,59.86,0,0,1,1280-59.86Z"
       id="path16" />
    <path
       class="VhJfOegEfM"
       d="M816-12a5.38,5.38,0,0,0-.35-7.23c-2.22-1.92-5.56-.55-7.22.89-1.41,1.21-2.84,3.56-2.12,5.81.82,2.58,4.25,4.37,7.93,3.35a6.13,6.13,0,0,0-6.17,2.82,6.22,6.22,0,0,0,1.41,7.58,6.23,6.23,0,0,0,7.23.88c2.76-1.75,3.68-6.31,1.06-9.87A9.46,9.46,0,0,0,822-3.87c2.83,1.26,7.47,1.46,8.81-1.06,1.12-2.12-.33-5.68-3-7s-6.43-.39-8.46,2.64c4.7-.69,7.38-3.7,7-5.81s-3.45-3.92-6.34-3.17A5.72,5.72,0,0,0,816-12Z"
       id="path18" />
    <rect
       class="YOjmZjufrh"
       x="21.84"
       y="105.18"
       width="565.91"
       height="269.03"
       rx="78.58"
       id="rect20" />
    <path
       class="VhJfOegEfM"
       d="M594.25,72.4a5.39,5.39,0,0,0-.35-7.23c-2.22-1.92-5.57-.56-7.23.88-1.4,1.22-2.83,3.56-2.11,5.82.82,2.58,4.24,4.36,7.93,3.35A6.11,6.11,0,0,0,586.32,78,6.34,6.34,0,0,0,595,86.49c2.76-1.74,3.67-6.31,1-9.86a9.51,9.51,0,0,0,4.23,3.87c2.84,1.26,7.47,1.46,8.81-1,1.13-2.12-.33-5.69-3-7S599.63,72,597.6,75c4.7-.69,7.38-3.7,7-5.81s-3.46-3.92-6.35-3.18A5.73,5.73,0,0,0,594.25,72.4Z"
       id="path22" />
    <path
       class="VhJfOegEfM"
       d="M853.24,196.9a5.4,5.4,0,0,0-.35-7.23c-2.23-1.92-5.57-.55-7.23.89-1.4,1.21-2.83,3.56-2.11,5.81.82,2.58,4.24,4.37,7.93,3.35a6.13,6.13,0,0,0-6.17,2.82,6.34,6.34,0,0,0,8.63,8.46c2.77-1.75,3.68-6.31,1.06-9.87a9.52,9.52,0,0,0,4.23,3.88c2.84,1.26,7.47,1.46,8.81-1.06,1.13-2.12-.33-5.68-3-7s-6.43-.39-8.45,2.64c4.7-.69,7.38-3.7,7-5.81s-3.45-3.92-6.34-3.17A5.71,5.71,0,0,0,853.24,196.9Z"
       id="path24" />
    <path
       class="VhJfOegEfM"
       d="M745.56,298.56a5.38,5.38,0,0,0-.36-7.22c-2.22-1.92-5.56-.56-7.22.88-1.4,1.22-2.83,3.56-2.12,5.81.83,2.59,4.25,4.37,7.93,3.35a5.89,5.89,0,0,0-4.75,10.4,6.21,6.21,0,0,0,7.22.88c2.77-1.74,3.68-6.31,1.06-9.87a9.46,9.46,0,0,0,4.23,3.88c2.84,1.26,7.47,1.46,8.81-1.06,1.13-2.12-.33-5.68-3-7.05s-6.43-.38-8.45,2.65c4.69-.7,7.38-3.71,7-5.82s-3.45-3.92-6.34-3.17A5.72,5.72,0,0,0,745.56,298.56Z"
       id="path26" />
    <path
       class="VhJfOegEfM"
       d="M865.77,356.64a5.38,5.38,0,0,0-.35-7.22c-2.22-1.92-5.57-.56-7.22.88-1.41,1.22-2.84,3.56-2.12,5.81.82,2.59,4.24,4.37,7.93,3.35a6.13,6.13,0,0,0-6.17,2.82,6.34,6.34,0,0,0,8.64,8.46c2.76-1.74,3.67-6.31,1.06-9.87a9.42,9.42,0,0,0,4.22,3.88c2.84,1.26,7.48,1.46,8.82-1.06,1.12-2.12-.34-5.68-3-7.05a6.74,6.74,0,0,0-8.46,2.65c4.7-.7,7.38-3.71,7-5.82s-3.45-3.92-6.34-3.17A5.73,5.73,0,0,0,865.77,356.64Z"
       id="path28" />
    <path
       class="VhJfOegEfM"
       d="M585.1,384.25a5.39,5.39,0,0,0-.35-7.23c-2.22-1.92-5.57-.56-7.23.88-1.4,1.22-2.83,3.56-2.11,5.82.82,2.58,4.24,4.36,7.93,3.35a6.11,6.11,0,0,0-6.17,2.82,6.34,6.34,0,0,0,8.64,8.45c2.76-1.74,3.67-6.31,1.05-9.86a9.51,9.51,0,0,0,4.23,3.87c2.84,1.26,7.48,1.46,8.81-1.05,1.13-2.12-.33-5.69-3-7.05s-6.43-.39-8.46,2.64c4.7-.7,7.38-3.7,7-5.82s-3.46-3.91-6.35-3.17A5.74,5.74,0,0,0,585.1,384.25Z"
       id="path30" />
    <path
       class="AqOHHZQSCH"
       d="M-5,573.47a160.16,160.16,0,0,1,34.09,14C48.38,598.27,57,608.4,69.45,618c0,0,25.44,19.47,63.25,27.52,47.59,10.14,59.33-20.72,121.8-26.35,16.81-1.51,80.59-7.26,124.15,34,22.2,21,31.18,46.71,35.13,62.83H-5Z"
       id="path32" />
  </g>
  <g
     id="Layer_1"
     data-name="Layer 1">
    <g
       id="giraffe"
       class="button"
       onclick="show('window3')">
      <path
         class="ETzeSvgYRM"
         d="m 1361.83,447.47 a 86.32,86.32 0 0 0 -17.39,-9.7 127,127 0 0 1 6.67,32.34 c 1.24,24 1.34,43.66 1.2,57.16 -0.51,47.86 -4.5,70.05 3.57,103.6 A 200.19,200.19 0 0 0 1366.6,663 c -20.58,4.85 -44.29,8.5 -48.82,0 -3.87,-7.25 8.37,-19.19 15.49,-29.78 34.51,-51.4 -1.87,-145.14 -14.29,-144.1 -8.12,0.69 -14.41,42.36 -14.29,176.25 -15.39,4.18 -34.3,7.63 -39.3,0 -5.44,-8.28 8.28,-25.51 14.29,-34.53 15.41,-23.18 27.53,-63.88 9.52,-140.53 h -90.51 a 596.62,596.62 0 0 0 2.38,146.48 q 2.07,14.68 4.77,28.58 c -16.71,4.24 -36.1,7.43 -40.5,0 -4.4,-7.43 8.16,-21.66 13.09,-28.58 15.1,-21.17 22,-61.71 -13.09,-146.48 -26.43,77.75 -21.8,119.24 -11.92,142.91 2.76,6.62 10.4,22.51 3.58,32.15 -8.45,11.92 -36.76,11.09 -41.68,1.2 -4,-8 9,-18.82 16.67,-32.15 18.45,-32 1.36,-54.22 -4.77,-141.71 -2.72,-38.85 -0.21,-46.38 -4.77,-86.94 -1.79,-15.91 -4,-29.66 -8.35,-57.16 -6.49,-41 -9.76,-61.53 -15.48,-84.55 -5.72,-23.02 -11.27,-38.06 -19.06,-61.93 -19.06,-58.36 -4.77,-14.29 -19.06,-58.36 -1.65,-5.09 -5.28,-13.13 -10.72,-15.48 -9.3,-4 -24.69,9.56 -46.45,19.06 -15.59,6.8 -31.34,13.68 -36.92,8.34 -8.2,-7.82 7,-40.52 27.38,-60.74 C 1006.7,82.16 1019,77 1026,74.75 c 5.44,-1.77 12,-3.92 18.79,-4 q -0.45,-22.41 -0.93,-44.84 l 17.86,2.37 q -4,18.3 -8,36.6 c 8,-7.71 21,-15.26 37.73,-21.13 a 46.69,46.69 0 0 1 -1.2,27.38 c -2.84,7.68 -8.83,17.1 -16.24,22.35 1.83,4 3.21,7.94 4.35,11 13.07,35.28 14.47,32.36 44.07,90.52 35.76,70.29 61.28,136.93 67.88,162 a 158.57,158.57 0 0 1 50,10.72 c 28.5,11.2 69.89,26.67 86.94,42.87 a 63.57,63.57 0 0 1 10.8,13.62 c 1.56,0.57 3.13,1.18 4.69,1.87 34.93,15.06 51,48.86 57.16,64.31 -11.9,-13.14 -19.03,-29.82 -38.07,-42.92 z"
         id="path35" />
      <path
         class="BrkPaTHiLf"
         d="m 1038.51,88.35 c -4,-6 -16.66,-6 -21.27,0.91 a 12,12 0 0 0 0.63,13.86 10,10 0 0 0 4,3.11 15.4,15.4 0 0 0 4.06,1.06 12.75,12.75 0 0 0 5.34,-0.67 c 7.38,-2.62 10.79,-12.87 7.24,-18.27 z"
         id="path37" />
      <path
         class="dvTyJLbhHk"
         d="m 1032.89,105.5 c 1,-3.35 -1,-8 -5.12,-11.33 -4.12,-3.33 -8.95,-4.24 -12,-2.68 -1.36,4.87 -0.86,11 4,13.64 0.08,0 0.5,0.33 0.58,0.39 a 13.68,13.68 0 0 0 1.26,0.65 9,9 0 0 0 3.72,1 14,14 0 0 0 4.89,-0.42 c 0.49,-0.14 1.1,-0.45 1.54,-0.57 a 5.37,5.37 0 0 0 1.13,-0.68 z"
         id="path39" />
    </g>
    <polygon
       class="EPNpiBpZlr"
       points="1257.15 455.35 1265.52 450.02 1269.93 467.41 1273.7 500.54 1290.72 558.61 1286.72 580.12 1312.83 570.66 1303.08 555.18 1288.43 471.81 1320.59 571.26 1342.61 564.18 1332.79 546.05 1304.11 468.83 1356.06 458.9 1378.4 539.19 1376.98 557.92 1398.69 549.69 1390.39 534.59 1374.39 450.2 1400.63 530.19 1406.58 547.5 1430.79 544.04 1413.38 529.43 1398.8 447.49 1384.86 398.69 1385.18 364.94 1377.56 315.48 1383.22 278.08 1381.41 242.33 1388.4 233.78 1416.3 234.15 1439.61 236.47 1412.7 207.08 1392.85 196.69 1380.03 200.42 1377.2 172.72 1367.92 177.83 1374.09 196.05 1351.9 192.81 1354.5 207.19 1369.9 214.78 1365.68 222.81 1358.09 280.62 1339.81 380.18 1316.36 395.83 1270.97 429.87 1270.42 440.96 1265.02 440.29 1243.81 484.28 1257.15 455.35"
       id="polygon41" />
    <path
       class="BrkPaTHiLf"
       d="M1256,112.23c3-10.35,15.08-11.51,20.94-23.65,13.11-27.11,27-9.61,29.83-21.69,1.48-6.28,3.43-9.5,6.66-12.4,7.13-6.43,27.57,2.74,54.34,7.89,7.71,1.48,19.43,4.51,54.8.21,9.89-1.2,13.15-6.87,25.06-9.62,7.42-1.72,28-6.47,35.51,2.53,4.43,5.28.43,10.59,3.66,16.71,4.07,7.73,22.32-.91,33.71-.8,6.43.06,16.76,6.51,22.14,9.94,18.71,11.94,11.23,55.05-7.29,70.39-7.19,5.95-17.41,7.65-56.92.5-52.86-9.56-57.41-16.75-83-20.26-66.51-9.1-105.85,29.79-129.5,8.1C1259,133.69,1253.18,121.85,1256,112.23Z"
       id="path43" />
    <rect
       class="PwYEgvROrM"
       x="1266.9"
       y="422.38"
       width="291.94"
       height="271.1"
       rx="48.2"
       id="rect45" />
    <path
       class="tlHrMGQhTW"
       d="M201.86,585.75c-5.21,4.58-11,9.69-19.43,10.77-7.25.93-8.82-2.13-29.64-5.8a67.63,67.63,0,0,0-23.36-.26c-26.13,3.83-28.51,3.77-31.5,2.38-5.9-2.74-11.68-9.34-10-13.94s10.39-5.2,11.27-5.23c-4.65.18-18.34,0-28.56-9.8-5.53-5.29-12.1-15.36-8.93-20.75,3.63-6.12,17.77-2.61,18.89-6.81.93-3.45-8.63-6.12-9.19-12.62s8.16-13.15,15.51-15.48c12.18-3.82,23,3.56,24.66,4.72,0-.41.72-6.75,5.78-9.18s11.43.77,14.17,5.26a11.45,11.45,0,0,1,1.64,5.08,17.92,17.92,0,0,1,4.72-8.51,19.28,19.28,0,0,1,15.74-5c7.56,1.29,14.48,7.59,15.22,15.74a17.76,17.76,0,0,1-3.48,11.81,27.11,27.11,0,0,1,9.5-6.8c5.52-2.32,16.43-4.68,22.08,1,6.53,6.65,2.19,20.33-3.15,27.76a29.89,29.89,0,0,1-8.45,7.94,23.07,23.07,0,0,1,6.36-.58c8.91.4,19.8,6,20.44,13.39C212.58,576.35,207.68,580.64,201.86,585.75Z"
       id="path47" />
    <path
       class="laMfGQUFQa"
       d="M147,576.25H136.37v79.8H147Z"
       id="path49" />
    <path
       class="tlHrMGQhTW"
       d="M141,584.24c12.12,0,21.95-8,21.95-18s-9.83-18-21.95-18-22,8-22,18S128.9,584.24,141,584.24Z"
       id="path51" />
    <path
       class="tlHrMGQhTW"
       d="M345.35,595.7c-2.76,2.42-5.84,5.13-10.29,5.7-3.84.5-4.67-1.12-15.7-3.07a36,36,0,0,0-12.38-.14c-13.83,2-15.1,2-16.68,1.27-3.12-1.46-6.18-5-5.29-7.39s5.5-2.75,6-2.77c-2.46.1-9.71,0-15.12-5.19-2.94-2.8-6.41-8.14-4.73-11,1.92-3.24,9.41-1.39,10-3.61.5-1.82-4.57-3.24-4.87-6.68s4.33-7,8.22-8.2c6.45-2,12.18,1.88,13.06,2.5,0-.22.38-3.58,3.06-4.86s6.06.4,7.51,2.78a6.14,6.14,0,0,1,.87,2.69,9.55,9.55,0,0,1,2.49-4.51,10.44,10.44,0,0,1,3.88-2.25,10.05,10.05,0,0,1,4.46-.38,9.7,9.7,0,0,1,8.06,8.33,9.37,9.37,0,0,1-1.84,6.26,14.44,14.44,0,0,1,5-3.6c2.92-1.23,8.7-2.48,11.69.54,3.46,3.52,1.16,10.77-1.67,14.71a15.7,15.7,0,0,1-4.47,4.2,12.24,12.24,0,0,1,3.36-.3c4.73.21,10.49,3.15,10.83,7.09C351,590.72,348.43,593,345.35,595.7Z"
       id="path53" />
    <path
       class="laMfGQUFQa"
       d="M316.3,590.67h-5.64v42.27h5.64Z"
       id="path55" />
    <path
       class="tlHrMGQhTW"
       d="M313.13,594.9c6.42,0,11.62-4.26,11.62-9.52s-5.2-9.51-11.62-9.51-11.63,4.26-11.63,9.51S306.71,594.9,313.13,594.9Z"
       id="path57" />
    <path
       class="AqOHHZQSCH"
       d="M727.19,408.07l-195,302.7A19.58,19.58,0,0,0,548.61,741H938.68a19.58,19.58,0,0,0,16.46-30.18l-195-302.7A19.58,19.58,0,0,0,727.19,408.07Z"
       id="path59" />
    <path
       class="PwYEgvROrM"
       d="M903.8,560.79l-84.17,145.8a19.58,19.58,0,0,0,17,29.37h168.36a19.58,19.58,0,0,0,17-29.37l-84.18-145.8A19.59,19.59,0,0,0,903.8,560.79Z"
       id="path61" />
    <path
       class="AqOHHZQSCH"
       d="M1098.89,465.86,924.65,736.29a19.58,19.58,0,0,0,16.46,30.18H1289.6a19.58,19.58,0,0,0,16.46-30.18L1131.81,465.86A19.58,19.58,0,0,0,1098.89,465.86Z"
       id="path63" />
  </g>
  <g
     id="Layer_2"
     data-name="Layer 2">
    <path
       class="mQcpGRjgBc"
       d="M-37.54,145.44c-11.24-33.82,56-231.91,79.76-261.77C54-131,72.45-154.22,103-169.68,175.65-206.4,214-147.5,366-143c24.5.72,59.24.27,90.39,23,21.2,15.44,22.87,28.58,43.73,51.12C538-27.94,536,55.75,534.34,90.1A77,77,0,0,1,520,131.3c-29.87,41.54-109.19,110.55-245.63,115C127.07,251.2-21,195.37-37.54,145.44Z"
       id="path66" />
  </g>
  <g
     id="Layer_3"
     data-name="Layer 3">
    <path
       class="QiMjuwzbWb"
       d="M29.34,651.69c-.34,1.71-.89,4.51.77,7.23a8.63,8.63,0,0,0,5.07,3.68,5.7,5.7,0,0,0,3.85,0,5.12,5.12,0,0,0,2.15-1.69c1.33,1.34,2.61,3,2.15,4.31-.28.77-.94.78-1.85,1.84-1.22,1.43-2.06,3.82-1.23,4.92.24.3.75.72,3.39.61a37.27,37.27,0,0,0,6.45-1.07,24.58,24.58,0,0,1,6.92-.16c3.7.38,5.55.57,6.91,1.23a3.85,3.85,0,0,0,2.62.47,3.26,3.26,0,0,0,1.53-.93,7.53,7.53,0,0,0-.15-4,7.66,7.66,0,0,0-3.07-4,7.92,7.92,0,0,0-3.39-1.23c2.26-1.54,9.91-7.18,10.45-15.83a15.25,15.25,0,0,0-.15-3.38c4.53,2.63,9.12,3.12,11.53,1.08a5,5,0,0,0,1.84-3.38,4.7,4.7,0,0,0-2-4c-1.11-.79-1.59-.32-3.68-1.08A17.39,17.39,0,0,1,74.93,634,8.27,8.27,0,0,1,72.09,631a23.69,23.69,0,0,1-2.86-8.54c5.33,3.31,16.32,4.6,18.89,1.33.42-.54,1.12-1.73.51-5.94-.63-4.36-2-14.09-10.85-19.89a24.22,24.22,0,0,0-12.91-3.88,22.63,22.63,0,0,0-5.33-6.29c-2.13-1.72-3.52-2.15-6.77-4.84a17.48,17.48,0,0,1-3.55-3.39c-1.49-2.2-1.23-3.56-3.07-6.61-1-1.75-1.76-2.9-2.74-2.91-1.46,0-2.54,2.57-3.23,4.2-.89,2.12-2.09,5-1.29,8.23.43,1.73,1,1.68,4.2,6.61,2.72,4.14,2.41,4.27,3.87,6a14.47,14.47,0,0,0,6.77,5,11.74,11.74,0,0,0,4.2.48,6.31,6.31,0,0,1-1.54,2.62c-.8.8-2.8,2.29-11.52,1.53-5.11-.44-5.44-1-8.3-.76-1.61.15-7.15.67-8,3.53-.56,1.91,1.23,4,2.16,5.07,2.29,2.66,5.19,3.56,9.06,4.77a25.44,25.44,0,0,0,6.92,1.38,15.3,15.3,0,0,0,7.38-1.08A13.17,13.17,0,0,0,57.93,615c0,1.08-3.09,8.48-5.32,13a14,14,0,0,1-2,3c-2.65,3-9.13,10.46-9.44,10.81h0A6.27,6.27,0,0,0,40,643.39a8,8,0,0,0-.77,3.08c-.49-.44-2.86-2.47-5.38-1.85C30.59,645.41,29.71,649.87,29.34,651.69Z"
       id="path69" />
    <path
       class="BrkPaTHiLf"
       d="M70.33,614.31c.17-2,3.27-3.68,5.34-2.6a3.32,3.32,0,0,1,1.67,3.47,3,3,0,0,1-.57,1.31,4.35,4.35,0,0,1-.86.8,3.54,3.54,0,0,1-1.4.55C72.36,618.18,70.17,616.11,70.33,614.31Z"
       id="path71" />
    <path
       d="M74,617.77a3.32,3.32,0,0,1-.25-3.46,3.28,3.28,0,0,1,2.59-2.25c1,1,1.68,2.58.83,3.88l-.09.17-.22.33a2.47,2.47,0,0,1-.77.74,3.89,3.89,0,0,1-1.26.53c-.13,0-.33,0-.45.07A1.6,1.6,0,0,1,74,617.77Z"
       id="path73" />
    <path
       class="VxPJcTnETc"
       d="M88.83,621.73c.3.43-.3,1.41-.49,1.72a2.25,2.25,0,0,1-1.19,1.14c-1.07.3-2.51-.79-2.44-1.56C84.81,621.89,88.28,621,88.83,621.73Z"
       id="path75" />
    <path
       class="BrkPaTHiLf"
       d="M79.1,610.32c.16-1.81,3-3.32,4.81-2.34a2.93,2.93,0,0,1,1.25,1.33,3,3,0,0,1,.26,1.8,2.61,2.61,0,0,1-.52,1.18,3.72,3.72,0,0,1-.77.71,3.06,3.06,0,0,1-1.26.5C80.93,613.81,79,612,79.1,610.32Z"
       id="path77" />
    <path
       d="M82.4,613.44a3.47,3.47,0,0,1,2.11-5.14c.88.93,1.51,2.32.75,3.49l-.09.15a1.57,1.57,0,0,1-.2.3,2.11,2.11,0,0,1-.69.67,3.64,3.64,0,0,1-1.13.48c-.12,0-.3,0-.41.06A1.29,1.29,0,0,1,82.4,613.44Z"
       id="path79" />
    <path
       class="QiMjuwzbWb"
       d="M213,646.87a7.44,7.44,0,0,0,.6,5.61,6.71,6.71,0,0,0,3.94,2.87,4.45,4.45,0,0,0,3,0,4.11,4.11,0,0,0,1.67-1.31c1,1,2,2.33,1.67,3.34-.21.6-.73.61-1.43,1.43-.95,1.12-1.61,3-1,3.82.18.24.59.56,2.63.48a30,30,0,0,0,5-.83,18.66,18.66,0,0,1,5.37-.12c2.87.29,4.31.44,5.37,1a3,3,0,0,0,2,.36,2.43,2.43,0,0,0,1.2-.72,5.83,5.83,0,0,0-.12-3.1,6,6,0,0,0-2.39-3.11,6.14,6.14,0,0,0-2.63-.95c1.76-1.2,7.7-5.58,8.12-12.3a12.64,12.64,0,0,0-.11-2.63c3.51,2,7.08,2.42,8.95.84a3.94,3.94,0,0,0,1.44-2.63,3.7,3.7,0,0,0-1.56-3.11c-.86-.61-1.24-.24-2.86-.83a13.48,13.48,0,0,1-3.51-1.78,6.41,6.41,0,0,1-2.21-2.38,18.3,18.3,0,0,1-2.22-6.63c4.14,2.57,12.68,3.57,14.67,1,.34-.42.88-1.35.41-4.62s-1.59-10.95-8.44-15.46a18.83,18.83,0,0,0-10-3,17.69,17.69,0,0,0-4.14-4.89c-1.65-1.33-2.74-1.67-5.26-3.76a13.91,13.91,0,0,1-2.76-2.63c-1.16-1.72-1-2.77-2.38-5.14-.82-1.36-1.37-2.26-2.13-2.26-1.14,0-2,2-2.51,3.26-.69,1.65-1.63,3.87-1,6.39.33,1.35.74,1.31,3.25,5.14,2.12,3.22,1.88,3.32,3,4.64a11.26,11.26,0,0,0,5.27,3.89,9,9,0,0,0,3.26.37,4.79,4.79,0,0,1-1.2,2c-.62.63-2.17,1.78-9,1.2-4-.35-4.22-.81-6.45-.6-1.25.12-5.55.52-6.21,2.75-.44,1.48,1,3.1,1.67,3.94,1.78,2.06,4,2.76,7,3.7a19.75,19.75,0,0,0,5.37,1.08,11.89,11.89,0,0,0,5.73-.84,10.36,10.36,0,0,0,3-2c0,.84-2.4,6.59-4.14,10.07a10.41,10.41,0,0,1-1.57,2.32c-2,2.32-7.09,8.13-7.33,8.4h0a5,5,0,0,0-.93,1.29,6.33,6.33,0,0,0-.59,2.39c-.39-.34-2.23-1.91-4.18-1.43C214,642,213.26,645.45,213,646.87Z"
       id="path81" />
    <path
       class="BrkPaTHiLf"
       d="M244.82,617.82c.14-1.56,2.54-2.86,4.15-2a2.6,2.6,0,0,1,1.3,2.7,2.39,2.39,0,0,1-.44,1,3.94,3.94,0,0,1-.67.62,2.86,2.86,0,0,1-1.09.43A2.94,2.94,0,0,1,244.82,617.82Z"
       id="path83" />
    <path
       d="M247.66,620.51a2.59,2.59,0,0,1-.19-2.68,2.54,2.54,0,0,1,2-1.75,2.48,2.48,0,0,1,.64,3l-.07.13a2.33,2.33,0,0,1-.17.26,1.92,1.92,0,0,1-.6.57,2.94,2.94,0,0,1-1,.42c-.1,0-.25,0-.35,0A1,1,0,0,1,247.66,620.51Z"
       id="path85" />
    <path
       class="VxPJcTnETc"
       d="M259.19,623.59c.24.33-.22,1.09-.37,1.33a1.78,1.78,0,0,1-.92.89c-.84.24-2-.62-1.9-1.21C256.08,623.71,258.77,623,259.19,623.59Z"
       id="path87" />
    <path
       class="BrkPaTHiLf"
       d="M251.64,614.72c.12-1.41,2.29-2.57,3.74-1.82a2.41,2.41,0,0,1,1,1,2.36,2.36,0,0,1,.2,1.41,2.19,2.19,0,0,1-.4.91,2.94,2.94,0,0,1-.61.56,2.42,2.42,0,0,1-1,.39A2.64,2.64,0,0,1,251.64,614.72Z"
       id="path89" />
    <path
       d="M254.2,617.15a2.32,2.32,0,0,1-.17-2.42,2.29,2.29,0,0,1,1.81-1.58,2.24,2.24,0,0,1,.58,2.72l-.06.12a1.77,1.77,0,0,1-.16.22,1.68,1.68,0,0,1-.54.52,2.81,2.81,0,0,1-.87.38l-.32,0Z"
       id="path91" />
    <g
       id="question2"
       class="vert-move">
      <path
         class="QiMjuwzbWb"
         d="m 1125.63,75.36 -10.06,-7 a 19.72,19.72 0 0 1 6.59,-7.45 20.93,20.93 0 0 1 11.59,-3.27 25.27,25.27 0 0 1 11.69,2.49 c 2.42,1.2 7.72,3.81 10.39,10 a 18.94,18.94 0 0 1 -5,21.52 19.46,19.46 0 0 1 -14,4.43 l -1.39,6.52 -12.67,-2.7 3,-13.85 c 0.79,0.13 1.9,0.3 3.23,0.42 a 22.85,22.85 0 0 0 4.78,0.15 10.57,10.57 0 0 0 4.62,-1.28 9,9 0 0 0 3,-2.73 9.2,9.2 0 0 0 1.53,-4.71 c 0.07,-1.2 0.24,-3.81 -1.49,-5.82 a 7.22,7.22 0 0 0 -2.67,-1.85 10,10 0 0 0 -4.5,-0.9 9.67,9.67 0 0 0 -5,1.73 10.29,10.29 0 0 0 -3.64,4.3 z"
         id="path93" />
      <path
         class="QiMjuwzbWb"
         d="m 1117.66,112.28 a 9.61,9.61 0 0 1 0.28,-1.32 6.82,6.82 0 0 1 1.16,-2.27 6.48,6.48 0 0 1 2.66,-2 8.11,8.11 0 0 1 3.19,-0.54 13.85,13.85 0 0 1 4.91,0.77 c 0.35,0.12 3.75,1.37 5,3.38 a 8,8 0 0 1 0.66,1.48 6.63,6.63 0 0 1 0.3,1.56 10.12,10.12 0 0 1 -0.42,3.26 c -0.39,1.76 -0.59,2.64 -0.68,2.85 a 7.24,7.24 0 0 1 -2.76,3.35 7.59,7.59 0 0 1 -3.84,1 12.48,12.48 0 0 1 -5.47,-0.93 8.5,8.5 0 0 1 -4.14,-2.57 6.92,6.92 0 0 1 -1.46,-3.7 c -0.05,-0.6 0.04,-0.42 0.61,-4.32 z"
         id="path95" />
    </g>
    <g
       id="question1"
       class="vert-move">
      <path
         class="QiMjuwzbWb"
         d="M965.17,170.11l-11.83,3.09a19.61,19.61,0,0,1-1.37-9.85A20.93,20.93,0,0,1,957,152.43a25.38,25.38,0,0,1,9.5-7.26c2.49-1.06,7.92-3.37,14.34-1.39A19,19,0,0,1,994,161.59a19.46,19.46,0,0,1-5.77,13.52l4,5.3-10.3,7.86L973.36,177c.61-.51,1.45-1.25,2.42-2.18A22.84,22.84,0,0,0,979,171.3a10.65,10.65,0,0,0,2-4.33,9.28,9.28,0,0,0-.15-4,9.14,9.14,0,0,0-2.59-4.23c-.86-.84-2.73-2.67-5.38-2.66a7.06,7.06,0,0,0-3.14.83,9.68,9.68,0,0,0-3.62,2.83,9.46,9.46,0,0,0-1.9,4.87A10.36,10.36,0,0,0,965.17,170.11Z"
         id="path97" />
      <path
         class="QiMjuwzbWb"
         d="M988,200.19a8.15,8.15,0,0,1-.81-1.07,6.6,6.6,0,0,1-1-2.36,6.48,6.48,0,0,1,.25-3.29,8,8,0,0,1,1.66-2.77,14.1,14.1,0,0,1,3.79-3.23c.32-.18,3.48-1.95,5.79-1.56a8,8,0,0,1,1.56.46,6.48,6.48,0,0,1,1.38.79,9.84,9.84,0,0,1,2.2,2.44c1.07,1.44,1.61,2.16,1.71,2.37a7.21,7.21,0,0,1,.75,4.28,7.59,7.59,0,0,1-1.74,3.56,12.45,12.45,0,0,1-4.27,3.54,8.53,8.53,0,0,1-4.65,1.47,7,7,0,0,1-3.76-1.3C990.39,203.14,990.59,203.17,988,200.19Z"
         id="path99" />
    </g>
    <g
       id="question0"
       class="vert-move">
      <path
         class="QiMjuwzbWb"
         d="m 1166.61,264.12 -7,-7.2 a 16.2,16.2 0 0 1 6.49,-5 17.09,17.09 0 0 1 9.84,-0.79 20.69,20.69 0 0 1 9,3.85 c 1.76,1.35 5.61,4.3 6.78,9.68 a 15.54,15.54 0 0 1 -7.43,16.53 16,16 0 0 1 -12,1.35 l -2.15,5 -9.77,-4.18 4.57,-10.67 c 0.61,0.22 1.48,0.53 2.53,0.84 a 19,19 0 0 0 3.82,0.88 8.78,8.78 0 0 0 3.92,-0.3 7.34,7.34 0 0 0 2.81,-1.73 7.56,7.56 0 0 0 2,-3.55 6.49,6.49 0 0 0 -0.27,-4.92 6,6 0 0 0 -1.87,-1.91 8,8 0 0 0 -3.48,-1.43 7.85,7.85 0 0 0 -4.25,0.6 8.42,8.42 0 0 0 -3.54,2.95 z"
         id="path101" />
      <path
         class="QiMjuwzbWb"
         d="m 1154.34,292.58 a 7.62,7.62 0 0 1 0.44,-1 5.68,5.68 0 0 1 1.29,-1.65 5.34,5.34 0 0 1 2.45,-1.15 6.85,6.85 0 0 1 2.65,0.07 11.66,11.66 0 0 1 3.84,1.4 c 0.25,0.16 2.79,1.7 3.45,3.51 a 6.21,6.21 0 0 1 0.3,1.3 5.47,5.47 0 0 1 0,1.3 8.36,8.36 0 0 1 -0.85,2.55 c -0.6,1.36 -0.9,2 -1,2.19 a 6,6 0 0 1 -2.76,2.26 6.28,6.28 0 0 1 -3.24,0.19 10.18,10.18 0 0 1 -4.26,-1.62 6.92,6.92 0 0 1 -2.92,-2.72 5.66,5.66 0 0 1 -0.59,-3.21 27.81,27.81 0 0 1 1.2,-3.42 z"
         id="path103" />
    </g>
  </g>
  <g
     id="Layer_4"
     data-name="Layer 4">
    <path
       class="PaCEPpYmYF"
       d="M856,57.58a9.81,9.81,0,0,0-6-2.14A51.23,51.23,0,0,0,839.42,44.9c-12-8.89-24.78-10-37.65-10.92-14.32-1-12.45,1.51-39.41,2.34,0,0-6.11.18-23,3.31a25.9,25.9,0,0,0-6.63,2.15,25.42,25.42,0,0,0-4.6,2.89c-3.27-1-8.49-3.2-11.31.67-3.39,4.63-5.42,10.34-12.63,17.78S690.23,68.05,686,76a25.65,25.65,0,0,0-2.57,9.36c-.27,3-.58,6.45,1.16,10.16,1.57,3.34,5.32,8,10.1,7.86a7.85,7.85,0,0,0,3.49-1,23.32,23.32,0,0,0,12.91,1.36c4.48-.84,11.49-3.59,11.94-7.18a8.18,8.18,0,0,1,.88-3.5,7.09,7.09,0,0,1,1.84-2.13c6.29.34,7.86,4.63,9.09,9.93.38,1.64.08,3.5.39,5.63.61,4.12.21-2.1.67,7.91,0,1,.09,4.75.53,4.49,0,.94-.11,2.58-.21,4.64-.34,7.43-.45,7.89,0,8.58,3,4.63,11.51,2.71,14.83,2,4.25-1,5.33-2.43,5.66-2.92,1.3-2,.73-4.34.19-7.22a101.38,101.38,0,0,1-1.56-13.46c11.54,0,21.08.36,29.14.9a4.73,4.73,0,0,1,1.94-.34,65.46,65.46,0,0,1,8.8,1.27c1.46.16,2.86.33,4.21.51l.59.08a61.46,61.46,0,0,0,9.56-.73c3.77-.52,7.56-1.17,11.34-.52,3.23.1,6.35,1.56,7.35,4.92a7,7,0,0,1,.2.93,6.62,6.62,0,0,1,.24.62,15,15,0,0,1,.62,4.17,15.19,15.19,0,0,1-.54,4.74l0,.1c0,.17.08.34.13.51.1.41.21.8.32,1.19a3.82,3.82,0,0,0,2.57,2.55c8.1,2.38,14.8,2,17-1.39a5,5,0,0,0,.78-2.35,329.41,329.41,0,0,0-1-33.35q-.35-4.26-.78-8.39a36.19,36.19,0,0,0,4.68-16,35.49,35.49,0,0,0-1-10.14c2.76,1,3.82,2.35,4.3,3.31,2.21,4.49-3.68,9.59-2.15,17.76.25,1.36.58,3.08,1.17,3.12C856.9,84.06,863.52,64.08,856,57.58Z"
       id="path106" />
    <ellipse
       class="bQFhoXoyKE"
       cx="714.62"
       cy="43.04"
       rx="4.46"
       ry="5.91"
       transform="translate(74.22 363.08) rotate(-30)"
       id="ellipse108" />
    <ellipse
       class="bQFhoXoyKE"
       cx="730.55"
       cy="44.29"
       rx="5.91"
       ry="4.46"
       transform="translate(326.91 654.82) rotate(-60)"
       id="ellipse110" />
    <path
       class="bQFhoXoyKE"
       d="M683.3,87c.43-.1-2.33,11.07,8.2,15.75,2.36,1,4.92.31,6.68-.36.56.23,1.34.51,2.28.79a24.64,24.64,0,0,0,6.84,1,24.93,24.93,0,0,0,10.21-2.42c2.58-1.12,4.32-1.91,4.92-3.6.24-.68.21-1.27.81-3.23a7,7,0,0,1,1.1-2.48c.55-.72.88-.78,1.41-1.46a5.5,5.5,0,0,0,1.06-2.43,8.86,8.86,0,0,0-5.16.78c-1.7.88-2,1.87-4.64,4.47-2.34,2.3-3.52,3.45-5,3.86-3,.86-6-.69-7.22-1.29-2.65-1.34-2.81-2.54-5-2.92a10.49,10.49,0,0,0-4.72.6c-3,.83-3.22,1.64-4.9,1.64a7.09,7.09,0,0,1-4.56-2.07C684.32,92.47,683.06,87,683.3,87Z"
       id="path112" />
    <path
       class="bQFhoXoyKE"
       d="M753.53,133.32c.79-.71.25-2.48,0-3.44-.38-1.24-.82-2.61-1.5-2.7-.83-.12-1.9,1.39-2.65,3.63a2.66,2.66,0,0,0-.73-2.91,2.39,2.39,0,0,0-2.13-.52,2.75,2.75,0,0,0-1.45,3.33,4.06,4.06,0,0,0-.78-2.49c-.27-.35-.79-1-1.41-1-.88,0-1.85,1.39-2.18,3.53a3.83,3.83,0,0,0-.57-2.34c-.19-.3-.8-1.24-1.61-1.3-1-.07-2.17,1.15-2.54,3.12a3.44,3.44,0,0,0,.29,1.91,4.18,4.18,0,0,0,1.76,1.71,8.67,8.67,0,0,0,3.32,1.13c2.84.42,5.08,0,8.52-.62,1.66-.3.9-.29,2.81-.69C753.15,133.52,753.33,133.49,753.53,133.32Z"
       id="path114" />
    <path
       class="bQFhoXoyKE"
       d="M830.42,130.62c-.52-.79.05-2,.64-3.24s1.07-2.28,1.81-2.3,1.16.76,1.5,1.28a5.7,5.7,0,0,1,.87,3.28,5.6,5.6,0,0,1,.79-3.24c.28-.43.62-1,1.17-1s1.24.56,1.47.83a4.26,4.26,0,0,1,.83,3.28,4.7,4.7,0,0,1,.64-2.94c.28-.44.82-1.28,1.55-1.28.89,0,1.49,1.24,1.77,1.81a5.38,5.38,0,0,1,.53,2.38,4,4,0,0,1,.87-3.32c.27-.29.71-.85,1.32-.83s1.23.83,1.54,1.36,1.48,2.29.83,3.6a2.82,2.82,0,0,1-1.24,1.13,9,9,0,0,1-3.47,1.24,22.91,22.91,0,0,1-5.24.09c-.85-.06-2.9-.52-7-1.44A1.87,1.87,0,0,1,830.42,130.62Z"
       id="path116" />
    <path
       class="BrkPaTHiLf"
       d="M724.09,66.43a3.73,3.73,0,0,1-1.45-.85,4.71,4.71,0,0,1-.82-1,3.38,3.38,0,0,1-.41-1.55,3.72,3.72,0,0,1,2.44-3.55c2.47-.84,5.61,1.52,5.46,3.78C729.18,65.26,726.4,67.18,724.09,66.43Z"
       id="path118" />
    <path
       class="dvTyJLbhHk"
       d="M724.25,66.38c-.13,0-.34-.09-.49-.14a4.45,4.45,0,0,1-1.29-.81,2.72,2.72,0,0,1-.73-1,2.43,2.43,0,0,1-.18-.4,1.38,1.38,0,0,1-.08-.2c-.71-1.58.32-3.17,1.58-4.14a3.66,3.66,0,0,1,2.48,2.93,3.7,3.7,0,0,1-.86,3.77A1,1,0,0,1,724.25,66.38Z"
       id="path120" />
    <path
       class="BrkPaTHiLf"
       d="M712.59,66.43a3.81,3.81,0,0,1-1.45-.85,5,5,0,0,1-.82-1,3.38,3.38,0,0,1-.41-1.55,3.75,3.75,0,0,1,2.44-3.55c2.47-.84,5.61,1.52,5.46,3.78C717.68,65.26,714.91,67.18,712.59,66.43Z"
       id="path122" />
    <path
       class="dvTyJLbhHk"
       d="M712.76,66.38c-.13,0-.35-.09-.5-.14a4.45,4.45,0,0,1-1.29-.81,2.72,2.72,0,0,1-.73-1,2.43,2.43,0,0,1-.18-.4l-.08-.2c-.71-1.58.32-3.17,1.58-4.14A3.66,3.66,0,0,1,714,62.67a3.7,3.7,0,0,1-.86,3.77A1,1,0,0,1,712.76,66.38Z"
       id="path124" />
    <path
       class="VxPJcTnETc"
       d="M352.63,616.33c.22-6.63.54-16.75,8.36-23.19,8.38-6.89,19.45-4.68,21.3-4.31,3.33.66,10.92,2.18,15.37,9.17a20.26,20.26,0,0,1,1.89,17.25c-1.09,3.06-2,3-8.9,12.14-4.28,5.71-6.42,8.56-7.28,10.51-3.2,7.3-1.53,11.67-5.39,14.83a10,10,0,0,1-6.74,2.16C361.31,654.21,352.05,634.14,352.63,616.33Z"
       id="path126" />
    <path
       class="VhJfOegEfM"
       d="M369.46,665.24c-1.28-2.39-5.23-3.53-8-2.56-5.95,2.13-9.13,15.4-4.26,24.72,4.74,9.08,15.27,10.85,16.76,11.08a25.42,25.42,0,0,0,15.06-2.56c10.14-4.83,14.09-14.22,15.34-17.33A36,36,0,0,0,406.68,661a32.51,32.51,0,0,0,4,7.1,32.92,32.92,0,0,0,6.82,6.82c-.09,1.75,1.77,2.91,1.93,6.3.53,11-3.37,25.57,4,29.83.29.16,9.15,1.3,13.65-1.18,7.05-3.9,3-20.05,9.09-22.17,1.54-.53,1.84.47,5.12.86,9.32,1.09,14.95-6,17.61-4,1.44,1.11.18,3.48-.28,12.22-.34,6.44-.49,9.69.85,11.65,3.13,4.56,12.85,5.79,18.75,2s6.43-12.13,7.39-28.7c.85-14.68,1.33-23-1.71-34.1-3.24-11.87-6.09-22.29-14.77-28.41-18.4-13-42,8.22-62.22-6.25-6.11-4.37-6.92-8.42-13.64-10.23-10.62-2.86-23.19,3.34-30.12,12.22-.69.88-10.06,13.21-6.25,23.86.35,1,2.31,4.25,6.25,10.8,3.65,6.08,4.48,7.14,6,10.23,2.69,5.59,4.2,8.72,3.69,12.79-.16,1.24-.95,7.64-6,9.37-3.71,1.29-8.57-.39-9.94-3.41C364.87,674.13,371.59,669.23,369.46,665.24Z"
       id="path128" />
    <path
       class="VxPJcTnETc"
       d="M403.34,622.41c.21-6.64.54-16.76,8.35-23.19,8.38-6.9,19.45-4.69,21.31-4.32,3.32.67,10.92,2.19,15.37,9.17a20.24,20.24,0,0,1,1.88,17.26c-1.09,3.06-2,3-8.89,12.13-4.29,5.71-6.43,8.57-7.29,10.52-3.2,7.3-1.52,11.67-5.39,14.83a10.11,10.11,0,0,1-6.74,2.16C412,660.28,402.76,640.22,403.34,622.41Z"
       id="path130" />
    <path
       class="VxPJcTnETc"
       d="M496.78,644.35a9.49,9.49,0,0,1-6.25-1.61,2.75,2.75,0,0,1-1.1-2.9,2.72,2.72,0,0,1,.46-1c1.1-1.34,2.81-2.05,4-3.3a4.12,4.12,0,0,0,1.32-2.61c-.05-1.25-1.12-1.8-2.06-2.34l-7.49-4.22c-1.49-.87-2.7,1.59-1.27,2.35l4.45,2.54,2.11,1.23,1.18.67.48.26c.21.06-.13-.28,0,0l-.2-.64c.07.52-.92,1.25-1.29,1.54s-1.33,1-2,1.46a5.59,5.59,0,0,0-1.92,2.09,5.65,5.65,0,0,0-.66,2.76,6.46,6.46,0,0,0,3.13,4.81,14.2,14.2,0,0,0,7.13,1.47c1.75.06,1.63-2.6-.09-2.67Z"
       id="path132" />
    <path
       class="BrkPaTHiLf"
       d="M376.76,649.38a5.34,5.34,0,0,1-2-1.24,7.25,7.25,0,0,1-1.09-1.48,4.35,4.35,0,0,1-.51-2.15,5.25,5.25,0,0,1,3.58-4.9c3.48-1.11,7.8,2.34,7.51,5.48C384,647.91,380,650.44,376.76,649.38Z"
       id="path134" />
    <path
       class="dvTyJLbhHk"
       d="M377.06,649.29l-.7-.22a6.1,6.1,0,0,1-1.78-1.19,4,4,0,0,1-1-1.37,4.72,4.72,0,0,1-.24-.56l-.09-.29c-.93-2.25.58-4.45,2.39-5.75a6,6,0,0,1,2.17,1.73,6.06,6.06,0,0,1-.19,7.75A5.67,5.67,0,0,1,377.06,649.29Z"
       id="path136" />
    <path
       class="BrkPaTHiLf"
       d="M393.06,649.9a5.26,5.26,0,0,1-2-1.24,6.58,6.58,0,0,1-1.09-1.48,4.25,4.25,0,0,1-.52-2.15,5.24,5.24,0,0,1,3.59-4.9c3.47-1.11,7.8,2.34,7.5,5.48C400.27,648.43,396.3,651,393.06,649.9Z"
       id="path138" />
    <path
       class="dvTyJLbhHk"
       d="M393.35,649.81l-.69-.22a6.15,6.15,0,0,1-1.79-1.19,3.92,3.92,0,0,1-1-1.37,3.53,3.53,0,0,1-.25-.56l-.09-.29c-.92-2.25.58-4.45,2.39-5.75a6,6,0,0,1,3.35,4.25,5.94,5.94,0,0,1-.07,2.78,6.1,6.1,0,0,1-1.29,2.45A5.4,5.4,0,0,1,393.35,649.81Z"
       id="path140" />
    <path
       class="ETzeSvgYRM"
       d="M367.28,68.51a17.48,17.48,0,0,1,1.24-3.17c1.05-2.23,3.13-6.61,7.39-9,4.57-2.54,9.36-1.49,12.15-.88,2.58.57,7.53,1.65,10.91,6.16a15.57,15.57,0,0,1,3,8.8c.29,10.08-9.78,16.36-10.38,16.72,1.31.09,3.19.24,5.45.53a54.16,54.16,0,0,1,8.63,1.59c4.2,1.19,3.86,1.85,6.16,2.11a15.23,15.23,0,0,0,8.8-2.11A20.6,20.6,0,0,0,428,82.76c.74,3,2.91,13.5-2.69,24.09-7.48,14.13-22.69,17-26.3,17.62-5.26,1-17.5,3.25-26.75-4.92-1.47-1.3-10.09-8.5-8.61-18.82,1.08-7.55,6.86-12,8.3-13a2.34,2.34,0,0,0,.5-1.64c-.18-1.11-1.46-1.73-1.93-2C367.05,82.08,365.7,74.32,367.28,68.51Z"
       id="path142" />
    <path
       class="EPNpiBpZlr"
       d="M369.13,75.41a5.51,5.51,0,0,0,3.52,2c.92.23.72,2,.26,2.86-1.21,2.12-7.36,2-11.71-.65s-6.94-8.1-5.85-9.37c.65-.75,2.72-.18,3.38,0,2.23.62,2.36,1.73,3.64,1.69,2.1-.06,3.13-3.09,4.73-2.66a1.57,1.57,0,0,1,.68.42C369.45,71.15,367.79,73.74,369.13,75.41Z"
       id="path144" />
    <path
       class="EPNpiBpZlr"
       d="M357.94,81.85a.39.39,0,0,0,.43.5c1.09-.18,2.55-.4,4.28-.59,4.83-.55,6.24-.31,6.36-.8.23-1-4.53-4.57-8.19-2.75A6.08,6.08,0,0,0,357.94,81.85Z"
       id="path146" />
    <path
       class="sKEynFbJKJ"
       d="M377.65,104A9.08,9.08,0,0,1,379,99.2c2.08-3,7-3.07,8-3.09,4.54-.09,5.87,2.52,10.8,3.3a17.42,17.42,0,0,0,8-.69l-7.16,6.71,5.68-.23a20.11,20.11,0,0,1-2.95,3.3c-.92.82-8.53,6.8-16.14,4.77C380.44,112,377.44,107.93,377.65,104Z"
       id="path148" />
    <path
       class="BrkPaTHiLf"
       d="M379.79,74a5.38,5.38,0,0,1-2-1.16,6.33,6.33,0,0,1-1.12-1.4,4.5,4.5,0,0,1-.55-2.1,5,5,0,0,1,3.32-4.84c3.36-1.15,7.64,2.08,7.43,5.15C386.72,72.36,383,75,379.79,74Z"
       id="path150" />
    <path
       class="dvTyJLbhHk"
       d="M380,73.89c-.18-.07-.47-.12-.67-.2a6.08,6.08,0,0,1-1.77-1.09,3.58,3.58,0,0,1-1-1.3,3.36,3.36,0,0,1-.26-.54s-.1-.27-.1-.27c-1-2.16.44-4.32,2.15-5.65,1.45.25,2.83,1.8,3.38,4s0,4.27-1.18,5.15A1.84,1.84,0,0,1,380,73.89Z"
       id="path152" />
    <path
       class="ETzeSvgYRM"
       d="M47.7,272c-.91-1.83-.58-6.36-.05-7.08,1.35.47,5.46,3.26,8,2.76a9.46,9.46,0,0,0,6.39-4c5.34-7.87,11.2-20.61,14-23.08,7.37-6.38,12.85-13.82,36.89-15.56a18.71,18.71,0,0,0,4.27-1c15.69-5.72,19.85-31.54,21.08-39.15a43.21,43.21,0,0,1,1-9.28c.77-3.13,1.29-5.23,2.76-7,4-4.92,13.85-6.18,20.07-1.5a13.62,13.62,0,0,1,5.27,8.53c1.14,6.86-3.75,11.8-4.26,12.29a16.77,16.77,0,0,0-4.52,1c-5.81,2.17-8.74,7-9.78,8.78-3.18,5.27-2.6,9.1-3.27,25.59-.61,15.16-1.38,19-2.26,22.09a55,55,0,0,1-5.77,13.8c-9.43,15.8-24.83,21.66-27.35,22.58-5.68,2.07-15.59,5.68-27.1,2a36,36,0,0,1-14.8-9.29c-1.2.81-8.39,5.48-15.06,2.76A11.9,11.9,0,0,1,47.7,272Z"
       id="path154" />
    <path
       class="EPNpiBpZlr"
       d="M85.82,284.52c.71-2.19,4.31-3.6,5.67-2.57.72.56.46,1.56.12,5.88-.47,6-.26,8,0,9.38.37,2,.64,3.34,1.75,4.63.91,1,2.24,1.89,5.88,2.63a38.63,38.63,0,0,0,10.51.62,4.79,4.79,0,0,0-2.75,3.5,4.55,4.55,0,0,0,2.12,4.5,26.83,26.83,0,0,0-9.5-1.12c-2.09.13-3.8-.25-4.26.62s.4,2,.88,2.63a35,35,0,0,0-3.5-1.88c-3.31-1.53-4-1.21-4.75-2-2-2,1.23-5.19,1-12-.12-3.39-.24-7-2.13-10.88C86.18,287,85.39,285.85,85.82,284.52Z"
       id="path156" />
    <path
       class="EPNpiBpZlr"
       d="M114.74,279.8c.25.73.61,1.77,1,3,.66,2.07,1,3.31,1.38,4.75.76,3.44,1.24,5.59.12,6.76a9.47,9.47,0,0,1-3.12,1.47c-1.06.39-1.88.6-2.13,1.28a1.69,1.69,0,0,0,.12,1.25,2.42,2.42,0,0,1,1.52-.88,2.33,2.33,0,0,1,1.45.29,31.49,31.49,0,0,0-1.23,4.34,31.18,31.18,0,0,0-.63,5.69l1.06-.9a2.55,2.55,0,0,1,2.27-.54,20.08,20.08,0,0,0,9.73,0,4,4,0,0,1,2.43.4,4,4,0,0,1,1.84,2.09,2.78,2.78,0,0,0,0-3.18,2.48,2.48,0,0,0-1.49-.85,4.61,4.61,0,0,0,2.48,1.1c.74.06,1.06-.12,3-.65,2.52-.67,3.16-.67,3.68-.59a4.94,4.94,0,0,1,2,.74c.21-1.69,0-3.15-.59-3.08-4.87.6-6.35.63-12.22-1.69a8.37,8.37,0,0,1-4.67-4.22,11.44,11.44,0,0,1-1.24-3.57,35.92,35.92,0,0,1-.89-6.56,64.67,64.67,0,0,0-1.21-9Z"
       id="path158" />
    <path
       class="EPNpiBpZlr"
       d="M160.3,187.88c.3,1,2.63.65,4.8,1.2,4.78,1.21,6.08,4.67,8.71,5.84,1.55.69,3.65-1.29,3.76-2.55.14-1.73-3.08-4.33-16.85-8.29a6.67,6.67,0,0,1,.05,1.09C160.72,186.76,160.14,187.33,160.3,187.88Z"
       id="path160" />
    <path
       class="EPNpiBpZlr"
       d="M164.24,177.73c.24-.18.91.12,2-.17.59-.16.76-.92,1.27-.88s.77.7.92,1c.65,1.23,2.16,1.68,4.38,2.35,3,.9,10.43,2.37,13.46.36a3,3,0,0,1,2.24-.62s.91.23,1.09.83c.28.91-1.2,2.08-1.61,2.4-3.23,2.53-6.67.75-13.46,2.35-2.58.6-2.68,1.35-4.38,1.09a70.87,70.87,0,0,1-9.44-2.34,12.61,12.61,0,0,0,2.56-.68,3.64,3.64,0,0,0,1.77-1.52C165.75,180.18,163.09,178.58,164.24,177.73Z"
       id="path162" />
    <path
       class="BrkPaTHiLf"
       d="M148.2,174.93c-.2-3.08,4.08-6.32,7.45-5.16a5,5,0,0,1,2.44,1.89,5.05,5.05,0,0,1,.89,3,4.57,4.57,0,0,1-.55,2.11,6.82,6.82,0,0,1-1.12,1.4,5.42,5.42,0,0,1-2,1.16C152.17,180.3,148.38,177.69,148.2,174.93Z"
       id="path164" />
    <path
       class="dvTyJLbhHk"
       d="M154.53,179.3c-1.16-.88-1.73-3-1.18-5.16s1.93-3.74,3.39-4c1.71,1.34,3.13,3.5,2.15,5.67l-.1.27a3.94,3.94,0,0,1-.26.55,3.47,3.47,0,0,1-1,1.29,6,6,0,0,1-1.76,1.1c-.2.08-.5.13-.67.2A1.66,1.66,0,0,1,154.53,179.3Z"
       id="path166" />
    <path
       class="sKEynFbJKJ"
       d="M122.48,249.59c-.21,8-10.77,12.49-14.48,14.08-19.82,8.52-46.09-.93-46.58-8.52-.22-3.31,4.44-6.62,7.53-7.93,6.22-2.65,9.25,1.44,17-.4,4.79-1.13,4.23-2.82,12.88-6.54,6.43-2.77,9.64-4.15,13.09-3.37C117.48,238.15,122.63,243.93,122.48,249.59Z"
       id="path168" />
    <path
       class="PaCEPpYmYF"
       d="M620.4,198.1a9.85,9.85,0,0,1,6.05-2.14A51.23,51.23,0,0,1,637,185.42c12-8.89,24.78-10,37.65-10.92,14.32-1,12.45,1.52,39.41,2.34,0,0,6.11.19,23,3.32a24.83,24.83,0,0,1,11.24,5c3.27-1,8.49-3.21,11.31.66,3.38,4.63,5.41,10.34,12.63,17.78s13.94,4.93,18.17,12.84a25.37,25.37,0,0,1,2.56,9.36c.28,3,.59,6.45-1.15,10.16-1.57,3.35-5.33,8-10.1,7.87a8,8,0,0,1-3.49-1,23.5,23.5,0,0,1-12.91,1.36c-4.48-.84-11.49-3.6-11.95-7.19a8.06,8.06,0,0,0-.87-3.49,7,7,0,0,0-1.84-2.14c-6.29.34-7.86,4.63-9.09,9.93-.38,1.64-.08,3.51-.39,5.63-.61,4.12-.21-2.1-.67,7.91,0,1-.09,4.75-.53,4.49,0,.94.11,2.59.21,4.64.34,7.43.45,7.89,0,8.58-3,4.63-11.51,2.71-14.83,1.95-4.25-1-5.34-2.43-5.66-2.92-1.31-2-.73-4.34-.19-7.22A103.1,103.1,0,0,0,721.06,251c-11.54,0-21.08.36-29.14.9a4.76,4.76,0,0,0-1.94-.34,63.69,63.69,0,0,0-8.8,1.28c-1.46.16-2.86.32-4.21.5l-.59.08a61.36,61.36,0,0,1-9.56-.72c-3.77-.53-7.56-1.17-11.34-.53-3.23.1-6.35,1.56-7.35,4.92a5.69,5.69,0,0,0-.2.93,5.87,5.87,0,0,0-.24.63,14.55,14.55,0,0,0-.62,4.16,14.87,14.87,0,0,0,.54,4.74l0,.11c0,.17-.08.33-.13.5-.1.41-.21.8-.32,1.19a3.82,3.82,0,0,1-2.57,2.55c-8.1,2.38-14.8,2-17-1.39a4.94,4.94,0,0,1-.78-2.35,329.49,329.49,0,0,1,1-33.35q.35-4.26.78-8.39a36.19,36.19,0,0,1-4.68-16,35.13,35.13,0,0,1,1-10.14c-2.76,1-3.82,2.35-4.3,3.31-2.21,4.5,3.67,9.59,2.15,17.76-.26,1.37-.58,3.08-1.17,3.12C619.5,224.58,612.88,204.6,620.4,198.1Z"
       id="path170" />
    <ellipse
       class="bQFhoXoyKE"
       cx="761.78"
       cy="183.56"
       rx="5.91"
       ry="4.46"
       transform="translate(221.92 751.5) rotate(-60)"
       id="ellipse172" />
    <ellipse
       class="bQFhoXoyKE"
       cx="745.85"
       cy="184.82"
       rx="4.46"
       ry="5.91"
       transform="translate(7.52 397.69) rotate(-30)"
       id="ellipse174" />
    <path
       class="bQFhoXoyKE"
       d="M793.1,227.51c-.43-.11,2.33,11.06-8.21,15.74-2.36,1.05-4.91.31-6.67-.35-.56.22-1.34.51-2.28.78a24.25,24.25,0,0,1-6.84.95,24.93,24.93,0,0,1-10.21-2.42c-2.58-1.12-4.32-1.9-4.92-3.6-.24-.68-.21-1.26-.81-3.23a7.34,7.34,0,0,0-1.1-2.48c-.55-.72-.88-.78-1.41-1.46a5.5,5.5,0,0,1-1.06-2.43,8.86,8.86,0,0,1,5.16.78c1.7.88,2,1.87,4.64,4.47,2.34,2.3,3.51,3.45,5,3.87,3,.85,6-.7,7.22-1.29,2.65-1.35,2.81-2.55,5-2.93a10.38,10.38,0,0,1,4.72.61c3,.82,3.22,1.64,4.9,1.63a7.18,7.18,0,0,0,4.56-2.06C792.08,233,793.34,227.56,793.1,227.51Z"
       id="path176" />
    <path
       class="bQFhoXoyKE"
       d="M722.87,273.84c-.79-.71-.25-2.48,0-3.44.37-1.24.82-2.61,1.5-2.7.83-.12,1.9,1.39,2.65,3.63a2.65,2.65,0,0,1,.73-2.9,2.32,2.32,0,0,1,2.13-.52,2.74,2.74,0,0,1,1.45,3.32,4.06,4.06,0,0,1,.78-2.49c.27-.35.79-1,1.41-1,.88,0,1.85,1.39,2.18,3.53a3.76,3.76,0,0,1,.57-2.34c.19-.3.8-1.23,1.61-1.3,1-.07,2.17,1.15,2.54,3.12a3.53,3.53,0,0,1-.29,1.91,4.26,4.26,0,0,1-1.76,1.71,8.73,8.73,0,0,1-3.32,1.13c-2.84.42-5.09,0-8.52-.61-1.66-.31-.9-.3-2.82-.7C723.25,274,723.07,274,722.87,273.84Z"
       id="path178" />
    <path
       class="bQFhoXoyKE"
       d="M646,271.14c.53-.79,0-2-.63-3.24s-1.07-2.28-1.81-2.3-1.16.76-1.51,1.28a5.77,5.77,0,0,0-.86,3.29,5.7,5.7,0,0,0-.79-3.25c-.28-.43-.62-.95-1.17-1s-1.24.56-1.47.83a4.27,4.27,0,0,0-.83,3.29,4.78,4.78,0,0,0-.64-2.95c-.29-.44-.82-1.28-1.55-1.28-.89,0-1.5,1.24-1.77,1.81a5.25,5.25,0,0,0-.53,2.38,4,4,0,0,0-.87-3.32c-.27-.28-.71-.85-1.32-.83s-1.23.83-1.54,1.36c-.42.68-1.49,2.29-.84,3.6a2.85,2.85,0,0,0,1.25,1.13,9.22,9.22,0,0,0,3.47,1.25,23.94,23.94,0,0,0,5.24.08c.85-.06,2.89-.52,7-1.44A1.83,1.83,0,0,0,646,271.14Z"
       id="path180" />
    <path
       class="BrkPaTHiLf"
       d="M752.31,207a3.81,3.81,0,0,0,1.45-.85,4.48,4.48,0,0,0,.82-1,3.31,3.31,0,0,0,.41-1.54,3.75,3.75,0,0,0-2.44-3.56c-2.47-.84-5.61,1.52-5.46,3.78C747.22,205.78,750,207.7,752.31,207Z"
       id="path182" />
    <path
       class="dvTyJLbhHk"
       d="M752.15,206.91a4.77,4.77,0,0,1,.49-.15,4.25,4.25,0,0,0,1.29-.81,2.63,2.63,0,0,0,.73-.95,2.76,2.76,0,0,0,.18-.39l.08-.2c.71-1.59-.32-3.18-1.58-4.15a3.66,3.66,0,0,0-2.48,2.93,3.72,3.72,0,0,0,.86,3.78A1.54,1.54,0,0,0,752.15,206.91Z"
       id="path184" />
    <path
       class="BrkPaTHiLf"
       d="M763.81,207a3.81,3.81,0,0,0,1.45-.85,4.77,4.77,0,0,0,.82-1,3.18,3.18,0,0,0,.4-1.54,3.65,3.65,0,0,0-.65-2.17,3.7,3.7,0,0,0-1.78-1.39c-2.47-.84-5.61,1.52-5.46,3.78C758.72,205.78,761.49,207.7,763.81,207Z"
       id="path186" />
    <path
       class="dvTyJLbhHk"
       d="M763.64,206.91c.13-.06.35-.1.5-.15a4.25,4.25,0,0,0,1.29-.81,2.5,2.5,0,0,0,.72-.95,2,2,0,0,0,.19-.39l.08-.2c.71-1.59-.32-3.18-1.58-4.15a3.64,3.64,0,0,0-2.48,2.93,3.72,3.72,0,0,0,.86,3.78A1.47,1.47,0,0,0,763.64,206.91Z"
       id="path188" />
    <path
       class="ETzeSvgYRM"
       d="M117.52,7.09a18.63,18.63,0,0,0-1.23-3.17c-1.06-2.23-3.14-6.61-7.4-9-4.57-2.53-9.36-1.49-12.14-.88-2.59.57-7.54,1.65-10.92,6.16a15.59,15.59,0,0,0-3,8.8c-.29,10.08,9.78,16.36,10.39,16.73-1.31.08-3.2.24-5.46.52a55.52,55.52,0,0,0-8.63,1.59c-4.2,1.2-3.86,1.85-6.16,2.11a15.25,15.25,0,0,1-8.8-2.11,20.68,20.68,0,0,1-7.39-6.51c-.74,3-2.91,13.49,2.69,24.09,7.48,14.13,22.69,17,26.3,17.61,5.26,1,17.5,3.25,26.75-4.92,1.47-1.3,10.09-8.49,8.61-18.81-1.07-7.56-6.86-12-8.29-13a2.25,2.25,0,0,1-.5-1.64c.17-1.11,1.46-1.72,1.92-2C117.75,20.66,119.1,12.9,117.52,7.09Z"
       id="path190" />
    <path
       class="EPNpiBpZlr"
       d="M115.67,14A5.49,5.49,0,0,1,112.16,16c-.93.23-.72,2.05-.26,2.86,1.2,2.13,7.36,2,11.7-.65s6.94-8.1,5.85-9.36c-.65-.76-2.72-.19-3.38,0-2.22.61-2.36,1.73-3.64,1.69-2.09-.07-3.13-3.1-4.73-2.66a1.63,1.63,0,0,0-.68.42C115.36,9.74,117,12.33,115.67,14Z"
       id="path192" />
    <path
       class="EPNpiBpZlr"
       d="M126.86,20.43a.39.39,0,0,1-.43.5c-1.09-.18-2.55-.39-4.28-.59-4.82-.55-6.23-.31-6.35-.8-.24-1,4.52-4.57,8.19-2.75A6.09,6.09,0,0,1,126.86,20.43Z"
       id="path194" />
    <path
       class="sKEynFbJKJ"
       d="M107.15,42.54a9.09,9.09,0,0,0-1.35-4.76c-2.08-3-7-3.07-8-3.09C93.29,34.6,92,37.21,87,38a17.34,17.34,0,0,1-8-.68L86.24,44l-5.68-.22a20.54,20.54,0,0,0,3,3.29c.93.82,8.53,6.8,16.14,4.77C104.37,50.6,107.36,46.52,107.15,42.54Z"
       id="path196" />
    <path
       class="BrkPaTHiLf"
       d="M105,12.54a5.28,5.28,0,0,0,2-1.16A6.46,6.46,0,0,0,108.1,10a4.46,4.46,0,0,0,.56-2.1A5.09,5.09,0,0,0,105.33,3C102,1.89,97.69,5.12,97.9,8.2,98.08,10.94,101.86,13.56,105,12.54Z"
       id="path198" />
    <path
       class="dvTyJLbhHk"
       d="M104.79,12.48c.17-.08.47-.13.67-.2a6,6,0,0,0,1.76-1.1,3.69,3.69,0,0,0,1-1.29,3.87,3.87,0,0,0,.25-.55s.1-.27.1-.27c1-2.16-.43-4.32-2.14-5.65-1.46.25-2.84,1.8-3.38,4s0,4.27,1.17,5.15A2.32,2.32,0,0,0,104.79,12.48Z"
       id="path200" />
    <path
       class="VNWguXEjXb"
       d="M535.2,123.2a153.15,153.15,0,0,1-36.18-48Q496.58,70,494.65,65"
       id="path202" />
    <ellipse
       class="laMfGQUFQa"
       cx="492.59"
       cy="52.14"
       rx="7.45"
       ry="19.42"
       transform="translate(0.18 105.91) rotate(-12.27)"
       id="ellipse204" />
    <path
       class="VNWguXEjXb"
       d="M542.92,113.15a152.94,152.94,0,0,1,7.71-59.65q1.86-5.41,4-10.36"
       id="path206" />
    <ellipse
       class="laMfGQUFQa"
       cx="562.12"
       cy="32.54"
       rx="19.42"
       ry="7.45"
       transform="translate(236.07 491.59) rotate(-57.93)"
       id="ellipse208" />
    <path
       class="VNWguXEjXb"
       d="M538.19,120.3a153.08,153.08,0,0,1-18.05-57.37c-.4-3.8-.62-7.5-.72-11.08"
       id="path210" />
    <ellipse
       class="laMfGQUFQa"
       cx="521.76"
       cy="39.08"
       rx="19.42"
       ry="7.45"
       transform="translate(417.23 551.76) rotate(-82.76)"
       id="ellipse212" />
    <path
       class="ACCnrXwLNv"
       d="M539.19,122.77c.28-3.7-18.51-13.9-38.11-8.58-13.34,3.63-33,16.06-35.9,37.87a45.82,45.82,0,0,0,1.11,17.15c6.83-12.6,17.38-27.62,33.14-36.44C520.16,121.16,538.93,126.43,539.19,122.77Z"
       id="path214" />
    <path
       class="ACCnrXwLNv"
       d="M538.73,122.15c-2.57-1.22-.47-20.09,12.22-33.55,8.64-9.16,26-19.88,41.78-13.7a29.51,29.51,0,0,1,10.78,7.56c-11.5.51-26.34,3-39.54,12.07C546.59,106.44,541.27,123.37,538.73,122.15Z"
       id="path216" />
    <path
       class="VNWguXEjXb"
       d="M447,307.79a101.23,101.23,0,0,1-6.51-39.15c.09-2.52.28-5,.55-7.31"
       id="path218" />
    <ellipse
       class="laMfGQUFQa"
       cx="443.79"
       cy="253.2"
       rx="12.82"
       ry="4.92"
       transform="translate(82.7 614.69) rotate(-74.74)"
       id="ellipse220" />
    <path
       class="VNWguXEjXb"
       d="M454.62,304.26a100.9,100.9,0,0,1,22.71-32.55c1.83-1.74,3.67-3.35,5.5-4.84"
       id="path222" />
    <ellipse
       class="laMfGQUFQa"
       cx="490.45"
       cy="262.95"
       rx="12.82"
       ry="4.92"
       transform="translate(-65.63 284.26) rotate(-30.39)"
       id="ellipse224" />
    <path
       class="VNWguXEjXb"
       d="M449.67,307a101,101,0,0,1,6.94-39.08c.93-2.34,1.93-4.57,3-6.7"
       id="path226" />
    <ellipse
       class="laMfGQUFQa"
       cx="464.84"
       cy="254.47"
       rx="12.82"
       ry="4.92"
       transform="translate(-9.31 491.14) rotate(-55.22)"
       id="ellipse228" />
    <path
       class="ACCnrXwLNv"
       d="M449.51,308.75c1.29-2.08-6.59-13.78-19.68-16.64-8.92-1.95-24.2-.67-32.56,11.2a30.29,30.29,0,0,0-4.59,10.37c7.84-5.28,18.6-10.85,30.51-11.21C438.86,302,448.24,310.81,449.51,308.75Z"
       id="path230" />
    <path
       class="ACCnrXwLNv"
       d="M449.42,308.25c-1.12-1.5,5.86-11.9,17.39-15.9,7.85-2.73,21.31-3.7,28.63,4.73a19.49,19.49,0,0,1,4,7.71c-6.89-3.22-16.34-6.28-26.82-5C458.82,301.45,450.54,309.73,449.42,308.25Z"
       id="path232" />
  </g>
  <g
     id="clouds"
     class="clouds-move">
    <path
       class="BrkPaTHiLf"
       d="M1289.43,271.92a9.29,9.29,0,0,0,0-5.94c-1.82-4.91-7.67-5.78-8.35-6a11.81,11.81,0,0,0-11.9,6c-.17.33-.49,2.21-1.2,5.94v1.2a4.89,4.89,0,0,0-1.2-1.2c-2.89-2-7.23-.26-9.53,1.2a11.36,11.36,0,0,0-4.75,5.95,11.73,11.73,0,0,0,0,7.13,15.3,15.3,0,0,0,6,8.33h53.61a16.74,16.74,0,0,1-3.57-3.56,12.65,12.65,0,0,1-2.37-4.77c-.64-2.75.44-3.39,0-5.95a10.57,10.57,0,0,0-3.58-5.94c-2.31-1.87-4.88-2.08-8.34-2.39A29.22,29.22,0,0,0,1289.43,271.92Z"
       id="path235" />
    <path
       class="BrkPaTHiLf"
       d="M655.78,479.33a19.65,19.65,0,0,0,0-12.63c-3.87-10.42-16.28-12.26-17.72-12.63a25.07,25.07,0,0,0-25.28,12.63c-.37.71-1,4.69-2.55,12.63v2.55a10.3,10.3,0,0,0-2.55-2.55c-6.14-4.17-15.35-.55-20.24,2.55a24.21,24.21,0,0,0-10.1,12.63,25,25,0,0,0,0,15.15A32.76,32.76,0,0,0,590,527.35H703.84a36.55,36.55,0,0,1-7.59-7.57,27,27,0,0,1-5-10.12c-1.35-5.86,1-7.21,0-12.63a22.35,22.35,0,0,0-7.58-12.64c-4.91-3.95-10.38-4.41-17.72-5.06A61.19,61.19,0,0,0,655.78,479.33Z"
       id="path237" />
    <path
       class="BrkPaTHiLf"
       d="M994.52,382.3a9.32,9.32,0,0,0,0-5.95c-1.82-4.91-7.66-5.77-8.34-6a11.88,11.88,0,0,0-6.87,1.14,11.74,11.74,0,0,0-5,4.81c-.18.33-.5,2.21-1.2,5.95v1.2a4.93,4.93,0,0,0-1.21-1.2c-2.89-2-7.23-.26-9.52,1.2a11.34,11.34,0,0,0-4.76,5.95,11.73,11.73,0,0,0,0,7.13,15.44,15.44,0,0,0,6,8.33h53.6a17.26,17.26,0,0,1-3.57-3.57,12.54,12.54,0,0,1-2.37-4.76c-.64-2.76.45-3.39,0-5.95a10.63,10.63,0,0,0-3.57-5.95c-2.32-1.86-4.89-2.08-8.35-2.38A29.22,29.22,0,0,0,994.52,382.3Z"
       id="path239" />
    <path
       class="BrkPaTHiLf"
       d="M54.56,477.38a9.16,9.16,0,0,0,0-5.94c-1.82-4.91-7.66-5.78-8.34-5.95a11.81,11.81,0,0,0-11.9,5.95c-.18.33-.49,2.2-1.2,5.94v1.2a5.26,5.26,0,0,0-1.2-1.2c-2.9-2-7.23-.26-9.53,1.2a11.34,11.34,0,0,0-4.76,5.95,11.73,11.73,0,0,0,0,7.13,15.37,15.37,0,0,0,6,8.33h53.6a17,17,0,0,1-3.57-3.56,12.65,12.65,0,0,1-2.37-4.77c-.64-2.76.45-3.39,0-6a10.61,10.61,0,0,0-3.57-5.94c-2.32-1.87-4.89-2.08-8.35-2.39A29.22,29.22,0,0,0,54.56,477.38Z"
       id="path241" />
    <path
       class="BrkPaTHiLf"
       d="M923.92,136a15.13,15.13,0,0,0,0-9.68c-3-8-12.48-9.4-13.59-9.68A19.2,19.2,0,0,0,891,126.29c-.28.54-.8,3.6-2,9.68v1.95a7.85,7.85,0,0,0-2-1.95c-4.71-3.19-11.77-.42-15.51,1.95a18.58,18.58,0,0,0-7.75,9.68,19.17,19.17,0,0,0,0,11.61,25.05,25.05,0,0,0,9.7,13.56h87.25a27.54,27.54,0,0,1-5.81-5.8,20.44,20.44,0,0,1-3.86-7.76c-1-4.48.73-5.52,0-9.68a17.14,17.14,0,0,0-5.82-9.68c-3.76-3-8-3.38-13.58-3.88A47.87,47.87,0,0,0,923.92,136Z"
       id="path243" />
    <path
       class="BrkPaTHiLf"
       d="M1177.64,202a15,15,0,0,0,0-9.68c-3-8-12.47-9.4-13.58-9.68a19.2,19.2,0,0,0-19.37,9.68c-.28.54-.8,3.6-2,9.68v2a8.07,8.07,0,0,0-2-2c-4.7-3.19-11.77-.42-15.51,2a18.52,18.52,0,0,0-7.74,9.68,19,19,0,0,0,0,11.61,25.05,25.05,0,0,0,9.7,13.56h87.25a27.59,27.59,0,0,1-5.82-5.8,20.66,20.66,0,0,1-3.86-7.76c-1-4.49.73-5.52,0-9.68a17.18,17.18,0,0,0-5.81-9.68c-3.77-3-8-3.38-13.58-3.88A48,48,0,0,0,1177.64,202Z"
       id="path245" />
    <path
       class="BrkPaTHiLf"
       d="M1165.64-.85a15.13,15.13,0,0,0,0-9.68c-3-8-12.48-9.4-13.58-9.68a19.31,19.31,0,0,0-11.19,1.85,19.2,19.2,0,0,0-8.18,7.83c-.29.54-.8,3.6-2,9.68v2a7.85,7.85,0,0,0-2-1.95c-4.71-3.19-11.77-.42-15.51,2a18.54,18.54,0,0,0-7.74,9.69,19,19,0,0,0,0,11.6A25,25,0,0,0,1115.22,36h87.25a27.78,27.78,0,0,1-5.81-5.8,20.59,20.59,0,0,1-3.86-7.76c-1-4.48.73-5.52,0-9.68A17.18,17.18,0,0,0,1187,3c-3.77-3-8-3.38-13.58-3.88A48,48,0,0,0,1165.64-.85Z"
       id="path247" />
    <path
       class="BrkPaTHiLf"
       d="M1041.22,549.21a15,15,0,0,0,0-9.68c-3-8-12.47-9.4-13.58-9.68a19.2,19.2,0,0,0-19.37,9.68c-.28.54-.8,3.59-1.95,9.68v1.95a7.85,7.85,0,0,0-2-1.95c-4.71-3.2-11.77-.42-15.51,1.95a18.5,18.5,0,0,0-7.75,9.68,19.17,19.17,0,0,0,0,11.61,25.05,25.05,0,0,0,9.7,13.56h87.25a27.78,27.78,0,0,1-5.81-5.8,20.52,20.52,0,0,1-3.86-7.76c-1-4.49.72-5.52,0-9.68a17.14,17.14,0,0,0-5.82-9.68c-3.76-3-8-3.39-13.58-3.88A45.82,45.82,0,0,0,1041.22,549.21Z"
       id="path249" />
    <path
       class="BrkPaTHiLf"
       d="M390.8,353.9a15.13,15.13,0,0,0,0-9.68c-3-8-12.48-9.4-13.58-9.68a19.2,19.2,0,0,0-19.37,9.68c-.28.54-.8,3.6-2,9.68v2a7.85,7.85,0,0,0-1.95-2c-4.71-3.19-11.77-.42-15.51,2a18.52,18.52,0,0,0-7.74,9.68,19,19,0,0,0,0,11.61,25.08,25.08,0,0,0,9.69,13.56h87.25a27.78,27.78,0,0,1-5.81-5.8,20.66,20.66,0,0,1-3.86-7.76c-1-4.49.73-5.52,0-9.68a17.18,17.18,0,0,0-5.81-9.68c-3.77-3-8-3.38-13.58-3.88A48,48,0,0,0,390.8,353.9Z"
       id="path251" />
    <path
       class="BrkPaTHiLf"
       d="M425.87,518.72a15,15,0,0,0,0-9.68c-3-8-12.47-9.4-13.58-9.68A19.2,19.2,0,0,0,392.92,509c-.28.54-.8,3.59-1.95,9.68v1.95a8.07,8.07,0,0,0-2-1.95c-4.7-3.2-11.77-.42-15.51,1.95a18.48,18.48,0,0,0-7.74,9.68,19,19,0,0,0,0,11.61,25.05,25.05,0,0,0,9.7,13.56h87.25a27.64,27.64,0,0,1-5.82-5.81A20.55,20.55,0,0,1,453,542c-1-4.49.73-5.52,0-9.68a17.18,17.18,0,0,0-5.81-9.68c-3.77-3-8-3.39-13.58-3.88A45.82,45.82,0,0,0,425.87,518.72Z"
       id="path253" />
    <path
       class="BrkPaTHiLf"
       d="M1070.59,294.11a9.32,9.32,0,0,0,0-5.95c-1.82-4.9-7.67-5.77-8.35-5.94a11.82,11.82,0,0,0-11.9,5.94c-.17.34-.49,2.21-1.2,5.95v1.2a4.89,4.89,0,0,0-1.2-1.2c-2.89-2-7.23-.26-9.53,1.2a11.36,11.36,0,0,0-4.75,5.95,11.73,11.73,0,0,0,0,7.13,15.34,15.34,0,0,0,5.95,8.33h53.61a16.74,16.74,0,0,1-3.57-3.56,12.65,12.65,0,0,1-2.37-4.77c-.64-2.76.44-3.39,0-5.95a10.57,10.57,0,0,0-3.58-5.94c-2.31-1.87-4.88-2.08-8.34-2.39A29.22,29.22,0,0,0,1070.59,294.11Z"
       id="path255" />
    <path
       class="BrkPaTHiLf"
       d="M853.1,589a9.32,9.32,0,0,0,0-6c-1.82-4.9-7.67-5.77-8.35-5.94a11.78,11.78,0,0,0-11.9,5.94c-.17.34-.49,2.21-1.2,6v1.2a4.72,4.72,0,0,0-1.2-1.2c-2.89-2-7.23-.26-9.53,1.2a11.43,11.43,0,0,0-4.76,6,11.88,11.88,0,0,0,0,7.13,15.44,15.44,0,0,0,6,8.33h53.61a17,17,0,0,1-3.57-3.56,12.82,12.82,0,0,1-2.38-4.77c-.63-2.76.45-3.39,0-6a10.52,10.52,0,0,0-3.57-5.95c-2.31-1.86-4.89-2.07-8.34-2.38A29.22,29.22,0,0,0,853.1,589Z"
       id="path257" />
    <path
       class="BrkPaTHiLf"
       d="M1198.32,539.62a9.19,9.19,0,0,0,0-6c-1.82-4.91-7.66-5.77-8.34-5.95a11.88,11.88,0,0,0-6.87,1.14,11.74,11.74,0,0,0-5,4.81c-.18.33-.5,2.21-1.2,6v1.2a5.06,5.06,0,0,0-1.2-1.2c-2.9-2-7.24-.26-9.53,1.2a11.34,11.34,0,0,0-4.76,5.95,11.73,11.73,0,0,0,0,7.13,15.44,15.44,0,0,0,6,8.33H1221a17.26,17.26,0,0,1-3.57-3.57,12.54,12.54,0,0,1-2.37-4.76c-.64-2.76.45-3.39,0-5.95a10.63,10.63,0,0,0-3.57-6c-2.32-1.86-4.89-2.08-8.35-2.38A29.22,29.22,0,0,0,1198.32,539.62Z"
       id="path259" />
    <path
       class="BrkPaTHiLf"
       d="M689.8,343.09a9.16,9.16,0,0,0,0-5.94c-1.82-4.91-7.66-5.78-8.34-5.95a11.81,11.81,0,0,0-11.9,5.95c-.18.33-.49,2.2-1.2,5.94v1.2a5.26,5.26,0,0,0-1.2-1.2c-2.89-2-7.23-.26-9.53,1.2a11.43,11.43,0,0,0-4.76,5.95,11.73,11.73,0,0,0,0,7.13,15.37,15.37,0,0,0,6,8.33h53.6a17,17,0,0,1-3.57-3.56,12.65,12.65,0,0,1-2.37-4.77c-.64-2.76.45-3.39,0-5.95a10.5,10.5,0,0,0-3.57-5.94c-2.32-1.87-4.89-2.08-8.35-2.39A29.22,29.22,0,0,0,689.8,343.09Z"
       id="path261" />
    <path
       class="BrkPaTHiLf"
       d="M624.33,111.13a9.32,9.32,0,0,0,0-5.95c-1.82-4.91-7.67-5.77-8.35-5.94a11.78,11.78,0,0,0-11.9,5.94c-.17.34-.49,2.21-1.2,5.95v1.2a4.72,4.72,0,0,0-1.2-1.2c-2.89-2-7.23-.26-9.53,1.2a11.43,11.43,0,0,0-4.76,6,11.88,11.88,0,0,0,0,7.13,15.44,15.44,0,0,0,6,8.33H647a17,17,0,0,1-3.57-3.56,12.82,12.82,0,0,1-2.38-4.77c-.63-2.76.45-3.39,0-6a10.52,10.52,0,0,0-3.57-5.95c-2.31-1.86-4.89-2.08-8.34-2.38A29.22,29.22,0,0,0,624.33,111.13Z"
       id="path263" />
    <path
       class="BrkPaTHiLf"
       d="M285.05,39a9.32,9.32,0,0,0,0-6c-1.82-4.91-7.67-5.77-8.35-5.95A11.81,11.81,0,0,0,264.8,33c-.17.33-.49,2.21-1.2,6v1.2a4.72,4.72,0,0,0-1.2-1.2c-2.89-2-7.23-.26-9.53,1.2a11.36,11.36,0,0,0-4.75,6,11.73,11.73,0,0,0,0,7.13,15.37,15.37,0,0,0,5.95,8.33h53.61A17,17,0,0,1,304.11,58a12.71,12.71,0,0,1-2.38-4.76c-.63-2.76.45-3.39,0-6a10.52,10.52,0,0,0-3.57-6c-2.31-1.86-4.88-2.08-8.34-2.38A29.22,29.22,0,0,0,285.05,39Z"
       id="path265" />
    <path
       class="BrkPaTHiLf"
       d="M462.05,181.17a9.32,9.32,0,0,0,0-5.95c-1.82-4.91-7.66-5.77-8.34-5.95a11.83,11.83,0,0,0-11.91,5.95c-.17.33-.49,2.21-1.2,5.95v1.2a4.72,4.72,0,0,0-1.2-1.2c-2.89-2-7.23-.26-9.53,1.2a11.36,11.36,0,0,0-4.75,5.95,11.73,11.73,0,0,0,0,7.13,15.39,15.39,0,0,0,6,8.33h53.6a17.26,17.26,0,0,1-3.57-3.57,12.54,12.54,0,0,1-2.37-4.76c-.64-2.76.44-3.39,0-5.95a10.59,10.59,0,0,0-3.58-5.95c-2.31-1.86-4.88-2.08-8.34-2.38A29.22,29.22,0,0,0,462.05,181.17Z"
       id="path267" />
  </g>
  <g
     id="реплики">
    <g
       id="window3"
       style="visibility: hidden">
      <rect
         class="aOeAOZlSat"
         x="682.04999"
         y="230.44"
         width="386.10999"
         height="253.25999"
         id="rect270" />
      <text
         class="VffrJaLWIi"
         transform="translate(701.35,265.81)"
         id="text288">ищи нас в <tspan
   class="rMHYcGAVyV"
   x="120.6"
   y="0"
   id="tspan272">москве</tspan><tspan
   x="192.96001"
   y="0"
   id="tspan274">!</tspan><tspan
   x="0"
   y="24"
   id="tspan276">ул. малая пионерская, 12</tspan><tspan
   x="0"
   y="72"
   id="tspan278">info@zoo.ru</tspan><tspan
   x="0"
   y="96"
   id="tspan280">+7(985)111-22-11</tspan><tspan
   x="0"
   y="144"
   id="tspan282">created by Катя Запорожец</tspan><tspan
   x="0"
   y="168"
   id="tspan284" /><tspan
   x="0"
   y="192"
   id="tspan286">© 2021 Чудо-Юдо</tspan></text>
      <line
         class="JGmqCYKqmF"
         x1="1040.1801"
         y1="258.06"
         x2="1055.34"
         y2="242.89999"
         id="line290" />
      <line
         class="JGmqCYKqmF"
         x1="1055.34"
         y1="258.06"
         x2="1040.1801"
         y2="242.89999"
         id="line292" />
    </g>
    <rect
       style="fill:#0000ff;fill-opacity:0"
       id="rect315"
       width="16.85594"
       height="16.988504"
       x="1038.484"
       y="241.07149" />
    <rect
       style="fill:#0000ff;fill-opacity:0"
       id="rect317"
       width="2.5983753"
       height="2.1653128"
       x="1047.1453"
       y="250.74323" />
    <rect
       style="fill:#0000ff;fill-opacity:0"
       id="rect319"
       width="19.05477"
       height="18.621696"
       x="1038.484"
       y="241.07149"
       onclick="closeWindow('window3')"
       class="button" />
  </g>
</svg>
