<?xml version="1.0" encoding="UTF-8" standalone="no"?>
<svg
   xmlns:dc="http://purl.org/dc/elements/1.1/"
   xmlns:cc="http://creativecommons.org/ns#"
   xmlns:rdf="http://www.w3.org/1999/02/22-rdf-syntax-ns#"
   xmlns:svg="http://www.w3.org/2000/svg"
   xmlns="http://www.w3.org/2000/svg"
   xmlns:sodipodi="http://sodipodi.sourceforge.net/DTD/sodipodi-0.dtd"
   xmlns:inkscape="http://www.inkscape.org/namespaces/inkscape"
   viewBox="0 0 1280 720"
   version="1.1"
   id="svg514"
   sodipodi:docname="segment_7.svg"
   inkscape:version="1.0.2 (e86c870879, 2021-01-15)">
  <metadata
     id="metadata518">
    <rdf:RDF>
      <cc:Work
         rdf:about="">
        <dc:format>image/svg+xml</dc:format>
        <dc:type
           rdf:resource="http://purl.org/dc/dcmitype/StillImage" />
      </cc:Work>
    </rdf:RDF>
  </metadata>
  <sodipodi:namedview
     pagecolor="#ffffff"
     bordercolor="#666666"
     borderopacity="1"
     objecttolerance="10"
     gridtolerance="10"
     guidetolerance="10"
     inkscape:pageopacity="0"
     inkscape:pageshadow="2"
     inkscape:window-width="1366"
     inkscape:window-height="738"
     id="namedview516"
     showgrid="false"
     inkscape:zoom="0.92440918"
     inkscape:cx="374.30902"
     inkscape:cy="501.47422"
     inkscape:window-x="0"
     inkscape:window-y="0"
     inkscape:window-maximized="1"
     inkscape:current-layer="svg514"
     inkscape:document-rotation="0" />
  <defs
     id="defs4">
    <style
       id="style2">.zkqgLHJXSB{fill:#f7efe2;}.NuhImFmUCb,.tOJeAzelMf,.qUrmSxdMxS,.fGIrxSrYip,.gutDTQYALg,.SqGQVBiDmf,.aSYmhfmTFY{fill:none;}.qUrmSxdMxS{stroke:#ff81e7;}.NuhImFmUCb,.tOJeAzelMf,.qUrmSxdMxS,.iRYqHPcfRS,.jKmLJWxisb,.fGIrxSrYip,.gutDTQYALg,.aySfchqiOw,.rjuoVkGqdV,.SqGQVBiDmf,.aSYmhfmTFY{stroke-miterlimit:10;}.tOJeAzelMf,.qUrmSxdMxS,.gutDTQYALg,.aSYmhfmTFY{stroke-width:16px;}.qUrmSxdMxS,.gutDTQYALg{stroke-dasharray:30.47 20.31;}.tOJeAzelMf,.gutDTQYALg{stroke:#ff0020;}.fGIrxSrYip,.aySfchqiOw,.aSYmhfmTFY{stroke:#00ffa9;}.aSYmhfmTFY{stroke-dasharray:29.94 19.96;}.spBrdtQwKN{fill:#d8e5a5;}.XQuAdpNnqw{fill:#a8e0a1;}.fJKgHoonIP{fill:#fff3ae;}.GNncxDtHLj{fill:#0097dd;}.qkcRWPwSDM{fill:#ff81e7;}.NuhImFmUCb{stroke-width:5px;}.aHaNYIduKn,.rjuoVkGqdV{fill:#fff;}.uOzPVTcCRu,.aySfchqiOw{fill:#00ffa9;}.RzILTXOtpM{fill:#ff6b5c;}.xnfjGJrmNt{fill:#a3877f;}.rwBJxKaDxa{fill:#ffd400;}.VzzPMlOzrh{fill:#ff1e00;}.llTxsNrSXW{fill:#5fe;}.fJxjhPyArN{fill:#b9fcf7;}.XkYbKxSGIn{fill:#ff0020;}.RDaJUztpjq{fill:#754c24;}.luRkJdynSX{fill:#f0ed00;}.iRYqHPcfRS,.jKmLJWxisb,.rjuoVkGqdV,.SqGQVBiDmf{stroke:#000;}.iRYqHPcfRS{stroke-width:0.25px;}.AydpBKjGXd{fill:#fdff00;}.mIntIJpUCV{fill:#f9c6ca;}.DvZGornfXn{fill:#eb7000;}.fthTCcuWVC{fill:#6000ff;}.fGIrxSrYip,.aySfchqiOw,.rjuoVkGqdV,.SqGQVBiDmf{stroke-width:2px;}.SlbKpYrcdQ{font-size:20px;font-family:IBMPlexMono-Text, IBM Plex Mono;letter-spacing:0em;}</style>
  </defs>
  <g
     id="фон"
     sodipodi:insensitive="true">
    <rect
       class="zkqgLHJXSB"
       x="-2572.8701"
       y="-743.28998"
       width="3863.25"
       height="2193.02"
       id="rect6" />
  </g>
  <g
     id="линии">
    <path
       class="qUrmSxdMxS"
       d="M 342.53,270.06 C 323.84,247 300.15,211.87 267.39,243 c -53.47,50.8 -132.11,0.42 -175.5,33.36 -60.23,45.74 -120.55,19.33 -165.48,8.86 -26,-6.06 -91.56,-8.79 -126.76,21.36 -33.11,28.33 -57.59,49.13 -117.94,27.52 -40.8,-14.61 -60.46,5.37 -73.4,9.82 a 211.44,211.44 0 0 1 -71.71,-14.05"
       id="path9" />
    <path
       class="gutDTQYALg"
       d="m 1169.51,803.65 c -31.73,14.2 -73.74,37.8 -107.92,-5.57 -55.76,-70.8 -193.61,5.61 -241.34,-43.93 -66.27,-68.81 -184.52,-6.48 -247.33,-15.26 -36.34,-5.08 -101.18,-27.81 -138.88,-71.28 -35.48,-40.86 35.27,-69.17 -21,-154.92 -21.82,-23.57 -96.5,-24 -110.44,-39.72 A 111.23,111.23 0 0 0 252,440.41 C 210.66,427.73 144.11,410.85 117.1,409.87"
       id="path11" />
    <path
       class="aSYmhfmTFY"
       d="M -34.67,54.31 C -3.39,22.5 36.5,-34.76 93.21,22.32 c 88.61,89.12 218,25.83 289.87,85.27 99.76,82.55 199.18,53.06 273.17,45.31 42.85,-4.46 151,3.79 209.4,57.36 54.85,50.32 95.4,87.31 194.84,65.23 67.25,-14.94 98.82,27.07 121.2,29.23 a 349.85,349.85 0 0 0 125.2,-10"
       id="path13" />
  </g>
  <g
     id="части_ланндш"
     data-name="части ланндш">
    <rect
       class="spBrdtQwKN"
       x="505.25"
       y="407.63"
       width="553.44"
       height="274.85999"
       rx="47.610001"
       id="rect16" />
    <path
       class="XQuAdpNnqw"
       d="m 659.72,505.21 c -91,5 -146.46,-12.57 -185.43,-45.81 -9.89,-8.43 -65.57,-55.92 -54.54,-109.08 4.53,-21.83 19.91,-42.66 39.27,-54.53 38.19,-23.44 73.72,-0.88 89.66,-22 10.71,-14.18 -3.74,-26.47 1.25,-69.69 2.63,-22.75 5.2,-45.05 22.53,-61 16.44,-15.18 42,-20.83 63.26,-15.27 25.61,6.7 25.57,24.66 61.08,45.81 16.47,9.81 44.56,26.54 62.71,16.52 16.67,-9.2 7.2,-31.21 26.74,-60.15 3.19,-4.73 21.64,-31.11 54.53,-39.27 47.93,-11.89 87.69,24.53 89.61,26.34 22.94,21.69 12.33,33.38 36.92,65.29 13.25,17.18 20.38,19.05 78.54,63.26 32.65,24.82 49,37.31 50.17,41.45 16.28,57.16 -201.88,205.36 -436.3,218.13 z"
       id="path18" />
    <path
       class="fJKgHoonIP"
       d="M 1020,460.44 H 867 a 30,30 0 0 0 -26,15 l -76.47,132.48 a 30.07,30.07 0 0 0 0,30 L 841,770.42 a 30,30 0 0 0 26,15 h 153 a 30,30 0 0 0 26,-15 L 1122.47,638 a 30,30 0 0 0 0,-30 L 1046,475.46 a 30,30 0 0 0 -26,-15.02 z"
       id="path20" />
    <path
       class="spBrdtQwKN"
       d="m 1317.4,557.47 v 386.18 a 57.1,57.1 0 0 1 -57.1,57.09 H 814.7 a 57.09,57.09 0 0 1 -57.1,-57.1 v -138 a 57.1,57.1 0 0 1 57.09,-57.1 h 205.63 a 17.17,17.17 0 0 0 17.18,-17.17 V 540.28 a 28.58,28.58 0 0 1 28.58,-28.58 h 205.55 a 45.77,45.77 0 0 1 45.77,45.77 z"
       id="path22" />
    <path
       class="fJKgHoonIP"
       d="M 415.72,-373.1 687.71,98 c 18.47,32 64.66,32 83.13,0 l 272,-471.08 c 18.48,-32 -4.62,-72 -41.57,-72 h -544 c -36.93,-0.02 -60.02,39.98 -41.55,71.98 z"
       id="path24" />
    <path
       class="GNncxDtHLj"
       d="m 1328.43,278.58 c -29.69,13.68 -63.42,1.81 -130.86,-21.92 C 1179.49,250.3 1103.7,222.52 1011.3,148.92 933.35,86.83 936.46,66.12 889,50.31 822.27,28.1 774.87,55.21 755.69,26.57 c -17.7,-26.42 6.76,-73.19 23.74,-95 6.34,-8.13 35.81,-43.77 78.52,-45.66 30.5,-1.34 38.34,-17 45.72,-28.66 18.33,-29.11 -3.39,-68.59 27.33,-110.08 47.34,-64.06 292.47,-37 405.4,118.7 104.97,144.75 76.25,373.91 -7.97,412.71 z"
       id="path26" />
    <path
       class="qkcRWPwSDM"
       d="M 433.92,-71.12 H 281 a 30,30 0 0 0 -26,15 L 178.47,76.36 a 30,30 0 0 0 0,30 L 255,238.86 a 30,30 0 0 0 26,15 h 153 a 30,30 0 0 0 26,-15 l 76.48,-132.47 a 30.05,30.05 0 0 0 0,-30 l -76.55,-132.5 a 30,30 0 0 0 -26.01,-15.01 z"
       id="path28" />
  </g>
  <g
     id="hover3"
     data-name="выделение правильный цвет"
     style="visibility:hidden">
    <ellipse
       stroke="url(#hover0grad)"
       class="NuhImFmUCb"
       cx="780.96997"
       cy="346"
       rx="96.5"
       ry="20.209999"
       id="ellipse31" />
  </g>
  <g
     id="Layer_1"
     data-name="Layer 1">
    <path
       class="spBrdtQwKN"
       d="M 356.29,288.32 V 548.83 A 144,144 0 0 1 219.38,692.67 c -1.42,0.07 -2.84,0.22 -4.25,0.43 a 102.75,102.75 0 0 1 -15.08,1.1 H -222.16 A 140.89,140.89 0 0 1 -363,553.31 V 494.2 a 140.43,140.43 0 0 1 41.27,-99.62 c 27.83,-27.83 60.48,-36 68.55,-37.83 a 138.23,138.23 0 0 1 31.07,-3.44 H -46.67 A 38.31,38.31 0 0 0 -8.36,315 v -26.68 a 182.55,182.55 0 0 1 4.52,-40.5 c 39.21,4.29 77.48,-4.26 99.08,-15.73 49.54,-26.3 65.1,-82 16.2,-115.09 A 182.18,182.18 0 0 1 174,106 v 0 a 182.32,182.32 0 0 1 182.29,182.32 z"
       id="path34" />
    <path
       class="XQuAdpNnqw"
       d="m -213.72,355.32 c -2.18,11.94 14.38,15.34 19.32,40.85 3.82,19.7 -3.7,29.95 -11.89,63.54 -8.67,35.57 -13,53.36 -8.91,71.1 7.55,32.8 38.1,51.6 62.4,66.57 38,23.36 56.12,19.6 98.08,37.82 46.5,20.19 62.5,41.39 89.15,59 88.63,58.57 255.22,51.88 296.7,-24.76 26,-48 -1.63,-115.22 -26.51,-150.21 -26.8,-37.69 -70.82,-58 -157.78,-97.19 C 117.19,408.69 81,406 37,377.86 11.44,361.49 11.55,356.19 -5.9,345 -84.33,294.9 -208,324 -213.72,355.32 Z"
       id="path36" />
    <path
       class="tOJeAzelMf"
       d="M 0.36,113.38 C -2,114.2 -5.18,113.28 -9,111"
       id="path38" />
    <path
       class="GNncxDtHLj"
       d="m -0.08,32.66 h -458 c -20.9,0.84 -31.3,25.9 -17.61,41.72 32.66,37.75 65.28,73.44 97,106.07 21.77,22.42 43.66,43.12 65.86,63.79 a 10.46,10.46 0 0 0 7.12,2.8 H -0.06 A 40.09,40.09 0 0 0 15.3,244 a 40.09,40.09 0 0 0 13,-8.7 40,40 0 0 0 8.7,-13 40.09,40.09 0 0 0 3.06,-15.36 V 72.81 A 40.28,40.28 0 0 0 37,57.44 a 40,40 0 0 0 -8.71,-13 40.16,40.16 0 0 0 -13,-8.71 40.12,40.12 0 0 0 -15.37,-3.07 z"
       id="path40" />
    <path
       class="spBrdtQwKN"
       d="m 95.24,232.09 c -21.6,11.47 -59.87,20 -99.08,15.73 -1.52,-0.16 -3,-0.35 -4.57,-0.55 a 2,2 0 0 0 -0.48,0 c -5.8,0.56 -12.87,0.73 -20.29,0.74 -32.09,0 -60,-23.05 -65.05,-54.74 a 49.87,49.87 0 0 1 1.89,-25 C -81,136.78 -32.18,96.82 36,93.8 a 62.06,62.06 0 0 1 12.77,0.77 C 76.1,99.05 96.7,107 111.44,117 c 48.9,33.14 33.34,88.79 -16.2,115.09 z"
       id="path42" />
    <path
       class="aHaNYIduKn"
       d="m -10.9,265.14 a 6.46,6.46 0 0 0 0,-4.12 c -1.26,-3.4 -5.3,-4 -5.77,-4.12 a 8.16,8.16 0 0 0 -4.76,0.79 8.1,8.1 0 0 0 -3.48,3.31 c -0.12,0.23 -0.34,1.53 -0.82,4.12 V 266 a 3.44,3.44 0 0 0 -0.83,-0.83 c -2,-1.36 -5,-0.18 -6.59,0.83 a 7.91,7.91 0 0 0 -3.3,4.12 8.17,8.17 0 0 0 0,4.94 10.71,10.71 0 0 0 4.13,5.77 H 4.75 A 11.35,11.35 0 0 1 2.28,278.36 8.92,8.92 0 0 1 0.63,275 c -0.43,-1.91 0.32,-2.35 0,-4.12 a 7.23,7.23 0 0 0 -2.47,-4.12 c -1.59,-1.29 -3.37,-1.44 -5.76,-1.65 a 20.2,20.2 0 0 0 -3.3,0.03 z"
       id="path44" />
    <path
       class="uOzPVTcCRu"
       d="m 13.25,152.49 c -3.93,3.45 -8.3,7.29 -14.63,8.11 -5.46,0.7 -6.65,-1.6 -22.32,-4.36 a 54.27,54.27 0 0 0 -6.72,-0.8 51.44,51.44 0 0 0 -10.88,0.61 c -19.7,2.88 -21.47,2.83 -23.7,1.79 -4.45,-2.06 -8.79,-7 -7.52,-10.49 1.27,-3.49 7.81,-3.91 8.47,-3.95 -3.49,0.14 -13.8,0 -21.5,-7.32 -4.17,-4 -9.11,-11.57 -6.73,-15.62 2.72,-4.62 13.37,-2 14.22,-5.13 0.7,-2.6 -6.49,-4.61 -6.91,-9.5 -0.42,-4.89 6.1,-9.91 11.67,-11.66 9.18,-2.88 17.32,2.67 18.58,3.56 0,-0.32 0.53,-5.1 4.35,-6.92 3.82,-1.82 8.62,0.58 10.67,4 a 8.48,8.48 0 0 1 1.2,3.82 13.27,13.27 0 0 1 3.5,-6.4 c 0.22,-0.22 5.06,-4.9 11.85,-3.75 5.7,1 10.91,5.71 11.47,11.85 a 13.32,13.32 0 0 1 -2.62,8.89 20.26,20.26 0 0 1 7.16,-5.12 c 4.15,-1.75 12.36,-3.53 16.62,0.77"
       id="path46" />
    <rect
       class="fJKgHoonIP"
       x="-297.01999"
       y="542.65002"
       width="470.60001"
       height="92.139999"
       id="rect48" />
    <polygon
       class="RzILTXOtpM"
       points="-308.08,530.31 -293.01,489.22 169.55,489.22 183.73,530.31 "
       id="polygon50" />
    <rect
       class="xnfjGJrmNt"
       x="-311.20001"
       y="530.31"
       width="499.75"
       height="12.34"
       id="rect52" />
    <rect
       class="rwBJxKaDxa"
       x="-173.25"
       y="510.57999"
       width="223.8"
       height="124.21"
       id="rect54" />
    <rect
       class="xnfjGJrmNt"
       x="-293.01001"
       y="481.51001"
       width="462.59"
       height="7.6999998"
       id="rect56" />
    <polygon
       class="VzzPMlOzrh"
       points="55.79,499.91 -135.21,499.91 -178.63,499.91 -165.67,456.88 42.55,456.88 "
       id="polygon58" />
    <rect
       class="xnfjGJrmNt"
       x="-181.91"
       y="499.91"
       width="240.72"
       height="10.59"
       id="rect60" />
    <rect
       class="xnfjGJrmNt"
       x="-165.67"
       y="447.89001"
       width="208.22"
       height="8.9899998"
       id="rect62" />
    <polygon
       class="xnfjGJrmNt"
       points="-59.95,424.19 20.71,510.42 -145.81,510.58 "
       id="polygon64" />
    <polygon
       class="llTxsNrSXW"
       points="-5.2,518.59 6.33,518.59 6.33,552.17 -5.2,552.17 -16.73,552.17 -16.73,518.59 "
       id="polygon66" />
    <polyline
       class="llTxsNrSXW"
       points="-5.2 535.38 -5.2 518.59 -5.2 552.17 6.33 552.17 6.33 541.11 -16.73 541.11 -16.73 528.87 6.33 529.03"
       id="polyline68" />
    <polygon
       class="fJxjhPyArN"
       points="30.09,518.59 41.63,518.59 41.63,552.17 30.09,552.17 18.56,552.17 18.56,518.59 "
       id="polygon70" />
    <polyline
       class="fJxjhPyArN"
       points="30.09 535.38 30.09 518.59 30.09 552.17 41.63 552.17 41.63 541.11 18.56 541.11 18.56 528.87 41.63 529.03"
       id="polyline72" />
    <polygon
       class="fJxjhPyArN"
       points="-5.2,570.01 6.33,570.01 6.33,603.59 -5.2,603.59 -16.73,603.59 -16.73,570.01 "
       id="polygon74" />
    <polyline
       class="fJxjhPyArN"
       points="-5.2 586.8 -5.2 570.01 -5.2 603.59 6.33 603.59 6.33 592.52 -16.73 592.52 -16.73 580.28 6.33 580.45"
       id="polyline76" />
    <polygon
       class="llTxsNrSXW"
       points="30.09,570.01 41.63,570.01 41.63,603.59 30.09,603.59 18.56,603.59 18.56,570.01 "
       id="polygon78" />
    <polyline
       class="llTxsNrSXW"
       points="30.09 586.8 30.09 570.01 30.09 603.59 41.63 603.59 41.63 592.52 18.56 592.52 18.56 580.28 41.63 580.45"
       id="polyline80" />
    <polygon
       class="llTxsNrSXW"
       points="78.66,547.35 89.47,547.35 89.47,578.82 78.66,578.82 67.86,578.82 67.86,547.35 "
       id="polygon82" />
    <polyline
       class="llTxsNrSXW"
       points="78.66 563.09 78.66 547.35 78.66 578.82 89.47 578.82 89.47 568.45 67.86 568.45 67.86 556.98 89.47 557.14"
       id="polyline84" />
    <polygon
       class="fJxjhPyArN"
       points="111.45,547.35 122.26,547.35 122.26,578.82 111.45,578.82 100.65,578.82 100.65,547.35 "
       id="polygon86" />
    <polyline
       class="fJxjhPyArN"
       points="111.45 563.09 111.45 547.35 111.45 578.82 122.26 578.82 122.26 568.45 100.65 568.45 100.65 556.98 122.26 557.14"
       id="polyline88" />
    <polygon
       class="llTxsNrSXW"
       points="144.47,547.35 155.28,547.35 155.28,578.82 144.47,578.82 133.67,578.82 133.67,547.35 "
       id="polygon90" />
    <polyline
       class="llTxsNrSXW"
       points="144.47 563.09 144.47 547.35 144.47 578.82 155.28 578.82 155.28 568.45 133.67 568.45 133.67 556.98 155.28 557.14"
       id="polyline92" />
    <polygon
       class="fJxjhPyArN"
       points="78.55,586.69 89.36,586.69 89.36,618.16 78.55,618.16 67.75,618.16 67.75,586.69 "
       id="polygon94" />
    <polyline
       class="fJxjhPyArN"
       points="78.55 602.43 78.55 586.69 78.55 618.16 89.36 618.16 89.36 607.79 67.75 607.79 67.75 596.32 89.36 596.48"
       id="polyline96" />
    <polygon
       class="llTxsNrSXW"
       points="111.34,586.69 122.15,586.69 122.15,618.16 111.34,618.16 100.54,618.16 100.54,586.69 "
       id="polygon98" />
    <polyline
       class="llTxsNrSXW"
       points="111.34 602.43 111.34 586.69 111.34 618.16 122.15 618.16 122.15 607.79 100.54 607.79 100.54 596.32 122.15 596.48"
       id="polyline100" />
    <polygon
       class="fJxjhPyArN"
       points="144.36,586.69 155.16,586.69 155.16,618.16 144.36,618.16 133.55,618.16 133.55,586.69 "
       id="polygon102" />
    <polyline
       class="fJxjhPyArN"
       points="144.36 602.43 144.36 586.69 144.36 618.16 155.16 618.16 155.16 607.79 133.55 607.79 133.55 596.32 155.16 596.48"
       id="polyline104" />
    <path
       class="spBrdtQwKN"
       d="m 840.38,-521 a 26.34,26.34 0 0 0 -8.55,5.73 26.21,26.21 0 0 0 -5.71,8.57 26.48,26.48 0 0 0 -2,10.1 v 22.81 a 26.35,26.35 0 0 0 7.73,18.62 26.34,26.34 0 0 0 18.62,7.72 h 102.58 a 26.35,26.35 0 0 1 18.65,7.72 26.37,26.37 0 0 1 7.72,18.64 v 400.38 a 26.33,26.33 0 0 0 7.72,18.64 26.37,26.37 0 0 0 18.64,7.72 h 267.84 a 26.35,26.35 0 0 0 18.64,-7.72 26.34,26.34 0 0 0 7.74,-18.64 v -219.41 a 26.42,26.42 0 0 0 -7.73,-18.64 26.36,26.36 0 0 0 -18.64,-7.71 H 1144 a 26.42,26.42 0 0 1 -18.64,-7.73 26.42,26.42 0 0 1 -7.73,-18.64 v -203.78 a 26.34,26.34 0 0 0 -7.71,-18.63 26.36,26.36 0 0 0 -18.64,-7.73 H 850.47 a 26.48,26.48 0 0 0 -10.09,1.98 z m 121.62,2.65 c 17,-0.71 34.17,-1.42 51.29,-1.42 -17.13,0 -34.23,0.77 -51.29,1.42 z"
       id="path106" />
    <path
       class="XkYbKxSGIn"
       d="m 1276.51,-16.43 c -16.29,-9.87 -30,-35.16 -26.43,-55.49 3.08,-17.5 17.44,-22.46 15.27,-32.09 -2.27,-10.12 -20.07,-12.66 -29.42,-12.54 -17.65,0.22 -31.68,10.24 -38.21,15 -18.37,13.45 -20.84,24.93 -30.62,24.1 -11,-1 -12.84,-16 -23.87,-16.23 -8.56,-0.15 -15.31,8.67 -24.16,20.18 -14,18.27 -12.08,26.33 -20.67,31 -14.33,7.86 -29.24,-9.32 -34.5,-2 -3.74,5.2 0.78,17.85 4.7,28.89 2.89,8.1 6.32,18.76 8.8,22.94 66.71,0.89 133.27,-2.68 200,-1.8 10.2,-3.79 21.09,-8.71 20.76,-12.84 -0.33,-4.13 -10.72,-2.51 -21.65,-9.12 z"
       id="path108" />
    <path
       d="m 1139.14,7.77 c 0.21,-6 0.84,-16 1.63,-26 1.35,-16.75 3.21,-21.61 6.42,-25.68 5,-6.42 11.58,-8.47 23.53,-12.11 15.47,-4.72 29,-8.83 34.91,-2.84 6.94,7 -3.92,20 0,32.77 3.48,11.32 18.76,23.13 67.67,27.81 q -6.35,2.41 -12.52,4.62 c -40.53,4.08 -81.1,0.34 -121.64,1.43 z"
       id="path110" />
    <path
       class="uOzPVTcCRu"
       d="m 113.72,192 c -5,4.42 -10.65,9.36 -18.79,10.4 -7,0.9 -8.52,-2 -28.65,-5.6 a 65.23,65.23 0 0 0 -22.6,-0.25 c -25.26,3.71 -27.56,3.64 -30.45,2.3 -5.7,-2.65 -11.29,-9 -9.67,-13.48 1.62,-4.48 10,-5 10.9,-5.06 -4.5,0.18 -17.73,0 -27.62,-9.47 -5.35,-5.11 -11.7,-14.86 -8.63,-20.07 3.5,-5.92 17.18,-2.52 18.26,-6.58 0.9,-3.33 -8.35,-5.92 -8.88,-12.21 -0.53,-6.29 7.89,-12.71 15,-15 11.77,-3.7 22.23,3.44 23.84,4.56 0,-0.4 0.69,-6.52 5.59,-8.87 4.9,-2.35 11,0.74 13.7,5.08 a 11,11 0 0 1 1.58,4.91 17.32,17.32 0 0 1 4.56,-8.23 18.7,18.7 0 0 1 15.22,-4.81 c 7.31,1.25 14,7.34 14.72,15.22 a 17.09,17.09 0 0 1 -3.36,11.41 26.05,26.05 0 0 1 9.18,-6.56 c 5.34,-2.25 15.89,-4.54 21.35,1 6.32,6.43 2.12,19.66 -3,26.84 a 28.72,28.72 0 0 1 -8.16,7.68 22.25,22.25 0 0 1 6.14,-0.56 c 8.62,0.38 19.15,5.75 19.77,13 0.36,5.23 -4.38,9.35 -10,14.35 z"
       id="path112" />
    <path
       class="RDaJUztpjq"
       d="M 60.69,182.79 H 50.39 V 260 h 10.3 z"
       id="path114" />
    <path
       class="uOzPVTcCRu"
       d="m 54.89,190.51 c 11.72,0 21.22,-7.78 21.22,-17.37 0,-9.59 -9.5,-17.37 -21.22,-17.37 -11.72,0 -21.22,7.78 -21.22,17.37 0,9.59 9.5,17.37 21.22,17.37 z"
       id="path116" />
    <path
       class="uOzPVTcCRu"
       d="m 311.32,483.8 c -3.23,2.84 -6.83,6 -12.05,6.68 -4.49,0.57 -5.46,-1.32 -18.37,-3.6 a 42,42 0 0 0 -14.49,-0.16 c -16.2,2.38 -17.68,2.34 -19.53,1.48 -3.66,-1.7 -7.24,-5.79 -6.2,-8.65 1.04,-2.86 6.44,-3.22 7,-3.24 -2.89,0.11 -11.37,0 -17.71,-6.07 -3.43,-3.28 -7.5,-9.53 -5.54,-12.87 2.25,-3.8 11,-1.62 11.71,-4.22 0.58,-2.14 -5.35,-3.8 -5.7,-7.83 -0.35,-4.03 5.07,-8.15 9.62,-9.6 7.56,-2.37 14.26,2.21 15.29,2.93 0,-0.26 0.45,-4.18 3.59,-5.69 3.14,-1.51 7.08,0.47 8.78,3.26 a 7,7 0 0 1 1,3.15 11.14,11.14 0 0 1 2.92,-5.28 12.14,12.14 0 0 1 4.54,-2.64 12,12 0 0 1 5.22,-0.45 c 4.69,0.8 9,4.71 9.44,9.76 a 10.92,10.92 0 0 1 -2.16,7.32 16.93,16.93 0 0 1 5.9,-4.21 c 3.42,-1.44 10.18,-2.9 13.69,0.64 4.05,4.12 1.35,12.6 -2,17.21 a 18.44,18.44 0 0 1 -5.23,4.92 14.09,14.09 0 0 1 3.94,-0.35 c 5.52,0.24 12.28,3.68 12.67,8.3 0.35,3.41 -2.72,6.05 -6.33,9.21 z"
       id="path118" />
    <path
       class="RDaJUztpjq"
       d="m 277.31,477.91 h -6.6 v 49.48 h 6.6 z"
       id="path120" />
    <path
       class="uOzPVTcCRu"
       d="m 273.6,482.86 c 7.51,0 13.61,-5 13.61,-11.13 0,-6.13 -6.1,-11.14 -13.61,-11.14 -7.51,0 -13.61,5 -13.61,11.14 0,6.14 6.09,11.13 13.61,11.13 z"
       id="path122" />
  </g>
  <g
     id="Layer_2"
     data-name="Layer 2">
    <path
       class="luRkJdynSX"
       d="M 370.59,114.42 A 76.39,76.39 0 0 0 361,126 l -26.63,-4.7 c 13.61,-20.54 -6.49,-45.72 -27.84,-33.49 a 21.41,21.41 0 0 0 -6.9,7.32 122,122 0 0 0 -60.16,-4.25 c 0.17,-4.91 0.17,-9.81 0.17,-14.68 20.61,-6.89 65.06,-31.37 74.28,-77.2 l 8.6,24.49 c 71.07,-34.29 136.1,8.56 120.87,83.37 a 73.79,73.79 0 0 1 -5.63,14.47 C 422.53,98.6 399.05,85 370.59,114.42 Z"
       id="path125" />
    <path
       class="luRkJdynSX"
       d="m 361.74,35.37 -41.44,116 c 51,14.43 98.39,1.35 98.15,-41.44 C 418.93,83.68 401.18,62.16 387.37,53.36 356.08,33.19 303.83,44.14 270.81,87.51 315.12,103.3 319.61,150 292,174.16 h 24.18 c 12.81,-13.12 30.73,-43.34 21.93,-76 23.1,-14.12 47.62,-21.3 58.15,-12.26 12.89,11.06 7.26,48.28 -22.93,88.24 h 28.91 a 191.23,191.23 0 0 0 41,-67.13 z"
       id="path127" />
    <path
       class="aHaNYIduKn"
       d="m 305.14,74.15 a 12.43,12.43 0 0 1 -5.31,-1.35 16.49,16.49 0 0 1 -3.46,-2.52 10.06,10.06 0 0 1 -2.66,-4.42 12.27,12.27 0 0 1 4.53,-13.4 c 6.94,-4.9 19,-0.28 20.51,6.91 1.38,6.46 -5.66,14.85 -13.61,14.78 z"
       id="path129" />
    <path
       class="iRYqHPcfRS"
       d="M 305.73,73.73 H 304 a 14.21,14.21 0 0 1 -4.81,-1.38 9,9 0 0 1 -3.1,-2.35 8.59,8.59 0 0 1 -0.93,-1.07 l -0.41,-0.58 c -3.63,-4.36 -1.83,-10.3 1.27,-14.44 a 14,14 0 0 1 6,2.31 14.1,14.1 0 0 1 5,17.34 8.62,8.62 0 0 1 -1.29,0.17 z"
       id="path131" />
    <path
       class="AydpBKjGXd"
       d="m 433.82,53.5 c -2.62,-0.56 -3.83,3.42 -1.17,4 a 22,22 0 0 0 11.33,0.55 10.09,10.09 0 0 0 6.59,-6 8.79,8.79 0 0 0 -2,-8.32 c -0.8,-1 -2,-2.38 -2.42,-3 -0.42,-0.62 -1.66,-2.07 -1.35,-2.83 l -0.55,0.89 c 0.31,-0.38 -0.34,0 0,0 l 0.83,-0.2 2,-0.56 3.66,-1 7.7,-2.11 c 2.45,-0.59 1.59,-4.76 -1,-4 l -13,3.45 c -1.63,0.45 -3.46,0.87 -4,2.73 a 6.43,6.43 0 0 0 1,4.46 c 1.28,2.35 3.59,4.07 4.73,6.53 a 4.33,4.33 0 0 1 0.3,1.67 4.14,4.14 0 0 1 -0.37,1.66 4.3,4.3 0 0 1 -2.42,2.29 14.71,14.71 0 0 1 -10.05,0 z"
       id="path133" />
    <path
       class="mIntIJpUCV"
       d="m 552.18,589.27 c 0.31,0.64 1.49,3 9.86,4.64 a 56.29,56.29 0 0 0 10.44,1.16 c 10.75,0 13.11,-2.58 19.14,-0.58 a 13.59,13.59 0 0 1 7.23,4.92 c 1,1.5 1.39,2.76 2,9 a 75.83,75.83 0 0 1 0,18.56 8.63,8.63 0 0 1 -2,5.24 c -1.76,1.77 -3.34,1.15 -4.92,2.89 a 6.9,6.9 0 0 0 -1.16,7 8.07,8.07 0 0 0 2.05,2.52 8.32,8.32 0 0 0 2.87,1.54 16.89,16.89 0 0 0 11.31,0.28 c 1.67,-1.64 4,-4 6.67,-7 6.25,-6.91 6.75,-8.64 7,-9.58 0.67,-3.18 -0.83,-3.49 -1.74,-11 -1,-8.09 0.46,-10.45 1.16,-11.3 1.31,-1.7 3.69,-3.28 4.92,-2.61 1.23,0.67 0.47,3.82 0,11 -0.43,6.76 -0.62,10.21 0.59,13.92 a 21.56,21.56 0 0 0 5.8,8.95 c 3.09,3 6.52,6.39 10.72,5.52 a 9.2,9.2 0 0 0 7,-8.7 c -0.21,-3.13 -2.88,-3.35 -4.35,-7.54 -1.75,-4.91 0.13,-9.72 0.86,-11.6 1,-2.55 2.69,-6.87 7.25,-9 a 13.26,13.26 0 0 1 9,-0.58 13.61,13.61 0 0 1 5.1,2.55 13.42,13.42 0 0 1 3.61,4.42 c 1.81,4 0.75,7.73 0,10.44 -0.59,2.09 -1.94,6.91 -6.08,9.88 -2,1.49 -3.6,1.65 -4.36,3.47 a 5.6,5.6 0 0 0 0.87,5.51 c 2.7,3 9.22,1 14.21,-0.57 5.52,-1.74 11.33,-3.55 12.46,-7.83 0.73,-2.7 -1.16,-3.52 -1.49,-7.83 -0.43,-6.63 3.43,-13.43 6.08,-13.34 1.26,0 2.05,1.7 3.48,4.64 1.85,3.79 4,8.14 2.33,11.93 -1.24,2.85 -3.31,2.3 -5.81,6.39 -1.08,1.77 -2.65,4.35 -1.73,6.37 1.14,2.52 5.51,2.74 8.7,2.91 a 19,19 0 0 0 7,-0.87 12.73,12.73 0 0 0 5.22,-2.89 c 6.75,-10.94 12.71,-23.87 4.11,-35.7 -0.17,-1.58 0.46,-4 1.73,-8.7 1.56,-5.79 2.31,-7.59 3,-9.86 a 35.63,35.63 0 0 0 0,-16.24 A 41.89,41.89 0 0 0 711,550.4 42.93,42.93 0 0 0 686.36,538.79 c -1.49,-0.19 -8.7,0.36 -23.2,1.49 -9.71,0.73 -12.59,1.06 -16.53,2.61 A 92.39,92.39 0 0 0 634.25,549 c -4.38,2.58 -5.4,3.66 -8.11,4.06 -0.9,0.13 -2.37,0.25 -10.44,-1.75 -6.63,-1.64 -7.09,-2.07 -9.28,-2 a 20.66,20.66 0 0 0 -8.95,2.61 c -6.12,3 -6.31,5.66 -10.73,6.37 a 23.29,23.29 0 0 1 -7,-0.28 c -4.25,-0.61 -5.61,-1.62 -6.95,-0.86 -1.34,0.76 -2.27,2.77 -1.49,8.95 a 8.31,8.31 0 0 0 -6.09,1.49 c -0.65,0.51 -1.22,1.15 -3.47,5.22 -1,1.76 -1.76,3.27 -2.33,4.36 a 11.06,11.06 0 0 0 -7,6.08 7.67,7.67 0 0 0 -0.31,6.06 z"
       id="path135" />
    <path
       class="aHaNYIduKn"
       d="m 579.46,575.87 c -0.42,-2.29 -4.22,-3.88 -6.48,-2.41 a 3.81,3.81 0 0 0 -1.58,4.19 3.16,3.16 0 0 0 0.81,1.49 5.83,5.83 0 0 0 1.07,0.84 4.15,4.15 0 0 0 1.69,0.47 4.29,4.29 0 0 0 3.24,-1.31 4.35,4.35 0 0 0 1,-1.5 4.45,4.45 0 0 0 0.25,-1.77 z"
       id="path137" />
    <path
       class="jKmLJWxisb"
       d="m 575.6,580.26 a 3.77,3.77 0 0 0 0.53,-2 3.71,3.71 0 0 0 -0.62,-2 3.84,3.84 0 0 0 -1.31,-1.62 3.88,3.88 0 0 0 -2,-0.71 3.7,3.7 0 0 0 -1.07,2.19 3.66,3.66 0 0 0 0.54,2.37 0.83,0.83 0 0 0 0.13,0.18 c 0.09,0.18 0.18,0.21 0.3,0.36 a 3.08,3.08 0 0 0 1,0.78 5,5 0 0 0 1.5,0.49 h 0.53 a 1.63,1.63 0 0 0 0.47,-0.04 z"
       id="path139" />
    <path
       class="RzILTXOtpM"
       d="M 1051.1,341.6 V 639.06 H 964.64 V 341.6 a 43.23,43.23 0 1 1 86.46,0 z"
       id="path141" />
    <rect
       class="VzzPMlOzrh"
       x="1007.87"
       y="474.23999"
       width="259.60001"
       height="164.82001"
       id="rect143" />
    <polygon
       class="VzzPMlOzrh"
       points="1016.15,469.06 1072.15,373.7 1137.67,353.09 1201.54,373.7 1258.4,469.06 "
       id="polygon145" />
    <rect
       class="aHaNYIduKn"
       x="1007.87"
       y="461.04999"
       width="262.89001"
       height="13.19"
       id="rect147" />
    <polygon
       class="xnfjGJrmNt"
       points="1210.27,359.16 1296.37,503.2 1288.21,515.85 1201.54,373.7 1137.67,353.09 1072.15,373.7 989.91,515.85 978.49,505.65 1064.18,359.97 1135.18,336.31 "
       id="polygon149" />
    <rect
       class="aHaNYIduKn"
       x="1100.52"
       y="382.38"
       width="76.290001"
       height="68.889999"
       id="rect151" />
    <polygon
       class="VzzPMlOzrh"
       points="1110.98,397.44 1164.06,397.44 1110.98,433.67 "
       id="polygon153" />
    <polygon
       class="VzzPMlOzrh"
       points="1167.37,403.56 1167.37,435.71 1123.49,435.71 "
       id="polygon155" />
    <rect
       class="aHaNYIduKn"
       x="1047.87"
       y="482.76999"
       width="181.45"
       height="156.3"
       id="rect157" />
    <polygon
       class="VzzPMlOzrh"
       points="1137.67,552.95 1197.68,499.13 1077.69,499.13 "
       id="polygon159" />
    <polygon
       class="VzzPMlOzrh"
       points="1137.26,574.99 1197.28,628.81 1077.28,628.81 "
       id="polygon161" />
    <polygon
       class="VzzPMlOzrh"
       points="1062.41,508.22 1125.32,564.22 1062.41,617.31 "
       id="polygon163" />
    <polygon
       class="VzzPMlOzrh"
       points="1215.45,508.22 1152.55,564.22 1215.45,617.31 "
       id="polygon165" />
  </g>
  <g
     id="Layer_3"
     data-name="Layer 3">
    <path
       class="DvZGornfXn"
       d="m 201.81,265.79 c -7.81,1 -12.67,0.7 -18.59,0.74 -11.87,0.07 -17.8,0.11 -22.26,1.71 -9.7,3.49 -15.5,11.28 -23.48,22 a 64.09,64.09 0 0 0 -7.58,12.23 c -3.24,7 -2.29,8.59 -5.38,14.43 a 55.18,55.18 0 0 1 -10.28,13.21 c -5.69,5.74 -7.78,5.93 -10,10.27 -0.93,1.8 -3.23,6.26 -1.95,11.74 a 16.45,16.45 0 0 0 7.58,10 10.74,10.74 0 0 1 2.69,-4.64 c 2.44,-2.42 5.14,-2.48 8.32,-3.43 a 25.07,25.07 0 0 0 12,-7.83 c 3.46,-4.37 3.71,-9.46 3.92,-13.7 0.47,-9.53 -3.13,-13.11 -0.74,-18.34 1.63,-3.57 5,-5.54 7.34,-6.61 a 31.92,31.92 0 0 1 1,7.34 22.83,22.83 0 0 1 -1.22,9.05 c -1.24,3.28 -3.22,3.32 -4.75,7.19 a 19,19 0 0 0 -1.11,4.38 c -0.49,3 -0.33,5.27 0,9.75 0.39,5.28 0.64,3.63 1.27,10 0.32,3.29 0.33,4.49 1.38,5.53 1.05,1.04 2.8,1.18 6.22,1.38 4.39,0.26 5.85,-0.6 6.34,-0.92 0.76,-0.51 1.69,-1 1.84,-1.85 0.3,-1.74 -2.58,-3.61 -4.38,-4.37 a 10.22,10.22 0 0 0 -3.8,-0.81 28.57,28.57 0 0 1 -0.92,-9.1 c 0.14,-2.33 0.23,-3.76 1,-5.3 1.58,-3 4.25,-3.28 8.87,-5.88 3.79,-2.13 6.15,-4.3 10.13,-7.94 a 73.23,73.23 0 0 0 7.61,-8.07 c 0,0 -2.47,2.78 -13.78,15.65 a 8.86,8.86 0 0 0 -0.27,2.27 9.42,9.42 0 0 0 0.8,3.6 c 0.8,1.94 1.74,4.81 3.6,10.54 1.59,4.87 1.48,6 2.94,7.08 1.46,1.08 2.88,1.16 5.61,1.33 3.61,0.23 6.83,0.43 8.27,-1.6 1.24,-1.75 0.52,-4.27 0.13,-5.34 a 36.54,36.54 0 0 0 -4.13,-0.8 c -1,-0.14 -2,-0.22 -2.94,-0.27 a 28.68,28.68 0 0 1 -2.54,-5.2 c -1,-2.75 -1.83,-5.12 -1.2,-7.88 a 10.58,10.58 0 0 1 1.34,-3.06 c 2.7,-4.43 6.34,-5.09 10.27,-8.55 a 23.12,23.12 0 0 0 5.21,-6.67 c 2.21,0.21 4.44,0.44 6.67,0.67 3.28,0.34 6.53,0.69 9.74,1.07 -0.44,5.57 -0.73,10.29 -0.93,13.88 -0.49,9 0.13,1.88 -0.13,15.08 -0.11,5.21 -0.23,7.79 1.6,9.34 1,0.85 2.76,1 6.27,1.33 4.2,0.39 6.31,0.56 7.21,-0.53 1.11,-1.36 0.83,-4.1 -0.8,-5.74 a 5,5 0 0 0 -4.94,-1.2 c 0.09,-1.41 0.24,-3.5 0.53,-6 0.67,-5.64 1.16,-9.82 2.94,-14.41 a 36,36 0 0 1 5.2,-9.08 37.11,37.11 0 0 0 -1.6,7.08 c -0.17,1.4 -0.57,5.36 0.94,14.15 a 114.22,114.22 0 0 0 3.2,13.61 l 14.81,-0.14 a 5.26,5.26 0 0 0 0,-3.06 c -0.83,-2.65 -4,-4.52 -7.87,-4.54 -0.07,-1 -0.14,-2.5 -0.13,-4.27 0,-5 0.64,-7.35 1.87,-14.95 1.57,-9.8 1.71,-13.23 4.27,-15.88 l 2.67,-2.67 4.67,-4.67 c 4.12,-4.12 6.72,-6.32 8,-7.61 2.81,-2.82 5.87,-7.86 6.68,-17.62 a 6.45,6.45 0 0 1 1.6,-2.27 7,7 0 0 1 2.67,-1.46 9.69,9.69 0 0 1 3.87,-0.14 c 3.32,0.27 3.46,0.62 4.94,0.54 a 10.63,10.63 0 0 0 4.4,-1.34 13,13 0 0 0 4.94,-4.54 c -2.07,-2.16 -3.76,-3.94 -4.94,-5.2 -2.47,-2.63 -5.47,-5.87 -5.47,-5.87 a 12.72,12.72 0 0 0 0,-4.81 c -0.45,-2.26 -1.4,-3.67 -3.07,-6.14 a 32.36,32.36 0 0 0 -6.81,-7.34 c -0.65,-0.51 -1.2,-0.9 -1.58,-1.17 a 14.34,14.34 0 0 0 0.37,-2.34 16.1,16.1 0 0 0 -2,-8.81 13.78,13.78 0 0 0 -5.8,3.63 14,14 0 0 0 -3.18,5.37 17.55,17.55 0 0 0 -5.73,0.13 18.83,18.83 0 0 0 -7.4,3.33 c -3.53,2.42 -5.17,4.42 -8.75,8.14 -5.6,5.81 -8.4,8.71 -11.23,10.23 -3.34,1.82 -6.3,2.23 -12.08,2.96 z"
       id="path168" />
    <path
       class="aHaNYIduKn"
       d="m 251.22,259.5 c 0.3,-3.49 5.66,-6.37 9.23,-4.5 a 5.76,5.76 0 0 1 2.89,6 5.11,5.11 0 0 1 -1,2.26 7.47,7.47 0 0 1 -1.49,1.37 6,6 0 0 1 -2.41,1 c -3.71,0.56 -7.44,-3.02 -7.22,-6.13 z"
       id="path170" />
    <path
       class="jKmLJWxisb"
       d="m 257.55,265.48 c -1.15,-1.19 -1.42,-3.62 -0.43,-6 0.99,-2.38 2.81,-3.85 4.48,-3.89 1.69,1.79 2.89,4.46 1.43,6.71 l -0.16,0.29 a 4.24,4.24 0 0 1 -0.38,0.56 4.17,4.17 0 0 1 -1.33,1.28 7,7 0 0 1 -2.17,0.93 c -0.23,0.05 -0.57,0.05 -0.78,0.11 a 2.43,2.43 0 0 1 -0.66,0.01 z"
       id="path172" />
    <path
       class="fthTCcuWVC button"
       d="m 604.37,337.89 c -2.43,-1.24 -4.08,-5.46 -4.5,-6.54 a 17.94,17.94 0 0 1 -1.22,-6.54 c 0.63,-0.63 1.54,-1.51 2.64,-2.54 0,0 3.46,-3.24 7.34,-6.45 10,-8.25 41,-29.41 62.7,-45.58 5.26,-3.93 10.69,-8.11 19.34,-11.56 8.65,-3.45 19.71,-4.58 24.67,-5 0.11,-1.3 -2.19,-3.79 -2,-6.26 0.32,-4.63 0.47,-4.91 0.89,-5.68 1.73,-3.87 6.12,-6.24 9.23,-5.75 2.95,0.46 6,1.61 6.81,5.08 0.66,3 1.32,6.72 -1.48,10.39 a 43.43,43.43 0 0 1 5.76,-3.5 c 7.8,-4 14.15,-4.29 33.36,-4.66 20.28,-0.4 24.76,-0.27 30.17,0.24 a 127.9,127.9 0 0 1 17.17,2.95 36.71,36.71 0 0 1 8.59,2.69 35.87,35.87 0 0 1 8.34,5.65 c 6.85,6.06 6.47,9.61 11.53,12.51 2.43,1.39 4.92,1.94 9.56,2.2 13.56,0.78 25.27,-2 31.15,-3.43 17.48,-4.17 26.24,-6.26 27.23,-6.38 7.47,-0.88 19.78,-2.21 34.1,2.46 a 69.41,69.41 0 0 1 24,13.73 53.8,53.8 0 0 1 -4.91,5.4 c -22.4,21.52 -57.69,18 -72.36,15.7 a 8.57,8.57 0 0 0 2,3.92 c 3.43,3.84 9.16,2.78 9.57,2.7 a 61.33,61.33 0 0 1 -11,7.6 c -17.27,9.27 -34.69,7.73 -42.93,6.38 L 836.82,313 c 0.22,5.45 0.61,11.18 1.22,17.17 0.48,4.69 1.07,9.19 1.72,13.49 l -9.32,4.66 q -0.86,-6 -1.72,-12 l -4.41,-23.79 q -2.46,19.62 -4.91,39.25 H 802 l 1.71,-47.1 a 13.3,13.3 0 0 0 -1.22,-5.64 14.68,14.68 0 0 0 -8.59,-7.36 45,45 0 0 0 -26.25,-0.49 43.48,43.48 0 0 0 -13.73,6.87 c 0.94,11.88 3.41,19.57 5.64,24.53 a 38.18,38.18 0 0 1 3.91,17.41 c 0,1.34 -0.15,2.45 -0.24,3.19 l -12,1.72 q -0.76,-6.15 -2,-12.76 a 227.09,227.09 0 0 0 -6.38,-26 q -0.6,7.25 -1.23,14.47 -1.27,14.73 -2.7,29.44 H 720.3 c 0.26,-5.19 0.51,-11 0.74,-17.42 0.51,-14.43 0.77,-22.14 0.49,-32.13 -0.15,-5.26 -0.45,-11.09 -1,-17.41 a 16.59,16.59 0 0 0 -6.13,-5.16 c -6.22,-2.95 -12.71,-0.81 -17.18,0.74 A 45.23,45.23 0 0 0 684,286 c -9.47,7.29 -19.82,13.36 -29.68,20.11 -21.64,14.83 -18.63,10.69 -28,18.15 -9.88,7.96 -17.41,15.95 -21.95,13.63 z"
       id="animal3"
       onmouseover="hover('hover3', 1)"
       onmouseout="hover('hover3', 0)"
       onclick="food()" />
    <path
       class="aHaNYIduKn"
       d="m 717,263.07 c -0.35,-4.09 -6.64,-7.47 -10.83,-5.27 a 6.74,6.74 0 0 0 -3.39,7 6,6 0 0 0 1.16,2.66 8.12,8.12 0 0 0 1.75,1.61 6.9,6.9 0 0 0 2.83,1.12 c 4.33,0.74 8.77,-3.46 8.48,-7.12 z"
       id="path176" />
    <path
       class="jKmLJWxisb"
       d="m 709.55,270.1 c 1.34,-1.4 1.67,-4.25 0.5,-7 -1.17,-2.75 -3.3,-4.53 -5.26,-4.57 -2,2.1 -3.4,5.23 -1.68,7.88 0,0 0.16,0.29 0.19,0.33 a 4.36,4.36 0 0 0 0.45,0.67 4.86,4.86 0 0 0 1.56,1.5 8.17,8.17 0 0 0 2.54,1.09 c 0.28,0 0.68,0.06 0.92,0.12 a 2.55,2.55 0 0 0 0.78,-0.02 z"
       id="path178" />
    <line
       class="DvZGornfXn"
       x1="590.22998"
       y1="425.17999"
       x2="594.07001"
       y2="424.59"
       id="line186" />
    <line
       class="DvZGornfXn"
       x1="592.09998"
       y1="428.51999"
       x2="594.09998"
       y2="425.70999"
       id="line190" />
    <line
       class="DvZGornfXn"
       x1="590.46002"
       y1="421.03"
       x2="583.21997"
       y2="421.57999"
       id="line194" />
    <line
       class="DvZGornfXn"
       x1="591.12"
       y1="420.06"
       x2="585.59998"
       y2="414.38"
       id="line198" />
    <line
       class="DvZGornfXn"
       x1="593.32001"
       y1="416.20999"
       x2="595.84998"
       y2="419.14999"
       id="line202" />
    <line
       class="DvZGornfXn"
       x1="596.91998"
       y1="414.89001"
       x2="596.60999"
       y2="418.32001"
       id="line206" />
    <g
       id="g340">
      <g
         id="g294">
        <g
           id="g296">
          <g
             id="insect8"
             style="visibility: visible">
            <ellipse
               class="DvZGornfXn"
               cx="601.96997"
               cy="424.48999"
               rx="3.3699999"
               ry="5.8099999"
               transform="rotate(-69.69,601.98732,424.4891)"
               id="ellipse180" />
            <circle
               class="DvZGornfXn"
               cx="595.94"
               cy="422.25"
               r="4.1700001"
               id="circle182" />
            <circle
               class="DvZGornfXn"
               cx="591.40997"
               cy="420.57999"
               r="2.6099999"
               id="circle184" />
            <path
               class="DvZGornfXn"
               d="m 590.23,425.18 a 4.7,4.7 0 0 1 1.86,-0.67 4.76,4.76 0 0 1 2,0.08 4.62,4.62 0 0 1 -1.87,0.66 4.7,4.7 0 0 1 -1.99,-0.07 z"
               id="path188" />
            <path
               class="DvZGornfXn"
               d="m 592.1,428.52 a 3.87,3.87 0 0 1 0.69,-1.62 3.78,3.78 0 0 1 1.31,-1.19 3.87,3.87 0 0 1 -0.7,1.63 3.71,3.71 0 0 1 -1.3,1.18 z"
               id="path192" />
            <path
               class="DvZGornfXn"
               d="m 590.46,421 a 17.71,17.71 0 0 1 -7.24,0.55 16,16 0 0 1 3.6,-0.65 16.48,16.48 0 0 1 3.64,0.1 z"
               id="path196" />
            <path
               class="DvZGornfXn"
               d="m 591.12,420.06 a 18.78,18.78 0 0 1 -3,-2.58 18.29,18.29 0 0 1 -2.49,-3.1 21.11,21.11 0 0 1 5.52,5.68 z"
               id="path200" />
            <path
               class="DvZGornfXn"
               d="m 593.32,416.21 a 4.62,4.62 0 0 1 1.55,1.23 4.46,4.46 0 0 1 1,1.71 5.23,5.23 0 0 1 -2.53,-2.94 z"
               id="path204" />
            <path
               class="DvZGornfXn"
               d="m 596.92,414.89 a 4.12,4.12 0 0 1 -0.31,3.43 3.83,3.83 0 0 1 -0.22,-1.75 3.93,3.93 0 0 1 0.53,-1.68 z"
               id="path208" />
          </g>
        </g>
      </g>
    </g>
    <line
       class="DvZGornfXn"
       x1="673.56"
       y1="464.17001"
       x2="677.40002"
       y2="463.57999"
       id="line216" />
    <line
       class="DvZGornfXn"
       x1="675.44"
       y1="467.51001"
       x2="677.42999"
       y2="464.70001"
       id="line220" />
    <line
       class="DvZGornfXn"
       x1="673.79999"
       y1="460.01999"
       x2="666.56"
       y2="460.57001"
       id="line224" />
    <line
       class="DvZGornfXn"
       x1="674.46002"
       y1="459.04999"
       x2="668.92999"
       y2="453.37"
       id="line228" />
    <line
       class="DvZGornfXn"
       x1="676.65997"
       y1="455.20001"
       x2="679.19"
       y2="458.14001"
       id="line232" />
    <line
       class="DvZGornfXn"
       x1="680.26001"
       y1="453.88"
       x2="679.95001"
       y2="457.31"
       id="line236" />
    <g
       id="insect6"
       style="display:inline; visibility: visible">
      <ellipse
         class="DvZGornfXn"
         cx="685.31"
         cy="463.48001"
         rx="3.3699999"
         ry="5.8099999"
         transform="rotate(-69.69,685.32517,463.4742)"
         id="ellipse210" />
      <circle
         class="DvZGornfXn"
         cx="679.27002"
         cy="461.23999"
         r="4.1700001"
         id="circle212" />
      <circle
         class="DvZGornfXn"
         cx="674.73999"
         cy="459.57001"
         r="2.6099999"
         id="circle214" />
      <path
         class="DvZGornfXn"
         d="m 673.56,464.17 a 4.8,4.8 0 0 1 1.87,-0.67 4.55,4.55 0 0 1 2,0.08 4.68,4.68 0 0 1 -1.86,0.66 4.76,4.76 0 0 1 -2.01,-0.07 z"
         id="path218" />
      <path
         class="DvZGornfXn"
         d="m 675.44,467.51 a 4.16,4.16 0 0 1 2,-2.81 4.16,4.16 0 0 1 -2,2.81 z"
         id="path222" />
      <path
         class="DvZGornfXn"
         d="m 673.8,460 a 15.32,15.32 0 0 1 -3.59,0.65 16,16 0 0 1 -3.65,-0.1 15.5,15.5 0 0 1 3.59,-0.65 16,16 0 0 1 3.65,0.1 z"
         id="path226" />
      <path
         class="DvZGornfXn"
         d="m 674.46,459.05 a 18,18 0 0 1 -3,-2.58 18.35,18.35 0 0 1 -2.5,-3.1 18,18 0 0 1 3,2.58 18.85,18.85 0 0 1 2.5,3.1 z"
         id="path230" />
      <path
         class="DvZGornfXn"
         d="m 676.66,455.2 a 4.6,4.6 0 0 1 1.55,1.22 4.71,4.71 0 0 1 1,1.72 4.72,4.72 0 0 1 -1.55,-1.23 4.81,4.81 0 0 1 -1,-1.71 z"
         id="path234" />
      <path
         class="DvZGornfXn"
         d="m 680.26,453.88 a 3.8,3.8 0 0 1 0.22,1.75 4,4 0 0 1 -0.53,1.68 3.7,3.7 0 0 1 -0.22,-1.75 3.93,3.93 0 0 1 0.53,-1.68 z"
         id="path238" />
    </g>
    <line
       class="DvZGornfXn"
       x1="482.57999"
       y1="426.92001"
       x2="486.42001"
       y2="426.32999"
       id="line246" />
    <line
       class="DvZGornfXn"
       x1="484.45001"
       y1="430.26001"
       x2="486.45001"
       y2="427.45001"
       id="line250" />
    <line
       class="DvZGornfXn"
       x1="482.82001"
       y1="422.76999"
       x2="475.57999"
       y2="423.32001"
       id="line254" />
    <line
       class="DvZGornfXn"
       x1="483.47"
       y1="421.79999"
       x2="477.95001"
       y2="416.12"
       id="line258" />
    <line
       class="DvZGornfXn"
       x1="485.67999"
       y1="417.95001"
       x2="488.20999"
       y2="420.89001"
       id="line262" />
    <line
       class="DvZGornfXn"
       x1="489.28"
       y1="416.62"
       x2="488.95999"
       y2="420.06"
       id="line266" />
    <g
       id="insect2"
       style="display:inline; visibility: visible">
      <ellipse
         class="DvZGornfXn"
         cx="494.32001"
         cy="426.23001"
         rx="3.3699999"
         ry="5.8099999"
         transform="rotate(-69.69,494.34145,426.22496)"
         id="ellipse240" />
      <circle
         class="DvZGornfXn"
         cx="488.29001"
         cy="423.98999"
         r="4.1700001"
         id="circle242" />
      <circle
         class="DvZGornfXn"
         cx="483.76001"
         cy="422.32001"
         r="2.6099999"
         id="circle244" />
      <path
         class="DvZGornfXn"
         d="m 482.58,426.92 a 4.7,4.7 0 0 1 1.86,-0.67 4.6,4.6 0 0 1 2,0.08 4.78,4.78 0 0 1 -1.87,0.66 4.7,4.7 0 0 1 -1.99,-0.07 z"
         id="path248" />
      <path
         class="DvZGornfXn"
         d="m 484.45,430.26 a 3.82,3.82 0 0 1 0.69,-1.62 3.87,3.87 0 0 1 1.31,-1.19 3.76,3.76 0 0 1 -0.69,1.62 3.68,3.68 0 0 1 -1.31,1.19 z"
         id="path252" />
      <path
         class="DvZGornfXn"
         d="m 482.82,422.77 a 15.49,15.49 0 0 1 -3.6,0.65 15.89,15.89 0 0 1 -3.64,-0.1 15.32,15.32 0 0 1 3.59,-0.65 16,16 0 0 1 3.65,0.1 z"
         id="path256" />
      <path
         class="DvZGornfXn"
         d="m 483.47,421.8 a 21.11,21.11 0 0 1 -5.52,-5.68 21.11,21.11 0 0 1 5.52,5.68 z"
         id="path260" />
      <path
         class="DvZGornfXn"
         d="m 485.68,418 a 4.8,4.8 0 0 1 1.55,1.22 4.86,4.86 0 0 1 1,1.72 4.62,4.62 0 0 1 -1.55,-1.23 4.53,4.53 0 0 1 -1,-1.71 z"
         id="path264" />
      <path
         class="DvZGornfXn"
         d="m 489.28,416.62 a 3.85,3.85 0 0 1 0.21,1.76 3.71,3.71 0 0 1 -0.53,1.68 3.69,3.69 0 0 1 -0.21,-1.75 3.75,3.75 0 0 1 0.53,-1.69 z"
         id="path268" />
    </g>
    <line
       class="DvZGornfXn"
       x1="465.20001"
       y1="370.79999"
       x2="469.04001"
       y2="370.20999"
       id="line276" />
    <line
       class="DvZGornfXn"
       x1="467.07001"
       y1="374.14001"
       x2="469.07001"
       y2="371.32999"
       id="line280" />
    <line
       class="DvZGornfXn"
       x1="465.42999"
       y1="366.64999"
       x2="458.20001"
       y2="367.20001"
       id="line284" />
    <line
       class="DvZGornfXn"
       x1="466.09"
       y1="365.67999"
       x2="460.57001"
       y2="360"
       id="line288" />
    <line
       class="DvZGornfXn"
       x1="468.29001"
       y1="361.82999"
       x2="470.82999"
       y2="364.76999"
       id="line292" />
    <line
       class="DvZGornfXn"
       x1="471.89999"
       y1="360.51001"
       x2="471.57999"
       y2="363.94"
       id="line296" />
    <g
       id="insect1"
       style="display:inline; visibility: visible">
      <ellipse
         class="DvZGornfXn"
         cx="476.94"
         cy="370.10999"
         rx="3.3699999"
         ry="5.8099999"
         transform="rotate(-69.69,476.95987,370.10761)"
         id="ellipse270" />
      <circle
         class="DvZGornfXn"
         cx="470.91"
         cy="367.87"
         r="4.1700001"
         id="circle272" />
      <circle
         class="DvZGornfXn"
         cx="466.38"
         cy="366.20001"
         r="2.6099999"
         id="circle274" />
      <path
         class="DvZGornfXn"
         d="m 465.2,370.8 a 4.7,4.7 0 0 1 1.86,-0.67 4.76,4.76 0 0 1 2,0.08 4.62,4.62 0 0 1 -1.87,0.66 4.7,4.7 0 0 1 -1.99,-0.07 z"
         id="path278" />
      <path
         class="DvZGornfXn"
         d="m 467.07,374.14 a 4.13,4.13 0 0 1 2,-2.81 4.21,4.21 0 0 1 -2,2.81 z"
         id="path282" />
      <path
         class="DvZGornfXn"
         d="m 465.43,366.65 a 17.67,17.67 0 0 1 -7.23,0.55 17.67,17.67 0 0 1 7.23,-0.55 z"
         id="path286" />
      <path
         class="DvZGornfXn"
         d="m 466.09,365.68 a 18.78,18.78 0 0 1 -3,-2.58 18.29,18.29 0 0 1 -2.49,-3.1 21.11,21.11 0 0 1 5.52,5.68 z"
         id="path290" />
      <path
         class="DvZGornfXn"
         d="m 468.29,361.83 a 5.3,5.3 0 0 1 2.54,2.94 5.3,5.3 0 0 1 -2.54,-2.94 z"
         id="path294" />
      <path
         class="DvZGornfXn"
         d="m 471.9,360.51 a 3.81,3.81 0 0 1 0.21,1.75 3.67,3.67 0 0 1 -0.53,1.68 4.08,4.08 0 0 1 0.32,-3.43 z"
         id="path298" />
    </g>
    <line
       class="DvZGornfXn"
       x1="591.60999"
       y1="485.04001"
       x2="595.45001"
       y2="484.45001"
       id="line306" />
    <line
       class="DvZGornfXn"
       x1="593.47998"
       y1="488.38"
       x2="595.47998"
       y2="485.57001"
       id="line310" />
    <line
       class="DvZGornfXn"
       x1="591.84998"
       y1="480.89001"
       x2="584.60999"
       y2="481.44"
       id="line314" />
    <line
       class="DvZGornfXn"
       x1="592.5"
       y1="479.92001"
       x2="586.97998"
       y2="474.23999"
       id="line318" />
    <line
       class="DvZGornfXn"
       x1="594.71002"
       y1="476.07001"
       x2="597.23999"
       y2="479.01001"
       id="line322" />
    <line
       class="DvZGornfXn"
       x1="598.31"
       y1="474.73999"
       x2="597.98999"
       y2="478.17999"
       id="line326" />
    <g
       id="insect5"
       style="display:inline; visibility: visible">
      <ellipse
         class="DvZGornfXn"
         cx="603.34998"
         cy="484.35001"
         rx="3.3699999"
         ry="5.8099999"
         transform="rotate(-69.69,603.37329,484.34536)"
         id="ellipse300" />
      <circle
         class="DvZGornfXn"
         cx="597.32001"
         cy="482.10999"
         r="4.1700001"
         id="circle302" />
      <circle
         class="DvZGornfXn"
         cx="592.78998"
         cy="480.44"
         r="2.6099999"
         id="circle304" />
      <path
         class="DvZGornfXn"
         d="m 591.61,485 a 4.7,4.7 0 0 1 1.86,-0.67 4.6,4.6 0 0 1 2,0.08 4.78,4.78 0 0 1 -1.87,0.66 4.7,4.7 0 0 1 -1.99,-0.07 z"
         id="path308" />
      <path
         class="DvZGornfXn"
         d="m 593.48,488.38 a 3.82,3.82 0 0 1 0.69,-1.62 3.87,3.87 0 0 1 1.31,-1.19 4.13,4.13 0 0 1 -2,2.81 z"
         id="path312" />
      <path
         class="DvZGornfXn"
         d="m 591.85,480.89 a 15.49,15.49 0 0 1 -3.6,0.65 15.89,15.89 0 0 1 -3.64,-0.1 15.32,15.32 0 0 1 3.59,-0.65 16,16 0 0 1 3.65,0.1 z"
         id="path316" />
      <path
         class="DvZGornfXn"
         d="m 592.5,479.92 a 21.11,21.11 0 0 1 -5.52,-5.68 21.11,21.11 0 0 1 5.52,5.68 z"
         id="path320" />
      <path
         class="DvZGornfXn"
         d="m 594.71,476.07 a 4.8,4.8 0 0 1 1.55,1.22 4.86,4.86 0 0 1 1,1.72 4.62,4.62 0 0 1 -1.55,-1.23 4.53,4.53 0 0 1 -1,-1.71 z"
         id="path324" />
      <path
         class="DvZGornfXn"
         d="m 598.31,474.74 a 3.85,3.85 0 0 1 0.21,1.76 3.71,3.71 0 0 1 -0.53,1.68 3.69,3.69 0 0 1 -0.21,-1.75 3.75,3.75 0 0 1 0.53,-1.69 z"
         id="path328" />
    </g>
    <line
       class="DvZGornfXn"
       x1="744.33002"
       y1="439.64999"
       x2="748.16998"
       y2="439.07001"
       id="line336" />
    <line
       class="DvZGornfXn"
       x1="746.21002"
       y1="443"
       x2="748.20001"
       y2="440.19"
       id="line340" />
    <line
       class="DvZGornfXn"
       x1="744.57001"
       y1="435.51001"
       x2="737.33002"
       y2="436.06"
       id="line344" />
    <line
       class="DvZGornfXn"
       x1="745.22998"
       y1="434.54001"
       x2="739.70001"
       y2="428.85999"
       id="line348" />
    <line
       class="DvZGornfXn"
       x1="747.42999"
       y1="430.67999"
       x2="749.96002"
       y2="433.63"
       id="line352" />
    <line
       class="DvZGornfXn"
       x1="751.03003"
       y1="429.35999"
       x2="750.71997"
       y2="432.79999"
       id="line356" />
    <g
       id="insect7"
       style="display:inline; visibility: visible">
      <g
         id="ins">
        <ellipse
           class="DvZGornfXn"
           cx="756.08002"
           cy="438.95999"
           rx="3.3699999"
           ry="5.8099999"
           transform="rotate(-69.69,756.10098,438.95967)"
           id="ellipse330" />
        <circle
           class="DvZGornfXn"
           cx="750.03998"
           cy="436.73001"
           r="4.1700001"
           id="circle332" />
        <circle
           class="DvZGornfXn"
           cx="745.51001"
           cy="435.04999"
           r="2.6099999"
           id="circle334" />
        <path
           class="DvZGornfXn"
           d="m 744.33,439.65 a 4.78,4.78 0 0 1 1.87,-0.66 4.55,4.55 0 0 1 2,0.08 4.68,4.68 0 0 1 -1.86,0.66 4.6,4.6 0 0 1 -2.01,-0.08 z"
           id="path338" />
        <path
           class="DvZGornfXn"
           d="m 746.21,443 a 3.76,3.76 0 0 1 0.69,-1.62 3.84,3.84 0 0 1 1.3,-1.19 3.76,3.76 0 0 1 -0.69,1.62 3.84,3.84 0 0 1 -1.3,1.19 z"
           id="path342" />
        <path
           class="DvZGornfXn"
           d="m 744.57,435.51 a 15.32,15.32 0 0 1 -3.59,0.65 16,16 0 0 1 -3.65,-0.1 15.5,15.5 0 0 1 3.59,-0.65 16,16 0 0 1 3.65,0.1 z"
           id="path346" />
        <path
           class="DvZGornfXn"
           d="m 745.23,434.54 a 18,18 0 0 1 -3,-2.58 18.75,18.75 0 0 1 -2.5,-3.1 21.35,21.35 0 0 1 5.53,5.68 z"
           id="path350" />
        <path
           class="DvZGornfXn"
           d="m 747.43,430.68 a 5.21,5.21 0 0 1 2.53,2.95 5.21,5.21 0 0 1 -2.53,-2.95 z"
           id="path354" />
        <path
           class="DvZGornfXn"
           d="m 751,429.36 a 3.83,3.83 0 0 1 0.22,1.75 4,4 0 0 1 -0.53,1.69 3.7,3.7 0 0 1 -0.22,-1.75 4,4 0 0 1 0.53,-1.69 z"
           id="path358" />
      </g>
    </g>
    <line
       class="DvZGornfXn"
       x1="530.12"
       y1="456.10999"
       x2="533.96002"
       y2="455.53"
       id="line366" />
    <line
       class="DvZGornfXn"
       x1="531.98999"
       y1="459.45999"
       x2="533.98999"
       y2="456.64999"
       id="line370" />
    <line
       class="DvZGornfXn"
       x1="530.35999"
       y1="451.97"
       x2="523.12"
       y2="452.51999"
       id="line374" />
    <line
       class="DvZGornfXn"
       x1="531.01001"
       y1="451"
       x2="525.48999"
       y2="445.32001"
       id="line378" />
    <line
       class="DvZGornfXn"
       x1="533.21997"
       y1="447.14001"
       x2="535.75"
       y2="450.09"
       id="line382" />
    <line
       class="DvZGornfXn"
       x1="536.82001"
       y1="445.82001"
       x2="536.5"
       y2="449.26001"
       id="line386" />
    <g
       id="insect4"
       style="display:inline; visibility: visible">
      <ellipse
         class="DvZGornfXn"
         cx="541.85999"
         cy="455.42001"
         rx="3.3699999"
         ry="5.8099999"
         transform="matrix(0.35,-0.94,0.94,0.35,-73.32,805.54)"
         id="ellipse360" />
      <circle
         class="DvZGornfXn"
         cx="535.83002"
         cy="453.19"
         r="4.1700001"
         id="circle362" />
      <circle
         class="DvZGornfXn"
         cx="531.29999"
         cy="451.51001"
         r="2.6099999"
         id="circle364" />
      <path
         class="DvZGornfXn"
         d="m 530.12,456.11 a 4.68,4.68 0 0 1 1.86,-0.66 4.6,4.6 0 0 1 2,0.08 4.78,4.78 0 0 1 -1.87,0.66 4.55,4.55 0 0 1 -1.99,-0.08 z"
         id="path368" />
      <path
         class="DvZGornfXn"
         d="m 532,459.46 a 3.76,3.76 0 0 1 0.69,-1.62 3.87,3.87 0 0 1 1.31,-1.19 3.76,3.76 0 0 1 -0.69,1.62 3.87,3.87 0 0 1 -1.31,1.19 z"
         id="path372" />
      <path
         class="DvZGornfXn"
         d="m 530.36,452 a 17.74,17.74 0 0 1 -7.24,0.55 15.32,15.32 0 0 1 3.59,-0.65 16,16 0 0 1 3.65,0.1 z"
         id="path376" />
      <path
         class="DvZGornfXn"
         d="m 531,451 a 18.78,18.78 0 0 1 -3,-2.58 19.22,19.22 0 0 1 -2.49,-3.1 18.78,18.78 0 0 1 3,2.58 18.39,18.39 0 0 1 2.49,3.1 z"
         id="path380" />
      <path
         class="DvZGornfXn"
         d="m 533.22,447.14 a 5,5 0 0 1 1.55,1.23 4.77,4.77 0 0 1 1,1.72 4.75,4.75 0 0 1 -1.55,-1.23 4.5,4.5 0 0 1 -1,-1.72 z"
         id="path384" />
      <path
         class="DvZGornfXn"
         d="m 536.82,445.82 a 3.82,3.82 0 0 1 0.21,1.75 3.71,3.71 0 0 1 -0.53,1.69 4.21,4.21 0 0 1 0.32,-3.44 z"
         id="path388" />
    </g>
    <line
       class="DvZGornfXn"
       x1="465.75"
       y1="316.92001"
       x2="469.59"
       y2="316.32999"
       id="line396" />
    <line
       class="DvZGornfXn"
       x1="467.62"
       y1="320.26001"
       x2="469.62"
       y2="317.45001"
       id="line400" />
    <line
       class="DvZGornfXn"
       x1="465.98999"
       y1="312.76999"
       x2="458.75"
       y2="313.32001"
       id="line404" />
    <line
       class="DvZGornfXn"
       x1="466.64001"
       y1="311.79999"
       x2="461.12"
       y2="306.12"
       id="line408" />
    <line
       class="DvZGornfXn"
       x1="468.85001"
       y1="307.95001"
       x2="471.38"
       y2="310.89001"
       id="line412" />
    <line
       class="DvZGornfXn"
       x1="472.45001"
       y1="306.62"
       x2="472.13"
       y2="310.06"
       id="line416" />
    <g
       id="insect0"
       style="display:inline; visibility: visible">
      <ellipse
         class="DvZGornfXn"
         cx="477.48999"
         cy="316.23001"
         rx="3.3699999"
         ry="5.8099999"
         transform="rotate(-69.69,477.50483,316.22334)"
         id="ellipse390" />
      <circle
         class="DvZGornfXn"
         cx="471.45999"
         cy="313.98999"
         r="4.1700001"
         id="circle392" />
      <circle
         class="DvZGornfXn"
         cx="466.92999"
         cy="312.32001"
         r="2.6099999"
         id="circle394" />
      <path
         class="DvZGornfXn"
         d="m 465.75,316.92 a 4.75,4.75 0 0 1 1.86,-0.67 4.6,4.6 0 0 1 2,0.08 5.29,5.29 0 0 1 -3.84,0.59 z"
         id="path398" />
      <path
         class="DvZGornfXn"
         d="m 467.62,320.26 a 3.83,3.83 0 0 1 0.7,-1.62 3.75,3.75 0 0 1 1.3,-1.19 3.76,3.76 0 0 1 -0.69,1.62 3.87,3.87 0 0 1 -1.31,1.19 z"
         id="path402" />
      <path
         class="DvZGornfXn"
         d="m 466,312.77 a 15.5,15.5 0 0 1 -3.59,0.65 16,16 0 0 1 -3.65,-0.1 15.32,15.32 0 0 1 3.59,-0.65 16,16 0 0 1 3.65,0.1 z"
         id="path406" />
      <path
         class="DvZGornfXn"
         d="m 466.64,311.8 a 21.11,21.11 0 0 1 -5.52,-5.68 21.11,21.11 0 0 1 5.52,5.68 z"
         id="path410" />
      <path
         class="DvZGornfXn"
         d="m 468.85,308 a 4.7,4.7 0 0 1 1.55,1.22 4.86,4.86 0 0 1 1,1.72 4.62,4.62 0 0 1 -1.55,-1.23 4.67,4.67 0 0 1 -1,-1.71 z"
         id="path414" />
      <path
         class="DvZGornfXn"
         d="m 472.45,306.62 a 3.85,3.85 0 0 1 0.21,1.76 3.71,3.71 0 0 1 -0.53,1.68 3.69,3.69 0 0 1 -0.21,-1.75 3.75,3.75 0 0 1 0.53,-1.69 z"
         id="path418" />
    </g>
    <line
       class="DvZGornfXn"
       x1="529.32001"
       y1="395.13"
       x2="533.15997"
       y2="394.54001"
       id="line426" />
    <line
       class="DvZGornfXn"
       x1="531.20001"
       y1="398.47"
       x2="533.19"
       y2="395.66"
       id="line430" />
    <line
       class="DvZGornfXn"
       x1="529.56"
       y1="390.98001"
       x2="522.32001"
       y2="391.53"
       id="line434" />
    <line
       class="DvZGornfXn"
       x1="530.21997"
       y1="390.01001"
       x2="524.69"
       y2="384.32999"
       id="line438" />
    <line
       class="DvZGornfXn"
       x1="532.41998"
       y1="386.16"
       x2="534.95001"
       y2="389.10001"
       id="line442" />
    <line
       class="DvZGornfXn"
       x1="536.02002"
       y1="384.84"
       x2="535.71002"
       y2="388.26999"
       id="line446" />
    <g
       id="insect3"
       style="display:inline; visibility: visible">
      <ellipse
         class="DvZGornfXn"
         cx="541.07001"
         cy="394.44"
         rx="3.3699999"
         ry="5.8099999"
         transform="rotate(-69.69,541.08254,394.43587)"
         id="ellipse420" />
      <circle
         class="DvZGornfXn"
         cx="535.03003"
         cy="392.20001"
         r="4.1700001"
         id="circle422" />
      <circle
         class="DvZGornfXn"
         cx="530.5"
         cy="390.53"
         r="2.6099999"
         id="circle424" />
      <path
         class="DvZGornfXn"
         d="m 529.32,395.13 a 4.8,4.8 0 0 1 1.87,-0.67 4.55,4.55 0 0 1 2,0.08 4.68,4.68 0 0 1 -1.86,0.66 4.76,4.76 0 0 1 -2.01,-0.07 z"
         id="path428" />
      <path
         class="DvZGornfXn"
         d="m 531.2,398.47 a 4.16,4.16 0 0 1 2,-2.81 3.76,3.76 0 0 1 -0.69,1.62 3.65,3.65 0 0 1 -1.31,1.19 z"
         id="path432" />
      <path
         class="DvZGornfXn"
         d="m 529.56,391 a 17.71,17.71 0 0 1 -7.24,0.55 15.5,15.5 0 0 1 3.59,-0.65 16,16 0 0 1 3.65,0.1 z"
         id="path436" />
      <path
         class="DvZGornfXn"
         d="m 530.22,390 a 18,18 0 0 1 -3,-2.58 18.35,18.35 0 0 1 -2.5,-3.1 18,18 0 0 1 3,2.58 18.85,18.85 0 0 1 2.5,3.1 z"
         id="path440" />
      <path
         class="DvZGornfXn"
         d="m 532.42,386.16 a 5.15,5.15 0 0 1 2.58,2.94 4.72,4.72 0 0 1 -1.55,-1.23 4.81,4.81 0 0 1 -1.03,-1.71 z"
         id="path444" />
      <path
         class="DvZGornfXn"
         d="m 536,384.84 a 3.82,3.82 0 0 1 0.22,1.75 4,4 0 0 1 -0.53,1.68 3.7,3.7 0 0 1 -0.22,-1.75 3.93,3.93 0 0 1 0.53,-1.68 z"
         id="path448" />
    </g>
    <path
       class="qkcRWPwSDM"
       d="m 941.56,647.91 c 0.52,2.61 1.37,6.89 -1.17,11 a 13.23,13.23 0 0 1 -7.75,5.63 8.7,8.7 0 0 1 -5.87,0 7.88,7.88 0 0 1 -3.29,-2.58 c -2,2 -4,4.59 -3.29,6.57 0.42,1.19 1.44,1.21 2.82,2.82 1.88,2.19 3.16,5.83 1.88,7.52 -0.35,0.46 -1.14,1.09 -5.17,0.94 -4.42,-0.18 -6.51,-1.07 -9.86,-1.65 A 37.09,37.09 0 0 0 899.3,678 c -5.66,0.57 -8.48,0.86 -10.57,1.88 a 6,6 0 0 1 -4,0.7 4.86,4.86 0 0 1 -2.35,-1.41 11.51,11.51 0 0 1 0.23,-6.11 11.69,11.69 0 0 1 4.7,-6.1 12,12 0 0 1 5.16,-1.88 c -3.44,-2.36 -15.13,-11 -16,-24.19 a 23.73,23.73 0 0 1 0.23,-5.16 c -6.92,4 -13.93,4.76 -17.61,1.64 a 7.59,7.59 0 0 1 -2.82,-5.16 7.21,7.21 0 0 1 3,-6.11 c 1.7,-1.2 2.44,-0.48 5.64,-1.64 a 26.67,26.67 0 0 0 6.9,-3.5 c 2.81,-2.14 3,-2.54 4.34,-4.67 a 36,36 0 0 0 4.36,-13 c -8.13,5 -24.92,7 -28.85,2 -0.65,-0.83 -1.72,-2.65 -0.79,-9.08 1,-6.67 3.12,-21.53 16.58,-30.4 a 37.15,37.15 0 0 1 19.74,-5.92 34.4,34.4 0 0 1 8.13,-9.61 c 3.25,-2.62 5.39,-3.28 10.35,-7.39 2.91,-2.41 4.37,-3.61 5.43,-5.18 2.28,-3.37 1.88,-5.45 4.68,-10.11 1.6,-2.66 2.69,-4.43 4.19,-4.43 2.24,0 3.89,3.92 4.93,6.41 1.36,3.24 3.19,7.6 2,12.57 -0.65,2.64 -1.46,2.58 -6.41,10.1 -4.16,6.33 -3.68,6.52 -5.91,9.12 -2.23,2.6 -5.31,6.1 -10.36,7.64 a 17.91,17.91 0 0 1 -6.41,0.74 9.6,9.6 0 0 0 2.35,4 c 1.24,1.23 4.28,3.51 17.62,2.35 7.79,-0.67 8.29,-1.58 12.68,-1.17 2.45,0.23 10.91,1 12.21,5.4 0.87,2.92 -1.87,6.1 -3.29,7.75 -3.5,4.06 -7.94,5.44 -13.86,7.28 A 38.82,38.82 0 0 1 915,597.42 c -3.16,0.14 -7,0.27 -11.27,-1.64 a 20.5,20.5 0 0 1 -5.88,-4 c 0,1.65 4.72,13 8.13,19.79 a 21.23,21.23 0 0 0 3.09,4.57 c 4,4.56 14,16 14.42,16.52 v 0 a 9.28,9.28 0 0 1 1.82,2.54 12,12 0 0 1 1.17,4.69 c 0.76,-0.67 4.38,-3.76 8.22,-2.81 4.95,1.23 6.3,8.04 6.86,10.83 z"
       id="path450" />
    <path
       class="aHaNYIduKn"
       d="m 878.94,590.79 c -0.27,-3.08 -5,-5.62 -8.16,-4 a 5.12,5.12 0 0 0 -2.12,2.25 5,5 0 0 0 -0.43,3.06 4.54,4.54 0 0 0 0.87,2 6.6,6.6 0 0 0 1.32,1.21 5.32,5.32 0 0 0 2.13,0.84 c 3.29,0.56 6.63,-2.61 6.39,-5.36 z"
       id="path452" />
    <path
       d="m 873.35,596.08 c 1,-1.05 1.26,-3.2 0.38,-5.28 -0.88,-2.08 -2.48,-3.41 -4,-3.44 -1.49,1.58 -2.56,3.94 -1.27,5.93 l 0.15,0.25 a 3.32,3.32 0 0 0 0.33,0.5 3.64,3.64 0 0 0 1.18,1.13 6,6 0 0 0 1.91,0.82 c 0.21,0 0.51,0 0.7,0.1 a 2.25,2.25 0 0 0 0.62,-0.01 z"
       id="path454" />
    <path
       class="XkYbKxSGIn"
       d="m 850.68,602.13 c -0.47,0.65 0.45,2.15 0.74,2.62 a 3.44,3.44 0 0 0 1.81,1.75 c 1.64,0.46 3.84,-1.21 3.74,-2.39 -0.16,-1.73 -5.46,-3.11 -6.29,-1.98 z"
       id="path456" />
    <path
       class="aHaNYIduKn"
       d="m 865.54,584.7 c -0.24,-2.78 -4.51,-5.07 -7.35,-3.58 a 4.54,4.54 0 0 0 -2.3,4.78 3.94,3.94 0 0 0 0.78,1.8 5.66,5.66 0 0 0 1.19,1.1 4.78,4.78 0 0 0 1.92,0.76 c 2.96,0.44 5.97,-2.38 5.76,-4.86 z"
       id="path458" />
    <path
       d="m 860.5,589.46 c 0.91,-0.94 1.13,-2.88 0.34,-4.76 -0.79,-1.88 -2.24,-3.07 -3.57,-3.1 -1.34,1.43 -2.3,3.55 -1.14,5.35 l 0.13,0.23 a 3.52,3.52 0 0 0 0.3,0.45 3.44,3.44 0 0 0 1.06,1 5.76,5.76 0 0 0 1.73,0.74 c 0.19,0 0.46,0 0.62,0.08 a 1.57,1.57 0 0 0 0.53,0.01 z"
       id="path460" />
  </g>
  <g
     id="Layer_4"
     data-name="Layer 4">
    <path
       class="fGIrxSrYip"
       d="m 725.61,32.27 a 115.31,115.31 0 0 1 -2.22,-45.21 c 0.44,-2.84 1,-5.58 1.59,-8.2"
       id="path463" />
    <path
       class="fGIrxSrYip"
       d="m 734.66,29.26 a 115.3,115.3 0 0 1 30,-33.88 c 2.3,-1.72 4.6,-3.3 6.87,-4.75"
       id="path465" />
    <path
       class="fGIrxSrYip"
       d="m 728.7,31.72 a 115.26,115.26 0 0 1 13,-43.35 c 1.36,-2.53 2.78,-4.93 4.24,-7.2"
       id="path467" />
    <path
       class="aySfchqiOw"
       d="m 728.28,33.68 c 1.73,-2.19 -5.65,-16.48 -20.1,-21.44 -9.84,-3.38 -27.32,-4 -38.36,8.4 a 34.59,34.59 0 0 0 -6.56,11.15 c 9.58,-5 22.49,-9.85 36,-8.69 17.85,1.54 27.31,12.75 29.02,10.58 z"
       id="path469" />
    <path
       class="aySfchqiOw"
       d="m 728.25,33.1 c -1.08,-1.85 8.2,-12.71 21.79,-15.72 9.25,-2 24.62,-1.38 31.8,9.13 a 22.06,22.06 0 0 1 3.52,9.26 c -7.38,-4.55 -17.68,-9.26 -29.72,-9.2 -15.85,0.07 -26.32,8.36 -27.39,6.53 z"
       id="path471" />
  </g>
  <g
     id="clouds"
     class="clouds-move">
    <path
       class="aHaNYIduKn"
       d="m 906.57,21.09 a 12.11,12.11 0 0 0 0,-7.8 c -2.39,-6.43 -10,-7.57 -10.93,-7.8 a 15.57,15.57 0 0 0 -9,1.5 15.41,15.41 0 0 0 -6.59,6.3 c -0.23,0.44 -0.65,2.9 -1.58,7.8 v 1.57 a 6.5,6.5 0 0 0 -1.57,-1.57 c -3.79,-2.58 -9.48,-0.34 -12.49,1.57 a 14.88,14.88 0 0 0 -6.24,7.79 15.38,15.38 0 0 0 0,9.35 20.17,20.17 0 0 0 7.83,10.92 h 70.27 a 22.09,22.09 0 0 1 -4.69,-4.67 16.67,16.67 0 0 1 -3.1,-6.25 c -0.84,-3.61 0.58,-4.44 0,-7.79 a 13.86,13.86 0 0 0 -4.69,-7.8 c -3,-2.44 -6.4,-2.73 -10.93,-3.12 a 36.35,36.35 0 0 0 -6.29,0 z"
       id="path474" />
    <path
       class="aHaNYIduKn"
       d="m 1190.06,84.43 a 12.11,12.11 0 0 0 0,-7.8 c -2.39,-6.43 -10,-7.57 -10.94,-7.8 a 15.55,15.55 0 0 0 -9,1.5 15.38,15.38 0 0 0 -6.6,6.3 c -0.22,0.44 -0.64,2.9 -1.57,7.8 V 86 a 6.5,6.5 0 0 0 -1.57,-1.57 c -3.79,-2.58 -9.48,-0.34 -12.5,1.57 a 14.89,14.89 0 0 0 -6.23,7.8 15.35,15.35 0 0 0 0,9.34 20.12,20.12 0 0 0 7.81,10.92 h 70.26 a 22.28,22.28 0 0 1 -4.68,-4.67 16.55,16.55 0 0 1 -3.11,-6.25 c -0.83,-3.61 0.59,-4.44 0,-7.79 a 13.79,13.79 0 0 0 -4.68,-7.8 c -3,-2.44 -6.41,-2.73 -10.94,-3.12 a 36.24,36.24 0 0 0 -6.25,0 z"
       id="path476" />
    <path
       class="aHaNYIduKn"
       d="m 546.4,87.67 a 12.22,12.22 0 0 0 0,-7.79 c -2.39,-6.44 -10,-7.57 -10.94,-7.8 a 15.45,15.45 0 0 0 -15.6,7.8 c -0.23,0.43 -0.64,2.89 -1.57,7.79 v 1.57 a 6.37,6.37 0 0 0 -1.58,-1.57 c -3.79,-2.57 -9.47,-0.34 -12.49,1.57 A 14.93,14.93 0 0 0 498,97 a 15.38,15.38 0 0 0 0,9.35 20.15,20.15 0 0 0 7.81,10.92 h 70.26 a 22.52,22.52 0 0 1 -4.68,-4.67 16.55,16.55 0 0 1 -3.11,-6.25 c -0.83,-3.61 0.59,-4.45 0,-7.8 a 13.84,13.84 0 0 0 -4.68,-7.79 c -3,-2.44 -6.41,-2.73 -10.94,-3.13 a 38.36,38.36 0 0 0 -6.26,0.04 z"
       id="path478" />
    <path
       class="aHaNYIduKn"
       d="m 886.51,138.77 a 12.08,12.08 0 0 0 0,-7.79 c -2.38,-6.44 -10,-7.57 -10.93,-7.8 A 15.45,15.45 0 0 0 860,131 c -0.23,0.43 -0.65,2.89 -1.57,7.79 v 1.58 a 6.41,6.41 0 0 0 -1.58,-1.58 c -3.79,-2.57 -9.48,-0.34 -12.49,1.58 a 15,15 0 0 0 -6.24,7.79 15.38,15.38 0 0 0 0,9.35 20.25,20.25 0 0 0 7.81,10.92 h 70.27 a 22.28,22.28 0 0 1 -4.68,-4.67 16.55,16.55 0 0 1 -3.11,-6.25 c -0.84,-3.61 0.59,-4.45 0,-7.8 a 13.84,13.84 0 0 0 -4.68,-7.79 c -3,-2.44 -6.41,-2.73 -10.94,-3.13 a 38.48,38.48 0 0 0 -6.28,-0.02 z"
       id="path480" />
    <path
       class="aHaNYIduKn"
       d="m 535,232.1 a 12.25,12.25 0 0 0 0,-7.8 c -2.39,-6.43 -10.05,-7.57 -10.94,-7.8 a 15.49,15.49 0 0 0 -15.6,7.8 c -0.23,0.44 -0.65,2.9 -1.57,7.8 v 1.57 a 6.54,6.54 0 0 0 -1.58,-1.57 c -3.79,-2.57 -9.48,-0.34 -12.49,1.57 a 14.93,14.93 0 0 0 -6.23,7.8 15.35,15.35 0 0 0 0,9.34 20.15,20.15 0 0 0 7.8,10.92 h 70.27 a 22.28,22.28 0 0 1 -4.68,-4.67 16.55,16.55 0 0 1 -3.11,-6.25 c -0.83,-3.61 0.59,-4.44 0,-7.79 a 13.9,13.9 0 0 0 -4.68,-7.8 c -3,-2.44 -6.41,-2.72 -10.94,-3.12 a 38.36,38.36 0 0 0 -6.25,0 z"
       id="path482" />
    <path
       class="aHaNYIduKn"
       d="m 913.14,377.73 a 12.11,12.11 0 0 0 0,-7.8 c -2.38,-6.43 -10,-7.57 -10.93,-7.8 a 15.49,15.49 0 0 0 -15.6,7.8 c -0.23,0.44 -0.65,2.9 -1.58,7.8 v 1.57 a 6.33,6.33 0 0 0 -1.57,-1.57 c -3.79,-2.57 -9.48,-0.34 -12.49,1.57 a 15,15 0 0 0 -6.24,7.8 15.35,15.35 0 0 0 0,9.34 20.17,20.17 0 0 0 7.81,10.92 h 70.27 a 22,22 0 0 1 -4.68,-4.67 16.55,16.55 0 0 1 -3.11,-6.25 c -0.84,-3.61 0.58,-4.44 0,-7.79 a 13.9,13.9 0 0 0 -4.68,-7.8 c -3,-2.44 -6.41,-2.72 -10.94,-3.12 a 38.48,38.48 0 0 0 -6.26,0 z"
       id="path484" />
    <path
       class="aHaNYIduKn"
       d="m 256.48,582.54 a 12.25,12.25 0 0 0 0,-7.8 c -2.39,-6.43 -10.05,-7.57 -10.94,-7.8 a 15.49,15.49 0 0 0 -15.6,7.8 c -0.23,0.44 -0.64,2.9 -1.57,7.8 v 1.57 a 6.37,6.37 0 0 0 -1.58,-1.57 c -3.79,-2.58 -9.47,-0.34 -12.49,1.57 a 14.91,14.91 0 0 0 -6.23,7.79 15.38,15.38 0 0 0 0,9.35 20.12,20.12 0 0 0 7.81,10.92 h 70.26 a 22.52,22.52 0 0 1 -4.68,-4.67 16.55,16.55 0 0 1 -3.11,-6.25 c -0.83,-3.61 0.59,-4.44 0,-7.79 a 13.86,13.86 0 0 0 -4.68,-7.8 c -3,-2.44 -6.41,-2.73 -10.94,-3.12 a 36.24,36.24 0 0 0 -6.25,0 z"
       id="path486" />
    <path
       class="aHaNYIduKn"
       d="m 383.33,331.49 a 19.49,19.49 0 0 0 0,-12.49 c -3.83,-10.31 -16.09,-12.13 -17.52,-12.49 a 24.78,24.78 0 0 0 -25,12.49 c -0.37,0.69 -1,4.64 -2.52,12.49 V 334 a 10.19,10.19 0 0 0 -2.52,-2.51 c -6.07,-4.13 -15.18,-0.55 -20,2.51 a 24,24 0 0 0 -10,12.49 24.71,24.71 0 0 0 0,15 32.34,32.34 0 0 0 12.52,17.51 h 112.56 a 35.51,35.51 0 0 1 -7.5,-7.49 26.5,26.5 0 0 1 -5,-10 c -1.34,-5.79 0.94,-7.12 0,-12.49 a 22.14,22.14 0 0 0 -7.5,-12.49 c -4.86,-3.91 -10.27,-4.37 -17.52,-5 a 59.87,59.87 0 0 0 -10,-0.04 z"
       id="path488" />
    <path
       class="aHaNYIduKn"
       d="m 1157.2,210.23 a 19.36,19.36 0 0 0 0,-12.49 c -3.83,-10.3 -16.09,-12.12 -17.52,-12.49 a 24.82,24.82 0 0 0 -25,12.49 c -0.36,0.7 -1,4.64 -2.52,12.49 v 2.52 a 10.4,10.4 0 0 0 -2.52,-2.52 c -6.07,-4.12 -15.18,-0.54 -20,2.52 a 23.91,23.91 0 0 0 -10,12.49 24.71,24.71 0 0 0 0,15 32.39,32.39 0 0 0 12.51,17.49 h 112.56 a 35.74,35.74 0 0 1 -7.5,-7.49 26.5,26.5 0 0 1 -5,-10 c -1.34,-5.79 0.94,-7.13 0,-12.49 a 22.14,22.14 0 0 0 -7.5,-12.49 c -4.86,-3.91 -10.26,-4.37 -17.52,-5 a 62.08,62.08 0 0 0 -9.99,-0.03 z"
       id="path490" />
    <path
       class="aHaNYIduKn"
       d="m 782.07,474.23 a 19.36,19.36 0 0 0 0,-12.49 c -3.83,-10.31 -16.09,-12.12 -17.52,-12.49 a 24.78,24.78 0 0 0 -25,12.49 c -0.36,0.7 -1,4.64 -2.52,12.49 v 2.52 a 10.4,10.4 0 0 0 -2.52,-2.52 c -6.07,-4.12 -15.18,-0.54 -20,2.52 a 23.87,23.87 0 0 0 -10,12.49 24.68,24.68 0 0 0 0,15 32.38,32.38 0 0 0 12.49,17.47 h 112.59 a 36,36 0 0 1 -7.5,-7.49 26.62,26.62 0 0 1 -5,-10 c -1.34,-5.79 0.94,-7.12 0,-12.49 a 22.17,22.17 0 0 0 -7.5,-12.49 c -4.86,-3.91 -10.26,-4.36 -17.52,-5 a 59.87,59.87 0 0 0 -10,-0.01 z"
       id="path492" />
    <path
       class="aHaNYIduKn"
       d="m 428.65,630.94 a 19.49,19.49 0 0 0 0,-12.49 c -3.83,-10.31 -16.1,-12.13 -17.52,-12.49 a 24.78,24.78 0 0 0 -25,12.49 c -0.37,0.7 -1,4.64 -2.52,12.49 v 2.51 a 10.36,10.36 0 0 0 -2.52,-2.51 c -6.08,-4.12 -15.19,-0.55 -20,2.51 a 23.9,23.9 0 0 0 -10,12.49 24.56,24.56 0 0 0 0,15 32.3,32.3 0 0 0 12.51,17.49 h 112.56 a 36,36 0 0 1 -7.5,-7.49 26.65,26.65 0 0 1 -5,-10 c -1.33,-5.79 0.95,-7.12 0,-12.49 a 22.12,22.12 0 0 0 -7.49,-12.49 c -4.86,-3.91 -10.27,-4.37 -17.52,-5 a 59.87,59.87 0 0 0 -10,-0.02 z"
       id="path494" />
    <path
       class="aHaNYIduKn"
       d="m 484.41,510.86 a 12.08,12.08 0 0 0 0,-7.79 c -2.38,-6.44 -10,-7.57 -10.93,-7.8 a 15.45,15.45 0 0 0 -15.6,7.8 c -0.23,0.43 -0.65,2.89 -1.58,7.79 v 1.57 a 6.33,6.33 0 0 0 -1.57,-1.57 c -3.79,-2.57 -9.48,-0.34 -12.49,1.57 a 15,15 0 0 0 -6.24,7.8 15.38,15.38 0 0 0 0,9.35 20.24,20.24 0 0 0 7.81,10.92 h 70.27 a 22.09,22.09 0 0 1 -4.68,-4.68 16.43,16.43 0 0 1 -3.11,-6.24 c -0.84,-3.62 0.58,-4.45 0,-7.8 a 13.84,13.84 0 0 0 -4.68,-7.79 c -3,-2.45 -6.41,-2.73 -10.94,-3.13 a 38.48,38.48 0 0 0 -6.26,0 z"
       id="path496" />
    <path
       class="aHaNYIduKn"
       d="m 165,416.24 a 12.11,12.11 0 0 0 0,-7.8 c -2.38,-6.43 -10,-7.57 -10.93,-7.79 a 15.46,15.46 0 0 0 -15.6,7.79 c -0.23,0.44 -0.65,2.9 -1.58,7.8 v 1.57 a 6.5,6.5 0 0 0 -1.57,-1.57 c -3.79,-2.57 -9.48,-0.34 -12.49,1.57 a 15,15 0 0 0 -6.24,7.8 15.38,15.38 0 0 0 0,9.35 20.24,20.24 0 0 0 7.81,10.92 h 70.27 a 22.33,22.33 0 0 1 -4.67,-4.68 16.58,16.58 0 0 1 -3.11,-6.24 c -0.84,-3.62 0.58,-4.45 0,-7.8 a 13.86,13.86 0 0 0 -4.69,-7.8 c -3,-2.44 -6.4,-2.72 -10.93,-3.12 a 38.48,38.48 0 0 0 -6.27,0 z"
       id="path498" />
    <path
       class="aHaNYIduKn"
       d="m 131.16,97.81 a 12.08,12.08 0 0 0 0,-7.79 c -2.39,-6.44 -10,-7.57 -10.94,-7.8 a 15.47,15.47 0 0 0 -15.6,7.8 c -0.23,0.43 -0.64,2.89 -1.57,7.79 v 1.57 a 6.5,6.5 0 0 0 -1.57,-1.57 C 97.68,95.24 92,97.47 88.98,99.38 a 14.93,14.93 0 0 0 -6.23,7.8 15.38,15.38 0 0 0 0,9.35 20.19,20.19 0 0 0 7.81,10.92 h 70.26 a 22.33,22.33 0 0 1 -4.68,-4.68 16.43,16.43 0 0 1 -3.11,-6.24 c -0.83,-3.62 0.59,-4.45 0,-7.8 a 13.73,13.73 0 0 0 -4.68,-7.79 c -3,-2.45 -6.41,-2.73 -10.94,-3.13 a 38.36,38.36 0 0 0 -6.25,0 z"
       id="path500" />
    <path
       class="aHaNYIduKn"
       d="m 315.73,153.77 a 12.08,12.08 0 0 0 0,-7.79 c -2.39,-6.44 -10.05,-7.57 -10.94,-7.8 a 15.47,15.47 0 0 0 -15.6,7.8 c -0.23,0.43 -0.64,2.89 -1.57,7.79 v 1.58 a 6.24,6.24 0 0 0 -1.58,-1.58 c -3.79,-2.57 -9.47,-0.34 -12.49,1.58 a 14.91,14.91 0 0 0 -6.23,7.79 15.38,15.38 0 0 0 0,9.35 20.15,20.15 0 0 0 7.81,10.92 h 70.26 a 22.52,22.52 0 0 1 -4.68,-4.67 16.55,16.55 0 0 1 -3.11,-6.25 c -0.83,-3.61 0.59,-4.45 0,-7.8 a 13.73,13.73 0 0 0 -4.68,-7.79 c -3,-2.44 -6.41,-2.73 -10.94,-3.13 a 38.36,38.36 0 0 0 -6.25,0 z"
       id="path502" />
  </g>
  <g
     id="реплики">
    <g
       id="window7"
       style="visibility:hidden">
      <rect
         class="rjuoVkGqdV"
         x="838.53998"
         y="139.35001"
         width="374.26999"
         height="67.589996"
         id="rect505" />
      <text
         class="SlbKpYrcdQ"
         transform="translate(857.84,178.71)"
         id="text507">О нет! Мой обед убегает!!!</text>
      <line
         class="SqGQVBiDmf"
         x1="1186.66"
         y1="161.97"
         x2="1201.83"
         y2="146.8"
         id="line509" />
      <line
         class="SqGQVBiDmf"
         x1="1201.83"
         y1="161.97"
         x2="1186.66"
         y2="146.8"
         id="line511" />
    </g>
    <rect
       style="fill:#0000ff;fill-opacity:0"
       id="rect526"
       width="15.169922"
       height="15.169998"
       x="1186.66"
       y="146.8"
       onclick="closeWindow('window7')"
       class="button" />
  </g>
  <style
     type="text/css"
     id="style281">
	.NnzeTDPpXC{fill:#FFFFFF;}
	.wvwBTQqkLx{fill:#FFFFFF;stroke:#FFFFFF;stroke-miterlimit:10;}
</style>
  <g
     id="highlight_2"
     style="display: inline;opacity: 0;"
     class="highlight-anim button"
     transform="translate(-743.83,132.97)">
	<g
   id="g1449_1_"
   onclick="info()">
		<rect
   id="rect2406_1_"
   x="446.89999"
   y="409.70001"
   class="NnzeTDPpXC"
   width="470.60001"
   height="92.099998" />

		<polygon
   id="polygon2408_1_"
   class="NnzeTDPpXC"
   points="913.4,356.3 927.6,397.4 435.8,397.4 450.9,356.3 " />

		<rect
   id="rect2410_1_"
   x="432.70001"
   y="397.39999"
   class="NnzeTDPpXC"
   width="499.79999"
   height="12.3" />

		<rect
   id="rect2412_1_"
   x="570.59998"
   y="377.60001"
   class="NnzeTDPpXC"
   width="223.8"
   height="124.2" />

		<rect
   id="rect2414_1_"
   x="450.89999"
   y="348.60001"
   class="NnzeTDPpXC"
   width="462.60001"
   height="7.6999998" />

		<polygon
   id="polygon2416_1_"
   class="NnzeTDPpXC"
   points="799.7,367 608.7,367 565.2,367 578.2,323.9 786.4,323.9 " />

		<rect
   id="rect2418_1_"
   x="562"
   y="367"
   class="NnzeTDPpXC"
   width="240.7"
   height="10.6" />

		<rect
   id="rect2420_1_"
   x="578.20001"
   y="314.89999"
   class="NnzeTDPpXC"
   width="208.2"
   height="9" />

		<polygon
   id="polygon2422_1_"
   class="NnzeTDPpXC"
   points="683.9,291.2 764.6,377.5 598.1,377.6 " />

		<polygon
   id="polygon2424_1_"
   class="NnzeTDPpXC"
   points="684.2,304.1 741.5,365.3 627.2,365 " />

		<polygon
   id="polygon2426_1_"
   class="NnzeTDPpXC"
   points="590.9,385.6 602.4,385.6 602.4,419.2 590.9,419.2 579.3,419.2 579.3,385.6 " />

		<polyline
   id="polyline2428_1_"
   class="NnzeTDPpXC"
   points="590.9,402.4 590.9,385.6 590.9,419.2 602.4,419.2 602.4,408.2 579.3,408.2     579.3,395.9 602.4,396.1   " />

		<polygon
   id="polygon2430_1_"
   class="NnzeTDPpXC"
   points="625.8,385.6 637.4,385.6 637.4,419.2 625.8,419.2 614.3,419.2 614.3,385.6 " />

		<polyline
   id="polyline2432_1_"
   class="NnzeTDPpXC"
   points="625.8,402.4 625.8,385.6 625.8,419.2 637.4,419.2 637.4,408.2 614.3,408.2     614.3,395.9 637.4,396.1   " />

		<polygon
   id="polygon2434_1_"
   class="NnzeTDPpXC"
   points="652.1,419.2 652.1,385.6 663.7,385.6 675.2,385.6 675.2,419.2 663.7,419.2 " />

		<polyline
   id="polyline2436_1_"
   class="NnzeTDPpXC"
   points="663.7,402.4 663.7,385.6 663.7,419.2 675.2,419.2 675.2,408.2 652.1,408.2     652.1,395.9 675.2,396.1   " />

		<polygon
   id="polygon2438_1_"
   class="NnzeTDPpXC"
   points="701.3,385.6 712.9,385.6 712.9,419.2 701.3,419.2 689.8,419.2 689.8,385.6 " />

		<polyline
   id="polyline2440_1_"
   class="NnzeTDPpXC"
   points="701.3,402.4 701.3,385.6 701.3,419.2 712.9,419.2 712.9,408.2 689.8,408.2     689.8,395.9 712.9,396.1   " />

		<polygon
   id="polygon2442_1_"
   class="NnzeTDPpXC"
   points="738.7,385.6 750.2,385.6 750.2,419.2 738.7,419.2 727.1,419.2 727.1,385.6 " />

		<polyline
   id="polyline2444_1_"
   class="NnzeTDPpXC"
   points="738.7,402.4 738.7,385.6 738.7,419.2 750.2,419.2 750.2,408.2 727.1,408.2     727.1,395.9 750.2,396.1   " />

		<polygon
   id="polygon2446_1_"
   class="NnzeTDPpXC"
   points="727.1,470.6 727.1,437.1 738.7,437.1 750.2,437.1 750.2,470.6 738.7,470.6 " />

		<polyline
   id="polyline2448_1_"
   class="NnzeTDPpXC"
   points="738.7,453.9 738.7,437.1 738.7,470.6 750.2,470.6 750.2,459.6 727.1,459.6     727.1,447.3 750.2,447.5   " />

		<polygon
   id="polygon2450_1_"
   class="NnzeTDPpXC"
   points="590.9,437.1 602.4,437.1 602.4,470.6 590.9,470.6 579.3,470.6 579.3,437.1 " />

		<polyline
   id="polyline2452_1_"
   class="NnzeTDPpXC"
   points="590.9,453.9 590.9,437.1 590.9,470.6 602.4,470.6 602.4,459.6 579.3,459.6     579.3,447.3 602.4,447.5   " />

		<polygon
   id="polygon2454_1_"
   class="NnzeTDPpXC"
   points="625.8,437.1 637.4,437.1 637.4,470.6 625.8,470.6 614.3,470.6 614.3,437.1 " />

		<polyline
   id="polyline2456_1_"
   class="NnzeTDPpXC"
   points="625.8,453.9 625.8,437.1 625.8,470.6 637.4,470.6 637.4,459.6 614.3,459.6     614.3,447.3 637.4,447.5   " />

		<polygon
   id="polygon2458_1_"
   class="NnzeTDPpXC"
   points="473.6,414.4 484.4,414.4 484.4,445.9 473.6,445.9 462.8,445.9 462.8,414.4 " />

		<polyline
   id="polyline2460_1_"
   class="NnzeTDPpXC"
   points="473.6,430.1 473.6,414.4 473.6,445.9 484.4,445.9 484.4,435.5 462.8,435.5     462.8,424 484.4,424.2   " />

		<polygon
   id="polygon2462_1_"
   class="NnzeTDPpXC"
   points="506.4,414.4 517.2,414.4 517.2,445.9 506.4,445.9 495.6,445.9 495.6,414.4 " />

		<polyline
   id="polyline2464_1_"
   class="NnzeTDPpXC"
   points="506.4,430.1 506.4,414.4 506.4,445.9 517.2,445.9 517.2,435.5 495.6,435.5     495.6,424 517.2,424.2   " />

		<polygon
   id="polygon2466_1_"
   class="NnzeTDPpXC"
   points="539.4,414.4 550.2,414.4 550.2,445.9 539.4,445.9 528.6,445.9 528.6,414.4 " />

		<polyline
   id="polyline2468_1_"
   class="NnzeTDPpXC"
   points="539.4,430.1 539.4,414.4 539.4,445.9 550.2,445.9 550.2,435.5 528.6,435.5     528.6,424 550.2,424.2   " />

		<polygon
   id="polygon2470_1_"
   class="NnzeTDPpXC"
   points="484.3,485.2 473.5,485.2 462.7,485.2 462.7,453.7 473.5,453.7 484.3,453.7 " />

	</g>

	<polygon
   id="polygon2474_1_"
   class="NnzeTDPpXC"
   points="506.3,453.7 517.1,453.7 517.1,485.2 506.3,485.2 495.5,485.2 495.5,453.7 " />

	<polyline
   id="polyline2476_1_"
   class="NnzeTDPpXC"
   points="506.3,469.5 506.3,453.7 506.3,485.2 517.1,485.2 517.1,474.8 495.5,474.8    495.5,463.4 517.1,463.5  " />

	<polygon
   id="polygon2478_1_"
   class="NnzeTDPpXC"
   points="539.3,453.7 550.1,453.7 550.1,485.2 539.3,485.2 528.5,485.2 528.5,453.7 " />

	<polyline
   id="polyline2480_1_"
   class="NnzeTDPpXC"
   points="539.3,469.5 539.3,453.7 539.3,485.2 550.1,485.2 550.1,474.8 528.5,474.8    528.5,463.4 550.1,463.5  " />

	<rect
   id="rect2482_1_"
   x="631.59998"
   y="497.70001"
   class="NnzeTDPpXC"
   width="100.5"
   height="7.6999998" />

	<rect
   id="rect2484_1_"
   x="637.40002"
   y="490"
   class="NnzeTDPpXC"
   width="90"
   height="7.8000002" />

	<rect
   id="rect2486_1_"
   x="642.90002"
   y="483.29999"
   class="NnzeTDPpXC"
   width="79"
   height="6.6999998" />

	<rect
   id="rect2488_1_"
   x="642.90002"
   y="427.20001"
   class="NnzeTDPpXC"
   width="78.300003"
   height="13.1" />

	<rect
   id="rect2490_1_"
   x="646.79999"
   y="402.39999"
   class="NnzeTDPpXC"
   width="70.199997"
   height="18.700001" />

	<rect
   id="rect2492_1_"
   x="645.79999"
   y="440.29999"
   class="NnzeTDPpXC"
   width="9.1999998"
   height="42.900002" />

	<rect
   id="rect2494_1_"
   x="655"
   y="440.29999"
   class="NnzeTDPpXC"
   width="8.6999998"
   height="42.900002" />

	<rect
   id="rect2496_1_"
   x="710"
   y="440.29999"
   class="NnzeTDPpXC"
   width="9.1999998"
   height="42.900002" />

	<rect
   id="rect2498_1_"
   x="701.29999"
   y="440.29999"
   class="NnzeTDPpXC"
   width="8.6999998"
   height="42.900002" />

	<polygon
   id="polygon2500_1_"
   class="NnzeTDPpXC"
   points="682,444 696.3,444 696.3,483.3 668.3,483.3 668.3,444 " />

	<rect
   id="rect2502_1_"
   x="651.59998"
   y="421.10001"
   class="NnzeTDPpXC"
   width="7.6999998"
   height="6.0999999" />

	<rect
   id="rect2504_1_"
   x="705.40002"
   y="421.10001"
   class="NnzeTDPpXC"
   width="7.6999998"
   height="6.0999999" />

	<ellipse
   id="ellipse2506_1_"
   class="NnzeTDPpXC"
   cx="684.59998"
   cy="342.10001"
   rx="17.5"
   ry="18.700001" />

	<ellipse
   id="ellipse2508_1_"
   class="NnzeTDPpXC"
   cx="684.59998"
   cy="341.60001"
   rx="12"
   ry="12.8" />

	<polyline
   id="polyline2510_1_"
   class="wvwBTQqkLx"
   points="683.9,291.2 683.9,283.2 683.9,262.7  " />

	<polygon
   id="polygon2512_1_"
   class="NnzeTDPpXC"
   points="712.8,266 701.6,274.7 712.8,283.4 683.9,283.2 683.9,266 " />

</g>
</svg>
