<?xml version="1.0" encoding="utf-8"?>
<!-- Generator: Adobe Illustrator 25.0.1, SVG Export Plug-In . SVG Version: 6.00 Build 0)  -->
<svg version="1.1" xmlns="http://www.w3.org/2000/svg" xmlns:xlink="http://www.w3.org/1999/xlink" x="0px" y="0px"
	 viewBox="0 0 1280 720" style="enable-background:new 0 0 1280 720;" xml:space="preserve">
<style type="text/css">
	.st0{fill:#F7EFE2;}
	.st1{fill:none;stroke:#FF0020;stroke-width:16;stroke-miterlimit:10;stroke-dasharray:30.47,20.31;}
	.st2{fill:none;stroke:#FF81E7;stroke-width:16;stroke-miterlimit:10;stroke-dasharray:30.47,20.31;}
	.st3{fill:none;stroke:#00FFA9;stroke-width:16;stroke-miterlimit:10;stroke-dasharray:29.94,19.96;}
	.st4{fill:#D8E5A5;}
	.st5{fill:#A8E0A1;}
	.st6{fill:#FFF3AE;}
	.st7{fill:#6000FF;}
	.st8{fill:#FF81E7;}
	.st9{fill:#FFFFFF;stroke:#FFFFFF;stroke-width:2;stroke-miterlimit:10;}
	.st10{fill:#0097DD;}
	.st11{fill:#FF76EB;}
	.st12{fill:#FFFFFF;}
	.st13{stroke:#000000;stroke-miterlimit:10;}
	.st14{fill:#FB6700;}
	.st15{fill:none;stroke:#FF0020;stroke-width:16;stroke-miterlimit:10;}
	.st16{fill:none;stroke:#FF0020;stroke-width:16;stroke-miterlimit:10;stroke-dasharray:29.82,19.88;}
	.st17{fill:none;stroke:#FF0020;stroke-width:16;stroke-miterlimit:10;stroke-dasharray:29.73,19.82;}
	.st18{fill:#6DFC6D;}
	.st19{fill:#00FFA9;}
	.st20{fill:#754C24;}
	.st21{fill:#FF0020;}
	.st22{fill:#FDFF00;}
	.st23{fill:#EB7000;}
	.st24{fill:none;}
	.st25{fill:#231F20;}
	.st26{fill:#FF00BD;stroke:#FF00BD;stroke-width:0.5;stroke-miterlimit:10;}
	.st27{opacity:0.59;}
	.st28{fill:none;stroke:#F7EFE2;stroke-width:50;stroke-miterlimit:10;}
	.st29{fill:none;stroke:#00FFA9;stroke-width:50;stroke-miterlimit:10;}
	.st30{fill:#F0ED00;}
	.st31{fill:none;stroke:#000000;stroke-miterlimit:10;}
	.st32{fill:#01140D;}
	.st33{fill:#F9C6CA;}
	.st34{fill:#FFFFFF;stroke:#000000;stroke-width:2;stroke-miterlimit:10;}
	.st35{stroke:#000000;stroke-width:0.25;stroke-miterlimit:10;}
	.st36{fill:#FFD400;}
	.st37{fill:#B9FCF7;}
	.st38{fill:#55FFEE;}
	.st39{fill:#FFFFFF;stroke:#FFFFFF;stroke-miterlimit:10;}
	.st40{fill:none;stroke:#00FFA9;stroke-width:2;stroke-miterlimit:10;}
	.st41{fill:#00FFA9;stroke:#00FFA9;stroke-width:2;stroke-miterlimit:10;}
	.st42{fill:#8E5F53;}
	.st43{fill:#634137;}
	.st44{fill:#F6A9CB;}
	.st45{fill:none;stroke:#6000FF;stroke-miterlimit:10;}
	.st46{fill:none;stroke:#F0ED00;stroke-miterlimit:10;}
	.st47{fill:none;stroke:#F0ED00;stroke-width:2;stroke-miterlimit:10;}
	.st48{fill:#A5A5A5;}
	.st49{fill:#7C7C7C;}
	.st50{display:none;}
	.st51{display:inline;}
	.st52{fill:none;stroke:#000000;stroke-width:2;stroke-miterlimit:10;}
	.st53{font-family:'IBMPlexMono-Text';}
	.st54{font-size:20px;}
	.st55{display:inline;fill:#FFFFFF;stroke:#231F20;stroke-width:2;stroke-miterlimit:10;}
	.st56{display:inline;opacity:0.12;fill:#0097DD;}
	.st57{display:inline;opacity:0.12;fill:#FF76EB;}
	.st58{display:inline;fill:#FF0020;}
	.st59{display:inline;fill:#6000FF;}
	.st60{display:inline;fill:#FF76EB;}
	.st61{display:inline;fill:#FDFF00;}
	.st62{display:inline;fill:#FB6700;}
	.st63{display:inline;fill:#FFFFFF;}
	.st64{display:inline;stroke:#000000;stroke-miterlimit:10;}
	.st65{display:inline;fill:#FFD400;}
	.st66{display:inline;fill:#EB7000;}
	.st67{display:inline;fill:#231F20;}
	.st68{display:inline;fill:#00FFA9;}
	.st69{display:inline;opacity:0.35;fill:#0097DD;}
	.st70{display:inline;opacity:0.35;}
	.st71{display:inline;opacity:0.35;fill:#0097DD;stroke:#0097DD;stroke-width:3;stroke-miterlimit:10;}
	.st72{fill:none;stroke:#000000;stroke-width:3;stroke-miterlimit:10;}
	.st73{fill:#606060;}
</style>
<g id="Layer_5">
	<rect x="-12.9" y="-743.3" class="st0" width="3863.3" height="2193"/>
</g>
<g id="Layer_9">
	<path class="st3" d="M1228.8,657.7c7.1-28.3,11.2-74,58.1-59.5c73.2,22.7,122.9-55.3,178.5-44.3c77.2,15.3,121-33.6,157.8-61.8
		c21.3-16.3,81-46.4,127.7-34.4c43.9,11.2,76.3,19.4,122.3-25.2c31.1-30.2,60.2-16.2,72.7-22.2c23.7-11.3,45.2-26.9,63.2-46"/>
	<path class="st3" d="M13.3,130.6C41.9,96.7,78,37,132.4,88.2c84.9,79.8,204.7,6.5,273.3,58.7c95.2,72.4,187.7,34.9,256.8,20.9
		c40-8.1,141.5-9.3,197.3,38.2c52.5,44.7,91.2,77.5,183.9,47.2c62.7-20.5,93.1,18,114.1,18.2c40,0.4,79.6-6.6,117-20.6"/>
</g>
<g id="Layer_11">
	<path class="st4" d="M1280,660.1L1280,660.1c0,33.1-26.8,59.9-59.9,59.9H919c-8.2,0-14.8,6.6-14.8,14.8v106.6h1v295.4
		c0,8.2-6.6,14.8-14.8,14.8H272.1c-8.2,0-14.8-6.6-14.8-14.8V856.1c0-8.2,6.6-14.8,14.8-14.8h219.6c8.2,0,14.8-6.6,14.8-14.8V693.3
		c0-1.5-0.2-3-0.7-4.5c-1.4-4.4-2.2-9.1-2.2-13.9v-14.8c0-33.1,26.8-59.9,59.9-59.9h656.8C1253.2,600.3,1280,627.1,1280,660.1z"/>
	<path class="st7" d="M816,708c1.8-2.4,1.5-5.6-0.4-7.2c-2.2-1.9-5.6-0.6-7.2,0.9c-1.4,1.2-2.8,3.6-2.1,5.8c0.8,2.6,4.2,4.4,7.9,3.3
		c-2.5-0.4-5,0.8-6.2,2.8c-1.5,2.6-0.6,5.8,1.4,7.6c2,1.8,5.1,2.2,7.2,0.9c2.8-1.7,3.7-6.3,1.1-9.9c0.6,0.9,1.9,2.8,4.2,3.9
		c2.8,1.3,7.5,1.5,8.8-1.1c1.1-2.1-0.3-5.7-3-7c-2.7-1.4-6.4-0.4-8.5,2.6c4.7-0.7,7.4-3.7,7-5.8c-0.3-2-3.5-3.9-6.3-3.2
		C817.5,702.4,815.6,705.1,816,708z"/>
	<path class="st7" d="M1048,643.6c1.8-2.4,1.5-5.6-0.4-7.2c-2.2-1.9-5.6-0.6-7.2,0.9c-1.4,1.2-2.8,3.6-2.1,5.8
		c0.8,2.6,4.2,4.4,7.9,3.3c-2.5-0.4-5,0.8-6.2,2.8c-1.5,2.6-0.6,5.8,1.4,7.6c2,1.8,5.1,2.2,7.2,0.9c2.8-1.7,3.7-6.3,1.1-9.9
		c0.6,0.9,1.9,2.8,4.2,3.9c2.8,1.3,7.5,1.5,8.8-1.1c1.1-2.1-0.3-5.7-3-7c-2.7-1.4-6.4-0.4-8.5,2.6c4.7-0.7,7.4-3.7,7-5.8
		c-0.3-2-3.5-3.9-6.3-3.2C1049.4,637.9,1047.6,640.6,1048,643.6z"/>
	<path class="st7" d="M1016.7,691.3c1.8-2.4,1.5-5.6-0.4-7.2c-2.2-1.9-5.6-0.6-7.2,0.9c-1.4,1.2-2.8,3.6-2.1,5.8
		c0.8,2.6,4.2,4.4,7.9,3.3c-2.5-0.4-5,0.8-6.2,2.8c-1.5,2.6-0.6,5.8,1.4,7.6c2,1.8,5.1,2.2,7.2,0.9c2.8-1.7,3.7-6.3,1.1-9.9
		c0.6,0.9,1.9,2.8,4.2,3.9c2.8,1.3,7.5,1.5,8.8-1.1c1.1-2.1-0.3-5.7-3-7c-2.7-1.4-6.4-0.4-8.5,2.6c4.7-0.7,7.4-3.7,7-5.8
		c-0.3-2-3.5-3.9-6.3-3.2C1018.1,685.6,1016.3,688.4,1016.7,691.3z"/>
	<path class="st7" d="M912,629.5c1.6-2.1,1.3-5-0.3-6.4c-2-1.7-4.9-0.5-6.4,0.8c-1.2,1.1-2.5,3.2-1.9,5.1c0.7,2.3,3.8,3.9,7,3
		c-2.2-0.3-4.4,0.7-5.5,2.5c-1.3,2.3-0.5,5.1,1.2,6.7c1.8,1.6,4.5,2,6.4,0.8c2.4-1.5,3.3-5.6,0.9-8.7c0.5,0.8,1.6,2.5,3.7,3.4
		c2.5,1.1,6.6,1.3,7.8-0.9c1-1.9-0.3-5-2.7-6.2c-2.4-1.2-5.7-0.3-7.5,2.3c4.2-0.6,6.5-3.3,6.2-5.1c-0.3-1.8-3.1-3.5-5.6-2.8
		C913.3,624.5,911.7,626.9,912,629.5z"/>
	<path class="st7" d="M938.7,674.9c1.8-2.4,1.5-5.6-0.4-7.2c-2.2-1.9-5.6-0.6-7.2,0.9c-1.4,1.2-2.8,3.6-2.1,5.8
		c0.8,2.6,4.2,4.4,7.9,3.3c-2.5-0.4-5,0.8-6.2,2.8c-1.5,2.6-0.6,5.8,1.4,7.6c2,1.8,5.1,2.2,7.2,0.9c2.8-1.7,3.7-6.3,1.1-9.9
		c0.6,0.9,1.9,2.8,4.2,3.9c2.8,1.3,7.5,1.5,8.8-1.1c1.1-2.1-0.3-5.7-3-7c-2.7-1.4-6.4-0.4-8.5,2.6c4.7-0.7,7.4-3.7,7-5.8
		c-0.3-2-3.5-3.9-6.3-3.2C940.2,669.2,938.3,671.9,938.7,674.9z"/>
	<path class="st7" d="M633.6,685c1.8-2.4,1.5-5.6-0.4-7.2c-2.2-1.9-5.6-0.6-7.2,0.9c-1.4,1.2-2.8,3.6-2.1,5.8
		c0.8,2.6,4.2,4.4,7.9,3.3c-2.5-0.4-5,0.8-6.2,2.8c-1.5,2.6-0.6,5.8,1.4,7.6c2,1.8,5.1,2.2,7.2,0.9c2.8-1.7,3.7-6.3,1.1-9.9
		c0.6,0.9,1.9,2.8,4.2,3.9c2.8,1.3,7.5,1.5,8.8-1.1c1.1-2.1-0.3-5.7-3-7c-2.7-1.4-6.4-0.4-8.5,2.6c4.7-0.7,7.4-3.7,7-5.8
		c-0.3-2-3.5-3.9-6.3-3.2C635,679.3,633.2,682,633.6,685z"/>
	<path class="st7" d="M1199.6,679.8c1.8-2.4,1.5-5.6-0.4-7.2c-2.2-1.9-5.6-0.6-7.2,0.9c-1.4,1.2-2.8,3.6-2.1,5.8
		c0.8,2.6,4.2,4.4,7.9,3.3c-2.5-0.4-5,0.8-6.2,2.8c-1.5,2.6-0.6,5.8,1.4,7.6c2,1.8,5.1,2.2,7.2,0.9c2.8-1.7,3.7-6.3,1.1-9.9
		c0.6,0.9,1.9,2.8,4.2,3.9c2.8,1.3,7.5,1.5,8.8-1.1c1.1-2.1-0.3-5.7-3-7c-2.7-1.4-6.4-0.4-8.5,2.6c4.7-0.7,7.4-3.7,7-5.8
		c-0.3-2-3.5-3.9-6.3-3.2C1201.1,674.1,1199.3,676.8,1199.6,679.8z"/>
</g>
<g id="Layer_1">
	<g>
		<g>
			<g>
				<path class="st5" d="M1434,226.6c-0.2-0.7-0.6-1.4-0.9-2.1c0,0,0,0,0,0c-19.4,0.8-38.9,2.1-58.6,4.7c-29,4-57,5-86,12
					c-22,5.7-42.5,13.7-61.9,23.6c-4.6,2.3-8.3,6-10.7,10.5c-8.9,16.7-15.7,34.4-20.9,52.8c-0.5,1.7-0.8,3.4-0.9,5.1
					c-7.4,107,39,236.8,80.9,242.4c24.6,3.2,57.9-35.1,67.2-69.9c7.3-27.2-4-36.8-3.3-90.5c0.5-41.3,0.8-62,12-79.9
					c21.3-34,54.8-28.4,74.6-67.2C1429.8,259.4,1438.9,241.6,1434,226.6z"/>
				<path class="st20" d="M1302.1,520.6h-25.9v2.6h25.9V520.6z"/>
				<path class="st20" d="M1300.1,478.6h-26v2.6h26V478.6z"/>
				<path class="st20" d="M1300.9,436.6H1275v2.6h25.9V436.6z"/>
				<path class="st20" d="M1298.9,394.6H1273v2.6h25.9V394.6z"/>
				<path class="st20" d="M1300.2,352.8h-25.9v2.6h25.9V352.8z"/>
				<path class="st20" d="M1298.2,310.8h-26v2.6h26V310.8z"/>
				<path class="st20" d="M1299,268.8h-26v2.6h26V268.8z"/>
			</g>
		</g>
	</g>
	<path class="st4" d="M1805.8,3.6H1218c-37,0-67-30-67-67V-306c0-37,30-67,67-67h587.8c37,0,67,30,67,67v242.6
		C1872.8-26.4,1842.8,3.6,1805.8,3.6z"/>
	<g id="Layer_8">
	</g>
	<g>
		<path class="st12" d="M13.2,102.8c3.1-10.4,15.1-11.5,20.9-23.7C47.3,52,61.2,69.5,64,57.5c1.5-6.3,3.4-9.5,6.7-12.4
			c7.1-6.4,27.6,2.7,54.3,7.9c7.7,1.5,19.4,4.5,54.8,0.2c9.9-1.2,13.2-6.9,25.1-9.6c7.4-1.7,28-6.5,35.5,2.5
			c4.4,5.3,0.4,10.6,3.7,16.7c4.1,7.7,22.3-0.9,33.7-0.8c6.4,0.1,16.8,6.5,22.1,9.9c18.7,11.9,11.2,55.1-7.3,70.4
			c-7.2,5.9-17.4,7.7-56.9,0.5c-52.9-9.6-57.4-16.7-83-20.3c-66.5-9.1-105.8,29.8-129.5,8.1C16.2,124.3,10.4,112.4,13.2,102.8z"/>
		<g>
			<path class="st10" d="M235.5,74.1c9,0,16.3-6.8,16.3-15.1s-7.3-15.1-16.3-15.1c-9,0-16.3,6.8-16.3,15.1S226.5,74.1,235.5,74.1z"
				/>
			<path class="st12" d="M227.3,60.7c0.1,5.8,8.7,11.2,14.8,8.6c1.8-0.8,3.3-2.2,4.3-3.9c1-1.7,1.4-3.7,1.2-5.7
				c-0.1-1.4-0.6-2.7-1.4-3.8c-0.7-0.9-1.4-1.8-2.3-2.5c-1.1-0.9-2.5-1.5-3.9-1.8C234,50,227.3,55.5,227.3,60.7z"/>
			<path class="st13" d="M238.6,51.5c-2.1,1.8-2.8,5.8-1.4,9.9c1.3,4,4.2,6.8,7,7c3-2.7,5.3-7.1,3.2-11c0-0.1-0.2-0.4-0.2-0.5
				c-0.2-0.3-0.4-0.7-0.6-1c-0.5-0.9-1.2-1.7-2.1-2.3c-1.1-0.8-2.2-1.4-3.5-1.8c-0.4-0.1-0.9-0.2-1.3-0.3
				C239.3,51.4,238.9,51.4,238.6,51.5z"/>
			<path class="st10" d="M271.2,74.1c9,0,16.3-6.8,16.3-15.1s-7.3-15.1-16.3-15.1c-9,0-16.3,6.8-16.3,15.1S262.2,74.1,271.2,74.1z"
				/>
			<path class="st12" d="M263.1,61.2c0.1,5.8,8.7,11.2,14.8,8.6c1.8-0.8,3.3-2.2,4.3-3.9c1-1.7,1.4-3.7,1.2-5.7
				c-0.1-1.4-0.6-2.7-1.4-3.8c-0.7-0.9-1.4-1.8-2.3-2.5c-1.2-0.9-2.5-1.5-3.9-1.9C269.7,50.5,263,55.9,263.1,61.2z"/>
			<path class="st13" d="M274.3,52c-2.1,1.8-2.8,5.8-1.4,9.9c1.3,4,4.2,6.8,7,7c3-2.7,5.3-7.1,3.2-11c-0.1-0.2-0.2-0.3-0.2-0.5
				c-0.2-0.3-0.4-0.7-0.6-1c-0.5-0.9-1.2-1.7-2.1-2.3c-1.1-0.8-2.2-1.4-3.5-1.8c-0.4-0.1-0.9-0.2-1.3-0.3
				C275,51.9,274.7,51.9,274.3,52z"/>
			<path class="st21" d="M231.9,78.6c4.1,2.9,8.7,4.9,13.6,5.9c13.8,2.8,25-3.5,28-5.4c-1,1.7-2.2,3.2-3.6,4.5
				c-7.4,6.8-19.6,7-28.5,2.7C237.7,84.5,234.4,81.9,231.9,78.6z"/>
			<path class="st26" d="M184,68.5c7,6.2,13.9,12.8,22.1,17.3c1.4,0.8,2.6-1.4,1.2-2.2c-8-4.4-14.7-11-21.5-17
				C184.5,65.6,182.8,67.4,184,68.5L184,68.5z"/>
			<path class="st26" d="M206.5,86l8.2,9.4c0.2,0.2,0.6,0.3,0.9,0.3c0.3,0,0.6-0.2,0.9-0.4c0.2-0.2,0.3-0.6,0.3-0.9
				c0-0.3-0.1-0.6-0.4-0.9c-2.7-3.1-5.4-6.3-8.2-9.4c-0.2-0.2-0.6-0.4-0.9-0.3c-0.3,0-0.6,0.2-0.9,0.4c-0.2,0.2-0.3,0.6-0.3,0.9
				C206.1,85.5,206.2,85.8,206.5,86z"/>
			<path class="st26" d="M208,87c4.2,1.8,8.8,2.7,13.4,2.7c1.6,0,1.5-2.5-0.1-2.5c-4.2,0-8.3-0.9-12.1-2.4c-0.3-0.1-0.6-0.2-1-0.1
				c-0.3,0.1-0.6,0.3-0.7,0.6c-0.1,0.3-0.2,0.6-0.1,1C207.5,86.6,207.7,86.8,208,87z"/>
			<path class="st26" d="M208.9,85.7c3.7-0.8,7.3-1.8,10.8-3c0.2,0,0.3-0.1,0.5-0.2c0.1-0.1,0.2-0.2,0.3-0.4
				c0.1-0.1,0.1-0.3,0.1-0.5c0-0.2,0-0.3-0.1-0.5c-0.1-0.2-0.1-0.3-0.2-0.4s-0.2-0.2-0.4-0.3c-0.2-0.1-0.3-0.1-0.5-0.1
				c-0.2,0-0.3,0-0.5,0.1c-3.5,1.2-7.2,2.2-10.8,3c-0.3,0.1-0.6,0.3-0.7,0.6c-0.2,0.3-0.2,0.6-0.1,1c0.1,0.3,0.3,0.6,0.6,0.7
				C208.2,85.8,208.6,85.8,208.9,85.7z"/>
		</g>
	</g>
</g>
<g id="Layer_2">
	<path class="st22" d="M1502.9,13.5h-159.2c-17.9,2.4-39.8-3.9-56.8,3.3c-2.2,0.9-4.2,2.1-6.1,3.4c-7,5.2-12.2,12.3-15.1,20.5
		c-0.4,1.3-0.8,2.6-1.1,4c-0.6,2.8-0.9,5.7-0.9,8.5v167.5c0,8.5,2.7,16.8,7.8,23.7c5.1,6.9,12.2,11.9,20.4,14.4
		c-4.8-1.8-9.3-4.5-13.2-7.9c3.9,3.4,8.3,6.1,13.2,7.9c3.8,1.2,7.7,1.7,11.6,1.7h199.4c5.2,0,10.4-1,15.2-3c4.8-2,9.2-4.9,12.9-8.6
		c3.7-3.7,6.6-8.1,8.6-12.9c2-4.8,3-10,3-15.2V53.4c0-5.2-1-10.4-3-15.2c-2-4.8-4.9-9.2-8.6-12.9c-3.7-3.7-8.1-6.6-12.9-8.6
		C1513.3,14.5,1508.1,13.5,1502.9,13.5z"/>
	<g>
		<path class="st10" d="M-37.5,865.4c-11.2-33.8,56-231.9,79.8-261.8c11.7-14.7,30.2-37.9,60.8-53.3c72.7-36.7,111,22.2,263,26.7
			c24.5,0.7,59.2,0.3,90.4,23c21.2,15.4,22.9,28.6,43.7,51.1c37.9,40.9,35.9,124.6,34.2,159c-0.7,14.8-5.7,29.1-14.3,41.2
			c-29.9,41.5-109.2,110.6-245.6,115.1C127.1,971.2-21,915.4-37.5,865.4z"/>
		<path class="st18" d="M21.8,325.9c2.8-1.6,3.3-2.9,0.6-5.2c3.7,0.4,4.1-0.3,1.5-2.5c3.2,1.2,3.5,0.7,1.3-1.4
			c3.1,0.9,3.8,0.1,2.8-1.9c1.2,1.5,0.8,1.8-2.4,1.5c2.6,0.7,3.4,0,3-1.8c1.8,0.5,2.3,0,0.7-0.6c1.3-0.1,2.1-0.3,2.2-0.6
			c0.1-0.3-0.5-0.6-2-1.1c3.6,0.2,3.7-0.3,0.6-1.8c3.7,1,4.3,0.9,0.6-1.1c4.1,1.5,4.1,1,0.9-1.3c4.3,2.5,4.6,2.3,1.4-1.4
			c3.3,2.5,3.9,2.6,1.6-1.1c1.7,1.6,2.6,2.2,3,2c0.1-0.1,0.2-0.5,0-1c-0.1-0.8-0.4-1.5-0.9-2.2c0.9,0.6,1.5,1.1,1,1.8
			c1,0.1,1,0.4,0.3,0.8c1.3-0.5,1.9-1,0-0.6c1.8-1.2,1-1.6-1.1-1.9c2.6,0,3.8,0.2,1.1,1.8c3.2-0.9,2.5-0.2,0.3,1
			c2.7-1.3,4.1-2,0.3-0.2c3.9-2.1,2.6-1.7-0.7-0.5c3.3-1.3,4.7-1.8,0.7,0.4c4-1.9,2.6-1.2-0.3,0.2c2.5-1.4,3.4-2-0.2-0.9
			c3.2-1.8,1.9-1.8-1.1-1.6c2.6-0.1,3.7,0.2,1.1,1.7c2.7-0.8,1.9-0.2,0,0.6c1.6-0.9,2.1-1.3-0.2-0.9c1.9-1.3,1-1.7-1.1-1.9
			c1.9,0.5,2.7,1,1.3,2.2c1.8-0.2,1.4,0.2,0.2,0.8c1.2-0.6,1.6-1.1-0.2-0.8c1.5-1.3,0.7-1.8-1.3-2.2c2.2,0.2,3.2,0.5,1.1,1.9
			c2.5-0.5,1.9,0,0.2,0.9c2-1,2.9-1.5,0-0.6c2.8-1.6,1.7-1.8-1.1-1.6c3.1-0.4,4.6-0.5,1.1,1.4c3.8-1.3,2.8-0.6,0.2,0.9
			c3-1.5,4.4-2.2,0.3-0.2c4.2-2.2,2.8-1.7-0.6-0.3c3.2-1.2,4.4-1.6,0.8,0.6c3.6-1.8,2.4-1.1-0.2,0.3c2.2-1.3,3.1-2-0.2-0.9
			c3-1.9,1.7-1.9-1.2-1.7c3-0.3,4.4-0.3,1.2,1.7c3.6-1.2,2.6-0.5,0.3,0.9c2.8-1.5,4.1-2.3,0.3-0.2c3.9-2.3,2.6-1.9-0.7-0.4
			c3.1-1.4,4.3-1.9,0.2-0.3c3.7-2,2.1-1.9-1.2-1.6c2.8-0.6,3.9-1.1,0.1-0.8c3.6-1.3,2.2-1.9-0.7-2.7c3,0.6,4.4,1,0.6,2.1
			c4-0.2,2.9,0.4,0,1.3c2.6-0.6,4.1-0.9,0.5,0.4c5.2-1.5,5.3-1.4,0.3,0.5c3.8-1.3,2.5-0.8-0.2,0.3c3.2-1.2,5-1.9,0.5,0.1l2.7-1.1
			c0.7-0.3,1.2-0.5,1.2-0.8c1.2-0.1,1.3-0.1,0,0.1c0.1,0.3-0.4,0.6-1,0.9c-0.7,0.4-1.5,0.8-2.6,1.3c4.8-2.1,3.1-1.3-0.2,0.3l2.4-1.1
			c0.4-0.2,0.8-0.4,1.1-0.6c0.2-0.1,0.1,0-0.4,0.3l-2.7,1.4l1.9-1c0.5-0.2,0.9-0.5,1.3-0.9c1.3-0.4,2-0.8,0.7-1.7
			c1.6,0.1,2.3,0.1,0.6-0.6c1.7,0.7,1.1,0.6-0.5,0.4c1.5,1,0.9,1.4-0.7,1.7c0,0.4-0.4,0.6-0.9,1c-0.5,0.4-1.2,0.7-1.9,1.1
			c0.7-0.4,1.5-0.8,2.1-1.2c0.6-0.4,1-0.8,0.8-1.3c1.2-0.2,1.8-0.4,0.8-1.3c1.6,0.1,1.4-0.4,0.5-1.2c1.6,0.4,2.5,0.5,1-0.9
			c2.1,0.9,1.9,0.4,0.6-0.9c1.6,0.9,2.3,1.2,0.8-0.4c1.8,1.3,1.4,0.6,0.3-0.5c1.7,1.3,2.5,1.8,0.7-0.2c2,2,1.4,1.3,0-0.3
			c1.5,1.5,2.1,2.1,0.5,0c1.9,2,1.5,1.2,0.3-0.5c1.1,1.2,1.7,1.7,0.8-0.2c1.4,1.7,1.4,1.1,0.8-0.6c1.1,1.4,1.6,1.8,1.2-0.2
			c1.1,1.6,1.2,0.9,1.2-0.5c0.7,0.9,1.3,1.2,1.7-0.1c0.7,1.1,1.2,0.7,1.8-0.2c0.3,0.2,0.6,0.3,0.9,0.3s0.6-0.1,0.9-0.3
			c0.7-0.4,1.4-0.8,2.1-1.2c-0.6,0.4-1.2,0.8-1.8,1.1c-0.5,0.3-1,0.4-1.4,0.2c-0.9,1.2-1.6,1.4-2.3,0c-0.2,1.4-0.3,2-0.6,0.3
			c0.3,1.7,0.5,1.1,0.8-0.3c0.7,1.2,1.3,0.9,2.2-0.1c0.5-0.1,1-0.3,1.3-0.6c0.5-0.3,1-0.7,1.6-1.2c-1.1,0.8-1.9,1.3-2.3,1.6
			c-0.4,0.3-0.5,0.3-0.4,0.1c0.1,0,0.5-0.2,1-0.6l1.9-1.5c-2.5,1.9-3.8,2.8-0.5,0c-1.2,0.9-2,1.6-2.6,2c-0.6,0.4-0.9,0.5-0.9,0.1
			c0,0.3,0.2,0.1,0.7-0.3c0.5-0.5,1.3-1.2,2.4-2.2c-3.1,2.6-1.9,1.4,0-0.4c-2,1.8-2.7,2.2-0.6-0.1c-2.1,1.9-1.4,1-0.2-0.5
			c-1.1,1.9-1.5,3,1.4,1.5c-2.3,2.5-1.2,2.4,1.5,1.2c-1.3,0.9-2.2,1.5-2.1,1.2c-0.3,0.9,0.5,0.7,2.5-0.1c-1.8,0.9-2.4,1.2-1.9,0.2
			c-0.1,0.9,1,0.5,2.4-0.1c-1,0.4-1.7,0.6-1.7,0.3c-0.3,0.3,0.1,0,1.2-0.6c-1.9,0.7-1.2,0.1-0.1-0.8c-0.9,0.9-1.4,1.5,0.3,1.1
			c-1.6,1-1.1,0.9,0.5,0.5c-2.2,1-1.3,0.5,0.1-0.4c-0.5,0.8,0.7,0.4,0.7-0.6c1-0.1,1.2-0.5,0.8-1.3c0.5-0.3,0.4-1,0-1.8
			c2.1,0.5,3.8,0.8,3.8-1.1c3,1.8,4.2,1.5,4.9-1.6c1.7,1.5,2.8,0.4,4.1-1.2c0.3,0.8,0.8,1.4,1.4,1.3c0.3,0.9,0.8,1.1,1.7,0.5
			c1,0.8,2.3,0.5,0.7-0.4c2.2,0.1,3.7,0,4.1-0.4c0.4-0.5-0.3-1.3-2.2-2.9c6.8,2.5,8.2,2.1,9-4.6c2.1,6.1,3.5,5.8,8.3,1.9
			c-0.9,1.6-1,2.4-0.5,2.5c0.4,0.1,0.8,0,1.2-0.2c0.4-0.2,0.6-0.5,0.8-0.9c1.1,0.9,2.6,0.6,0.8-0.9c3.9,0.6,4.6,0.1,2.1-2.7
			c4.4,2.1,6.1,2.3,6.4-2.8c2.8,4.8,4.1,4.3,7,0.3c-0.2,2.2,1.2,0.9,2.6-1c0,2.6,0.4,3.8,2.1,3.4c0,0.9,1.3,0.1,3.2-1.3
			c-1.6,2.5-0.9,2.4,1.1,0.8c-1,1.5-0.1,1.4,1.3,1c0.3,0.2,1.1,0.1,0.7-0.4c1.9,0.4,2.6,0.3,0.9-1.3c2.8,1.2,3.2,1,1.3-1.4
			c3.1,2.2,3.8,2.4,1.7-1.3c3.2,3.3,3.6,2.9,2.1-1.1c2.2,3.9,2.6,4.3,1.3-0.4c2,4.7,2.3,4.2,1.7-0.4c1.3,4.6,1.8,5,2.5-0.2
			c0.6,5.2,1.3,4.8,3.5,0.4c-0.6,4.3,0.3,4.6,3.7,1.4c-1.8,3-1.3,3.1,1.6,1c-1.6,2.1-1,2,1.1,1c-2.8,1.1-3.7,1.2-1.8-1.5
			c-3,2.7-3.2,2.6-0.7-0.4c-2.3,3-1.9,3.1,1.1,0.7c-1.7,2.3-0.8,2.2,1.5,1.3c-3.3,1.1-2.5,1,0,0c-1.8,0.6-1.8,0.2-1-1
			c0.4,1.1,1.6,1.4,1.8,1.3c0.3-0.2-0.4-0.8-2.1-2.1c1.4,0.7,2.8,1.2,4.3,1.5c2.1,0.2,3-1.1,3.3-5.1c0.5,1.4,1.3,2.8,2.2,3.9
			c0.3,0.3,0.7,0.5,1.1,0.6c0.4,0.1,0.9,0,1.2-0.3c1.3-0.8,2.5-1.8,3.5-2.9c-1,2.2-1.3,3.2-2,2.4c1.8,1.3,3.1,0.8,4.2-2.3
			c-0.3,3.1-0.8,3.6-2.7,1.4c2.3,2.4,3.2,2.1,3.3-1.5c-0.1,4.2,1,4.2,1.5-0.3c1.8,4.3,2.7,4.3,4.6-0.1c0.2,4.3,1.4,4.3,5,1.6
			c-4.5,2.7-6,2.7-6.7-1.7c-0.8,4.5-0.9,4.5-0.2,0c0.8,4.4,2.3,4.3,6.5,1.5c-4.4,2.8-5.9,2.9-6.6-1.5c-0.6,4.5-0.4,4.5,0.7,0
			c0.6,4.3,2.2,4.2,6.2,1.6c-4.5,2.5-5.8,2.4-5.4-1.6c-0.6,3.3,0.5,2.6,3.3,0.4c-2.2,2.1-2.8,2.9-1.4-0.1c-0.9,3.7,0.2,3.7,3.7,1.4
			c-3.4,2.3-4.4,2.2-3.6-1.4c-1.4,2.8-0.8,2.1,1.1,0c-2.4,2.1-3.4,2.8-2.7-0.3c-0.5,3.9,0.7,4,5,1.6c-4.9,2.6-6.8,2.8-7.1-1.6
			c-0.1,4.5,1.3,4.4,6.7,1.5c-5.3,2.9-6.6,3-6.3-1.5c0.2,4.4,2,4.2,6.7,1.6c-3.9,2.3-5,2.2-4.4-1.5c-0.9,2.7-0.1,1.8,1.6-0.1
			c-1.1,1.9-1.3,2.7,0.2,0.5c-0.8,3.2,0,3.3,2.7,1.2c-2.8,2.2-3.6,2-2.8-1.2c-1.5,2.2-1.3,1.3-0.2-0.5c-1.7,1.8-2.6,2.7-1.7,0.1
			c-0.6,3.6,0.5,3.6,4.3,1.4c-4.6,2.5-6.4,2.7-6.7-1.5c-0.2,4.1,1,3.8,5.7,1c-3.8,2.5-5.3,2.8-6.3-1c-0.5,4.2-0.3,4.2,0.5,0
			c0.9,4.1,2.6,3.9,6.5,1.4c-4.5,2.4-5.9,2.5-5.7-1.4c-0.3,3.3,1,2.7,4.1,0.5c-2.3,2.2-2.9,2.8-1.5-0.2c-0.8,3.5,0.3,3.4,3.3,1.2
			c-2.6,1.9-3.2,1.7-2.6-1.1c-1.2,1.5-1.1,0.5-0.7-1.1c-0.2,1.2,0.1,2.1,1.2,1.2c-0.2,2,0.4,2.3,2.2,1c-0.3,1.8,0.4,1.5,1.3,0.4
			c0.1-0.5,0.2-1,0.4-1.5c0.2-0.9,0.4-1.9,0.5-2.8c2,6.8,3.6,6.8,9.8,3c-1.2,1.9-1.2,2.8-0.6,3.3c0.6,0.4,2,0.4,2.3-0.3
			c-0.4,0.3-0.9,0.5-1.4,0.6c-0.5,0.1-1,0-1.5-0.3c-0.6-0.4-0.3-1.3,1.3-3.1c-5.3,3.6-5.2,3.6,0.3,0.2c-1.6,1.7-1.8,2.5-1.2,2.9
			c0.6,0.4,2,0.4,2.4-0.4c-0.3,0.3-0.6,0.5-1,0.6c-0.4,0.1-0.8,0.1-1.1-0.1c-0.3-0.2,0.3-0.8,2.1-1.8c-1.7,1-2.2,1.5-1.8,1.8
			c0.4,0.2,1.6,0.2,1.8-0.5c-0.2,0.7-0.6,0.8-0.8,0.7c0.5,0.1,1.4,0.1,0.8-0.6c2.2,0.8,3,0.8,1-1c3.9,1.9,4.9,1.9,2.6-2
			c0,3.9-1.2,3.9-3.2,2.6c2.7,1.3,4.6,1.4,4.1-3.1c2.7,4.5,2.9,4.5,0.5-0.2c3.8,4.8,4.8,4.8,6-1.2c0.7,2,1.3,3.4,0.6,3.9
			c2.4,1.2,3.3,1.5,0.2,0.7c5.7,0.7,7.1,0.3,3.8-5.1c4.6,5.9,4.7,6.4-3.2,5.3c3,0.6,5.1,1,6.7,1.2s2.5,0.4,1.3-0.4
			c2.5,1,2.9,1,0.5-0.5c3.1,1.5,3.4,1.5,0.6-0.6c4.1,2.3,5.1,2.3,3-2.2c5.2,4.7,7.4,4.9,15.1,1.2c-6.9,3.7-8.4,3.6-10.4-2.7
			c0.6,6.2,0.8,6.2,0.9-0.1c1.6,6.5,3.2,6.5,10,3.2c-6.6,3.4-7.2,3.4-3.8-2.3c-1.9,3.8-2.1,5.1-0.1,4.7c1.5-0.5,3-1.1,4.5-1.9
			c-2.3,1.6-3.3,2.3-3.3,2.3c0.4,0.3,1.7-0.2,3.9-1.9c-1.6,1.7-2.3,2.3-2.8,1.6c1,1,2.2,0.8,3.3-1.4c0,2.3,0,2.6-0.9,0.5
			c1.7,2.5,2.5,2.6,2.3-0.6c1.8,3.3,2.5,3.4,3.6-0.2c0.5,3.8,1.2,3.9,3.6,0.7c-0.4,1.7-0.5,2.5,0,2.7c0.5,0.2,1.4-0.4,2.7-1.5
			c-0.6,1.2-0.7,1.8-0.6,2c0.5,0.2,1.3-0.1,0.8-1c1,1,0.7,1.4-0.4,1.3c1.4,0.2,1.9,0.1,0.4-0.8c1.4,0.4,2.2,0.7,1.3,0.3
			c1,0.6,0.4,0.6-1.3,0.4c2.3,0.3,3.7,0.5,1.7-0.7c2.3,1.2,1.2,1-1.5,0.7c2.5,0.3,4.2,0.5,2.2-1.4c4,2.2,4.1,2.2,0.3-0.3
			c2.4,2.2,0.8,1.9-2,1.4c2.7,0.5,4.7,0.8,2.8-2.1c5.3,3.4,6.7,3.6,7.5-2.7c2,6.8,3.4,7.1,10.4,3.9c-3.6,3.8-1.6,4.1,2.7,4.3
			c-4.4-0.2-6.1-0.5-1.6-3c-5.9,2.2-5.7,2.3,0.3,0.5c-4,2.2-2.2,2.6,1.5,3c-3.9-0.4-5.1-0.6-0.8-1.8c-4,1.2-2.5,1.4,0.9,1.7
			c-2.8-0.3-3.6-0.5-0.7-1.5c-2.7,0.5-1.7,0.3,0.5,0c-2.3,0.9-1,1.6,0.4,1.4c0.3-0.3,0.5-0.6,0.7-0.9c0.4-0.8,0.6-1.6,0.7-2.5
			c2.7,5.3,4.4,5.7,10.2,2.8c-1.2,1.8-1.3,2.8-1.9,2.1c1.9,1.8,3.2,1.9,3.9-1.5c-0.2,4,0.3,4.2,0.4,0c1.3,4.5,2.1,4.7,2.4-0.3
			c1.3,5.4,2.1,5.6,5.2,0.6c-1.5,5.4-0.7,5.7,4,2.1c-3.3,3.5-2.7,3.3,0.6,0.3c-2.3,2.8-1.8,3.3,1.7,1.9c-2.8,1.6-2.5,1.5-0.2-0.5
			c-1.4,2.1-0.7,2.4,1.3,1.7c-0.7,0.2-0.1-0.4,0.5-1.5c0.1,1.3,0.4,2.2,0.6,2.4c0.2,0.2,0.7-0.4,1.4-2c0.4,4,1.7,3.8,4.9,1.2
			c-1.8,3.1-1.6,3.8,1.9,1.4c-2.5,3.3-1.7,3.5,2.2,2.1c-2.5,2.2-1.4,2.6,0.9,1.2c-1.3,1.4-0.6,1.8,0.8,1.4c-0.7,0.2-0.6-0.4-0.4-1.7
			c0.9,1.7,1.8,2.7,2.5,2.7c0.7,0,1.2-1,1.5-3.3c1.6,4.9,2.8,4.3,5.3,0.4c-0.8,4-0.4,5.2,4.3,2.8c-3.6,4.1-2.8,4.6,2.6,3.6
			c-3.2,1.4-1.8,1.4,0.9,1c-2,1.5-2.1,2.4,0,2.4c-1.6,0.7-1.2,1.2,0.2,0.1c-0.4,1.2,0.1,0.8,0.7-0.4c0,0.6,0.1,1.1,0.3,1.7
			c0.1,0.1,0.2-0.2,0.4-1.4c0.2,2.5,0.6,1.7,1.1-0.2c0,2.5,0.2,3.7,1.7,0.6c-0.4,3.5,0.5,2.6,2.1,0.2c-0.4,2.2-0.4,3.7,2.8,1.8
			c-2.5,4.2-1.8,4.9,3.5,3.7c-2.9,2.2-1.2,2.4,1.4,2.5c-1.3,0.6-2.2,1.2-2.2,1.6c-0.2,0.7,0.4,1.2,2.3,1.5c-1.9,0.6-2.4,1-1-0.2
			c-1.2,2-0.5,2.5,2.2,1.8c-2.8,1.5-3.1,2.1,0.6,1c-3.7,2.3-3.4,3,1.3,2.5c-4.3,2-4.2,2.7,0.6,3.6c-4.5,0.5-4.5,1.3-0.8,3.3
			c-3.7-0.3-3.8,0.7-2.1,3.1c-2.1-0.5-2.4,0.4-2.2,2c-0.8,0.3-1.3,1.2-1.8,2.2c-13,23.2-78,40.8-156.3,40.8
			c-84.5,0-153.5-20.5-158.4-46.4c-0.1-0.9-0.3-1.8-0.8-2.6C23.5,328.2,23.7,326.8,21.8,325.9z"/>
		<path class="st21" d="M35.7,644.6c-6.9-2.9-13.3-7.1-18.6-12.4c-5.3-5.3-9.5-11.6-12.4-18.6c-2.9-6.9-4.4-14.4-4.4-21.9l0-237.5
			c0-15.2,6-29.7,16.8-40.5C27.8,303,42.4,297,57.6,297H524c15.2,0,29.7,6,40.5,16.8c10.7,10.7,16.8,25.3,16.8,40.5v237.5
			c0,15.2-6,29.7-16.8,40.5c-10.7,10.7-25.3,16.8-40.5,16.8H57.6C50.1,648.9,42.6,647.5,35.7,644.6z"/>
		<path class="st0" d="M431.7,554.1c-8.8-3.6-16.7-8.9-23.4-15.7c-6.7-6.7-12-14.7-15.6-23.4c-3.6-8.8-5.5-18.1-5.5-27.6v-66
			c0-19.1,7.6-37.5,21.1-51c13.5-13.5,31.9-21.1,51-21.1h200.9c19.1,0,37.5,7.6,51,21.1c13.5,13.5,21.1,31.9,21.1,51v66
			c0,9.5-1.9,18.9-5.5,27.6c-3.6,8.8-8.9,16.7-15.6,23.4c-6.7,6.7-14.7,12-23.4,15.7c-8.8,3.6-18.1,5.5-27.6,5.5H459.3
			C449.8,559.6,440.5,557.8,431.7,554.1z"/>
		<path class="st18" d="M475.8,515.7c-8-3.3-15.4-8.2-21.5-14.4c-6.2-6.2-11-13.5-14.4-21.5c-3.3-8.1-5-16.7-5-25.4
			c0-17.6,7-34.5,19.4-46.9c12.4-12.4,29.3-19.4,46.9-19.4h105.3c8.7,0,17.3,1.7,25.4,5c8,3.3,15.4,8.2,21.5,14.4
			c6.2,6.2,11,13.5,14.4,21.5c3.3,8,5,16.7,5,25.4c0,8.7-1.7,17.3-5,25.4c-3.3,8.1-8.2,15.4-14.4,21.5c-6.2,6.2-13.5,11.1-21.5,14.4
			c-8,3.3-16.7,5.1-25.4,5.1H501.2C492.5,520.7,483.9,519,475.8,515.7z"/>
		<path class="st0" d="M488.4,485.6c-4-1.6-7.6-4-10.6-7.1c-3-3-5.4-6.6-7.1-10.6c-1.6-4-2.5-8.2-2.5-12.5c0-4.3,0.8-8.5,2.5-12.5
			c1.6-4,4-7.6,7.1-10.6c3-3,6.6-5.4,10.6-7.1c4-1.6,8.2-2.5,12.5-2.5h140.8c4.3,0,8.5,0.8,12.5,2.5c4,1.6,7.5,4,10.6,7.1
			c3,3,5.4,6.6,7.1,10.6c1.6,4,2.5,8.2,2.5,12.5c0,4.3-0.8,8.5-2.5,12.5c-1.6,4-4,7.6-7.1,10.6c-3,3-6.6,5.4-10.6,7.1
			c-4,1.6-8.2,2.5-12.5,2.5H500.9C496.6,488.1,492.3,487.3,488.4,485.6z"/>
		<path class="st28" d="M161.6,538.5c0,8.7-1.7,17.3-5.1,25.4s-8.2,15.4-14.4,21.5c-6.2,6.2-13.5,11-21.5,14.4c-8,3.3-16.7,5-25.4,5
			H78.3c-17.6,0-34.5-7-46.9-19.4C19,573,12,556.1,12,538.5V402.9c0-17.6,7-34.5,19.4-46.9c12.4-12.4,29.3-19.4,46.9-19.4h17
			c17.6,0,34.5,7,46.9,19.4c12.4,12.4,19.4,29.3,19.4,46.9V538.5L161.6,538.5z"/>
		<path class="st29" d="M153.4,523.7c0,8.7-1.7,17.3-5,25.4c-3.3,8-8.2,15.4-14.4,21.5c-6.2,6.2-13.5,11-21.5,14.4s-16.7,5-25.4,5
			c-8.7,0-17.3-1.7-25.4-5s-15.4-8.2-21.5-14.4c-6.2-6.2-11-13.5-14.4-21.5c-3.3-8-5-16.7-5-25.4V418.5c0-8.7,1.7-17.3,5.1-25.4
			c3.3-8,8.2-15.4,14.4-21.5c6.2-6.2,13.5-11,21.5-14.4s16.7-5,25.4-5c8.7,0,17.3,1.7,25.4,5s15.4,8.2,21.5,14.4
			c6.2,6.2,11,13.5,14.4,21.5c3.3,8,5.1,16.7,5.1,25.4V523.7L153.4,523.7z"/>
		<path class="st30" d="M290,452.7c-1.5-3.6-5.2-11.5-13.4-15c-0.4-0.2-0.7-0.3-1.1-0.4c-0.7-1.2-1.5-2.2-2.5-3.2
			c-4-3.8-13.6-7.4-20.2-10c-3.7-1.5-7.7-2.3-11.7-2.5c-1.5-5.8-7.5-21.4-15.8-37.7c-6.9-13.5-7.2-12.9-10.3-21.1
			c-0.3-0.7-0.6-1.6-1-2.6c1.7-1.3,3-3.1,3.8-5.2c0.7-2.1,0.8-4.3,0.3-6.4c-3.2,1-6.2,2.7-8.8,4.9c0.6-2.9,1.2-5.7,1.9-8.5l-4.2-0.6
			c0.1,3.5,0.1,7,0.2,10.4c-1.5,0.1-3,0.4-4.4,0.9c-2.8,1-5.4,2.6-7.5,4.7c-4.7,4.7-8.3,12.3-6.4,14.1c1.3,1.2,5-0.4,8.6-1.9
			c5.1-2.2,8.7-5.4,10.8-4.5c1.3,0.5,2.1,2.4,2.5,3.6c3.3,10.2,0,0,4.5,13.6c1.8,5.6,3.1,9.1,4.5,14.5c1.3,5.4,2.1,10.1,3.6,19.7
			c1,6.4,1.5,9.6,1.9,13.4c1.1,9.4,0.5,11.2,1.1,20.3c1.4,20.4,5.4,25.6,1.1,33c-1.8,3.1-4.8,5.6-3.9,7.5c1.1,2.3,7.7,2.5,9.7-0.3
			c1.6-2.2-0.2-5.9-0.8-7.5c-2.3-5.5-3.4-15.2,2.8-33.3c8.2,19.8,6.6,29.2,3,34.1c-1.1,1.6-4.1,4.9-3,6.7c1,1.7,5.5,1,9.4,0
			c-0.4-2.2-0.8-4.5-1.1-6.7c-1.6-11.3-1.8-22.8-0.6-34.1h21.1c4.2,17.9,1.4,27.3-2.2,32.7c-1.4,2.1-4.5,6.3-3.3,8
			c1.2,1.8,5.6,1,9.1,0c0-31.2,1.4-40.9,3.3-41.1c2.9-0.2,11.4,21.6,3.3,33.6c-1.7,2.5-4.5,5.2-3.6,6.9c1.1,2,6.6,1.1,11.4,0
			c-1-2.4-1.9-4.9-2.5-7.5c-1.9-7.8-0.9-13-0.8-24.1c0-3.2,0-7.8-0.3-13.4c-0.2-2.6-0.7-5.1-1.6-7.5c1.4,0.6,2.8,1.3,4.1,2.2
			C285.6,445.7,287.3,449.6,290,452.7z"/>
		<path class="st12" d="M204.3,358.9c-0.4-0.1-0.9-0.2-1.3-0.2s-0.9,0.2-1.3,0.4c-0.4,0.2-0.7,0.5-1,0.8c-0.3,0.3-0.4,0.8-0.5,1.2
			c0,0.3,0,0.7,0,1c0,0.4,0.2,0.8,0.4,1.1c0.3,0.5,0.8,0.9,1.4,1.1c0.6,0.2,1.2,0.2,1.7,0.1c1.9-0.6,2.8-3.5,1.7-4.8
			C205.1,359.3,204.7,359,204.3,358.9z"/>
		<path class="st13" d="M201,359.8c-0.1,0.1-0.2,0.2-0.2,0.3c-0.2,0.3-0.4,0.7-0.4,1.1c-0.1,0.3-0.1,0.6,0,0.9c0,0.1,0,0.3,0,0.3
			s0,0.2,0,0.2c0.2,0.6,0.6,1.1,1.1,1.4c0.5,0.3,1.1,0.5,1.7,0.4c0.3-0.4,0.4-0.9,0.5-1.4c0-0.5,0-1-0.2-1.5
			c-0.2-0.5-0.5-0.9-0.9-1.2c-0.4-0.3-0.8-0.6-1.3-0.7C201.1,359.7,201,359.7,201,359.8z"/>
		<path d="M188.9,580v50.2c1.6,0,3.1,0,4.7,0V580"/>
		<path class="st31" d="M188.9,580v50.2c1.6,0,3.1,0,4.7,0V580"/>
		<path d="M180.2,577.3v52.9c1.5-0.1,3.1-0.1,4.7-0.1v-52.9"/>
		<path class="st31" d="M180.2,577.3v52.9c1.5-0.1,3.1-0.1,4.7-0.1v-52.9"/>
		<path d="M171.4,574.7v55.8l4.7-0.1v-55.6"/>
		<path class="st31" d="M171.4,574.7v55.8l4.7-0.1v-55.6"/>
		<path d="M162.7,572v58.8l4.7-0.2V572"/>
		<path class="st31" d="M162.7,572v58.8l4.7-0.2V572"/>
		<path d="M154,569.4v61.8l4.7-0.2v-61.6"/>
		<path class="st31" d="M154,569.4v61.8l4.7-0.2v-61.6"/>
		<path d="M145.3,566.8V631c1.5,0,3.1,0.1,4.7,0.2v-64.4"/>
		<path class="st31" d="M145.3,566.8V631c1.5,0,3.1,0.1,4.7,0.2v-64.4"/>
		<path d="M136.5,564.1v66.8c1.6,0,3.1,0,4.7,0v-66.8"/>
		<path class="st31" d="M136.5,564.1v66.8c1.6,0,3.1,0,4.7,0v-66.8"/>
		<path d="M127.8,562.9v68.3l4.7-0.1v-67.9"/>
		<path class="st31" d="M127.8,562.9v68.3l4.7-0.1v-67.9"/>
		<path d="M62.7,580v50.2c-1.6,0-3.1,0-4.7,0V580"/>
		<path class="st31" d="M62.7,580v50.2c-1.6,0-3.1,0-4.7,0V580"/>
		<path d="M71.4,577.3v52.9c-1.6-0.1-3.1-0.1-4.7-0.1v-52.9"/>
		<path class="st31" d="M71.4,577.3v52.9c-1.6-0.1-3.1-0.1-4.7-0.1v-52.9"/>
		<path d="M80.1,574.7v55.8l-4.7-0.1v-55.6"/>
		<path class="st31" d="M80.1,574.7v55.8l-4.7-0.1v-55.6"/>
		<path d="M88.9,572v58.8l-4.7-0.2V572"/>
		<path class="st31" d="M88.9,572v58.8l-4.7-0.2V572"/>
		<path d="M97.6,569.4v61.8l-4.7-0.2v-61.6"/>
		<path class="st31" d="M97.6,569.4v61.8l-4.7-0.2v-61.6"/>
		<path d="M101.6,566.8v64.4h4.7v-64.4"/>
		<path class="st31" d="M101.6,566.8v64.4h4.7v-64.4"/>
		<path d="M110.4,564.1v67.3c1.6,0.1,3.1,0.1,4.7,0.1v-67.3"/>
		<path class="st31" d="M110.4,564.1v67.3c1.6,0.1,3.1,0.1,4.7,0.1v-67.3"/>
		<path d="M119.1,562.6v68.8c1.6,0,3.1-0.1,4.7-0.1v-68.6"/>
		<path class="st31" d="M119.1,562.6v68.8c1.6,0,3.1-0.1,4.7-0.1v-68.6"/>
		<path class="st19" d="M145.7,252.9c-0.4-4.1-6.4-7.2-11.4-7.5c-1.2-0.1-2.4,0.1-3.5,0.3c1.8-1.2,3.4-2.7,4.7-4.5
			c3-4.2,5.4-11.8,1.7-15.5c-3.1-3.2-9.2-1.9-12.2-0.6c-2,0.9-3.8,2.2-5.3,3.8c1.4-1.9,2.1-4.2,1.9-6.6c-0.3-2.2-1.2-4.2-2.8-5.8
			c-1.5-1.6-3.5-2.6-5.7-3c-1.6-0.2-3.2-0.1-4.7,0.4c-1.5,0.5-2.9,1.3-4.1,2.4c-1.3,1.3-2.2,2.9-2.6,4.7c-0.1-1-0.4-2-0.9-2.8
			c-1.5-2.5-5.1-4.3-7.9-2.9c-2.8,1.3-3.2,4.9-3.2,5.1c-0.9-0.7-7-4.8-13.7-2.6c-4.1,1.3-8.9,5-8.6,8.6c0.3,3.6,5.6,5.1,5.1,7
			c-0.6,2.3-8.5,0.4-10.5,3.8c-1.8,3,1.9,8.6,5,11.6c5.7,5.4,13.3,5.5,15.9,5.4c-0.5,0-5.3,0.3-6.3,2.9c-0.9,2.6,2.2,6.3,5.6,7.8
			c1.7,0.8,3,0.8,17.5-1.3c2.7-0.4,5.4-0.6,8-0.4c1.7,0.1,3.3,0.3,5,0.6c11.6,2,12.5,3.7,16.5,3.2c4.7-0.6,7.9-3.4,10.8-6
			C143.3,258.3,146,255.9,145.7,252.9z"/>
		<path class="st20" d="M103.6,296.6h5.9v-40.8h-5.9V296.6z"/>
		<path class="st19" d="M118.4,250.3c0-5.5-5.5-10-12.2-10s-12.2,4.5-12.2,10c0,5.5,5.5,10,12.2,10S118.4,255.8,118.4,250.3z"/>
		<path class="st19" d="M194.1,241.3c-1.6-3.7-5.9-7.5-10.8-6.4c-1.8,0.5-3.4,1.5-4.6,2.9s-2,3.1-2.3,5c0.1-9.1-3-16.7-7.7-18.1
			c-6.5-1.9-14.8,8.3-17.5,17.2c-0.5,1.7-3.4,11.1,1.8,19.7c5.4,9,15.7,10.9,20.7,11.7c6.7,1.2,11.9,0.2,16.8-0.8
			c9.4-1.9,18.7-3.7,23.1-11.3c4.1-7,4.1-18.6-1.4-21.3c-4.4-2.2-12.1,1.2-17.7,8.8C195.3,246.2,195.1,243.6,194.1,241.3z"/>
		<path class="st20" d="M179.3,296.6h4.5v-31.9h-4.5V296.6z"/>
		<path class="st19" d="M190.4,263.6c0-3.9-3.8-7-8.5-7c-4.7,0-8.5,3.2-8.5,7c0,3.9,3.8,7,8.5,7
			C186.6,270.7,190.4,267.5,190.4,263.6z"/>
		<path class="st19" d="M448.2,552.9c-2.5-5.6-9.1-11.5-16.4-9.8c-5.3,1.2-9.4,6-10.5,12c0.1-13.9-4.6-25.6-11.8-27.7
			c-9.9-2.9-22.6,12.7-26.8,26.2c-0.8,2.6-5.2,16.9,2.7,30.2c8.2,13.8,24,16.6,31.7,17.9c10.3,1.8,18.3,0.3,25.8-1.2
			c14.4-2.9,28.5-5.7,35.4-17.2c6.4-10.7,6.3-28.4-2.2-32.6c-6.7-3.3-18.5,1.8-27,13.5C450,560.5,449.7,556.5,448.2,552.9z"/>
		<path class="st20" d="M425.5,637.4h6.8v-48.7h-6.8V637.4z"/>
		<path class="st19" d="M442.5,587c0-5.9-5.8-10.8-13-10.8c-7.2,0-13,4.8-13,10.8s5.8,10.8,13,10.8C436.7,597.8,442.5,593,442.5,587
			z"/>
		<path class="st18" d="M313.3,404.9c-0.1-0.6-0.2-1.6-0.4-2.8c-0.6-4.2-0.9-6.5-1.1-9.5c-0.1-0.8-0.1-1.9-0.2-3.3
			c-0.6,0.6-1.3,1-2,1.2c-0.9,0.3-1.9,0.3-2.8,0c-0.8-0.2-1.6-0.6-2.2-1.1c-0.3-0.3-1.2-1.2-1.4-6.5c-0.1-3.5,0.2-4.7,0.6-5.6
			c0.3-1,1-1.8,1.9-2.2c0.4-0.2,0.9-0.3,1.3-0.2c0.5,0,0.9,0.1,1.3,0.3c1.2,0.8,1.1,2.7,1.1,3.8c0,1.4-0.3,2.9-0.7,4.3
			c-0.2,0.5-0.3,1.1-0.1,1.6c0.1,0.2,0.2,0.4,0.4,0.5c0.2,0.1,0.4,0.3,0.6,0.3c0.1,0,0.3,0,1.1-0.1l0.9-0.2
			c-0.1-1.2-0.9-10.2,1.3-14.9c0.5-1.3,1.4-2.3,2.6-3c1.1-0.5,2.4-0.7,3.5-0.4c1,0.2,2,0.7,2.7,1.5c0.7,0.7,1,1.6,1.2,3.8
			c0.1,1.2,0.2,2.7-0.4,9.2c-0.1,1.1-0.2,2.1-0.4,3.2c-0.2,0.8-0.2,0.7-0.7,3c-0.9,3.6-0.5,2.4-0.7,3.1c-0.1,0.7-0.2,1.3-0.3,2
			c0,0.3,0,0.6,0.1,0.9c0.1,0.3,0.3,0.5,0.5,0.6c0.3,0.2,0.6,0.3,0.9,0.3c0.3,0,0.6,0,0.9-0.1c0.5-0.2,0.9-0.7,1.1-1.2
			c0.3-0.7,0.2-1.2,0.1-2.6c-0.1-0.9-0.1-1.7,0-2.6c0.1-1.1,0.3-2.2,0.8-3.2c0.2-0.6,0.6-1.1,1.2-1.4c0.3-0.1,0.6-0.2,1-0.2
			c0.3,0,0.7,0.1,1,0.2c0.6,0.3,1.1,0.8,1.4,1.4c0.4,0.6,0.7,1.3,0.7,2.1c0.2,1.1,0.1,2.2-0.7,5.2c-0.7,2.5-1.1,3.8-1.8,4.7
			c-0.7,1-1.7,1.7-2.9,1.9c-1,0.1-2-0.4-3.5-1.1c-0.5-0.2-0.9-0.5-1.3-0.7c-0.2,1.3-0.3,2.7-0.5,4c-0.1,1.1-0.3,2.2-0.4,3.3
			L313.3,404.9z"/>
		<path class="st32" d="M325.4,376.7c-0.2,0.6-0.5,1.2-0.9,1.7c-0.3,0.5-0.7,0.9-1.2,1.2c-0.6,0.3-1.3,0.5-2,0.4
			c-0.5,0-1-0.1-1.4-0.4c-0.5-0.3-0.9-0.7-1.3-1.2c-0.4-0.6-0.6-1.3-0.6-2.1c0-0.3,0-0.6,0-0.9c-0.1-0.1-0.3-0.2-0.4-0.2
			c-0.2,0-0.3,0-0.5,0c-0.1,0-0.2,0.1-0.3,0.2c-0.1,0.8-0.3,1.5-0.7,2.1c-0.2,0.4-0.4,0.8-0.8,1.1c-0.3,0.3-0.7,0.5-1.1,0.7
			c-0.4,0.1-0.9,0.2-1.3,0.1c-0.4-0.1-0.9-0.2-1.2-0.4c-0.4-0.2-0.8-0.5-1.1-0.8c-0.4-0.5-0.8-1-1-1.6c-0.1-0.6-0.3-1.1-0.3-1.7
			c-0.1-0.3-0.1-0.6,0-0.9c0-0.1,0.1-0.3,0.1-0.4c1.8-0.2,3.6-0.1,5.3,0.3c0.8,0.2,1.5,0.4,2.3,0.4c0.6,0,1.2,0,1.8,0
			c1.7-0.1,3.4-0.1,5.1,0.1c0.7,0.1,1.3,0.2,1.9,0.4C325.7,375.5,325.6,376.1,325.4,376.7z"/>
		<path class="st18" d="M267.6,364.7c-0.1-0.4-0.2-1-0.3-1.8c-0.5-2.8-0.7-4.3-0.9-6.2c0-0.5-0.1-1.3-0.1-2.2
			c-0.5,0.4-1,0.7-1.6,0.8c-0.7,0.2-1.3,0.2-2,0.1c-0.7-0.1-1.3-0.4-1.8-0.7c-0.3-0.2-0.9-0.8-1.1-4.2c-0.1-2.3,0.1-3.1,0.5-3.7
			c0.3-0.7,0.8-1.2,1.5-1.5c0.7-0.2,1.4-0.2,2,0.1c0.9,0.5,0.9,1.8,0.9,2.5c0,1-0.2,1.9-0.5,2.8c-0.1,0.2-0.1,0.3-0.2,0.5
			c0,0.2,0,0.4,0.1,0.5c0.1,0.1,0.2,0.3,0.3,0.3c0.1,0.1,0.3,0.2,0.4,0.2c0.3,0,0.6,0,0.9-0.1l0.7-0.1c-0.1-0.8-0.7-6.7,1-9.8
			c0.4-0.9,1.1-1.6,2-2c0.9-0.4,1.8-0.5,2.7-0.3c0.8,0.1,1.5,0.5,2.1,1c0.6,0.7,0.9,1.6,0.9,2.5c0.1,2,0,4-0.3,6
			c-0.1,0.7-0.2,1.4-0.3,2.1c-0.1,0.5-0.1,0.5-0.6,2c-0.7,2.3-0.4,1.6-0.5,2c-0.1,0.4-0.2,0.9-0.2,1.3c0,0.2,0,0.4,0.1,0.6
			c0.1,0.2,0.2,0.3,0.4,0.4c0.2,0.1,0.4,0.2,0.7,0.2c0.2,0,0.5,0,0.7-0.1c0.2-0.1,0.4-0.2,0.5-0.3c0.1-0.1,0.3-0.3,0.4-0.5
			c0.3-0.5,0.1-0.8,0.1-1.7c0-0.6,0-1.1,0-1.7c0.1-0.7,0.3-1.4,0.6-2.1c0.2-0.4,0.5-0.7,0.9-0.9c0.5-0.2,1-0.2,1.5,0
			c0.5,0.2,0.9,0.5,1.1,0.9c0.3,0.4,0.5,0.9,0.6,1.4c0.1,1.2-0.1,2.3-0.6,3.4c-0.2,1.1-0.7,2.2-1.4,3.1c-0.6,0.7-1.4,1.1-2.2,1.3
			c-0.9,0-1.9-0.3-2.7-0.7c-0.3-0.1-0.7-0.3-1-0.5c-0.1,0.9-0.3,1.9-0.4,2.6c-0.1,0.7-0.2,1.4-0.3,2.2L267.6,364.7z"/>
		<path class="st18" d="M363.5,373c-0.1-0.4-0.2-1.1-0.3-2c-0.5-3-0.7-4.6-0.9-6.7c0-0.5-0.2-1.4-0.2-2.4c-0.5,0.4-1,0.8-1.6,0.9
			c-0.7,0.2-1.4,0.2-2.1,0.1c-0.7-0.1-1.4-0.4-1.9-0.8c-0.2-0.2-0.9-0.8-1.1-4.6c-0.1-2.5,0.1-3.3,0.5-4c0.3-0.7,0.9-1.3,1.6-1.6
			c0.7-0.3,1.4-0.2,2.1,0.1c1,0.6,0.9,1.9,0.9,2.6c0,1-0.2,2-0.6,3c-0.1,0.2-0.2,0.4-0.2,0.5c0,0.2,0,0.4,0.1,0.6
			c0.1,0.1,0.2,0.3,0.3,0.4c0.1,0.1,0.3,0.2,0.4,0.2c0.3,0,0.6,0,0.9-0.1l0.7-0.1c-0.1-0.8-0.8-7.2,1-10.5c0.4-0.9,1.2-1.7,2.1-2.1
			c0.9-0.4,1.9-0.5,2.9-0.3c0.8,0.1,1.6,0.5,2.2,1c0.6,0.7,1,1.7,1,2.7c0.1,2.2,0,4.3-0.4,6.5c-0.1,0.8-0.2,1.5-0.4,2.2
			c-0.1,0.6-0.1,0.5-0.6,2.1c-0.7,2.6-0.4,1.7-0.6,2.2c-0.1,0.5-0.2,0.9-0.2,1.4c0,0.2,0,0.4,0.1,0.6c0.1,0.2,0.3,0.3,0.4,0.5
			c0.2,0.1,0.5,0.2,0.7,0.2c0.3,0,0.5,0,0.8-0.1c0.4-0.1,0.7-0.4,0.9-0.8c0.3-0.5,0.1-0.9,0.1-1.8c-0.1-0.6-0.1-1.2,0-1.8
			c0.1-0.8,0.3-1.5,0.7-2.2c0.2-0.4,0.5-0.8,1-1c0.5-0.2,1.1-0.2,1.6,0c0.5,0.2,0.9,0.5,1.1,1c0.3,0.4,0.5,0.9,0.6,1.5
			c0.1,1.2-0.1,2.5-0.6,3.7c-0.2,1.2-0.7,2.3-1.4,3.3c-0.6,0.7-1.4,1.2-2.4,1.4c-1,0-2-0.3-2.8-0.8c-0.4-0.2-0.8-0.3-1.1-0.5
			c-0.1,0.9-0.3,2-0.4,2.8c-0.1,0.8-0.2,1.6-0.4,2.3L363.5,373z"/>
		<path class="st18" d="M399.9,337.4c-0.1-0.4-0.2-1.1-0.3-1.9c-0.5-3-0.7-4.6-0.9-6.7c0-0.6-0.2-1.4-0.2-2.4
			c-0.5,0.4-1,0.7-1.6,0.9c-0.7,0.2-1.4,0.2-2.1,0.1c-0.7-0.1-1.4-0.4-1.9-0.8c-0.2-0.2-0.9-0.8-1.1-4.6c-0.1-2.5,0.1-3.3,0.5-4
			c0.3-0.7,0.9-1.3,1.6-1.6c0.3-0.1,0.7-0.2,1.1-0.2c0.4,0,0.7,0.1,1,0.2c1,0.6,0.9,1.9,0.9,2.6c0,1-0.2,2-0.6,3
			c-0.1,0.2-0.2,0.4-0.2,0.5c0,0.2,0,0.4,0.1,0.6c0.1,0.1,0.2,0.3,0.3,0.4c0.1,0.1,0.3,0.2,0.4,0.2c0.3,0,0.6,0,0.9-0.1l0.7-0.1
			c-0.1-0.8-0.8-7.2,1-10.5c0.4-0.9,1.2-1.7,2.1-2.1c0.9-0.4,1.9-0.5,2.9-0.3c0.8,0.1,1.6,0.5,2.2,1c0.6,0.7,1,1.7,1,2.7
			c0.1,2.2,0,4.3-0.4,6.5c-0.1,0.8-0.2,1.5-0.4,2.2c-0.1,0.6-0.1,0.5-0.6,2.1c-0.7,2.5-0.4,1.7-0.6,2.2c-0.1,0.5-0.2,0.9-0.2,1.4
			c0,0.2,0,0.4,0.1,0.6c0.1,0.2,0.3,0.3,0.4,0.5c0.2,0.1,0.5,0.2,0.7,0.2c0.3,0,0.5,0,0.8-0.1c0.2-0.1,0.4-0.2,0.5-0.3
			c0.2-0.1,0.3-0.3,0.4-0.5c0.3-0.5,0.1-0.9,0.1-1.8c-0.1-0.6-0.1-1.2,0-1.8c0.1-0.8,0.3-1.5,0.7-2.2c0.2-0.4,0.5-0.8,1-1
			c0.5-0.2,1.1-0.2,1.6,0c0.5,0.2,0.9,0.5,1.1,1c0.3,0.4,0.5,0.9,0.6,1.5c0.1,1.2-0.1,2.5-0.6,3.7c-0.2,1.2-0.7,2.3-1.4,3.3
			c-0.6,0.7-1.4,1.2-2.4,1.4c-1,0-2-0.3-2.8-0.8c-0.4-0.2-0.8-0.3-1.1-0.5c-0.1,0.9-0.3,1.9-0.4,2.8c-0.1,0.8-0.2,1.6-0.4,2.3
			L399.9,337.4z"/>
		<path class="st18" d="M310.6,341.4c-0.1-0.7-0.3-1.7-0.5-2.9c-0.8-4.5-1.2-6.9-1.4-10c-0.1-0.8-0.2-2-0.3-3.5
			c-0.7,0.6-1.6,1.1-2.6,1.3c-1.2,0.3-2.4,0.3-3.5,0.1c-1-0.2-2-0.6-2.8-1.1c-0.4-0.3-1.5-1.2-1.8-6.8c-0.2-3.7,0.2-5,0.8-5.9
			c0.5-1.1,1.4-1.9,2.4-2.3c1.1-0.4,2.3-0.3,3.3,0.1c1.6,0.9,1.4,2.8,1.4,4c0,1.5-0.3,3-0.9,4.5c-0.1,0.3-0.2,0.5-0.3,0.8
			c0,0.3,0,0.6,0.1,0.9c0.1,0.2,0.3,0.4,0.5,0.6c0.2,0.2,0.4,0.3,0.7,0.3c0.5,0,1,0,1.4-0.2l1.1-0.2c-0.1-1.2-1.2-10.8,1.6-15.7
			c0.7-1.4,1.9-2.5,3.3-3.2c1.4-0.6,3-0.7,4.5-0.5c1.3,0.2,2.5,0.7,3.5,1.6c0.8,0.8,1.3,1.8,1.5,4c0.1,1.3,0.2,2.9-0.6,9.7
			c-0.1,1.1-0.3,2.2-0.6,3.3c-0.2,0.8-0.2,0.8-0.9,3.2c-1.1,3.8-0.6,2.5-0.9,3.3c-0.2,0.7-0.3,1.4-0.4,2.1c-0.1,0.3,0,0.6,0.1,0.9
			c0.2,0.3,0.4,0.5,0.7,0.7c0.4,0.2,0.7,0.3,1.1,0.3c0.4,0,0.8,0,1.2-0.1c0.6-0.2,1.1-0.7,1.4-1.2c0.4-0.8,0.2-1.3,0.1-2.7
			c-0.1-0.9-0.1-1.8,0-2.7c0.1-1.2,0.5-2.3,1.1-3.3c0.3-0.6,0.8-1.2,1.5-1.5c0.8-0.3,1.7-0.3,2.5,0c0.7,0.3,1.4,0.8,1.8,1.5
			c0.5,0.7,0.8,1.4,0.9,2.2c0.2,1.2,0.1,2.4-0.9,5.5c-0.8,2.7-1.3,4-2.2,4.9c-0.9,1.1-2.3,1.8-3.7,2c-1.3,0.1-2.5-0.4-4.5-1.2
			c-0.6-0.2-1.1-0.5-1.7-0.8c-0.2,1.4-0.4,2.8-0.6,4.2l-0.6,3.5L310.6,341.4z"/>
		<path class="st30" d="M239.4,581.9c2.2-5.7,8.1-18,20.9-23.5c0.6-0.3,1.1-0.5,1.7-0.7c1.1-1.8,2.4-3.5,3.9-5
			c6.2-5.9,21.3-11.6,31.7-15.7c5.8-2.3,12-3.6,18.3-3.9c2.4-9.1,11.7-33.5,24.8-59.1c10.8-21.2,11.3-20.2,16.1-33
			c0.4-1.1,0.9-2.5,1.6-4c-2.7-2.1-4.8-4.9-5.9-8.2c-1.2-3.2-1.3-6.7-0.4-10c6.1,2.1,10.9,4.9,13.8,7.7c-1-4.5-1.9-8.9-2.9-13.4
			l6.5-0.9l-0.3,16.4c2.3,0.1,4.7,0.6,6.9,1.5c4.4,1.5,8.5,4,11.7,7.4c7.4,7.4,13,19.3,10,22.2c-2,1.9-7.8-0.6-13.5-3
			c-7.9-3.5-13.6-8.4-16.9-7c-2,0.9-3.3,3.8-3.9,5.7c-5.2,16.1,0,0-7,21.3c-2.8,8.7-4.9,14.2-7,22.6c-2.1,8.4-3.3,15.9-5.7,30.9
			c-1.6,10-2.4,15.1-3,20.9c-1.7,14.8-0.7,17.5-1.7,31.7c-2.2,31.9-8.5,40.1-1.7,51.7c2.7,4.9,7.5,8.8,6.1,11.7
			c-1.8,3.6-12.1,3.9-15.2-0.4c-2.5-3.5,0.3-9.3,1.3-11.7c3.6-8.6,5.3-23.8-4.4-52.2c-12.8,30.9-10.3,45.7-4.8,53.4
			c1.8,2.5,6.4,7.7,4.8,10.4c-1.6,2.7-8.7,1.5-14.8,0c0.6-3.4,1.2-6.9,1.7-10.4c2.5-17.7,2.8-35.6,0.9-53.4h-33.1
			c-6.5,28-2.1,42.8,3.5,51.3c2.2,3.3,7.2,9.6,5.2,12.6c-1.8,2.8-8.8,1.5-14.3,0c0-48.9-2.3-64.1-5.2-64.3
			c-4.5-0.4-17.8,33.8-5.2,52.6c2.6,3.9,7.1,8.2,5.7,10.9c-1.6,3.1-10.3,1.8-17.8,0c1.6-3.8,2.9-7.7,3.9-11.7
			c2.9-12.2,1.5-20.4,1.3-37.8c-0.1-4.9,0-12.1,0.4-20.9c0.3-4,1.1-8,2.4-11.8c-2.2,0.9-4.4,2.1-6.3,3.5
			C246.4,571,243.7,577.1,239.4,581.9z"/>
		<path class="st12" d="M374,441.8c0.6,0.2,1.3,0.3,1.9,0.2c0.5-0.1,1-0.2,1.5-0.4c0.6-0.2,1.1-0.6,1.5-1.1c0.6-0.7,0.9-1.6,0.9-2.5
			c0-0.9-0.2-1.8-0.7-2.6c-1.7-2.6-6.3-2.6-7.8-0.3C370,437.1,371.3,440.8,374,441.8z"/>
		<path class="st13" d="M373.8,441.6c0.2,0,0.4,0.2,0.6,0.2c0.6,0.1,1.2,0.2,1.8,0.2c0.5,0,0.9-0.2,1.4-0.4c0.2-0.1,0.3-0.1,0.5-0.2
			l0.2-0.1c1.8-1,2-3.2,1.5-5c-0.8-0.3-1.6-0.3-2.4-0.1c-0.8,0.2-1.5,0.6-2.1,1.1c-0.7,0.4-1.2,1.1-1.5,1.8
			c-0.3,0.7-0.4,1.5-0.3,2.3C373.5,441.5,373.7,441.6,373.8,441.6z"/>
		<path class="st18" d="M225.5,333.1c-0.1-0.4-0.2-1-0.3-1.8c-0.5-2.8-0.7-4.3-0.9-6.2c0-0.5-0.1-1.3-0.1-2.2
			c-0.5,0.4-1,0.7-1.6,0.8c-0.7,0.2-1.4,0.2-2.1,0c-0.6-0.1-1.2-0.4-1.7-0.7c-0.3-0.2-0.9-0.8-1.1-4.2c-0.1-2.3,0.1-3.1,0.5-3.7
			c0.3-0.7,0.8-1.2,1.5-1.5c0.7-0.2,1.4-0.2,2,0.1c0.9,0.5,0.9,1.8,0.9,2.5c0,1-0.2,1.9-0.5,2.8c-0.1,0.2-0.1,0.3-0.2,0.5
			c0,0.2,0,0.4,0.1,0.5c0.1,0.1,0.2,0.3,0.3,0.3c0.1,0.1,0.3,0.2,0.4,0.2c0.3,0,0.6,0,0.9-0.1l0.7-0.1c-0.1-0.8-0.7-6.7,1-9.8
			c0.4-0.9,1.1-1.6,2-2c0.9-0.4,1.8-0.5,2.7-0.3c0.8,0.1,1.5,0.5,2.1,1c0.6,0.7,0.9,1.6,0.9,2.5c0.1,2,0,4-0.3,6
			c-0.1,0.7-0.2,1.4-0.3,2.1c-0.1,0.5-0.1,0.5-0.6,2c-0.7,2.3-0.4,1.6-0.5,2c-0.1,0.4-0.2,0.9-0.2,1.3c0,0.2,0,0.4,0.1,0.6
			c0.1,0.2,0.2,0.3,0.4,0.4c0.2,0.1,0.4,0.2,0.7,0.2c0.2,0,0.5,0,0.7-0.1c0.4-0.1,0.7-0.4,0.9-0.8c0.3-0.5,0.1-0.8,0.1-1.7
			c0-0.6,0-1.1,0-1.7c0.1-0.7,0.3-1.4,0.6-2.1c0.2-0.4,0.5-0.7,0.9-0.9c0.5-0.2,1-0.2,1.5,0c0.5,0.2,0.8,0.5,1.1,0.9
			c0.3,0.4,0.5,0.9,0.6,1.4c0.1,1.2-0.1,2.3-0.6,3.4c-0.2,1.1-0.7,2.2-1.4,3.1c-0.6,0.7-1.4,1.1-2.2,1.3c-0.9,0-1.9-0.3-2.7-0.7
			c-0.4-0.2-0.7-0.3-1-0.5c-0.1,0.9-0.3,1.9-0.4,2.6c-0.1,0.7-0.2,1.4-0.3,2.2L225.5,333.1z"/>
		<path class="st18" d="M251.7,396c-0.1-0.4-0.2-1-0.3-1.8c-0.5-2.8-0.7-4.3-0.9-6.2c0-0.5-0.2-1.3-0.2-2.2c-0.5,0.4-1,0.6-1.6,0.8
			c-0.7,0.2-1.4,0.2-2.1,0c-0.6-0.1-1.2-0.4-1.7-0.7c-0.3-0.2-0.9-0.8-1.1-4.2c-0.1-2.3,0.1-3.1,0.5-3.7c0.3-0.7,0.8-1.2,1.5-1.5
			c0.7-0.2,1.4-0.2,2,0.1c0.9,0.5,0.9,1.8,0.9,2.5c0,1-0.2,1.9-0.5,2.8c-0.1,0.2-0.1,0.3-0.2,0.5c0,0.2,0,0.4,0.1,0.5
			c0.1,0.1,0.2,0.3,0.3,0.3c0.1,0.1,0.3,0.2,0.4,0.2c0.3,0,0.6,0,0.9-0.1l0.7-0.1c-0.1-0.8-0.7-6.7,1-9.8c0.4-0.9,1.1-1.6,2-2
			c0.9-0.4,1.8-0.5,2.7-0.3c0.8,0.1,1.5,0.5,2.1,1c0.6,0.7,0.9,1.6,0.9,2.5c0.1,2,0,4-0.3,6c-0.1,0.7-0.2,1.4-0.3,2.1
			c-0.1,0.5-0.1,0.5-0.6,2c-0.7,2.3-0.4,1.6-0.5,2c-0.1,0.4-0.2,0.9-0.2,1.3c0,0.2,0,0.4,0.1,0.6c0.1,0.2,0.2,0.3,0.4,0.4
			c0.2,0.1,0.4,0.2,0.7,0.2c0.2,0,0.5,0,0.7-0.1c0.4-0.1,0.7-0.4,0.9-0.8c0.2-0.5,0.1-0.8,0.1-1.7c0-0.6,0-1.1,0-1.7
			c0-0.7,0.3-1.4,0.6-2.1c0.2-0.4,0.5-0.7,0.9-0.9c0.5-0.2,1-0.2,1.5,0c0.5,0.2,0.8,0.5,1.1,0.9c0.3,0.4,0.5,0.9,0.6,1.4
			c0.1,1.2-0.1,2.3-0.6,3.4c-0.2,1.1-0.7,2.2-1.4,3.1c-0.6,0.7-1.4,1.1-2.2,1.3c-0.9,0-1.9-0.3-2.7-0.7c-0.4-0.1-0.7-0.3-1-0.5
			c-0.1,0.9-0.3,1.9-0.4,2.6c-0.1,0.7-0.2,1.5-0.3,2.2L251.7,396z"/>
		<path class="st18" d="M509.9,330.3c-0.1-0.3-0.1-0.8-0.2-1.4c-0.4-2.1-0.6-3.3-0.7-4.8c0-0.4-0.1-1-0.1-1.7
			c-0.4,0.3-0.8,0.5-1.3,0.6c-0.6,0.1-1.2,0.1-1.7,0c-0.5-0.1-1-0.3-1.4-0.6c-0.2-0.2-0.8-0.6-0.9-3.3c-0.2-1,0-2,0.4-2.9
			c0.2-0.5,0.7-0.9,1.2-1.1c0.5-0.2,1.1-0.2,1.6,0c0.7,0.4,0.7,1.4,0.7,1.9c0,0.7-0.2,1.5-0.4,2.2c-0.1,0.1-0.1,0.3-0.1,0.4
			c0,0.1,0,0.3,0.1,0.4c0.1,0.1,0.1,0.2,0.2,0.3c0.1,0.1,0.2,0.1,0.3,0.2c0.2,0,0.5,0,0.7-0.1l0.5-0.1c-0.1-0.6-0.6-5.2,0.8-7.6
			c0.4-0.7,0.9-1.2,1.6-1.5c0.7-0.3,1.5-0.4,2.2-0.2c0.6,0.1,1.2,0.3,1.7,0.8c0.2,0.3,0.4,0.6,0.6,0.9c0.1,0.3,0.2,0.7,0.2,1
			c0.1,1.6,0,3.1-0.3,4.7c-0.1,0.6-0.2,1.1-0.3,1.6c-0.1,0.4-0.1,0.4-0.5,1.5c-0.5,1.8-0.3,1.2-0.4,1.6c-0.1,0.3-0.1,0.7-0.2,1
			c-0.1,0.1-0.1,0.3,0,0.5c0.1,0.1,0.2,0.3,0.3,0.3c0.2,0.1,0.4,0.2,0.5,0.2c0.2,0,0.4,0,0.6-0.1c0.3-0.1,0.6-0.3,0.7-0.6
			c0.1-0.4,0-0.6,0-1.3c0-0.4,0-0.9,0-1.3c0-0.6,0.2-1.1,0.5-1.6c0.2-0.3,0.4-0.6,0.7-0.7c0.4-0.1,0.8-0.1,1.2,0
			c0.4,0.1,0.7,0.4,0.9,0.7c0.2,0.3,0.4,0.7,0.5,1.1c0.1,0.9-0.1,1.8-0.5,2.6c-0.2,0.9-0.6,1.7-1.1,2.4c-0.5,0.5-1.1,0.9-1.8,1
			c-0.8,0-1.5-0.2-2.2-0.6c-0.3-0.1-0.6-0.3-0.8-0.4c-0.1,0.7-0.2,1.5-0.3,2c-0.1,0.6-0.2,1.1-0.3,1.7L509.9,330.3z"/>
	</g>
</g>
<g id="Layer_3">
	<g>
		<path class="st7" d="M319.1,288.1c-1.5-0.8-2.5-3.4-2.8-4.1c-0.7-1.7-0.8-3.1-0.8-4.1c0.4-0.4,1-0.9,1.7-1.6c0,0,2.2-2,4.6-4
			c6.2-5.2,25.7-18.4,39.2-28.5c3.3-2.5,6.7-5.1,12.1-7.2c5.4-2.2,12.3-2.9,15.4-3.1c0.1-0.8-1.4-2.4-1.3-3.9
			c0.2-2.9,0.3-3.1,0.6-3.6c1.1-2.4,3.8-3.9,5.8-3.6c1.8,0.3,3.8,1,4.3,3.2c0.4,1.9,0.8,4.2-0.9,6.5c0.8-0.6,2-1.4,3.6-2.2
			c4.9-2.5,8.9-2.7,20.9-2.9c12.7-0.2,15.5-0.2,18.9,0.2c3.9,0.4,6.2,0.9,10.7,1.8c2,0.4,3.5,0.8,5.4,1.7c0.7,0.3,2.7,1.3,5.2,3.5
			c4.3,3.8,4.1,6,7.2,7.8c1.5,0.9,3.1,1.2,6,1.4c8.5,0.5,15.8-1.3,19.5-2.1c10.9-2.6,16.4-3.9,17-4c4.7-0.6,12.4-1.4,21.3,1.5
			c6.5,2.1,11.5,5.5,15,8.6c-1,1.2-2,2.4-3.1,3.4c-14,13.5-36.1,11.3-45.3,9.8c0.1,0.6,0.5,1.6,1.2,2.5c2.1,2.4,5.7,1.7,6,1.7
			c-1.9,1.6-4.2,3.3-6.9,4.8c-10.8,5.8-21.7,4.8-26.9,4c-2.8-1-5.5-1.9-8.3-2.9c0.1,3.4,0.4,7,0.8,10.7c0.3,2.9,0.7,5.7,1.1,8.4
			c-1.9,1-3.9,1.9-5.8,2.9c-0.4-2.5-0.7-5-1.1-7.5c-0.9-5-1.8-9.9-2.8-14.9c-1,8.2-2,16.4-3.1,24.6c-3.6,0-7.3,0-10.9,0
			c0.4-9.8,0.7-19.6,1.1-29.5c0-0.9-0.1-2.1-0.8-3.5c-1.5-3.2-4.7-4.4-5.4-4.6c-2.7-0.9-9-2.5-16.4-0.3c-3.8,1.1-6.7,2.9-8.6,4.3
			c0.6,7.4,2.1,12.2,3.5,15.4c0.7,1.5,2.6,5.5,2.5,10.9c0,0.8-0.1,1.5-0.2,2c-2.5,0.4-5,0.7-7.5,1.1c-0.3-2.6-0.7-5.2-1.2-8
			c-1.1-5.9-2.5-11.4-4-16.3c-0.2,3-0.5,6-0.8,9.1c-0.5,6.1-1.1,12.3-1.7,18.4c-3.9,0-7.8,0-11.7,0c0.2-3.3,0.3-6.9,0.5-10.9
			c0.3-9,0.5-13.9,0.3-20.1c-0.1-3.3-0.3-6.9-0.6-10.9c-0.7-1-1.9-2.3-3.8-3.2c-3.9-1.8-7.9-0.5-10.7,0.5c-4.3,1.5-7.1,3.7-8.3,4.6
			c-5.9,4.6-12.4,8.4-18.6,12.6c-13.5,9.3-11.7,6.7-17.5,11.4C326.7,284.6,322,289.6,319.1,288.1z"/>
		<g>
			<path class="st12" d="M389.6,241.3c-0.2-2.6-4.2-4.7-6.8-3.3c-0.8,0.4-1.4,1.1-1.8,1.9c-0.4,0.8-0.5,1.7-0.4,2.5
				c0.1,0.6,0.3,1.2,0.7,1.7c0.3,0.4,0.7,0.7,1.1,1c0.5,0.4,1.1,0.6,1.8,0.7C387,246.2,389.8,243.6,389.6,241.3z"/>
			<path class="st13" d="M385,245.7c0.8-0.9,1-2.7,0.3-4.4c-0.7-1.7-2.1-2.8-3.3-2.9c-1.2,1.3-2.1,3.3-1.1,4.9c0,0,0.1,0.2,0.1,0.2
				c0.1,0.1,0.2,0.3,0.3,0.4c0.3,0.4,0.6,0.7,1,0.9c0.5,0.3,1,0.5,1.6,0.7c0.2,0,0.4,0,0.6,0.1C384.6,245.7,384.8,245.7,385,245.7z"
				/>
		</g>
	</g>
</g>
<g id="Layer_4">
	<g>
		<path class="st22" d="M117.5,727.1c-0.4-1.3-0.8-2.3-1.2-3.2c-1.1-2.2-3.1-6.6-7.4-9c-4.6-2.5-9.4-1.5-12.1-0.9
			c-2.6,0.6-7.5,1.6-10.9,6.2c-2.8,3.7-3,7.7-3,8.8c-0.3,10.1,9.8,16.4,10.4,16.7c-1.3,0.1-3.2,0.2-5.5,0.5c-3,0.4-5.6,0.7-8.6,1.6
			c-4.2,1.2-3.9,1.9-6.2,2.1c-3.9,0.4-7-1.2-8.8-2.1c-3.8-2-6.2-4.8-7.4-6.5c-0.7,3-2.9,13.5,2.7,24.1c7.5,14.1,22.7,16.9,26.3,17.6
			c5.3,1,17.5,3.2,26.7-4.9c1.5-1.3,10.1-8.5,8.6-18.8c-1.1-7.6-6.9-12-8.3-13c-0.3-0.4-0.6-1-0.5-1.6c0.2-1.1,1.5-1.7,1.9-2
			C117.8,740.7,119.1,732.9,117.5,727.1z"/>
	</g>
</g>
<g id="Layer_10">
</g>
<g id="clouds">
	<path class="st12" d="M1102.8,72.9c1.4-4,1.4-8.4,0-12.5c-3.8-10.3-16.1-12.1-17.5-12.5c-4.9-0.7-10,0.2-14.4,2.4
		c-4.5,2.2-8.1,5.7-10.6,10.1c-0.4,0.7-1,4.6-2.5,12.5v2.5c-0.7-1-1.5-1.8-2.5-2.5c-6.1-4.1-15.2-0.5-20,2.5
		c-4.7,2.9-8.2,7.3-10,12.5c-1.6,4.9-1.6,10.1,0,15c2.1,7.1,6.5,13.3,12.5,17.5h112.6c-2.9-2.1-5.4-4.6-7.5-7.5c-2.4-2.9-4-6.4-5-10
		c-1.3-5.8,0.9-7.1,0-12.5c-1-4.9-3.7-9.3-7.5-12.5c-4.9-3.9-10.3-4.4-17.5-5C1109.5,72.6,1106.2,72.6,1102.8,72.9z"/>
	<path class="st12" d="M1135.9,351.8c0.9-2.5,0.9-5.3,0-7.8c-2.4-6.4-10-7.6-10.9-7.8c-3.1-0.4-6.2,0.1-9,1.5
		c-2.8,1.4-5.1,3.6-6.6,6.3c-0.2,0.4-0.6,2.9-1.6,7.8v1.6c-0.4-0.6-1-1.1-1.6-1.6c-3.8-2.6-9.5-0.3-12.5,1.6
		c-2.9,1.8-5.1,4.6-6.2,7.8c-1,3-1,6.3,0,9.3c1.3,4.4,4,8.3,7.8,10.9h70.2c-1.8-1.3-3.4-2.9-4.7-4.7c-1.5-1.8-2.5-4-3.1-6.2
		c-0.8-3.6,0.6-4.4,0-7.8c-0.6-3-2.3-5.8-4.7-7.8c-3-2.4-6.4-2.7-10.9-3.1C1140.1,351.6,1138,351.6,1135.9,351.8z"/>
	<path class="st12" d="M620.4,195c0.9-2.5,0.9-5.3,0-7.8c-2.4-6.4-10-7.6-10.9-7.8c-3.1-0.4-6.2,0.1-9,1.5c-2.8,1.4-5.1,3.6-6.6,6.3
		c-0.2,0.4-0.6,2.9-1.6,7.8v1.6c-0.4-0.6-1-1.1-1.6-1.6c-3.8-2.6-9.5-0.3-12.5,1.6c-2.9,1.8-5.1,4.6-6.2,7.8c-1,3-1,6.3,0,9.3
		c1.3,4.4,4,8.3,7.8,10.9H650c-1.8-1.3-3.4-2.9-4.7-4.7c-1.5-1.8-2.5-4-3.1-6.2c-0.8-3.6,0.6-4.4,0-7.8c-0.6-3-2.3-5.8-4.7-7.8
		c-3-2.4-6.4-2.7-10.9-3.1C624.5,194.8,622.4,194.8,620.4,195z"/>
	<path class="st12" d="M901.5,213.6c0.9-2.5,0.9-5.3,0-7.8c-2.4-6.4-10-7.6-10.9-7.8c-3.1-0.4-6.2,0.1-9,1.5
		c-2.8,1.4-5.1,3.6-6.6,6.3c-0.2,0.4-0.6,2.9-1.6,7.8v1.6c-0.4-0.6-1-1.1-1.6-1.6c-3.8-2.6-9.5-0.3-12.5,1.6
		c-2.9,1.8-5.1,4.6-6.2,7.8c-1,3-1,6.3,0,9.3c1.3,4.4,4,8.3,7.8,10.9h70.2c-1.8-1.3-3.4-2.9-4.7-4.7c-1.5-1.8-2.5-4-3.1-6.2
		c-0.8-3.6,0.6-4.4,0-7.8c-0.6-3-2.3-5.8-4.7-7.8c-3-2.4-6.4-2.7-10.9-3.1C905.6,213.4,903.6,213.4,901.5,213.6z"/>
	<path class="st12" d="M855.6,397.9c0.9-2.5,0.9-5.3,0-7.8c-2.4-6.4-10-7.6-10.9-7.8c-3.1-0.4-6.2,0.1-9,1.5
		c-2.8,1.4-5.1,3.6-6.6,6.3c-0.2,0.4-0.6,2.9-1.6,7.8v1.6c-0.4-0.6-1-1.1-1.6-1.6c-3.8-2.6-9.5-0.3-12.5,1.6
		c-2.9,1.8-5.1,4.6-6.2,7.8c-1,3-1,6.3,0,9.3c1.3,4.4,4,8.3,7.8,10.9h70.2c-1.8-1.3-3.4-2.9-4.7-4.7c-1.5-1.8-2.5-4-3.1-6.2
		c-0.8-3.6,0.6-4.4,0-7.8c-0.6-3-2.3-5.8-4.7-7.8c-3-2.4-6.4-2.7-10.9-3.1C859.8,397.8,857.7,397.8,855.6,397.9z"/>
	<path class="st12" d="M438.6,49.9c0.9-2.5,0.9-5.3,0-7.8c-2.4-6.4-10-7.6-10.9-7.8c-3.1-0.4-6.2,0.1-9,1.5
		c-2.8,1.4-5.1,3.6-6.6,6.3c-0.2,0.4-0.6,2.9-1.6,7.8v1.6c-0.4-0.6-1-1.1-1.6-1.6c-3.8-2.6-9.5-0.3-12.5,1.6
		c-2.9,1.8-5.1,4.6-6.2,7.8c-1,3-1,6.3,0,9.3c1.3,4.4,4,8.3,7.8,10.9h70.2c-1.8-1.3-3.4-2.9-4.7-4.7c-1.5-1.8-2.5-4-3.1-6.2
		c-0.8-3.6,0.6-4.4,0-7.8c-0.6-3-2.3-5.8-4.7-7.8c-3-2.4-6.4-2.7-10.9-3.1C442.8,49.7,440.7,49.7,438.6,49.9z"/>
	<path class="st12" d="M775.6,34.7c0.9-2.5,0.9-5.3,0-7.8c-2.4-6.4-10-7.6-10.9-7.8c-3.1-0.4-6.2,0.1-9,1.5
		c-2.8,1.4-5.1,3.6-6.6,6.3c-0.2,0.4-0.6,2.9-1.6,7.8v1.6c-0.4-0.6-1-1.1-1.6-1.6c-3.8-2.6-9.5-0.3-12.5,1.6
		c-2.9,1.8-5.1,4.6-6.2,7.8c-1,3-1,6.3,0,9.3c1.3,4.4,4,8.3,7.8,10.9h70.2c-1.8-1.3-3.4-2.9-4.7-4.7c-1.5-1.8-2.5-4-3.1-6.2
		c-0.8-3.6,0.6-4.4,0-7.8c-0.6-3-2.3-5.8-4.7-7.8c-3-2.4-6.4-2.7-10.9-3.1C779.8,34.5,777.7,34.5,775.6,34.7z"/>
	<path class="st12" d="M297.2,193.2c0.9-2.5,0.9-5.3,0-7.8c-2.4-6.4-10-7.6-10.9-7.8c-3.1-0.4-6.2,0.1-9,1.5
		c-2.8,1.4-5.1,3.6-6.6,6.3c-0.2,0.4-0.6,2.9-1.6,7.8v1.6c-0.4-0.6-1-1.1-1.6-1.6c-3.8-2.6-9.5-0.3-12.5,1.6
		c-2.9,1.8-5.1,4.6-6.2,7.8c-1,3-1,6.3,0,9.3c1.3,4.4,4,8.3,7.8,10.9h70.2c-1.8-1.3-3.4-2.9-4.7-4.7c-1.5-1.8-2.5-4-3.1-6.2
		c-0.8-3.6,0.6-4.4,0-7.8c-0.6-3-2.3-5.8-4.7-7.8c-3-2.4-6.4-2.7-10.9-3.1C301.4,193,299.3,193,297.2,193.2z"/>
	<path class="st12" d="M30.5,219.2c0.9-2.5,0.9-5.3,0-7.8c-2.4-6.4-10-7.6-10.9-7.8c-3.1-0.4-6.2,0.1-9,1.5
		c-2.8,1.4-5.1,3.6-6.6,6.3c-0.2,0.4-0.6,2.9-1.6,7.8v1.6c-0.4-0.6-1-1.1-1.6-1.6c-3.8-2.6-9.5-0.3-12.5,1.6
		c-2.9,1.8-5.1,4.6-6.2,7.8c-1,3-1,6.3,0,9.3c1.3,4.4,4,8.3,7.8,10.9h70.2c-1.8-1.3-3.4-2.9-4.7-4.7c-1.5-1.8-2.5-4-3.1-6.2
		c-0.8-3.6,0.6-4.4,0-7.8c-0.6-3-2.3-5.8-4.7-7.8c-3-2.4-6.4-2.7-10.9-3.1C34.6,219,32.5,219,30.5,219.2z"/>
	<path class="st12" d="M1165.6,719.2c1.1-3.1,1.1-6.5,0-9.7c-3-8-12.5-9.4-13.6-9.7c-3.8-0.5-7.7,0.1-11.2,1.9s-6.3,4.5-8.2,7.8
		c-0.3,0.5-0.8,3.6-2,9.7v2c-0.5-0.8-1.2-1.4-2-2c-4.7-3.2-11.8-0.4-15.5,2c-3.6,2.2-6.4,5.7-7.7,9.7c-1.2,3.8-1.2,7.8,0,11.6
		c1.6,5.5,5,10.3,9.7,13.6h87.3c-2.2-1.6-4.2-3.6-5.8-5.8c-1.8-2.3-3.1-4.9-3.9-7.8c-1-4.5,0.7-5.5,0-9.7c-0.8-3.8-2.8-7.2-5.8-9.7
		c-3.8-3-8-3.4-13.6-3.9C1170.8,718.9,1168.2,718.9,1165.6,719.2z"/>
	<path class="st12" d="M1039.3,455.9c0.7-1.9,0.7-4,0-5.9c-1.8-4.9-7.7-5.8-8.3-5.9c-2.4-0.3-4.7,0.1-6.9,1.1
		c-2.1,1.1-3.9,2.7-5,4.8c-0.2,0.3-0.5,2.2-1.2,5.9v1.2c-0.3-0.5-0.7-0.9-1.2-1.2c-2.9-2-7.2-0.3-9.5,1.2c-2.2,1.4-3.9,3.5-4.8,5.9
		c-0.7,2.3-0.7,4.8,0,7.1c1,3.4,3.1,6.3,6,8.3h53.6c-1.4-1-2.6-2.2-3.6-3.6c-1.1-1.4-1.9-3-2.4-4.8c-0.6-2.8,0.4-3.4,0-5.9
		c-0.5-2.3-1.7-4.4-3.6-5.9c-2.3-1.9-4.9-2.1-8.3-2.4C1042.5,455.8,1040.9,455.8,1039.3,455.9z"/>
	<path class="st12" d="M606.6,326.7c0.9-2.5,0.9-5.3,0-7.8c-2.4-6.4-10-7.6-10.9-7.8c-3.1-0.4-6.2,0.1-9,1.5
		c-2.8,1.4-5.1,3.6-6.6,6.3c-0.2,0.4-0.6,2.9-1.6,7.8v1.6c-0.4-0.6-1-1.1-1.6-1.6c-3.8-2.6-9.5-0.3-12.5,1.6
		c-2.9,1.8-5.1,4.6-6.2,7.8c-1,3-1,6.3,0,9.3c1.3,4.4,4,8.3,7.8,10.9h70.2c-1.8-1.3-3.4-2.9-4.7-4.7c-1.5-1.8-2.5-4-3.1-6.2
		c-0.8-3.6,0.6-4.4,0-7.8c-0.6-3-2.3-5.8-4.7-7.8c-3-2.4-6.4-2.7-10.9-3.1C610.8,326.5,608.7,326.5,606.6,326.7z"/>
</g>
<g id="реплики" class="st50">
	<g class="st51">
		<rect x="587.8" y="381.1" class="st34" width="433.4" height="149"/>
		<text transform="matrix(1 0 0 1 607.1312 413.4722)"><tspan x="0" y="0" class="st53 st54">Привет.</tspan><tspan x="0" y="24" class="st53 st54">Ты не поверишь, но мои друзья</tspan><tspan x="0" y="48" class="st53 st54">опять наелись летучих цветов.</tspan><tspan x="0" y="72" class="st53 st54">Буду благодарен, если ты поможешь</tspan><tspan x="0" y="96" class="st53 st54">возвратить их на землю. </tspan></text>
		<g>
			<line class="st52" x1="996" y1="406.4" x2="1011.1" y2="391.2"/>
			<line class="st52" x1="1011.1" y1="406.4" x2="996" y2="391.2"/>
		</g>
	</g>
	<g>
		<g class="st51">
			<rect x="173.4" y="354" class="st34" width="386.1" height="255.6"/>
			<text transform="matrix(1 0 0 1 192.7313 389.3854)"><tspan x="0" y="0" class="st53 st54">лорем ипсум лорем ипсум</tspan><tspan x="0" y="24" class="st53 st54">лорем ипсумлорем ипсум</tspan><tspan x="0" y="48" class="st53 st54">лорем ипсумлорем ипсумё</tspan><tspan x="0" y="72" class="st53 st54">лорем ипсумлорем ипсум</tspan><tspan x="0" y="96" class="st53 st54">лорем ипсумлорем ипсум</tspan><tspan x="0" y="144" class="st53 st54">лорем ипсумлорем ипсум</tspan><tspan x="0" y="168" class="st53 st54">лорем ипсум</tspan><tspan x="0" y="192" class="st53 st54">лорем ипсумлорем ипсум</tspan></text>
			<g>
				<line class="st52" x1="531.6" y1="381.6" x2="546.7" y2="366.5"/>
				<line class="st52" x1="546.7" y1="381.6" x2="531.6" y2="366.5"/>
			</g>
		</g>
	</g>
</g>
<g id="редактор" class="st50">
</g>
<g id="БОРДЕРЫ">
</g>
</svg>
