<?xml version="1.0" encoding="utf-8"?>
<!-- Generator: Adobe Illustrator 25.0.1, SVG Export Plug-In . SVG Version: 6.00 Build 0)  -->
<svg version="1.1" xmlns="http://www.w3.org/2000/svg" xmlns:xlink="http://www.w3.org/1999/xlink" x="0px" y="0px"
	 viewBox="0 0 1280 720" style="enable-background:new 0 0 1280 720;" xml:space="preserve">
<style type="text/css">
	.st0{fill:#F7EFE2;}
	.st1{fill:none;stroke:#FF0020;stroke-width:16;stroke-miterlimit:10;stroke-dasharray:30.47,20.31;}
	.st2{fill:none;stroke:#FF81E7;stroke-width:16;stroke-miterlimit:10;stroke-dasharray:30.47,20.31;}
	.st3{fill:none;stroke:#00FFA9;stroke-width:16;stroke-miterlimit:10;stroke-dasharray:29.94,19.96;}
	.st4{fill:#D8E5A5;}
	.st5{fill:#A8E0A1;}
	.st6{fill:#FFF3AE;}
	.st7{fill:#6000FF;}
	.st8{fill:#FF81E7;}
	.st9{fill:#FFFFFF;stroke:#FFFFFF;stroke-width:2;stroke-miterlimit:10;}
	.st10{fill:#0097DD;}
	.st11{fill:#FF76EB;}
	.st12{fill:#FFFFFF;}
	.st13{stroke:#000000;stroke-miterlimit:10;}
	.st14{fill:#FB6700;}
	.st15{fill:none;stroke:#FF0020;stroke-width:16;stroke-miterlimit:10;}
	.st16{fill:none;stroke:#FF0020;stroke-width:16;stroke-miterlimit:10;stroke-dasharray:29.82,19.88;}
	.st17{fill:none;stroke:#FF0020;stroke-width:16;stroke-miterlimit:10;stroke-dasharray:29.73,19.82;}
	.st18{fill:#6DFC6D;}
	.st19{fill:#00FFA9;}
	.st20{fill:#754C24;}
	.st21{fill:#FF0020;}
	.st22{fill:#FDFF00;}
	.st23{fill:#EB7000;}
	.st24{fill:none;}
	.st25{fill:#231F20;}
	.st26{fill:#FF00BD;stroke:#FF00BD;stroke-width:0.5;stroke-miterlimit:10;}
	.st27{opacity:0.59;}
	.st28{fill:none;stroke:#F7EFE2;stroke-width:50;stroke-miterlimit:10;}
	.st29{fill:none;stroke:#00FFA9;stroke-width:50;stroke-miterlimit:10;}
	.st30{fill:#F0ED00;}
	.st31{fill:none;stroke:#000000;stroke-miterlimit:10;}
	.st32{fill:#01140D;}
	.st33{fill:#F9C6CA;}
	.st34{fill:#FFFFFF;stroke:#000000;stroke-width:2;stroke-miterlimit:10;}
	.st35{stroke:#000000;stroke-width:0.25;stroke-miterlimit:10;}
	.st36{fill:#FFD400;}
	.st37{fill:#B9FCF7;}
	.st38{fill:#55FFEE;}
	.st39{fill:#FFFFFF;stroke:#FFFFFF;stroke-miterlimit:10;}
	.st40{fill:none;stroke:#00FFA9;stroke-width:2;stroke-miterlimit:10;}
	.st41{fill:#00FFA9;stroke:#00FFA9;stroke-width:2;stroke-miterlimit:10;}
	.st42{fill:#8E5F53;}
	.st43{fill:#634137;}
	.st44{fill:#F6A9CB;}
	.st45{fill:none;stroke:#6000FF;stroke-miterlimit:10;}
	.st46{fill:none;stroke:#F0ED00;stroke-miterlimit:10;}
	.st47{fill:none;stroke:#F0ED00;stroke-width:2;stroke-miterlimit:10;}
	.st48{fill:#A5A5A5;}
	.st49{fill:#7C7C7C;}
	.st50{display:none;}
	.st51{display:inline;}
	.st52{fill:none;stroke:#000000;stroke-width:2;stroke-miterlimit:10;}
	.st53{font-family:'IBMPlexMono-Text';}
	.st54{font-size:20px;}
	.st55{display:inline;fill:#FFFFFF;stroke:#231F20;stroke-width:2;stroke-miterlimit:10;}
	.st56{display:inline;opacity:0.12;fill:#0097DD;}
	.st57{display:inline;opacity:0.12;fill:#FF76EB;}
	.st58{display:inline;fill:#FF0020;}
	.st59{display:inline;fill:#6000FF;}
	.st60{display:inline;fill:#FF76EB;}
	.st61{display:inline;fill:#FDFF00;}
	.st62{display:inline;fill:#FB6700;}
	.st63{display:inline;fill:#FFFFFF;}
	.st64{display:inline;stroke:#000000;stroke-miterlimit:10;}
	.st65{display:inline;fill:#FFD400;}
	.st66{display:inline;fill:#EB7000;}
	.st67{display:inline;fill:#231F20;}
	.st68{display:inline;fill:#00FFA9;}
	.st69{display:inline;opacity:0.35;fill:#0097DD;}
	.st70{display:inline;opacity:0.35;}
	.st71{display:inline;opacity:0.35;fill:#0097DD;stroke:#0097DD;stroke-width:3;stroke-miterlimit:10;}
	.st72{fill:none;stroke:#000000;stroke-width:3;stroke-miterlimit:10;}
	.st73{fill:#606060;}
</style>
<g id="Layer_5">
	<rect x="-12.9" y="-23.3" class="st0" width="3863.3" height="2193"/>
</g>
<g id="Layer_9">
	<path class="st1" d="M2188.4,236.6c-21.1-23.1-47.9-58.2-84.9-27.1c-60.4,50.8-148.5-63.5-197.5-30.5
		c-68,45.8-132.8,37.2-183.6,26.7c-29.4-6.1-107.5,37.3-147.3,67.4c-37.4,28.3-65.1,49.1-133.2,27.5c-46.1-14.6-68.3,5.4-82.9,9.8
		c-27.5-0.5-54.9-5.2-81-14.1"/>
	<path class="st1" d="M805.1,409.1c-15.3-27.3-33.4-67.6-76.5-45.7c-70.4,35.7-130.1-95.6-185.3-74.7c-76.7,29.1-137.8,6-184.8-15.8
		c-27.2-12.6-113.2,11.8-158.8,32.1c-42.9,19.1-74.5,33-136-3.5c-41.6-24.7-67.7-10.3-83-9.3c-26.7-6.7-52.2-17.5-75.7-32.1"/>
</g>
<g id="Layer_11">
	<path class="st4" d="M845.3,696.8H209.3c-22,0-39.9-17.8-39.9-39.9V455.6c0-22,17.8-39.9,39.9-39.9h635.9c22,0,39.9,17.8,39.9,39.9
		v201.3C885.1,678.9,867.3,696.8,845.3,696.8z"/>
	<path class="st6" d="M472.7,502.9c-38.1-9.9-55.8-10.1-59.2-21.9c-4.1-14.2,18.4-26,78.5-88.8c30.3-31.7,41.7-46.6,46.3-52.8
		c26.4-35.3,22-40.6,34.8-50.2c28.7-21.6,55,2.2,130,1.3c62.1-0.7,85.1-17.5,103,0c17.1,16.8,15.2,51.1,3.9,73.4
		c-7.1,13.9-16.7,20.8-48.9,41.2c-72.9,46.1-73.2,42.3-86.2,54.1c-44.8,40.5-28,74.2-59.2,87.5C584.9,559.7,567.7,527.7,472.7,502.9
		z"/>
	<path class="st9" d="M1196.8,141.8v112.3c0,11.1-1.9,21.7-5.4,31.5v173.9c0,52.1-42.2,94.3-94.3,94.3h-72.2
		c-52.1,0-94.3-42.2-94.3-94.3V348.4H736.9c-52.1,0-94.3-42.2-94.3-94.3V141.8c0-52.1,42.2-94.3,94.3-94.3h365.7
		C1154.6,47.5,1196.8,89.7,1196.8,141.8z"/>
	<path class="st10" d="M-12.9,88.4c-1.2,50.5-2.2,94.9,22.5,123.1C42.4,249,106.2,242,179.4,234c119.5-13.2,147-49.9,205.2-28
		c33.8,12.8,27.3,26.2,98.9,72.8c48.6,31.6,74.2,48.2,110.1,56c60.1,12.9,150.1,1.1,169.8-44.8c25.9-60.2-85.9-140.5-57.8-184.7
		c16.8-26.5,100.1,24.1,166.8-13.1c15.2-8.5,30.3-18,29.1-42.1C897-44.6,53.4-104.7,0,48.5C-3.9,59.8-11.9,46-12.9,88.4z"/>
	<path class="st5" d="M215,620.5H23.9c-20.3,0-36.7-16.4-36.7-36.7V380.7c0-20.3,16.4-36.7,36.7-36.7H215
		c20.3,0,36.7,16.4,36.7,36.7v203.1C251.7,604.1,235.3,620.5,215,620.5z"/>
</g>
<g id="Layer_1">
	<g>
		<g>
		</g>
	</g>
	<path class="st4" d="M1805.8,723.6H1218c-37,0-67-30-67-67V414c0-37,30-67,67-67h587.8c37,0,67,30,67,67v242.6
		C1872.8,693.6,1842.8,723.6,1805.8,723.6z"/>
	<g id="Layer_8">
		<path class="st5" d="M1278.7,646.1c102.4-99.7,204.7-199.4,307.1-299c60.4,0,120.7,0,181.1,0c-73.5,124.3-228.7,248.7-302.1,373
			c-88.8,0-95.9,0-184.8,0C1279.6,695.4,1279.1,670.7,1278.7,646.1z"/>
	</g>
	<g>
		<path class="st19" d="M903.1,557.7c-8.4,7.4-17.8,15.7-31.5,17.4c-11.7,1.5-14.3-3.4-48-9.4c-12.5-2.3-25.3-2.5-37.8-0.4
			c-42.3,6.2-46.2,6.1-51,3.9c-9.5-4.4-18.9-15.1-16.2-22.6c2.7-7.5,16.8-8.4,18.2-8.5c-7.5,0.3-29.7,0-46.3-15.9
			c-9-8.6-19.6-24.9-14.5-33.6c5.9-9.9,28.8-4.2,30.6-11c1.5-5.6-14-9.9-14.9-20.4c-0.9-10.5,13.2-21.3,25.1-25.1
			c19.7-6.2,37.2,5.8,39.9,7.6c0-0.7,1.2-10.9,9.4-14.9c8.2-3.9,18.5,1.2,23,8.5c1.5,2.5,2.4,5.3,2.6,8.2c1.2-5.2,3.9-10,7.6-13.8
			c3.4-3.1,7.4-5.5,11.8-6.9c4.4-1.4,9.1-1.8,13.7-1.2c12.2,2.1,23.5,12.3,24.6,25.5c0.5,6.8-1.5,13.6-5.6,19.1
			c4.3-4.7,9.5-8.5,15.4-11c8.9-3.8,26.6-7.6,35.8,1.7c10.6,10.8,3.5,32.9-5.1,45c-3.7,5.1-8.3,9.5-13.7,12.9
			c3.4-0.8,6.8-1.1,10.3-0.9c14.4,0.6,32.1,9.6,33.1,21.7C920.4,542.4,912.5,549.4,903.1,557.7z"/>
		<path class="st20" d="M814.2,542.3H797v129.2h17.2V542.3z"/>
		<path class="st19" d="M804.5,555.2c19.6,0,35.5-13,35.5-29.1S824.2,497,804.5,497c-19.6,0-35.5,13-35.5,29.1
			S784.9,555.2,804.5,555.2z"/>
	</g>
	<path class="st18" d="M875,683.3c-2,0.2-2.2-0.2-0.8-1.5c-1.7,0.7-1.8,0.4-0.7-0.8c-1.2,0.4-1.7,0.2-1.7-0.3c0,0-0.1-0.1-0.1-0.1
		c0-0.1,0-0.1,0-0.2c-0.1-0.2-0.1-0.5,0-0.8c-0.9,0.3-1.3,0-0.4-0.4c-0.7-0.1-1.2-0.2-1.2-0.4s0.3-0.4,1-0.6c-1.9,0.1-1.9-0.2-0.3-1
		c-2,0.6-2.3,0.5-0.3-0.7c-2.2,0.9-2.2,0.6-0.5-0.8c-2.3,1.5-2.4,1.3-0.8-0.8c-1.8,1.5-2.1,1.6-0.8-0.7c-0.9,0.9-1.3,1.3-1.6,1.2
		c-0.3-0.1-0.1-0.3,0-0.6c0-0.3,0.1-0.6,0.2-0.9h-0.2l-0.1,0.1h0.1h-0.1c-0.1,0.1-0.1,0.2-0.1,0.3c0,0.1,0,0.1,0,0.2h0.1h-0.1
		c0,0,0,0,0,0.1h-0.2h-0.1l0.1,0.1h-0.1l0.1,0.1h0.1h-0.1h-0.2l0.3,0.1l-0.3-0.1h0.1c0,0,0,0-0.1,0h0.1h-0.1l0.1,0.1h-0.1
		c0,0.1,0.1,0.1,0.2,0.1c-0.2-0.1-0.4-0.2-0.5-0.3l0.6,0.3l-0.6-0.3l0.3,0.2l-0.3-0.2c0.1,0.1,0.3,0.2,0.5,0.3l-0.6-0.3l0.4,0.2
		l-0.3-0.2l0.3,0.2h-0.1l0.3,0.2l-0.2-0.1h0.1h-0.1l0.2,0.1l-0.2-0.1l0.2,0.1l-0.2-0.1c0.1,0.1,0.2,0.1,0.3,0.2
		c-0.1,0-0.2-0.1-0.3-0.2l-0.2-0.1c-0.2-0.1-0.3-0.2-0.5-0.3l-0.1-0.1l0.8,0.6l-0.7-0.4l0.2,0.1l0.4,0.3H866l0.3,0.2l-0.5-0.3
		l0.5,0.4c-1.2-0.8-1.9-1.2-0.9-0.6c-0.4-0.3-0.5-0.4,0-0.1l-0.1-0.1c-0.4-0.3-0.5-0.4-0.3-0.3l-0.1-0.1c-0.1-0.1-0.2-0.2-0.3-0.4
		c-0.1,0-0.3-0.1-0.4-0.2c-0.4-0.1-0.5-0.3-0.3-0.6c0-0.1,0.1-0.1,0.1-0.2c-0.4,0-0.6,0-0.6,0c0,0,0-0.1,0.1-0.1
		c-0.2-0.1,0-0.3,0.3-0.7c-0.9,0.3-1.3,0.3-0.5-0.5c-1.1,0.6-1,0.2-0.3-0.5c-0.9,0.6-1.2,0.7-0.4-0.3c-0.9,0.8-0.7,0.4-0.1-0.3
		c-0.9,0.8-1.3,1.1-0.4-0.1c-1,1.2-0.7,0.8,0-0.2c-0.8,0.9-1.1,1.3-0.3,0c-1,1.2-0.8,0.7-0.2-0.3c-0.6,0.7-0.9,1-0.4-0.1
		c-0.8,1-0.7,0.6-0.4-0.3c-0.6,0.8-0.9,1-0.6-0.1c-0.6,1-0.6,0.5-0.6-0.3c-0.3,0.4-0.5,0.6-0.7,0.4c0,0.3-0.1,0.3-0.1,0.2
		c0-0.1-0.1-0.1-0.2-0.4c0,0.1-0.1,0.1-0.1,0.1c0,0-0.1,0.1-0.2,0.1c-0.2,0.2-0.4,0-0.7-0.3l-0.1-0.1c-0.2,0-0.4,0-0.6-0.1h-0.1
		c-0.1,0-0.1-0.1-0.2-0.1c0.1,0.4-0.5,0.2-1.4-0.3c0.7,0.5,1.2,0.9,1.1,0.7c0.1,0.3,0,0.4-0.2,0.3c0,0.1,0,0.2-0.3,0.1
		c-0.3,0-0.5-0.1-0.8-0.2c0.4,0.3,0.4,0.4,0,0.3c0.3,0.2,0.3,0.2-0.5-0.2l0.5,0.2l-0.6-0.4c0.3,0.5-0.4,0.2-0.4-0.3
		c-0.5,0-0.6-0.3-0.4-0.8c-0.3-0.2-0.2-0.6,0-1.1c-1.2,0.3-2.1,0.5-2-0.7c-1.6,1.1-2.2,0.9-2.6-1c-0.9,0.9-1.5,0.2-2.2-0.7
		c-0.2,0.5-0.4,0.8-0.8,0.8c-0.2,0.6-0.4,0.7-0.9,0.3c-0.5,0.5-1.2,0.3-0.3-0.2c-1.2,0-2,0-2.2-0.3c-0.2-0.3,0.1-0.8,1.2-1.7
		c-3.6,1.5-4.4,1.3-4.8-2.7c-1.1,3.6-1.9,3.5-4.4,1.2c0.5,1,0.5,1.4,0.3,1.5c-0.2,0-0.5,0-0.6-0.1c-0.2-0.1-0.3-0.3-0.4-0.5
		c-0.6,0.5-1.3,0.4-0.4-0.5c-2.1,0.4-2.4,0-1.1-1.6c-2.4,1.3-3.3,1.3-3.4-1.7c-1.5,2.9-2.2,2.6-3.7,0.2c0.1,1.3-0.6,0.5-1.4-0.6
		c0,1.5-0.2,2.3-1.1,2c0,0.5-0.7,0-1.7-0.8c0.8,1.5,0.5,1.5-0.6,0.5c0.6,0.9,0.1,0.8-0.7,0.6c-0.2,0.1-0.6,0.1-0.3-0.2
		c-1,0.2-1.3,0.2-0.5-0.8c-1.5,0.7-1.7,0.6-0.7-0.8c-1.6,1.3-2,1.4-0.9-0.8c-1.7,2-1.9,1.7-1.1-0.6c-1.2,2.4-1.4,2.6-0.7-0.3
		c-1.1,2.8-1.2,2.5-0.9-0.3c-0.7,2.7-1,3-1.3-0.1c-0.3,3.1-0.7,2.9-1.9,0.2c0.3,2.6-0.1,2.7-2,0.9c0.2,0.3,0.3,0.5,0.4,0.7
		c0.5,0.7,0.6,0.9,0.3,0.7c0,0.1,0,0.1-0.2,0c-0.2-0.1-0.2,0-0.5-0.2c0.1,0.3,0,0.4-0.3,0.3c-0.1,0-0.2,0-0.3,0
		c0.5,0.2,0.3,0.2-0.4-0.1l-0.4-0.2c-0.1,0.1-0.2,0.1-0.2,0.1c-0.1,0-0.2,0-0.3,0c-0.1-0.1,0.2-0.5,1.1-1.3
		c-0.7,0.4-1.5,0.7-2.3,0.9c-1.2,0.1-1.6-0.7-1.7-3c-0.3,0.8-0.7,1.6-1.2,2.3c-0.1,0.2-0.3,0.3-0.6,0.4c-0.2,0-0.5,0-0.7-0.2
		c-0.7-0.5-1.3-1.1-1.9-1.7c0.4,1.1,0.6,1.7,0.9,1.6l0.2-0.1c-0.1,0.1-0.1,0.1-0.2,0.1c-0.2,0.2-0.4,0.3-0.6,0.3
		c-0.2,0-0.5-0.1-0.6-0.3c-0.7,0.5-1,0-1-1.6c0,2.5-0.5,2.5-0.8-0.2c-0.7,1.7-1.1,2.3-1.6,1.7c-0.1,0.1-0.2,0.2-0.3,0.2
		c-0.1,0-0.2,0.1-0.4,0h-0.1c-0.2,0.1-0.4,0.1-0.7,0c-0.3,0.1-0.8-0.1-1.5-0.6l-0.2-0.2l-0.3-0.2c0.1,0.9-0.3,0.8-0.7,0.1
		c0-0.1-0.1-0.4-0.2-0.9c-0.1-0.5-0.2-1-0.3-1.7c-1,4-1.9,4-5.2,1.8c0,0.1,0.1,0.2,0.1,0.2c2.4,1.9,2.5,1.9,0.2,0.4
		c0.5,0.7,0.6,1.1,0.3,1.3c-0.1,0.1-0.3,0.1-0.4,0.1c-0.1,0-0.2,0-0.3,0c-0.3,0-0.7,0-0.7-0.4c0.1,0.3,0.2,0.4,0.3,0.4h0.1h-0.1
		c-0.3,0-0.6,0-0.3-0.4c-0.7,0.3-1.2,0.4-1.2,0.2c-0.1,0-0.1,0-0.2,0c-0.1,0-0.2,0-0.3,0c-0.1,0-0.2-0.1-0.3-0.1
		c-0.6,0.2-0.7-0.1-0.4-0.9c0-0.4,0-0.8,0-1.2c-1.4,2.6-1.6,2.6-0.3-0.1c-2,2.9-2.6,2.9-3.2-0.7c-0.3,1.2-0.7,2.1-0.3,2.3
		c-0.4,0.2-0.7,0.4-0.9,0.5l0.9-0.1l-0.6,0.2h0.3l-3.6,0.7c-0.8,0.2-1.3,0.3-0.7-0.2c-1.3,0.6-1.5,0.6-0.2-0.3
		c-1.6,0.9-1.8,0.9-0.3-0.4c-2.2,1.3-2.6,1.4-1.6-1.3c-1.7,1.8-2.9,2.4-4.5,2.2h-0.1c-0.2,0.1-0.5,0.1-0.7,0.1
		c0,0.1-0.2,0.1-0.3,0.1c-0.2,0-0.3,0.2-0.6,0.1c-0.8-0.3-1.6-0.7-2.4-1.1c1.2,0.9,1.7,1.4,1.7,1.4c0,0-0.3,0.1-0.6-0.1l-0.1,0.1
		c-0.4,0.4-0.8,0.3-1.3-0.3c-0.2,0.6-0.3,0.7-0.3,0.4c-0.6,0.8-0.9,0.5-0.8-1c-0.9,2-1.3,2.1-1.9-0.1c-0.3,2.3-0.7,2.3-1.9,0.4
		c0.2,1,0.2,1.5,0,1.6c-0.2,0.1-0.7-0.2-1.4-0.9c0.3,0.7,0.4,1.1,0.3,1.2c0,0-0.1,0-0.2,0c-0.1,0-0.1,0-0.2,0
		c-0.1,0-0.1-0.1-0.1-0.1c0,0-0.1-0.1-0.1-0.2c-0.1,0-0.2,0.1-0.2,0.2c0,0,0,0.1,0,0.1c0,0,0.1,0.1,0.1,0.1h0.2H757
		c0.1,0,0.2,0,0.3,0c-0.2,0-0.4,0-0.6,0c-0.3,0.1-0.6,0.1-0.8,0.1c-0.2,0-0.3,0-0.3,0c0,0-0.1,0-0.1,0c-0.1,0-0.3,0-0.4-0.1
		c-0.1,0-0.1-0.1-0.1-0.1c0,0-0.1-0.1-0.1-0.1c-0.9,0.5-0.9,0.5,0-0.1c0-0.4,0.2-0.7,0.4-1c-2.8,2.1-3.5,2.2-4-1.6
		c-1.1,4.1-1.8,4.2-5.6,2.3c0.4,0.4,0.7,0.9,0.9,1.5c1,0.4,1,0.5,0,0.2c0,0.1,0,0.2,0,0.3s-0.1,0.2-0.2,0.2
		c-0.1,0.1-0.2,0.2-0.4,0.2c0,0.2-0.7,0.3-1.9,0.4c0.6,0,1.3-0.2,1.9-0.4h-0.1c0,0.2-0.5,0.3-1.2,0.3c-0.1,0-0.3,0-0.4,0H744
		c-0.2-0.2-0.3-0.4-0.4-0.6c-0.2-0.5-0.3-1-0.4-1.5c-1.4,3.2-2.4,3.4-5.4,1.7c0.5,0.9,0.7,1.5,0.9,1.3c0.1,0,0.1-0.1,0.1-0.1
		c0,0.1-0.1,0.1-0.1,0.1c-0.9,1-1.6,0.9-1.9-1.1c0.1,2.4-0.2,2.5-0.2,0c-0.7,2.6-1.1,2.8-1.3-0.2c-0.7,3.2-1.1,3.4-2.8,0.4
		c0.8,3.2,0.4,3.4-2.1,1.2c1.7,2.1,1.4,2-0.3,0.2c1,1.4,1,1.8-0.2,1.4c0.5,0.5,0.5,0.5-0.3,0c0.3,0.7-0.1,0.8-1,0.5
		c0.4,0.1,0.1-0.3-0.2-0.9c-0.1,0.8-0.2,1.3-0.3,1.4s-0.4-0.2-0.7-1.2c-0.2,2.4-0.9,2.3-2.6,0.7c0.9,1.9,0.9,2.3-1,0.8
		c1.3,2,0.9,2.1-1.2,1.3c1.3,1.3,0.8,1.6-0.5,0.7c0.7,0.8,0.3,1.1-0.4,0.8c0.4,0.1,0.3-0.2,0.2-1c-0.5,1-1,1.6-1.3,1.6
		c-0.4,0-0.6-0.6-0.8-2c-0.9,2.9-1.5,2.6-2.8,0.3c0.4,2.4,0.2,3.1-2.3,1.7c1.9,2.5,1.5,2.8-1.4,2.2c1.7,0.9,0.9,0.8-0.5,0.6
		c1,0.9,1.1,1.4,0,1.4c0.9,0.4,0.6,0.7-0.1,0c0.2,0.7,0,0.5-0.4-0.3c0,0.3,0,0.7-0.1,1c0,0.1-0.1-0.1-0.2-0.8
		c-0.1,1.5-0.3,1-0.6-0.1c0,1.5-0.1,2.2-0.9,0.3c0.2,2.1-0.3,1.5-1.1,0.1c0.2,1.3,0.2,2.2-1.5,1.1c1.3,2.5,1,2.9-1.9,2.2
		c1.5,1.3,0.6,1.4-0.8,1.5c0.7,0.4,1.2,0.7,1.2,1c0,0.3-0.2,0.7-1.2,0.9l0.7,0.3c0-0.1-0.1-0.2-0.2-0.4c0.5,0.4,0.5,0.5,0.2,0.4
		c0.4,0.9,0,1.1-1.3,0.7c0.8,0.4,1.2,0.8,1.1,0.9c5.3,0-2.3,4.6-4.2,7.2c15.1,0.1,30.3,0.6,45.4,1.2c43-1.3,92.1-4.3,127.7-4.8
		c0-0.3,0.1-0.5,0.3-0.7c0.2-0.2,0.4-0.4,0.6-0.5C873.8,685.4,873.6,684.7,875,683.3z"/>
</g>
<g id="Layer_2">
	<path class="st10" d="M1405.2,56.9c8.3-3.3,16.7-4.9,25.4-5.2c1.7-0.1,3.4-0.1,5,0.1c6.7,0.5,13.5,2.8,20.5,7.5
		c1.1,0.6,2.8,0,4.5,0.2c1.5,0.1,3,0.1,4.5,0.1c1.5,0,2.9,0,4.4-0.1c12.3-2.5,23.6-14.2,37-9.2c6.7,2.8,12.3,9,19.9,9.1
		c1.5,0.1,3.1,0.2,4.6,0.1c2.1,0,4.2,0,6.1,0c9.5,0,15.5,0,15.5,0c12.7,0,23.8,7.3,29.1,18c7.6-22.8,17.5-65.1-4.6-95.1
		c-38.2-51.7-149.2-35.7-156.5-10.1c-3.1,10.9,14.4,17.2,12.9,31.4c-3.4,32.1-96,23.9-143.6,74.6c-41.5,44.1-48.2,132.2-13.5,163.3
		c30,26.8,115.4,13.3,188.1-21.9c1.2-0.6,2.5-1.2,3.7-1.8c4.6-2.1,9.1-5.4,14.2-6.5c2.1,0,4.1,0,6-0.2c12.7-1.4,22.6-8.2,29-17.9
		c1.1-1.6,2-3.3,2.9-5.1c0.9-1.8,1.6-3.6,2.3-5.5c0.7-1.9,1.2-3.9,1.6-5.9c0.4-2,0.8-4.1,1-6.2c0.5-1.4,1-2.8,1.8-4.7
		c6.9-19.4,16.1-45.3,16.1-45.3c-0.5,0.6-25.4,10.5-53.5,21.8c-1.5,0.6-3,1.3-4.5,1.9c-1.5,0.7-3,1.3-4.5,1.9
		c-1.5,0.6-3,1.3-4.5,1.9c-12.1,5-23.3,10.6-35.8,14.3c-1.7,0.7-3.4,1.4-5,2.1c-8.1,3.3-14.9,6.2-19.4,8.1c-1.3,0.6-2.5,1.1-3.5,1.6
		c-8.4,3.1-17.3,3.7-25.7,6.5c5-3.9,10.7-7.3,15.7-11c1.6-1.1,3.2-2.2,5-3.4c17.7-12,45.3-30.7,73-49.5c1.8-1.3,3.7-2.5,5.5-3.8
		c9.6-6.4,18.6-14.3,28.4-19.3c1.3-0.9,2.6-1.7,3.9-2.6c32.1-21.8,45.2-30,45.2-30c-2.9,2.2-15.6,12.7-47.4,37
		c-1.2,0.9-2.4,1.8-3.6,2.7c-4.5,4-9.6,6.8-14.2,10.8c-1.6,1.2-3.2,2.4-4.7,3.6c-23.9,18.1-49.4,37.2-71.5,53.2
		c-1,0.7-2,1.5-3.1,2.2c-14.8,12.1-31.1,21.1-48.5,27.8c-1.1,0.6-2.1,1.2-3.1,1.9c-1,0.7-1.9,1.4-2.8,2.2
		c-7.6,7.1-19.4,11.1-27.8,5.4c-10.1-6.2-17.4-17.4-18.5-29.5c0-1.3,0.2-2.6,0.4-3.8c0.3-1.4,0.9-2.9,1.6-4.2
		c0.7-1.5,1.6-2.9,2.5-4.5c3.9-6.3,9.5-14.1,11.2-19.2c3.9-9.5,6.7-21.9,11-32.5c0.9-1.6,2-3,3.2-4.2c5.4-6.4,13.3-6.4,20.6-5.9
		c-2.8-10.7,3.4-20.2,8.4-28.5c0.7-1.2,1.5-2.4,2.3-3.5c0.9-1.1,1.8-2.1,2.7-3.1c5.6-5.3,11.2-9.2,18.6-11.2
		C1402.1,57.5,1403.6,57.2,1405.2,56.9z"/>
	<g>
		<path class="st37" d="M1126.6,389.3c14.2-6.1,28.3-12.1,42.5-18.2c2,0.1,4.1,0.2,6.1,0.3c46.4,2.1,98.4-2.3,155.4-18
			c0.6-2.5,1.4-6.3,1.9-10.9c5.1-43.4-19-92.3-58.9-118.1c-25.3-16.4-49.8-18.8-56.3-19.3c-25.9-2-45.6,5.1-52.8,8
			c-27.2,11-42.4,29.4-49.2,38c-12.9,16.1-19.5,31.9-22.8,42.1c-3.2-0.5-8.5-1-14.6,0.7c0,0-8,2.2-15.3,9.1
			c-6.2,5.8-10.6,17-12,31.3c-0.8,8.6-0.6,18.3,1,28.7c4.9,2,9.9,4,14.8,5.9c-0.7-2.5-1.5-6.1-2-10.7c-0.4-3.9-1.1-12.9,1.7-23.8
			c2.5-9.5,5.4-12.3,6.9-13.4c1.2-0.9,3.4-2.5,6.3-2.6c5.1-0.1,8.9,4.8,11.4,8.2c1.1,1.4,5,6.8,8.2,18.8c3.2,11.7,3.5,21.6,3.7,27.9
			c0.1,3.3,0,6,0,7.8C1110.6,383.9,1118.6,386.6,1126.6,389.3z"/>
		<path class="st38" d="M1066.4,368.9c11.9-2,23.7-3.9,35.6-5.9c-0.2-2.8-0.7-6.8-1.7-11.5c-1.8-8.5-4.6-17-9.6-24.8
			c-2.9-4.6-4.9-6.4-7.5-7.3c-4.4-1.4-8.5,0.5-8.9,0.8c-6.5,3.3-8,11.9-9.5,20.6c-0.4,2.1-1.6,10.2,0,20.6
			C1065.2,364.5,1065.9,367.1,1066.4,368.9z"/>
		<path class="st37" d="M1066.4,368.9c-4.9-2-9.9-4-14.8-5.9c-0.3-2.1-0.7-5.1-1-8.8c-0.5-6.4-1.2-15.5,1-26.5
			c1.3-6.4,3.3-15.9,10.3-24c2.8-3.1,4.8-4.4,6.3-5.1c6.8-3.3,13.9-1.2,16.8-0.3c16.7,5,26.9,26.5,32.2,37.6
			c9.2,19.3,10,34.6,10.1,39.3c0.2,5.8-0.2,10.6-0.7,14.2c-8-2.7-16-5.4-24-8.2c0.1-2.9,0.1-7.1-0.2-12.2c-0.3-5.4-1.3-17.1-6-31.1
			c-2.3-6.8-4.4-11.2-8.4-14.8c-1.8-1.7-4.3-3.9-7.9-4.1c-5.5-0.3-9.6,4.4-10.6,5.6c-1.7,1.9-4.7,6.2-5.2,19.7
			C1064.1,350.2,1064.2,358.7,1066.4,368.9z"/>
		<path class="st38" d="M1068.1,298.6c1.7-1.2,4.2-2.7,7.5-3.9c3.7-1.3,7.3-1.8,15-1.7c8.4,0.1,14.8,0.9,16.6,1.1
			c12.2,1.5,18.2,2.2,25.3,5c8,3.1,13.4,7.1,15.6,8.7c2.2,1.7,10.5,8.3,16.2,18.5c10.7,19.2,6,39.7,4.7,44.9
			c-14.2,6.1-28.3,12.1-42.5,18.2c0.3-2.1,0.6-5.1,0.7-8.7c0.4-14.5-2.9-25.4-5.1-32.3c-4.2-13.4-9.7-22.4-13.7-28.9
			c-4.9-7.9-8.6-12.2-13.5-15.8c-2.6-2-6.3-4.6-11.9-5.8C1076.4,296.3,1070.9,297.7,1068.1,298.6z"/>
		<g>
			<path class="st12" d="M1149.6,227.4c2.3,0.8,4.7,1.6,7,2.3c2.4,0.7,4.7,1.4,7.1,1.9l3.6,0.8c1.2,0.3,2.4,0.6,3.6,0.8l3.6,0.6
				c1.2,0.2,2.4,0.5,3.6,0.6c9.7,1.4,19.6,1.8,29.4,1.3c2.4-0.2,4.9-0.3,7.3-0.6l3.7-0.4c1.2-0.1,2.4-0.4,3.6-0.5l3.6-0.5l3.6-0.6
				c2.4-0.4,4.8-0.8,7.2-1.3c9.7-1.7,19.2-4.1,28.9-6.4l0.1,0.4c-4.5,2.2-9.1,4.1-13.8,5.8c-1.2,0.4-2.4,0.8-3.6,1.2l-3.6,1.1
				c-2.4,0.6-4.8,1.3-7.3,1.9c-2.4,0.5-4.9,1.1-7.4,1.5l-3.7,0.6c-1.2,0.2-2.5,0.3-3.7,0.4c-1.2,0.1-2.5,0.3-3.7,0.3l-3.8,0.2
				c-2.5,0.2-5,0.2-7.5,0.2c-10,0.1-20-0.7-29.8-2.5c-1.2-0.2-2.4-0.5-3.7-0.8l-3.6-0.8c-1.2-0.3-2.4-0.6-3.6-1l-3.6-1
				c-4.8-1.4-9.4-3.1-14-5.1L1149.6,227.4z"/>
		</g>
		<g>
			<path class="st12" d="M1197.1,210.2c-0.9,1.9-1.7,3.8-2.5,5.7c-0.4,1-0.7,1.9-1,2.9c-0.3,1-0.7,1.9-0.9,2.9c-0.6,2-0.7,4-1.5,5.9
				c-0.8,1.9-1.6,3.7-3.1,5.6l-0.4-0.1c-0.7-2.2-0.7-4.5-0.4-6.6c0.2-1.1,0.5-2.1,1-3.1l1.5-2.9c0.9-1.9,2-3.8,3.2-5.6
				c1.2-1.7,2.5-3.5,3.9-5L1197.1,210.2z"/>
		</g>
		<g>
			<path class="st12" d="M1227.3,211.6c1.5,0.9,2.8,2.1,4.1,3.3c0.6,0.6,1.2,1.3,1.8,1.9c0.6,0.7,1.1,1.4,1.6,2.1
				c0.5,0.7,1.1,1.5,1.6,2.2c0.5,0.8,0.9,1.6,1.1,2.5c0.4,1.8,0.5,3.6-0.1,5.6l-0.4,0.1c-1.5-1.4-2.4-2.8-3.2-4.2
				c-0.9-1.4-1.1-3.1-1.7-4.6c-0.7-1.5-1.4-3-2.3-4.4c-0.8-1.5-1.8-2.8-2.8-4.2L1227.3,211.6z"/>
		</g>
		<g>
			<path class="st12" d="M1119.5,255.3c13.7,5,27.8,8.4,42.2,10.4c14.3,2,28.8,2.6,43.3,1.8l5.4-0.4c1.8-0.1,3.6-0.2,5.4-0.5
				l5.4-0.6l2.7-0.3l2.7-0.4c3.6-0.5,7.1-1,10.7-1.7l5.3-0.9c1.8-0.3,3.5-0.7,5.3-1l5.3-1l5.3-1.2c1.8-0.4,3.5-0.7,5.3-1.2l5.3-1.3
				c7-1.7,14.1-3.6,21.1-5.4l0.1,0.4c-1.7,0.7-3.4,1.4-5,2.1c-1.7,0.7-3.4,1.4-5.1,2c-3.4,1.2-6.8,2.6-10.3,3.6
				c-3.5,1.1-7,2.2-10.5,3.1l-5.3,1.4l-5.3,1.2c-1.8,0.4-3.6,0.8-5.4,1.2l-5.4,1c-3.6,0.7-7.2,1-10.9,1.5
				c-7.3,0.8-14.6,1.2-21.9,1.5c-14.6,0.4-29.3-0.5-43.7-3c-14.4-2.5-28.5-6.5-42-12L1119.5,255.3z"/>
		</g>
		<g>
			<path class="st12" d="M1155.8,263.2c0.4-2.2,0.9-4.3,1.4-6.5c0.5-2.2,1.1-4.3,1.8-6.4c0.3-1.1,0.6-2.1,0.9-3.2
				c0.3-1.1,0.8-2.1,1.3-3.1c0.6-1,1.2-1.9,1.9-2.8c0.7-0.9,1.5-1.7,2.5-2.5l0.4,0.2c0,1.2-0.1,2.4-0.3,3.5
				c-0.2,1.1-0.5,2.2-0.8,3.2c-0.3,1-0.8,2-1.3,3c-0.6,0.9-1.1,1.9-1.6,2.9l-2.9,5.9c-1,2-1.9,4-2.9,6L1155.8,263.2z"/>
		</g>
		<g>
			<path class="st12" d="M1222.3,261.6c0-2-0.2-3.9-0.5-5.8c-0.3-1.9-0.6-3.9-1-5.8c-0.3-2-1.1-3.7-1.2-5.6
				c-0.1-1.9-0.2-3.8,0.2-6.1l0.4-0.1c1.7,1.5,2.6,3.4,3.3,5.4c0.3,1,0.5,2,0.5,3.1c0,1.1-0.1,2.1-0.1,3.1c0,2,0,4-0.2,6
				c-0.2,2-0.4,4.1-1.1,6L1222.3,261.6z"/>
		</g>
		<g>
			<path class="st12" d="M1276.2,250.8c-1.1-1.9-2.1-3.8-3.2-5.6c-0.6-0.9-1.1-1.8-1.7-2.7c-0.6-0.9-1.1-1.8-1.8-2.7
				c-0.6-0.9-1.3-1.7-1.9-2.5c-0.7-0.8-1.2-1.7-1.7-2.6c-0.5-0.9-0.9-1.9-1.3-2.9c-0.4-1-0.8-2.1-1-3.3l0.3-0.2
				c1.1,0.5,2.1,1.1,2.9,1.9c0.9,0.7,1.7,1.5,2.4,2.4c0.7,0.9,1.3,1.8,1.8,2.8l1.4,3c0.9,2,1.8,4,2.5,6.1c0.7,2.1,1.3,4.2,1.8,6.3
				L1276.2,250.8z"/>
		</g>
		<g>
			<path class="st12" d="M1099.6,284.1c4,2.1,8,4.1,12.2,5.8c4.1,1.7,8.4,3.3,12.6,4.7c8.6,2.7,17.4,4.6,26.3,5.8
				c17.8,2.4,35.8,2.2,53.8,1.8c9-0.3,18-0.6,27-1c9-0.4,17.9-1,26.8-2.2c8.9-1.1,17.7-2.6,26.5-4.5c8.8-1.9,17.5-4.2,26.1-6.7
				l0.1,0.4c-16.6,7.2-34.3,12.1-52.2,14.8c-4.5,0.7-9,1.2-13.6,1.6c-4.5,0.3-9.1,0.5-13.6,0.6l-27.1,0.3c-18.1,0.1-36.2-0.1-54.2-3
				c-9-1.5-17.8-3.6-26.3-6.6c-4.3-1.5-8.5-3.2-12.6-5.1c-4.1-1.8-8.1-3.9-12.1-6.2L1099.6,284.1z"/>
		</g>
		<g>
			<path class="st12" d="M1124.3,294.5c-0.5-2.6-0.6-5.3-0.6-8c0.1-2.7,0.4-5.4,0.9-8.1c0.6-2.7,1-5.4,2.4-7.8
				c0.7-1.2,1.4-2.3,2.4-3.4c0.9-1.1,1.9-2,3.1-2.8l0.3,0.2c-0.2,1.4-0.6,2.7-0.9,4c-0.4,1.3-0.8,2.5-1.2,3.7
				c-0.4,1.2-0.9,2.4-1.5,3.5c-0.6,1.1-1.1,2.3-1.5,3.5c-0.8,2.4-1.5,4.9-2,7.4c-0.6,2.5-0.8,5.1-1,7.8L1124.3,294.5z"/>
		</g>
		<g>
			<path class="st12" d="M1180.5,300.3c-0.3-2.4-0.4-4.9-0.6-7.3c-0.1-2.5-0.2-4.9-0.3-7.4c-0.1-2.4-0.3-5,0.3-7.5
				c0.3-1.2,0.7-2.4,1.2-3.6c0.5-1.2,1.1-2.3,2-3.3l0.4,0.1c0.3,1.3,0.3,2.6,0.4,3.8c0,1.2,0,2.4,0,3.6c-0.1,1.2-0.2,2.4-0.5,3.5
				c-0.3,1.2-0.5,2.4-0.6,3.6c-0.3,2.4-0.6,4.8-0.9,7.2c-0.4,2.4-0.6,4.8-1,7.3L1180.5,300.3z"/>
		</g>
		<g>
			<path class="st12" d="M1256.4,298c-0.3-2.8-0.5-5.6-0.9-8.4c-0.3-2.8-0.7-5.5-1.2-8.2c-0.3-1.3-0.6-2.7-1-4
				c-0.4-1.3-0.7-2.6-1-3.9c-0.3-1.3-0.5-2.7-0.7-4.1c-0.2-1.4-0.4-2.8-0.5-4.3l0.4-0.2c1.1,1,2,2.2,2.8,3.5c0.8,1.2,1.4,2.6,2,3.9
				c0.5,1.4,0.9,2.8,1.1,4.2c0.2,1.5,0.3,2.9,0.3,4.4c0.1,1.4,0.1,2.9,0.1,4.3c0,1.4-0.1,2.9-0.1,4.3c-0.2,2.8-0.4,5.7-0.7,8.5
				L1256.4,298z"/>
		</g>
		<g>
			<path class="st12" d="M1218.2,307.7c1.8,4.8,3.3,9.7,4.5,14.7c1.2,5,2.1,10.1,2.7,15.3c0.6,5.1,1.3,10.3,0.9,15.5
				c-0.4,5.2-1.2,10.3-2.9,15.3l-0.4,0c-0.3-2.6-0.4-5.2-0.4-7.7c-0.1-1.3-0.1-2.5-0.1-3.8c0-1.3-0.1-2.5-0.1-3.8
				c-0.1-2.5-0.1-5,0-7.6c0.1-2.5,0-5.1-0.1-7.6c-0.1-2.5-0.3-5.1-0.6-7.6c-0.3-2.5-0.5-5-0.9-7.6c-0.7-5-1.8-10-3-15L1218.2,307.7z
				"/>
		</g>
		<g>
			<path class="st12" d="M1146.8,375.9c-0.5-7.9-1.7-15.6-3.8-23.2c-2-7.6-4.6-14.9-8.1-21.9c-0.9-1.7-1.8-3.4-2.7-5.1
				c-1-1.7-2-3.4-3-5c-2-3.3-4.1-6.5-6.4-9.5c-1.1-1.5-2.3-3-3.6-4.4c-0.6-0.7-1.3-1.4-2-2.1c-0.7-0.6-1.4-1.4-2.1-2
				c-2.8-2.6-5.9-5-9.2-7.2l0.2-0.4c7.6,2.4,14.5,7.3,19.8,13.5c2.6,3.1,4.8,6.5,6.7,10.1c0.9,1.8,1.8,3.5,2.7,5.3
				c0.9,1.8,1.7,3.6,2.5,5.5c3.2,7.4,5.5,15,7.1,22.8c1.5,7.8,2.3,15.7,2.2,23.6L1146.8,375.9z"/>
		</g>
		<g>
			<path class="st12" d="M1128.1,365.8c1-0.6,2.1-1.1,3.1-1.7c1-0.5,2.1-1,3.2-1.5c1.1-0.5,2-1.3,3.2-1.3c0.6,0,1.2,0,1.8,0.1
				c0.6,0.1,1.3,0.3,2,0.7l0.1,0.4c-0.4,0.7-0.9,1.2-1.3,1.6c-0.5,0.4-1,0.8-1.5,1c-1,0.6-2.3,0.4-3.4,0.5c-1.1,0.1-2.3,0.2-3.5,0.3
				c-1.2,0.1-2.3,0.1-3.5,0.1L1128.1,365.8z"/>
		</g>
		<g>
			<path class="st12" d="M1115.8,329.4c1.3-0.4,2.6-0.8,3.9-1.2c1.3-0.4,2.6-0.7,3.9-1c1.3-0.3,2.6-0.9,3.9-0.8
				c1.4,0.1,2.7,0.5,4.1,1.4l0,0.4c-1.2,1.2-2.5,1.8-3.8,2.2c-1.3,0.4-2.7,0-4,0c-1.3,0-2.7-0.1-4-0.2c-1.4-0.1-2.7-0.2-4.1-0.4
				L1115.8,329.4z"/>
		</g>
		<g>
			<path class="st12" d="M1125.9,309.1c1.3-0.4,2.6-0.7,4-1.1c1.3-0.3,2.6-0.6,4-0.9c1.3-0.3,2.6-0.9,4-0.7c1.4,0.1,2.7,0.5,4.2,1.5
				l0,0.4c-1.3,1.2-2.6,1.8-3.9,2.1c-1.3,0.4-2.7,0-4.1-0.1c-1.4-0.1-2.7-0.1-4.1-0.3c-1.4-0.2-2.7-0.3-4.1-0.5L1125.9,309.1z"/>
		</g>
		<g>
			<path class="st12" d="M1141.3,336.2c1.6-0.5,3.3-0.9,4.9-1.4c1.6-0.5,3.2-1,4.8-1.5c1.6-0.5,3.1-1.4,4.7-1.5
				c1.7-0.2,3.4-0.2,5.3,0.3l0.1,0.4c-1.3,1.6-2.8,2.5-4.4,3.2c-1.6,0.7-3.4,0.6-5.1,0.8c-0.9,0.1-1.7,0.2-2.6,0.2
				c-0.9,0-1.7,0.1-2.6,0.1c-1.7,0-3.4,0-5.1-0.2L1141.3,336.2z"/>
		</g>
		<g>
			<path class="st12" d="M1075.7,315.2c-0.5-1.2-0.8-2.4-1.2-3.6c-0.4-1.2-0.7-2.4-1-3.6c-0.3-1.2-1-2.4-0.8-3.6
				c0.1-0.6,0.2-1.3,0.4-1.9c0.2-0.6,0.5-1.3,1-2l0.4,0c0.6,0.5,1.1,1.1,1.4,1.7c0.4,0.6,0.6,1.2,0.8,1.8c0.4,1.2,0,2.5,0,3.7
				c0,1.2-0.1,2.5-0.2,3.7c-0.1,1.3-0.2,2.5-0.4,3.8L1075.7,315.2z"/>
		</g>
		<g>
			<path class="st12" d="M1051.6,334.4c1,0,2,0,3,0.1c1,0.1,2,0.2,2.9,0.3c1,0.1,2-0.1,2.9,0.5c0.4,0.3,0.8,0.6,1.2,1
				c0.4,0.4,0.7,0.9,1,1.6l-0.1,0.4c-0.6,0.4-1.2,0.6-1.7,0.7c-0.5,0.1-1.1,0.2-1.6,0.1c-1,0-1.8-0.8-2.6-1.2
				c-0.9-0.4-1.7-0.9-2.6-1.4c-0.8-0.5-1.7-1-2.5-1.6L1051.6,334.4z"/>
		</g>
		<g>
			<path class="st12" d="M1098,340.1c1-1.1,2.1-2.2,3.2-3.3c1.1-1.1,2.2-2.1,3.3-3.2c1.1-1,2-2.3,3.4-3c1.4-0.7,2.9-1.2,4.7-1.2
				l0.2,0.3c-0.6,1.8-1.6,3-2.6,4.1c-1.1,1.1-2.6,1.6-3.9,2.3c-1.3,0.8-2.7,1.5-4,2.2c-1.4,0.7-2.7,1.4-4.2,2L1098,340.1z"/>
		</g>
		<g>
			<path class="st12" d="M1106.6,363.7c1.3-0.1,2.5-0.1,3.8-0.2c1.3,0,2.5,0,3.8,0c1.3,0,2.6-0.3,3.7,0.2c0.6,0.2,1.2,0.5,1.7,0.9
				c0.6,0.4,1.1,0.8,1.6,1.5l-0.1,0.4c-0.7,0.5-1.4,0.7-2,0.9c-0.7,0.2-1.3,0.3-1.9,0.3c-1.3,0.1-2.4-0.7-3.6-1
				c-1.2-0.4-2.4-0.8-3.6-1.2c-1.2-0.5-2.4-0.9-3.5-1.4L1106.6,363.7z"/>
		</g>
		<g>
			<path class="st12" d="M1066.3,339.4c2.3-0.6,4.7-1,7-1.5c2.3-0.5,4.7-0.9,7.1-1.3c1.2-0.2,2.3-0.5,3.5-0.7
				c1.2-0.2,2.4-0.4,3.6-0.4c1.2,0,2.4,0.1,3.6,0.2c1.2,0.2,2.4,0.4,3.7,0.9l0,0.4c-1.1,0.7-2.3,1.2-3.4,1.6
				c-1.2,0.4-2.3,0.7-3.5,0.9c-1.2,0.2-2.4,0.3-3.6,0.3c-1.2,0-2.4-0.1-3.6,0c-2.4,0.1-4.8,0.1-7.2,0.1c-2.4,0-4.8,0-7.2-0.1
				L1066.3,339.4z"/>
		</g>
		<g>
			<path class="st12" d="M1086.3,364.2c-0.4-2.2-0.6-4.3-0.9-6.5c-0.3-2.2-0.5-4.3-0.7-6.5c-0.1-1.1-0.3-2.2-0.4-3.2
				c-0.1-1.1-0.2-2.2-0.1-3.3c0.1-1.1,0.3-2.2,0.5-3.3c0.3-1.1,0.6-2.2,1.2-3.3l0.4,0c0.6,1.1,1,2.2,1.3,3.2
				c0.3,1.1,0.5,2.2,0.6,3.2c0.1,1.1,0.1,2.2,0,3.3c-0.1,1.1-0.3,2.2-0.3,3.3c-0.1,2.2-0.3,4.3-0.5,6.5c-0.2,2.2-0.4,4.3-0.7,6.5
				L1086.3,364.2z"/>
		</g>
	</g>
	
		<ellipse transform="matrix(0.7645 -0.6446 0.6446 0.7645 -69.4951 137.9852)" class="st39" cx="154.1" cy="164.1" rx="194.8" ry="88.8"/>
	
		<ellipse transform="matrix(0.7645 -0.6446 0.6446 0.7645 -78.2424 365.6983)" class="st39" cx="461.4" cy="289.9" rx="151.2" ry="69"/>
	<g>
		<path class="st19" d="M328.9,667.1c0,0,0.7-0.3,0.7-0.6c0-0.5-1.8-0.2-2.8-1.2c-0.8-0.9-0.9-2.6-0.2-3.5c0.4-0.5,0.8-0.4,1.6-1.3
			c0.4-0.4,0.6-0.6,0.8-1c0.4-0.9-0.1-1.4,0-2.5c0-0.3,0.2-1.3,0.9-2c1.2-1.3,3.1-1,3.4-0.9c1,0.1,0.9,0.5,1.7,0.5
			c0.2,0,0.8,0,3-0.9c1.3-0.6,1.5-0.8,1.9-0.7c1.1,0.1,1.8,1.3,1.9,1.5c0.7,1.2,0.5,2.6,0.5,2.9c-0.4,2.2-2.6,2.8-8.9,6.9
			C331.9,665.2,328,665.6,328.9,667.1z"/>
		<path class="st19" d="M343.3,656.9c-0.4-0.6-0.7-1.4-0.4-2.1c0.3-0.9,1.3-1.2,2.3-1.5c1-0.3,2.5-0.8,3.6-0.1
			c0.9,0.6,0.5,1.4,1.4,2.1c0.3,0.2,0.6,0.4,3.5,0.8c1.6,0.3,2,0.3,2.4,0.7c0.6,0.5,1,1.3,1,2.1c0.1,1.1-0.5,1.5-0.2,2.1
			c0.3,0.6,0.9,0.5,1.4,1.1c0.9,0.9,0.8,2.9,0,4.2c-0.7,1.2-2.3,2.2-3.4,1.8c-1.4-0.5-0.7-2.7-2.5-5.7c-0.6-1-2-3.4-4.7-4.3
			C345.7,657.4,344.2,658.1,343.3,656.9z"/>
		<circle class="st5" cx="342.7" cy="670.7" r="14.9"/>
		<path class="st19" d="M345.3,673.8c0-0.2-0.2-0.4-1.1-0.7c-1-0.4-1.7-0.5-2.5-0.7c-1.4-0.3-2-0.5-2.7-0.9
			c-0.2-0.1-0.6-0.4-1.7-1.7c-1.5-1.7-1.4-2-2-2.6c-1.5-1.4-3.7-1.3-5.1-1.3c-1.4,0.1-3.8,0.2-4.8,1.8c-0.4,0.7-0.7,1.8-0.1,2.5
			c0.5,0.7,1.4,0.8,1.7,0.8c0.5,0.1,0.6-0.1,2.6-0.4c0.9-0.2,1.3-0.2,1.8,0c0.2,0.1,0.6,0.2,1,0.6c0.6,0.5,0.4,0.9,0.8,1.3
			c0.6,0.4,1.4,0.3,1.5,0.3c0.5-0.1,0.6-0.3,1.1-0.4c0.2,0,0.7-0.1,1.1,0.2c0.3,0.2,0.3,0.4,0.6,0.7c0.3,0.3,0.7,0.2,1.7,0.3
			c0.8,0,1.3,0.1,2.3,0.3c1,0.2,1.2,0.2,1.4,0.4c0.6,0.3,0.6,0.7,1,0.7C344.6,675.1,345.4,674.3,345.3,673.8z"/>
		<path class="st19" d="M334.6,683.3c0.1-0.3,0.2-0.9,0.5-1.4c1-2,2.9-3.1,3.7-3.5c1.1-0.6,1.2-0.4,2.1-1c0.9-0.6,1-0.9,2.3-2.2
			c1.2-1.1,1.7-1.6,2.7-2c0.7-0.3,0.8-0.2,1.9-0.5c1.2-0.3,2-0.7,3.1-1.1c1-0.4,2.5-1.1,4.1-2.1c1.8-1.2,2.4-1.9,3.5-1.8
			c0.2,0,1.1,0.1,1.7,0.8c0.6,0.7,0.7,1.6,0.5,2.4c-0.3,1.1-1.3,1.6-1.7,1.8c-0.8,0.4-1.3,0.2-2.9,0.8c-0.6,0.2-1,0.4-1,0.4
			c-0.8,0.3-0.8,0.4-1,0.4c-0.6,0.1-0.8-0.2-1.6-0.3c-0.3,0-0.8-0.1-1.3,0c-0.2,0.1-0.7,0.3-1.7,1.7c-0.9,1.2-0.8,1.4-1.1,1.5
			c-1,0.5-1.9-0.6-2.8-0.1c-0.4,0.2-0.4,0.6-0.9,1.5c-0.2,0.4-1,2-2.3,2.8c-0.6,0.4-1.6,0.5-3.7,0.7c-1.1,0.1-1.8,0.1-2.6,0.7
			c-0.5,0.4-0.7,0.8-0.9,1.1C335.1,683.5,334.8,683.4,334.6,683.3z"/>
	</g>
	<g>
		<path class="st19" d="M512.4,653.1c0,0,1.1,0.2,1.3-0.2c0.3-0.6-2.1-1.6-2.5-3.6c-0.3-1.7,0.9-3.9,2.4-4.5
			c0.8-0.3,1.3,0.1,2.9-0.4c0.8-0.2,1.2-0.3,1.7-0.6c1.1-0.8,0.9-1.8,1.9-3c0.3-0.4,1.2-1.4,2.6-1.8c2.4-0.6,4.6,1.2,4.9,1.5
			c1.1,0.9,0.7,1.3,1.7,2c0.3,0.2,1,0.6,4.4,1.1c2.1,0.3,2.4,0.2,2.9,0.6c1.3,1,1.2,2.9,1.2,3.3c0,2.1-1.4,3.6-1.7,3.9
			c-2.2,2.4-5.3,1.5-16.2,1.5C517.5,653,512.4,650.5,512.4,653.1z"/>
		<path class="st19" d="M537.8,651.6c-0.1-1,0.3-2.2,1.1-2.9c1.1-0.8,2.5-0.5,4-0.1c1.5,0.4,3.7,1,4.5,2.7c0.6,1.4-0.5,2.1,0.1,3.7
			c0.2,0.5,0.4,0.9,3.7,3.8c1.8,1.6,2.2,1.9,2.5,2.7c0.3,1.1,0.2,2.3-0.4,3.3c-0.7,1.4-1.8,1.4-1.9,2.4c-0.2,1,0.6,1.3,0.8,2.4
			c0.3,1.8-1.2,4.1-3.3,5.1c-1.8,0.8-4.5,0.9-5.6-0.4c-1.3-1.7,1.3-3.9,1.4-8.9c0-1.6,0.2-5.8-2.4-8.9
			C540.4,654.2,538.1,653.8,537.8,651.6z"/>
		<circle class="st5" cx="526.4" cy="668.2" r="21.6"/>
		<path class="st19" d="M527.2,674c0.1-0.3,0.1-0.6-0.8-1.8c-0.9-1.3-1.7-2-2.5-2.8c-1.4-1.4-2.1-2.2-2.6-3.2
			c-0.2-0.3-0.5-1-0.8-3.4c-0.5-3.2-0.2-3.5-0.5-4.7c-0.8-2.9-3.6-4.5-5.3-5.5c-1.7-1-4.8-2.7-7.3-1.5c-1,0.5-2.2,1.6-2.1,3
			c0,1.2,1.1,2,1.5,2.4c0.6,0.5,0.8,0.4,3.6,1.5c1.2,0.5,1.7,0.7,2.3,1.3c0.2,0.2,0.6,0.7,0.8,1.4c0.3,1.1-0.2,1.4,0.1,2.2
			c0.4,1,1.4,1.4,1.7,1.5c0.7,0.3,0.9,0,1.7,0.4c0.3,0.1,0.9,0.4,1.2,1.1c0.3,0.5,0,0.8,0.2,1.3c0.2,0.6,0.7,0.8,1.8,1.6
			c1,0.7,1.5,1.2,2.6,2.1c1.1,0.9,1.3,1.2,1.4,1.5c0.4,0.8,0.2,1.3,0.6,1.7C525.4,675,526.9,674.7,527.2,674z"/>
		<path class="st19" d="M506.8,677.2c0.4-0.4,0.9-0.9,1.7-1.4c2.8-1.8,5.9-1.6,7.3-1.4c1.8,0.1,1.8,0.5,3.3,0.4
			c1.6,0,1.9-0.4,4.5-0.9c2.2-0.4,3.4-0.6,4.8-0.4c1,0.2,1.1,0.4,2.7,0.9c1.7,0.5,3,0.7,4.6,1c1.6,0.3,3.8,0.6,6.7,0.6
			c3.1,0,4.3-0.5,5.7,0.5c0.3,0.2,1.3,1,1.5,2.3c0.2,1.3-0.4,2.5-1.2,3.3c-1.2,1.1-2.8,0.9-3.4,0.9c-1.4-0.1-1.8-0.7-4.1-1.3
			c-1-0.2-1.5-0.3-1.5-0.3c-1.2-0.2-1.2-0.1-1.6-0.3c-0.8-0.3-0.8-0.9-1.7-1.6c-0.4-0.3-0.9-0.8-1.7-1c-0.3-0.1-1-0.2-3.4,0.8
			c-2,0.8-2,1.1-2.6,1c-1.6-0.2-1.8-2.2-3.3-2.3c-0.7-0.1-1,0.4-2.2,1.1c-0.6,0.4-2.8,1.7-5,1.6c-1,0-2.4-0.7-5-2
			c-1.4-0.7-2.3-1.3-3.6-1.2c-0.9,0.1-1.6,0.4-2,0.7C507.1,677.9,507,677.6,506.8,677.2z"/>
	</g>
	<g>
		<path class="st19" d="M210.9,680.2c0,0-0.1-1-0.5-1c-0.6-0.1-0.8,2.2-2.4,3c-1.4,0.7-3.6,0.3-4.4-0.9c-0.4-0.6-0.3-1.1-1.1-2.4
			c-0.4-0.7-0.6-1-1-1.3c-1-0.8-1.8-0.3-3.1-0.8c-0.4-0.2-1.5-0.7-2.2-1.7c-1.2-1.9-0.2-4.3,0-4.6c0.5-1.2,0.9-1,1.2-2
			c0.1-0.3,0.3-1-0.2-4c-0.3-1.8-0.4-2.1-0.2-2.7c0.5-1.4,2.2-1.8,2.5-1.9c1.8-0.5,3.4,0.2,3.8,0.4c2.6,1.3,2.6,4.2,5.5,13.4
			C209.6,675.9,208.7,680.9,210.9,680.2z"/>
		<path class="st19" d="M203.1,658.9c-0.8,0.4-2,0.4-2.7-0.2c-1-0.7-1.1-2-1.1-3.4c-0.1-1.4-0.2-3.4,1.1-4.5
			c1.1-0.9,1.9-0.1,3.2-1.1c0.4-0.3,0.7-0.6,2.2-4.1c0.9-2,1-2.4,1.6-2.8c0.8-0.6,2-0.8,3-0.6c1.4,0.3,1.6,1.1,2.6,1
			c0.9-0.1,1-0.9,1.9-1.4c1.5-0.8,3.8,0,5.2,1.5c1.2,1.3,2,3.6,1.1,4.9c-1.1,1.6-3.6-0.1-8,1.1c-1.4,0.4-5,1.4-7,4.4
			C204.6,656,204.9,658.1,203.1,658.9z"/>
		<circle class="st5" cx="220.2" cy="664.3" r="19.3"/>
		<path class="st19" d="M224.9,662.1c-0.3,0-0.5,0.1-1.3,1.1c-0.8,1.1-1.2,2-1.7,2.8c-0.9,1.6-1.3,2.4-2,3.1
			c-0.3,0.2-0.7,0.7-2.7,1.6c-2.6,1.3-3,1.1-3.9,1.6c-2.3,1.4-2.9,4.2-3.3,5.9c-0.4,1.7-1.1,4.8,0.6,6.6c0.7,0.7,2,1.4,3.1,1
			c1-0.3,1.5-1.4,1.6-1.9c0.3-0.7,0.1-0.8,0.4-3.4c0.1-1.1,0.2-1.7,0.6-2.3c0.1-0.2,0.4-0.7,1-1c0.8-0.5,1.2-0.2,1.8-0.6
			c0.7-0.6,0.9-1.6,0.9-1.8c0.1-0.7-0.2-0.8-0.1-1.5c0-0.3,0.1-0.9,0.6-1.3c0.4-0.4,0.7-0.2,1.1-0.5c0.5-0.3,0.5-0.8,0.9-2
			c0.3-1,0.6-1.6,1.1-2.8c0.5-1.1,0.7-1.4,0.9-1.6c0.6-0.6,1.1-0.5,1.3-1C226.2,663.4,225.6,662.2,224.9,662.1z"/>
		<path class="st19" d="M233,678.7c-0.4-0.2-1-0.5-1.6-1.1c-2.2-1.9-2.9-4.6-3.1-5.8c-0.4-1.6-0.1-1.7-0.5-2.9
			c-0.4-1.3-0.8-1.5-1.9-3.6c-0.9-1.8-1.4-2.7-1.6-4c-0.1-0.9,0.1-1,0.1-2.5c0-1.6-0.1-2.7-0.3-4.2c-0.2-1.4-0.5-3.4-1.3-5.9
			c-0.8-2.7-1.5-3.6-1.1-5c0.1-0.3,0.5-1.3,1.6-1.9c1-0.5,2.3-0.4,3.1,0.2c1.2,0.8,1.5,2.1,1.6,2.7c0.3,1.2-0.1,1.7,0,3.9
			c0.1,0.9,0.1,1.4,0.1,1.4c0.1,1.1,0.2,1.1,0.2,1.4c-0.1,0.8-0.5,0.9-0.9,1.9c-0.2,0.4-0.4,1-0.4,1.7c0,0.3,0.1,0.9,1.6,2.7
			c1.2,1.5,1.4,1.4,1.5,1.9c0.3,1.4-1.4,2.1-1.1,3.4c0.1,0.6,0.6,0.7,1.6,1.6c0.5,0.4,2.2,2,2.7,3.8c0.2,0.9,0,2.2-0.4,4.8
			c-0.2,1.4-0.5,2.3-0.1,3.4c0.3,0.7,0.8,1.2,1.1,1.5C233.5,678.2,233.3,678.5,233,678.7z"/>
	</g>
	<g>
		<path class="st19" d="M307.2,588.2c0,0,1,0.2,1.1-0.1c0.3-0.5-1.8-1.5-2.1-3.3c-0.3-1.6,0.9-3.5,2.3-3.9c0.7-0.2,1.1,0.1,2.6-0.2
			c0.7-0.2,1.1-0.2,1.5-0.5c1-0.7,0.9-1.6,1.8-2.6c0.3-0.3,1.1-1.2,2.3-1.5c2.2-0.5,4.1,1.2,4.3,1.4c0.9,0.9,0.6,1.2,1.5,1.8
			c0.2,0.2,0.9,0.6,3.9,1.1c1.8,0.3,2.1,0.3,2.6,0.6c1.1,0.9,1,2.7,1,3c-0.1,1.9-1.3,3.2-1.6,3.4c-2,2-4.8,1.2-14.5,0.9
			C311.8,588.4,307.3,586,307.2,588.2z"/>
		<path class="st19" d="M330,587.6c-0.1-0.9,0.3-2,1.1-2.5c1-0.7,2.3-0.3,3.6,0c1.4,0.4,3.3,0.9,4,2.5c0.5,1.3-0.5,1.8,0,3.3
			c0.1,0.5,0.4,0.8,3.2,3.4c1.6,1.5,1.9,1.8,2.1,2.4c0.3,0.9,0.1,2.1-0.4,3c-0.7,1.2-1.6,1.2-1.8,2.1c-0.2,0.9,0.5,1.2,0.7,2.2
			c0.2,1.6-1.2,3.6-3.1,4.4c-1.6,0.7-4.1,0.7-5-0.5c-1.1-1.6,1.2-3.4,1.5-7.9c0.1-1.4,0.3-5.2-1.9-8
			C332.2,590,330.1,589.6,330,587.6z"/>
		<circle class="st5" cx="319.3" cy="602.1" r="19.3"/>
		<path class="st19" d="M319.9,607.3c0.1-0.2,0.1-0.6-0.7-1.6c-0.8-1.2-1.5-1.8-2.1-2.5c-1.2-1.3-1.8-2-2.3-2.9
			c-0.1-0.3-0.4-0.9-0.6-3c-0.3-2.9-0.1-3.1-0.3-4.2c-0.6-2.6-3.1-4.1-4.6-5c-1.5-0.9-4.2-2.6-6.4-1.5c-0.9,0.4-2,1.4-2,2.6
			c0,1.1,0.9,1.8,1.2,2.1c0.5,0.5,0.7,0.4,3.1,1.5c1,0.5,1.5,0.7,2,1.3c0.1,0.2,0.5,0.6,0.6,1.3c0.2,1-0.2,1.2,0,1.9
			c0.3,0.9,1.2,1.3,1.4,1.4c0.6,0.3,0.8,0.1,1.5,0.4c0.2,0.1,0.8,0.4,1.1,1c0.2,0.5,0,0.7,0.1,1.2c0.2,0.6,0.6,0.7,1.6,1.5
			c0.8,0.6,1.3,1.1,2.3,2c0.9,0.9,1.1,1.1,1.2,1.4c0.3,0.8,0.1,1.2,0.5,1.5C318.3,608.1,319.7,607.9,319.9,607.3z"/>
		<path class="st19" d="M301.6,609.7c0.3-0.3,0.8-0.8,1.6-1.2c2.5-1.5,5.3-1.2,6.5-1.1c1.6,0.2,1.6,0.5,2.9,0.5
			c1.4,0,1.7-0.3,4.1-0.7c2-0.3,3-0.5,4.3-0.2c0.9,0.2,1,0.4,2.4,0.9c1.5,0.5,2.6,0.7,4.1,1c1.4,0.3,3.4,0.6,6,0.7
			c2.8,0.1,3.9-0.3,5,0.6c0.2,0.2,1.1,0.9,1.3,2.1c0.2,1.2-0.4,2.3-1.2,2.9c-1.1,0.9-2.5,0.8-3.1,0.7c-1.2-0.1-1.6-0.7-3.7-1.2
			c-0.8-0.2-1.4-0.3-1.4-0.3c-1-0.2-1.1-0.1-1.4-0.3c-0.7-0.3-0.7-0.8-1.5-1.5c-0.3-0.3-0.8-0.7-1.5-0.9c-0.3-0.1-0.9-0.2-3.1,0.6
			c-1.8,0.7-1.8,0.9-2.3,0.8c-1.4-0.2-1.6-2-2.9-2.2c-0.6-0.1-0.9,0.3-2,1c-0.6,0.3-2.6,1.4-4.5,1.3c-0.9-0.1-2.1-0.7-4.4-2
			c-1.3-0.7-2-1.2-3.2-1.1c-0.8,0-1.4,0.3-1.8,0.6C301.9,610.3,301.8,610,301.6,609.7z"/>
	</g>
	<g>
		<path class="st19" d="M426.7,645.3c0,0,0.7-0.3,0.7-0.6c0-0.5-1.8-0.2-2.8-1.2c-0.8-0.9-0.9-2.6-0.2-3.5c0.4-0.5,0.8-0.4,1.6-1.3
			c0.4-0.4,0.6-0.6,0.8-1c0.4-0.9-0.1-1.4,0-2.5c0-0.3,0.2-1.3,0.9-2c1.2-1.3,3.1-1,3.4-0.9c1,0.1,0.9,0.5,1.7,0.5
			c0.2,0,0.8,0,3-0.9c1.3-0.6,1.5-0.8,1.9-0.7c1.1,0.1,1.8,1.3,1.9,1.5c0.7,1.2,0.5,2.6,0.5,2.9c-0.4,2.2-2.6,2.8-8.9,6.9
			C429.7,643.4,425.8,643.8,426.7,645.3z"/>
		<path class="st19" d="M441.1,635.1c-0.4-0.6-0.7-1.4-0.4-2.1c0.3-0.9,1.3-1.2,2.3-1.5c1-0.3,2.5-0.8,3.6-0.1
			c0.9,0.6,0.5,1.4,1.4,2.1c0.3,0.2,0.6,0.4,3.5,0.8c1.6,0.3,2,0.3,2.4,0.7c0.6,0.5,1,1.3,1,2.1c0.1,1.1-0.5,1.5-0.2,2.1
			c0.3,0.6,0.9,0.5,1.4,1.1c0.9,0.9,0.8,2.9,0,4.2c-0.7,1.2-2.3,2.2-3.4,1.8c-1.4-0.5-0.7-2.7-2.5-5.7c-0.6-1-2-3.4-4.7-4.3
			C443.5,635.6,442,636.3,441.1,635.1z"/>
		<circle class="st5" cx="440.5" cy="648.9" r="14.9"/>
		<path class="st19" d="M443.1,652c0-0.2-0.2-0.4-1.1-0.7c-1-0.4-1.7-0.5-2.5-0.7c-1.4-0.3-2-0.5-2.7-0.9c-0.2-0.1-0.6-0.4-1.7-1.7
			c-1.5-1.7-1.4-2-2-2.6c-1.5-1.4-3.7-1.3-5.1-1.3c-1.4,0.1-3.8,0.2-4.8,1.8c-0.4,0.7-0.7,1.8-0.1,2.5c0.5,0.7,1.4,0.8,1.7,0.8
			c0.5,0.1,0.6-0.1,2.6-0.4c0.9-0.2,1.3-0.2,1.8,0c0.2,0.1,0.6,0.2,1,0.6c0.6,0.5,0.4,0.9,0.8,1.3c0.6,0.4,1.4,0.3,1.5,0.3
			c0.5-0.1,0.6-0.3,1.1-0.4c0.2,0,0.7-0.1,1.1,0.2c0.3,0.2,0.3,0.4,0.6,0.7c0.3,0.3,0.7,0.2,1.7,0.3c0.8,0,1.3,0.1,2.3,0.3
			c1,0.2,1.2,0.2,1.4,0.4c0.6,0.3,0.6,0.7,1,0.7C442.4,653.3,443.2,652.5,443.1,652z"/>
		<path class="st19" d="M432.4,661.5c0.1-0.3,0.2-0.9,0.5-1.4c1-2,2.9-3.1,3.7-3.5c1.1-0.6,1.2-0.4,2.1-1c0.9-0.6,1-0.9,2.3-2.2
			c1.2-1.1,1.7-1.6,2.7-2c0.7-0.3,0.8-0.2,1.9-0.5c1.2-0.3,2-0.7,3.1-1.1c1-0.4,2.5-1.1,4.1-2.1c1.8-1.2,2.4-1.9,3.5-1.8
			c0.2,0,1.1,0.1,1.7,0.8c0.6,0.7,0.7,1.6,0.5,2.4c-0.3,1.1-1.3,1.6-1.7,1.8c-0.8,0.4-1.3,0.2-2.9,0.8c-0.6,0.2-1,0.4-1,0.4
			c-0.8,0.3-0.8,0.4-1,0.4c-0.6,0.1-0.8-0.2-1.6-0.3c-0.3,0-0.8-0.1-1.3,0c-0.2,0.1-0.7,0.3-1.7,1.7c-0.9,1.2-0.8,1.4-1.1,1.5
			c-1,0.5-1.9-0.6-2.8-0.1c-0.4,0.2-0.4,0.6-0.9,1.5c-0.2,0.4-1,2-2.3,2.8c-0.6,0.4-1.6,0.5-3.7,0.7c-1.1,0.1-1.8,0.1-2.6,0.7
			c-0.5,0.4-0.7,0.8-0.9,1.1C432.8,661.7,432.6,661.6,432.4,661.5z"/>
	</g>
</g>
<g id="Layer_3">
	<g>
		<path class="st7" d="M483.1,310.5c0.3,1.6,0.9,4.3-0.7,7c-1.5,2.5-4,3.3-4.9,3.6c-0.9,0.2-2.2,0.6-3.7,0c-1.1-0.4-1.7-1.2-2.1-1.6
			c-1.3,1.3-2.5,2.9-2.1,4.1c0.3,0.7,0.9,0.8,1.8,1.8c1.2,1.4,2,3.7,1.2,4.7c-0.2,0.3-0.7,0.7-3.3,0.6c-2.8-0.1-4.1-0.7-6.2-1
			c-2.9-0.5-5.3-0.3-6.7-0.1c-3.6,0.4-5.3,0.5-6.7,1.2c-0.4,0.2-1.4,0.7-2.5,0.4c-0.7-0.2-1.2-0.6-1.5-0.9c-0.2-0.7-0.4-2.2,0.1-3.8
			c0.7-2.2,2.3-3.4,3-3.8c1.3-0.9,2.6-1.1,3.3-1.2c-2.2-1.5-9.5-6.9-10.1-15.3c-0.1-1,0-2.1,0.1-3.3c-4.4,2.5-8.8,3-11.1,1
			c-0.3-0.2-1.7-1.4-1.8-3.3c-0.1-1.7,0.9-3.1,1.9-3.8c1.1-0.8,1.5-0.3,3.6-1c1.1-0.4,2.9-1.1,4.4-2.2c1.8-1.3,1.9-1.6,2.7-2.9
			c1.3-2,2.5-5.7,2.7-8.2c-5.1,3.2-15.7,4.4-18.2,1.3c-0.4-0.5-1.1-1.7-0.5-5.7c0.6-4.2,2-13.6,10.5-19.2c4.8-3.2,9.7-3.7,12.4-3.7
			c1.8-3,3.7-4.9,5.1-6.1c2.1-1.7,3.4-2.1,6.5-4.7c1.8-1.5,2.8-2.3,3.4-3.3c1.4-2.1,1.2-3.4,3-6.4c1-1.7,1.7-2.8,2.6-2.8
			c1.4,0,2.5,2.5,3.1,4c0.9,2,2,4.8,1.2,7.9c-0.4,1.7-0.9,1.6-4,6.4c-2.6,4-2.3,4.1-3.7,5.8c-1.4,1.7-3.3,3.8-6.5,4.8
			c-1.7,0.5-3.1,0.5-4,0.5c0.2,0.7,0.6,1.7,1.5,2.5c0.8,0.8,2.7,2.2,11.1,1.5c4.9-0.4,5.2-1,8-0.7c1.5,0.1,6.9,0.6,7.7,3.4
			c0.5,1.8-1.2,3.8-2.1,4.9c-2.2,2.6-5,3.4-8.7,4.6c-2,0.6-4,1.2-6.7,1.3c-2,0.1-4.4,0.2-7.1-1c-1.7-0.8-2.9-1.8-3.7-2.5
			c0,1,3,8.2,5.1,12.5c0.5,1,1.2,2,1.9,2.9c2.6,2.9,8.8,10.1,9.1,10.4c0,0,0,0,0,0c0.5,0.5,0.9,1,1.2,1.6c0.6,1.1,0.7,2.2,0.7,3
			c0.5-0.4,2.8-2.4,5.2-1.8C481.9,304.5,482.8,308.7,483.1,310.5z"/>
		<g>
			<path class="st12" d="M443.7,274.5c-0.2-1.9-3.2-3.5-5.1-2.5c-0.6,0.3-1.1,0.8-1.3,1.4c-0.3,0.6-0.4,1.3-0.3,1.9
				c0.1,0.5,0.3,0.9,0.5,1.3c0.2,0.3,0.5,0.5,0.8,0.8c0.4,0.3,0.9,0.5,1.3,0.5C441.7,278.2,443.8,276.2,443.7,274.5z"/>
			<path d="M440.1,277.8c0.6-0.7,0.8-2,0.2-3.3c-0.6-1.3-1.6-2.1-2.5-2.2c-0.9,1-1.6,2.5-0.8,3.7c0,0,0.1,0.1,0.1,0.2
				c0.1,0.1,0.1,0.2,0.2,0.3c0.2,0.3,0.4,0.5,0.7,0.7c0.4,0.2,0.8,0.4,1.2,0.5c0.1,0,0.3,0,0.4,0.1
				C439.9,277.8,440,277.8,440.1,277.8z"/>
		</g>
		<path class="st21" d="M425.8,281.6c-0.3,0.4,0.3,1.4,0.5,1.7c0.3,0.4,0.6,0.9,1.1,1.1c1,0.3,2.4-0.8,2.4-1.5
			C429.7,281.8,426.4,280.9,425.8,281.6z"/>
		<g>
			<path class="st12" d="M435.2,270.7c-0.2-1.8-2.8-3.2-4.6-2.3c-0.5,0.3-0.9,0.7-1.2,1.3c-0.3,0.5-0.3,1.1-0.2,1.7
				c0.1,0.4,0.2,0.8,0.5,1.1c0.2,0.3,0.5,0.5,0.7,0.7c0.4,0.2,0.8,0.4,1.2,0.5C433.4,274,435.3,272.2,435.2,270.7z"/>
			<path d="M432,273.7c0.6-0.6,0.7-1.8,0.2-3c-0.5-1.2-1.4-1.9-2.3-2c-0.8,0.9-1.5,2.2-0.7,3.4c0,0,0.1,0.1,0.1,0.1
				c0.1,0.1,0.1,0.2,0.2,0.3c0.2,0.3,0.4,0.5,0.7,0.6c0.3,0.2,0.7,0.4,1.1,0.5c0.1,0,0.3,0,0.4,0.1
				C431.8,273.7,431.9,273.7,432,273.7z"/>
		</g>
	</g>
	<g>
		<path class="st36" d="M101.6,113.5c-2.4-0.9-4.5-0.2-8,1c-4.9,1.6-8.5,2.9-10.5,3.6c3,1.2,5.6,2,7.7,2.4c3.3,0.8,2.4,0.2,7.3,1.1
			c1.4,0.3,2,0.4,2.8,0.2c2.2-0.5,4.5-2.9,4-5.2C104.6,114.6,102.1,113.7,101.6,113.5z"/>
		<path class="st36" d="M110.1,225.3c-0.7,0.6-0.4,1.2-1,2.3c-1.2,2-3.5,1.7-6.8,3.7c-0.8,0.5-1.9,1.2-3.1,2.4c1,0.1,2,0.2,3.3,0.2
			c2.3-0.1,4.2-0.5,5.7-0.9c0,0.3,0.1,1.2,0.8,2c0.2,0.3,0.5,0.5,0.7,0.6c0.2-0.1,1-0.4,1.5-1.2c0.3-0.5,0.3-0.9,0.4-1.2
			c0,0.2,0.2,0.6,0.5,0.9c0.4,0.4,1,0.4,1.2,0.4c1.1,0,3.1,0,5.8-0.1c-0.4-0.5-1-1.2-1.9-1.7c-1.7-0.9-3.2-0.4-3.7-1.3
			c-0.3-0.5-0.1-1.2,0.2-2c0.8-2,2.1-2.4,2-3.1C115.3,224.9,111.7,223.9,110.1,225.3z"/>
		<path class="st36" d="M127,223.5c-0.2,0.9,0.6,1.5,0.5,3.3c0,0.6,0,1.5-0.5,2.4c-1.2,2-4,1.5-5,3.4c-0.3,0.5-0.3,1.1-0.3,1.4
			c0.9,0,1.7,0,2.2,0c2.4-0.1,3.7-0.2,4.6-0.7c0.4-0.2,0.9-0.5,1.2-0.3c0.3,0.2,0.3,0.6,0.4,1.1c0.1,0.6,0.3,1.4,0.9,2.2
			c0.3-0.1,0.8-0.4,1.2-0.8c1.1-1.3,0.7-3,0.7-3.2c0.1,0.3,0.4,0.8,0.9,1.1c0.7,0.4,1.3,0.3,1.6,0.3c1-0.1,2.8,0,6.2,0.5
			c-0.8-1.9-1.8-2.6-2.5-3c-0.9-0.5-2.1-0.7-3.8-1.1c-1.8-0.3-2-0.2-2.4-0.5c-0.5-0.5-0.6-1.2-0.2-5c0.2-2.5,0.3-2.9,0-3.2
			C131.7,220.2,127.5,221.5,127,223.5z"/>
		<path class="st8" d="M108.6,129.2c0.6,2.5-1.3,4.4-4.2,8.6c-2.8,4-0.6,1.6-6.2,10.2c-2.9,4.4-3.7,5.4-6.2,9.2
			c-5.5,8.3-8.3,12.4-10.2,17.4c-1.8,4.8-3.9,12.6-1.8,13.8c0.8,0.5,2.1-0.2,3-0.6c2.8-1.4,3.4-3.9,5.2-6.2c1.2-1.5,3.2-3.4,6.8-4.8
			c-0.1,1.3-0.2,3.1-0.2,5.4c-0.2,7.8-0.3,14.6,1,21.4c1.5,7.8,2.5,13.3,7.4,17.6c5.5,4.9,12.6,5.4,15.2,5.4c4,0,7.1-0.9,8.4-1.4
			c1.3-0.5,4.5-1.6,7.4-4.2c1.9-1.7,4.1-4.3,6.2-11c1.2-3.8,2.5-9,3-22.6c0.2-3.7,0.3-8.8,0.2-14.8c1.8,1.9,3,3.6,3.8,4.8
			c2.3,3.3,4.5,6.7,6.8,10c0.6,0.9,1.4,2,2.4,2c1.2-0.1,2.1-1.8,2.4-2.6c1.8-3.9,0.9-8.1,0.6-9.2c-2.6-11.2-6.2-17.6-6.2-17.6
			c-2.8-5-7.6-12.2-15.2-19.6c0.3-1.8,0.5-4.5,0.2-7.6c-0.2-1.6-1-8.2-5.8-14.8c-1.6-2.2-3.7-5.1-7.6-7.2c-1.3-0.7-3.9-2.1-7.6-2.4
			c-2.7-0.2-4.6,0.4-7.6,1.2c-2.5,0.7-6,1.9-9.9,4.1c-1,0.9-1.1,1.5-1,1.8c0.2,0.8,1.6,0.6,2.6,1.8c0.1,0.1,1,1.2,0.6,2.5
			c-0.4,1.2-1.7,1.6-1.8,1.7c0,0.2,0.1,0.6,0.3,1c0.5,0.8,1.6,0.7,2.7,1c1.6,0.5,2.6,1.5,3.3,2.1
			C106.6,125.7,108.2,127.3,108.6,129.2z"/>
		<path class="st22" d="M99.9,145.3c0.6-0.7,1.6-1.8,2.9-3c3.6-3.5,6.8-6.5,11.2-7.6c0.9-0.2,5.6-1.3,10,0.9
			c5.6,2.8,8.8,9.7,8.2,17.4c0.2,1,0.4,2.4,0.8,4.2c0.9,5,0.9,5.4,1.1,6.3c0.6,2.4,1.4,3.7,4,8.3c1.2,2.1,3.1,5.4,5.5,9.7
			c0-3.4,0-6.7-0.1-10.1c-0.6-0.4-1.4-1-2.3-1.8c-2.4-2.2-3.7-4.4-4-5c-1.3-2.3-1.6-4.3-2.1-8.1c-0.2-1.5-0.7-4.9,0.3-8.8
			c0.3-1.2,0.6-2.1,1.3-2.3c1.1-0.3,2.4,1.6,3.2,2.6c7,9.8,5.7,6.7,9.6,13.1c2.1,3.5,3.2,5.3,4.3,7.8c0.4,0.8,1.7,4,2.6,8.3
			c0.7,2.9,1.3,6.9,1.3,11.7c0.6-0.7,1.3-1.8,1.9-3.3c0.8-2,0.8-4,0.4-6.9c-0.3-2.5-1-5.2-2.7-9.9c-1.4-3.7-2.4-6.6-4.5-10.2
			c-2.3-4.2-4.6-7.1-6.4-9.4c-1-1.2-2.6-3.3-4.9-5.7c-1.3-1.3-2.4-2.5-3.3-3.3c0.2-1.2,0.4-2.9,0.4-4.9c0-1.4-0.2-5.2-1.8-9.7
			c-0.3-0.9-1.4-3.7-3.5-6.9c-1.2-1.7-2.5-3.8-5-5.8c-1.4-1.2-4.4-3.6-8.9-4.4c-3.5-0.6-6.1,0.1-9.6,0.9c0,0-5.2,0.9-9.9,4.1
			c-0.7,0.5-0.9,1-1,1.2c0,0.2-0.1,0.5,0,0.8c0.2,0.4,0.6,0.4,1.3,0.7c0.1,0.1,0.8,0.4,1.3,0.9c0.4,0.5,0.9,1.4,0.6,2.5
			c-0.4,1.3-1.7,1.7-1.8,1.7c0,0.2,0,0.4,0.1,0.7c0.3,0.7,1.2,0.8,2.3,1.2c0.6,0.2,2,0.7,3.1,1.6c0.8,0.6,1.2,1.3,1.5,1.6
			c0.6,0.8,1.3,1.9,1.4,3.3c0,0.3,0,1.2-1.2,3.6c-1.1,2-1.6,2.1-3.1,4.4c-0.7,1.1-0.6,1.1-2.6,4.4C101,143.5,100.4,144.6,99.9,145.3
			z"/>
		<g>
			<path class="st12" d="M118.5,117.1c0.5-2.5-2.7-5.5-5.6-4.9c-0.8,0.2-1.6,0.7-2.2,1.3c-0.6,0.6-0.9,1.5-1,2.3
				c-0.1,0.6,0,1.2,0.2,1.8c0.2,0.4,0.5,0.9,0.8,1.2c0.4,0.5,0.9,0.9,1.5,1.1C114.8,121,118.1,119.3,118.5,117.1z"/>
			<path d="M113,120c1-0.6,1.7-2.2,1.5-4.1c-0.2-1.8-1.2-3.2-2.4-3.6c-1.5,0.9-2.9,2.5-2.3,4.4c0,0,0,0.2,0.1,0.2
				c0,0.2,0.1,0.3,0.2,0.5c0.1,0.4,0.4,0.8,0.7,1.2c0.4,0.4,0.8,0.8,1.3,1.1c0.2,0.1,0.4,0.1,0.5,0.2C112.7,119.9,112.8,120,113,120
				z"/>
		</g>
	</g>
	<g>
		<path class="st36" d="M230.6,44.8c2.4-0.9,4.5-0.2,8,1c4.9,1.6,8.5,2.9,10.5,3.6c-3,1.2-5.6,2-7.7,2.4c-3.3,0.8-2.4,0.2-7.3,1.1
			c-1.4,0.3-2,0.4-2.8,0.2c-2.2-0.5-4.5-2.9-4-5.2C227.7,45.8,230.2,44.9,230.6,44.8z"/>
		<path class="st36" d="M222.2,156.6c0.7,0.6,0.4,1.2,1,2.3c1.2,2,3.5,1.7,6.8,3.7c0.8,0.5,1.9,1.2,3.1,2.4c-1,0.1-2,0.2-3.3,0.2
			c-2.3-0.1-4.2-0.5-5.7-0.9c0,0.3-0.1,1.2-0.8,2c-0.2,0.3-0.5,0.5-0.7,0.6c-0.2-0.1-1-0.4-1.5-1.2c-0.3-0.5-0.3-0.9-0.4-1.2
			c0,0.2-0.2,0.6-0.5,0.9c-0.4,0.4-1,0.4-1.2,0.4c-1.1,0-3.1,0-5.8-0.1c0.4-0.5,1-1.2,1.9-1.7c1.7-0.9,3.2-0.4,3.7-1.3
			c0.3-0.5,0.1-1.2-0.2-2c-0.8-2-2.1-2.4-2-3.1C217,156.1,220.6,155.1,222.2,156.6z"/>
		<path class="st36" d="M205.2,154.7c0.2,0.9-0.6,1.5-0.5,3.3c0,0.6,0,1.5,0.5,2.4c1.2,2,4,1.5,5,3.4c0.3,0.5,0.3,1.1,0.3,1.4
			c-0.9,0-1.7,0-2.2,0c-2.4-0.1-3.7-0.2-4.6-0.7c-0.4-0.2-0.9-0.5-1.2-0.3c-0.3,0.2-0.3,0.6-0.4,1.1c-0.1,0.6-0.3,1.4-0.9,2.2
			c-0.3-0.1-0.8-0.4-1.2-0.8c-1.1-1.3-0.7-3-0.7-3.2c-0.1,0.3-0.4,0.8-0.9,1.1c-0.7,0.4-1.3,0.3-1.6,0.3c-1-0.1-2.8,0-6.2,0.5
			c0.8-1.9,1.8-2.6,2.5-3c0.9-0.5,2.1-0.7,3.8-1.1c1.8-0.3,2-0.2,2.4-0.5c0.5-0.5,0.6-1.2,0.2-5c-0.2-2.5-0.3-2.9,0-3.2
			C200.6,151.5,204.8,152.8,205.2,154.7z"/>
		<path class="st8" d="M223.7,60.4c-0.6,2.5,1.3,4.4,4.2,8.6c2.8,4,0.6,1.6,6.2,10.2c2.9,4.4,3.7,5.4,6.2,9.2
			c5.5,8.3,8.3,12.4,10.2,17.4c1.8,4.8,3.9,12.6,1.8,13.8c-0.8,0.5-2.1-0.2-3-0.6c-2.8-1.4-3.4-3.9-5.2-6.2
			c-1.2-1.5-3.2-3.4-6.8-4.8c0.1,1.3,0.2,3.1,0.2,5.4c0.2,7.8,0.3,14.6-1,21.4c-1.5,7.8-2.5,13.3-7.4,17.6
			c-5.5,4.9-12.6,5.4-15.2,5.4c-4,0-7.1-0.9-8.4-1.4c-1.3-0.5-4.5-1.6-7.4-4.2c-1.9-1.7-4.1-4.3-6.2-11c-1.2-3.8-2.5-9-3-22.6
			c-0.2-3.7-0.3-8.8-0.2-14.8c-1.8,1.9-3,3.6-3.8,4.8c-2.3,3.3-4.5,6.7-6.8,10c-0.6,0.9-1.4,2-2.4,2c-1.2-0.1-2.1-1.8-2.4-2.6
			c-1.8-3.9-0.9-8.1-0.6-9.2c2.6-11.2,6.2-17.6,6.2-17.6c2.8-5,7.6-12.2,15.2-19.6c-0.3-1.8-0.5-4.5-0.2-7.6c0.2-1.6,1-8.2,5.8-14.8
			c1.6-2.2,3.7-5.1,7.6-7.2c1.3-0.7,3.9-2.1,7.6-2.4c2.7-0.2,4.6,0.4,7.6,1.2c2.5,0.7,6,1.9,9.9,4.1c1,0.9,1.1,1.5,1,1.8
			c-0.2,0.8-1.6,0.6-2.6,1.8c-0.1,0.1-1,1.2-0.6,2.5c0.4,1.2,1.7,1.6,1.8,1.7c0,0.2-0.1,0.6-0.3,1c-0.5,0.8-1.6,0.7-2.7,1
			c-1.6,0.5-2.6,1.5-3.3,2.1C225.7,56.9,224.1,58.5,223.7,60.4z"/>
		<path class="st22" d="M232.3,76.5c-0.6-0.7-1.6-1.8-2.9-3c-3.6-3.5-6.8-6.5-11.2-7.6c-0.9-0.2-5.6-1.3-10,0.9
			c-5.6,2.8-8.8,9.7-8.2,17.4c-0.2,1-0.4,2.4-0.8,4.2c-0.9,5-0.9,5.4-1.1,6.3c-0.6,2.4-1.4,3.7-4,8.3c-1.2,2.1-3.1,5.4-5.5,9.7
			c0-3.4,0-6.7,0.1-10.1c0.6-0.4,1.4-1,2.3-1.8c2.4-2.2,3.7-4.4,4-5c1.3-2.3,1.6-4.3,2.1-8.1c0.2-1.5,0.7-4.9-0.3-8.8
			c-0.3-1.2-0.6-2.1-1.3-2.3c-1.1-0.3-2.4,1.6-3.2,2.6c-7,9.8-5.7,6.7-9.6,13.1c-2.1,3.5-3.2,5.3-4.3,7.8c-0.4,0.8-1.7,4-2.6,8.3
			c-0.7,2.9-1.3,6.9-1.3,11.7c-0.6-0.7-1.3-1.8-1.9-3.3c-0.8-2-0.8-4-0.4-6.9c0.3-2.5,1-5.2,2.7-9.9c1.4-3.7,2.4-6.6,4.5-10.2
			c2.3-4.2,4.6-7.1,6.4-9.4c1-1.2,2.6-3.3,4.9-5.7c1.3-1.3,2.4-2.5,3.3-3.3c-0.2-1.2-0.4-2.9-0.4-4.9c0-1.4,0.2-5.2,1.8-9.7
			c0.3-0.9,1.4-3.7,3.5-6.9c1.2-1.7,2.5-3.8,5-5.8c1.4-1.2,4.4-3.6,8.9-4.4c3.5-0.6,6.1,0.1,9.6,0.9c0,0,5.2,0.9,9.9,4.1
			c0.7,0.5,0.9,1,1,1.2c0,0.2,0.1,0.5,0,0.8c-0.2,0.4-0.6,0.4-1.3,0.7c-0.1,0.1-0.8,0.4-1.3,0.9c-0.4,0.5-0.9,1.4-0.6,2.5
			c0.4,1.3,1.7,1.7,1.8,1.7c0,0.2,0,0.4-0.1,0.7c-0.3,0.7-1.2,0.8-2.3,1.2c-0.6,0.2-2,0.7-3.1,1.6c-0.8,0.6-1.2,1.3-1.5,1.6
			c-0.6,0.8-1.3,1.9-1.4,3.3c0,0.3,0,1.2,1.2,3.6c1.1,2,1.6,2.1,3.1,4.4c0.7,1.1,0.6,1.1,2.6,4.4C231.2,74.7,231.9,75.8,232.3,76.5z
			"/>
		<g>
			<path class="st12" d="M213.7,48.3c-0.5-2.5,2.7-5.5,5.6-4.9c0.8,0.2,1.6,0.7,2.2,1.3c0.6,0.6,0.9,1.5,1,2.3
				c0.1,0.6,0,1.2-0.2,1.8c-0.2,0.4-0.5,0.9-0.8,1.2c-0.4,0.5-0.9,0.9-1.5,1.1C217.5,52.3,214.1,50.5,213.7,48.3z"/>
			<path d="M219.3,51.2c-1-0.6-1.7-2.2-1.5-4.1c0.2-1.8,1.2-3.2,2.4-3.6c1.5,0.9,2.9,2.5,2.3,4.4c0,0,0,0.2-0.1,0.2
				c0,0.2-0.1,0.3-0.2,0.5c-0.1,0.4-0.4,0.8-0.7,1.2c-0.4,0.4-0.8,0.8-1.3,1.1c-0.2,0.1-0.4,0.1-0.5,0.2
				C219.6,51.2,219.4,51.2,219.3,51.2z"/>
		</g>
	</g>
	<g>
		<path class="st10" d="M1063.5,128.1c5.4,0.7,8.8,0.5,12.9,0.5c8.2,0.1,12.4,0.1,15.5,1.2c6.7,2.4,10.8,7.8,16.3,15.3
			c1.8,2.4,3.6,4.8,5.3,8.5c2.2,4.9,1.6,6,3.7,10c2.2,4.2,5.2,7.2,7.1,9.2c4,4,5.4,4.1,7,7.1c0.6,1.3,2.2,4.3,1.4,8.2
			c-1,4.3-4.5,6.5-5.3,7c-0.3-0.9-0.8-2.2-1.9-3.2c-1.7-1.7-3.6-1.7-5.8-2.4c-3.4-1-6.6-3.2-8.3-5.4c-2.4-3-2.6-6.6-2.7-9.5
			c-0.3-6.6,2.2-9.1,0.5-12.7c-1.1-2.5-3.4-3.8-5.1-4.6c-0.3,1.2-0.6,3-0.7,5.1c0,1.8-0.1,3.9,0.8,6.3c0.9,2.3,2.2,2.3,3.3,5
			c0.5,1.2,0.6,2.1,0.8,3c0.3,2.1,0.2,3.7,0,6.8c-0.3,3.7-0.4,2.5-0.9,7c-0.2,2.3-0.2,3.1-1,3.8c-0.8,0.7-1.9,0.8-4.3,1
			c-3.1,0.2-4.1-0.4-4.4-0.6c-0.5-0.4-1.2-0.7-1.3-1.3c-0.2-1.2,1.8-2.5,3-3c1.1-0.5,2.1-0.5,2.6-0.6c0.4-1.4,0.8-3.6,0.6-6.3
			c-0.1-1.6-0.2-2.6-0.7-3.7c-1.1-2.1-3-2.3-6.2-4.1c-2.6-1.5-4.3-3-7-5.5c-3.2-3-5.3-5.6-5.3-5.6c0,0,1.7,1.9,9.6,10.9
			c0.1,0.4,0.2,0.9,0.2,1.6c0,1.2-0.4,2.1-0.6,2.5c-0.6,1.3-1.2,3.3-2.5,7.3c-1.1,3.4-1,4.1-2,4.9c-1,0.7-2,0.8-3.9,0.9
			c-2.5,0.2-4.7,0.3-5.7-1.1c-0.9-1.2-0.4-3-0.1-3.7c0.9-0.2,1.8-0.4,2.9-0.6c0.7-0.1,1.4-0.2,2-0.2c0.9-1.4,1.4-2.7,1.8-3.6
			c0.7-1.9,1.3-3.6,0.8-5.5c-0.1-0.2-0.3-1-0.9-2.1c-1.9-3.1-4.4-3.5-7.1-5.9c-1-0.9-2.4-2.3-3.6-4.6c-1.5,0.1-3.1,0.3-4.6,0.5
			c-2.3,0.2-4.5,0.5-6.8,0.7c0.3,3.9,0.5,7.2,0.6,9.6c0.3,6.3-0.1,1.3,0.1,10.5c0.1,3.6,0.2,5.4-1.1,6.5c-0.7,0.6-1.9,0.7-4.4,0.9
			c-2.9,0.3-4.4,0.4-5-0.4c-0.8-0.9-0.6-2.8,0.6-4c0.9-0.9,2.2-1.2,3.4-0.8c-0.1-1-0.2-2.4-0.4-4.2c-0.5-3.9-0.8-6.8-2-10
			c-0.6-1.6-1.7-3.8-3.6-6.3c0.4,1.2,0.9,2.8,1.1,4.9c0.1,1,0.4,3.7-0.6,9.8c-0.4,2.5-1.1,5.7-2.2,9.5c-3.4,0-6.9-0.1-10.3-0.1
			c-0.3-1-0.1-1.7,0-2.1c0.6-1.8,2.8-3.1,5.5-3.2c0-0.7,0.1-1.7,0.1-3c0-3.5-0.4-5.1-1.3-10.4c-1.1-6.8-1.2-9.2-3-11
			c0,0,0,0-1.9-1.9c-2.9-2.9-3.1-3.1-3.2-3.2c-2.9-2.9-4.7-4.4-5.6-5.3c-1.9-2-4.1-5.5-4.6-12.2c-0.2-0.4-0.5-1-1.1-1.6
			c-0.1-0.1-0.8-0.7-1.9-1c-0.5-0.1-1-0.2-2.7-0.1c-2.3,0.2-2.4,0.4-3.4,0.4c-1.4-0.1-2.4-0.6-3.1-0.9c-1.9-1-2.9-2.4-3.4-3.2
			c1.4-1.5,2.6-2.7,3.4-3.6c1.7-1.8,3.8-4.1,3.8-4.1c-0.1-0.8-0.3-2,0-3.3c0.3-1.6,1-2.6,2.1-4.3c1.7-2.5,3.5-4.1,4.7-5.1
			c0.5-0.4,0.8-0.6,1.1-0.8c-0.1-0.5-0.2-1-0.3-1.6c-0.2-2.7,0.7-4.9,1.4-6.1c0.8,0.3,2.5,0.9,4,2.5c1.3,1.4,1.9,2.9,2.2,3.7
			c0.9-0.1,2.3-0.2,4,0.1c1.7,0.3,3.3,1,5.1,2.3c2.5,1.7,3.6,3.1,6.1,5.7c3.9,4,5.8,6.1,7.8,7.1
			C1057.4,127.3,1059.5,127.6,1063.5,128.1z"/>
		<g>
			<path class="st12" d="M1029.1,123.7c-0.2-2.4-3.9-4.4-6.4-3.1c-0.7,0.4-1.3,1-1.7,1.8c-0.4,0.7-0.5,1.6-0.3,2.4
				c0.1,0.6,0.3,1.1,0.7,1.6c0.3,0.4,0.6,0.7,1,1c0.5,0.3,1.1,0.6,1.7,0.7C1026.7,128.4,1029.3,125.9,1029.1,123.7z"/>
			<path d="M1024.8,127.9c0.8-0.8,1-2.5,0.3-4.2c-0.7-1.6-2-2.7-3.1-2.7c-1.2,1.2-2,3.1-1,4.7c0,0,0.1,0.2,0.1,0.2
				c0.1,0.1,0.2,0.3,0.3,0.4c0.2,0.4,0.6,0.7,0.9,0.9c0.5,0.3,1,0.5,1.5,0.6c0.2,0,0.4,0,0.5,0.1
				C1024.4,127.9,1024.6,127.9,1024.8,127.9z"/>
		</g>
	</g>
	<g>
		<path class="st10" d="M982.1,397.5c5.4,0.7,8.8,0.5,12.9,0.5c8.2,0.1,12.4,0.1,15.5,1.2c6.7,2.4,10.8,7.8,16.3,15.3
			c1.8,2.4,3.6,4.8,5.3,8.5c2.2,4.9,1.6,6,3.7,10c2.2,4.2,5.2,7.2,7.1,9.2c4,4,5.4,4.1,7,7.1c0.6,1.3,2.2,4.3,1.4,8.2
			c-1,4.3-4.5,6.5-5.3,7c-0.3-0.9-0.8-2.2-1.9-3.2c-1.7-1.7-3.6-1.7-5.8-2.4c-3.4-1-6.6-3.2-8.3-5.4c-2.4-3-2.6-6.6-2.7-9.5
			c-0.3-6.6,2.2-9.1,0.5-12.7c-1.1-2.5-3.4-3.8-5.1-4.6c-0.3,1.2-0.6,3-0.7,5.1c0,1.8-0.1,3.9,0.8,6.3c0.9,2.3,2.2,2.3,3.3,5
			c0.5,1.2,0.6,2.1,0.8,3c0.3,2.1,0.2,3.7,0,6.8c-0.3,3.7-0.4,2.5-0.9,7c-0.2,2.3-0.2,3.1-1,3.8c-0.8,0.7-1.9,0.8-4.3,1
			c-3.1,0.2-4.1-0.4-4.4-0.6c-0.5-0.4-1.2-0.7-1.3-1.3c-0.2-1.2,1.8-2.5,3-3c1.1-0.5,2.1-0.5,2.6-0.6c0.4-1.4,0.8-3.6,0.6-6.3
			c-0.1-1.6-0.2-2.6-0.7-3.7c-1.1-2.1-3-2.3-6.2-4.1c-2.6-1.5-4.3-3-7-5.5c-3.2-3-5.3-5.6-5.3-5.6c0,0,1.7,1.9,9.6,10.9
			c0.1,0.4,0.2,0.9,0.2,1.6c0,1.2-0.4,2.1-0.6,2.5c-0.6,1.3-1.2,3.3-2.5,7.3c-1.1,3.4-1,4.1-2,4.9c-1,0.7-2,0.8-3.9,0.9
			c-2.5,0.2-4.7,0.3-5.7-1.1c-0.9-1.2-0.4-3-0.1-3.7c0.9-0.2,1.8-0.4,2.9-0.6c0.7-0.1,1.4-0.2,2-0.2c0.9-1.4,1.4-2.7,1.8-3.6
			c0.7-1.9,1.3-3.6,0.8-5.5c-0.1-0.2-0.3-1-0.9-2.1c-1.9-3.1-4.4-3.5-7.1-5.9c-1-0.9-2.4-2.3-3.6-4.6c-1.5,0.1-3.1,0.3-4.6,0.5
			c-2.3,0.2-4.5,0.5-6.8,0.7c0.3,3.9,0.5,7.2,0.6,9.6c0.3,6.3-0.1,1.3,0.1,10.5c0.1,3.6,0.2,5.4-1.1,6.5c-0.7,0.6-1.9,0.7-4.4,0.9
			c-2.9,0.3-4.4,0.4-5-0.4c-0.8-0.9-0.6-2.8,0.6-4c0.9-0.9,2.2-1.2,3.4-0.8c-0.1-1-0.2-2.4-0.4-4.2c-0.5-3.9-0.8-6.8-2-10
			c-0.6-1.6-1.7-3.8-3.6-6.3c0.4,1.2,0.9,2.8,1.1,4.9c0.1,1,0.4,3.7-0.6,9.8c-0.4,2.5-1.1,5.7-2.2,9.5c-3.4,0-6.9-0.1-10.3-0.1
			c-0.3-1-0.1-1.7,0-2.1c0.6-1.8,2.8-3.1,5.5-3.2c0-0.7,0.1-1.7,0.1-3c0-3.5-0.4-5.1-1.3-10.4c-1.1-6.8-1.2-9.2-3-11
			c0,0,0,0-1.9-1.9c-2.9-2.9-3.1-3.1-3.2-3.2c-2.9-2.9-4.7-4.4-5.6-5.3c-1.9-2-4.1-5.5-4.6-12.2c-0.2-0.4-0.5-1-1.1-1.6
			c-0.1-0.1-0.8-0.7-1.9-1c-0.5-0.1-1-0.2-2.7-0.1c-2.3,0.2-2.4,0.4-3.4,0.4c-1.4-0.1-2.4-0.6-3.1-0.9c-1.9-1-2.9-2.4-3.4-3.2
			c1.4-1.5,2.6-2.7,3.4-3.6c1.7-1.8,3.8-4.1,3.8-4.1c-0.1-0.8-0.3-2,0-3.3c0.3-1.6,1-2.6,2.1-4.3c1.7-2.5,3.5-4.1,4.7-5.1
			c0.5-0.4,0.8-0.6,1.1-0.8c-0.1-0.5-0.2-1-0.3-1.6c-0.2-2.7,0.7-4.9,1.4-6.1c0.8,0.3,2.5,0.9,4,2.5c1.3,1.4,1.9,2.9,2.2,3.7
			c0.9-0.1,2.3-0.2,4,0.1c1.7,0.3,3.3,1,5.1,2.3c2.5,1.7,3.6,3.1,6.1,5.7c3.9,4,5.8,6.1,7.8,7.1C976.1,396.7,978.1,397,982.1,397.5z
			"/>
		<g>
			<path class="st12" d="M947.8,393.2c-0.2-2.4-3.9-4.4-6.4-3.1c-0.7,0.4-1.3,1-1.7,1.8c-0.4,0.7-0.5,1.6-0.3,2.4
				c0.1,0.6,0.3,1.1,0.7,1.6c0.3,0.4,0.6,0.7,1,1c0.5,0.3,1.1,0.6,1.7,0.7C945.4,397.8,948,395.3,947.8,393.2z"/>
			<path d="M943.4,397.3c0.8-0.8,1-2.5,0.3-4.2c-0.7-1.6-2-2.7-3.1-2.7c-1.2,1.2-2,3.1-1,4.7c0,0,0.1,0.2,0.1,0.2
				c0.1,0.1,0.2,0.3,0.3,0.4c0.2,0.4,0.6,0.7,0.9,0.9c0.5,0.3,1,0.5,1.5,0.6c0.2,0,0.4,0,0.5,0.1
				C943.1,397.3,943.3,397.3,943.4,397.3z"/>
		</g>
	</g>
	<g>
		<path class="st22" d="M597.3,611.8c-0.4,1.5-1.1,3.7-2,6.4c-2,5.5-3,8.2-5.2,9.1c-2.1,0.8-4.7,0.1-6.2-1.3c-1.4-1.3-1.6-3-1.9-5.6
			c-0.6-5.9-0.9-8.8-0.7-12c0.3-4.1,0.5-8.3,2.2-13.5c2.2-6.8,5.8-12.1,9.1-15.8c0.2-0.3,0.9-1.1,1.9-1.2c1.4-0.2,2.4,1,2.9,1.5
			c1.2,1.4,1.3,2.7,1.9,4.7c0.4,1.2,1,2.5,2.4,5.2c0.7,1.5,1.9,3.6,5.6,8.8c3.4,4.7,5,7.1,6.2,8.3c4.9,4.8,10,6.7,11.5,7.2
			c4.4,1.5,7.9,1.6,10.3,1.7c10.8,0.2,18.8-4,22.6-6.1c6.4-3.5,9.9-5.4,12.1-9.6c4.9-9.5-1.9-20.9-2.9-22.4c1.2,0.2,3.4,0.8,5.6,2.5
			c1.2,0.9,5.1,4.3,4.9,9.8c-0.2,5.6-4.5,8.7-5.1,9.1c0.1,1,0.2,2.5,0.2,4.2c0,2.8-0.1,7.3-1.9,12.3c-1.6,4.6-4.1,8-6.4,10.4
			c-0.2,3.6-0.4,7.3-0.5,10.9c-0.2,5.4-0.4,10.7-0.5,16c0.4,0.1,1.5,0.6,2.2,1.7c1.1,1.6,0.5,3.4,0.3,3.9c-0.5,1.5-1.6,2.4-2,2.7
			c0,1,0,2.6,0,4.5c0.1,5.9,0.4,6.2,0.5,12.3c0.1,4.6,0,4.9,0.3,6.2c0.4,1.5,1,2.5,0.5,3.5c-0.7,1.5-3.1,1.5-3.2,1.5
			c-1.8,0-3.8-1.1-3.9-2.4c-0.1-1.1,1.3-1.9,1.7-2.2c2-1.4,3.3-6.5,0-22.9c-0.4-0.1-1.5-0.6-2.2-1.9c-0.7-1.4-0.5-3.2,0.5-4.5
			c-0.9-1.5-1.9-3.3-2.7-5.4c-1.9-4.7-2.4-9-2.5-12.1c-1,0.8-2.2,1.6-3.4,2.4c-10.7,6.4-22.9,4.5-29,3c-0.5,2.6-0.9,5.3-1.3,7.9
			c-0.4,2.4-0.8,4.8-1.2,7.2c0.8,0.8,1.2,1.5,1.3,2c0.8,2.1-0.1,4.7-2,6.7c-0.3,2.9-0.2,5.3-0.2,6.9c0.1,1.7,0.2,2.8,0.3,5.6
			c0.2,4.1-0.1,4.9-0.5,5.7c-0.7,1.2-2.2,2.7-4,2.5c-1.2-0.1-2.5-1.1-2.7-2.2c-0.2-1.2,1.1-2.3,1.5-2.7c1.6-1.6,3-5.2,1.5-14.5
			c-0.3-0.2-1.4-0.8-1.9-2c-0.5-1.4,0-3.1,1.2-4.2c0-1.8,0-3.7,0-5.6c0-5.7-0.1-11.2-0.3-16.7c-2.2-1.8-4.8-4.3-7.2-7.6
			C599.1,624.3,597.7,616.2,597.3,611.8z"/>
		<path class="st7" d="M611.2,684.6c-0.9-0.4-1.6-0.2-4.2,0.2c-1.6,0.2-2.9,0.4-3.7,0.5c0.3,0.2,0.6,0.4,0.9,0.7
			c1.1,0.7,2.2,0.9,2.9,0.9c-0.9,0.4-1.9,0.9-2.8,1.3c0.5,0.3,1.2,0.7,2.1,1c2.7,0.9,6.5,0.5,7-1.1
			C613.8,686.8,612.6,685.2,611.2,684.6z"/>
		<path class="st7" d="M661.9,689c0-0.6-0.9-1.1-2-1.8c-0.8-0.4-2.2-1.2-3.7-0.9c-0.8,0.2-0.9,0.5-1.9,1c-1.3,0.6-2.5,0.6-3.3,0.6
			c0.3,0.2,0.7,0.5,1.3,0.7c1.7,0.6,3.2-0.1,3.6-0.3c-0.3,0.3-0.7,0.8-1.4,1.1c-0.9,0.5-1.8,0.6-2.3,0.6c0.7,0.4,1.7,0.9,3,1.1
			C658.4,691.6,661.9,690.2,661.9,689z"/>
		<path class="st7" d="M593.1,578c-0.3-0.7,0.6-1.8,1.6-2.8c2.1-2.2,3.5-3.5,6.6-5.3c3.1-1.8,4.6-2.7,6.8-2.6c0.9,0,3.7,0.1,4.6,2
			c0.7,1.4,0,2.9-0.2,3.4c-0.1-0.6-0.3-1.4-1-1.9c-1.5-1.3-4-0.3-5.1,0.1c-3.3,1.2-5.2,3.8-6.1,5.1c-0.8,1.2-2,3.2-2.7,6
			c-0.3-0.8-0.8-1.9-1.8-2.6C594.6,578.5,593.4,578.7,593.1,578z"/>
		<path class="st7" d="M593.6,588.9c-1.5,0.8-1.1,4.1-0.8,6.9c0.4,3.1,0.7,6,2.8,8.9c1.5,2.1,3.3,3.3,4.4,4c0.9-2.8,1-5.2,1.1-6.8
			c0-2,0.1-9.6-4.4-12.4C596.2,589.3,594.6,588.3,593.6,588.9z"/>
		<path class="st7" d="M583.6,625.8c0.4-0.4,0.8-0.8,1.1-1.4c1-1.9,0.8-3.7,0.7-4.5c-0.3,0-1.3,0-2.3,0.7c-0.6,0.4-0.9,1-1,1.3
			c0,0.5,0.1,1.1,0.3,1.8C582.8,624.6,583.2,625.3,583.6,625.8z"/>
		<g>
			<path class="st12" d="M592.3,602.1c-0.2-2.4-3.8-4.3-6.3-3c-0.7,0.4-1.3,1-1.6,1.7c-0.4,0.7-0.5,1.6-0.3,2.3
				c0.1,0.6,0.3,1.1,0.7,1.5c0.3,0.4,0.6,0.7,1,0.9c0.5,0.3,1.1,0.6,1.6,0.6C589.9,606.6,592.4,604.2,592.3,602.1z"/>
			<path class="st13" d="M588,606.2c0.8-0.8,1-2.5,0.3-4.1c-0.7-1.6-1.9-2.6-3-2.6c-1.1,1.2-2,3-1,4.6c0,0,0.1,0.2,0.1,0.2
				c0.1,0.1,0.2,0.3,0.3,0.4c0.2,0.4,0.5,0.7,0.9,0.9c0.5,0.3,0.9,0.5,1.5,0.6c0.2,0,0.4,0,0.5,0.1
				C587.7,606.2,587.8,606.2,588,606.2z"/>
		</g>
	</g>
</g>
<g id="Layer_4">
	<g>
		<path class="st44" d="M538.4,462.7c5.3,1.2,5.3,1.2,5.7,1.2c3.2,0.3,6-2.9,7.2-4.3c3.6-4.1,4-9.1,4.3-12.3
			c0.2-2.9,0.7-10.3-4-17.7c-3-4.7-6.9-7.3-9.1-8.6c0.2-0.9,0.6-2.6,0.2-4.6c-0.2-0.9-0.8-3.2-2.9-5.1c-3-2.6-6.8-2.3-7.8-2.2
			c-1,0.1-5.2,0.5-7.7,4.1c-3.1,4.4-0.8,9.6-0.6,10c1.6,3.5,5.2,6.3,9.4,6.2c3.2-0.1,5.5-1.8,6.3-2.4c0.5,0.3,1.3,0.7,2.3,1.5
			c8.2,6.1,8.1,16.8,8,19.8c0,1.7-0.3,3.4-1.5,4.2c-0.9,0.7-2.1,0.5-2.5,0.5c-1.7-0.2-2.9-1.4-3.8-2.3c-1.2-1.2-1.7-2.3-2.4-3.4
			c-0.4-0.6-2.3-3.9-4-5.5c-4-3.7-11.4-1.9-13.9-1.3c-2.6,0.6-5.3,1.3-7.5,3.5c-1.1,1.1-2.2,2.7-4.4,5.8c-1.5,2.1-1.8,2.7-2.8,3.3
			c-2.1,1.3-4.6,0.9-6.3,0.5c0,0.2,0.1,1.6,1.3,2.4c1,0.7,2.3,0.8,3.4,0.2c0,0.5,0.2,1.2,0.5,1.8c1.4,2.5,5.1,3.6,8.2,3.1
			c3-0.4,3.4-2,5.8-1.8c2.1,0.2,4.2,1.6,4.2,2.8c0,0.4-0.2,0.4-0.5,1.1c-0.5,1.6,0.2,3,0.2,3.1c0.2,0.4,0.6,1.2,1.6,1.6
			c1.2,0.5,2.3-0.1,2.5-0.2c1.4-0.7,1.7-2.2,1.7-2.4c0,0.2-0.1,1,0.4,1.7c0.5,0.7,1.4,0.8,2,0.8c0.4,0,1.9,0.2,2.8-0.7
			c1.3-1.3-0.3-3.8,0.8-4.7C536.3,462.2,537,462.4,538.4,462.7z"/>
		<path class="st8" d="M531.3,428.8c-0.9,0.6-1.3,1.3-1.5,1.8c-1,2.2-0.1,5.2,2.3,7.6c-0.8,0.3-2.6,0.7-4.7,0.1
			c-3.7-1-5.2-4.3-5.4-4.8c-1-2.4-0.6-4.5-0.5-5.4c0.5-2.8,2.1-4.6,2.8-5.3c0.3,0.5,0.6,0.8,0.9,0.9c1.8,1.2,4.3-0.1,4.4-0.2
			c-0.2,0.8-0.2,1.5-0.2,2c0,1,0,1.6,0.4,2.2C530.2,428.4,530.9,428.7,531.3,428.8z"/>
		<path class="st8" d="M533.5,464.3c2.7-0.1,3.8-0.4,4.6-0.9c0.7-0.3,2.7-1.3,3.5-3.3c0.9-2.1-0.1-4.2-1.4-6.8
			c-1.4-2.9-3.6-7.4-8.4-9.1c-1-0.3-4.1-1.4-5.7,0.1c-0.9,0.9-1,2.2-0.9,2.9c-0.9-0.2-2.2-0.5-3.8-0.5c-1.6,0-3.2-0.1-4.8,0.7
			c-0.7,0.3-2.6,1.2-3.4,3c-1.2,2.9,1.4,6.3,2.2,7.4c3.5,4.5,8.9,5.6,11.1,6C529,464.5,531,464.4,533.5,464.3z"/>
		<path class="st22" d="M527.4,468.2c-0.2,0.6-0.4,1.4-0.6,2.5c-0.3,1.5-1.5,6.6-1.1,11.8c0.5,6.7,3.4,12.1,5.1,15
			c0.6,0,1.2,0.1,1.9,0.2c2.4,0.4,4.4,1.3,5.9,2.2c-1.5-0.1-3-0.2-4.5-0.3c0.5,0.1,1.4,0.3,2.3,1.1c0.9,0.7,1.3,1.6,1.4,2
			c-0.8-0.4-1.9-0.8-3.2-1c-1-0.2-1.9-0.3-2.6-0.3c0.1,0.4,0.2,1,0.7,1.7c0.3,0.4,0.7,0.7,1,0.9c-1.1,0.2-1.8,0-2.2-0.2
			c-0.2-0.1-0.4-0.2-1.4-1.1c-1.2-1-1.2-1.1-1.4-1.3c-0.6-0.4-1.5-0.6-3.2-0.1c-0.1-0.8,0.1-1.3,0.2-1.5c0.5-1.1,2-1.7,3.7-1.4
			c-1-2-1.7-3.8-2.3-5.2c-1.5-3.6-2.3-5.6-2.9-8.3c-0.5-2.6-0.6-4.7-0.6-5.4c-0.1-2.4,0.2-6.4,2.1-11.2
			C526.2,468.1,526.8,468.1,527.4,468.2z"/>
		<path class="st22" d="M533.3,468.1c-1.8,1.7-3,3.4-3.7,4.6c-1.6,2.5-1.8,3.7-1.8,4.6c0,0.5,0,1.2,0.3,2.1c0.3,0.8,0.9,1.5,2.7,2.8
			c2,1.4,2.1,1.3,3.4,2.3c0.9,0.7,2.1,1.6,3.1,3c1.2,1.7,1.8,3.2,1.9,3.8c0.7,2.3,0.6,4.4,0.4,5.6c-0.6-1.3-1.1-2.7-1.7-4
			c0,0.4-0.1,1.1-0.5,1.8c-0.7,1.4-2.1,2-2.5,2.2c0.9-3.3,0.9-4.3,0.6-4.4c-0.1,0-0.2-0.1-1.2,0.6c-0.7,0.5-1.2,0.9-1.6,1.2
			c-0.1-0.6-0.2-1.5,0.2-2.6c0.7-2.2,2.5-3.2,3-3.4c-0.5-0.5-1.2-1.1-2.2-1.8c-1.6-1.2-2.3-1.5-3.8-2.5c-1.6-1.1-2.4-1.7-3-2.6
			c-1.9-3-0.4-6.9-0.2-7.2c0.5-1.1,1.1-1.9,2.4-3.6c0.9-1.2,1.7-2.1,2.3-2.7C532.1,468,532.7,468,533.3,468.1z"/>
		<path class="st12" d="M530.9,421.2c-0.5,0.1-1,0.1-1.4,0.1c-0.4-0.1-0.7-0.2-1.1-0.4c-0.4-0.2-0.8-0.5-1-0.9
			c-0.4-0.5-0.6-1.2-0.5-1.9c0-0.7,0.2-1.3,0.6-1.8c1.4-1.8,4.7-1.5,5.7,0.2C534,418,533,420.7,530.9,421.2z"/>
		<path class="st13" d="M531,421.1c-0.1,0-0.3,0.1-0.4,0.1c-0.4,0.1-0.9,0.1-1.3,0c-0.3,0-0.7-0.2-1-0.3c-0.1-0.1-0.2-0.1-0.3-0.2
			c0,0-0.1-0.1-0.1-0.1c-1.3-0.8-1.3-2.4-0.8-3.7c0.9-0.4,2.1,0,3.2,0.9c1,1,1.5,2.3,1.1,3.1C531.3,421,531.2,421.1,531,421.1z"/>
	</g>
	<g>
		<path class="st13" d="M697.9,623.4v67.8c2.1,0,4.2,0,6.3,0v-67.8"/>
		<path class="st13" d="M709.6,619.8v71.4c2.1,0,4.2,0,6.3,0.1v-71.5"/>
		<path class="st13" d="M721.4,616.2v75.1c2.1,0,4.2,0.1,6.3,0.2v-75.3"/>
		<path class="st13" d="M733.2,612.7v79.1c2.1,0.1,4.2,0.2,6.3,0.2v-79.3"/>
		<path class="st13" d="M745,609.1v83.1c2.1,0.1,4.2,0.2,6.3,0.3v-83.4"/>
		<path class="st13" d="M756.7,605.5v86.9c2.1-0.1,4.2-0.2,6.3-0.2v-86.7"/>
		<path class="st13" d="M768.5,601.9v90.2c2.1,0,4.2,0,6.3,0.1v-90.2"/>
		<path class="st13" d="M780.3,600.7v91.7c2.1,0.1,4.2,0.1,6.3,0.2v-92.2"/>
		<path class="st13" d="M880.8,623.4v67.8c-2.1,0-4.2,0-6.3,0v-67.8"/>
		<path class="st13" d="M869,619.8v71.4c-2.1,0-4.2,0-6.3,0.1v-71.5"/>
		<path class="st13" d="M857.2,616.2v75.1c-2.1,0-4.2,0.1-6.3,0.2v-75.3"/>
		<path class="st13" d="M845.5,612.7v79.1c-2.1,0.1-4.2,0.2-6.3,0.2v-79.3"/>
		<path class="st13" d="M833.7,609.1v83.1c-2.1,0.1-4.2,0.2-6.3,0.3v-83.4"/>
		<path class="st13" d="M815.6,605.5v87c0.1,0,0.1,0,0.2,0c2.4,0,3.7,0,6.1,0v-87"/>
		<path class="st13" d="M803.8,601.9v90.9c2.1,0,4.2,0,6.3-0.1v-90.8"/>
		<path class="st13" d="M792.1,600.1v92.6c2.1,0.1,4.2,0.1,6.3,0.1V600"/>
	</g>
	<g>
		<path class="st40" d="M422.6,499c-3.9-10.5-7.1-23.9-6.5-39.2c0.1-2.5,0.3-5,0.6-7.3"/>
		
			<ellipse transform="matrix(0.2632 -0.9647 0.9647 0.2632 -119.7435 731.9828)" class="st20" cx="419.4" cy="444.4" rx="12.8" ry="4.9"/>
		<path class="st40" d="M430.2,495.4c4.6-10.3,11.6-22,22.7-32.5c1.8-1.7,3.7-3.3,5.5-4.8"/>
		
			<ellipse transform="matrix(0.8626 -0.5059 0.5059 0.8626 -165.7147 298.1732)" class="st20" cx="466" cy="454.1" rx="12.8" ry="4.9"/>
		<path class="st40" d="M425.2,498.2c-0.2-11.2,1.3-24.9,6.9-39.1c0.9-2.3,1.9-4.6,3-6.7"/>
		
			<ellipse transform="matrix(0.5704 -0.8214 0.8214 0.5704 -176.84 553.2041)" class="st20" cx="440.4" cy="445.6" rx="12.8" ry="4.9"/>
		<path class="st41" d="M425.1,499.9c1.3-2.1-6.6-13.8-19.7-16.6c-8.9-1.9-24.2-0.7-32.6,11.2c-2.6,3.8-3.9,7.6-4.6,10.4
			c7.8-5.3,18.6-10.9,30.5-11.2C414.4,493.2,423.8,502,425.1,499.9z"/>
		<path class="st41" d="M425,499.4c-1.1-1.5,5.9-11.9,17.4-15.9c7.9-2.7,21.3-3.7,28.6,4.7c2.3,2.7,3.4,5.6,4,7.7
			c-6.9-3.2-16.3-6.3-26.8-5C434.4,492.6,426.1,500.9,425,499.4z"/>
	</g>
	<g>
		<path class="st44" d="M646.3,378.8c-5.3,1.2-5.3,1.2-5.7,1.2c-3.2,0.3-6-2.9-7.2-4.3c-3.6-4.1-4-9.1-4.3-12.3
			c-0.2-2.9-0.7-10.3,4-17.7c3-4.7,6.9-7.3,9.1-8.6c-0.2-0.9-0.6-2.6-0.2-4.6c0.2-0.9,0.8-3.2,2.9-5.1c3-2.6,6.8-2.3,7.8-2.2
			c1,0.1,5.2,0.5,7.7,4.1c3.1,4.4,0.8,9.6,0.6,10c-1.6,3.5-5.2,6.3-9.4,6.2c-3.2-0.1-5.5-1.8-6.3-2.4c-0.5,0.3-1.3,0.7-2.3,1.5
			c-8.2,6.1-8.1,16.8-8,19.8c0,1.7,0.3,3.4,1.5,4.2c0.9,0.7,2.1,0.5,2.5,0.5c1.7-0.2,2.9-1.4,3.8-2.3c1.2-1.2,1.7-2.3,2.4-3.4
			c0.4-0.6,2.3-3.9,4-5.5c4-3.7,11.4-1.9,13.9-1.3c2.6,0.6,5.3,1.3,7.5,3.5c1.1,1.1,2.2,2.7,4.4,5.8c1.5,2.1,1.8,2.7,2.8,3.3
			c2.1,1.3,4.6,0.9,6.3,0.5c0,0.2-0.1,1.6-1.3,2.4c-1,0.7-2.3,0.8-3.4,0.2c0,0.5-0.2,1.2-0.5,1.8c-1.4,2.5-5.1,3.6-8.2,3.1
			c-3-0.4-3.4-2-5.8-1.8c-2.1,0.2-4.2,1.6-4.2,2.8c0,0.4,0.2,0.4,0.5,1.1c0.5,1.6-0.2,3-0.2,3.1c-0.2,0.4-0.6,1.2-1.6,1.6
			c-1.2,0.5-2.3-0.1-2.5-0.2c-1.4-0.7-1.7-2.2-1.7-2.4c0,0.2,0.1,1-0.4,1.7c-0.5,0.7-1.4,0.8-2,0.8c-0.4,0-1.9,0.2-2.8-0.7
			c-1.3-1.3,0.3-3.8-0.8-4.7C648.5,378.3,647.7,378.4,646.3,378.8z"/>
		<path class="st8" d="M653.4,344.9c0.9,0.6,1.3,1.3,1.5,1.8c1,2.2,0.1,5.2-2.3,7.6c0.8,0.3,2.6,0.7,4.7,0.1c3.7-1,5.2-4.3,5.4-4.8
			c1-2.4,0.6-4.5,0.5-5.4c-0.5-2.8-2.1-4.6-2.8-5.3c-0.3,0.5-0.6,0.8-0.9,0.9c-1.8,1.2-4.3-0.1-4.4-0.2c0.2,0.8,0.2,1.5,0.2,2
			c0,1,0,1.6-0.4,2.2C654.5,344.5,653.8,344.8,653.4,344.9z"/>
		<path class="st8" d="M651.3,380.3c-2.7-0.1-3.8-0.4-4.6-0.9c-0.7-0.3-2.7-1.3-3.5-3.3c-0.9-2.1,0.1-4.2,1.4-6.8
			c1.4-2.9,3.6-7.4,8.4-9.1c1-0.3,4.1-1.4,5.7,0.1c0.9,0.9,1,2.2,0.9,2.9c0.9-0.2,2.2-0.5,3.8-0.5c1.6,0,3.2-0.1,4.8,0.7
			c0.7,0.3,2.6,1.2,3.4,3c1.2,2.9-1.4,6.3-2.2,7.4c-3.5,4.5-8.9,5.6-11.1,6C655.8,380.5,653.7,380.4,651.3,380.3z"/>
		<path class="st22" d="M657.3,384.2c0.2,0.6,0.4,1.4,0.6,2.5c0.3,1.5,1.5,6.6,1.1,11.8c-0.5,6.7-3.4,12.1-5.1,15
			c-0.6,0-1.2,0.1-1.9,0.2c-2.4,0.4-4.4,1.3-5.9,2.2c1.5-0.1,3-0.2,4.5-0.3c-0.5,0.1-1.4,0.3-2.3,1.1c-0.9,0.7-1.3,1.6-1.4,2
			c0.8-0.4,1.9-0.8,3.2-1c1-0.2,1.9-0.3,2.6-0.3c-0.1,0.4-0.2,1-0.7,1.7c-0.3,0.4-0.7,0.7-1,0.9c1.1,0.2,1.8,0,2.2-0.2
			c0.2-0.1,0.4-0.2,1.4-1.1c1.2-1,1.2-1.1,1.4-1.3c0.6-0.4,1.5-0.6,3.2-0.1c0.1-0.8-0.1-1.3-0.2-1.5c-0.5-1.1-2-1.7-3.7-1.4
			c1-2,1.7-3.8,2.3-5.2c1.5-3.6,2.3-5.6,2.9-8.3c0.5-2.6,0.6-4.7,0.6-5.4c0.1-2.4-0.2-6.4-2.1-11.2
			C658.5,384.2,657.9,384.2,657.3,384.2z"/>
		<path class="st22" d="M651.4,384.1c1.8,1.7,3,3.4,3.7,4.6c1.6,2.5,1.8,3.7,1.8,4.6c0,0.5,0,1.2-0.3,2.1c-0.3,0.8-0.9,1.5-2.7,2.8
			c-2,1.4-2.1,1.3-3.4,2.3c-0.9,0.7-2.1,1.6-3.1,3c-1.2,1.7-1.8,3.2-1.9,3.8c-0.7,2.3-0.6,4.4-0.4,5.6c0.6-1.3,1.1-2.7,1.7-4
			c0,0.4,0.1,1.1,0.5,1.8c0.7,1.4,2.1,2,2.5,2.2c-0.9-3.3-0.9-4.3-0.6-4.4c0.1,0,0.2-0.1,1.2,0.6c0.7,0.5,1.2,0.9,1.6,1.2
			c0.1-0.6,0.2-1.5-0.2-2.6c-0.7-2.2-2.5-3.2-3-3.4c0.5-0.5,1.2-1.1,2.2-1.8c1.6-1.2,2.3-1.5,3.8-2.5c1.6-1.1,2.4-1.7,3-2.6
			c1.9-3,0.4-6.9,0.2-7.2c-0.5-1.1-1.1-1.9-2.4-3.6c-0.9-1.2-1.7-2.1-2.3-2.7C652.6,384.1,652,384.1,651.4,384.1z"/>
		<path class="st12" d="M653.8,337.3c0.5,0.1,1,0.1,1.4,0.1c0.4-0.1,0.7-0.2,1.1-0.4c0.4-0.2,0.8-0.5,1-0.9c0.4-0.5,0.6-1.2,0.5-1.9
			c0-0.7-0.2-1.3-0.6-1.8c-1.4-1.8-4.7-1.5-5.7,0.2C650.7,334.1,651.8,336.7,653.8,337.3z"/>
		<path class="st13" d="M653.7,337.2c0.1,0,0.3,0.1,0.4,0.1c0.4,0.1,0.9,0.1,1.3,0c0.3,0,0.7-0.2,1-0.3c0.1-0.1,0.2-0.1,0.3-0.2
			c0,0,0.1-0.1,0.1-0.1c1.3-0.8,1.3-2.4,0.8-3.7c-0.9-0.4-2.1,0-3.2,0.9c-1,1-1.5,2.3-1.1,3.1C653.5,337.1,653.6,337.1,653.7,337.2z
			"/>
	</g>
	<g>
		<path class="st19" d="M1295.3,667.8c-3.5,3.1-7.4,6.5-13.1,7.3c-4.9,0.6-5.9-1.4-20-3.9c-5.2-1-10.5-1-15.7-0.2
			c-17.6,2.6-19.2,2.5-21.2,1.6c-4-1.8-7.9-6.3-6.7-9.4c1.1-3.1,7-3.5,7.6-3.5c-3.1,0.1-12.4,0-19.2-6.6c-3.7-3.6-8.2-10.4-6-14
			c2.4-4.1,12-1.8,12.7-4.6c0.6-2.3-5.8-4.1-6.2-8.5c-0.4-4.4,5.5-8.9,10.5-10.4c8.2-2.6,15.5,2.4,16.6,3.2c0-0.3,0.5-4.5,3.9-6.2
			c3.4-1.6,7.7,0.5,9.6,3.5c0.6,1,1,2.2,1.1,3.4c0.5-2.2,1.6-4.2,3.2-5.7c1.4-1.3,3.1-2.3,4.9-2.9c1.8-0.6,3.8-0.7,5.7-0.5
			c5.1,0.9,9.8,5.1,10.3,10.6c0.2,2.8-0.6,5.7-2.3,8c1.8-2,4-3.5,6.4-4.6c3.7-1.6,11.1-3.2,14.9,0.7c4.4,4.5,1.5,13.7-2.1,18.7
			c-1.5,2.1-3.5,4-5.7,5.3c1.4-0.3,2.8-0.5,4.3-0.4c6,0.3,13.3,4,13.8,9C1302.5,661.5,1299.2,664.4,1295.3,667.8z"/>
		<path class="st20" d="M1258.3,661.4h-7.2v53.8h7.2V661.4z"/>
		<path class="st19" d="M1254.3,666.8c8.2,0,14.8-5.4,14.8-12.1s-6.6-12.1-14.8-12.1c-8.2,0-14.8,5.4-14.8,12.1
			S1246.1,666.8,1254.3,666.8z"/>
	</g>
</g>
<g id="Layer_10">
</g>
<g id="clouds">
	<path class="st12" d="M1217.4,475.6c0.9-2.5,0.9-5.3,0-7.8c-2.4-6.4-10-7.6-10.9-7.8c-3.1-0.4-6.2,0.1-9,1.5
		c-2.8,1.4-5.1,3.6-6.6,6.3c-0.2,0.4-0.6,2.9-1.6,7.8v1.6c-0.4-0.6-1-1.1-1.6-1.6c-3.8-2.6-9.5-0.3-12.5,1.6
		c-2.9,1.8-5.1,4.6-6.2,7.8c-1,3-1,6.3,0,9.3c1.3,4.4,4,8.3,7.8,10.9h70.3c-1.8-1.3-3.4-2.9-4.7-4.7c-1.5-1.8-2.5-4-3.1-6.2
		c-0.8-3.6,0.6-4.4,0-7.8c-0.6-3.1-2.3-5.8-4.7-7.8c-3-2.4-6.4-2.7-10.9-3.1C1221.6,475.4,1219.5,475.4,1217.4,475.6z"/>
	<path class="st12" d="M1247,37.4c0.9-2.5,0.9-5.3,0-7.8c-2.4-6.4-10-7.6-10.9-7.8c-3.1-0.4-6.2,0.1-9,1.5c-2.8,1.4-5.1,3.6-6.6,6.3
		c-0.2,0.4-0.6,2.9-1.6,7.8V39c-0.4-0.6-1-1.1-1.6-1.6c-3.8-2.6-9.5-0.3-12.5,1.6c-2.9,1.8-5.1,4.6-6.2,7.8c-1,3-1,6.3,0,9.3
		c1.3,4.4,4,8.3,7.8,10.9h70.3c-1.8-1.3-3.4-2.9-4.7-4.7c-1.5-1.8-2.5-4-3.1-6.2c-0.8-3.6,0.6-4.4,0-7.8c-0.6-3.1-2.3-5.8-4.7-7.8
		c-3-2.4-6.4-2.7-10.9-3.1C1251.1,37.2,1249,37.2,1247,37.4z"/>
	<path class="st12" d="M412.3,84.3c0.9-2.5,0.9-5.3,0-7.8c-2.4-6.4-10-7.6-10.9-7.8c-3.1-0.4-6.2,0.1-9,1.5
		c-2.8,1.4-5.1,3.6-6.6,6.3c-0.2,0.4-0.6,2.9-1.6,7.8v1.6c-0.4-0.6-1-1.1-1.6-1.6c-3.8-2.6-9.5-0.3-12.5,1.6
		c-2.9,1.8-5.1,4.6-6.2,7.8c-1,3-1,6.3,0,9.3c1.3,4.4,4,8.3,7.8,10.9H442c-1.8-1.3-3.4-2.9-4.7-4.7c-1.5-1.8-2.5-4-3.1-6.2
		c-0.8-3.6,0.6-4.4,0-7.8c-0.6-3.1-2.3-5.8-4.7-7.8c-3-2.4-6.4-2.7-10.9-3.1C416.5,84.1,414.4,84.1,412.3,84.3z"/>
	<path class="st12" d="M681.6,23.3c0.9-2.5,0.9-5.3,0-7.8c-2.4-6.4-10-7.6-10.9-7.8c-3.1-0.4-6.2,0.1-9,1.5s-5.1,3.6-6.6,6.3
		c-0.2,0.4-0.6,2.9-1.6,7.8v1.6c-0.4-0.6-1-1.1-1.6-1.6c-3.8-2.6-9.5-0.3-12.5,1.6c-2.9,1.8-5.1,4.6-6.2,7.8c-1,3-1,6.3,0,9.3
		c1.3,4.4,4,8.3,7.8,10.9h70.3c-1.8-1.3-3.4-2.9-4.7-4.7c-1.5-1.8-2.5-4-3.1-6.2c-0.8-3.6,0.6-4.4,0-7.8c-0.6-3.1-2.3-5.8-4.7-7.8
		c-3-2.4-6.4-2.7-10.9-3.1C685.8,23.2,683.7,23.2,681.6,23.3z"/>
	<path class="st12" d="M666.2,197.8c0.9-2.5,0.9-5.3,0-7.8c-2.4-6.4-10-7.6-10.9-7.8c-3.1-0.4-6.2,0.1-9,1.5
		c-2.8,1.4-5.1,3.6-6.6,6.3c-0.2,0.4-0.6,2.9-1.6,7.8v1.6c-0.4-0.6-1-1.1-1.6-1.6c-3.8-2.6-9.5-0.3-12.5,1.6
		c-2.9,1.8-5.1,4.6-6.2,7.8c-1,3-1,6.3,0,9.3c1.3,4.4,4,8.3,7.8,10.9h70.3c-1.8-1.3-3.4-2.9-4.7-4.7c-1.5-1.8-2.5-4-3.1-6.2
		c-0.8-3.6,0.6-4.4,0-7.8c-0.6-3.1-2.3-5.8-4.7-7.8c-3-2.4-6.4-2.7-10.9-3.1C670.4,197.6,668.3,197.6,666.2,197.8z"/>
	<path class="st12" d="M287.8,291.9c0.9-2.5,0.9-5.3,0-7.8c-2.4-6.4-10-7.6-10.9-7.8c-3.1-0.4-6.2,0.1-9,1.5
		c-2.8,1.4-5.1,3.6-6.6,6.3c-0.2,0.4-0.6,2.9-1.6,7.8v1.6c-0.4-0.6-1-1.1-1.6-1.6c-3.8-2.6-9.5-0.3-12.5,1.6
		c-2.9,1.8-5.1,4.6-6.2,7.8c-1,3-1,6.3,0,9.3c1.3,4.4,4,8.3,7.8,10.9h70.3c-1.8-1.3-3.4-2.9-4.7-4.7c-1.5-1.8-2.5-4-3.1-6.2
		c-0.8-3.6,0.6-4.4,0-7.8c-0.6-3.1-2.3-5.8-4.7-7.8c-3-2.4-6.4-2.7-10.9-3.1C291.9,291.7,289.8,291.7,287.8,291.9z"/>
	<path class="st12" d="M105,671c0.9-2.5,0.9-5.3,0-7.8c-2.4-6.4-10-7.6-10.9-7.8c-3.1-0.4-6.2,0.1-9,1.5c-2.8,1.4-5.1,3.6-6.6,6.3
		c-0.2,0.4-0.6,2.9-1.6,7.8v1.6c-0.4-0.6-1-1.1-1.6-1.6c-3.8-2.6-9.5-0.3-12.5,1.6c-2.9,1.8-5.1,4.6-6.2,7.8c-1,3-1,6.3,0,9.3
		c1.3,4.4,4,8.3,7.8,10.9h70.3c-1.8-1.3-3.4-2.9-4.7-4.7c-1.5-1.8-2.5-4-3.1-6.2c-0.8-3.6,0.6-4.4,0-7.8c-0.6-3.1-2.3-5.8-4.7-7.8
		c-3-2.4-6.4-2.7-10.9-3.1C109.2,670.8,107.1,670.8,105,671z"/>
	<path class="st12" d="M320.5,483.4c0.9-2.5,0.9-5.3,0-7.8c-2.4-6.4-10-7.6-10.9-7.8c-3.1-0.4-6.2,0.1-9,1.5
		c-2.8,1.4-5.1,3.6-6.6,6.3c-0.2,0.4-0.6,2.9-1.6,7.8v1.6c-0.4-0.6-1-1.1-1.6-1.6c-3.8-2.6-9.5-0.3-12.5,1.6
		c-2.9,1.8-5.1,4.6-6.2,7.8c-1,3-1,6.3,0,9.3c1.3,4.4,4,8.3,7.8,10.9h70.3c-1.8-1.3-3.4-2.9-4.7-4.7c-1.5-1.8-2.5-4-3.1-6.2
		c-0.8-3.6,0.6-4.4,0-7.8c-0.6-3.1-2.3-5.8-4.7-7.8c-3-2.4-6.4-2.7-10.9-3.1C324.7,483.2,322.6,483.2,320.5,483.4z"/>
	<path class="st12" d="M526.1,512.3c0.9-2.5,0.9-5.3,0-7.8c-2.4-6.4-10-7.6-10.9-7.8c-3.1-0.4-6.2,0.1-9,1.5
		c-2.8,1.4-5.1,3.6-6.6,6.3c-0.2,0.4-0.6,2.9-1.6,7.8v1.6c-0.4-0.6-1-1.1-1.6-1.6c-3.8-2.6-9.5-0.3-12.5,1.6
		c-2.9,1.8-5.1,4.6-6.2,7.8c-1,3-1,6.3,0,9.3c1.3,4.4,4,8.3,7.8,10.9h70.3c-1.8-1.3-3.4-2.9-4.7-4.7c-1.5-1.8-2.5-4-3.1-6.2
		c-0.8-3.6,0.6-4.4,0-7.8c-0.6-3.1-2.3-5.8-4.7-7.8c-3-2.4-6.4-2.7-10.9-3.1C530.2,512.1,528.1,512.1,526.1,512.3z"/>
	<path class="st12" d="M821.3,383.1c0.9-2.5,0.9-5.3,0-7.8c-2.4-6.4-10-7.6-10.9-7.8c-3.1-0.4-6.2,0.1-9,1.5s-5.1,3.6-6.6,6.3
		c-0.2,0.4-0.6,2.9-1.6,7.8v1.6c-0.4-0.6-1-1.1-1.6-1.6c-3.8-2.6-9.5-0.3-12.5,1.6c-2.9,1.8-5.1,4.6-6.2,7.8c-1,3-1,6.3,0,9.3
		c1.3,4.4,4,8.3,7.8,10.9H851c-1.8-1.3-3.4-2.9-4.7-4.7c-1.5-1.8-2.5-4-3.1-6.2c-0.8-3.6,0.6-4.4,0-7.8c-0.6-3.1-2.3-5.8-4.7-7.8
		c-3-2.4-6.4-2.7-10.9-3.1C825.5,382.9,823.4,382.9,821.3,383.1z"/>
	<path class="st12" d="M1154.4,595c0.9-2.5,0.9-5.3,0-7.8c-2.4-6.4-10-7.6-10.9-7.8c-3.1-0.4-6.2,0.1-9,1.5
		c-2.8,1.4-5.1,3.6-6.6,6.3c-0.2,0.4-0.6,2.9-1.6,7.8v1.6c-0.4-0.6-1-1.1-1.6-1.6c-3.8-2.6-9.5-0.3-12.5,1.6
		c-2.9,1.8-5.1,4.6-6.2,7.8c-1,3-1,6.3,0,9.3c1.3,4.4,4,8.3,7.8,10.9h70.3c-1.8-1.3-3.4-2.9-4.7-4.7c-1.5-1.8-2.5-4-3.1-6.2
		c-0.8-3.6,0.6-4.4,0-7.8c-0.6-3.1-2.3-5.8-4.7-7.8c-3-2.4-6.4-2.7-10.9-3.1C1158.5,594.8,1156.4,594.8,1154.4,595z"/>
</g>
<g id="" class="st50">
	<g class="st51">
		<rect x="236.5" y="322" class="st34" width="397.4" height="78.5"/>
		<text transform="matrix(1 0 0 1 255.8223 354.4056)"><tspan x="0" y="0" class="st53 st54">-...</tspan><tspan x="0" y="24" class="st53 st54">   ...</tspan></text>
		<g>
			<line class="st52" x1="610.3" y1="344.7" x2="625.5" y2="329.5"/>
			<line class="st52" x1="625.5" y1="344.7" x2="610.3" y2="329.5"/>
		</g>
	</g>
</g>
<g id="" class="st50">
</g>
<g id="">
</g>
</svg>
