<?xml version="1.0" encoding="utf-8"?>
<!-- Generator: Adobe Illustrator 25.0.1, SVG Export Plug-In . SVG Version: 6.00 Build 0)  -->
<svg version="1.1" xmlns="http://www.w3.org/2000/svg" xmlns:xlink="http://www.w3.org/1999/xlink" x="0px" y="0px"
	 viewBox="0 0 1280 720" style="enable-background:new 0 0 1280 720;" xml:space="preserve">
<style type="text/css">
	.st0{fill:#F7EFE2;}
	.st1{fill:none;stroke:#FF0020;stroke-width:16;stroke-miterlimit:10;stroke-dasharray:30.47,20.31;}
	.st2{fill:none;stroke:#FF81E7;stroke-width:16;stroke-miterlimit:10;stroke-dasharray:30.47,20.31;}
	.st3{fill:none;stroke:#00FFA9;stroke-width:16;stroke-miterlimit:10;stroke-dasharray:29.94,19.96;}
	.st4{fill:#D8E5A5;}
	.st5{fill:#A8E0A1;}
	.st6{fill:#FFF3AE;}
	.st7{fill:#6000FF;}
	.st8{fill:#FF81E7;}
	.st9{fill:#FFFFFF;stroke:#FFFFFF;stroke-width:2;stroke-miterlimit:10;}
	.st10{fill:#0097DD;}
	.st11{fill:#FF76EB;}
	.st12{fill:#FFFFFF;}
	.st13{stroke:#000000;stroke-miterlimit:10;}
	.st14{fill:#FB6700;}
	.st15{fill:none;stroke:#FF0020;stroke-width:16;stroke-miterlimit:10;}
	.st16{fill:none;stroke:#FF0020;stroke-width:16;stroke-miterlimit:10;stroke-dasharray:29.82,19.88;}
	.st17{fill:none;stroke:#FF0020;stroke-width:16;stroke-miterlimit:10;stroke-dasharray:29.73,19.82;}
	.st18{fill:#6DFC6D;}
	.st19{fill:#00FFA9;}
	.st20{fill:#754C24;}
	.st21{fill:#FF0020;}
	.st22{fill:#FDFF00;}
	.st23{fill:#EB7000;}
	.st24{fill:none;}
	.st25{fill:#231F20;}
	.st26{fill:#FF00BD;stroke:#FF00BD;stroke-width:0.5;stroke-miterlimit:10;}
	.st27{opacity:0.59;}
	.st28{fill:none;stroke:#F7EFE2;stroke-width:50;stroke-miterlimit:10;}
	.st29{fill:none;stroke:#00FFA9;stroke-width:50;stroke-miterlimit:10;}
	.st30{fill:#F0ED00;}
	.st31{fill:none;stroke:#000000;stroke-miterlimit:10;}
	.st32{fill:#01140D;}
	.st33{fill:#F9C6CA;}
	.st34{fill:#FFFFFF;stroke:#000000;stroke-width:2;stroke-miterlimit:10;}
	.st35{stroke:#000000;stroke-width:0.25;stroke-miterlimit:10;}
	.st36{fill:#FFD400;}
	.st37{fill:#B9FCF7;}
	.st38{fill:#55FFEE;}
	.st39{fill:#FFFFFF;stroke:#FFFFFF;stroke-miterlimit:10;}
	.st40{fill:none;stroke:#00FFA9;stroke-width:2;stroke-miterlimit:10;}
	.st41{fill:#00FFA9;stroke:#00FFA9;stroke-width:2;stroke-miterlimit:10;}
	.st42{fill:#8E5F53;}
	.st43{fill:#634137;}
	.st44{fill:#F6A9CB;}
	.st45{fill:none;stroke:#6000FF;stroke-miterlimit:10;}
	.st46{fill:none;stroke:#F0ED00;stroke-miterlimit:10;}
	.st47{fill:none;stroke:#F0ED00;stroke-width:2;stroke-miterlimit:10;}
	.st48{fill:#A5A5A5;}
	.st49{fill:#7C7C7C;}
	.st50{display:none;}
	.st51{display:inline;}
	.st52{fill:none;stroke:#000000;stroke-width:2;stroke-miterlimit:10;}
	.st53{display:inline;fill:#FFFFFF;stroke:#231F20;stroke-width:2;stroke-miterlimit:10;}
	.st54{display:inline;opacity:0.12;fill:#0097DD;}
	.st55{display:inline;opacity:0.12;fill:#FF76EB;}
	.st56{display:inline;fill:#FF0020;}
	.st57{display:inline;fill:#6000FF;}
	.st58{display:inline;fill:#FF76EB;}
	.st59{display:inline;fill:#FDFF00;}
	.st60{display:inline;fill:#FB6700;}
	.st61{display:inline;fill:#FFFFFF;}
	.st62{display:inline;stroke:#000000;stroke-miterlimit:10;}
	.st63{display:inline;fill:#FFD400;}
	.st64{display:inline;fill:#EB7000;}
	.st65{display:inline;fill:#231F20;}
	.st66{display:inline;fill:#00FFA9;}
	.st67{display:inline;opacity:0.35;fill:#0097DD;}
	.st68{display:inline;opacity:0.35;}
	.st69{display:inline;opacity:0.35;fill:#0097DD;stroke:#0097DD;stroke-width:3;stroke-miterlimit:10;}
	.st70{fill:none;stroke:#000000;stroke-width:3;stroke-miterlimit:10;}
	.st71{fill:#606060;}
</style>
<g id="Layer_5">
	<rect x="-2572.9" y="-23.3" class="st0" width="3863.3" height="2193"/>
</g>
<g id="Layer_9">
	<path class="st3" d="M-34.7,774.3c31.3-31.8,71.2-89.1,127.9-32c88.6,89.1,218,25.8,289.9,85.3c99.8,82.6,199.2,53.1,273.2,45.3
		c42.9-4.5,151,3.8,209.4,57.4c54.9,50.3,95.4,87.3,194.8,65.2c67.2-14.9,98.8,27.1,121.2,29.2c42.6,4.2,85,0.8,125.2-10"/>
</g>
<g id="Layer_11">
	<path class="st5" d="M611.4,696.3H-75.4c-27.9,0-50.5-22.6-50.5-50.5V253c0-27.9,22.6-50.5,50.5-50.5h686.8
		c27.9,0,50.5,22.6,50.5,50.5v392.8C661.9,673.7,639.3,696.3,611.4,696.3z"/>
	<path class="st6" d="M415.7,346.9l272,471.1c18.5,32,64.7,32,83.1,0l272-471.1c18.5-32-4.6-72-41.6-72l-544,0
		C420.3,274.9,397.2,314.9,415.7,346.9z"/>
	<path class="st10" d="M1328.4,998.6c-29.7,13.7-63.4,1.8-130.9-21.9c-18.1-6.4-93.9-34.1-186.3-107.7
		c-77.9-62.1-74.8-82.8-122.4-98.6c-66.7-22.2-114.1,4.9-133.3-23.7c-17.7-26.4,6.8-73.2,23.7-95c6.3-8.1,35.8-43.8,78.5-45.7
		c30.5-1.3,38.3-17,45.7-28.7c18.4-29.1-3.3-68.6,27.3-110.1c47.3-64.1,292.5-37,405.4,118.7
		C1441.4,730.6,1412.6,959.8,1328.4,998.6z"/>
	<path class="st8" d="M433.9,648.9H281c-10.7,0-20.6,5.7-26,15l-76.5,132.5c-5.4,9.3-5.4,20.7,0,30l76.5,132.5
		c5.4,9.3,15.3,15,26,15h153c10.7,0,20.6-5.7,26-15l76.5-132.5c5.4-9.3,5.4-20.7,0-30l-76.5-132.5
		C454.6,654.6,444.6,648.9,433.9,648.9z"/>
	<path class="st8" d="M140.1,423.2c42.3-39,52.1-43.5,67.6-58.9c42.2-41.9,90.4-129.5,58.9-200.6c-15-33.8-49.7-67.6-93.8-76.3
		c-18.7-3.7-34.9-2.1-45.8,0c23.9-20.7,45.7-25,56.7-26.2c52.6-5.4,109.5,36.9,137.4,106.8c5.5-16.2,12.2-30.7,19.6-43.6
		C418.8-11.4,606.6-30.9,656.8-34.6C619.2-18.1,565.6,11,512.9,61.3c-73.2,69.9-108.1,146-124.3,189.7c11.7,9.4,22.6,13.4,30.5,15.3
		c35.4,8.3,75.7-11.1,104.7-48c-0.3,12.6-3,49.3-30.5,78.5c-34.1,36.3-92.5,46.2-146.1,24c-17.5,24.2-37.1,49.1-58.9,74.1
		C218,475.8,144.2,536.1,78.6,580.6c0.4-32.8,0.7-65.6,1.1-98.3C93.3,468.2,113.9,447.4,140.1,423.2z"/>
</g>
<g id="Layer_1">
	<g>
		<path class="st11" d="M1364.2,331.5c-4.7-3.3-8.1-5.2-13.2-7.4c2.5,7,4.3,15.2,5.1,24.6c0.9,18.3,1,33.2,0.9,43.4
			c-0.4,36.4-3.4,53.2,2.7,78.8c2.6,10.6,5.8,19.1,8.1,24.4c-15.6,3.7-33.7,6.5-37.1,0c-2.9-5.5,6.4-14.6,11.8-22.6
			c26.2-39.1-1.4-110.3-10.9-109.5c-6.2,0.5-11,32.2-10.9,134c-11.7,3.2-26.1,5.8-29.9,0c-4.1-6.3,6.3-19.4,10.9-26.2
			c11.7-17.6,20.9-48.6,7.2-106.8l-68.8,0c-3.5,33-4,70.6,1.8,111.3c1,7.4,2.3,14.7,3.6,21.7c-12.7,3.2-27.4,5.6-30.8,0
			c-3.3-5.6,6.2-16.5,10-21.7c11.5-16.1,16.7-46.9-10-111.3c-20.1,59.1-16.6,90.6-9.1,108.6c2.1,5,7.9,17.1,2.7,24.4
			c-6.4,9.1-27.9,8.4-31.7,0.9c-3-6.1,6.8-14.3,12.7-24.4c14-24.3,1-41.2-3.6-107.7c-2.1-29.5-0.2-35.3-3.6-66.1
			c-1.4-12.1-3-22.5-6.3-43.4c-4.9-31.2-7.4-46.8-11.8-64.3c-4.4-17.6-8.6-28.9-14.5-47.1c-14.5-44.4-3.6-10.9-14.5-44.4
			c-1.2-3.9-4-10-8.1-11.8c-7.1-3.1-18.8,7.3-35.3,14.5c-11.8,5.2-23.8,10.4-28.1,6.3c-6.2-5.9,5.4-30.8,20.8-46.2
			c9.8-9.8,19.1-13.7,24.4-15.4c4.1-1.3,9.1-3,14.3-3c-0.2-11.4-0.5-22.7-0.7-34.1c4.5,0.6,9.1,1.2,13.6,1.8c-2,9.3-4,18.5-6,27.8
			c6.1-5.9,16-11.6,28.7-16.1c1,3.9,2.4,12-0.9,20.8c-2.2,5.8-6.7,13-12.3,17c1.4,3.1,2.4,6,3.3,8.4c9.9,26.8,11,24.6,33.5,68.8
			c27.2,53.4,46.6,104.1,51.6,123.1c9.2,0.5,22.9,2.2,38,8.1c21.7,8.5,53.1,20.3,66.1,32.6c3.1,3,5.8,6.4,8.2,10.4
			c1.2,0.4,2.4,0.9,3.6,1.4c26.6,11.4,38.8,37.1,43.4,48.9C1384.1,354.1,1378.7,341.4,1364.2,331.5z"/>
		<g>
			<path class="st12" d="M1118.5,58.5c-3-4.6-12.7-4.5-16.2,0.7c-1.9,2.8-2.1,7.3,0.5,10.5c1,1.2,1.9,1.8,3.1,2.4
				c1,0.4,2,0.7,3.1,0.8c1.4,0.1,2.8-0.1,4.1-0.5C1118.6,70.4,1121.2,62.6,1118.5,58.5z"/>
			<path class="st13" d="M1114.2,71.5c0.7-2.5-0.8-6.1-3.9-8.6c-3.1-2.5-6.8-3.2-9.1-2c-1,3.7-0.6,8.3,3.1,10.4
				c0.1,0,0.4,0.2,0.4,0.3c0.4,0.3,0.6,0.3,1,0.5c0.8,0.5,1.9,0.7,2.8,0.8c1.1,0.1,2.5,0,3.7-0.3c0.4-0.1,0.8-0.3,1.2-0.4
				C1113.7,71.9,1114.1,71.6,1114.2,71.5z"/>
		</g>
	</g>
	<g>
		<g>
		</g>
	</g>
	<path class="st10" d="M9.6,522.5h-416.8c-28.4,0-51.5-23.1-51.5-51.5v-176c0-28.4,23.1-51.5,51.5-51.5H9.6
		c28.4,0,51.5,23.1,51.5,51.5v176C61,499.5,38,522.5,9.6,522.5z"/>
	<path class="st4" d="M66.2,717h-587.8c-37,0-67-30-67-67V504.9c0-37,30-67,67-67H66.2c37,0,67,30,67,67V650
		C133.2,687,103.2,717,66.2,717z"/>
	<g id="Layer_8">
	</g>
	<g>
		<path class="st4" d="M840.4,199c-3.2,1.3-6.1,3.3-8.6,5.7c-2.4,2.5-4.4,5.4-5.7,8.6c-1.3,3.2-2,6.6-2,10.1v22.8
			c0,7,2.8,13.7,7.7,18.6c4.9,4.9,11.6,7.7,18.6,7.7h102.6c7,0,13.7,2.8,18.6,7.7c4.9,4.9,7.7,11.6,7.7,18.6v400.4
			c0,7,2.8,13.7,7.7,18.6c4.9,4.9,11.6,7.7,18.6,7.7h267.8c7,0,13.7-2.8,18.6-7.7c4.9-4.9,7.7-11.6,7.7-18.6V479.9
			c0-7-2.8-13.7-7.7-18.6c-4.9-4.9-11.6-7.7-18.6-7.7H1144c-7,0-13.7-2.8-18.6-7.7c-4.9-4.9-7.7-11.6-7.7-18.6V223.4
			c0-7-2.8-13.7-7.7-18.6c-4.9-4.9-11.6-7.7-18.6-7.7H850.5C847,197,843.6,197.7,840.4,199z M962,201.7c17.1-0.7,34.2-1.4,51.3-1.4
			C996.2,200.2,979.1,201,962,201.7z"/>
		<path class="st21" d="M1017.5,309.4v5c45.9,2.2,57.6,0,58.1-3c0.2-1.1-1-4.1-2-6c-1.3-2.4-2.1-2.8-4-6c-1.3-2.2-1.9-3.4-2-5
			c-0.2-2.2,0.8-3.8,2-6l0.1-0.1h0.1c0.4,0,0.8-0.1,1.1-0.1l0.4-0.1c0.3,0,0.6-0.1,0.9-0.2c3.1-0.9,6-2.5,8.4-4.6
			c2.4-2.2,4.3-4.9,5.5-7.9c0.7-0.5,1.5-1.2,2.7-2c1.6-1.1,3.3-2.1,5-3c3.6-2,4.2-1.9,5-3c1.5-2,1.2-4.6,1-6c-0.1-0.7-0.7-6-4-7
			c-1-0.3-2-0.3-3,0c-0.7,0.3-1.4,0.6-2,1c-1,0.4-2,0.8-3,1c0,0-1.4,0.3-3.3,1c-2-2.9-4.7-5.3-7.7-7c-4.3-2.2-9.3-2.9-14-2
			c-3.3,0.6-6.3,2-9,4c1.4,1.6,2.8,3.3,4,5c-0.1,0-3-4.8-7-5c-3.1-0.1-5.7,2.7-6,3c-0.7,0.7-1.3,1.7-1.7,2.6c-0.4,1-0.5,2-0.4,3.1
			c0.1,1,0.4,2.1,0.9,3c0.5,0.9,1.2,1.7,2.1,2.3c0.6,0.4,1.2,0.8,1.9,1h-0.9c-0.2,1.3-0.2,2.7,0,4c0.2,1.1,0.5,2.2,0.9,3.3l-0.9-1.3
			c0.2,1.7-0.1,3.5-1,5c-1.3,2.1-3.5,2.6-7,4c-3.8,1.5-7.1,2.8-10,5c-2.7,2.1-4.1,4.4-7,9c-3.3,5.3-3.9,8.2-4,10
			C1017.5,307.4,1017.5,308.4,1017.5,309.4z"/>
		<path class="st25" d="M1096.9,257.9c-0.7,0-1.5-0.1-2.2-0.2c-0.7-0.2-1.3-0.6-1.8-1.1c-0.2-0.2-0.4-0.4-0.5-0.7
			c-0.1-0.2-0.1-0.5,0-0.7s0.3-0.4,0.5-0.6c0.5-0.2,1-0.3,1.6-0.1c0.7,0.2,1.5,0.4,2.1,0.8c0.2,0.1,0.4,0.4,0.5,0.7s0,0.6-0.1,0.8
			c-0.1,0.2-0.4,0.4-0.6,0.5c-0.3,0.1-0.6,0-0.8-0.1l-0.3-0.1l0.3,0.1c-0.6-0.3-1.2-0.5-1.8-0.6h0.3c-0.1,0-0.3,0-0.4,0h0.3h-0.1
			l0.3-0.1l0.2-0.2l0.3-0.5v-0.5l-0.1-0.3c-0.1-0.1-0.1-0.1-0.2-0.2c0.1,0.2,0.3,0.3,0.5,0.5l-0.2-0.2c0.2,0.2,0.5,0.3,0.7,0.4
			l-0.3-0.1c0.2,0.1,0.5,0.2,0.8,0.2h-0.3c0.5,0.1,1,0.1,1.4,0.1c0.3,0,0.6,0.1,0.8,0.3c0.1,0.2,0.2,0.3,0.3,0.5
			c0,0.2,0,0.4-0.1,0.6c-0.1,0.2-0.2,0.4-0.4,0.5C1097.4,257.8,1097.2,257.9,1096.9,257.9L1096.9,257.9z"/>
		<path class="st10" d="M964.5,272.9c1.6-1.2,3.2-2.4,4.7-3.8c8.8-7.9,8.2-12.1,15.1-15c14.4-6,32.4,5.5,41.8,18.1
			c15.5,20.8,10.5,47.9,9.7,52l-52.2,1.3C982.7,306.2,979.9,285.7,964.5,272.9z"/>
		<path class="st12" d="M989.8,269.9c1.4-3-1.7-7.9-5.5-8c-1.1,0-2.2,0.3-3.2,1c-0.9,0.6-1.6,1.6-2,2.6c-0.3,0.7-0.3,1.5-0.2,2.3
			c0.1,0.6,0.3,1.2,0.6,1.8c0.4,0.7,0.9,1.4,1.6,1.9C983.8,273.8,988.5,272.6,989.8,269.9z"/>
		<path class="st13" d="M981.8,271.9c1.5-0.4,2.9-2.3,3.1-4.7c0.3-2.4-0.5-4.5-1.9-5.3c-2.2,0.7-4.5,2.3-4.3,4.9v0.3
			c0,0.2,0,0.4,0,0.6c0,0.6,0.2,1.2,0.5,1.7c0.3,0.7,0.8,1.3,1.4,1.8c0.2,0.1,0.4,0.3,0.6,0.5C981.4,271.7,981.6,271.8,981.8,271.9z
			"/>
		<path class="st18" d="M978.7,324.8c0.2-9.2,0.6-18,1.2-24c0-0.3,0.1-0.6,0.1-1c0.9,2.8,2.1,2,0.7-2.8c3.2,2.1,3.8,0.2,1.7-8.6
			c3.7,6.8,5.1,7.3,5.3-9.1c2.3,15.3,3.4,13.9,5.8,1.1c-0.1,7.1,1,2.9,2.2-3.3c0,8.2,0.3,12.2,1.7,10.9c0,2.8,1.1,0.4,2.7-4.2
			c-1.3,8.1-0.7,7.8,1,2.6c-0.9,4.7-0.1,4.4,1.1,3c0.2,0.7,0.9,0.5,0.6-1.3c1.6,1.2,2.1,1,0.7-4.1c2.3,3.9,2.7,3,1.1-4.4
			c2.6,7.1,3.1,7.6,1.4-4.1c2.6,10.8,3,9.3,1.7-3.5c1.9,12.6,2.1,13.8,1.1-1.4c1.7,15,1.9,13.5,1.4-1.3c1.1,14.6,1.5,15.8,2.1-0.7
			c0.5,16.7,1.1,15.5,2.9,1.2c-0.5,13.9,0.2,14.6,3.1,4.6c-0.2,1.6-0.4,2.8-0.6,3.9c-0.8,3.7-0.9,4.8-0.5,3.6c0,0.7,0,0.8,0.3,0.3
			c0.1,0.1,0.4-0.2,0.7-1c-0.1,1.6,0.1,2.1,0.5,1.8c0.1,0.2,0.3,0.2,0.5,0c-0.8,1.1-0.4,0.8,0.6-0.7c0.2-0.3,0.4-0.6,0.7-1
			c0.3,0.8,0.7,0.9,0.8,0.6c0.2-0.6-0.3-2.6-1.7-6.7c1.5,2.6,2.7,4.3,3.6,4.7c1.8,0.8,2.5-3.6,2.7-16.3c0.3,4.2,0.9,8.4,1.8,12.6
			c0.6,2.2,1.2,2.5,2,1s1.7-4.6,2.9-9.3c-0.7,5.7-1,9-1.4,8.6c-0.1-0.2-0.2-0.4-0.3-0.7c0,0.3,0.1,0.5,0.3,0.7
			c0.7,1.7,1.4,1.8,1.9,0c0,0.1,0.1,0.1,0.1,0.2c1.1,2.8,1.5,0.2,1.6-8.7c-0.1,13.3,0.8,13.2,1.3-0.9c1,9.1,1.7,12.1,2.5,9
			c0.2,1.1,0.6,1.6,1,1.4c0.1,0,0.2,0,0.2-0.1c0,0.1,0.1,0.2,0.2,0.3c0.1,0.1,0.2,0.1,0.3,0.1c0.1,0,0.2,0,0.3,0
			c0.1,0,0.2-0.1,0.3-0.2c0.5,0.6,1.3-0.6,2.3-3.4c0.1-0.3,0.2-0.6,0.4-1c0.1-0.3,0.3-0.8,0.5-1.3c-0.2,4.9,0.4,4.2,1.1,0.7
			c0-0.4,0.2-2.3,0.3-4.7c0.2-2.4,0.3-5.4,0.4-9c1.6,21.6,3,21.7,8.1,9.7c-0.1,0.4-0.1,0.8-0.2,1.3c-3.8,9.9-3.8,10.4-0.3,2
			c-0.8,3.9-0.9,6-0.4,7.2c0.1,0.3,0.3,0.6,0.7,0.8c0,0.1,0.1,0.2,0.2,0.2c0.1,0,0.2,0.1,0.3,0c0.4,0.2,1.1-0.2,1.2-2.1
			c-0.1,1.7-0.3,2.2-0.5,2.3l-0.2-0.1c0,0.1,0.1,0.1,0.2,0.1c0.4,0.3,0.9,0,0.5-2.1c1.1,1.6,1.8,2.1,1.8,0.9c0.1,0,0.1,0,0.2,0
			c0.1,0,0.1,0,0.2-0.1c0.4,0.2,0.8,0.1,1.1-0.6c0.9,0.9,1.2-0.4,0.6-4.9c0-1.7,0-3.9,0-6.7c2.2,14.3,2.5,14.3,0.4-0.8
			c3.1,15.3,4,15.4,5-3.9c0.5,6.5,1.1,10.9,0.5,12.5c0.6,1.3,1.2,2.2,1.5,2.9c-0.5-0.2-0.9-0.4-1.3-0.6l1,1l-0.5-0.3
			c2.5,1.9,4.3,3.1,5.6,4s2.1,1.3,1.1-1.2c2.1,3.1,2.4,3.2,0.4-1.5c2.6,4.8,2.8,4.9,0.5-2.1c3.4,7.2,4.2,7.4,2.5-6.9
			c2.7,9.5,4.5,13.2,7,11.7c0,0,0.1,0,0.1,0c0.1,0.2,0.3,0.3,0.5,0.4c0.2,0.1,0.4,0,0.6,0c0.1,0.4,0.3,0.5,0.5,0.3
			c0.2,0.7,0.5,0.8,1,0.4c0.8-0.7,2-2.8,3.7-6c-1.9,5-2.7,7.5-2.7,7.5c0.1,0.4,0.5,0.3,1-0.5c0,0.1,0.1,0.3,0.1,0.4
			c0.6,1.9,1.3,1.6,2-1.8c0.4,3,0.5,3.6,0.5,2c0.9,4.1,1.3,2.8,1.2-5.3c1.5,10.7,2.1,10.9,3-0.7c0.4,12.2,1.1,12.4,3,2.3
			c-0.4,5.3-0.4,8.2,0,8.7c0.4,0.6,1.1-1.1,2.2-4.7c-0.4,2.1-0.5,4.3-0.5,6.4c0.3,0.5,0.8,0.1,0.8-1.3c0.1,0.3,0.3,0.6,0.4,0.9
			c0,0.4,0,0.7-0.2,1.1h-0.1h0.1c0,0-0.1,0.1-0.1,0.1l-0.2-0.1l0.1,0.1c-0.1,0-0.1,0.1-0.2,0.1c-0.1,0-0.2,0-0.2,0
			c0.4,0.3,0.8,0.4,1,0.2c0.4,0.3,0.8,0.4,1.3,0.4c0.3,0.1,0.5,0,0.5-0.3c0.1-0.1,0.1-0.1,0.2-0.2c0.1,0,0.3,0,0.4-0.1
			c0.1-0.1,0.2-0.2,0.2-0.3c0.2-0.4,0.3-0.8,0.4-1.2c1.4,2.8,1.4,2.6,0-0.8c-0.1-1.8-0.3-3.6-0.6-5.3c4.4,10.9,5.5,11.7,6.2-8.6
			c1.7,21.8,2.9,22.6,8.7,12.5c-0.7,2.6-1.2,5.2-1.4,7.8c-1.6,2.5-1.6,2.7-0.1,1.1c-0.1,0.9,0.1,1.8,0.3,2.7
			c0.1,0.4,0.3,0.8,0.6,1.1c0,0.1,0.1,0.2,0.1,0.3c0,0.4,4.6-11.6,6-0.2c-0.9,10.7-0.3,21.4-0.7,32.1c-0.9,22.7-7.4,46.4-5,69.1
			c0.5,5.4,2.1,10.6,4.9,15.3c2.7,4.7,6.4,8.7,10.8,11.8c15,12.4,33.3,26.3,52.7,28.5c1.1,5.3,1.8,3.8-1.3,3.9
			c-57.4,2.7-136.9-12.6-205.3-22c-1.3-28.9,1.5-54.8,0-83.8C978.6,346.9,978.5,335.5,978.7,324.8"/>
		<path class="st5" d="M979.1,654.8c0,27.1-0.7,34.9,4.2,54.1c0.1,0.5,0.3,1.1,0.6,1.5c0,0,0,0,0,0.1c0.4,0.8,1,1.5,1.7,2
			c0.7,0.5,1.5,0.9,2.4,1.2c0.9,0.2,1.8,0.2,2.7,0.1c0.9-0.2,1.7-0.5,2.5-1l304-201.4c0.8-0.5,1.5-1.2,2-2.1
			c0.5-0.8,0.8-1.8,0.9-2.7c1.5-17,1.1-34.4-5-42.7c-2-3.6-5.8-6.1-9.1-8.5c-2.7-1.4-5.5-2.4-8.5-3c-6-0.4-14.4-2.1-21.3-2.1
			c-2.9,0-14.4-0.5-18.2-0.5c-1.2-0.1-2.2-0.2-2.9-0.3c-17-0.5-33.9-3.4-50.1-8.6c-5.7-2.1-11.4-2.8-16.4-5
			c-36-13.7-42.3-53.8-45.2-91.5c0-0.4,0-0.4,0-1.1c-0.3-2.9-0.1-5.9-1.3-8.6c-2.7-5.6-6-7.5-10-4.8l-128.3,85
			c-1.7,1.1-5.2,3.2-5.3,5.2c-1.3,25.8,1.9,50.3,0.7,76.2c-0.7,6.4,2.1,22.8,0.7,29.2c-0.7,31.3,3,40.5-0.7,69.8c0,0.3,0,9.7,0,10
			c0,10.9,0.6,22.7,0.7,33.6c0,0.3,0,0.6,0,0.9C980.3,642.9,978.4,652.3,979.1,654.8z"/>
		<path class="st18" d="M1082.1,534.8c0-0.2-0.1-0.4-0.2-0.6c-0.1-0.2-0.3-0.3-0.5-0.4c1.2-0.8,1.4-1.4,0.3-2.5
			c1.6,0.2,1.8-0.1,0.6-1.2c1.4,0.6,1.5,0.3,0.6-0.7c0.9,0.3,1.4,0.2,1.4-0.2c0,0,0.1-0.1,0.1-0.1c0,0,0-0.1,0-0.1
			c0-0.2,0-0.4,0-0.6c0.8,0.3,1,0,0.3-0.3c0.6-0.1,0.9-0.2,1-0.3s-0.2-0.3-0.9-0.5c1.5,0.1,1.6-0.1,0.3-0.9c1.6,0.5,1.8,0.4,0.3-0.6
			c1.8,0.7,1.8,0.5,0.4-0.6c1.8,1.2,2,1.1,0.6-0.7c1.4,1.2,1.7,1.3,0.7-0.5c0.7,0.7,1.1,1.1,1.3,0.9s0.1-0.2,0-0.4
			c0-0.2-0.1-0.5-0.2-0.7h0.2c0,0,0.1,0.1,0.1,0.1h-0.1h0.1c0.1,0.1,0.1,0.2,0.1,0.3c0,0,0,0.1,0,0.1h-0.1h0.1h0.1l-0.1,0.1h0.1
			l-0.1,0.1h-0.1h0.1h0.1l-0.2,0.1l0.2-0.1h-0.1h0.1l-0.1,0.1h0.1l-0.1,0.1h0.1c0,0-0.1,0.1-0.1,0.1h-0.1c0.2-0.1,0.3-0.2,0.4-0.2
			l-0.4,0.2l0.4-0.2l-0.3,0.1l0.2-0.1l-0.4,0.3l0.5-0.3l-0.3,0.2l0.2-0.1l-0.2,0.1h0.1l-0.2,0.1l0.2-0.1h-0.1h0.1l-0.2,0.1l0.1-0.1
			l-0.1,0.1l0.2-0.1l-0.2,0.1l0.2-0.1l0.1-0.1c0.1-0.1,0.3-0.2,0.4-0.2l0.1-0.1l-0.7,0.5l0.6-0.3l-0.1,0.1l-0.4,0.2h0.1l-0.2,0.1
			l0.4-0.3l-0.4,0.3c1.1-0.6,1.6-1,0.7-0.5c0.3-0.2,0.4-0.3,0-0.1l0.1-0.1c0.3-0.2,0.4-0.3,0.3-0.3l0.1-0.1c0.1-0.1,0.2-0.2,0.2-0.3
			l0.3-0.1c0.3-0.1,0.4-0.3,0.2-0.4c0-0.1-0.1-0.1-0.1-0.2c0.3,0,0.5,0,0.4,0s0,0-0.1-0.1c0.1-0.1,0-0.3-0.2-0.5
			c0.7,0.2,1.1,0.3,0.4-0.4c0.9,0.4,0.8,0.2,0.3-0.4c0.7,0.5,1,0.6,0.3-0.2c0.8,0.6,0.6,0.3,0.1-0.2c0.7,0.6,1.1,0.9,0.3-0.1
			c0.8,0.9,0.6,0.6,0-0.1c0.6,0.7,0.9,1,0.2,0c0.8,1,0.6,0.6,0.1-0.2c0.5,0.6,0.7,0.8,0.3-0.1c0.6,0.8,0.6,0.5,0.3-0.3
			c0.5,0.7,0.7,0.9,0.5-0.1c0.5,0.8,0.5,0.4,0.5-0.3c0.2,0.3,0.4,0.5,0.6,0.3c0,0.2,0.1,0.2,0.1,0.2c0-0.1,0.1-0.1,0.1-0.4
			c0.1,0.1,0.1,0.1,0.2,0.2c0.2,0.1,0.3,0,0.6-0.2l0.1-0.1c0.2,0,0.3,0,0.5-0.1h0.1l0.2-0.1c0,0.3,0.4,0.1,1.2-0.2
			c-0.6,0.4-1,0.7-0.9,0.6c0,0.2,0,0.3,0.2,0.3c0,0.1,0,0.1,0.2,0c0.2,0,0.4-0.1,0.6-0.2c-0.4,0.2-0.3,0.3,0,0.2
			c-0.2,0.2-0.2,0.2,0.4-0.1l-0.4,0.1l0.5-0.3c-0.2,0.4,0.3,0.2,0.3-0.3c0.4,0,0.5-0.3,0.4-0.6c0.2-0.1,0.1-0.5,0-0.9
			c0.9,0.3,1.7,0.4,1.6-0.5c1.3,0.9,1.8,0.7,2.1-0.8c0.7,0.7,1.2,0.2,1.8-0.6c0.1,0.4,0.3,0.7,0.6,0.6c0.1,0.5,0.4,0.6,0.7,0.3
			c0.4,0.4,1,0.2,0.3-0.2c1,0,1.6,0,1.8-0.2s-0.1-0.7-1-1.4c2.9,1.2,3.5,1.1,3.9-2.2c0.9,2.9,1.5,2.8,3.6,0.9
			c-0.4,0.8-0.4,1.1-0.2,1.2c0.2,0,0.4,0,0.5-0.1c0.2-0.1,0.3-0.2,0.3-0.4c0.5,0.4,1.1,0.3,0.3-0.4c1.7,0.3,2,0,0.9-1.3
			c1.9,1.1,2.6,1.1,2.8-1.4c1.2,2.3,1.8,2.1,3,0.2c-0.1,1.1,0.5,0.4,1.1-0.5c0,1.3,0.2,1.8,0.9,1.6c0,0.4,0.6,0.1,1.4-0.6
			c-0.7,1.2-0.4,1.2,0.5,0.4c-0.4,0.7,0,0.7,0.6,0.5c0.1,0.1,0.5,0.1,0.3-0.2c0.8,0.2,1.1,0.2,0.4-0.6c1.2,0.6,1.4,0.5,0.6-0.7
			c1.3,1.1,1.6,1.1,0.7-0.6c1.4,1.6,1.5,1.4,0.9-0.5c1,1.9,1.1,2.1,0.5-0.2c0.9,2.3,1,2,0.7-0.2c0.6,2.2,0.8,2.4,1.1-0.1
			c0.2,2.5,0.6,2.4,1.5,0.2c-0.2,2.1,0.1,2.2,1.6,0.7c-0.1,0.2-0.2,0.4-0.3,0.6c-0.4,0.6-0.5,0.7-0.2,0.5c0,0.1,0,0.1,0.1,0
			c0.1-0.1,0.2,0,0.4-0.1c-0.1,0.2,0,0.3,0.3,0.3c0.1,0,0.2,0,0.3,0c-0.4,0.2-0.2,0.1,0.3-0.1l0.4-0.1c0.1,0,0.1,0.1,0.2,0.1
			s0.1,0,0.2,0c0.1-0.1-0.2-0.4-0.9-1c0.6,0.3,1.2,0.6,1.9,0.7c0.9,0.1,1.3-0.5,1.4-2.5c0.2,0.7,0.5,1.3,1,1.9
			c0.1,0.2,0.3,0.3,0.5,0.3c0.2,0,0.4,0,0.5-0.1c0.6-0.4,1.1-0.9,1.5-1.4c-0.4,0.9-0.5,1.4-0.7,1.3c-0.1,0-0.1-0.1-0.2-0.1
			c0,0.1,0.1,0.1,0.2,0.1c0.1,0.1,0.3,0.2,0.5,0.2c0.2,0,0.4-0.1,0.5-0.2c0.5,0.4,0.8,0,0.8-1.3c0,2,0.4,2,0.7-0.1
			c0.5,1.4,0.9,1.8,1.3,1.4c0.1,0.1,0.1,0.1,0.2,0.2s0.2,0,0.3,0h0.1c0.2,0.1,0.4,0.1,0.5,0c0.3,0.1,0.7-0.1,1.2-0.5l0.2-0.1
			l0.3-0.2c-0.1,0.7,0.2,0.6,0.6,0.1c0-0.2,0.1-0.5,0.2-0.7c0.1-0.4,0.2-0.8,0.2-1.4c0.8,3.3,1.5,3.3,4.2,1.5c0,0.1-0.1,0.1-0.1,0.2
			c-1.9,1.5-2,1.6-0.1,0.3c-0.4,0.6-0.5,0.9-0.2,1.1c0.1,0.1,0.2,0.1,0.3,0.1c0.1,0,0.2,0,0.3,0c0.1,0,0.3,0,0.4,0s0.2-0.2,0.2-0.3
			c-0.1,0.3-0.2,0.3-0.3,0.3h-0.1c0,0,0.1,0,0.1,0c0.2,0,0.5,0,0.2-0.3c0.6,0.2,1,0.3,0.9,0.1h0.2c0.1,0,0.2,0,0.3,0
			c0.1,0,0.2-0.1,0.3-0.1c0.5,0.1,0.6-0.1,0.3-0.7c0-0.4,0-0.7,0-1.1c1.2,2.1,1.3,2.1,0.2-0.1c1.6,2.3,2.1,2.3,2.6-0.6
			c0.3,1,0.6,1.6,0.3,1.9l0.8,0.4l-0.7-0.1l0.5,0.1h-0.3c1.3,0.3,2.2,0.5,2.9,0.6c0.7,0.1,1.1,0.2,0.5-0.2c1.1,0.5,1.2,0.5,0.2-0.2
			c1.3,0.7,1.5,0.7,0.3-0.3c1.8,1.1,2.1,1.1,1.3-1.1c1.4,1.4,2.3,2,3.6,1.8c0.2,0.1,0.4,0.1,0.6,0.1c0,0,0.1,0,0.1,0
			c0,0,0.1,0,0.1,0c0.1,0.1,0.2,0.1,0.5,0.1c0.7-0.2,1.3-0.5,1.9-0.9c-1,0.8-1.4,1.1-1.4,1.1c0,0,0.2,0.1,0.5-0.1l0.1,0.1
			c0.3,0.3,0.7,0.2,1.1-0.3c0.2,0.4,0.3,0.5,0.3,0.3c0.5,0.6,0.7,0.4,0.6-0.8c0.8,1.6,1.1,1.6,1.6-0.1c0.2,1.8,0.5,1.9,1.6,0.3
			c-0.2,0.8-0.2,1.2,0,1.3c0.2,0.1,0.6-0.2,1.2-0.7c-0.2,0.6-0.3,0.9-0.2,1c0,0,0.1,0,0.1,0c0,0,0.1,0,0.1,0c0,0,0.1,0,0.1-0.1
			c0,0,0-0.1,0.1-0.1l0.2,0.1c0,0.1,0,0.1-0.1,0.2h-0.3c0.2,0,0.3,0,0.5,0c0.2,0,0.4,0.1,0.7,0.1c0.2,0,0.3,0,0.3,0h0.1
			c0.1,0,0.2,0,0.3-0.1c0,0,0.1,0,0.1-0.1c0,0,0.1-0.1,0.1-0.1c0.7,0.4,0.7,0.4,0-0.1c0-0.3-0.1-0.6-0.3-0.8
			c2.3,1.6,2.9,1.8,3.2-1.3c0.9,3.3,1.5,3.4,4.5,1.9c-0.3,0.3-0.6,0.7-0.7,1.2c-0.8,0.4-0.8,0.4,0,0.2c0,0.1,0,0.2,0,0.2
			c0,0.1,0.1,0.1,0.1,0.2c0.1,0.1,0.2,0.1,0.3,0.2c0,0.1,0.6,0.2,1.5,0.3c-0.5,0-1-0.1-1.5-0.3h0.1c0,0.1,0.4,0.2,1.1,0.3
			c0.1,0,0.2,0,0.3,0h0.1c0.1-0.1,0.2-0.3,0.3-0.5c0.2-0.4,0.3-0.8,0.3-1.2c1.2,2.6,1.9,2.8,4.4,1.4c-0.4,0.7-0.5,1.2-0.7,1.1
			l-0.1-0.1l0.1,0.1c0.7,0.8,1.3,0.7,1.6-0.9c-0.1,1.9,0.1,2,0.2,0c0.6,2.1,0.9,2.3,1.1-0.1c0.6,2.6,0.9,2.7,2.2,0.3
			c-0.7,2.6-0.3,2.7,1.7,1c-1.4,1.7-1.1,1.6,0.3,0.1c-0.8,1.2-0.8,1.5,0.1,1.2c-0.4,0.4-0.4,0.4,0.3,0c-0.2,0.6,0.1,0.6,0.8,0.4
			c-0.3,0.1-0.1-0.2,0.2-0.7c0,0.6,0.1,1.1,0.3,1.2c0.1,0.1,0.3-0.2,0.6-1c0.2,1.9,0.7,1.9,2.1,0.6c-0.8,1.5-0.7,1.9,0.8,0.7
			c-1.1,1.6-0.7,1.7,1,1c-1.1,1.1-0.6,1.3,0.4,0.6c-0.5,0.7-0.3,0.9,0.4,0.7c-0.3,0.1-0.2-0.2-0.2-0.8c0.4,0.8,0.8,1.3,1.1,1.3
			c0.3,0,0.5-0.5,0.7-1.6c0.7,2.4,1.2,2.1,2.3,0.2c-0.3,1.9-0.2,2.5,1.9,1.4c-1.5,2-1.2,2.2,1.1,1.8c-1.4,0.7-0.8,0.7,0.4,0.5
			c-0.8,0.7-0.9,1.1,0,1.1c-0.7,0.4-0.5,0.6,0.1,0c-0.2,0.6,0,0.4,0.3-0.2c0,0.3,0,0.5,0.1,0.8c0,0.1,0.1-0.1,0.2-0.7
			c0.1,1.2,0.3,0.8,0.5-0.1c0,1.2,0.1,1.8,0.7,0.3c-0.2,1.7,0.2,1.3,0.9,0.1c-0.2,1.1-0.2,1.8,1.2,0.9c-1.1,2-0.8,2.4,1.5,1.8
			c-1.2,1.1-0.5,1.2,0.6,1.2c-0.6,0.3-0.9,0.6-1,0.8c0,0.2,0.2,0.6,1,0.7l-0.6,0.2c0-0.1,0.1-0.2,0.1-0.3c-0.4,0.4-0.4,0.4-0.1,0.3
			c-0.3,0.7,0,0.9,1.1,0.6c-0.6,0.4-0.9,0.6-0.9,0.7c-5.9,0,8.2,7.1,2.2,7.2C1181.4,539.7,1121.5,535.4,1082.1,534.8z"/>
		<path class="st19" d="M1120.7,491.4c2.8,2.5,5.9,5.2,10.4,5.8c3.9,0.5,4.7-1.1,15.9-3.1c1.6-0.3,3.2-0.5,4.8-0.6
			c2.6-0.1,5.2,0,7.7,0.4c14,2.1,15.3,2,16.9,1.3c3.2-1.5,6.3-5,5.3-7.5c-0.9-2.5-5.6-2.8-6-2.8c2.5,0.1,9.8,0,15.3-5.2
			c3-2.8,6.5-8.2,4.8-11.1c-1.9-3.3-9.5-1.4-10.1-3.6c-0.5-1.9,4.6-3.3,4.9-6.8c0.3-3.5-4.3-7.1-8.3-8.3c-6.5-2.1-12.3,1.9-13.2,2.5
			c0-0.2-0.4-3.6-3.1-4.9c-2.7-1.3-6.1,0.4-7.6,2.8c-0.5,0.8-0.8,1.7-0.9,2.7c-0.4-1.7-1.3-3.3-2.5-4.5c-1.1-1-2.5-1.8-3.9-2.3
			c-1.5-0.5-3-0.6-4.5-0.4c-2.1,0.3-4,1.3-5.5,2.9c-1.5,1.5-2.4,3.5-2.7,5.6c-0.2,2.3,0.5,4.5,1.9,6.3c-1.4-1.6-3.1-2.8-5.1-3.6
			c-3-1.3-8.8-2.5-11.8,0.5c-3.5,3.6-1.2,10.9,1.7,14.9c1.2,1.7,2.7,3.2,4.5,4.3c-1.1-0.3-2.3-0.4-3.4-0.3c-4.8,0.2-10.6,3.2-11,7.2
			C1115,486.3,1117.7,488.6,1120.7,491.4z"/>
		<path class="st20" d="M1150.2,486.3h5.7V529h-5.7V486.3z"/>
		<path class="st19" d="M1153.4,490.6c-6.5,0-11.8-4.3-11.8-9.6c0-5.3,5.3-9.6,11.8-9.6c6.5,0,11.8,4.3,11.8,9.6
			C1165.1,486.2,1159.9,490.6,1153.4,490.6z"/>
		<path class="st21" d="M1276.5,703.6c-16.3-9.9-30-35.2-26.4-55.5c3.1-17.5,17.4-22.5,15.3-32.1c-2.3-10.1-20.1-12.7-29.4-12.5
			c-17.7,0.2-31.7,10.2-38.2,15c-18.4,13.4-20.8,24.9-30.6,24.1c-11-1-12.8-16-23.9-16.2c-8.6-0.1-15.3,8.7-24.2,20.2
			c-14,18.3-12.1,26.3-20.7,31c-14.3,7.9-29.2-9.3-34.5-1.9c-3.7,5.2,0.8,17.8,4.7,28.9c2.9,8.1,6.3,18.8,8.8,22.9
			c66.7,0.9,133.3-2.7,200-1.8c10.2-3.8,21.1-8.7,20.8-12.8C1297.8,708.7,1287.4,710.2,1276.5,703.6z"/>
		<path d="M1139.1,727.8c0.2-6,0.8-16,1.6-26c1.3-16.8,3.2-21.6,6.4-25.7c5-6.4,11.6-8.5,23.5-12.1c15.5-4.7,29-8.8,34.9-2.8
			c6.9,7-3.9,20,0,32.8c3.5,11.3,18.8,23.1,67.7,27.8c-4.2,1.6-8.4,3.1-12.5,4.6C1220.2,730.4,1179.7,726.7,1139.1,727.8z"/>
		<path class="st18" d="M839,266.9c1.4,0.1,1.6-0.1,0.6-1c1.2,0.5,1.3,0.3,0.5-0.6c0.8,0.2,1.2,0.2,1.2-0.2c0,0,0.1,0,0.1-0.1
			c0,0,0-0.1,0-0.1c0-0.2,0-0.3,0-0.5c0.7,0.2,0.9,0,0.3-0.2c0.5-0.1,0.8-0.1,0.9-0.3c0-0.1-0.2-0.2-0.7-0.4
			c1.3,0.1,1.4-0.1,0.2-0.7c1.4,0.4,1.6,0.3,0.2-0.5c1.6,0.6,1.6,0.4,0.4-0.5c1.6,1,1.7,0.9,0.5-0.6c1.3,1,1.5,1.1,0.6-0.4
			c0.6,0.6,1,0.9,1.1,0.8c0.1-0.1,0.1-0.2,0-0.4c0-0.2-0.1-0.4-0.2-0.6h0.1l0.1,0.1h-0.1h0.1c0,0.1,0.1,0.1,0.1,0.2c0,0,0,0.1,0,0.1
			h-0.1h0.1h0.2H845h0.1l-0.1,0.1h-0.1h0.1h0.1l-0.2,0.1l0.2-0.1H845h0.1H845h0.1l-0.1,0.1h0.1c0,0-0.1,0.1-0.1,0.1h-0.1
			c0.1-0.1,0.3-0.1,0.4-0.2l-0.4,0.2l0.4-0.2l-0.2,0.1l0.2-0.1c-0.1,0.1-0.2,0.2-0.4,0.2l0.4-0.2l-0.2,0.1l0.2-0.1l-0.2,0.1h0.1
			l-0.2,0.1l0.2-0.1l-0.2,0.1l0.1-0.1l-0.1,0.1l0.2-0.1l-0.2,0.1l0.2-0.1l0.1-0.1c0.1-0.1,0.2-0.1,0.3-0.2h0.1l-0.6,0.4l0.5-0.2
			l-0.1,0.1l-0.3,0.2h0.1l-0.2,0.1l0.4-0.2l-0.4,0.2c0.9-0.5,1.4-0.8,0.7-0.4c0.3-0.2,0.4-0.2,0-0.1c0.3-0.2,0.3-0.3,0.2-0.2
			l0.1-0.1c0.1-0.1,0.2-0.1,0.2-0.2l0.3-0.1c0.3-0.1,0.4-0.2,0.2-0.4c0-0.1-0.1-0.1-0.1-0.1c0.3,0,0.4,0,0.4,0c0,0,0,0-0.1-0.1
			c0.1-0.1,0-0.2-0.2-0.4c0.6,0.2,1,0.2,0.4-0.3c0.8,0.4,0.7,0.1,0.2-0.4c0.6,0.4,0.9,0.5,0.3-0.2c0.7,0.5,0.5,0.3,0.1-0.2
			c0.7,0.5,0.9,0.7,0.3-0.1c0.7,0.7,0.5,0.5,0-0.1c0.6,0.6,0.8,0.8,0.2,0c0.7,0.8,0.5,0.5,0.1-0.2c0.4,0.5,0.6,0.7,0.3-0.1
			c0.5,0.7,0.5,0.4,0.3-0.2c0.4,0.5,0.6,0.7,0.5-0.1c0.4,0.6,0.4,0.3,0.4-0.2c0.2,0.3,0.4,0.4,0.5,0.2c0,0.2,0,0.2,0.1,0.2
			c0.1,0,0.1-0.1,0.1-0.3c0,0,0,0.1,0.1,0.1c0,0,0.1,0,0.1,0c0.1,0.1,0.3,0,0.5-0.2c0,0,0.1,0,0.1-0.1c0.1,0,0.3,0,0.4-0.1h0.1h0.1
			l0.1-0.1c0,0.2,0.4,0.1,1.1-0.2c-0.5,0.4-0.8,0.6-0.8,0.5c0,0.2,0,0.2,0.2,0.2c0,0.1,0,0.1,0.2,0c0.2,0,0.4-0.1,0.5-0.1
			c-0.3,0.2-0.3,0.2,0,0.2c-0.2,0.1-0.2,0.1,0.4-0.1l-0.4,0.1l0.4-0.3c-0.2,0.3,0.3,0.1,0.3-0.2c0.4,0,0.5-0.2,0.3-0.5
			c0.2-0.1,0.1-0.4,0-0.7c0.8,0.2,1.5,0.3,1.4-0.4c1.1,0.7,1.6,0.6,1.8-0.6c0.6,0.6,1.1,0.1,1.5-0.5c0.1,0.3,0.3,0.6,0.5,0.5
			c0.1,0.4,0.3,0.4,0.6,0.2c0.4,0.3,0.9,0.2,0.2-0.1c0.8,0,1.4,0,1.5-0.2c0.1-0.2-0.1-0.5-0.8-1.2c2.5,1,3.1,0.9,3.4-1.8
			c0.8,2.4,1.3,2.3,3.1,0.8c-0.3,0.6-0.4,0.9-0.2,1c0.2,0,0.3,0,0.4-0.1c0.1-0.1,0.2-0.2,0.3-0.3c0.4,0.4,1,0.2,0.3-0.3
			c1.5,0.3,1.7,0,0.8-1.1c1.7,0.8,2.3,0.9,2.4-1.1c1.1,1.9,1.6,1.7,2.6,0.1c-0.1,0.9,0.4,0.4,1-0.4c0,1,0.1,1.5,0.8,1.3
			c0,0.3,0.5,0,1.2-0.5c-0.6,1-0.3,1,0.4,0.3c-0.4,0.6,0,0.5,0.5,0.4c0.1,0.1,0.4,0.1,0.2-0.1c0.7,0.1,1,0.1,0.3-0.5
			c1.1,0.5,1.2,0.4,0.5-0.5c1.2,0.9,1.4,0.9,0.6-0.5c1.2,1.3,1.3,1.1,0.8-0.4c0.8,1.6,1,1.7,0.5-0.2c0.8,1.8,0.9,1.7,0.7-0.2
			c0.5,1.8,0.7,2,1-0.1c0.2,2.1,0.5,1.9,1.3,0.1c-0.2,1.7,0.1,1.8,1.4,0.6c-0.1,0.2-0.2,0.3-0.2,0.5c-0.4,0.4-0.4,0.6-0.2,0.4
			c0,0.1,0,0.1,0.1,0c0.1-0.1,0.2,0,0.3-0.1c0,0.2,0,0.3,0.2,0.2c0.1,0,0.2,0,0.2,0c-0.4,0.1-0.2,0.1,0.3-0.1l0.3-0.1
			c0.2,0.1,0.3,0.1,0.4,0.1c0,0-0.1-0.3-0.8-0.8c0.5,0.3,1.1,0.5,1.6,0.6c0.8,0.1,1.1-0.4,1.2-2c0.2,0.6,0.5,1.1,0.8,1.5
			c0.1,0.1,0.3,0.2,0.4,0.2c0.2,0,0.3,0,0.5-0.1c0.5-0.3,1-0.8,1.4-1.2c-0.3,0.7-0.4,1.1-0.6,1.1l-0.1-0.1c0,0,0.1,0.1,0.1,0.1
			c0.1,0.1,0.3,0.2,0.4,0.2c0.2,0,0.3-0.1,0.4-0.2c0.5,0.3,0.7,0,0.7-1.1c0,1.6,0.4,1.6,0.6-0.1c0.5,1.1,0.8,1.5,1.1,1.1
			c0.1,0.1,0.1,0.1,0.2,0.2c0.1,0,0.2,0,0.3,0h0.1c0.2,0,0.3,0,0.5,0c0.2,0.1,0.6-0.1,1.1-0.4l0.2-0.1l0.2-0.1
			c-0.1,0.6,0.2,0.5,0.5,0.1c0-0.2,0.1-0.4,0.1-0.6c0.1-0.4,0.2-0.7,0.2-1.1c0.7,2.7,1.3,2.7,3.7,1.2c0,0.1-0.1,0.1-0.1,0.2
			c-1.7,1.2-1.7,1.3-0.1,0.2c-0.4,0.5-0.4,0.7-0.2,0.9c0.1,0.1,0.2,0.1,0.3,0.1c0.1,0,0.2,0,0.2,0c0.2,0,0.5,0,0.5-0.3
			c-0.1,0.2-0.1,0.3-0.2,0.3c0.2,0,0.4,0,0.2-0.3c0.5,0.2,0.8,0.3,0.8,0.1c0,0,0.1,0,0.1,0c0.2,0,0.3,0,0.5-0.1
			c0.4,0.1,0.5-0.1,0.3-0.6c0-0.3,0-0.5,0-0.8c1,1.8,1.1,1.8,0.2-0.1c1.4,1.9,1.8,1.9,2.3-0.5c0.3,0.8,0.5,1.3,0.2,1.5
			c0.3,0.2,0.5,0.3,0.7,0.4l-0.6-0.1l0.4,0.1h-0.2l2.5,0.5c0.6,0.1,0.9,0.2,0.5-0.1c1,0.4,1.1,0.4,0.2-0.2c1.2,0.6,1.3,0.6,0.2-0.3
			c1.5,0.9,1.9,0.9,1.1-0.9c1.3,1.2,2,1.6,3.2,1.4c0.2,0,0.3,0,0.5,0c0,0.1,0.1,0.1,0.2,0s0.2,0.1,0.4,0c0.6-0.2,1.2-0.4,1.7-0.7
			l-1.2,0.9c0.1,0.1,0.2,0,0.4-0.1v0.1c0.3,0.2,0.6,0.2,0.9-0.2c0.2,0.4,0.2,0.4,0.2,0.3c0.4,0.5,0.6,0.3,0.6-0.7
			c0.7,1.3,1,1.3,1.4-0.1c0.2,1.5,0.5,1.5,1.4,0.3c-0.2,0.7-0.2,1,0,1.1c0.2,0.1,0.5-0.1,1.1-0.6c-0.2,0.5-0.3,0.7-0.2,0.8
			c0.1,0.1,0.3,0,0.4-0.1l0.2,0.1c0,0,0,0.1,0,0.1c0,0,0,0-0.1,0h-0.2c0.1,0,0.3,0,0.4,0c0.2,0,0.4,0,0.6,0c0.2,0,0.2,0,0.2,0h0.1
			c0.1,0,0.2,0,0.3,0c0.1,0,0.1-0.1,0.2-0.1c0.6,0.3,0.6,0.3,0-0.1c0-0.2-0.1-0.5-0.3-0.7c2,1.3,2.5,1.4,2.8-1.1
			c0.7,2.7,1.3,2.8,3.9,1.5c-0.3,0.3-0.5,0.6-0.7,1c-0.7,0.3-0.7,0.3,0,0.1c0,0.1,0,0.1,0,0.2c0,0.1,0.1,0.1,0.1,0.1
			c0.1,0.1,0.2,0.1,0.3,0.1c0,0.1,0.5,0.2,1.3,0.3c-0.5,0-0.9-0.1-1.3-0.3h0.1c0,0.1,0.3,0.2,0.9,0.2c0.1,0,0.2,0,0.3,0h0.1
			c0.1-0.1,0.2-0.2,0.3-0.4c0.1-0.3,0.2-0.6,0.3-1c1.1,2.1,1.7,2.3,3.9,1.1c-0.4,0.6-0.5,1-0.6,0.9l-0.1-0.1l0.1,0.1
			c0.7,0.6,1.1,0.6,1.4-0.7c-0.1,1.6,0.1,1.6,0.1,0c0.5,1.8,0.8,1.9,0.9-0.1c0.5,2.1,0.8,2.2,2,0.3c-0.6,2.1-0.3,2.2,1.5,0.8
			c-1.2,1.4-1,1.3,0.2,0.1c-0.7,0.9-0.7,1.2,0.1,1c-0.4,0.3-0.3,0.3,0.2,0c-0.2,0.5,0.1,0.5,0.7,0.3c-0.3,0.1,0-0.2,0.2-0.6
			c0.1,0.5,0.1,0.9,0.2,0.9c0.1,0.1,0.3-0.1,0.5-0.8c0.2,1.6,0.6,1.5,1.8,0.5c-0.7,1.2-0.6,1.5,0.7,0.5c-1,1.3-0.6,1.4,0.8,0.8
			c-1,0.9-0.5,1.1,0.3,0.5c-0.5,0.6-0.2,0.7,0.3,0.5c-0.3,0.1-0.2-0.1-0.2-0.6c0.3,0.7,0.7,1.1,1,1.1c0.3,0,0.4-0.4,0.6-1.3
			c0.6,1.9,1.1,1.7,2,0.2c-0.3,1.6-0.1,2,1.6,1.1c-1.3,1.6-1.1,1.8,1,1.4c-1.2,0.6-0.7,0.5,0.3,0.4c-0.7,0.6-0.8,0.9,0,0.9
			c-0.6,0.3-0.5,0.5,0,0c-0.2,0.5,0,0.3,0.3-0.2c0,0.2,0,0.4,0.1,0.7c0,0.1,0.1-0.1,0.1-0.5c0.1,1,0.2,0.7,0.4-0.1
			c0,1,0.1,1.5,0.6,0.2c-0.1,1.4,0.2,1.1,0.8,0.1c-0.1,0.9-0.2,1.5,1.1,0.7c-1,1.6-0.7,1.9,1.3,1.4c-1.1,0.9-0.4,0.9,0.5,1
			c-0.5,0.2-0.8,0.5-0.8,0.6c0,0.2,0.2,0.5,0.9,0.6l-0.5,0.2c0-0.1,0.1-0.1,0.1-0.2c-0.4,0.3-0.4,0.3-0.1,0.2c-0.3,0.6,0,0.7,1,0.5
			c-0.5,0.3-0.8,0.5-0.8,0.6c-3.7,0,1.6,3,3,4.7c-10.7,0-21.4,0.4-32.2,0.8c-4.4-0.1-8.9-0.1-13.6-0.1c-5.1-0.2-10.2,0-15.3,0.2
			c-4.2,0-8.4,0.1-12.6,0.1c-1.1,0-2.3-0.1-3.5-0.1c1.2,0.1,2.3,0.1,3.5,0.1c-4.6,0-9.1,0-13.4-0.1c-24.2-0.7-24.8-3-35.7-3.1
			c0-0.3-0.2-0.6-0.7-0.8C839.8,268.4,840,267.8,839,266.9z"/>
		<path class="st13" d="M952,233.7v38.5h-3.6v-38.5H952z"/>
		<path class="st13" d="M945.3,231.7v40.5h-3.6v-40.5H945.3z"/>
		<path class="st13" d="M938.6,229.7v42.7l-3.6,0.1v-42.8L938.6,229.7z"/>
		<path class="st13" d="M931.9,227.6v44.9l-3.6,0.1v-45.1L931.9,227.6L931.9,227.6z"/>
		<path class="st13" d="M925.3,225.6v47.2l-3.6,0.1v-47.3H925.3z"/>
		<path class="st13" d="M918.5,223.6v49.3c-1.2-0.1-2.4-0.1-3.6-0.1v-49.2L918.5,223.6z"/>
		<path class="st13" d="M911.9,272.7c-1.2,0-2.4,0-3.6,0v-51.2h3.6V272.7z"/>
		<path class="st13" d="M905.2,272.8l-3.6,0.1v-52.3l3.6,0.2V272.8z"/>
		<path class="st13" d="M848.1,233.7v38.5h3.6v-38.5H848.1z"/>
		<path class="st13" d="M854.8,231.7v40.5h3.6v-40.5H854.8z"/>
		<path class="st13" d="M861.5,229.7v42.7l3.6,0.1v-42.8L861.5,229.7z"/>
		<path class="st13" d="M868.2,227.6v44.9l3.6,0.1v-45.1L868.2,227.6L868.2,227.6z"/>
		<path class="st13" d="M874.9,225.6v47.2l3.6,0.1v-47.3H874.9z"/>
		<path class="st13" d="M881.6,273v-49.4h3.6V273H881.6z"/>
		<path class="st13" d="M891.8,273.1c-1.2,0-2.4,0-3.6-0.1v-51.5h3.6V273.1z"/>
		<path class="st13" d="M898.5,273c-1.2,0-2.4,0.1-3.6,0.1v-52.7c1.2,0,2.4,0,3.6,0.1V273z"/>
		<path class="st12" d="M1065.6,262.3c-1.4-3,1.7-7.9,5.5-8c1.1,0,2.2,0.3,3.2,1c0.9,0.6,1.6,1.6,2,2.6c0.3,0.7,0.3,1.5,0.2,2.3
			c-0.1,0.6-0.3,1.2-0.6,1.8c-0.4,0.7-0.9,1.4-1.6,1.9C1071.6,266.1,1066.8,264.9,1065.6,262.3z"/>
		<path class="st13" d="M1073.6,264.2c-1.5-0.4-2.9-2.3-3.2-4.7c-0.3-2.4,0.5-4.5,1.9-5.3c2.2,0.7,4.5,2.3,4.3,4.8c0,0,0,0.3,0,0.3
			c0,0.2,0,0.4,0,0.6c0,0.6-0.2,1.2-0.5,1.7c-0.3,0.7-0.8,1.3-1.4,1.8c-0.2,0.2-0.4,0.3-0.6,0.5C1074,264,1073.8,264.1,1073.6,264.2
			z"/>
		<path class="st19" d="M1108.5,498.7c2.8-3.9,6.7-5.6,9-4.5c2.8,1.4,2.8,7.3,0.7,10.8c-2.3,3.8-6.9,4.7-11.8,5.7
			c-2.8,0.7-5.7,0.8-8.6,0.4c-2.5-0.4-7.8-1.4-10.5-6c-2.6-4.4-1.2-9.1-0.9-10c1.4-4.5,5.6-9.6,8.9-8.7c2.4,0.7,3.9,4.6,3.9,9.2
			c0.1-0.9,0.5-1.8,1.2-2.5c0.6-0.7,1.4-1.2,2.3-1.5c2.4-0.6,4.6,1.4,5.5,3.2C1108.8,496.1,1108.9,497.5,1108.5,498.7z"/>
		<path class="st20" d="M1100.8,506.8h2.2v22.5h-2.2V506.8z"/>
		<path class="st19" d="M1102.1,509.9c-2.4,0-4.3-1.6-4.3-3.6s1.9-3.6,4.3-3.6c2.4,0,4.3,1.6,4.3,3.6S1104.5,509.9,1102.1,509.9z"/>
		<path class="st19" d="M1211.3,500.8c2.8-3.9,6.7-5.6,9-4.5c2.8,1.4,2.9,7.3,0.7,10.8c-2.3,3.8-6.9,4.8-11.8,5.7
			c-2.8,0.7-5.7,0.8-8.6,0.4c-2.5-0.4-7.8-1.4-10.5-5.9c-2.6-4.4-1.2-9.1-0.9-10c1.4-4.5,5.6-9.6,8.9-8.7c2.4,0.7,3.9,4.6,3.9,9.2
			c0.1-0.9,0.5-1.8,1.2-2.5c0.6-0.7,1.4-1.2,2.3-1.5c2.4-0.6,4.6,1.4,5.4,3.2C1211.5,498.2,1211.6,499.5,1211.3,500.8z"/>
		<path class="st19" d="M1204.8,511.9c-2.4,0-4.3-1.6-4.3-3.6s1.9-3.6,4.3-3.6c2.4,0,4.3,1.6,4.3,3.6S1207.2,511.9,1204.8,511.9z"/>
		<path class="st23" d="M960.5,503.5c1-1.4,9.4-10.9,29.8-12.7c10.6-0.9,12.9-0.6,21,1.7c5,1.7,9.6,4.3,13.6,7.8
			c0.3,0.2,1.4,1.2,2,0.8c0.6-0.3,0.5-1.1,0.4-1.8c-0.3-2.9-0.3-5.8-0.1-8.7c0.4-3.5,1.1-3.8,1.3-3.9c0.8-0.2,1.8,0.7,2.3,1.5
			c0.5,0.8,0.7,1.7,0.7,2.6c0,5.3-1.1,7.5,0.2,9.9c0.4,0.8,1,1.4,1.7,1.8c0.8,0.5,1.8,0.6,2.7,0.4c0.3-0.1,1.3-0.4,2.3-2.4
			c0.9-1.9,1.4-3.9,1.4-6c0.2-3.1-0.3-3.9,0.5-5.6c0.2-0.3,1.1-2.3,2.3-2.3c0.3,0,0.5,0.1,0.7,0.3c0.2,0.1,0.4,0.3,0.6,0.5
			c1.2,1.5,0.6,3.7,0,7.8c-0.2,1.2-0.4,3-0.5,5.1c0.7-0.3,1.7-0.7,3-1.1c4.8-1.5,9.8-2,14.7-1.4c4.5,0.4,8.9,1.7,12.9,3.9
			c1.8,1.1,4.8,2.7,4.5,3.9c-0.4,1.6-6,1.6-11.2,1.7c-5.9-0.1-11.9-0.5-17.8-1.2l-7.2-0.7c-0.2,0.4-0.4,0.7-0.7,1.1
			c1.8,3.4,1.9,5.9,1.4,7.7c-0.6,2.1-0.7,1.5-2,4.5c-0.1,0.2-1.2,1.4-1.3,1.6c0.1,0.4,0.2,0.8,0.3,1.2c6.1,31.3,30.9,55.2,40.4,85.6
			c0.3,1,0.6,2,0.9,3c-1,2.4-2.3,4.8-3.8,7h-72.2c-2.1-12.3-2.5-24.8-1.3-37.2c1.8-19.1,6.9-32.6,11.2-43.9
			c4.9-12.8,9.6-21.1,11-20.7c0.6-2.9,0.6-6,0.1-8.9c0-0.3-0.1-0.6-0.2-1c-1.1-3-55.9,4.3-63.1,2.2c-0.8-0.2-3-0.8-3.3-2.3
			C959.9,504.7,960.1,504,960.5,503.5z"/>
		<path class="st12" d="M1028.7,508.3c0.1-0.3,0.3-0.5,0.5-0.7c0.2-0.2,0.5-0.4,0.7-0.5c0.3-0.1,0.6-0.1,0.9-0.1
			c0.3,0,0.6,0.1,0.8,0.2c0.3,0.2,0.5,0.5,0.6,0.8c0.1,0.3,0.1,0.7,0,1c-0.1,0.2-0.2,0.5-0.4,0.6c-0.1,0.1-0.3,0.3-0.5,0.4
			c-0.2,0.1-0.5,0.2-0.7,0.2c-0.3,0-0.5,0-0.8-0.1c-0.2-0.1-0.5-0.2-0.7-0.4c-0.2-0.2-0.3-0.4-0.4-0.7
			C1028.8,508.8,1028.7,508.5,1028.7,508.3z"/>
		<path d="M1030.4,510.2c-0.2-0.3-0.3-0.6-0.3-0.9c0-0.3,0.1-0.6,0.3-0.9c0.1-0.3,0.3-0.5,0.6-0.7c0.3-0.2,0.6-0.3,0.9-0.3
			c0.3,0.3,0.4,0.6,0.5,1s0,0.7-0.2,1.1l-0.1,0.1c0,0.1-0.1,0.1-0.1,0.2c-0.1,0.1-0.3,0.3-0.4,0.3c-0.2,0.1-0.4,0.2-0.7,0.2h-0.2
			C1030.5,510.2,1030.5,510.2,1030.4,510.2z"/>
		<path class="st12" d="M1035,508.5c0.1-0.3,0.3-0.5,0.5-0.7c0.2-0.2,0.5-0.4,0.7-0.5c0.3-0.1,0.6-0.1,0.9-0.1
			c0.3,0,0.6,0.1,0.8,0.2c0.3,0.2,0.5,0.5,0.6,0.8c0.1,0.3,0.1,0.7,0,1.1c-0.1,0.2-0.2,0.5-0.4,0.6c-0.1,0.1-0.3,0.3-0.5,0.4
			c-0.2,0.1-0.5,0.2-0.7,0.2c-0.3,0-0.5,0-0.8-0.1c-0.2-0.1-0.5-0.3-0.7-0.4c-0.2-0.2-0.3-0.4-0.4-0.7
			C1035.1,509.1,1035,508.8,1035,508.5z"/>
		<path d="M1036.7,510.5c-0.2-0.3-0.3-0.6-0.3-0.9c0-0.3,0.1-0.6,0.3-0.9c0.1-0.3,0.3-0.5,0.6-0.7c0.3-0.2,0.6-0.3,0.9-0.3
			c0.3,0.3,0.4,0.6,0.5,1s0,0.7-0.2,1.1l-0.1,0.1c0,0.1-0.1,0.1-0.1,0.1c-0.1,0.1-0.3,0.3-0.4,0.3c-0.2,0.1-0.4,0.2-0.7,0.2h-0.2
			L1036.7,510.5z"/>
		<path class="st23" d="M1030.2,404.5c0.5-0.7,4.5-5.2,14.2-6c5-0.4,6.1-0.3,10,0.8c2.4,0.8,4.5,2,6.4,3.7c0.1,0.1,0.7,0.6,1,0.4
			c0.3-0.2,0.2-0.5,0.2-0.8c-0.1-1.4-0.1-2.8,0-4.1c0.2-1.7,0.5-1.8,0.6-1.9c0.4-0.1,0.9,0.3,1.1,0.7c0.2,0.4,0.3,0.8,0.3,1.2
			c0,2.5-0.5,3.6,0.1,4.7c0.2,0.4,0.5,0.7,0.8,0.9c0.4,0.2,0.9,0.3,1.3,0.2c0.1,0,0.6-0.2,1.1-1.1c0.4-0.9,0.7-1.9,0.7-2.8
			c0.1-1.5-0.1-1.9,0.2-2.7c0.1-0.2,0.5-1.1,1.1-1.1c0.1,0,0.2,0.1,0.3,0.1c0.1,0.1,0.2,0.1,0.3,0.3c0.6,0.7,0.3,1.7,0,3.7
			c-0.1,0.6-0.2,1.4-0.2,2.4c0.3-0.1,0.8-0.3,1.4-0.5c2.3-0.7,4.6-0.9,7-0.7c2.2,0.2,4.2,0.8,6.1,1.8c0.9,0.5,2.3,1.3,2.1,1.8
			c-0.2,0.8-2.9,0.8-5.3,0.8c-2.8,0-5.6-0.2-8.4-0.6l-3.4-0.3c-0.1,0.2-0.2,0.3-0.3,0.5c0.7,1.1,0.9,2.4,0.7,3.7
			c-0.3,1.1-0.3,0.7-1,2.1c0,0.1-0.6,0.7-0.6,0.8c0,0.2,0.1,0.4,0.1,0.6c2.9,14.9,14.7,26.2,19.2,40.7c0.1,0.5,0.3,0.9,0.4,1.4
			c-0.5,1.2-1.1,2.3-1.8,3.3h-34.2c-1-5.8-1.2-11.8-0.6-17.7c0.7-7.2,2.5-14.2,5.3-20.8c2.3-6.1,4.6-10,5.2-9.8
			c0.3-1.4,0.3-2.9,0.1-4.3c0-0.2,0-0.3-0.1-0.4c-0.5-1.4-26.5,2-30,1.1c-0.4-0.1-1.4-0.4-1.6-1.1c0-0.2,0-0.3,0.1-0.5
			C1030,404.8,1030.1,404.6,1030.2,404.5z"/>
		<path class="st12" d="M1062.5,406.7c0-0.1,0.1-0.2,0.2-0.3c0.1-0.1,0.2-0.2,0.3-0.2c0.1,0,0.3-0.1,0.4-0.1c0.1,0,0.3,0,0.4,0.1
			c0.1,0.1,0.2,0.2,0.3,0.4c0.1,0.2,0.1,0.3,0,0.5c0,0.1-0.1,0.2-0.2,0.3c-0.1,0.1-0.1,0.1-0.2,0.2c-0.1,0.1-0.2,0.1-0.4,0.1
			c-0.1,0-0.3,0-0.4-0.1c-0.1,0-0.2-0.1-0.3-0.2c-0.1-0.1-0.2-0.2-0.2-0.3C1062.6,407,1062.5,406.9,1062.5,406.7z"/>
		<path d="M1063.3,407.7c-0.1-0.1-0.1-0.3-0.1-0.4c0-0.2,0-0.3,0.1-0.4c0.1-0.1,0.2-0.3,0.3-0.3c0.1-0.1,0.3-0.1,0.4-0.2
			c0.1,0.1,0.2,0.3,0.2,0.5c0,0.2,0,0.4-0.1,0.5c0,0,0,0-0.1,0.1c-0.1,0.1-0.1,0.1-0.2,0.2c-0.1,0-0.2,0.1-0.3,0.1L1063.3,407.7
			L1063.3,407.7z"/>
		<path class="st12" d="M1065.5,406.9c0.1-0.1,0.1-0.2,0.2-0.3c0.1-0.1,0.2-0.2,0.3-0.2c0.1,0,0.3-0.1,0.4-0.1c0.1,0,0.3,0,0.4,0.1
			c0.1,0.1,0.2,0.2,0.3,0.4s0.1,0.3,0,0.5c0,0.1-0.1,0.2-0.2,0.3c-0.1,0.1-0.1,0.1-0.2,0.2c-0.1,0.1-0.2,0.1-0.4,0.1
			c-0.1,0-0.3,0-0.4-0.1c-0.1,0-0.2-0.1-0.3-0.2c-0.1-0.1-0.2-0.2-0.2-0.3C1065.5,407.1,1065.5,407,1065.5,406.9z"/>
		<path d="M1066.3,407.8c-0.1-0.1-0.1-0.3-0.1-0.4c0-0.1,0-0.3,0.1-0.4c0.1-0.1,0.2-0.3,0.3-0.3c0.1-0.1,0.3-0.1,0.4-0.2
			c0.1,0.1,0.2,0.3,0.2,0.5c0,0.2,0,0.3-0.1,0.5c0,0,0,0-0.1,0.1c0,0.1-0.1,0.1-0.2,0.2c-0.1,0.1-0.2,0.1-0.3,0.1h-0.1L1066.3,407.8
			z"/>
		<path class="st20" d="M1204.6,511.8h2.2v22.5h-2.2V511.8z"/>
	</g>
	<g>
		<path class="st19" d="M971.1,134.9c-4.9,4.3-10.3,9-18.2,10.1c-6.8,0.9-8.2-2-27.7-5.4c-7.2-1.3-14.6-1.4-21.8-0.2
			c-24.4,3.6-26.6,3.5-29.4,2.2c-5.5-2.6-10.9-8.7-9.3-13c1.6-4.3,9.7-4.9,10.5-4.9c-4.3,0.2-17.1,0-26.7-9.2
			c-5.2-4.9-11.3-14.4-8.3-19.4c3.4-5.7,16.6-2.4,17.7-6.4c0.9-3.2-8.1-5.7-8.6-11.8c-0.5-6.1,7.6-12.3,14.5-14.5
			c11.4-3.6,21.5,3.3,23,4.4c0-0.4,0.7-6.3,5.4-8.6c4.7-2.3,10.7,0.7,13.2,4.9c0.9,1.4,1.4,3.1,1.5,4.7c0.7-3,2.2-5.8,4.4-7.9
			c2-1.8,4.3-3.2,6.8-4c2.5-0.8,5.2-1,7.9-0.7c7.1,1.2,13.5,7.1,14.2,14.7c0.3,3.9-0.9,7.9-3.2,11c2.5-2.7,5.5-4.9,8.9-6.3
			c5.2-2.2,15.3-4.4,20.6,1c6.1,6.2,2,19-2.9,25.9c-2.1,3-4.8,5.5-7.9,7.4c1.9-0.5,3.9-0.6,5.9-0.5c8.3,0.4,18.5,5.6,19.1,12.5
			C981.1,126.1,976.6,130.1,971.1,134.9z"/>
		<path class="st20" d="M919.9,126h-9.9v74.6h9.9V126z"/>
		<path class="st19" d="M914.3,133.5c11.3,0,20.5-7.5,20.5-16.8c0-9.3-9.2-16.8-20.5-16.8c-11.3,0-20.5,7.5-20.5,16.8
			C893.8,125.9,903,133.5,914.3,133.5z"/>
	</g>
	<g>
		<path class="st19" d="M1051.5,168.6c-2.4,2.1-5.2,4.6-9.1,5.1c-3.4,0.4-4.1-1-13.9-2.7c-3.6-0.7-7.3-0.7-11-0.1
			c-12.3,1.8-13.4,1.8-14.8,1.1c-2.8-1.3-5.5-4.4-4.7-6.6c0.8-2.2,4.9-2.4,5.3-2.5c-2.2,0.1-8.6,0-13.4-4.6
			c-2.6-2.5-5.7-7.2-4.2-9.8c1.7-2.9,8.4-1.2,8.9-3.2c0.4-1.6-4.1-2.9-4.3-5.9c-0.3-3.1,3.8-6.2,7.3-7.3c5.7-1.8,10.8,1.7,11.6,2.2
			c0-0.2,0.3-3.2,2.7-4.3c2.4-1.1,5.4,0.4,6.7,2.5c0.4,0.7,0.7,1.5,0.8,2.4c0.4-1.5,1.1-2.9,2.2-4c1-0.9,2.2-1.6,3.4-2
			c1.3-0.4,2.6-0.5,4-0.3c3.6,0.6,6.8,3.6,7.2,7.4c0.1,2-0.4,4-1.6,5.6c1.2-1.4,2.8-2.5,4.5-3.2c2.6-1.1,7.7-2.2,10.4,0.5
			c3.1,3.1,1,9.6-1.5,13.1c-1.1,1.5-2.4,2.8-4,3.7c1-0.2,2-0.3,3-0.3c4.2,0.2,9.3,2.8,9.6,6.3
			C1056.5,164.2,1054.2,166.2,1051.5,168.6z"/>
		<path class="st20" d="M1025.7,164.1h-5v37.5h5V164.1z"/>
		<path class="st19" d="M1022.9,167.9c5.7,0,10.3-3.8,10.3-8.4c0-4.7-4.6-8.4-10.3-8.4c-5.7,0-10.3,3.8-10.3,8.4
			C1012.5,164.1,1017.2,167.9,1022.9,167.9z"/>
	</g>
</g>
<g id="Layer_2">
	<g>
		<path class="st22" d="M-39.2,159.4h-224.6c-22.6,0-40.9,18.3-40.9,40.9v31c0,22.6,18.3,40.9,40.9,40.9h224.6
			c22.6,0,40.9-18.3,40.9-40.9v-31C1.7,177.7-16.6,159.4-39.2,159.4z"/>
	</g>
	<g>
		<path class="st30" d="M370.6,834.4c-3.6,3.5-6.8,7.4-9.6,11.5l-26.6-4.7c13.6-20.5-6.5-45.7-27.8-33.5c-2.8,1.9-5.2,4.4-6.9,7.3
			c-19.4-6.4-40.1-7.9-60.2-4.2c0.2-4.9,0.2-9.8,0.2-14.7c20.7-6.8,65.1-31.3,74.3-77.1l8.6,24.5c71.1-34.3,136.1,8.6,120.9,83.4
			c-1.4,5-3.2,9.9-5.6,14.5C422.5,818.6,399,805,370.6,834.4z"/>
	</g>
	<g>
		<path class="st21" d="M667.4,205.8c2.8,11.6,6.4,23.4,6.6,35.4c0,0.4-0.2,0.8-0.5,1.1c-0.3,0.3-0.7,0.5-1.1,0.5
			c-0.4,0-0.8-0.2-1.1-0.5c-0.3-0.3-0.5-0.7-0.5-1.1c-0.3-11.7-3.8-23.2-6.5-34.6C663.9,204.6,667,203.7,667.4,205.8L667.4,205.8z"
			/>
		<path class="st21" d="M674,241.7c1.9,5,3.9,9.9,5.9,14.9c0.1,0.2,0.1,0.4,0,0.6c0,0.2-0.1,0.4-0.2,0.6c-0.1,0.2-0.2,0.3-0.4,0.5
			c-0.2,0.1-0.4,0.2-0.6,0.3c-0.2,0.1-0.4,0.1-0.6,0c-0.2,0-0.4-0.1-0.6-0.2c-0.2-0.1-0.3-0.2-0.5-0.4c-0.1-0.2-0.2-0.4-0.3-0.6
			c-2-5-3.9-9.9-5.9-14.9c-0.1-0.2-0.1-0.4,0-0.6c0-0.2,0.1-0.4,0.2-0.6c0.1-0.2,0.2-0.3,0.4-0.5c0.2-0.1,0.4-0.2,0.6-0.3
			c0.2-0.1,0.4-0.1,0.6,0c0.2,0,0.4,0.1,0.6,0.2c0.2,0.1,0.3,0.2,0.5,0.4C673.9,241.3,674,241.4,674,241.7z"/>
		<path class="st21" d="M674.2,244c-0.5,5.9-2.2,11.6-4.9,16.9c-0.9,1.8-3.7,0.2-2.8-1.6c2.4-4.7,3.9-9.9,4.4-15.2
			c0-0.4,0.2-0.8,0.5-1.1c0.3-0.3,0.7-0.5,1.1-0.5c0.4,0,0.8,0.2,1.1,0.5C674,243.2,674.2,243.6,674.2,244L674.2,244z"/>
		<path class="st21" d="M672.2,244.2c-3,3.7-6.3,7.3-9.8,10.6c-0.3,0.3-0.7,0.4-1.1,0.4c-0.4,0-0.8-0.2-1.1-0.5
			c-0.3-0.3-0.5-0.7-0.5-1.1c0-0.4,0.1-0.8,0.4-1.1c3.5-3.3,6.7-6.8,9.7-10.6c0.3-0.3,0.7-0.5,1.1-0.5c0.4,0,0.8,0.2,1.1,0.5
			c0.3,0.3,0.5,0.7,0.5,1.1C672.6,243.5,672.4,243.9,672.2,244.2L672.2,244.2z"/>
		<path class="st21" d="M713.6,209.1c2.8,11.6,6.4,23.4,6.7,35.4c0,0.4-0.2,0.8-0.5,1.1c-0.3,0.3-0.7,0.5-1.1,0.5s-0.8-0.2-1.1-0.5
			c-0.3-0.3-0.5-0.7-0.5-1.1c-0.3-11.8-3.8-23.2-6.6-34.6C710,207.9,713.1,207,713.6,209.1z"/>
		<path class="st21" d="M720.3,245c2,5,3.9,9.9,5.9,14.9c0.1,0.2,0.1,0.4,0,0.6c0,0.2-0.1,0.4-0.2,0.6s-0.2,0.3-0.4,0.5
			c-0.2,0.1-0.4,0.2-0.6,0.3c-0.2,0.1-0.4,0.1-0.6,0c-0.2,0-0.4-0.1-0.6-0.2c-0.2-0.1-0.3-0.2-0.5-0.4c-0.1-0.2-0.2-0.4-0.3-0.6
			c-1.9-5-3.9-9.9-5.9-14.9c-0.1-0.2-0.1-0.4,0-0.6c0-0.2,0.1-0.4,0.2-0.6c0.1-0.2,0.2-0.3,0.4-0.5c0.2-0.1,0.4-0.2,0.6-0.3
			c0.2-0.1,0.4-0.1,0.6,0c0.2,0,0.4,0.1,0.6,0.2c0.2,0.1,0.3,0.2,0.5,0.4C720.2,244.6,720.3,244.8,720.3,245z"/>
		<path class="st21" d="M720.5,247.3c-0.5,5.9-2.2,11.6-4.9,16.9c-1,1.9-3.8,0.2-2.8-1.6c2.4-4.7,3.9-9.9,4.4-15.2
			c0-0.4,0.2-0.8,0.5-1.1c0.3-0.3,0.7-0.5,1.1-0.5c0.4,0,0.8,0.2,1.1,0.5C720.2,246.4,720.4,246.8,720.5,247.3L720.5,247.3z"/>
		<path class="st21" d="M718.4,247.5c-3,3.7-6.2,7.3-9.7,10.6c-0.3,0.3-0.7,0.5-1.1,0.5c-0.4,0-0.8-0.2-1.1-0.5
			c-0.2-0.2-0.3-0.3-0.4-0.5s-0.1-0.4-0.1-0.6c0-0.2,0-0.4,0.1-0.6c0.1-0.2,0.2-0.4,0.4-0.5c3.5-3.3,6.7-6.8,9.7-10.6
			c0.3-0.3,0.7-0.4,1.1-0.4c0.4,0,0.8,0.2,1.1,0.5c0.3,0.3,0.5,0.7,0.5,1.1C718.8,246.8,718.7,247.2,718.4,247.5z"/>
		<path class="st7" d="M597.3,119.4c-6.5-11.3-5.3-23,2.4-33.5c6-8.8,14.1-8.1,24.2-2.5c1.2,1.9,2.3,3.8,3.3,5.7
			c1.6,5,2.9,10.1,3.6,15.4c0.1,1.8,0.7,3.6,1.8,5.1c1.1,1.5,2.6,2.7,4.3,3.4c6.9,2.8,11.7-3.2,12.9-9.3c1.5-5.9,0.9-11.6,0.5-17.4
			c0.4-4.3,0.6-8.6,0.6-12.9c1.6-8.4,4.6-16.9,11.8-21.8c14.7-10.3,32.8-12.8,44.6-26.3c10.8,1.8,29.3,22.2,45.1,49.2
			c-8.3,0.8-16.7,0.9-25,0.4c-9.3-0.8-19.4-3.2-26.7-9.7c6.9,8.5,17,13.3,24.3,21.4c12.1,1.8,24.3,3.4,36.4,4.8
			c3.6,7.4,6.9,15.1,9.7,22.9c-12.6,0.8-25.2-0.8-37.1-4.9c-11.9-4.1-23-10.4-32.4-18.7c10.5,21.4,21,46.5,43.7,58.6
			c11,6,23,9.8,35.4,11.5c0.1,14.4-3.2,27.5-11.3,37.7c-13.7,17.1-45.8,23.2-77.4,29.2c-24.3,4.6-38.8,3.6-51.8,0
			c-3.7-1-7.3-2.2-10.9-3.5c-1.4-19.8-1.8-38.8-7.2-57.8c-2.5-13.7-9.1-24.2-15.1-34.8c-0.4-0.8-0.8-1.6-1.3-2.4
			c-0.2-0.4-0.4-0.8-0.6-1.1C601.7,123.8,600.1,122.6,597.3,119.4z"/>
		<path class="st23" d="M591.1,106l7.2-0.3l-3.4,8.9l-0.8,2.2C592.8,113.2,591.9,109.6,591.1,106z"/>
		<path class="st23" d="M588.5,106.3l5.7-7.7l3.8,6.6l0.2,0.4c-2.9,2.3-5.7,4.8-8.3,7.5l-7.2,0.8L588.5,106.3z"/>
		<path class="st12" d="M612.7,97.2c0.5,3-3.2,6.6-6.6,5.9c-1-0.2-1.9-0.8-2.6-1.6c-0.7-0.8-1.1-1.7-1.2-2.8c-0.1-0.7,0-1.4,0.3-2.1
			c0.2-0.5,0.6-1,0.9-1.5c0.5-0.6,1.1-1,1.8-1.3C608.3,92.5,612.2,94.5,612.7,97.2z"/>
		<path class="st13" d="M606.1,93.7c0.6,0.6,1.1,1.4,1.4,2.2c0.3,0.8,0.4,1.7,0.3,2.6c-0.1,0.9-0.4,1.7-0.9,2.5
			c-0.5,0.7-1.2,1.4-1.9,1.8c-1.8-1.1-3.4-3.1-2.7-5.3c0-0.1,0-0.2,0-0.3c0-0.2,0.1-0.3,0.2-0.6c0.2-0.5,0.5-1,0.8-1.4
			c0.5-0.5,1-1,1.6-1.3c0.2-0.1,0.5-0.2,0.6-0.3C605.7,93.7,605.9,93.7,606.1,93.7z"/>
	</g>
</g>
<g id="Layer_3">
	<g>
		<g>
			<path class="st23" d="M694.4,527c0.5-2.8,1.5-5.7,3.1-7.5c0.1-0.1,0.2-0.2,0.2-0.3c-0.1,0-0.1,0-0.2,0c-1.2-1.1-2.9-2.9-5-5
				c-9.3-9.3-10.8-11-13.4-13.4c-3.3-3.1-8.3-7.2-15.4-11.4c-2.1-5.7-3-10.4-3.5-13.6c-0.5-3.5-0.4-4.8-1.2-6.9
				c-2.2-5.4-7.4-8.1-9.4-9.2c-0.9-0.5-13.7-6.9-24-0.2c-4.1,2.7-6,6.2-7.7,9.4c-2.5,4.7-3.3,8.7-4.5,27c-1.1,17.1-0.9,20.4-0.2,24
				c1.1,6.7,3.1,12,4.7,15.6c-1,2.5-2,5.1-3,7.9c-2.3,7-3.8,13.5-4.7,19.3c1.2,0.5,2.9,1,5,1.2c5,0.6,8.8-0.9,9.7-1.2
				c4.7-1.9,7.4-5.2,8.4-6.7c1.7,1.5,3.6,3.1,6,4.7c3.2,2.2,6.3,3.8,8.9,5c0.2,1.7,0.5,3.2,1,4.5c3.9,11.1,17.3,14.9,20.1,15.6
				c-0.1-1.6-0.2-3.6,0-5.7c0.3-3,0.9-5.5,1.5-7.4c1.6,0.1,3.7,0.2,6.2,0.2c3.9,0,7.4-0.1,10.3-0.3c1.4-10.3,2.8-20.5,5-31.1
				C693.7,536.8,693.7,531.9,694.4,527z"/>
			<path class="st8" d="M639.9,481.6c0.6,0,0.8-0.5,2.2-2.1c2.3-2.6,3-2.8,3-3.7c0-1.6-1.7-2.5-2.1-2.7c-1.5-0.8-3.7-1.2-5.7,0
				c-0.3,0.1-1.1,0.9-1.2,2.2c0,0.5,0,1.1,1.3,3.2C638.7,480.5,639.3,481.5,639.9,481.6z"/>
			<path class="st36" d="M636.9,477.8c-1.4-1.8-2.8-3.1-2.8-3.2c-1.7-2.3-11.3-9.1-18.6-5.2c-0.3,0.2-4.2,2.4-5.2,6.7
				c-1.1,5.1,2.7,9.3,3.9,10.7c2.7,3,5.8,4.1,7.5,4.7c2.5,0.9,6.3,2.2,10.2,0.7c6.2-2.3,7.8-9.7,7.9-10.4c-0.1,1.4-0.1,3.7,1,6.2
				c2.8,6.6,9.9,8.3,10.7,8.4c5.3,1.1,9.5-1,10.9-1.7c1.9-1,4.1-2.2,5.2-4.7c1.6-3.7-0.3-7.4-0.7-8.2c-2.3-4.4-6.7-5.8-7.9-6.2
				c-7.5-2.4-14.4,2.1-15.6,3c-1.2,0.8-2.2,1.7-2.8,2.3c-0.2,0.2-0.4,0.4-0.6,0.7c-0.5-0.5-0.9-1.2-1.6-2
				C637.8,478.9,637.4,478.4,636.9,477.8z"/>
			<path class="st12" d="M628.8,467.3c0.5-2.4,4.5-3.9,6.8-2.3c0.7,0.5,1.2,1.2,1.5,2c0.3,0.8,0.3,1.6,0,2.4
				c-0.2,0.6-0.5,1.1-0.9,1.5c-0.3,0.3-0.7,0.6-1.2,0.8c-0.5,0.3-1.1,0.4-1.8,0.5C630.6,472.3,628.3,469.5,628.8,467.3z"/>
			<path d="M632.6,472c-0.7-0.9-0.7-2.6,0.2-4.2c0.9-1.6,2.3-2.4,3.4-2.3c1,1.4,1.6,3.3,0.4,4.8c0,0-0.1,0.2-0.1,0.2
				c-0.1,0.1-0.2,0.2-0.3,0.4c-0.3,0.3-0.6,0.6-1,0.8c-0.5,0.2-1,0.4-1.6,0.5c-0.2,0-0.4,0-0.6,0C632.9,472.1,632.8,472.1,632.6,472
				z"/>
			<path class="st12" d="M643.9,469.6c0.8-2.3,4.9-3.4,7-1.5c0.6,0.6,1,1.3,1.2,2.1c0.2,0.8,0.1,1.7-0.3,2.4c-0.2,0.5-0.6,1-1.1,1.4
				c-0.4,0.3-0.8,0.5-1.2,0.7c-0.6,0.2-1.2,0.3-1.8,0.2C645.1,474.8,643.2,471.7,643.9,469.6z"/>
			<path d="M647.2,474.8c-0.6-1-0.4-2.7,0.7-4.1c1.1-1.4,2.6-2.1,3.7-1.9c0.8,1.5,1.2,3.5-0.2,4.8c0,0-0.1,0.1-0.2,0.2
				c-0.1,0.1-0.2,0.2-0.4,0.3c-0.3,0.3-0.7,0.5-1.1,0.6c-0.5,0.2-1.1,0.3-1.6,0.3c-0.2,0-0.4-0.1-0.6-0.1
				C647.5,474.9,647.3,474.8,647.2,474.8z"/>
			<g>
				<path d="M604.3,476.1c1.6-0.4,3.2-0.6,4.8-0.7c1.6-0.2,3.3-0.2,4.9-0.2c1.6,0,3.3-0.1,4.9,0.4c0.8,0.2,1.6,0.6,2.3,1
					c0.7,0.4,1.5,0.9,2.1,1.5l-0.1,0.3c-1.8,0.4-3.4,0.3-4.9,0.2c-1.6-0.1-3-0.7-4.6-1c-1.6-0.3-3.1-0.5-4.7-0.7
					c-1.6-0.2-3.2-0.3-4.8-0.5L604.3,476.1z"/>
			</g>
			<g>
				<path d="M605.8,483.3c2.3-1.3,4.8-2.3,7.4-2.8c1.3-0.3,2.6-0.5,4-0.4c1.3,0.1,2.7,0.3,3.9,0.8l0,0.1l-3.9,0.2
					c-1.3,0.1-2.6,0.1-3.9,0.2C610.8,481.7,608.3,482.4,605.8,483.3L605.8,483.3z"/>
			</g>
			<g>
				<path d="M609.2,489.1c0.6-1.7,1.8-3.2,3.4-4.2c0.8-0.5,1.6-0.9,2.6-1.1c0.9-0.1,1.9-0.1,2.7,0.3l0,0.1c-0.9,0.2-1.7,0.4-2.5,0.6
					c-0.8,0.2-1.6,0.4-2.4,0.8C611.4,486.3,610.1,487.6,609.2,489.1L609.2,489.1z"/>
			</g>
			<g>
				<path d="M673.5,489.3c-2-1.4-4.3-2.4-6.6-2.9c-1.2-0.3-2.4-0.3-3.6-0.5l-3.6-0.4l0-0.1c1.2-0.4,2.5-0.5,3.7-0.5
					c1.3,0,2.5,0.3,3.7,0.7C669.4,486.3,671.7,487.6,673.5,489.3L673.5,489.3z"/>
			</g>
			<g>
				<path d="M672.9,498.4c-1.6-2.3-3.6-4.3-5.8-5.9c-1.1-0.8-2.3-1.5-3.5-2.2l-3.6-2.1l0-0.1c1.4,0.2,2.8,0.7,4.1,1.3
					c1.3,0.6,2.4,1.5,3.5,2.4c1.1,0.9,2.1,1.9,3,3C671.5,495.9,672.3,497.1,672.9,498.4L672.9,498.4z"/>
			</g>
			<g>
				<path d="M667.9,500.8c-0.6-2.4-1.7-4.6-3.4-6.3c-0.8-0.9-1.8-1.6-2.7-2.3c-1-0.7-2-1.4-3-2l0-0.1c1.3,0.2,2.5,0.6,3.5,1.3
					c1.1,0.7,2,1.6,2.8,2.6c0.8,1,1.4,2.1,1.9,3.2C667.5,498.3,667.8,499.5,667.9,500.8L667.9,500.8z"/>
			</g>
		</g>
		<path class="st36" d="M753.9,533.9c-0.4-0.2-1-0.2-2.3-0.2c-2,0-2.1,0.2-2.7,0.1c-1.1-0.3-1.6-1.3-2.8-3.3
			c-0.8-1.3-1.8-2.6-2.6-3.9c-2-3.3-5.1-5.5-7.4-7.1c-7.2-5-20.2-4.4-25.2-4.1c-6.7,0.5-10.6,1.5-15.8,2.7
			c-4.2,10.5-5.9,21.6-7.3,32.8c-1,7.3-1.9,14.6-2.6,21.9c0.1,0,0.1,0,0.2,0c3.2-0.4,7.3-1,12.1-2.2c0.3-0.1,0.8-0.1,1.4,0
			c1.6,0.4,2.5,2.1,2.9,2.8c1.6,3.2,2.5,4.8,10.5,23.1c0.2,0.4,0.8,1.7,0.7,3.3c0,1.1-0.3,2-0.4,2.3c-1,2.8-1.6,5.7-2.9,8.4
			c-3.2,6.9-3.1,11.1-7.6,21.8c-3,7.1-4,7.4-4.5,9.8c-0.1,0.5-0.4,1.9-1.5,3.1c-0.8,0.7-1.5,1-2.4,1.3c-2.1,0.8-3.8,2-4.7,2.7
			c-2.9,2.3-3.8,5.6-4,6.5c-0.4,1.6-0.6,2.4-0.4,3.1c1.1,2.7,6.8,1,19.3,1c0.9,0,3.2,0,3.8-1.2c0.5-0.9-0.3-2.3-1-3.7
			c-1.1-2.1-2.2-2.8-1.9-3.8c0.2-0.6,0.7-1.2,1.3-1.3c0.8-0.2,1.1,0.3,1.6,0c0.8-0.4,0.8-2.1,0.6-3.2c-0.2-1.2-0.6-1.3-0.8-2.3
			c-0.2-1.3,0.3-2.4,0.6-3.1c1.6-3.5,0.3-2.2,2.4-6.7c1.6-3.4,7.9-15.9,16.8-32.8c0.1-0.2,0.3-0.4,0.4-0.8c0.2-0.8,0.1-1.5,0-1.7
			c-0.4-1.4-1.7-2-1.9-2.1c0-0.6,0-1.5,0-2.6c0-4-0.1-5.9-0.2-7.1c-0.2-2.9-0.7-6.1,0.2-8.1c0.4-0.8,0.8-1,1-1.1
			c0.5-0.1,1,0.2,1.7,0.6c1.2,0.8,1.7,1.2,2.5,2.1c1.8,2.2,3,2.2,4.6,3.9c0.5,0.5,1.9,2.1,3.1,6.6c0.7,2.9,1,5.9,0.7,13.3
			c-0.6,13.5-2.1,14.5-1.9,19.4c0,0.3,0.1,2.9-1,5.7c-0.4,1.2-0.9,1.8-1.4,2.4c-1.1,1.1-2,1.3-3.3,1.9c-2.7,1.4-4.2,3.7-5,5.1
			c-0.9,1.5-2.1,3.5-1.4,4.7c0.3,0.4,0.8,0.7,3.8,1.1c3,0.3,5.2,0.3,5.3,0.3c4.7-0.1,4.1-0.6,7-0.5c2.1,0.1,3.6,0.4,5.2-0.5
			c0.5-0.3,1-0.6,1.3-1.2c0.5-1.2-0.3-2.8-1.5-5c-0.6-1.2-1.1-1.9-1.1-3c0-0.3,0.1-1.2,0.7-1.6c0.4-0.3,0.7,0,1.3-0.2
			c0.8-0.2,1.2-0.9,1.4-1.2c0.7-1.1,0.5-2.3,0.4-3.2c-0.3-1.8-1-3-1.1-3.1c-1-1.7-0.5-12.5,3.4-41.3c0.1-0.4,0.2-1,0.2-1.7
			c-0.1-1.5-1-2.5-1.3-2.9c-0.7-0.8-5.3-6.5-6.1-12.2c-0.3-1.9-0.1-3.5,0-3.9c0.3-1.7,0.8-2.6,1.7-4.6c1.1-2.5,1.6-4.4,2.3-6.8
			c0.8-2.8,1.1-4.5,0.8-6.5c-0.1-0.7-0.2-1.2-0.3-1.6c0.4-0.3,1-0.7,1.6-1.2c1.4-1.1,2.4-2.2,2.7-2.5c1.8-1.9,2.7-2.9,2.7-4.1
			C755.6,535.5,754.9,534.3,753.9,533.9z"/>
	</g>
	<g>
		<path class="st21" d="M192.9,311.9c-1.5,1.5-3.6,3.4-6.2,5.6c-3.5,3-9.3,7.9-17.1,12c-5,2.6-4.3,1.5-18.2,7.5
			c-7.3,3.2-9.4,4.3-11.5,6.2c-4.8,4.2-7,9.4-8,12.8c-1.8-1.6-4.8-3.8-9-5.2c-2.7-0.9-10.5-3.6-13.8-0.1c-4.3,4.4,2,15.4,2.8,16.7
			c0.3,0.5,6,10,10.8,9c1.1-0.2,2.5-1.1,2.5-2c0-1-1.4-1.8-3.5-2.9c-1.4-0.8-2.1-1.2-3.6-1.7c-4.5-1.7-9.8-11.7-7.2-15
			c2.9-3.6,16.7-0.2,18.6,6.6c0.4,1.3,0.1,2.8,0.1,2.8c-0.1,2.1-0.8,3.3-1.2,4.7c-0.6,2.1-0.4,3.8,0.1,6.8c0,0,0.7,4.2,2.7,8
			c4.3,8.2,18.8,15.4,33.5,19c3.8,0.9,9.2,2,15.9,2.5c0.8,0.1,1.9,0.3,3.1,0.9c2.7,1.3,4.1,3.6,5.1,5.1c4.7,7.4,7.1,11.1,9.8,11.6
			c1.6,0.3,3.1-0.2,5.2-0.9c3.2-1.1,3.2-2.1,5.6-2.9c2.6-0.9,3.5,0,10.2,0c3.1,0,6.1,0,6.2-0.5c0.2-1-11-2.9-10.8-3.9
			c0.1-0.3,1.6-0.5,2.7-0.5c0.8,0,1.2,0.2,2.1,0.4c2.4,0.6,2.5,0.2,4.1,0.7c2.1,0.7,2.4,1.5,3.6,1.2c1-0.2,2-0.9,1.9-1.6
			c-0.1-1.1-3.4-1.6-5.2-1.9c-4.9-0.8-8.2-0.2-8.6-1.3c-0.1-0.4,0.1-0.9,0.4-1.1c0.5-0.4,1.2,0,1.7,0.1c1.3,0.4,3,0,4.4,0.2
			c5.7,0.9,4.6,0.6,5.5,0.9c1.2,0.4,1.5,0.1,2.1-0.3c0.4-0.2,0.3-0.3,0.5-1.6c0.1-0.9-0.9-1.1-1.7-1.3c-3.8-0.8-10.2,0.1-12.1,0.4
			c-0.1-0.1-0.3-0.2-0.3-0.4c0-0.3,0.3-0.5,0.5-0.6c0.7-0.5,1.7-0.5,1.9-0.4c1.8,0.1,1.7-0.5,3.6-0.5c2.6,0,3.7,1.1,5.5,0.4
			c0.7-0.3,0.8-0.6,0.8-0.6c0.1-0.8-2.8-1.6-2.9-1.7c-2-0.6-3.7-0.4-4.4-0.4c-3,0.3-5,1.5-5.3,1c-0.1-0.2,0.1-0.6,0.3-0.9
			c0.3-0.3,0.7-0.4,0.8-0.5c1.2-0.3,4.4-2.8,4-3.8c-0.2-0.8-2.4-1.1-3.8-0.3c-0.8,0.5-0.7,1-1.6,1.9c-1.2,1.3-1.9,1-3.4,2.1
			c-2,1.5-1.4,2.4-3.1,3.2c-1.4,0.7-3.3,0.8-4.8,0.1c-0.4-0.2-0.7-0.3-0.9-0.5c0.2-0.7,0.3-1.8,0.3-3.1c0-0.9-0.3-3.8-5.3-9.7
			c-3.1-3.7-6-6.1-8.2-7.9c-1.9-1.6-3.5-2.8-4.7-3.6c1.6,0.1,3.3,0.2,5.1,0.1c8.1-0.4,14.4-3.5,18.4-5.9c0.2,0.4,0.5,1,0.9,1.7
			c1.3,2.3,1.3,2.5,1.6,2.9c1.1,1.5,3.3,1.2,5.4,1.5c3.1,0.4,3.1,1.5,8.2,3.5c4,1.6,4,0.9,12.9,3.6c3.4,1,5.1,1.5,6.5,2.2
			c3.6,1.8,4.1,3.1,7.1,3.8c2.4,0.6,4.9,0.5,5.9,0.4c0.9,0,2-0.8,3.2-0.4c0.6,0.2,0.9,0.6,1.6,0.7c0.7,0.1,1.3-0.2,1.5-0.6
			c0.2-0.4-0.1-1-1-1.7c-3.2-2.7-6.5-3.9-6.4-4.1c0-0.1,1.1,0.2,2.6,0.4c1.5,0.3,2.8,0.5,4.2,0.5c0.5,0,3.5,0.2,5.7-2
			c0.7-0.7,0.6-1,0.6-1.1c-0.2-0.4-0.7-0.3-2.9-0.4c-0.8,0-1.5-0.1-2.8-0.3c-1-0.1-1.8-0.2-2.2-0.3c-0.6-0.1-1.1-0.2-1.6-0.3
			c1.2-0.2,2-0.7,2.5-1c1-0.6,1.2-1.1,2.1-1.4c0.7-0.3,1-0.1,2.4-0.2c0.8-0.1,2.4-0.3,2.5-0.9c0.1-0.5-0.9-1.1-2.3-1.5
			c-3-0.9-4.5,0.3-8.1,0.2c-2.1-0.1-3.6-0.5-5.4-1c-1.8-0.5-4.4-1.3-7.2-3.1c-2.9-1.9-4.5-4.1-5.7-5.7c-2.2-3-3.2-5.4-4.8-9.3
			c-1.9-4.7-4.1-10.3-4.3-17.7c0-0.8,0-1.6,0-2c0.4,0.5,1,1.3,1.8,2.1c1.3,1.3,3,2.8,5.8,4.2c0.8,0.4,3,1.5,9.5,3.2
			c5.9,1.5,10.4,2.5,10.4,2.5c3.4,0.7,4.8,0.9,6.3,2.2c0.8,0.6,1.6,1.5,2.2,1.2c0.6-0.3,0.8-1.6,0.5-2.6c-0.5-1.7-2-2-2.1-3.4
			c-0.1-0.9,0.5-1.6,0.6-1.8c1.5-2,5.1-1.6,6.5-1.5c2.2,0.2,3.4,0.3,4.8,0.9c0.8,0.3,1.7,0.7,2.4,0.3c0.5-0.3,0.9-1,0.8-1.6
			c-0.1-1.4-2.1-2.2-2.8-2.5c-3.8-1.6-7.5,0-7.8-0.6c-0.1-0.4,1-1,1.3-1.2c0.9-0.5,2.8-1.5,7.3-1.7c1.6-0.1,2.5,0,3-0.7
			c0.4-0.6,0.5-1.6,0-2.2c-0.7-0.8-1.9-0.1-3.6-0.9c-0.8-0.4-0.7-0.6-1.3-0.9c-1.5-0.8-3.4,0-6.6,1.3c-3.5,1.5-5.2,2.3-6,2.5
			c-5.1,1-9.5-2.1-9.9-2.4c-1.1-0.8-1.1-1.1-4.2-4.7c-2.2-2.4-4.4-4.8-5.7-6.1c-2-2-5.2-4.7-9.8-7.1c1-0.4,2.1-1,3.2-1.8
			c3.3-2.5,4.6-6.1,5.6-8.6c0.3-0.7,0.5-1.3,0.6-1.7c0.4-0.2,0.9-0.5,1.3-1c2-2.2,1-5.8,0.7-6.7c-0.9-3.2-3.2-4.9-5-6.3
			c-2.5-1.9-3.9-1.8-4.3-1.7c-1,0.1-1.8,0.7-2.2,1.1c-1.2,0.1-2.5,0.2-3.8,0.3c-0.5,0-1.1,0-1.6,0.1c-0.1-0.7-0.4-1.4-0.7-2.1
			c-2-4.5-6.7-6.2-8.3-6.7c0-0.2-0.2-0.9-0.9-1.4c-0.6-0.5-1.3-0.5-1.5-0.5c-3.8,1.2-6.9,2.4-9.3,3.4c-6.6,2.8-8.8,4.6-9.8,5.6
			c-0.8,0.7-2.2,2.1-3.5,4.2c-0.8,1.2-3.4,5.5-2.9,11.1C192.5,310.2,192.8,311.2,192.9,311.9z"/>
		<path class="st22" d="M202,313.4c-1.8-0.9-2.7-1.1-3.5-0.8c-1.6,0.6-2.2,3-2,4.8c0.5,3,4,5.4,7.3,5.2c2.5-0.1,5.5-1.7,5.6-3.6
			C209.6,317.2,206.7,315.7,202,313.4z"/>
		<path class="st22" d="M220.4,286.7c-0.1,0.6-0.2,1.4-0.3,2.4c-0.1,1.1-0.1,1.3-0.2,1.7c-0.5,1.1-1.8,1.2-2.8,1.7
			c-2.4,1.3-3.5,5.9-1.8,9.2c0.2,0.3,1.5,2.9,4,3.5c0.9,0.2,2.1-0.1,4.7-0.6c2.4-0.5,3.3-0.9,4.3-0.4c1,0.4,1.4,1.2,1.8,1.8
			c2,3,6.2,5.6,9.9,5.3c2.1-0.2,4-1.3,4.4-1.5c0.9-0.5,1.2-0.9,1.3-1c1.1-1.2,1.2-2.8,1.2-3.7c0.1-1.8-0.5-3.2-0.8-3.9
			c-0.6-1.4-1.4-2.4-1.9-2.9c-1-1.2-2-1.9-3.7-3.1c-0.4-0.3-1.1-0.7-2.1-1c-0.7-0.2-1.1-0.1-1.3-0.1c-0.6,0.1-1.1,0.3-1.3,0.4
			c-0.4,0.2-0.7,0.5-0.9,0.6c-0.4,0-0.7,0.1-1.1,0.1c-1.5,0.1-2.9,0.2-4.3,0.2c-0.1-0.6-0.4-1.5-0.8-2.5c-0.8-1.6-1.8-2.6-2.3-3
			c-1-1-2-1.6-2.7-2C222.3,287.3,221.2,286.9,220.4,286.7z"/>
		<g>
			<path class="st12" d="M218,302.2c-1.1-1.3-0.2-4.1,1.6-4.6c0.5-0.2,1.1-0.1,1.7,0c0.5,0.2,1,0.5,1.3,1c0.2,0.3,0.4,0.7,0.4,1.1
				c0,0.3,0,0.6,0,1c-0.1,0.4-0.2,0.8-0.5,1.1C221.5,303.3,219,303.3,218,302.2z"/>
			<path d="M222.2,302.1c-0.8,0-1.7-0.7-2.2-1.9c-0.5-1.1-0.4-2.3,0.2-2.8c1.2,0,2.5,0.5,2.8,1.8c0,0,0,0.1,0,0.2
				c0,0.1,0.1,0.2,0.1,0.3c0.1,0.3,0.1,0.6,0,0.9c-0.1,0.4-0.2,0.7-0.4,1c-0.1,0.1-0.2,0.2-0.2,0.3
				C222.4,301.9,222.3,302,222.2,302.1z"/>
		</g>
		<g>
			<path class="st12" d="M223.1,295.3c-1-1.2-0.2-3.8,1.5-4.4c0.5-0.1,1.1-0.1,1.6,0c0.5,0.2,0.9,0.5,1.3,1c0.2,0.3,0.4,0.7,0.4,1
				c0,0.3,0,0.6,0,0.9c-0.1,0.4-0.2,0.8-0.5,1.1C226.3,296.4,224,296.4,223.1,295.3z"/>
			<path d="M227,295.2c-0.7,0-1.6-0.7-2-1.8c-0.4-1.1-0.3-2.1,0.2-2.7c1.1,0,2.3,0.5,2.6,1.7c0,0,0,0.1,0,0.1c0,0.1,0,0.2,0.1,0.3
				c0.1,0.3,0.1,0.6,0,0.8c-0.1,0.3-0.2,0.7-0.4,1c-0.1,0.1-0.2,0.2-0.2,0.3C227.1,295.1,227.1,295.2,227,295.2z"/>
		</g>
	</g>
	<g>
		<path class="st21" d="M432.1,536c1.4,1.4,4.1,4.6,5.1,9.3c1.3,6.1-1,11-2.4,13.9c-0.7,1.4-3.4,6.9-9.5,11.2
			c-6.2,4.4-12.3,5.3-18.6,6.1c-8.1,1.1-14.4,0.3-16.4,0c-3.6-0.5-3.4-0.9-19.3-5.4c-7.8-2.2-9.8-2.7-12.5-3.2
			c-3.9-0.7-6.8-1-12.7-1.5c-6.2-0.5-9.4-0.8-11.7-0.5c-3.8,0.5-8.4,1.1-12,4.9c-0.6,0.7-3.7,4.1-3.9,9.2c0,0.5-0.1,2.9,1,5.7
			c0.2,0.6,1.4,3.3,4.5,6.2c4.8,4.3,10.3,5.5,12.7,5.9c7.6,1.5,14-0.4,17.2-1.5c-2.4-0.1-5.8-0.3-9.8-1.3c-3-0.7-7.3-1.8-11.7-4.9
			c-3.4-2.3-7-4.8-7.4-8.9c0-0.3-0.2-3.4,1.9-5.9c1.3-1.5,3.1-2.3,6.1-2.8c6.3-1.2,11.5-0.3,12.7-0.1c11.2,2,16.8,2.9,20.4,3.9
			c10.5,2.7,10.6,3.6,19,5.3c4.8,1,9.6,1.7,15.1,2.1c3.3,0.2,5.4,0.3,8.3,0.1c8.9-0.6,15.3-3.6,17-4.4c2.7-1.3,6.6-3.2,10.6-7.2
			c1.7-1.7,5.9-6,8.1-13c1.4-4.6,1.4-8.4,1.4-11.1c0-2.6,0-5.6-1.2-9.2c-1.5-4.9-5.4-11.4-8.3-10.8
			C433.2,528.5,432.3,534.3,432.1,536z"/>
		<path class="st33" d="M331.5,488.8c-1-0.3-2.5-0.8-4.3-1.3c-3.6-1-7.8-2.1-13-1.8c-1.8,0.1-4.3,0.4-7.4,1.3
			c0.1-1.2,0.1-3.2-0.5-5.4c-0.6-2-1.6-5.8-4.6-6.6c-2.5-0.7-4.9,1.2-5.3,1.5c-2.4,1.9-2.8,4.7-3.1,6.6c-0.2,1.1-0.8,6.3,2.5,10.5
			c0.8,1,1.6,1.7,2.1,2.1c-0.9,1.4-2.1,3.5-3.5,6.1c-6.9,13.1-8.2,22.4-8.5,24.8c-0.4,2.8-0.3,4.4-0.2,7.2c0.2,4.7,0.9,5.8,1.3,6.4
			c1.5,2,4,2.5,5.6,2.8c1.4,0.3,4.9,0.7,12.7-2.3c7.8-3,12.9-6.8,14.8-8.2c3-2.3,5.2-4.5,6.7-6.1c1.5,1.3,3.4,2.6,5.6,3.9
			c2.6,1.5,5,2.6,7.1,3.5c-0.4,1.6-0.9,3.5-1.3,5.6c-0.8,3.9-0.7,5-1.8,6.2c-0.9,1-2.5,2.2-4.4,2.5c-1.2,0.2-2,0-3.3,0.5
			c-0.4,0.2-1.4,0.6-2.1,1.6c-1.5,2-0.4,4.7-0.3,5c0.9-0.9,1.7-1.9,2.6-2.8c-0.1,0.6-0.1,1.2-0.1,1.9c0,1.1,0.2,2.1,0.4,2.9
			c0.4-0.5,0.8-1.1,1.2-1.7c0.7-0.9,1.5-1.7,2.2-2.3c0,0.5,0,1.4,0.3,2.3c0.4,1.1,1,1.8,1.3,2.2c-0.1-0.5-0.3-1.4,0.1-2.2
			c0.3-0.7,0.9-1.1,2.4-2c1.4-0.8,2-1.2,2.7-1.6c1.9-1.1,3.2-2.5,4.3-3.8c3.4-3.8,4.7-8.9,5-10.4c1,0.2,2,0.4,3,0.6
			c0.3,1.2,0.5,2.4,0.8,3.6c0.3,1.4,0.4,2.6,0.5,3.6c0.1,0.5,0.1,1.5,0.2,2.7c0,0.8,0,0.4,0,2.2c0,0,0,0.5-0.1,1.2
			c-0.1,0.5-0.1,0.7-0.2,0.9c-0.1,0.1-0.2,0.4-0.4,0.5c-0.1,0.1-0.4,0.2-0.9,0.3c-0.6,0.1-1.1,0-1.4-0.1c-0.8-0.2-1-0.3-1.5-0.4
			c-0.3-0.1-1.3-0.3-2.5,0c-0.3,0.1-1.3,0.3-2,1.1c-1.2,1.3-0.8,3.2-0.8,3.4c0.3-0.1,0.5-0.3,0.9-0.4c0.8-0.3,1.5-0.5,2.1-0.5
			c-0.2,0.3-0.6,0.8-0.8,1.5c-0.3,0.9-0.3,1.6-0.3,2.1c0.5-0.1,0.9-0.3,1.4-0.4c0.9-0.5,1.9-1,2.8-1.6c-0.1,0.3-0.2,0.7-0.3,1
			c-0.3,1.2-0.4,2.2-0.5,3.1c1-0.9,1.9-1.6,2.6-1.9c0.9-0.5,2.8-1.6,5.3-1.7c1.4-0.1,2,0.2,3-0.2c1-0.4,1.5-1.2,2-1.8
			c1.5-2.4,2.1-4.9,2.9-8.9c0.3-1.3,0.6-2.8,0.9-4.6c3.8,1.2,7.1,2,9.7,2.6c5,1.1,7.4,1.7,10.8,1.9c1.2,0.1,3.8,0.2,7.9,0.6
			c0.8,0.1,1.5,0.1,2,0.2c-0.5,0.3-1.2,0.6-2,1c-1.6,0.7-2.9,1-3.7,1.2c-3.6,0.8-4.4,0.5-7.2,1.1c-2.8,0.6-4.7,1.6-5.8,2.1
			c-3.7,1.9-4.6,3.4-4.9,4c-0.4,0.9-0.6,1.7-0.7,2.2c0.5-0.4,1.1-0.8,1.7-1.2c1.2-0.7,2.3-1.1,3.3-1.4c-0.4,0.4-0.9,1-1.3,1.9
			c-0.7,1.6-0.4,3.1-0.3,3.7c0.3-0.5,0.7-1,1.2-1.5c1.2-1.2,2.5-1.9,3.4-2.3c-0.3,0.5-0.7,1.3-1,2.3c-0.4,1.8,0.2,3.4,0.4,4
			c0.3-0.7,0.9-1.6,1.8-2.6c1.4-1.4,3-2.1,3.9-2.5c6.1-2.4,12.6-3.2,12.6-3.2c7.9-1,7.3-0.4,11-1.1c3.5-0.6,8.8-1.6,14.4-5.2
			c6.8-4.3,10-10,10.9-11.6c0.6-1.2,3.1-6,3.7-12.8c0.6-6.5-0.9-11.4-2.3-15.8c-1.3-4.2-4.2-13.1-12.3-21.7
			c-2.5-2.6-8.1-8.5-17.6-12.3c-6.6-2.6-12.1-3-15.3-3.2c-13.5-0.8-23.8,3.4-29,5.7c-4.2,1.8-7.5,3.7-9.8,5.1
			c-0.6-0.5-1.6-1.1-2.8-1.5c-2.6-0.9-4.9-0.4-6.8,0c-3.7,0.8-6.1,2.5-6.7,2.9C333.2,486.8,332.2,488,331.5,488.8z"/>
		<path class="st21" d="M285.8,533.2c-0.8,0.4-1.3,1.2-1.5,1.6c-0.3,0.5-1.1,1.8-0.6,3.3c0,0.1,0.5,1.6,2,2.2c1.6,0.7,3.2-0.2,4-0.7
			c0.8-0.4,2.5-1.4,2.5-2.8C292.4,534.7,288.1,532.1,285.8,533.2z"/>
		<path class="st21" d="M301.3,492c0-0.6,0.1-1.5,0.1-2.5c0-1.2,0-2.8-0.2-4.7c-0.2-1.4-0.3-2.5-0.7-4c-0.5-1.5-0.8-2.6-2-3.4
			c-0.7-0.5-1.5-0.7-2-0.8c-0.4,0.4-1,0.9-1.6,1.7c-0.2,0.3-0.6,1-1.1,2.4c-0.5,1.7-0.6,3.1-0.7,4.2c0,1.2,0,2.9,0.6,4.9
			c0.6,1.7,1.4,2.8,2.3,4.3c0.6,0.9,1.2,1.6,1.6,2.1C298.9,494.7,300.1,493.4,301.3,492z"/>
		<path class="st21" d="M332,498.9c0.1-0.5,0.3-1.1,2-3.5c1.7-2.4,3-4.1,5.3-6.5c3.3-3.2,5.1-5,8-5.4c1.2-0.2,2.1-0.2,2.8,0
			c1.5,0.4,2.5,1.5,3,2.1c1.8,2.1,2.1,4.4,2.1,5.3c0,0.4,0.1,1.9-0.4,3.7c-0.1,0.4-0.7,2.2-2.7,4.7c-2.7,3.3-5.7,4.9-6.4,5.3
			c-3.5,1.8-6.5,3.4-9.5,2.1C333.3,505.4,331.4,501.7,332,498.9z"/>
		<g>
			<path class="st12" d="M306.3,511.8c0.6-3.4-3.6-7.5-7.5-6.6c-1.1,0.3-2.2,0.9-2.9,1.8c-0.8,0.9-1.2,2-1.4,3.1
				c-0.1,0.8,0,1.6,0.3,2.4c0.3,0.6,0.6,1.2,1,1.7c0.6,0.7,1.2,1.2,2,1.5C301.2,517.2,305.7,514.8,306.3,511.8z"/>
			<path class="st13" d="M298.8,515.8c1.4-0.8,2.3-3,2-5.5c-0.3-2.5-1.6-4.4-3.2-4.8c-2.1,1.2-3.9,3.4-3.1,5.9c0,0,0.1,0.3,0.1,0.3
				c0.1,0.2,0.1,0.4,0.2,0.6c0.2,0.6,0.5,1.1,0.9,1.6c0.5,0.6,1.1,1.1,1.8,1.4c0.2,0.1,0.5,0.2,0.7,0.3
				C298.4,515.7,298.6,515.7,298.8,515.8z"/>
		</g>
		<g>
			<path class="st12" d="M323.4,515.5c0.6-3.4-3.6-7.5-7.5-6.6c-1.1,0.3-2.2,0.9-2.9,1.8c-0.8,0.9-1.2,2-1.4,3.1
				c-0.1,0.8,0,1.6,0.3,2.4c0.3,0.6,0.6,1.2,1,1.7c0.6,0.7,1.2,1.2,2,1.5C318.3,520.9,322.8,518.5,323.4,515.5z"/>
			<path class="st13" d="M315.9,519.5c1.4-0.8,2.3-3,2-5.5c-0.3-2.5-1.6-4.4-3.2-4.8c-2.1,1.2-3.9,3.4-3.1,5.9c0,0,0.1,0.3,0.1,0.3
				c0.1,0.2,0.1,0.4,0.2,0.6c0.2,0.6,0.5,1.1,0.9,1.6c0.5,0.6,1.1,1.1,1.8,1.4c0.2,0.1,0.5,0.2,0.7,0.3
				C315.4,519.4,315.6,519.5,315.9,519.5z"/>
		</g>
	</g>
	<g>
		<path class="st21" d="M278.6,61.9c-1.5-0.2-3.5-0.6-5.9-1.1c-3.2-0.7-8.6-2-14.3-4.7c-3.7-1.7-2.7-1.8-12.2-7.3
			c-5-2.9-6.5-3.6-8.5-4c-4.5-0.9-8.4,0-10.9,0.9c0.1-1.7,0.1-4.4-0.9-7.4c-0.6-1.9-2.4-7.6-5.9-8c-4.4-0.6-8,7.8-8.4,8.8
			c-0.2,0.4-3.2,7.7-0.5,10.1c0.6,0.6,1.7,1,2.3,0.6c0.6-0.4,0.4-1.6,0.2-3.3c-0.1-1.1-0.2-1.7-0.6-2.8c-1-3.3,2.5-10.7,5.5-10.6
			c3.3,0.1,7.3,9.6,4.2,13.5c-0.6,0.7-1.6,1.3-1.6,1.3c-1.3,0.8-2.3,1-3.2,1.3c-1.5,0.6-2.3,1.4-3.9,3c0,0-2.1,2.2-3.5,5
			c-2.9,6-0.8,17.5,3.4,27.5c1.1,2.6,2.8,6.2,5.4,10.3c0.3,0.5,0.6,1.2,0.8,2.2c0.4,2.2-0.3,3.9-0.7,5.1c-2.3,5.9-3.4,8.9-2.5,10.6
			c0.5,1,1.4,1.7,2.8,2.6c2,1.4,2.6,1,4.1,2c1.7,1.1,1.5,2,4.4,5.9c1.3,1.8,2.6,3.5,3,3.3c0.6-0.3-3-7.6-2.4-7.9
			c0.2-0.1,1,0.7,1.4,1.3c0.3,0.5,0.4,0.8,0.6,1.4c0.7,1.7,0.9,1.5,1.3,2.7c0.5,1.5,0.2,2,0.8,2.6c0.5,0.5,1.4,0.8,1.7,0.4
			c0.6-0.5-0.5-2.6-1.1-3.8c-1.6-3.2-3.4-4.8-2.9-5.5c0.2-0.2,0.5-0.3,0.8-0.3c0.4,0.1,0.6,0.7,0.7,1.1c0.3,0.9,1.3,1.7,1.8,2.6
			c1.9,3.7,1.6,2.9,1.8,3.5c0.3,0.9,0.6,0.9,1,1.1c0.3,0.1,0.3,0.1,1.1-0.4c0.6-0.3,0.3-1,0-1.6c-1.2-2.5-4.4-5.8-5.4-6.8
			c0-0.1,0-0.2,0.1-0.3c0.2-0.1,0.4,0,0.6,0c0.6,0.2,1,0.8,1.1,0.9c0.7,1.1,1,0.8,1.8,1.8c1.1,1.5,1,2.6,2.1,3.3
			c0.5,0.3,0.7,0.2,0.7,0.2c0.5-0.3-0.3-2.3-0.3-2.4c-0.5-1.4-1.3-2.3-1.7-2.7c-1.5-1.6-3-2.2-2.9-2.6c0.1-0.2,0.4-0.2,0.6-0.2
			c0.3,0,0.5,0.2,0.6,0.3c0.7,0.5,3.5,1.3,3.9,0.7c0.3-0.5-0.4-1.9-1.5-2.3c-0.6-0.2-0.9,0-1.8-0.1c-1.2-0.1-1.4-0.6-2.7-1
			c-1.7-0.5-2,0.2-3.2-0.4c-1-0.5-1.9-1.6-2.1-2.7c-0.1-0.3-0.1-0.5-0.1-0.7c0.5-0.2,1.2-0.6,1.9-1.2c0.5-0.4,2.1-1.8,3.3-7.2
			c0.8-3.4,0.9-6.1,1.1-8.1c0.1-1.7,0.1-3.2,0.1-4.2c0.6,1,1.3,2,2.1,3c3.7,4.5,8.2,6.8,11.3,8c-0.1,0.3-0.3,0.7-0.6,1.3
			c-0.8,1.7-0.9,1.8-1,2.1c-0.4,1.3,0.7,2.4,1.5,3.7c1.1,2,0.5,2.4,1.5,6.2c0.8,3,1.2,2.7,3.5,9c0.9,2.4,1.3,3.6,1.5,4.7
			c0.5,2.9,0,3.7,0.9,5.8c0.7,1.7,1.8,3.1,2.3,3.6c0.4,0.5,1.4,0.8,1.6,1.7c0.1,0.4,0,0.7,0.3,1.2c0.2,0.5,0.7,0.7,1,0.6
			c0.3-0.1,0.5-0.5,0.6-1.3c0.2-3-0.6-5.4-0.4-5.5c0.1,0,0.4,0.7,0.9,1.7c0.5,1,0.9,1.9,1.5,2.7c0.2,0.3,1.4,2.1,3.6,2.4
			c0.7,0.1,0.9-0.1,0.9-0.1c0.2-0.3-0.1-0.6-1-1.8c-0.3-0.5-0.6-0.9-1.1-1.8c-0.4-0.6-0.6-1.1-0.8-1.4c-0.2-0.4-0.4-0.7-0.5-1
			c0.6,0.6,1.2,0.9,1.7,1c0.8,0.3,1.1,0.2,1.7,0.6c0.5,0.3,0.5,0.5,1.1,1.3c0.4,0.4,1.2,1.2,1.6,1.1c0.3-0.2,0.3-1-0.1-2
			c-0.8-2.1-2.1-2.5-3.6-4.6c-0.9-1.2-1.3-2.3-1.8-3.6c-0.5-1.3-1.2-3.1-1.3-5.5c-0.1-2.5,0.4-4.4,0.8-5.8c0.8-2.5,1.7-4.2,3.3-6.8
			c1.9-3.1,4.2-6.8,8.4-10.1c0.5-0.4,0.9-0.7,1.2-0.9c-0.1,0.5-0.3,1.1-0.4,1.9c-0.2,1.3-0.3,2.9,0.1,5.1c0.1,0.6,0.4,2.3,2.3,6.8
			c1.7,4,3.1,7.1,3.1,7.1c1.1,2.3,1.5,3.2,1.5,4.6c0,0.7-0.2,1.5,0.2,1.8c0.4,0.2,1.2-0.2,1.7-0.9c0.8-1,0.3-2,1.1-2.7
			c0.5-0.4,1.1-0.4,1.3-0.4c1.8,0,3.1,2.2,3.6,3.1c0.8,1.4,1.3,2.1,1.6,3.1c0.2,0.6,0.3,1.3,0.8,1.5c0.4,0.2,1,0.1,1.3-0.2
			c0.8-0.7,0.4-2.2,0.2-2.7c-0.7-2.9-3.3-4.3-3-4.7c0.2-0.2,1,0.2,1.3,0.3c0.7,0.3,2.1,1,4.1,3.5c0.7,0.9,1.1,1.4,1.7,1.4
			c0.5,0,1.1-0.4,1.2-0.9c0.2-0.7-0.8-1.1-1-2.5c-0.1-0.6,0-0.7,0-1.1c-0.2-1.2-1.5-2-3.6-3.2c-2.4-1.4-3.6-2-4-2.4
			c-2.8-2.5-2.9-6.4-2.9-6.7c0-1,0.2-1.1,0.9-4.4c0.5-2.3,0.9-4.6,1.1-5.9c0.3-2,0.5-5-0.1-8.7c0.7,0.4,1.5,0.8,2.4,1
			c2.9,0.8,5.5,0,7.3-0.5c0.5-0.1,1-0.3,1.2-0.4c0.3,0.1,0.7,0.3,1.2,0.3c2.1,0.2,3.8-2,4.2-2.5c1.5-1.9,1.5-4,1.5-5.6
			c0-2.3-0.6-3-0.9-3.2c-0.5-0.5-1.2-0.7-1.6-0.8c-0.6-0.6-1.2-1.3-1.8-2.1c-0.2-0.3-0.5-0.6-0.7-0.9c0.3-0.4,0.7-0.8,0.9-1.3
			c1.7-3.1,0.7-6.5,0.3-7.7c0.1-0.1,0.4-0.5,0.4-1.1c0-0.6-0.3-1-0.4-1.1c-2.3-1.7-4.4-3-5.9-3.9c-4.5-2.6-6.4-3.1-7.4-3.2
			c-0.8-0.1-2.1-0.4-3.9-0.3c-1,0.1-4.6,0.4-7.6,3.1C279.4,60.9,279,61.5,278.6,61.9z"/>
		<path class="st22" d="M281.6,67.8c-0.3-1.4-0.5-2-1-2.4c-1-0.6-2.7,0-3.6,0.9c-1.5,1.6-1.4,4.6,0.1,6.4c1.2,1.4,3.3,2.4,4.5,1.7
			C282.8,73.8,282.3,71.5,281.6,67.8z"/>
		<path class="st22" d="M305,66.9c-0.4,0.2-0.9,0.5-1.5,0.9c-0.7,0.4-0.8,0.5-1.1,0.6c-0.9,0.2-1.5-0.6-2.2-0.9
			c-1.8-0.8-4.9,0.5-6.1,2.9c-0.1,0.2-1.1,2.1-0.3,3.8c0.3,0.6,1,1.2,2.4,2.4c1.3,1.2,1.9,1.5,2.1,2.3c0.2,0.7-0.1,1.3-0.3,1.8
			c-0.8,2.4-0.5,6,1.2,8c1,1.1,2.5,1.8,2.7,1.9c0.7,0.3,1.1,0.3,1.2,0.3c1.2,0.1,2.1-0.5,2.6-0.9c1.1-0.7,1.6-1.6,1.9-2.2
			c0.6-1,0.8-1.8,0.9-2.3c0.3-1.1,0.2-1.9,0.2-3.5c0-0.4,0-1-0.3-1.6c-0.2-0.5-0.4-0.7-0.5-0.8c-0.3-0.3-0.6-0.5-0.8-0.6
			c-0.3-0.1-0.6-0.2-0.7-0.2c-0.2-0.2-0.4-0.4-0.5-0.6c-0.7-0.8-1.4-1.6-2-2.4c0.3-0.3,0.7-0.8,1.1-1.5c0.6-1.1,0.7-2.1,0.8-2.6
			c0.1-1,0-1.8,0-2.4C305.4,68.3,305.2,67.4,305,66.9z"/>
		<g>
			<path class="st12" d="M295,72.2c0.3-1.2,2.2-1.9,3.4-1.1c0.3,0.2,0.6,0.6,0.7,1c0.1,0.4,0.1,0.8,0,1.2c-0.1,0.3-0.2,0.5-0.4,0.7
				c-0.2,0.2-0.4,0.3-0.6,0.4c-0.3,0.1-0.6,0.2-0.9,0.2C295.9,74.6,294.8,73.2,295,72.2z"/>
			<path d="M296.9,74.5c-0.3-0.5-0.3-1.3,0.1-2.1c0.5-0.8,1.1-1.2,1.7-1.1c0.5,0.7,0.8,1.7,0.2,2.4c0,0-0.1,0.1-0.1,0.1
				c0,0.1-0.1,0.1-0.2,0.2c-0.1,0.2-0.3,0.3-0.5,0.4c-0.2,0.1-0.5,0.2-0.8,0.2c-0.1,0-0.2,0-0.3,0C297,74.6,297,74.6,296.9,74.5z"/>
		</g>
		<g>
			<path class="st12" d="M301.1,72.1c0.3-1.1,2.1-1.8,3.2-1c0.3,0.2,0.5,0.6,0.7,0.9c0.1,0.4,0.1,0.8,0,1.1
				c-0.1,0.3-0.2,0.5-0.4,0.7c-0.2,0.1-0.3,0.3-0.5,0.4c-0.3,0.1-0.5,0.2-0.8,0.2C302,74.5,300.9,73.1,301.1,72.1z"/>
			<path d="M302.9,74.4c-0.3-0.4-0.3-1.2,0.1-1.9c0.4-0.7,1.1-1.1,1.6-1c0.5,0.7,0.7,1.6,0.1,2.2c0,0-0.1,0.1-0.1,0.1
				c0,0.1-0.1,0.1-0.1,0.2c-0.1,0.2-0.3,0.3-0.5,0.4c-0.2,0.1-0.5,0.2-0.7,0.2c-0.1,0-0.2,0-0.3,0C303,74.4,303,74.4,302.9,74.4z"/>
		</g>
	</g>
	<g>
		<g>
			<path class="st23" d="M838.2,363.2c-0.3-1.8-1-3.7-2-4.8c-0.1-0.1-0.1-0.1-0.1-0.2c0,0,0.1,0,0.1,0c0.7-0.7,1.9-1.9,3.2-3.2
				c6-6,7-7.1,8.7-8.7c2.2-2,5.4-4.7,9.9-7.4c1.4-3.7,2-6.7,2.2-8.8c0.3-2.3,0.2-3.1,0.8-4.5c1.4-3.5,4.8-5.2,6.1-5.9
				c0.6-0.3,8.9-4.5,15.6-0.2c2.7,1.7,3.9,4,5,6.1c1.6,3,2.1,5.6,2.9,17.5c0.7,11,0.6,13.2,0.2,15.6c-0.7,4.3-2,7.8-3,10.1
				c0.7,1.6,1.3,3.3,1.9,5.1c1.5,4.5,2.5,8.7,3,12.5c-0.8,0.3-1.9,0.6-3.2,0.8c-3.2,0.4-5.7-0.6-6.3-0.8c-3.1-1.2-4.8-3.4-5.5-4.3
				c-1.1,1-2.4,2-3.9,3c-2.1,1.4-4.1,2.5-5.8,3.2c-0.1,1.1-0.3,2.1-0.6,2.9c-2.6,7.2-11.2,9.6-13,10.1c0.1-1.1,0.1-2.3,0-3.7
				c-0.2-1.9-0.6-3.5-1-4.8c-1,0.1-2.4,0.1-4,0.2c-2.5,0-4.8-0.1-6.7-0.2c-0.9-6.7-1.8-13.3-3.3-20.1
				C838.7,369.5,838.7,366.3,838.2,363.2z"/>
			<path class="st8" d="M873.4,333.7c-0.4,0-0.5-0.3-1.4-1.3c-1.5-1.7-1.9-1.8-1.9-2.4c0-1,1.1-1.6,1.3-1.7c1-0.5,2.4-0.8,3.7,0
				c0.2,0.1,0.7,0.6,0.8,1.4c0,0.3,0,0.7-0.9,2.1C874.2,333.1,873.8,333.7,873.4,333.7z"/>
			<path class="st36" d="M875.4,331.3c0.9-1.1,1.8-2,1.8-2c1.1-1.5,7.3-5.9,12-3.4c0.2,0.1,2.7,1.5,3.4,4.3c0.7,3.3-1.7,6-2.5,6.9
				c-1.7,1.9-3.7,2.6-4.9,3c-1.6,0.6-4.1,1.4-6.6,0.5c-4-1.5-5-6.3-5.1-6.7c0.1,0.9,0,2.4-0.6,4c-1.8,4.3-6.4,5.4-6.9,5.5
				c-3.4,0.7-6.1-0.6-7.1-1.1c-1.2-0.6-2.7-1.4-3.4-3c-1-2.4,0.2-4.8,0.5-5.3c1.5-2.8,4.3-3.8,5.1-4c4.9-1.6,9.3,1.4,10.1,1.9
				c0.8,0.5,1.4,1.1,1.8,1.5c0.1,0.1,0.2,0.3,0.4,0.4c0.3-0.3,0.6-0.8,1.1-1.3C874.8,332,875,331.7,875.4,331.3z"/>
			<path class="st12" d="M880.7,324.5c-0.3-1.6-2.9-2.6-4.4-1.5c-0.4,0.3-0.8,0.8-0.9,1.3c-0.2,0.5-0.2,1.1,0,1.6
				c0.1,0.4,0.3,0.7,0.6,1c0.2,0.2,0.5,0.4,0.7,0.5c0.4,0.2,0.7,0.3,1.1,0.3C879.5,327.7,881,325.9,880.7,324.5z"/>
			<path d="M878.2,327.6c0.5-0.6,0.4-1.7-0.1-2.7c-0.6-1-1.5-1.6-2.2-1.5c-0.7,0.9-1.1,2.2-0.3,3.1c0,0,0.1,0.1,0.1,0.1
				c0.1,0.1,0.1,0.2,0.2,0.2c0.2,0.2,0.4,0.4,0.7,0.5c0.3,0.2,0.7,0.3,1,0.3c0.1,0,0.3,0,0.4,0C878,327.6,878.1,327.6,878.2,327.6z"
				/>
			<path class="st12" d="M870.9,326c-0.5-1.5-3.2-2.2-4.5-1c-0.4,0.4-0.7,0.9-0.8,1.4c-0.1,0.5-0.1,1.1,0.2,1.6
				c0.2,0.3,0.4,0.7,0.7,0.9c0.2,0.2,0.5,0.3,0.8,0.4c0.4,0.1,0.8,0.2,1.2,0.2C870.1,329.3,871.3,327.4,870.9,326z"/>
			<path d="M868.7,329.3c0.4-0.6,0.2-1.7-0.5-2.7s-1.7-1.4-2.4-1.2c-0.5,1-0.8,2.3,0.1,3.1c0,0,0.1,0.1,0.1,0.1
				c0.1,0.1,0.1,0.1,0.2,0.2c0.2,0.2,0.5,0.3,0.7,0.4c0.3,0.1,0.7,0.2,1.1,0.2c0.1,0,0.3,0,0.4,0
				C868.6,329.4,868.7,329.4,868.7,329.3z"/>
			<g>
				<path d="M896.5,330.5c-1.1,0.2-2.1,0.3-3.1,0.5c-1,0.2-2,0.4-3,0.6c-1,0.2-1.9,0.8-2.9,0.7c-1,0-2,0-3.3-0.6l-0.1-0.3
					c0.4-0.5,0.8-0.9,1.3-1.3c0.5-0.3,1-0.6,1.5-0.8c1-0.4,2.2-0.2,3.3-0.2c1.1,0,2.2,0.1,3.2,0.3c1.1,0.2,2.1,0.4,3.1,0.7
					L896.5,330.5z"/>
			</g>
			<g>
				<path d="M895.5,335c-1.6-0.6-3.2-1-4.9-1.2c-0.8-0.1-1.7,0-2.5-0.1c-0.8-0.1-1.7-0.1-2.5-0.3l0-0.1c0.8-0.4,1.7-0.6,2.5-0.6
					c0.9-0.1,1.8,0.1,2.6,0.3C892.4,333.3,894.1,334,895.5,335L895.5,335z"/>
			</g>
			<g>
				<path d="M893.3,338.6c-0.6-1-1.5-1.7-2.4-2.2c-0.5-0.2-1-0.3-1.5-0.5c-0.5-0.2-1-0.3-1.6-0.6l0-0.1c0.6-0.3,1.2-0.4,1.8-0.3
					c0.6,0.1,1.2,0.4,1.7,0.7C892.3,336.5,893,337.5,893.3,338.6L893.3,338.6z"/>
			</g>
			<g>
				<path d="M851.7,338.7c1.2-1.1,2.6-2,4.2-2.5c0.8-0.2,1.6-0.5,2.4-0.5c0.8,0,1.7,0.1,2.4,0.5l0,0.1c-0.8,0.2-1.6,0.3-2.3,0.4
					c-0.8,0.1-1.5,0.1-2.3,0.3C854.6,337.3,853.1,337.9,851.7,338.7L851.7,338.7z"/>
			</g>
			<g>
				<path d="M852,344.6c0.4-0.8,0.9-1.6,1.5-2.3c0.6-0.7,1.2-1.4,1.9-2c0.7-0.6,1.4-1.2,2.3-1.6c0.8-0.4,1.8-0.7,2.7-0.7l0,0.1
					c-0.8,0.6-1.5,1-2.3,1.5c-0.7,0.5-1.5,0.9-2.3,1.4C854.5,341.9,853.2,343.2,852,344.6L852,344.6z"/>
			</g>
			<g>
				<path d="M855.3,346.2c0.1-0.8,0.2-1.6,0.5-2.4c0.3-0.8,0.7-1.5,1.2-2.1c0.5-0.7,1.1-1.3,1.8-1.7c0.7-0.4,1.5-0.7,2.4-0.7l0,0.1
					c-0.7,0.5-1.3,1-1.9,1.4c-0.6,0.5-1.2,0.9-1.8,1.4C856.6,343.3,855.8,344.6,855.3,346.2L855.3,346.2z"/>
			</g>
		</g>
		<path class="st36" d="M799.7,367.6c0.3-0.1,0.7-0.1,1.5-0.1c1.3,0,1.4,0.1,1.7,0c0.7-0.2,1-0.8,1.8-2.1c0.5-0.9,1.2-1.7,1.7-2.5
			c1.3-2.1,3.3-3.5,4.8-4.6c4.7-3.2,13.1-2.9,16.3-2.6c4.3,0.3,6.9,0.9,10.2,1.8c2.7,6.8,3.8,14,4.8,21.3c0.6,4.7,1.2,9.5,1.7,14.2
			c0,0-0.1,0-0.1,0c-2.1-0.2-4.7-0.6-7.8-1.4c-0.2,0-0.5-0.1-0.9,0c-1.1,0.2-1.6,1.4-1.9,1.8c-1.1,2.1-1.6,3.1-6.8,15
			c-0.1,0.3-0.5,1.1-0.5,2.2c0,0.7,0.2,1.3,0.3,1.5c0.6,1.8,1.1,3.7,1.9,5.4c2.1,4.5,2,7.2,5,14.1c2,4.6,2.6,4.8,2.9,6.3
			c0.1,0.3,0.2,1.3,1,2c0.5,0.5,1,0.6,1.6,0.9c1.3,0.5,2.4,1.3,3,1.7c1.9,1.5,2.5,3.6,2.6,4.2c0.3,1,0.4,1.6,0.2,2
			c-0.7,1.8-4.4,0.6-12.5,0.6c-0.6,0-2.1,0-2.4-0.8c-0.3-0.6,0.2-1.5,0.6-2.4c0.7-1.4,1.4-1.8,1.2-2.4c-0.1-0.4-0.5-0.8-0.9-0.9
			c-0.5-0.2-0.7,0.2-1,0c-0.5-0.3-0.5-1.4-0.4-2.1c0.1-0.8,0.4-0.9,0.5-1.5c0.1-0.9-0.2-1.6-0.4-2c-1-2.3-0.2-1.4-1.6-4.3
			c-1-2.2-5.1-10.3-10.9-21.2c-0.1-0.1-0.2-0.3-0.3-0.5c-0.2-0.5,0-0.9,0-1.1c0.3-0.9,1.1-1.3,1.2-1.3c0-0.4,0-1,0-1.7
			c0-2.6,0-3.8,0.1-4.6c0.1-1.9,0.5-4-0.1-5.2c-0.2-0.5-0.5-0.7-0.6-0.7c-0.3-0.1-0.7,0.1-1.1,0.4c-0.8,0.5-1.1,0.8-1.6,1.3
			c-1.2,1.4-1.9,1.4-3,2.5c-0.3,0.3-1.3,1.4-2,4.3c-0.5,1.9-0.7,3.8-0.4,8.6c0.4,8.7,1.3,9.4,1.2,12.6c0,0.2-0.1,1.9,0.6,3.7
			c0.3,0.7,0.6,1.2,0.9,1.5c0.7,0.7,1.3,0.8,2.1,1.2c1.8,0.9,2.7,2.4,3.2,3.3c0.6,1,1.4,2.3,0.9,3c-0.2,0.3-0.5,0.5-2.4,0.7
			c-1.9,0.2-3.4,0.2-3.4,0.2c-3.1,0-2.6-0.4-4.5-0.3c-1.3,0.1-2.3,0.3-3.4-0.3c-0.3-0.2-0.7-0.4-0.8-0.8c-0.3-0.8,0.2-1.8,0.9-3.2
			c0.4-0.8,0.7-1.2,0.7-1.9c0-0.2,0-0.8-0.4-1c-0.3-0.2-0.5,0-0.8-0.1c-0.5-0.2-0.8-0.6-0.9-0.7c-0.5-0.7-0.3-1.5-0.2-2
			c0.2-1.2,0.7-2,0.7-2c0.7-1.1,0.3-8.1-2.2-26.8c-0.1-0.2-0.2-0.6-0.1-1.1c0.1-1,0.6-1.6,0.8-1.9c0.4-0.5,3.4-4.2,4-7.9
			c0.2-1.3,0-2.2,0-2.5c-0.2-1.1-0.5-1.7-1.1-3c-0.7-1.6-1.1-2.8-1.5-4.4c-0.5-1.8-0.7-2.9-0.5-4.2c0.1-0.4,0.2-0.8,0.2-1
			c-0.3-0.2-0.6-0.4-1-0.8c-0.9-0.7-1.5-1.4-1.7-1.6c-1.2-1.3-1.8-1.9-1.7-2.6C798.6,368.7,799,367.9,799.7,367.6z"/>
	</g>
</g>
<g id="Layer_4">
	<g>
		<path class="st19" d="M-5.2,665.8c-2.8,2.4-5.8,5.1-10.3,5.7c-3.8,0.5-4.7-1.1-15.7-3.1c-4.1-0.8-8.3-0.8-12.4-0.1
			c-13.8,2-15.1,2-16.7,1.3c-3.1-1.5-6.2-4.9-5.3-7.4c0.9-2.4,5.5-2.8,6-2.8c-2.5,0.1-9.7,0-15.1-5.2c-2.9-2.8-6.4-8.1-4.7-11
			c1.9-3.2,9.4-1.4,10-3.6c0.5-1.8-4.6-3.2-4.9-6.7s4.3-7,8.2-8.2c6.5-2,12.2,1.9,13.1,2.5c0-0.2,0.4-3.6,3.1-4.9
			c2.7-1.3,6.1,0.4,7.5,2.8c0.5,0.8,0.8,1.7,0.9,2.7c0.4-1.7,1.3-3.3,2.5-4.5c1.1-1,2.4-1.8,3.9-2.3c1.4-0.5,3-0.6,4.5-0.4
			c4,0.7,7.7,4,8.1,8.3c0.2,2.2-0.5,4.5-1.8,6.3c1.4-1.6,3.1-2.8,5-3.6c2.9-1.2,8.7-2.5,11.7,0.5c3.5,3.5,1.2,10.8-1.7,14.7
			c-1.2,1.7-2.7,3.1-4.5,4.2c1.1-0.3,2.2-0.4,3.4-0.3c4.7,0.2,10.5,3.1,10.8,7.1C0.4,660.8-2.2,663.1-5.2,665.8z"/>
	</g>
	<path class="st12" d="M-11.2,122.7c-31.5,34.9-78.5-10.8-174.3,11.7c-36.8,8.7-56.9,24.8-132.7,46.1c-56.6,15.9-73.1,4.3-84.4-3.4
		c-29.1-19.8-46-81.7-20.4-101.7c7.4-5.7,21.5-16.6,30.9-17.6c16.6-1.7,44.4,8.3,49.3-3.5c3.9-9.4-2.7-16.6,3-24.9
		c9.7-14.2,40.4-10.1,51.4-8.6c17.8,2.4,23.3,10.2,37.9,10.6c52.2,1.4,68.9-4.7,79.9-7.9c38.3-11.2,66.9-27.4,78.2-19
		c5.1,3.8,8.4,8.2,11.4,17.2c5.8,17.2,23.6-10.2,46.5,27.5C-24.2,66-6.5,66-0.6,80.7C4.9,94.3-1.9,112.4-11.2,122.7z"/>
	<g>
		<path class="st40" d="M578.2,393.8c-9.5-8.6-19.7-20.4-27.2-36.2c-1.2-2.6-2.3-5.2-3.3-7.7"/>
		
			<ellipse transform="matrix(0.9771 -0.2126 0.2126 0.9771 -59.862 123.882)" class="st20" cx="546.1" cy="340.3" rx="5.6" ry="14.6"/>
		<path class="st40" d="M584,386.2c-0.8-12.8,0.1-28.4,5.8-44.9c0.9-2.7,1.9-5.3,3-7.8"/>
		
			<ellipse transform="matrix(0.531 -0.8474 0.8474 0.531 4.8082 659.8169)" class="st20" cx="598.5" cy="325.6" rx="14.6" ry="5.6"/>
		<path class="st40" d="M580.5,391.6c-6.1-11.3-11.8-25.8-13.6-43.2c-0.3-2.9-0.5-5.6-0.5-8.3"/>
		<ellipse transform="matrix(0.126 -0.992 0.992 0.126 168.635 852.3936)" class="st20" cx="568.1" cy="330.5" rx="14.6" ry="5.6"/>
		<path class="st41" d="M581.2,393.5c0.2-2.8-13.9-10.5-28.7-6.5c-10,2.7-24.8,12.1-27,28.5c-0.7,5.2,0,9.8,0.8,12.9
			c5.1-9.5,13.1-20.8,24.9-27.4C566.9,392.2,581,396.2,581.2,393.5z"/>
		<path class="st41" d="M580.9,393c-1.9-0.9-0.4-15.1,9.2-25.2c6.5-6.9,19.6-15,31.4-10.3c3.7,1.5,6.4,3.8,8.1,5.7
			c-8.7,0.4-19.8,2.3-29.8,9.1C586.8,381.2,582.8,393.9,580.9,393z"/>
	</g>
	<g>
		<path class="st40" d="M725.6,752.3c-3.1-12.5-4.9-28-2.2-45.2c0.4-2.8,1-5.6,1.6-8.2"/>
		
			<ellipse transform="matrix(0.3729 -0.9279 0.9279 0.3729 -182.9947 1109.2692)" class="st20" cx="729.1" cy="690" rx="14.6" ry="5.6"/>
		<path class="st40" d="M734.7,749.3c6.5-11,16.1-23.4,30-33.9c2.3-1.7,4.6-3.3,6.9-4.8"/>
		
			<ellipse transform="matrix(0.9152 -0.4029 0.4029 0.9152 -218.772 374.5127)" class="st20" cx="780.7" cy="707.2" rx="14.6" ry="5.6"/>
		<path class="st40" d="M728.7,751.7c1.3-12.8,4.7-28,13-43.4c1.4-2.5,2.8-4.9,4.2-7.2"/>
		
			<ellipse transform="matrix(0.6614 -0.75 0.75 0.6614 -265.7871 799.6698)" class="st20" cx="752.8" cy="694.2" rx="14.6" ry="5.6"/>
	</g>
</g>
<g id="Layer_10">
</g>
<g id="clouds">
	<path class="st12" d="M137.9,183.9c1.4-4,1.4-8.4,0-12.5c-3.8-10.3-16.1-12.1-17.5-12.5c-4.9-0.7-10,0.2-14.4,2.4
		c-4.5,2.2-8.1,5.7-10.6,10.1c-0.4,0.7-1,4.6-2.5,12.5v2.5c-0.7-1-1.5-1.8-2.5-2.5c-6.1-4.1-15.2-0.5-20,2.5
		c-4.7,2.9-8.2,7.3-10,12.5c-1.6,4.9-1.6,10.1,0,15c2.1,7.1,6.5,13.3,12.5,17.5h112.6c-2.9-2.1-5.4-4.6-7.5-7.5c-2.4-2.9-4-6.4-5-10
		c-1.3-5.8,0.9-7.1,0-12.5c-1-4.9-3.7-9.3-7.5-12.5c-4.9-3.9-10.3-4.4-17.5-5C144.5,183.7,141.2,183.7,137.9,183.9z"/>
	<path class="st12" d="M527.9,183.9c1.4-4,1.4-8.4,0-12.5c-3.8-10.3-16.1-12.1-17.5-12.5c-4.9-0.7-10,0.2-14.4,2.4
		c-4.5,2.2-8.1,5.7-10.6,10.1c-0.4,0.7-1,4.6-2.5,12.5v2.5c-0.7-1-1.5-1.8-2.5-2.5c-6.1-4.1-15.2-0.5-20,2.5
		c-4.7,2.9-8.2,7.3-10,12.5c-1.6,4.9-1.6,10.1,0,15c2.1,7.1,6.5,13.3,12.5,17.5h112.6c-2.9-2.1-5.4-4.6-7.5-7.5c-2.4-2.9-4-6.4-5-10
		c-1.3-5.8,0.9-7.1,0-12.5c-1-4.9-3.7-9.3-7.5-12.5c-4.9-3.9-10.3-4.4-17.5-5C534.6,183.7,531.2,183.7,527.9,183.9z"/>
	<path class="st12" d="M160.1,542.7c1.4-4,1.4-8.4,0-12.5c-3.8-10.3-16.1-12.1-17.5-12.5c-4.9-0.7-10,0.2-14.4,2.4
		c-4.5,2.2-8.1,5.7-10.6,10.1c-0.4,0.7-1,4.6-2.5,12.5v2.5c-0.7-1-1.5-1.8-2.5-2.5c-6.1-4.1-15.2-0.5-20,2.5
		c-4.7,2.9-8.2,7.3-10,12.5c-1.6,4.9-1.6,10.1,0,15c2.1,7.1,6.5,13.3,12.5,17.5h112.6c-2.9-2.1-5.4-4.6-7.5-7.5c-2.4-2.9-4-6.4-5-10
		c-1.3-5.8,0.9-7.1,0-12.5c-1-4.9-3.7-9.3-7.5-12.5c-4.9-3.9-10.3-4.4-17.5-5C166.8,542.4,163.4,542.4,160.1,542.7z"/>
	<path class="st12" d="M711.5,379.6c1.4-4,1.4-8.4,0-12.5c-3.8-10.3-16.1-12.1-17.5-12.5c-4.9-0.7-10,0.2-14.4,2.4
		c-4.5,2.2-8.1,5.7-10.6,10.1c-0.4,0.7-1,4.6-2.5,12.5v2.5c-0.7-1-1.5-1.8-2.5-2.5c-6.1-4.1-15.2-0.5-20,2.5
		c-4.7,2.9-8.2,7.3-10,12.5c-1.6,4.9-1.6,10.1,0,15c2.1,7.1,6.5,13.3,12.5,17.5H759c-2.9-2.1-5.4-4.6-7.5-7.5c-2.4-2.9-4-6.4-5-10
		c-1.3-5.8,0.9-7.1,0-12.5c-1-4.9-3.7-9.3-7.5-12.5c-4.9-3.9-10.3-4.4-17.5-5C718.2,379.3,714.8,379.3,711.5,379.6z"/>
	<path class="st12" d="M609.1,663.5c1.4-4,1.4-8.4,0-12.5c-3.8-10.3-16.1-12.1-17.5-12.5c-4.9-0.7-10,0.2-14.4,2.4
		c-4.5,2.2-8.1,5.7-10.6,10.1c-0.4,0.7-1,4.6-2.5,12.5v2.5c-0.7-1-1.5-1.8-2.5-2.5c-6.1-4.1-15.2-0.5-20,2.5
		c-4.7,2.9-8.2,7.3-10,12.5c-1.6,4.9-1.6,10.1,0,15c2.1,7.1,6.5,13.3,12.5,17.5h112.6c-2.9-2.1-5.4-4.6-7.5-7.5c-2.4-2.9-4-6.4-5-10
		c-1.3-5.8,0.9-7.1,0-12.5c-1-4.9-3.7-9.3-7.5-12.5c-4.9-3.9-10.3-4.4-17.5-5C615.8,663.2,612.5,663.2,609.1,663.5z"/>
	<path class="st12" d="M849.3,181.5c0.9-2.5,0.9-5.3,0-7.8c-2.4-6.4-10-7.6-10.9-7.8c-3.1-0.4-6.2,0.1-9,1.5s-5.1,3.6-6.6,6.3
		c-0.2,0.4-0.6,2.9-1.6,7.8v1.6c-0.4-0.6-1-1.1-1.6-1.6c-3.8-2.6-9.5-0.3-12.5,1.6c-2.9,1.8-5.1,4.6-6.2,7.8c-1,3-1,6.3,0,9.3
		c1.3,4.4,4,8.3,7.8,10.9H879c-1.8-1.3-3.4-2.9-4.7-4.7c-1.5-1.8-2.5-4-3.1-6.2c-0.8-3.6,0.6-4.4,0-7.8c-0.6-3.1-2.3-5.8-4.7-7.8
		c-3-2.4-6.4-2.7-10.9-3.1C853.5,181.3,851.4,181.3,849.3,181.5z"/>
	<path class="st12" d="M434,397.5c0.9-2.5,0.9-5.3,0-7.8c-2.4-6.4-10-7.6-10.9-7.8c-3.1-0.4-6.2,0.1-9,1.5c-2.8,1.4-5.1,3.6-6.6,6.3
		c-0.2,0.4-0.6,2.9-1.6,7.8v1.6c-0.4-0.6-1-1.1-1.6-1.6c-3.8-2.6-9.5-0.3-12.5,1.6c-2.9,1.8-5.1,4.6-6.2,7.8c-1,3-1,6.3,0,9.3
		c1.3,4.4,4,8.3,7.8,10.9h70.3c-1.8-1.3-3.4-2.9-4.7-4.7c-1.5-1.8-2.5-4-3.1-6.2c-0.8-3.6,0.6-4.4,0-7.8c-0.6-3.1-2.3-5.8-4.7-7.8
		c-3-2.4-6.4-2.7-10.9-3.1C438.2,397.4,436.1,397.4,434,397.5z"/>
	<path class="st12" d="M70.4,42.8c0.9-2.5,0.9-5.3,0-7.8c-2.4-6.4-10-7.6-10.9-7.8c-3.1-0.4-6.2,0.1-9,1.5c-2.8,1.4-5.1,3.6-6.6,6.3
		c-0.2,0.4-0.6,2.9-1.6,7.8v1.6c-0.4-0.6-1-1.1-1.6-1.6c-3.8-2.6-9.5-0.3-12.5,1.6c-2.9,1.8-5.1,4.6-6.2,7.8c-1,3-1,6.3,0,9.3
		c1.3,4.4,4,8.3,7.8,10.9h70.3c-1.8-1.3-3.4-2.9-4.7-4.7c-1.5-1.8-2.5-4-3.1-6.2c-0.8-3.6,0.6-4.4,0-7.8c-0.6-3.1-2.3-5.8-4.7-7.8
		c-3-2.4-6.4-2.7-10.9-3.1C74.6,42.6,72.5,42.6,70.4,42.8z"/>
	<path class="st12" d="M440.9,35.2c0.9-2.5,0.9-5.3,0-7.8c-2.4-6.4-10-7.6-10.9-7.8c-3.1-0.4-6.2,0.1-9,1.5
		c-2.8,1.4-5.1,3.6-6.6,6.3c-0.2,0.4-0.6,2.9-1.6,7.8v1.6c-0.4-0.6-1-1.1-1.6-1.6c-3.8-2.6-9.5-0.3-12.5,1.6
		c-2.9,1.8-5.1,4.6-6.2,7.8c-1,3-1,6.3,0,9.3c1.3,4.4,4,8.3,7.8,10.9h70.3c-1.8-1.3-3.4-2.9-4.7-4.7c-1.5-1.8-2.5-4-3.1-6.2
		c-0.8-3.6,0.6-4.4,0-7.8c-0.6-3.1-2.3-5.8-4.7-7.8c-3-2.4-6.4-2.7-10.9-3.1C445.1,35.1,443,35.1,440.9,35.2z"/>
	<path class="st12" d="M1017.6,29.6c0.9-2.5,0.9-5.3,0-7.8c-2.4-6.4-10-7.6-10.9-7.8c-3.1-0.4-6.2,0.1-9,1.5
		c-2.8,1.4-5.1,3.6-6.6,6.3c-0.2,0.4-0.6,2.9-1.6,7.8v1.6c-0.4-0.6-1-1.1-1.6-1.6c-3.8-2.6-9.5-0.3-12.5,1.6
		c-2.9,1.8-5.1,4.6-6.2,7.8c-1,3-1,6.3,0,9.3c1.3,4.4,4,8.3,7.8,10.9h70.3c-1.8-1.3-3.4-2.9-4.7-4.7c-1.5-1.8-2.5-4-3.1-6.2
		c-0.8-3.6,0.6-4.4,0-7.8c-0.6-3.1-2.3-5.8-4.7-7.8c-3-2.4-6.4-2.7-10.9-3.1C1021.8,29.4,1019.7,29.4,1017.6,29.6z"/>
	<path class="st12" d="M231.2,667.6c0.9-2.5,0.9-5.3,0-7.8c-2.4-6.4-10-7.6-10.9-7.8c-3.1-0.4-6.2,0.1-9,1.5
		c-2.8,1.4-5.1,3.6-6.6,6.3c-0.2,0.4-0.6,2.9-1.6,7.8v1.6c-0.4-0.6-1-1.1-1.6-1.6c-3.8-2.6-9.5-0.3-12.5,1.6
		c-2.9,1.8-5.1,4.6-6.2,7.8c-1,3-1,6.3,0,9.3c1.3,4.4,4,8.3,7.8,10.9h70.3c-1.8-1.3-3.4-2.9-4.7-4.7c-1.5-1.8-2.5-4-3.1-6.2
		c-0.8-3.6,0.6-4.4,0-7.8c-0.6-3.1-2.3-5.8-4.7-7.8c-3-2.4-6.4-2.7-10.9-3.1C235.3,667.5,233.2,667.5,231.2,667.6z"/>
	<path class="st12" d="M1218.8,109.8c0.9-2.5,0.9-5.3,0-7.8c-2.4-6.4-10-7.6-10.9-7.8c-3.1-0.4-6.2,0.1-9,1.5
		c-2.8,1.4-5.1,3.6-6.6,6.3c-0.2,0.4-0.6,2.9-1.6,7.8v1.6c-0.4-0.6-1-1.1-1.6-1.6c-3.8-2.6-9.5-0.3-12.5,1.6
		c-2.9,1.8-5.1,4.6-6.2,7.8c-1,3-1,6.3,0,9.3c1.3,4.4,4,8.3,7.8,10.9h70.3c-1.8-1.3-3.4-2.9-4.7-4.7c-1.5-1.8-2.5-4-3.1-6.2
		c-0.8-3.6,0.6-4.4,0-7.8c-0.6-3.1-2.3-5.8-4.7-7.8c-3-2.4-6.4-2.7-10.9-3.1C1223,109.6,1220.9,109.6,1218.8,109.8z"/>
	<path class="st12" d="M897.4,585c0.9-2.5,0.9-5.3,0-7.8c-2.4-6.4-10-7.6-10.9-7.8c-3.1-0.4-6.2,0.1-9,1.5c-2.8,1.4-5.1,3.6-6.6,6.3
		c-0.2,0.4-0.6,2.9-1.6,7.8v1.6c-0.4-0.6-1-1.1-1.6-1.6c-3.8-2.6-9.5-0.3-12.5,1.6c-2.9,1.8-5.1,4.6-6.2,7.8c-1,3-1,6.3,0,9.3
		c1.3,4.4,4,8.3,7.8,10.9h70.3c-1.8-1.3-3.4-2.9-4.7-4.7c-1.5-1.8-2.5-4-3.1-6.2c-0.8-3.6,0.6-4.4,0-7.8c-0.6-3.1-2.3-5.8-4.7-7.8
		c-3-2.4-6.4-2.7-10.9-3.1C901.6,584.8,899.5,584.8,897.4,585z"/>
	<path class="st12" d="M525.6,531.7c0.9-2.5,0.9-5.3,0-7.8c-2.4-6.4-10-7.6-10.9-7.8c-3.1-0.4-6.2,0.1-9,1.5
		c-2.8,1.4-5.1,3.6-6.6,6.3c-0.2,0.4-0.6,2.9-1.6,7.8v1.6c-0.4-0.6-1-1.1-1.6-1.6c-3.8-2.6-9.5-0.3-12.5,1.6
		c-2.9,1.8-5.1,4.6-6.2,7.8c-1,3-1,6.3,0,9.3c1.3,4.4,4,8.3,7.8,10.9h70.3c-1.8-1.3-3.4-2.9-4.7-4.7c-1.5-1.8-2.5-4-3.1-6.2
		c-0.8-3.6,0.6-4.4,0-7.8c-0.6-3.1-2.3-5.8-4.7-7.8c-3-2.4-6.4-2.7-10.9-3.1C529.8,531.5,527.7,531.5,525.6,531.7z"/>
	<path class="st12" d="M413.2,635.5c0.9-2.5,0.9-5.3,0-7.8c-2.4-6.4-10-7.6-10.9-7.8c-3.1-0.4-6.2,0.1-9,1.5
		c-2.8,1.4-5.1,3.6-6.6,6.3c-0.2,0.4-0.6,2.9-1.6,7.8v1.6c-0.4-0.6-1-1.1-1.6-1.6c-3.8-2.6-9.5-0.3-12.5,1.6
		c-2.9,1.8-5.1,4.6-6.2,7.8c-1,3-1,6.3,0,9.3c1.3,4.4,4,8.3,7.8,10.9h70.3c-1.8-1.3-3.4-2.9-4.7-4.7c-1.5-1.8-2.5-4-3.1-6.2
		c-0.8-3.6,0.6-4.4,0-7.8c-0.6-3.1-2.3-5.8-4.7-7.8c-3-2.4-6.4-2.7-10.9-3.1C417.4,635.3,415.3,635.3,413.2,635.5z"/>
	<path class="st12" d="M989,358.9c0.9-2.5,0.9-5.3,0-7.8c-2.4-6.4-10-7.6-10.9-7.8c-3.1-0.4-6.2,0.1-9,1.5s-5.1,3.6-6.6,6.3
		c-0.2,0.4-0.6,2.9-1.6,7.8v1.6c-0.4-0.6-1-1.1-1.6-1.6c-3.8-2.6-9.5-0.3-12.5,1.6c-2.9,1.8-5.1,4.6-6.2,7.8c-1,3-1,6.3,0,9.3
		c1.3,4.4,4,8.3,7.8,10.9h70.3c-1.8-1.3-3.4-2.9-4.7-4.7c-1.5-1.8-2.5-4-3.1-6.2c-0.8-3.6,0.6-4.4,0-7.8c-0.6-3.1-2.3-5.8-4.7-7.8
		c-3-2.4-6.4-2.7-10.9-3.1C993.1,358.7,991,358.7,989,358.9z"/>
	<path class="st12" d="M1229.5,559.4c0.9-2.5,0.9-5.3,0-7.8c-2.4-6.4-10-7.6-10.9-7.8c-3.1-0.4-6.2,0.1-9,1.5
		c-2.8,1.4-5.1,3.6-6.6,6.3c-0.2,0.4-0.6,2.9-1.6,7.8v1.6c-0.4-0.6-1-1.1-1.6-1.6c-3.8-2.6-9.5-0.3-12.5,1.6
		c-2.9,1.8-5.1,4.6-6.2,7.8c-1,3-1,6.3,0,9.3c1.3,4.4,4,8.3,7.8,10.9h70.3c-1.8-1.3-3.4-2.9-4.7-4.7c-1.5-1.8-2.5-4-3.1-6.2
		c-0.8-3.6,0.6-4.4,0-7.8c-0.6-3.1-2.3-5.8-4.7-7.8c-3-2.4-6.4-2.7-10.9-3.1C1233.6,559.2,1231.5,559.2,1229.5,559.4z"/>
</g>
<g id="" class="st50">
</g>
<g id="" class="st50">
</g>
<g id="">
</g>
</svg>
