<?xml version="1.0" encoding="UTF-8" standalone="no"?>
<svg
   xmlns:dc="http://purl.org/dc/elements/1.1/"
   xmlns:cc="http://creativecommons.org/ns#"
   xmlns:rdf="http://www.w3.org/1999/02/22-rdf-syntax-ns#"
   xmlns:svg="http://www.w3.org/2000/svg"
   xmlns="http://www.w3.org/2000/svg"
   version="1.1"
   id="svg8"
   xml:space="preserve"
   width="1706.6667"
   height="960"
   viewBox="0 0 1706.6667 960"><metadata
     id="metadata8"><rdf:RDF><cc:Work
         rdf:about=""><dc:format>image/svg+xml</dc:format><dc:type
           rdf:resource="http://purl.org/dc/dcmitype/StillImage" /><dc:title></dc:title></cc:Work></rdf:RDF></metadata><defs
     id="defs6"><clipPath
       clipPathUnits="userSpaceOnUse"
       id="clipPath20"><path
         d="M 0,720 H 1280 V 0 H 0 Z"
         id="path18" /></clipPath><clipPath
       clipPathUnits="userSpaceOnUse"
       id="clipPath40"><path
         d="M 0,720 H 1280 V 0 H 0 Z"
         id="path38" /></clipPath><clipPath
       clipPathUnits="userSpaceOnUse"
       id="clipPath68"><path
         d="M 0,720 H 1280 V 0 H 0 Z"
         id="path66" /></clipPath><clipPath
       clipPathUnits="userSpaceOnUse"
       id="clipPath204"><path
         d="M 0,720 H 1280 V 0 H 0 Z"
         id="path202" /></clipPath><clipPath
       clipPathUnits="userSpaceOnUse"
       id="clipPath412"><path
         d="M 0,720 H 1280 V 0 H 0 Z"
         id="path410" /></clipPath><clipPath
       clipPathUnits="userSpaceOnUse"
       id="clipPath548"><path
         d="M 0,720 H 1280 V 0 H 0 Z"
         id="path546" /></clipPath><clipPath
       clipPathUnits="userSpaceOnUse"
       id="clipPath612"><path
         d="M 0,720 H 1280 V 0 H 0 Z"
         id="path610" /></clipPath><clipPath
       clipPathUnits="userSpaceOnUse"
       id="clipPath684"><path
         d="M 0,720 H 1280 V 0 H 0 Z"
         id="path682" /></clipPath></defs><g
     id="g10"
     transform="matrix(1.3333333,0,0,-1.3333333,0,960)"><path
       d="M 0,0 H 1280 V 720 H 0 Z"
       style="fill:#f7efe2;fill-opacity:1;fill-rule:nonzero;stroke:none"
       id="path12" /><g
       id="g14"><g
         id="g16"
         clip-path="url(#clipPath20)"><g
           id="g22"
           transform="translate(-702.8828,348.168)"><path
             d="m 0,0 c 21.057,20.214 48.817,56.737 80.833,19.541 50.026,-58.077 133.501,-18.407 174.744,-57.243 57.277,-53.947 120.374,-35.777 166.562,-31.394 26.751,2.521 93.227,-3.673 126.461,-38.624 31.232,-32.835 54.33,-56.973 117.035,-43.574 42.406,9.066 59.677,-18.23 73.409,-19.802 26.109,-3.048 52.558,-1.212 77.997,5.411"
             style="fill:none;stroke:#ff81e7;stroke-width:16;stroke-linecap:butt;stroke-linejoin:miter;stroke-miterlimit:10;stroke-dasharray:30.47, 20.31;stroke-dashoffset:0;stroke-opacity:1"
             id="path24" /></g><g
           id="g26"
           transform="translate(5.665,433.3916)"><path
             d="m 0,0 c 28.606,33.916 64.744,93.557 119.075,42.436 84.89,-79.813 204.747,-6.527 273.289,-58.655 95.19,-72.412 187.674,-34.88 256.794,-20.884 40.037,8.079 141.517,9.321 197.331,-38.211 52.45,-44.653 91.218,-77.457 183.869,-47.199 62.659,20.472 93.122,-18.037 114.13,-18.221 39.955,-0.442 79.644,6.552 117.043,20.622"
             style="fill:none;stroke:#00ffa9;stroke-width:16;stroke-linecap:butt;stroke-linejoin:miter;stroke-miterlimit:10;stroke-dasharray:29.94, 19.96;stroke-dashoffset:0;stroke-opacity:1"
             id="path28" /></g><g
           id="g30"
           transform="translate(1169.5137,636.3496)"><path
             d="m 0,0 c -31.736,-14.2 -73.743,-37.803 -107.921,5.573 -55.761,70.796 -193.61,-5.616 -241.344,43.932 -66.27,68.808 -184.518,6.474 -247.332,15.259 -36.34,5.08 -101.18,27.811 -138.878,71.277 -35.476,40.859 35.272,69.172 -20.991,154.921 -21.816,23.566 -96.501,24.001 -110.436,39.714 -13.573,15.303 -31.08,26.571 -50.636,32.568 -41.336,12.675 -107.89,29.552 -134.893,30.541"
             style="fill:none;stroke:#ff0020;stroke-width:16;stroke-linecap:butt;stroke-linejoin:miter;stroke-miterlimit:10;stroke-dasharray:30.47, 20.31;stroke-dashoffset:0;stroke-opacity:1"
             id="path32" /></g></g></g><g
       id="g34"><g
         id="g36"
         clip-path="url(#clipPath40)"><g
           id="g42"
           transform="translate(1019.9824,979.5586)"><path
             d="m 0,0 h -152.961 c -10.729,0 -20.643,-5.724 -26.008,-15.016 l -76.48,-132.467 c -5.365,-9.292 -5.365,-20.741 0,-30.033 l 76.48,-132.467 c 5.365,-9.292 15.279,-15.016 26.008,-15.016 H 0 c 10.729,0 20.644,5.724 26.009,15.016 l 76.479,132.467 c 5.366,9.292 5.366,20.741 0,30.033 L 26.009,-15.016 C 20.644,-5.724 10.729,0 0,0"
             style="fill:#fff3ae;fill-opacity:1;fill-rule:nonzero;stroke:none"
             id="path44" /></g><g
           id="g46"
           transform="translate(469.3916,253.8008)"><path
             d="M 0,0 H -205.637 C -284.245,0 -347.97,63.725 -347.97,142.333 v 6.33 c 0,78.608 63.725,142.333 142.333,142.333 H 0 c 78.608,0 142.333,-63.725 142.333,-142.333 v -6.33 C 142.333,63.725 78.608,0 0,0"
             style="fill:#d8e5a5;fill-opacity:1;fill-rule:nonzero;stroke:none"
             id="path48" /></g><g
           id="g50"
           transform="translate(473.8564,289.5703)"><path
             d="m 0,0 h -214.566 c -47.488,0 -85.984,38.496 -85.984,85.983 v 47.491 c 0,47.488 38.496,85.984 85.984,85.984 H 0 c 47.487,0 85.983,-38.496 85.983,-85.984 V 85.983 C 85.983,38.496 47.487,0 0,0"
             style="fill:#ff81e7;fill-opacity:1;fill-rule:nonzero;stroke:none"
             id="path52" /></g><g
           id="g54"
           transform="translate(1317.3955,882.5322)"><path
             d="m 0,0 v -386.183 c 0,-31.532 -25.562,-57.093 -57.094,-57.093 h -445.603 c -31.537,0 -57.104,25.566 -57.104,57.103 v 138.043 c 0,31.532 25.562,57.094 57.094,57.094 h 205.634 c 9.484,0 17.173,7.688 17.173,17.173 V 17.184 c 0,15.79 12.799,28.58 28.58,28.58 H -45.764 C -20.489,45.764 0,25.274 0,0"
             style="fill:#d8e5a5;fill-opacity:1;fill-rule:nonzero;stroke:none"
             id="path56" /></g><g
           id="g58"
           transform="translate(757.5947,479.1758)"><path
             d="m 0,0 c 6.289,4.922 16.054,11.812 29.005,18.021 14.994,7.191 75.218,33.111 122.068,8.393 16.895,-8.913 28.791,-22.691 56.457,-28.991 9.705,-2.21 16.466,-2.388 20.6,-2.289 20.846,0.498 35.199,9.465 45.012,14.496 4.324,2.216 36.207,17.731 67.138,16.021 34.802,-1.924 39.155,-24.096 83.158,-28.991 22.12,-2.461 38.754,1.169 43.488,2.288 27.389,6.48 46.056,21.13 55.479,29.755 v -68.534 c -160.825,-0.03 -321.65,-0.06 -482.474,-0.089 -1.934,-0.003 -4.619,0.133 -7.746,0.756 -1.018,0.203 -10.216,2.139 -18.019,8.676 C 1.134,-19.568 0.118,-2.618 0,0"
             style="fill:#a8e0a1;fill-opacity:1;fill-rule:nonzero;stroke:none"
             id="path60" /></g></g></g><g
       id="g62"><g
         id="g64"
         clip-path="url(#clipPath68)"><g
           id="g70"
           transform="translate(30.4639,341.2129)"><path
             d="m 0,0 h -340.533 c -26.619,0 -48.198,21.579 -48.198,48.198 v 194.348 c 0,26.619 21.579,48.198 48.198,48.198 H 0 c 26.619,0 48.198,-21.579 48.198,-48.198 V 48.198 C 48.198,21.579 26.619,0 0,0"
             style="fill:#d8e5a5;fill-opacity:1;fill-rule:nonzero;stroke:none"
             id="path72" /></g><g
           id="g74"
           transform="translate(-213.7178,1084.6802)"><path
             d="m 0,0 c -2.181,-11.94 14.376,-15.337 19.317,-40.847 3.817,-19.701 -3.705,-29.952 -11.887,-63.54 -8.667,-35.577 -13.001,-53.365 -8.915,-71.105 7.555,-32.801 38.097,-51.601 62.408,-66.565 37.959,-23.365 56.115,-19.605 98.07,-37.821 46.504,-20.194 62.507,-41.393 89.154,-59.002 88.635,-58.572 255.222,-51.882 296.703,24.755 25.994,48.025 -1.631,115.222 -26.508,150.211 -26.802,37.697 -70.828,58.043 -157.786,97.197 -29.647,13.348 -65.842,16.041 -109.819,44.179 C 225.162,-6.172 225.264,-0.869 207.82,10.282 129.388,60.419 5.726,31.34 0,0"
             style="fill:#a8e0a1;fill-opacity:1;fill-rule:nonzero;stroke:none"
             id="path76" /></g><g
           id="g78"
           transform="translate(84.0771,201.3271)"><path
             d="m 0,0 -148.981,-231.219 c -8.396,-13.029 0.959,-30.185 16.46,-30.185 h 297.962 c 15.501,0 24.856,17.156 16.46,30.185 L 32.92,0 C 25.209,11.967 7.711,11.967 0,0"
             style="fill:#a8e0a1;fill-opacity:1;fill-rule:nonzero;stroke:none"
             id="path80" /></g><g
           id="g82"
           transform="translate(-79.1348,118.4893)"><path
             d="m 0,0 -84.178,-145.799 c -7.536,-13.054 1.885,-29.371 16.958,-29.371 h 168.355 c 15.072,0 24.493,16.317 16.957,29.371 L 33.914,0 C 26.378,13.054 7.536,13.054 0,0"
             style="fill:#d8e5a5;fill-opacity:1;fill-rule:nonzero;stroke:none"
             id="path84" /></g><g
           id="g86"
           transform="translate(1029.9092,330.043)"><path
             d="m 0,0 -196.075,-321.559 c -7.956,-13.047 1.435,-29.774 16.718,-29.774 h 392.149 c 15.282,0 24.674,16.727 16.718,29.774 L 33.435,0 C 25.804,12.516 7.631,12.516 0,0"
             style="fill:#a8e0a1;fill-opacity:1;fill-rule:nonzero;stroke:none"
             id="path88" /></g><g
           id="g90"
           transform="translate(1206.5596,165.5039)"><path
             d="m 0,0 -85.081,-155.719 c -7.129,-13.048 2.314,-28.968 17.184,-28.968 h 170.161 c 14.869,0 24.312,15.92 17.183,28.968 L 34.366,0 C 26.941,13.59 7.425,13.59 0,0"
             style="fill:#d8e5a5;fill-opacity:1;fill-rule:nonzero;stroke:none"
             id="path92" /></g><g
           id="g94"
           transform="translate(371.042,321.4385)"><path
             d="m 0,0 -196.075,-321.559 c -7.956,-13.047 1.435,-29.774 16.718,-29.774 h 392.149 c 15.282,0 24.674,16.727 16.718,29.774 L 33.435,0 C 25.804,12.516 7.631,12.516 0,0"
             style="fill:#a8e0a1;fill-opacity:1;fill-rule:nonzero;stroke:none"
             id="path96" /></g><g
           id="g98"
           transform="translate(580.9824,163.5215)"><path
             d="m 0,0 -84.178,-145.799 c -7.536,-13.054 1.884,-29.371 16.957,-29.371 h 168.355 c 15.073,0 24.494,16.317 16.957,29.371 L 33.914,0 C 26.377,13.054 7.536,13.054 0,0"
             style="fill:#d8e5a5;fill-opacity:1;fill-rule:nonzero;stroke:none"
             id="path100" /></g><g
           id="g102"
           transform="translate(222.9365,147.3828)"><path
             d="m 0,0 -84.178,-145.8 c -7.536,-13.054 1.884,-29.37 16.957,-29.37 h 168.355 c 15.073,0 24.494,16.316 16.957,29.37 L 33.914,0 C 26.377,13.053 7.536,13.053 0,0"
             style="fill:#d8e5a5;fill-opacity:1;fill-rule:nonzero;stroke:none"
             id="path104" /></g><g
           id="g106"
           transform="translate(96.3584,626.6465)"><path
             d="m 0,0 c 3.866,13.12 19.116,14.591 26.544,29.979 16.619,34.366 34.227,12.182 37.813,27.496 1.876,7.96 4.348,12.042 8.443,15.718 9.038,8.151 34.948,-3.473 68.883,-10.002 9.773,-1.876 24.629,-5.716 69.465,-0.266 12.537,1.521 16.669,8.709 31.767,12.195 9.405,2.18 35.493,8.201 45.013,-3.208 5.616,-6.692 0.546,-13.424 4.639,-21.182 5.16,-9.798 28.294,1.154 42.732,1.015 8.151,-0.076 21.246,-8.253 28.065,-12.6 23.718,-15.136 14.236,-69.783 -9.241,-89.228 -9.114,-7.543 -22.069,-9.697 -72.152,-0.634 -67.007,12.118 -72.775,21.233 -105.213,25.682 C 92.448,-13.5 42.58,-62.798 12.601,-35.303 3.715,-27.203 -3.612,-12.194 0,0"
             style="fill:#ffffff;fill-opacity:1;fill-rule:nonzero;stroke:none"
             id="path108" /></g><g
           id="g110"
           transform="translate(378.0625,663.04)"><path
             d="m 0,0 c 11.391,0 20.624,8.592 20.624,19.192 0,10.6 -9.233,19.192 -20.624,19.192 -11.391,0 -20.624,-8.592 -20.624,-19.192 C -20.624,8.592 -11.391,0 0,0"
             style="fill:#0097dd;fill-opacity:1;fill-rule:nonzero;stroke:none"
             id="path112" /></g><g
           id="g114"
           transform="translate(367.7314,680.0771)"><path
             d="m 0,0 c 0.114,-7.378 11.041,-14.261 18.773,-10.863 2.301,1.058 4.215,2.803 5.48,4.998 1.266,2.193 1.818,4.725 1.581,7.247 -0.159,1.749 -0.762,3.429 -1.749,4.88 -0.83,1.172 -1.811,2.228 -2.916,3.143 -1.456,1.135 -3.144,1.937 -4.943,2.346 C 8.43,13.475 -0.089,6.592 0,0"
             style="fill:#ffffff;fill-opacity:1;fill-rule:nonzero;stroke:none"
             id="path116" /></g><g
           id="g118"
           transform="translate(381.9678,691.7266)"><path
             d="m 0,0 c -2.688,-2.345 -3.536,-7.403 -1.825,-12.524 1.711,-5.122 5.349,-8.556 8.873,-8.873 3.804,3.435 6.769,8.949 4.044,13.944 0,0.088 -0.266,0.57 -0.291,0.646 -0.211,0.44 -0.451,0.863 -0.723,1.268 -0.646,1.154 -1.544,2.15 -2.624,2.915 -1.34,1.023 -2.845,1.808 -4.449,2.319 C 2.51,-0.165 1.813,-0.102 1.369,0.051 0.912,0.093 0.451,0.075 0,0"
             style="fill:#000000;fill-opacity:1;fill-rule:nonzero;stroke:none"
             id="path120" /></g><g
           id="g122"
           transform="translate(381.9678,691.7266)"><path
             d="m 0,0 c -2.688,-2.345 -3.536,-7.403 -1.825,-12.524 1.711,-5.122 5.349,-8.556 8.873,-8.873 3.804,3.435 6.769,8.949 4.044,13.944 0,0.088 -0.266,0.57 -0.291,0.646 -0.211,0.44 -0.451,0.863 -0.723,1.268 -0.646,1.154 -1.544,2.15 -2.624,2.915 -1.34,1.023 -2.845,1.808 -4.449,2.319 C 2.51,-0.165 1.813,-0.102 1.369,0.051 0.912,0.093 0.451,0.075 0,0 Z"
             style="fill:none;stroke:#000000;stroke-width:1;stroke-linecap:butt;stroke-linejoin:miter;stroke-miterlimit:10;stroke-dasharray:none;stroke-opacity:1"
             id="path124" /></g><g
           id="g126"
           transform="translate(423.3154,663.04)"><path
             d="m 0,0 c 11.391,0 20.624,8.592 20.624,19.192 0,10.6 -9.233,19.192 -20.624,19.192 -11.39,0 -20.624,-8.592 -20.624,-19.192 C -20.624,8.592 -11.39,0 0,0"
             style="fill:#0097dd;fill-opacity:1;fill-rule:nonzero;stroke:none"
             id="path128" /></g><g
           id="g130"
           transform="translate(413.0488,679.4434)"><path
             d="m 0,0 c 0.102,-7.378 11.028,-14.248 18.761,-10.863 2.301,1.058 4.216,2.803 5.48,4.998 1.265,2.193 1.818,4.725 1.58,7.247 -0.157,1.749 -0.759,3.429 -1.749,4.88 -0.825,1.172 -1.801,2.228 -2.903,3.143 -1.462,1.135 -3.153,1.939 -4.956,2.359 C 8.43,13.462 -0.102,6.604 0,0"
             style="fill:#ffffff;fill-opacity:1;fill-rule:nonzero;stroke:none"
             id="path132" /></g><g
           id="g134"
           transform="translate(427.2715,691.0928)"><path
             d="m 0,0 c -2.675,-2.332 -3.536,-7.403 -1.825,-12.524 1.711,-5.122 5.349,-8.557 8.873,-8.873 3.803,3.448 6.757,8.949 4.031,13.943 -0.109,0.21 -0.207,0.427 -0.292,0.646 -0.211,0.44 -0.453,0.863 -0.722,1.269 -0.65,1.148 -1.546,2.14 -2.624,2.902 -1.337,1.026 -2.842,1.811 -4.449,2.32 C 2.51,-0.165 1.8,-0.102 1.369,0.038 0.914,0.09 0.453,0.076 0,0"
             style="fill:#000000;fill-opacity:1;fill-rule:nonzero;stroke:none"
             id="path136" /></g><g
           id="g138"
           transform="translate(427.2715,691.0928)"><path
             d="m 0,0 c -2.675,-2.332 -3.536,-7.403 -1.825,-12.524 1.711,-5.122 5.349,-8.557 8.873,-8.873 3.803,3.448 6.757,8.949 4.031,13.943 -0.109,0.21 -0.207,0.427 -0.292,0.646 -0.211,0.44 -0.453,0.863 -0.722,1.269 -0.65,1.148 -1.546,2.14 -2.624,2.902 -1.337,1.026 -2.842,1.811 -4.449,2.32 C 2.51,-0.165 1.8,-0.102 1.369,0.038 0.914,0.09 0.453,0.076 0,0 Z"
             style="fill:none;stroke:#000000;stroke-width:1;stroke-linecap:butt;stroke-linejoin:miter;stroke-miterlimit:10;stroke-dasharray:none;stroke-opacity:1"
             id="path140" /></g><g
           id="g142"
           transform="translate(373.4736,657.3105)"><path
             d="m 0,0 c 5.176,-3.65 11.042,-6.205 17.24,-7.504 17.543,-3.588 31.691,4.487 35.493,6.87 -1.235,-2.128 -2.781,-4.06 -4.588,-5.729 -9.343,-8.582 -24.897,-8.873 -36.09,-3.436 C 7.354,-7.477 3.235,-4.127 0,0"
             style="fill:#ff0020;fill-opacity:1;fill-rule:nonzero;stroke:none"
             id="path144" /></g><g
           id="g146"
           transform="translate(312.8311,670.0879)"><path
             d="m 0,0 c 8.873,-7.796 17.568,-16.251 28.001,-21.98 1.801,-0.989 3.27,1.837 1.471,2.827 C 19.331,-13.563 10.838,-5.21 2.18,2.396 0.621,3.74 -1.547,1.407 0,0.051 Z"
             style="fill:#ff00bd;fill-opacity:1;fill-rule:nonzero;stroke:none"
             id="path148" /></g><g
           id="g150"
           transform="translate(312.8311,670.0879)"><path
             d="m 0,0 c 8.873,-7.796 17.568,-16.251 28.001,-21.98 1.801,-0.989 3.27,1.837 1.471,2.827 C 19.331,-13.563 10.838,-5.21 2.18,2.396 0.621,3.74 -1.547,1.407 0,0.051 Z"
             style="fill:none;stroke:#ff00bd;stroke-width:0.5;stroke-linecap:butt;stroke-linejoin:miter;stroke-miterlimit:10;stroke-dasharray:none;stroke-opacity:1"
             id="path152" /></g><g
           id="g154"
           transform="translate(341.2744,647.9053)"><path
             d="m 0,0 10.344,-11.891 c 0.309,-0.289 0.721,-0.443 1.145,-0.428 0.423,0.013 0.823,0.195 1.112,0.505 0.28,0.312 0.428,0.723 0.414,1.143 -0.014,0.419 -0.19,0.818 -0.491,1.112 C 9.063,-5.591 5.629,-1.623 2.181,2.345 1.871,2.634 1.461,2.788 1.037,2.773 0.614,2.759 0.215,2.578 -0.075,2.269 -0.358,1.954 -0.509,1.542 -0.495,1.119 -0.481,0.695 -0.303,0.294 0,0"
             style="fill:#ff00bd;fill-opacity:1;fill-rule:nonzero;stroke:none"
             id="path156" /></g><g
           id="g158"
           transform="translate(341.2744,647.9053)"><path
             d="m 0,0 10.344,-11.891 c 0.309,-0.289 0.721,-0.443 1.145,-0.428 0.423,0.013 0.823,0.195 1.112,0.505 0.28,0.312 0.428,0.723 0.414,1.143 -0.014,0.419 -0.19,0.818 -0.491,1.112 C 9.063,-5.591 5.629,-1.623 2.181,2.345 1.871,2.634 1.461,2.788 1.037,2.773 0.614,2.759 0.215,2.578 -0.075,2.269 -0.358,1.954 -0.509,1.542 -0.495,1.119 -0.481,0.695 -0.303,0.294 0,0 Z"
             style="fill:none;stroke:#ff00bd;stroke-width:0.5;stroke-linecap:butt;stroke-linejoin:miter;stroke-miterlimit:10;stroke-dasharray:none;stroke-opacity:1"
             id="path160" /></g><g
           id="g162"
           transform="translate(343.2031,646.7002)"><path
             d="m 0,0 c 5.374,-2.246 11.136,-3.421 16.961,-3.46 2.053,0 1.889,3.169 -0.152,3.182 C 11.543,-0.248 6.333,0.807 1.47,2.827 1.091,3.01 0.657,3.04 0.257,2.913 -0.144,2.785 -0.48,2.511 -0.685,2.143 -0.872,1.768 -0.906,1.333 -0.778,0.932 -0.65,0.531 -0.372,0.197 0,0"
             style="fill:#ff00bd;fill-opacity:1;fill-rule:nonzero;stroke:none"
             id="path164" /></g><g
           id="g166"
           transform="translate(343.2031,646.7002)"><path
             d="m 0,0 c 5.374,-2.246 11.136,-3.421 16.961,-3.46 2.053,0 1.889,3.169 -0.152,3.182 C 11.543,-0.248 6.333,0.807 1.47,2.827 1.091,3.01 0.657,3.04 0.257,2.913 -0.144,2.785 -0.48,2.511 -0.685,2.143 -0.872,1.768 -0.906,1.333 -0.778,0.932 -0.65,0.531 -0.372,0.197 0,0 Z"
             style="fill:none;stroke:#ff00bd;stroke-width:0.5;stroke-linecap:butt;stroke-linejoin:miter;stroke-miterlimit:10;stroke-dasharray:none;stroke-opacity:1"
             id="path168" /></g><g
           id="g170"
           transform="translate(344.3447,648.3359)"><path
             d="m 0,0 c 4.65,0.967 9.231,2.238 13.716,3.803 0.208,0.055 0.403,0.153 0.573,0.286 0.17,0.134 0.311,0.3 0.414,0.489 0.103,0.19 0.168,0.398 0.19,0.612 0.02,0.215 -0.003,0.432 -0.068,0.637 C 14.759,6.034 14.654,6.224 14.514,6.388 14.373,6.551 14.2,6.684 14.006,6.779 13.813,6.874 13.602,6.929 13.387,6.94 13.171,6.951 12.954,6.92 12.753,6.845 8.271,5.274 3.688,4.004 -0.963,3.042 -1.363,2.914 -1.697,2.633 -1.893,2.26 -2.086,1.888 -2.127,1.454 -2.003,1.052 -1.869,0.652 -1.586,0.319 -1.213,0.124 -0.84,-0.072 -0.405,-0.117 0,0"
             style="fill:#ff00bd;fill-opacity:1;fill-rule:nonzero;stroke:none"
             id="path172" /></g><g
           id="g174"
           transform="translate(344.3447,648.3359)"><path
             d="m 0,0 c 4.65,0.967 9.231,2.238 13.716,3.803 0.208,0.055 0.403,0.153 0.573,0.286 0.17,0.134 0.311,0.3 0.414,0.489 0.103,0.19 0.168,0.398 0.19,0.612 0.02,0.215 -0.003,0.432 -0.068,0.637 C 14.759,6.034 14.654,6.224 14.514,6.388 14.373,6.551 14.2,6.684 14.006,6.779 13.813,6.874 13.602,6.929 13.387,6.94 13.171,6.951 12.954,6.92 12.753,6.845 8.271,5.274 3.688,4.004 -0.963,3.042 -1.363,2.914 -1.697,2.633 -1.893,2.26 -2.086,1.888 -2.127,1.454 -2.003,1.052 -1.869,0.652 -1.586,0.319 -1.213,0.124 -0.84,-0.072 -0.405,-0.117 0,0 Z"
             style="fill:none;stroke:#ff00bd;stroke-width:0.5;stroke-linecap:butt;stroke-linejoin:miter;stroke-miterlimit:10;stroke-dasharray:none;stroke-opacity:1"
             id="path176" /></g><g
           id="g178"
           transform="translate(1084.1318,542.5928)"><path
             d="m 0,0 c -5.21,-4.572 -11.022,-9.684 -19.432,-10.761 -7.251,-0.93 -8.818,2.123 -29.637,5.797 -7.716,1.442 -15.622,1.53 -23.368,0.261 -26.126,-3.837 -28.51,-3.772 -31.499,-2.384 -5.894,2.743 -11.675,9.34 -9.993,13.945 1.682,4.605 10.385,5.193 11.267,5.226 -4.653,-0.18 -18.338,0 -28.56,9.797 -5.535,5.291 -12.099,15.366 -8.931,20.755 3.625,6.123 17.765,2.612 18.892,6.808 0.931,3.446 -8.638,6.124 -9.193,12.623 -0.556,6.499 8.164,13.145 15.513,15.48 12.181,3.821 22.991,-3.56 24.657,-4.719 0,0.408 0.719,6.744 5.78,9.177 5.063,2.433 11.431,-0.768 14.174,-5.258 0.937,-1.54 1.496,-3.28 1.633,-5.078 0.759,3.215 2.392,6.159 4.718,8.507 2.092,1.942 4.591,3.395 7.311,4.258 2.723,0.86 5.602,1.106 8.432,0.722 7.559,-1.29 14.483,-7.593 15.218,-15.741 0.29,-4.225 -0.944,-8.414 -3.478,-11.806 2.636,2.928 5.879,5.246 9.504,6.793 5.518,2.319 16.427,4.687 22.076,-1.029 6.532,-6.645 2.188,-20.329 -3.151,-27.759 -2.27,-3.172 -5.137,-5.867 -8.442,-7.936 2.08,0.481 4.218,0.675 6.352,0.571 C -1.241,27.857 9.65,22.306 10.287,14.859 10.712,9.405 5.812,5.111 0,0"
             style="fill:#00ffa9;fill-opacity:1;fill-rule:nonzero;stroke:none"
             id="path180" /></g><path
           d="m 1029.28,552.097 h -10.646 v -79.801 h 10.646 z"
           style="fill:#754c24;fill-opacity:1;fill-rule:nonzero;stroke:none"
           id="path182" /><g
           id="g184"
           transform="translate(1023.2891,544.1113)"><path
             d="m 0,0 c 12.119,0 21.946,8.042 21.946,17.962 0,9.92 -9.827,17.962 -21.946,17.962 -12.121,0 -21.946,-8.042 -21.946,-17.962 C -21.946,8.042 -12.121,0 0,0"
             style="fill:#00ffa9;fill-opacity:1;fill-rule:nonzero;stroke:none"
             id="path186" /></g><g
           id="g188"
           transform="translate(996.0547,487.9756)"><path
             d="m 0,0 c -2.448,-2.149 -5.182,-4.553 -9.135,-5.059 -3.409,-0.438 -4.145,0.997 -13.933,2.725 -3.628,0.678 -7.345,0.72 -10.987,0.123 -12.282,-1.804 -13.403,-1.773 -14.808,-1.121 -2.772,1.29 -5.489,4.392 -4.699,6.557 0.791,2.165 4.883,2.441 5.297,2.456 -2.187,-0.084 -8.621,0 -13.426,4.606 -2.603,2.487 -5.689,7.224 -4.2,9.757 1.705,2.879 8.353,1.228 8.883,3.201 0.438,1.62 -4.061,2.879 -4.322,5.935 -0.261,3.055 3.838,6.179 7.293,7.277 5.726,1.797 10.808,-1.673 11.592,-2.218 0,0.192 0.338,3.17 2.717,4.315 2.38,1.143 5.374,-0.362 6.665,-2.473 0.44,-0.724 0.703,-1.542 0.767,-2.388 0.357,1.512 1.124,2.897 2.218,4 0.983,0.913 2.158,1.596 3.437,2.001 1.28,0.406 2.633,0.521 3.964,0.341 3.554,-0.606 6.809,-3.57 7.155,-7.4 0.136,-1.987 -0.444,-3.956 -1.635,-5.551 1.239,1.377 2.763,2.467 4.468,3.193 2.594,1.091 7.722,2.203 10.378,-0.483 3.072,-3.124 1.03,-9.558 -1.481,-13.051 -1.067,-1.491 -2.415,-2.758 -3.969,-3.73 0.978,0.226 1.983,0.316 2.987,0.268 C -0.583,13.097 4.537,10.486 4.837,6.986 5.036,4.422 2.733,2.403 0,0"
             style="fill:#00ffa9;fill-opacity:1;fill-rule:nonzero;stroke:none"
             id="path190" /></g><path
           d="m 970.268,492.443 h -5.005 v -37.517 h 5.005 z"
           style="fill:#754c24;fill-opacity:1;fill-rule:nonzero;stroke:none"
           id="path192" /><g
           id="g194"
           transform="translate(967.4512,488.6895)"><path
             d="m 0,0 c 5.697,0 10.317,3.781 10.317,8.444 0,4.664 -4.62,8.446 -10.317,8.446 -5.698,0 -10.318,-3.782 -10.318,-8.446 C -10.318,3.781 -5.698,0 0,0"
             style="fill:#00ffa9;fill-opacity:1;fill-rule:nonzero;stroke:none"
             id="path196" /></g></g></g><g
       id="g198"><g
         id="g200"
         clip-path="url(#clipPath204)"><g
           id="g206"
           transform="translate(256.0918,322.5645)"><path
             d="m 0,0 c -0.457,0.319 -0.851,0.731 -1.132,1.207 -0.289,0.438 -0.442,0.938 -0.452,1.446 -0.052,0.857 0.203,1.786 0.953,2.278 0.137,0.09 0.28,0.16 0.428,0.215 0.631,0.39 1.399,0.539 2.164,0.513 L 1.839,15.877 -37.088,31.55 V 5.383 L 2.155,-10.499 2.035,-0.507 C 1.349,-0.616 0.633,-0.442 0,0"
             style="fill:#fff3ae;fill-opacity:1;fill-rule:nonzero;stroke:none"
             id="path208" /></g><g
           id="g210"
           transform="translate(253.1641,349.749)"><path
             d="m 0,0 c -1.642,-0.338 -3.775,0.519 -3.756,2.403 0.011,1.052 0.795,1.837 1.766,2.319 -0.851,2.016 -1.7,4.032 -2.55,6.049 -6.723,1.06 -17.581,1.536 -27.064,-4.567 C -32.509,5.621 -33.36,5.006 -34.16,4.365 -21.185,-0.859 -8.209,-6.084 4.767,-11.308 3.178,-7.539 1.589,-3.77 0,0"
             style="fill:#ffd400;fill-opacity:1;fill-rule:nonzero;stroke:none"
             id="path212" /></g><g
           id="g214"
           transform="translate(234.1807,333.6299)"><path
             d="m 0,0 c -0.843,0.107 -1.297,0.03 -1.594,-0.25 -0.811,-0.766 -0.051,-2.673 0,-2.794 1.192,-2.896 4.974,-3.428 5.732,-3.511 1.513,-0.167 1.906,0.241 2.006,0.359 C 6.761,-5.467 6.11,-4.034 5.94,-3.661 4.541,-0.579 0.631,-0.08 0,0"
             style="fill:#ffd400;fill-opacity:1;fill-rule:nonzero;stroke:none"
             id="path216" /></g><g
           id="g218"
           transform="translate(227.5439,343.2832)"><path
             d="m 0,0 c -0.661,0.084 -1.018,0.023 -1.251,-0.196 -0.637,-0.601 -0.039,-2.096 0,-2.192 0.935,-2.271 3.901,-2.687 4.496,-2.754 1.187,-0.13 1.495,0.189 1.573,0.282 0.484,0.572 -0.026,1.696 -0.159,1.989 C 3.562,-0.454 0.494,-0.062 0,0"
             style="fill:#ffd400;fill-opacity:1;fill-rule:nonzero;stroke:none"
             id="path220" /></g><g
           id="g222"
           transform="translate(242.6191,336.7178)"><path
             d="m 0,0 c -0.512,0.064 -0.789,0.018 -0.97,-0.152 -0.493,-0.466 -0.03,-1.626 0,-1.7 0.725,-1.761 3.026,-2.084 3.487,-2.135 0.92,-0.102 1.159,0.146 1.219,0.217 0.375,0.445 -0.02,1.316 -0.123,1.543 C 2.762,-0.353 0.384,-0.05 0,0"
             style="fill:#ffd400;fill-opacity:1;fill-rule:nonzero;stroke:none"
             id="path224" /></g><g
           id="g226"
           transform="translate(506.8418,343.0117)"><path
             d="m 0,0 c -0.457,0.319 -0.851,0.732 -1.132,1.207 -0.29,0.438 -0.442,0.938 -0.452,1.447 -0.052,0.856 0.203,1.785 0.952,2.277 0.138,0.09 0.281,0.161 0.429,0.215 0.631,0.39 1.398,0.54 2.164,0.514 L 1.839,15.877 -37.089,31.55 V 5.384 L 2.155,-10.498 2.035,-0.507 C 1.349,-0.616 0.633,-0.441 0,0"
             style="fill:#fff3ae;fill-opacity:1;fill-rule:nonzero;stroke:none"
             id="path228" /></g><g
           id="g230"
           transform="translate(503.9141,370.1963)"><path
             d="m 0,0 c -1.642,-0.338 -3.776,0.519 -3.757,2.404 0.012,1.051 0.796,1.837 1.766,2.319 -0.85,2.015 -1.699,4.032 -2.549,6.048 -6.723,1.06 -17.582,1.537 -27.064,-4.567 C -32.509,5.622 -33.36,5.006 -34.161,4.365 -21.186,-0.859 -8.209,-6.083 4.767,-11.308 3.178,-7.538 1.589,-3.77 0,0"
             style="fill:#ffd400;fill-opacity:1;fill-rule:nonzero;stroke:none"
             id="path232" /></g><g
           id="g234"
           transform="translate(484.9307,354.0781)"><path
             d="m 0,0 c -0.843,0.107 -1.297,0.029 -1.594,-0.251 -0.811,-0.766 -0.051,-2.672 0,-2.794 1.192,-2.896 4.974,-3.427 5.732,-3.511 1.513,-0.167 1.906,0.241 2.006,0.359 C 6.761,-5.467 6.11,-4.035 5.94,-3.661 4.541,-0.579 0.631,-0.081 0,0"
             style="fill:#ffd400;fill-opacity:1;fill-rule:nonzero;stroke:none"
             id="path236" /></g><g
           id="g238"
           transform="translate(478.293,363.7314)"><path
             d="m 0,0 c -0.66,0.084 -1.018,0.023 -1.25,-0.196 -0.637,-0.602 -0.039,-2.097 0,-2.193 0.935,-2.271 3.901,-2.687 4.495,-2.753 1.188,-0.13 1.496,0.189 1.574,0.281 0.484,0.573 -0.026,1.696 -0.16,1.989 C 3.562,-0.454 0.495,-0.063 0,0"
             style="fill:#ffd400;fill-opacity:1;fill-rule:nonzero;stroke:none"
             id="path240" /></g><g
           id="g242"
           transform="translate(493.3691,357.165)"><path
             d="m 0,0 c -0.513,0.065 -0.789,0.019 -0.97,-0.152 -0.493,-0.466 -0.03,-1.625 0,-1.7 0.725,-1.76 3.026,-2.084 3.487,-2.134 0.92,-0.102 1.159,0.146 1.219,0.217 0.375,0.445 -0.02,1.316 -0.124,1.542 C 2.762,-0.352 0.384,-0.049 0,0"
             style="fill:#ffd400;fill-opacity:1;fill-rule:nonzero;stroke:none"
             id="path244" /></g><g
           id="g246"
           transform="translate(272.1318,447.5547)"><path
             d="M 0,0 C -0.404,0.384 -0.731,0.851 -0.939,1.362 -1.16,1.838 -1.236,2.355 -1.17,2.86 -1.093,3.715 -0.702,4.596 0.112,4.97 0.262,5.038 0.414,5.087 0.567,5.119 1.25,5.41 2.031,5.442 2.785,5.303 l 1.404,10.121 -36.148,21.312 -3.909,-25.873 36.43,-21.566 1.375,9.897 C 1.241,-0.811 0.56,-0.531 0,0"
             style="fill:#fff3ae;fill-opacity:1;fill-rule:nonzero;stroke:none"
             id="path248" /></g><g
           id="g250"
           transform="translate(273.2979,474.8711)"><path
             d="m 0,0 c -1.674,-0.089 -3.656,1.077 -3.354,2.938 0.166,1.038 1.06,1.698 2.091,2.029 -0.539,2.121 -1.078,4.241 -1.617,6.361 -6.489,2.053 -17.154,4.147 -27.442,-0.472 C -31.305,10.415 -32.238,9.934 -33.125,9.42 -21.075,2.315 -9.026,-4.788 3.023,-11.893 2.016,-7.929 1.008,-3.964 0,0"
             style="fill:#ffd400;fill-opacity:1;fill-rule:nonzero;stroke:none"
             id="path252" /></g><g
           id="g254"
           transform="translate(252.1201,461.7695)"><path
             d="m 0,0 c -0.817,0.232 -1.278,0.224 -1.614,-0.01 -0.917,-0.636 -0.449,-2.635 -0.417,-2.762 0.745,-3.041 4.405,-4.131 5.142,-4.328 1.472,-0.391 1.921,-0.046 2.037,0.055 0.719,0.63 0.29,2.143 0.178,2.537 C 4.403,-1.251 0.611,-0.174 0,0"
             style="fill:#ffd400;fill-opacity:1;fill-rule:nonzero;stroke:none"
             id="path256" /></g><g
           id="g258"
           transform="translate(246.999,472.3057)"><path
             d="m 0,0 c -0.641,0.183 -1.003,0.176 -1.266,-0.007 -0.718,-0.499 -0.352,-2.066 -0.327,-2.167 0.584,-2.386 3.455,-3.24 4.033,-3.394 1.155,-0.307 1.507,-0.037 1.598,0.043 0.565,0.494 0.228,1.68 0.14,1.99 C 3.454,-0.98 0.479,-0.136 0,0"
             style="fill:#ffd400;fill-opacity:1;fill-rule:nonzero;stroke:none"
             id="path260" /></g><g
           id="g262"
           transform="translate(260.9248,463.5615)"><path
             d="m 0,0 c -0.497,0.142 -0.777,0.136 -0.981,-0.006 -0.558,-0.387 -0.273,-1.602 -0.254,-1.68 0.453,-1.849 2.679,-2.512 3.128,-2.631 0.894,-0.239 1.168,-0.03 1.238,0.033 0.437,0.383 0.177,1.303 0.108,1.543 C 2.678,-0.761 0.372,-0.105 0,0"
             style="fill:#ffd400;fill-opacity:1;fill-rule:nonzero;stroke:none"
             id="path264" /></g><g
           id="g266"
           transform="translate(449.8711,437.7734)"><path
             d="m 0,0 c -0.04,0.557 0.033,1.122 0.226,1.64 0.158,0.5 0.45,0.933 0.839,1.261 0.633,0.578 1.517,0.965 2.371,0.692 0.156,-0.05 0.3,-0.117 0.436,-0.197 0.7,-0.246 1.299,-0.749 1.761,-1.36 L 13.498,8.559 1.193,48.678 -19.146,32.218 -6.806,-8.279 0.886,-1.9 C 0.369,-1.436 0.055,-0.77 0,0"
             style="fill:#fff3ae;fill-opacity:1;fill-rule:nonzero;stroke:none"
             id="path268" /></g><g
           id="g270"
           transform="translate(469.1602,457.1504)"><path
             d="m 0,0 c -1.295,1.064 -1.972,3.262 -0.493,4.433 0.823,0.652 1.928,0.537 2.912,0.086 1.033,1.928 2.065,3.857 3.098,5.786 -3.405,5.893 -9.866,14.633 -20.575,18.166 -1.022,0.337 -2.036,0.611 -3.038,0.83 L -5.791,-10.818 C -3.86,-7.212 -1.93,-3.605 0,0"
             style="fill:#ffd400;fill-opacity:1;fill-rule:nonzero;stroke:none"
             id="path272" /></g><g
           id="g274"
           transform="translate(444.6895,461.7676)"><path
             d="m 0,0 c -0.447,0.723 -0.793,1.027 -1.198,1.082 -1.106,0.148 -2.109,-1.643 -2.172,-1.758 -1.502,-2.748 0.465,-6.022 0.877,-6.664 0.822,-1.282 1.386,-1.331 1.54,-1.334 0.956,-0.02 1.66,1.387 1.844,1.753 C 2.406,-3.894 0.334,-0.541 0,0"
             style="fill:#ffd400;fill-opacity:1;fill-rule:nonzero;stroke:none"
             id="path276" /></g><g
           id="g278"
           transform="translate(448.0176,473)"><path
             d="m 0,0 c -0.351,0.566 -0.622,0.806 -0.939,0.849 -0.868,0.116 -1.655,-1.288 -1.704,-1.379 -1.177,-2.156 0.365,-4.724 0.688,-5.227 0.644,-1.006 1.087,-1.044 1.208,-1.047 0.75,-0.015 1.302,1.088 1.446,1.375 C 1.888,-3.055 0.263,-0.425 0,0"
             style="fill:#ffd400;fill-opacity:1;fill-rule:nonzero;stroke:none"
             id="path280" /></g><g
           id="g282"
           transform="translate(452.3975,457.1504)"><path
             d="m 0,0 c -0.271,0.439 -0.482,0.624 -0.729,0.657 -0.671,0.091 -1.282,-0.998 -1.32,-1.068 -0.914,-1.672 0.282,-3.662 0.532,-4.053 0.501,-0.779 0.844,-0.809 0.938,-0.811 0.581,-0.012 1.009,0.842 1.121,1.066 C 1.464,-2.368 0.203,-0.329 0,0"
             style="fill:#ffd400;fill-opacity:1;fill-rule:nonzero;stroke:none"
             id="path284" /></g><g
           id="g286"
           transform="translate(417.3066,333.7432)"><path
             d="m 0,0 c -0.285,0.271 -0.515,0.599 -0.661,0.958 -0.155,0.335 -0.209,0.698 -0.162,1.054 0.053,0.6 0.329,1.22 0.901,1.483 0.106,0.049 0.212,0.083 0.32,0.106 0.481,0.204 1.031,0.227 1.56,0.128 l 0.988,7.12 -25.425,14.99 -2.75,-18.198 25.625,-15.169 0.965,6.962 C 0.872,-0.57 0.394,-0.374 0,0"
             style="fill:#fff3ae;fill-opacity:1;fill-rule:nonzero;stroke:none"
             id="path288" /></g><g
           id="g290"
           transform="translate(418.126,352.957)"><path
             d="m 0,0 c -1.177,-0.062 -2.571,0.757 -2.359,2.066 0.118,0.73 0.746,1.195 1.471,1.427 -0.38,1.491 -0.758,2.983 -1.137,4.475 -4.565,1.443 -12.066,2.916 -19.302,-0.332 -0.692,-0.311 -1.348,-0.65 -1.972,-1.011 8.476,-4.997 16.95,-9.993 25.426,-14.99 C 1.418,-5.577 0.709,-2.789 0,0"
             style="fill:#ffd400;fill-opacity:1;fill-rule:nonzero;stroke:none"
             id="path292" /></g><g
           id="g294"
           transform="translate(403.2305,343.7412)"><path
             d="M 0,0 C -0.575,0.163 -0.899,0.157 -1.135,-0.007 -1.78,-0.454 -1.451,-1.859 -1.429,-1.949 -0.904,-4.089 1.67,-4.855 2.188,-4.993 3.224,-5.269 3.54,-5.026 3.621,-4.955 4.127,-4.512 3.825,-3.447 3.746,-3.17 3.097,-0.88 0.43,-0.122 0,0"
             style="fill:#ffd400;fill-opacity:1;fill-rule:nonzero;stroke:none"
             id="path296" /></g><g
           id="g298"
           transform="translate(399.6289,351.1523)"><path
             d="M 0,0 C -0.451,0.128 -0.705,0.123 -0.891,-0.005 -1.396,-0.356 -1.138,-1.459 -1.121,-1.529 -0.71,-3.207 1.31,-3.809 1.717,-3.917 2.528,-4.133 2.776,-3.942 2.84,-3.887 3.236,-3.539 3,-2.704 2.938,-2.486 2.429,-0.69 0.337,-0.096 0,0"
             style="fill:#ffd400;fill-opacity:1;fill-rule:nonzero;stroke:none"
             id="path300" /></g><g
           id="g302"
           transform="translate(409.4238,345.002)"><path
             d="m 0,0 c -0.35,0.1 -0.547,0.096 -0.69,-0.004 -0.393,-0.272 -0.193,-1.127 -0.179,-1.182 0.318,-1.301 1.885,-1.767 2.2,-1.851 0.629,-0.167 0.821,-0.021 0.871,0.023 0.308,0.27 0.124,0.917 0.076,1.086 C 1.883,-0.535 0.262,-0.074 0,0"
             style="fill:#ffd400;fill-opacity:1;fill-rule:nonzero;stroke:none"
             id="path304" /></g><g
           id="g306"
           transform="translate(290.457,376.127)"><path
             d="m 0,0 c -0.13,0.37 -0.186,0.768 -0.151,1.154 0.014,0.369 0.132,0.717 0.336,1.012 0.322,0.51 0.849,0.937 1.479,0.909 C 1.779,3.07 1.891,3.052 1.997,3.022 2.518,2.985 3.018,2.756 3.444,2.427 L 7.569,8.312 -8.222,33.247 -18.968,18.306 -3.081,-6.88 0.954,-1.125 C 0.517,-0.905 0.18,-0.512 0,0"
             style="fill:#fff3ae;fill-opacity:1;fill-rule:nonzero;stroke:none"
             id="path308" /></g><g
           id="g310"
           transform="translate(299.9492,392.8525)"><path
             d="m 0,0 c -1.076,0.481 -1.943,1.847 -1.158,2.915 0.438,0.596 1.209,0.723 1.961,0.6 0.342,1.5 0.684,3 1.027,4.5 -3.403,3.366 -9.408,8.097 -17.329,8.506 -0.756,0.04 -1.495,0.038 -2.215,0 C -12.45,8.21 -7.187,-0.103 -1.923,-8.414 -1.281,-5.609 -0.641,-2.805 0,0"
             style="fill:#ffd400;fill-opacity:1;fill-rule:nonzero;stroke:none"
             id="path312" /></g><g
           id="g314"
           transform="translate(282.4893,391.4443)"><path
             d="m 0,0 c -0.437,0.407 -0.729,0.55 -1.013,0.512 -0.778,-0.104 -1.126,-1.505 -1.147,-1.596 -0.509,-2.143 1.432,-3.999 1.831,-4.358 0.796,-0.717 1.187,-0.646 1.293,-0.62 0.651,0.165 0.868,1.25 0.925,1.532 C 2.355,-2.195 0.327,-0.305 0,0"
             style="fill:#ffd400;fill-opacity:1;fill-rule:nonzero;stroke:none"
             id="path316" /></g><g
           id="g318"
           transform="translate(282.6641,399.6826)"><path
             d="m 0,0 c -0.343,0.319 -0.571,0.432 -0.795,0.401 -0.61,-0.082 -0.883,-1.18 -0.9,-1.252 -0.399,-1.68 1.124,-3.136 1.436,-3.418 0.624,-0.562 0.932,-0.506 1.014,-0.486 0.512,0.129 0.682,0.98 0.726,1.201 C 1.847,-1.722 0.257,-0.239 0,0"
             style="fill:#ffd400;fill-opacity:1;fill-rule:nonzero;stroke:none"
             id="path320" /></g><g
           id="g322"
           transform="translate(288.5762,389.7422)"><path
             d="m 0,0 c -0.266,0.247 -0.443,0.334 -0.616,0.311 -0.474,-0.063 -0.685,-0.915 -0.698,-0.97 -0.31,-1.304 0.872,-2.433 1.114,-2.651 0.483,-0.436 0.721,-0.393 0.786,-0.377 0.396,0.1 0.528,0.759 0.562,0.932 C 1.432,-1.335 0.199,-0.186 0,0"
             style="fill:#ffd400;fill-opacity:1;fill-rule:nonzero;stroke:none"
             id="path324" /></g><g
           id="g326"
           transform="translate(525.0654,430.2246)"><path
             d="M 0,0 C -0.065,0.186 -0.093,0.386 -0.075,0.58 -0.068,0.765 -0.009,0.939 0.093,1.088 0.255,1.344 0.52,1.558 0.836,1.544 0.894,1.542 0.949,1.532 1.003,1.518 1.265,1.499 1.516,1.384 1.729,1.219 l 2.073,2.955 -7.93,12.521 -5.396,-7.503 7.977,-12.647 2.026,2.891 C 0.26,-0.454 0.091,-0.257 0,0"
             style="fill:#fff3ae;fill-opacity:1;fill-rule:nonzero;stroke:none"
             id="path328" /></g><g
           id="g330"
           transform="translate(529.832,438.623)"><path
             d="m 0,0 c -0.54,0.242 -0.976,0.928 -0.581,1.464 0.22,0.3 0.606,0.363 0.984,0.301 0.172,0.754 0.344,1.506 0.516,2.259 -1.709,1.691 -4.724,4.067 -8.701,4.273 -0.38,0.019 -0.751,0.018 -1.113,0 2.643,-4.174 5.287,-8.348 7.93,-12.522 C -0.644,-2.816 -0.321,-1.408 0,0"
             style="fill:#ffd400;fill-opacity:1;fill-rule:nonzero;stroke:none"
             id="path332" /></g><g
           id="g334"
           transform="translate(521.0645,437.916)"><path
             d="m 0,0 c -0.219,0.205 -0.365,0.276 -0.509,0.257 -0.39,-0.052 -0.565,-0.756 -0.576,-0.801 -0.255,-1.076 0.72,-2.009 0.92,-2.188 0.399,-0.361 0.597,-0.325 0.649,-0.312 0.328,0.082 0.436,0.627 0.464,0.77 C 1.183,-1.103 0.165,-0.153 0,0"
             style="fill:#ffd400;fill-opacity:1;fill-rule:nonzero;stroke:none"
             id="path336" /></g><g
           id="g338"
           transform="translate(521.1523,442.0527)"><path
             d="m 0,0 c -0.172,0.16 -0.287,0.217 -0.399,0.202 -0.306,-0.041 -0.444,-0.594 -0.452,-0.629 -0.201,-0.844 0.564,-1.575 0.721,-1.717 0.314,-0.282 0.468,-0.253 0.509,-0.243 0.257,0.065 0.343,0.491 0.365,0.603 C 0.928,-0.864 0.129,-0.12 0,0"
             style="fill:#ffd400;fill-opacity:1;fill-rule:nonzero;stroke:none"
             id="path340" /></g><g
           id="g342"
           transform="translate(524.1211,437.0615)"><path
             d="m 0,0 c -0.134,0.124 -0.223,0.168 -0.31,0.156 -0.237,-0.032 -0.343,-0.46 -0.35,-0.487 -0.155,-0.654 0.437,-1.222 0.559,-1.331 0.244,-0.219 0.363,-0.197 0.395,-0.19 0.199,0.05 0.266,0.382 0.283,0.468 C 0.72,-0.671 0.1,-0.094 0,0"
             style="fill:#ffd400;fill-opacity:1;fill-rule:nonzero;stroke:none"
             id="path344" /></g><g
           id="g346"
           transform="translate(209.9902,402.7471)"><path
             d="m 0,0 c -0.065,0.186 -0.093,0.385 -0.075,0.579 0.007,0.186 0.066,0.36 0.168,0.509 C 0.255,1.344 0.52,1.558 0.836,1.544 0.894,1.541 0.949,1.532 1.003,1.518 1.265,1.499 1.516,1.384 1.729,1.218 l 2.073,2.955 -7.93,12.521 -5.396,-7.503 7.977,-12.646 2.026,2.89 C 0.26,-0.455 0.091,-0.258 0,0"
             style="fill:#fff3ae;fill-opacity:1;fill-rule:nonzero;stroke:none"
             id="path348" /></g><g
           id="g350"
           transform="translate(214.7568,411.1455)"><path
             d="m 0,0 c -0.54,0.241 -0.976,0.928 -0.581,1.464 0.22,0.299 0.606,0.362 0.984,0.301 0.172,0.753 0.344,1.506 0.516,2.259 -1.709,1.691 -4.724,4.067 -8.701,4.272 -0.38,0.019 -0.751,0.018 -1.113,0 2.643,-4.174 5.287,-8.348 7.93,-12.522 C -0.644,-2.817 -0.322,-1.408 0,0"
             style="fill:#ffd400;fill-opacity:1;fill-rule:nonzero;stroke:none"
             id="path352" /></g><g
           id="g354"
           transform="translate(205.9893,410.4385)"><path
             d="m 0,0 c -0.219,0.204 -0.365,0.276 -0.509,0.257 -0.39,-0.053 -0.565,-0.756 -0.576,-0.801 -0.255,-1.076 0.72,-2.009 0.92,-2.189 0.399,-0.36 0.596,-0.325 0.649,-0.311 0.328,0.082 0.436,0.627 0.464,0.769 C 1.183,-1.103 0.165,-0.153 0,0"
             style="fill:#ffd400;fill-opacity:1;fill-rule:nonzero;stroke:none"
             id="path356" /></g><g
           id="g358"
           transform="translate(206.0771,414.5752)"><path
             d="M 0,0 C -0.172,0.16 -0.287,0.217 -0.399,0.201 -0.705,0.16 -0.843,-0.392 -0.851,-0.427 -1.052,-1.271 -0.287,-2.002 -0.13,-2.144 0.184,-2.426 0.338,-2.397 0.379,-2.388 0.636,-2.323 0.722,-1.896 0.744,-1.784 0.928,-0.865 0.129,-0.12 0,0"
             style="fill:#ffd400;fill-opacity:1;fill-rule:nonzero;stroke:none"
             id="path360" /></g><g
           id="g362"
           transform="translate(209.0459,409.583)"><path
             d="m 0,0 c -0.134,0.125 -0.223,0.168 -0.31,0.156 -0.237,-0.031 -0.343,-0.459 -0.35,-0.487 -0.155,-0.654 0.437,-1.221 0.559,-1.33 0.244,-0.22 0.363,-0.197 0.395,-0.19 0.199,0.05 0.266,0.381 0.283,0.468 C 0.719,-0.67 0.1,-0.093 0,0"
             style="fill:#ffd400;fill-opacity:1;fill-rule:nonzero;stroke:none"
             id="path364" /></g><g
           id="g366"
           transform="translate(365.499,480.5293)"><path
             d="m 0,0 c -0.196,-0.012 -0.396,0.017 -0.578,0.087 -0.176,0.058 -0.327,0.163 -0.442,0.302 -0.202,0.225 -0.334,0.539 -0.234,0.84 0.019,0.054 0.043,0.105 0.071,0.153 0.09,0.246 0.271,0.456 0.489,0.616 L -2.964,4.804 -17.186,0.631 -11.46,-6.624 2.895,-2.439 0.676,0.305 C 0.509,0.124 0.272,0.016 0,0"
             style="fill:#fff3ae;fill-opacity:1;fill-rule:nonzero;stroke:none"
             id="path368" /></g><g
           id="g370"
           transform="translate(358.7393,487.4248)"><path
             d="m 0,0 c -0.382,-0.453 -1.161,-0.683 -1.567,-0.155 -0.228,0.294 -0.182,0.683 -0.019,1.029 -0.677,0.373 -1.353,0.745 -2.03,1.118 -2.096,-1.177 -5.21,-3.421 -6.504,-7.187 -0.123,-0.36 -0.225,-0.717 -0.306,-1.07 4.74,1.391 9.481,2.783 14.222,4.173 C 2.53,-1.395 1.265,-0.697 0,0"
             style="fill:#ffd400;fill-opacity:1;fill-rule:nonzero;stroke:none"
             id="path372" /></g><g
           id="g374"
           transform="translate(357.0029,478.8018)"><path
             d="m 0,0 c -0.257,-0.154 -0.366,-0.275 -0.387,-0.418 -0.057,-0.39 0.571,-0.752 0.612,-0.774 0.963,-0.542 2.129,0.137 2.357,0.281 0.456,0.284 0.476,0.483 0.478,0.538 C 3.07,-0.036 2.577,0.219 2.448,0.285 1.386,0.834 0.192,0.116 0,0"
             style="fill:#ffd400;fill-opacity:1;fill-rule:nonzero;stroke:none"
             id="path376" /></g><g
           id="g378"
           transform="translate(353.0508,480.0264)"><path
             d="m 0,0 c -0.202,-0.121 -0.287,-0.217 -0.304,-0.328 -0.045,-0.306 0.448,-0.59 0.48,-0.608 0.756,-0.425 1.67,0.109 1.848,0.22 0.359,0.224 0.373,0.38 0.375,0.423 C 2.408,-0.028 2.021,0.171 1.92,0.224 1.087,0.653 0.15,0.091 0,0"
             style="fill:#ffd400;fill-opacity:1;fill-rule:nonzero;stroke:none"
             id="path380" /></g><g
           id="g382"
           transform="translate(358.667,481.5049)"><path
             d="m 0,0 c -0.156,-0.095 -0.223,-0.168 -0.235,-0.255 -0.036,-0.237 0.346,-0.457 0.372,-0.471 0.586,-0.33 1.294,0.084 1.433,0.171 0.278,0.173 0.289,0.294 0.29,0.327 C 1.867,-0.022 1.567,0.133 1.489,0.173 0.843,0.507 0.117,0.07 0,0"
             style="fill:#ffd400;fill-opacity:1;fill-rule:nonzero;stroke:none"
             id="path384" /></g><g
           id="g386"
           transform="translate(339.4053,310.9336)"><path
             d="m 0,0 c -0.197,-0.012 -0.396,0.017 -0.578,0.087 -0.176,0.058 -0.328,0.162 -0.443,0.302 -0.201,0.225 -0.333,0.539 -0.233,0.84 0.018,0.054 0.042,0.105 0.071,0.153 0.09,0.246 0.27,0.455 0.488,0.616 l -2.27,2.806 -14.222,-4.173 5.726,-7.255 14.356,4.185 -2.22,2.744 C 0.509,0.124 0.272,0.016 0,0"
             style="fill:#fff3ae;fill-opacity:1;fill-rule:nonzero;stroke:none"
             id="path388" /></g><g
           id="g390"
           transform="translate(332.6445,317.8291)"><path
             d="m 0,0 c -0.381,-0.453 -1.16,-0.683 -1.567,-0.155 -0.227,0.294 -0.182,0.682 -0.018,1.029 -0.677,0.372 -1.353,0.745 -2.03,1.118 -2.096,-1.177 -5.21,-3.421 -6.504,-7.187 -0.123,-0.36 -0.225,-0.717 -0.307,-1.07 4.741,1.391 9.482,2.782 14.222,4.173 C 2.531,-1.395 1.266,-0.697 0,0"
             style="fill:#ffd400;fill-opacity:1;fill-rule:nonzero;stroke:none"
             id="path392" /></g><g
           id="g394"
           transform="translate(330.9092,309.2061)"><path
             d="m 0,0 c -0.257,-0.154 -0.366,-0.275 -0.388,-0.418 -0.056,-0.39 0.572,-0.752 0.612,-0.774 0.964,-0.542 2.129,0.137 2.357,0.28 0.456,0.285 0.477,0.484 0.479,0.539 C 3.07,-0.036 2.576,0.219 2.448,0.285 1.386,0.833 0.192,0.116 0,0"
             style="fill:#ffd400;fill-opacity:1;fill-rule:nonzero;stroke:none"
             id="path396" /></g><g
           id="g398"
           transform="translate(326.957,310.4307)"><path
             d="m 0,0 c -0.202,-0.122 -0.288,-0.217 -0.304,-0.328 -0.046,-0.306 0.448,-0.59 0.48,-0.608 0.756,-0.425 1.669,0.109 1.848,0.22 0.358,0.224 0.373,0.38 0.375,0.422 C 2.408,-0.029 2.021,0.171 1.92,0.223 1.086,0.653 0.15,0.091 0,0"
             style="fill:#ffd400;fill-opacity:1;fill-rule:nonzero;stroke:none"
             id="path400" /></g><g
           id="g402"
           transform="translate(332.5732,311.9092)"><path
             d="m 0,0 c -0.156,-0.095 -0.223,-0.168 -0.235,-0.255 -0.036,-0.237 0.346,-0.457 0.371,-0.471 0.587,-0.33 1.295,0.084 1.433,0.171 0.278,0.173 0.29,0.294 0.291,0.327 C 1.867,-0.022 1.566,0.133 1.488,0.173 0.843,0.506 0.117,0.07 0,0"
             style="fill:#ffd400;fill-opacity:1;fill-rule:nonzero;stroke:none"
             id="path404" /></g></g></g><g
       id="g406"><g
         id="g408"
         clip-path="url(#clipPath412)"><g
           id="g414"
           transform="translate(141.123,121.5898)"><path
             d="m 0,0 c 1.773,6.62 6.021,10.539 10.691,14.849 1.883,1.738 7.175,6.379 15.443,10.097 5.148,2.316 9.745,3.506 13.067,4.158 -1.012,1.251 -2.309,3.134 -3.266,5.642 -3.191,8.359 0.184,16.392 1.782,20.195 4.945,11.773 14.88,17.611 18.709,19.601 1.264,-2.29 2.469,-4.763 3.564,-7.425 6.392,-15.535 6.137,-30.393 4.751,-40.686 2.772,0.85 5.643,1.647 8.613,2.376 16.097,3.951 31.072,4.922 44.07,4.461 0.092,-0.11 0.181,-0.22 0.276,-0.33 1.85,-2.159 3.083,-5.55 3.7,-8.943 0.925,-5.858 0.925,-11.718 2.467,-17.577 2.654,-12.605 4.356,-24.893 6.017,-37.204 -4.495,0.346 -7.832,0.825 -9.526,1.088 -2.237,0.346 -12.783,2.043 -25.622,6.83 C 75.507,-15.697 60.475,-5.077 50.486,3.267 49.26,2.303 47.557,1.041 45.438,-0.297 44.799,-0.7 38.056,-4.899 29.401,-7.425 16.508,-11.188 4.092,-9.861 -0.594,-9.207 -0.857,-7.097 -1.014,-3.783 0,0"
             style="fill:#00ffa9;fill-opacity:1;fill-rule:nonzero;stroke:none"
             id="path416" /></g><g
           id="g418"
           transform="translate(307.3594,228.6543)"><path
             d="m 0,0 c -1.068,1.368 -2.424,2.473 -3.476,3.858 -1.267,1.672 -1.651,3.399 -1.367,5.461 0.13,0.945 1.304,1.721 2.208,1.682 C 2.147,10.794 3.797,5.897 4.68,1.945 5.172,-0.258 2.689,-1.49 1.216,-0.646 0.742,-0.587 0.301,-0.385 0,0 m -43.3,-111.594 c 1.165,-8.607 2.239,-17.185 3.008,-25.733 11.49,-1.293 20.414,-0.487 22.322,0.075 0.243,0.071 1.431,0.45 3.063,0.546 0.654,0.039 1.191,0.02 1.53,0 0.038,-1.617 0.103,-3.959 0.219,-6.779 0.184,-4.45 0.538,-12.674 1.531,-21.216 1.002,-8.609 1.385,-6.635 2.297,-14.653 1.87,-16.454 0.375,-25.795 -0.547,-28.543 -0.432,-1.286 -0.543,-1.951 -0.766,-3.281 -0.415,-2.474 -0.612,-3.762 0.11,-4.811 0.634,-0.922 1.412,-0.836 1.969,-1.969 0.446,-0.908 0.358,-1.803 0.328,-2.078 -0.229,-2.062 -1.937,-2.287 -3.172,-5.03 -0.409,-0.91 -0.93,-2.111 -0.438,-3.281 0.313,-0.741 0.911,-1.184 1.313,-1.422 5.941,-2.359 15.173,-4.746 24.168,-1.203 0.679,0.268 1.335,0.561 1.969,0.875 0.048,1.99 -0.338,3.528 -0.657,4.484 -1.111,3.331 -3.632,6.285 -6.124,7.436 -3.461,1.599 -3.609,1.641 -3.609,1.641 -0.391,0.11 -0.92,0.236 -1.431,0.681 -0.693,0.605 -0.95,1.45 -1.09,1.907 -0.185,0.609 -0.229,1.14 -0.236,1.503 -0.078,3.416 -0.554,24.962 0.147,35.766 0.18,2.761 0.278,4.177 0.667,5.914 1.24,5.548 3.751,8.628 3.625,12.587 -0.109,3.459 -0.114,3.5 -0.114,3.501 -0.005,0.041 -0.169,1.378 -0.057,3.098 0.041,0.636 0.105,1.095 0.459,1.378 0.538,0.429 1.388,0.168 1.549,0.114 0.455,-0.15 0.753,-0.424 0.906,-0.587 2.613,-4.301 6.859,-11.255 12.243,-19.922 6.342,-10.207 7.007,-11.111 8.301,-14.111 4.013,-9.298 3.286,-13.727 6.64,-24.279 0.65,-2.043 1.253,-3.69 1.038,-6.018 -0.309,-3.338 -2.016,-5.01 -1.038,-6.641 0.4,-0.665 0.746,-0.492 3.529,-2.283 1.659,-1.068 2.493,-1.611 2.697,-2.075 0.701,-1.589 -1.005,-2.87 -1.66,-6.226 -0.359,-1.833 -0.66,-3.38 0,-4.564 2.051,-3.678 12.29,-1.87 18.586,-0.759 2.923,0.516 5.297,1.099 6.864,1.517 -0.719,2.331 -2.578,7.201 -7.244,11.379 -3.097,2.773 -6.263,4.195 -8.344,4.931 -0.061,0.12 -0.135,0.302 -0.153,0.529 -0.033,0.388 0.112,0.688 0.149,0.772 0.28,0.639 0.09,1.927 -0.267,2.838 -0.555,1.422 -1.609,2.172 -1.951,2.396 -0.656,0.428 -1.28,0.619 -1.685,0.709 -0.281,0.76 -0.677,1.872 -1.101,3.228 -1.492,4.772 -2.035,8.407 -2.743,13.107 -1.466,9.716 -1.075,6.956 -1.829,12.04 -0.755,5.089 -1.231,8.426 -2.092,13.355 -0.328,1.874 -0.611,3.41 -0.8,4.416 -1.187,1.014 -2.782,2.494 -4.465,4.464 -1.736,2.033 -4.112,4.814 -5.581,8.77 -0.399,1.078 -0.745,3.429 -1.434,8.132 -0.632,4.301 -1.028,7.045 -1.277,10.843 -0.168,2.577 -0.213,4.8 -0.244,6.33 -0.049,2.438 -0.075,3.656 -0.006,4.607 0.225,3.085 1.36,5.585 2.445,8.146 3.135,7.396 6.617,9.144 9.891,14.546 5.754,9.493 4.597,19.93 4.306,22.111 -0.724,5.429 -3.014,9.551 -7.564,17.573 -2.996,5.281 -7.295,12.125 -13.267,19.667 0.985,0.179 2.441,0.53 4.073,1.28 1.538,0.708 2.175,1.284 3.841,2.328 2.424,1.518 4.451,2.414 5.586,2.909 2.285,0.998 4.065,1.775 6.517,2.211 3.669,0.652 4.485,-0.237 6.632,0.814 0.664,0.325 2.84,1.514 3.725,3.958 1.337,3.694 -1.379,7.219 -1.746,7.68 -1.679,2.112 -3.867,2.912 -8.263,4.073 -6.765,1.788 -10.042,2.127 -15.594,3.375 -10.782,2.424 -12.267,4.258 -12.916,5.47 -1.693,3.152 -0.458,7.16 -0.118,8.262 1.177,3.814 3.159,4.128 4.539,8.263 1.064,3.184 1.327,7.301 0,7.914 C 16.81,17.875 14.787,16.153 13.67,14.598 11.624,11.748 12.475,9.264 10.993,8.662 9.69,8.134 7.713,9.521 6.804,10.989 5.66,12.839 6.159,14.896 6.455,16.11 c 0.381,1.571 0.975,2.38 2.327,4.538 1.667,2.662 0.132,0.42 3.957,6.75 1.938,3.207 2.773,4.513 3.258,6.75 0.186,0.856 0.686,3.159 -0.232,3.724 -0.633,0.39 -1.667,-0.215 -2.095,-0.466 -2.45,-1.433 -2.906,-4.196 -3.491,-4.073 -0.166,0.035 -0.418,0.319 -0.466,3.259 -0.051,3.126 0.217,3.841 0,5.702 -0.2,1.728 -0.441,3.796 -1.629,4.189 C 7.148,46.793 5.845,45.994 5.291,44.971 4.604,43.702 5.144,42.226 5.407,41.363 5.812,40.039 5.755,37.339 5.64,31.937 5.601,30.09 5.226,27.253 4.477,21.58 4.049,18.344 3.813,16.945 2.964,16.692 c -1.21,-0.36 -2.83,1.851 -3.722,3.068 -1.057,1.443 -3.373,4.602 -2.288,7.027 0.263,0.587 0.938,1.181 2.288,2.369 1.195,1.054 1.57,1.167 2.86,2.288 1.508,1.312 2.264,1.986 2.37,2.861 0.152,1.267 -0.784,2.68 -1.553,2.696 -0.52,0.011 -0.621,-0.622 -1.635,-1.145 -0.171,-0.087 -1.47,-0.755 -2.042,-0.326 -0.499,0.374 -0.214,1.403 0.571,4.658 0.736,3.046 0.875,3.758 0.981,4.576 0.266,2.051 0.542,4.189 -0.408,4.739 -0.744,0.43 -2.063,-0.22 -2.86,-0.982 -0.995,-0.95 -1.216,-2.111 -1.88,-6.781 -0.482,-3.396 -0.656,-4.832 -1.47,-5.066 -0.552,-0.158 -1.139,0.307 -1.471,0.572 -0.657,0.523 -1.068,1.257 -1.798,4.004 -0.598,2.254 -0.664,3.045 -1.388,3.432 -0.532,0.283 -1.274,0.274 -1.716,-0.082 -0.632,-0.508 -0.489,-1.592 -0.327,-2.697 0.128,-0.882 0.385,-1.936 1.225,-3.84 0.842,-1.908 1.191,-2.227 1.716,-3.758 0.485,-1.414 0.914,-2.665 0.408,-3.106 -0.533,-0.465 -1.912,0.146 -2.777,0.818 -1.064,0.824 -1.657,1.977 -2.288,4.33 -0.763,2.844 -1.031,5.396 -1.145,7.681 -0.154,3.1 -0.231,4.65 -0.081,6.046 0.242,2.258 0.733,3.859 -0.245,5.067 -0.055,0.067 -0.832,1.003 -1.716,0.874 -0.724,-0.106 -1.296,-0.893 -1.798,-2.264 -2.109,-5.758 -1.062,-12.746 -1.062,-12.746 0.869,-5.804 1.327,-8.859 3.759,-11.849 2.467,-3.034 4.925,-3.49 5.882,-6.863 0.742,-2.61 -0.009,-4.879 -0.245,-5.557 -0.342,-0.992 -1.314,-3.798 -3.355,-4.201 -0.785,-0.155 -1.754,0.361 -3.659,1.401 -2.974,1.623 -4.862,3.23 -5.527,3.814 -1.058,0.931 -1.588,1.396 -1.946,1.868 -2.99,3.949 -0.79,11.692 0.467,16.114 0.168,0.591 1.014,3.526 0.233,6.539 -0.271,1.048 -0.683,1.891 -1.478,2.258 -0.616,0.284 -1.496,0.299 -2.025,-0.156 -0.539,-0.464 -0.543,-1.274 -0.545,-1.557 -0.065,-10.111 -0.121,-18.603 -2.646,-19.85 -0.617,-0.305 -1.392,-0.005 -2.958,0.545 -2.514,0.883 -4.002,2.595 -6.617,5.682 -1.438,1.698 -2.157,2.546 -2.725,3.737 -1.003,2.104 -1.233,4.154 -1.401,5.76 -0.308,2.942 0.131,3.741 -0.7,5.372 -0.289,0.565 -1.114,2.185 -2.57,2.335 -0.663,0.069 -1.38,-0.176 -1.868,-0.623 -1.131,-1.031 -0.854,-2.964 -0.467,-5.449 0.97,-6.21 1.46,-9.326 1.713,-9.886 1.122,-2.487 2.486,-3.889 5.215,-6.695 2.516,-2.586 5.319,-4.939 9.264,-7.629 2.323,-1.583 3.53,-2.253 10.976,-6.461 7.431,-4.199 11.221,-6.363 14.868,-9.497 1.567,-1.345 3.862,-3.493 5.528,-6.928 0.696,-1.437 1.093,-2.708 1.323,-3.581 -4.985,-3.897 -7.994,-7.881 -7.24,-9.963 0.543,-1.497 1.635,-2.025 1.635,-2.025 0.898,-0.433 1.803,-0.254 2.179,-0.155 -1.103,-1.011 -2.655,-2.646 -3.97,-4.983 -0.58,-1.032 -2.18,-4.097 -2.724,-11.053 -0.371,-4.752 -0.013,-8.288 0.39,-12.067 0.499,-4.687 1.056,-9.628 3.269,-15.646 0.968,-2.635 1.98,-4.73 2.71,-6.131 -1.136,-1.611 -2.377,-3.269 -3.732,-4.952 -0.738,-0.916 -1.473,-1.796 -2.204,-2.641 -5.731,0.511 -14.543,1.492 -25.203,3.521 -6.601,1.256 -11.241,2.405 -15.238,3.394 4.974,-12.356 6.907,-25.338 8.619,-38.541"
             style="fill:#ff0020;fill-opacity:1;fill-rule:nonzero;stroke:none"
             id="path420" /></g><g
           id="g422"
           transform="translate(322.9473,206.9521)"><path
             d="M 0,0 C -0.532,3 3.323,6.626 6.749,5.856 7.759,5.605 8.664,5.047 9.342,4.259 10.019,3.471 10.434,2.49 10.529,1.456 10.599,0.731 10.49,0.003 10.21,-0.669 9.966,-1.206 9.646,-1.708 9.264,-2.159 8.764,-2.733 8.145,-3.192 7.448,-3.505 4.458,-4.841 0.471,-2.679 0,0"
             style="fill:#ffffff;fill-opacity:1;fill-rule:nonzero;stroke:none"
             id="path424" /></g><g
           id="g426"
           transform="translate(329.6104,203.3428)"><path
             d="m 0,0 c -1.23,0.74 -2.008,2.723 -1.704,4.93 0.305,2.208 1.495,3.876 2.892,4.282 1.823,-1.124 3.439,-3.096 2.716,-5.32 0,0 -0.062,-0.244 -0.072,-0.28 C 3.782,3.421 3.718,3.233 3.639,3.053 3.47,2.537 3.186,2.066 2.809,1.675 2.347,1.163 1.801,0.735 1.194,0.409 1.006,0.317 0.722,0.233 0.558,0.143 0.379,0.066 0.19,0.019 0,0"
             style="fill:#000000;fill-opacity:1;fill-rule:nonzero;stroke:none"
             id="path428" /></g><g
           id="g430"
           transform="translate(329.6104,203.3428)"><path
             d="m 0,0 c -1.23,0.74 -2.008,2.723 -1.704,4.93 0.305,2.208 1.495,3.876 2.892,4.282 1.823,-1.124 3.439,-3.096 2.716,-5.32 0,0 -0.062,-0.244 -0.072,-0.28 C 3.782,3.421 3.718,3.233 3.639,3.053 3.47,2.537 3.186,2.066 2.809,1.675 2.347,1.163 1.801,0.735 1.194,0.409 1.006,0.317 0.722,0.233 0.558,0.143 0.379,0.066 0.19,0.019 0,0 Z"
             style="fill:none;stroke:#000000;stroke-width:1;stroke-linecap:butt;stroke-linejoin:miter;stroke-miterlimit:10;stroke-dasharray:none;stroke-opacity:1"
             id="path432" /></g><g
           id="g434"
           transform="translate(1140.6357,555.1191)"><path
             d="m 0,0 c -0.443,-1.638 -1.165,-4.118 -2.236,-7.081 -2.19,-6.055 -3.334,-9.102 -5.777,-10.064 -2.293,-0.901 -5.207,-0.134 -6.895,1.492 -1.498,1.443 -1.766,3.309 -2.05,6.149 -0.647,6.484 -0.971,9.728 -0.745,13.231 0.293,4.549 0.594,9.212 2.423,14.908 2.424,7.546 6.393,13.359 10.062,17.516 0.254,0.334 0.962,1.171 2.05,1.305 1.515,0.186 2.678,-1.125 3.168,-1.678 1.357,-1.53 1.39,-2.968 2.05,-5.217 0.389,-1.33 1.129,-2.812 2.608,-5.777 0.802,-1.605 2.111,-4.021 6.15,-9.69 3.719,-5.22 5.579,-7.83 6.895,-9.131 5.375,-5.316 11.097,-7.46 12.671,-8.013 4.821,-1.692 8.784,-1.808 11.367,-1.863 11.902,-0.253 20.818,4.452 24.971,6.708 7.063,3.837 10.989,5.969 13.417,10.622 5.46,10.465 -2.153,23.146 -3.168,24.784 1.363,-0.268 3.792,-0.936 6.149,-2.796 1.303,-1.027 5.613,-4.805 5.405,-10.807 -0.214,-6.163 -5.017,-9.66 -5.591,-10.063 0.1,-1.139 0.201,-2.741 0.186,-4.659 -0.022,-3.088 -0.059,-8.033 -2.049,-13.604 -1.802,-5.043 -4.587,-8.866 -7.082,-11.552 -0.208,-3.999 -0.394,-8.037 -0.558,-12.114 -0.241,-5.977 -0.426,-11.879 -0.56,-17.702 0.449,-0.156 1.635,-0.636 2.423,-1.864 1.164,-1.813 0.527,-3.805 0.372,-4.285 -0.546,-1.706 -1.761,-2.651 -2.235,-2.983 -0.015,-1.127 -0.027,-2.882 0,-5.031 0.081,-6.507 0.404,-6.856 0.558,-13.602 0.117,-5.052 -0.052,-5.382 0.374,-6.896 0.477,-1.697 1.117,-2.802 0.558,-3.913 -0.821,-1.635 -3.426,-1.677 -3.54,-1.677 -1.986,-0.007 -4.201,1.244 -4.286,2.609 -0.073,1.174 1.448,2.119 1.863,2.423 2.179,1.592 3.608,7.23 0,25.342 -0.404,0.149 -1.696,0.683 -2.423,2.05 -0.813,1.532 -0.589,3.497 0.56,5.031 -1.025,1.68 -2.067,3.668 -2.981,5.964 -2.071,5.199 -2.673,9.947 -2.796,13.417 -1.145,-0.925 -2.384,-1.801 -3.727,-2.609 -11.844,-7.12 -25.329,-4.994 -32.052,-3.355 -0.508,-2.918 -1.005,-5.837 -1.49,-8.757 -0.444,-2.669 -0.879,-5.34 -1.305,-8.013 0.887,-0.836 1.292,-1.676 1.491,-2.236 0.84,-2.374 -0.078,-5.239 -2.237,-7.455 -0.307,-3.229 -0.274,-5.843 -0.185,-7.64 0.092,-1.875 0.258,-3.14 0.372,-6.15 0.173,-4.544 -0.061,-5.474 -0.559,-6.335 -0.762,-1.318 -2.464,-3.024 -4.472,-2.795 -1.356,0.154 -2.813,1.185 -2.982,2.422 -0.185,1.358 1.234,2.557 1.677,2.982 1.802,1.725 3.275,5.767 1.678,16.025 -0.345,0.175 -1.542,0.834 -2.05,2.237 -0.564,1.555 -0.051,3.396 1.304,4.659 0.01,2.037 0.01,4.087 0,6.149 -0.032,6.263 -0.16,12.414 -0.373,18.448 -2.489,1.999 -5.354,4.736 -8.012,8.386 C 2.041,-13.836 0.462,-4.842 0,0"
             style="fill:#ff0020;fill-opacity:1;fill-rule:nonzero;stroke:none"
             id="path436" /></g><g
           id="g438"
           transform="translate(1156.0713,474.6611)"><path
             d="m 0,0 c -0.998,0.429 -1.746,0.201 -4.687,-0.217 -1.794,-0.255 -3.239,-0.415 -4.112,-0.505 0.284,-0.241 0.619,-0.489 1.01,-0.72 1.233,-0.73 2.439,-0.946 3.246,-1.01 -1.034,-0.482 -2.067,-0.962 -3.102,-1.443 0.526,-0.337 1.304,-0.768 2.308,-1.082 3.033,-0.945 7.202,-0.527 7.789,1.226 C 2.86,-2.53 1.534,-0.66 0,0"
             style="fill:#6000ff;fill-opacity:1;fill-rule:nonzero;stroke:none"
             id="path440" /></g><g
           id="g442"
           transform="translate(1212.1641,469.7773)"><path
             d="M 0,0 C 0.021,0.703 -0.968,1.259 -2.175,1.938 -3.034,2.421 -4.609,3.307 -6.322,2.891 -7.213,2.675 -7.327,2.304 -8.396,1.826 -9.808,1.194 -11.161,1.147 -12.095,1.21 c 0.34,-0.273 0.805,-0.574 1.402,-0.785 1.828,-0.645 3.496,0.055 3.978,0.28 -0.287,-0.343 -0.777,-0.838 -1.513,-1.232 -1.045,-0.563 -2.026,-0.622 -2.521,-0.618 0.752,-0.452 1.895,-1.007 3.362,-1.232 C -3.913,-2.91 -0.042,-1.37 0,0"
             style="fill:#6000ff;fill-opacity:1;fill-rule:nonzero;stroke:none"
             id="path444" /></g><g
           id="g446"
           transform="translate(1136.0234,592.5615)"><path
             d="m 0,0 c -0.33,0.791 0.668,1.938 1.819,3.103 2.357,2.384 3.864,3.909 7.275,5.883 3.394,1.966 5.092,2.949 7.489,2.889 0.957,-0.023 4.085,-0.101 5.135,-2.246 C 22.47,8.093 21.73,6.368 21.504,5.884 21.408,6.502 21.159,7.399 20.435,8.024 18.802,9.43 16,8.38 14.764,7.917 11.109,6.548 9.063,3.723 8.024,2.247 7.102,0.937 5.793,-1.271 5.028,-4.387 4.711,-3.456 4.132,-2.286 2.996,-1.498 1.618,-0.541 0.32,-0.769 0,0"
             style="fill:#6000ff;fill-opacity:1;fill-rule:nonzero;stroke:none"
             id="path448" /></g><g
           id="g450"
           transform="translate(1136.5322,580.5322)"><path
             d="m 0,0 c -1.661,-0.888 -1.242,-4.543 -0.884,-7.663 0.399,-3.476 0.76,-6.628 3.095,-9.873 1.659,-2.307 3.609,-3.679 4.862,-4.421 0.948,3.106 1.16,5.725 1.179,7.516 C 8.275,-12.26 8.365,-3.835 3.39,-0.736 2.899,-0.432 1.187,0.635 0,0"
             style="fill:#6000ff;fill-opacity:1;fill-rule:nonzero;stroke:none"
             id="path452" /></g><g
           id="g454"
           transform="translate(1125.4961,539.7041)"><path
             d="M 0,0 C 0.398,0.394 0.838,0.918 1.214,1.597 2.351,3.653 2.121,5.726 1.978,6.562 1.636,6.58 0.494,6.596 -0.544,5.799 -1.173,5.315 -1.497,4.739 -1.651,4.408 -1.62,3.874 -1.526,3.188 -1.279,2.424 -0.926,1.329 -0.4,0.519 0,0"
             style="fill:#6000ff;fill-opacity:1;fill-rule:nonzero;stroke:none"
             id="path456" /></g><g
           id="g458"
           transform="translate(1135.0771,565.9072)"><path
             d="M 0,0 C -0.226,2.617 -4.244,4.778 -6.927,3.374 -7.712,2.94 -8.342,2.273 -8.73,1.466 c -0.389,-0.807 -0.516,-1.717 -0.365,-2.6 0.103,-0.618 0.357,-1.201 0.74,-1.698 0.323,-0.394 0.7,-0.74 1.119,-1.03 0.545,-0.367 1.163,-0.612 1.812,-0.718 C -2.635,-5.025 0.205,-2.337 0,0"
             style="fill:#ffffff;fill-opacity:1;fill-rule:nonzero;stroke:none"
             id="path460" /></g><g
           id="g462"
           transform="translate(1130.3311,561.416)"><path
             d="M 0,0 C 0.859,0.891 1.065,2.716 0.32,4.486 -0.425,6.257 -1.788,7.382 -3.043,7.408 -4.31,6.066 -5.218,4.063 -4.119,2.371 c 0,0 0.105,-0.187 0.122,-0.216 0.084,-0.148 0.18,-0.29 0.285,-0.423 C -3.456,1.34 -3.114,1.011 -2.713,0.77 -2.214,0.446 -1.664,0.211 -1.086,0.074 -0.908,0.04 -0.653,0.033 -0.496,-0.006 -0.331,-0.029 -0.163,-0.027 0,0"
             style="fill:#000000;fill-opacity:1;fill-rule:nonzero;stroke:none"
             id="path464" /></g><g
           id="g466"
           transform="translate(420.1982,394.0986)"><path
             d="m 0,0 c 1.129,-1.139 3.271,-3.624 4.068,-7.361 1.025,-4.803 -0.813,-8.674 -1.937,-11.041 -0.524,-1.103 -2.689,-5.429 -7.555,-8.911 -4.89,-3.5 -9.733,-4.162 -14.722,-4.843 -6.409,-0.875 -11.429,-0.227 -12.979,0 -2.851,0.416 -2.726,0.683 -15.304,4.261 -6.141,1.748 -7.778,2.141 -9.879,2.519 -3.081,0.553 -5.412,0.756 -10.073,1.162 -4.916,0.428 -7.412,0.637 -9.299,0.387 -3.015,-0.399 -6.685,-0.884 -9.491,-3.874 -0.498,-0.53 -2.932,-3.232 -3.068,-7.262 -0.015,-0.415 -0.054,-2.29 0.818,-4.5 0.182,-0.463 1.071,-2.631 3.579,-4.909 3.778,-3.432 8.178,-4.345 10.024,-4.704 6.047,-1.18 11.085,0.283 13.602,1.226 -1.924,0.042 -4.632,0.254 -7.773,1.024 -2.379,0.582 -5.761,1.443 -9.307,3.886 -2.655,1.829 -5.557,3.828 -5.83,7.057 -0.018,0.211 -0.192,2.73 1.534,4.704 1.062,1.215 2.478,1.808 4.807,2.25 4.982,0.948 9.146,0.256 10.023,0.103 8.859,-1.549 13.287,-2.323 16.159,-3.069 8.284,-2.147 8.412,-2.817 15.036,-4.193 3.78,-0.785 7.634,-1.377 11.965,-1.636 2.618,-0.157 4.262,-0.255 6.546,-0.102 7.072,0.474 12.138,2.817 13.5,3.477 2.103,1.018 5.222,2.562 8.387,5.728 1.339,1.339 4.687,4.764 6.443,10.329 1.142,3.616 1.142,6.647 1.125,8.796 -0.016,2.096 -0.034,4.461 -0.92,7.262 C 8.253,1.642 5.226,6.799 2.934,6.356 0.9,5.965 0.189,1.312 0,0"
             style="fill:#ff0020;fill-opacity:1;fill-rule:nonzero;stroke:none"
             id="path468" /></g><g
           id="g470"
           transform="translate(340.5342,431.4619)"><path
             d="m 0,0 c -0.778,0.271 -1.945,0.656 -3.385,1.041 -2.816,0.753 -6.166,1.648 -10.283,1.433 -1.398,-0.075 -3.435,-0.305 -5.857,-1.042 0.088,0.974 0.114,2.519 -0.391,4.296 -0.446,1.568 -1.299,4.564 -3.646,5.207 -1.987,0.544 -3.855,-0.928 -4.165,-1.172 -1.888,-1.488 -2.237,-3.703 -2.473,-5.207 -0.143,-0.906 -0.667,-4.956 1.953,-8.331 0.609,-0.787 1.237,-1.338 1.692,-1.693 -0.686,-1.12 -1.661,-2.77 -2.734,-4.816 -5.433,-10.356 -6.524,-17.733 -6.769,-19.656 -0.284,-2.237 -0.229,-3.476 -0.13,-5.728 0.163,-3.691 0.684,-4.595 1.042,-5.076 1.197,-1.615 3.185,-1.993 4.425,-2.213 1.131,-0.201 3.904,-0.536 10.024,1.822 6.152,2.37 10.218,5.355 11.716,6.509 2.342,1.805 4.121,3.533 5.336,4.816 1.218,-1.003 2.689,-2.083 4.426,-3.124 2.029,-1.216 3.943,-2.094 5.598,-2.734 -0.354,-1.3 -0.714,-2.781 -1.042,-4.426 -0.617,-3.095 -0.556,-3.941 -1.432,-4.946 -0.713,-0.818 -2.015,-1.706 -3.514,-1.953 -0.965,-0.158 -1.569,0.021 -2.6,-0.43 -0.32,-0.14 -1.113,-0.486 -1.658,-1.228 -1.153,-1.567 -0.334,-3.711 -0.246,-3.932 l 2.027,2.212 c -0.048,-0.441 -0.075,-0.935 -0.061,-1.475 0.022,-0.905 0.153,-1.694 0.306,-2.334 0.283,0.431 0.609,0.885 0.984,1.351 0.585,0.727 1.172,1.338 1.719,1.844 -0.026,-0.402 -0.018,-1.074 0.246,-1.844 0.292,-0.849 0.759,-1.42 1.044,-1.72 -0.118,0.418 -0.24,1.112 0.062,1.781 0.258,0.572 0.71,0.869 1.904,1.598 1.079,0.658 1.618,0.987 2.151,1.29 1.541,0.876 2.495,1.948 3.44,3.01 2.711,3.048 3.729,7.08 3.992,8.232 l 2.397,-0.492 c 0.204,-0.962 0.409,-1.925 0.614,-2.887 0.206,-1.091 0.33,-2.046 0.408,-2.819 0.041,-0.411 0.111,-1.185 0.144,-2.152 0.022,-0.668 -0.01,-0.329 0,-1.722 0,0 0.003,-0.386 -0.065,-0.934 -0.045,-0.361 -0.091,-0.547 -0.193,-0.74 -0.061,-0.113 -0.158,-0.293 -0.355,-0.434 -0.106,-0.078 -0.277,-0.17 -0.691,-0.21 -0.493,-0.047 -0.888,0.02 -1.111,0.064 -0.622,0.124 -0.766,0.235 -1.192,0.339 -0.226,0.055 -1.049,0.246 -1.963,0 -0.271,-0.074 -0.991,-0.268 -1.547,-0.893 -0.94,-1.056 -0.666,-2.504 -0.624,-2.707 0.204,0.114 0.431,0.225 0.684,0.328 0.624,0.252 1.201,0.366 1.666,0.417 -0.195,-0.266 -0.436,-0.654 -0.614,-1.162 -0.239,-0.681 -0.261,-1.282 -0.243,-1.662 0.364,0.109 0.729,0.216 1.094,0.325 0.737,0.412 1.473,0.824 2.209,1.237 -0.093,-0.26 -0.183,-0.537 -0.263,-0.832 -0.248,-0.914 -0.344,-1.756 -0.365,-2.473 0.792,0.749 1.538,1.228 2.063,1.522 0.702,0.392 2.206,1.234 4.192,1.318 1.129,0.048 1.571,-0.185 2.366,0.169 0.759,0.337 1.212,0.929 1.556,1.454 1.224,1.874 1.694,3.901 2.333,7.066 0.203,1.009 0.445,2.237 0.706,3.639 2.987,-0.912 5.597,-1.561 7.677,-2.024 3.933,-0.876 5.899,-1.315 8.523,-1.507 0.933,-0.069 2.995,-0.185 6.264,-0.472 0.658,-0.057 1.198,-0.107 1.555,-0.14 -0.385,-0.22 -0.928,-0.51 -1.602,-0.801 -1.249,-0.539 -2.282,-0.796 -2.92,-0.943 -2.847,-0.651 -3.484,-0.391 -5.698,-0.894 -2.217,-0.504 -3.738,-1.255 -4.615,-1.695 -2.939,-1.475 -3.663,-2.686 -3.909,-3.156 -0.355,-0.676 -0.499,-1.307 -0.566,-1.742 0.387,0.309 0.841,0.632 1.366,0.941 0.951,0.561 1.85,0.909 2.59,1.13 -0.304,-0.296 -0.732,-0.791 -1.036,-1.506 -0.546,-1.289 -0.34,-2.465 -0.235,-2.92 0.242,0.368 0.551,0.772 0.942,1.177 0.946,0.978 1.962,1.529 2.685,1.837 -0.258,-0.396 -0.589,-1.017 -0.754,-1.837 -0.295,-1.465 0.121,-2.657 0.33,-3.155 0.267,0.521 0.721,1.276 1.46,2.025 1.134,1.148 2.344,1.674 3.107,1.978 4.847,1.927 10.007,2.567 10.007,2.567 6.289,0.782 5.812,0.328 8.737,0.846 2.773,0.491 6.979,1.237 11.415,4.087 5.348,3.436 7.933,7.938 8.597,9.16 0.513,0.943 2.494,4.732 2.96,10.148 0.443,5.162 -0.728,9.028 -1.832,12.543 -1.057,3.364 -3.355,10.41 -9.725,17.193 -1.959,2.087 -6.443,6.76 -13.952,9.724 -5.238,2.068 -9.602,2.378 -12.12,2.537 C 35.502,12.893 27.343,9.496 23.187,7.712 19.84,6.274 17.21,4.767 15.439,3.661 14.948,4.024 14.203,4.493 13.219,4.824 11.129,5.526 9.335,5.146 7.826,4.824 4.894,4.2 2.99,2.832 2.54,2.498 1.355,1.619 0.531,0.69 0,0"
             style="fill:#f9c6ca;fill-opacity:1;fill-rule:nonzero;stroke:none"
             id="path472" /></g><g
           id="g474"
           transform="translate(304.3242,396.3096)"><path
             d="m 0,0 c -0.638,-0.313 -1.004,-0.943 -1.197,-1.275 -0.24,-0.415 -0.84,-1.447 -0.457,-2.652 0.036,-0.115 0.419,-1.255 1.554,-1.737 1.279,-0.544 2.527,0.166 3.2,0.549 0.623,0.354 1.954,1.111 2.01,2.194 C 5.204,-1.145 1.83,0.902 0,0"
             style="fill:#ff0020;fill-opacity:1;fill-rule:nonzero;stroke:none"
             id="path476" /></g><g
           id="g478"
           transform="translate(316.623,428.9561)"><path
             d="m 0,0 c 0.031,0.496 0.064,1.178 0.074,1.989 0.011,0.955 0.022,2.207 -0.147,3.757 -0.122,1.118 -0.225,2.013 -0.59,3.168 -0.369,1.171 -0.672,2.084 -1.547,2.726 -0.581,0.426 -1.195,0.573 -1.605,0.629 -0.346,-0.282 -0.821,-0.73 -1.248,-1.378 -0.131,-0.2 -0.494,-0.775 -0.839,-1.92 -0.395,-1.309 -0.5,-2.478 -0.518,-3.31 -0.02,-0.928 -0.038,-2.266 0.494,-3.857 0.442,-1.318 1.072,-2.247 1.849,-3.392 0.481,-0.709 0.925,-1.272 1.254,-1.668 C -1.882,-2.17 -0.941,-1.085 0,0"
             style="fill:#ff0020;fill-opacity:1;fill-rule:nonzero;stroke:none"
             id="path480" /></g><g
           id="g482"
           transform="translate(340.915,423.5039)"><path
             d="m 0,0 c 0.079,0.426 0.24,0.909 1.551,2.738 1.355,1.891 2.353,3.284 4.199,5.112 2.586,2.562 4.016,3.938 6.298,4.29 0.939,0.144 1.63,0.158 2.224,-0.006 1.222,-0.336 1.946,-1.155 2.363,-1.629 1.438,-1.63 1.634,-3.521 1.692,-4.169 0.03,-0.34 0.111,-1.5 -0.293,-2.93 C 17.937,3.066 17.515,1.655 15.91,-0.293 13.765,-2.895 11.369,-4.196 10.855,-4.468 8.093,-5.929 5.701,-7.193 3.348,-6.152 1.054,-5.138 -0.427,-2.275 0,0"
             style="fill:#ff0020;fill-opacity:1;fill-rule:nonzero;stroke:none"
             id="path484" /></g><g
           id="g486"
           transform="translate(320.5684,413.2734)"><path
             d="M 0,0 C 0.5,2.659 -2.891,5.915 -5.939,5.263 -6.838,5.05 -7.647,4.562 -8.257,3.868 -8.865,3.175 -9.243,2.308 -9.337,1.39 -9.405,0.748 -9.315,0.1 -9.073,-0.499 c 0.212,-0.48 0.49,-0.929 0.826,-1.332 0.439,-0.516 0.984,-0.929 1.6,-1.213 C -4.004,-4.257 -0.443,-2.375 0,0"
             style="fill:#ffffff;fill-opacity:1;fill-rule:nonzero;stroke:none"
             id="path488" /></g><g
           id="g490"
           transform="translate(314.6182,410.1299)"><path
             d="M 0,0 C 1.099,0.646 1.808,2.399 1.558,4.362 1.309,6.325 0.267,7.817 -0.972,8.19 -2.6,7.21 -4.054,5.474 -3.432,3.491 c 0,0 0.053,-0.216 0.062,-0.248 0.043,-0.171 0.098,-0.338 0.166,-0.499 0.145,-0.459 0.393,-0.88 0.725,-1.23 0.406,-0.459 0.886,-0.845 1.422,-1.14 0.166,-0.083 0.418,-0.16 0.563,-0.242 C -0.337,0.062 -0.17,0.018 0,0"
             style="fill:#000000;fill-opacity:1;fill-rule:nonzero;stroke:none"
             id="path492" /></g><g
           id="g494"
           transform="translate(314.6182,410.1299)"><path
             d="M 0,0 C 1.099,0.646 1.808,2.399 1.558,4.362 1.309,6.325 0.267,7.817 -0.972,8.19 -2.6,7.21 -4.054,5.474 -3.432,3.491 c 0,0 0.053,-0.216 0.062,-0.248 0.043,-0.171 0.098,-0.338 0.166,-0.499 0.145,-0.459 0.393,-0.88 0.725,-1.23 0.406,-0.459 0.886,-0.845 1.422,-1.14 0.166,-0.083 0.418,-0.16 0.563,-0.242 C -0.337,0.062 -0.17,0.018 0,0 Z"
             style="fill:none;stroke:#000000;stroke-width:1;stroke-linecap:butt;stroke-linejoin:miter;stroke-miterlimit:10;stroke-dasharray:none;stroke-opacity:1"
             id="path496" /></g><g
           id="g498"
           transform="translate(334.0996,410.3223)"><path
             d="M 0,0 C 0.501,2.66 -2.89,5.915 -5.939,5.264 -6.838,5.05 -7.647,4.562 -8.257,3.868 -8.864,3.175 -9.242,2.309 -9.337,1.391 -9.405,0.748 -9.315,0.1 -9.072,-0.499 c 0.212,-0.48 0.49,-0.928 0.826,-1.332 0.438,-0.515 0.984,-0.928 1.6,-1.213 C -4.003,-4.257 -0.442,-2.374 0,0"
             style="fill:#ffffff;fill-opacity:1;fill-rule:nonzero;stroke:none"
             id="path500" /></g><g
           id="g502"
           transform="translate(328.1494,407.1787)"><path
             d="M 0,0 C 1.1,0.646 1.809,2.399 1.559,4.362 1.309,6.325 0.268,7.818 -0.971,8.191 -2.599,7.21 -4.053,5.474 -3.431,3.492 c 0,0 0.053,-0.216 0.062,-0.249 0.042,-0.17 0.098,-0.337 0.166,-0.498 0.145,-0.46 0.393,-0.881 0.724,-1.231 0.406,-0.459 0.887,-0.844 1.422,-1.14 0.166,-0.083 0.418,-0.16 0.564,-0.242 C -0.336,0.063 -0.169,0.019 0,0"
             style="fill:#000000;fill-opacity:1;fill-rule:nonzero;stroke:none"
             id="path504" /></g><g
           id="g506"
           transform="translate(328.1494,407.1787)"><path
             d="M 0,0 C 1.1,0.646 1.809,2.399 1.559,4.362 1.309,6.325 0.268,7.818 -0.971,8.191 -2.599,7.21 -4.053,5.474 -3.431,3.492 c 0,0 0.053,-0.216 0.062,-0.249 0.042,-0.17 0.098,-0.337 0.166,-0.498 0.145,-0.46 0.393,-0.881 0.724,-1.231 0.406,-0.459 0.887,-0.844 1.422,-1.14 0.166,-0.083 0.418,-0.16 0.564,-0.242 C -0.336,0.063 -0.169,0.019 0,0 Z"
             style="fill:none;stroke:#000000;stroke-width:1;stroke-linecap:butt;stroke-linejoin:miter;stroke-miterlimit:10;stroke-dasharray:none;stroke-opacity:1"
             id="path508" /></g><g
           id="g510"
           transform="translate(899.7451,558.958)"><path
             d="m 0,0 c 0.443,-1.639 1.164,-4.118 2.236,-7.082 2.19,-6.054 3.334,-9.102 5.777,-10.063 2.292,-0.901 5.207,-0.134 6.894,1.492 1.499,1.443 1.767,3.309 2.05,6.149 0.647,6.484 0.972,9.727 0.746,13.231 C 17.41,8.275 17.109,12.939 15.28,18.635 12.856,26.181 8.886,31.993 5.218,36.151 4.964,36.485 4.256,37.321 3.168,37.455 1.653,37.642 0.49,36.331 0,35.778 c -1.357,-1.53 -1.391,-2.968 -2.05,-5.217 -0.389,-1.33 -1.13,-2.812 -2.609,-5.777 -0.801,-1.606 -2.11,-4.021 -6.15,-9.69 -3.719,-5.22 -5.579,-7.83 -6.894,-9.131 -5.376,-5.317 -11.097,-7.46 -12.672,-8.013 -4.82,-1.692 -8.783,-1.808 -11.367,-1.864 -11.902,-0.252 -20.817,4.453 -24.971,6.709 -7.063,3.836 -10.989,5.969 -13.417,10.622 -5.46,10.465 2.154,23.146 3.168,24.784 -1.362,-0.268 -3.791,-0.936 -6.149,-2.796 -1.303,-1.027 -5.612,-4.805 -5.404,-10.807 0.213,-6.164 5.017,-9.66 5.59,-10.064 -0.099,-1.138 -0.2,-2.74 -0.186,-4.658 0.023,-3.088 0.059,-8.034 2.049,-13.604 1.803,-5.043 4.587,-8.866 7.083,-11.553 0.208,-3.999 0.394,-8.036 0.558,-12.113 0.24,-5.978 0.426,-11.879 0.559,-17.703 -0.449,-0.155 -1.634,-0.635 -2.422,-1.863 -1.165,-1.813 -0.528,-3.806 -0.373,-4.286 0.547,-1.705 1.761,-2.65 2.236,-2.982 0.015,-1.127 0.027,-2.882 0,-5.031 -0.082,-6.508 -0.404,-6.856 -0.558,-13.603 -0.117,-5.051 0.052,-5.381 -0.374,-6.895 -0.477,-1.697 -1.117,-2.802 -0.559,-3.913 0.821,-1.635 3.427,-1.677 3.541,-1.678 1.986,-0.006 4.201,1.245 4.286,2.61 0.073,1.173 -1.449,2.119 -1.863,2.423 -2.179,1.591 -3.609,7.23 0,25.342 0.403,0.149 1.696,0.683 2.422,2.05 0.813,1.532 0.59,3.497 -0.559,5.031 1.025,1.68 2.067,3.667 2.981,5.963 2.071,5.2 2.673,9.948 2.795,13.417 1.145,-0.925 2.385,-1.801 3.728,-2.608 11.843,-7.12 25.329,-4.994 32.052,-3.355 0.508,-2.918 1.005,-5.838 1.49,-8.757 0.444,-2.669 0.879,-5.341 1.305,-8.014 -0.888,-0.835 -1.293,-1.676 -1.492,-2.236 -0.839,-2.373 0.078,-5.239 2.237,-7.454 0.307,-3.229 0.274,-5.843 0.186,-7.64 -0.093,-1.876 -0.259,-3.14 -0.373,-6.15 -0.173,-4.545 0.061,-5.474 0.56,-6.336 0.762,-1.317 2.463,-3.023 4.471,-2.794 1.356,0.154 2.813,1.184 2.982,2.422 0.185,1.357 -1.233,2.557 -1.677,2.982 -1.801,1.724 -3.274,5.767 -1.677,16.025 0.344,0.175 1.542,0.834 2.05,2.237 0.563,1.554 0.05,3.395 -1.304,4.658 -0.011,2.038 -0.011,4.088 0,6.15 0.031,6.263 0.159,12.414 0.373,18.448 2.488,1.999 5.354,4.735 8.012,8.385 C -2.041,-13.836 -0.463,-4.843 0,0"
             style="fill:#ff0020;fill-opacity:1;fill-rule:nonzero;stroke:none"
             id="path512" /></g><g
           id="g514"
           transform="translate(884.3086,478.499)"><path
             d="M 0,0 C 0.998,0.43 1.746,0.202 4.688,-0.216 6.481,-0.471 7.927,-0.631 8.799,-0.721 8.516,-0.962 8.181,-1.211 7.789,-1.442 6.557,-2.171 5.35,-2.388 4.544,-2.451 5.578,-2.933 6.611,-3.413 7.646,-3.894 7.12,-4.231 6.342,-4.663 5.337,-4.976 2.304,-5.922 -1.865,-5.503 -2.451,-3.75 -2.86,-2.529 -1.533,-0.659 0,0"
             style="fill:#6000ff;fill-opacity:1;fill-rule:nonzero;stroke:none"
             id="path516" /></g><g
           id="g518"
           transform="translate(828.2168,473.6162)"><path
             d="M 0,0 C -0.021,0.703 0.967,1.259 2.175,1.937 3.033,2.421 4.608,3.307 6.321,2.891 7.212,2.674 7.326,2.304 8.396,1.826 9.807,1.194 11.16,1.147 12.094,1.209 11.754,0.937 11.289,0.635 10.693,0.425 8.864,-0.221 7.197,0.48 6.714,0.705 7.002,0.362 7.492,-0.133 8.228,-0.528 9.272,-1.09 10.254,-1.149 10.749,-1.145 9.997,-1.597 8.854,-2.152 7.387,-2.377 3.913,-2.91 0.041,-1.37 0,0"
             style="fill:#6000ff;fill-opacity:1;fill-rule:nonzero;stroke:none"
             id="path520" /></g><g
           id="g522"
           transform="translate(904.3564,596.4004)"><path
             d="m 0,0 c 0.33,0.791 -0.667,1.937 -1.818,3.103 -2.357,2.383 -3.864,3.909 -7.276,5.883 -3.393,1.966 -5.091,2.949 -7.488,2.889 -0.957,-0.023 -4.086,-0.102 -5.136,-2.246 -0.751,-1.536 -0.012,-3.262 0.214,-3.745 0.096,0.617 0.345,1.515 1.07,2.139 1.632,1.407 4.435,0.357 5.67,-0.106 3.655,-1.369 5.701,-4.195 6.741,-5.671 0.921,-1.309 2.231,-3.517 2.995,-6.633 0.318,0.931 0.897,2.1 2.033,2.889 C -1.617,-0.541 -0.32,-0.769 0,0"
             style="fill:#6000ff;fill-opacity:1;fill-rule:nonzero;stroke:none"
             id="path524" /></g><g
           id="g526"
           transform="translate(903.8477,584.3711)"><path
             d="m 0,0 c 1.661,-0.888 1.242,-4.543 0.885,-7.663 -0.399,-3.476 -0.76,-6.628 -3.095,-9.873 -1.66,-2.308 -3.61,-3.679 -4.863,-4.421 -0.947,3.106 -1.159,5.725 -1.179,7.516 -0.023,2.181 -0.113,10.606 4.863,13.704 C -2.898,-0.432 -1.187,0.635 0,0"
             style="fill:#6000ff;fill-opacity:1;fill-rule:nonzero;stroke:none"
             id="path528" /></g><g
           id="g530"
           transform="translate(914.8848,543.543)"><path
             d="M 0,0 C -0.398,0.394 -0.839,0.918 -1.214,1.597 -2.352,3.652 -2.121,5.726 -1.978,6.562 -1.637,6.58 -0.495,6.595 0.543,5.799 1.173,5.315 1.497,4.739 1.651,4.408 1.62,3.874 1.526,3.188 1.279,2.424 0.926,1.329 0.4,0.519 0,0"
             style="fill:#6000ff;fill-opacity:1;fill-rule:nonzero;stroke:none"
             id="path532" /></g><g
           id="g534"
           transform="translate(905.3037,569.7461)"><path
             d="M 0,0 C 0.225,2.617 4.244,4.778 6.927,3.374 7.711,2.94 8.342,2.273 8.73,1.465 9.118,0.658 9.246,-0.251 9.095,-1.134 8.991,-1.753 8.738,-2.335 8.355,-2.832 8.032,-3.226 7.655,-3.572 7.235,-3.862 6.69,-4.23 6.073,-4.475 5.424,-4.58 2.635,-5.025 -0.205,-2.337 0,0"
             style="fill:#ffffff;fill-opacity:1;fill-rule:nonzero;stroke:none"
             id="path536" /></g><g
           id="g538"
           transform="translate(910.0488,565.2539)"><path
             d="M 0,0 C -0.859,0.892 -1.065,2.716 -0.32,4.487 0.425,6.258 1.788,7.383 3.044,7.409 4.311,6.066 5.218,4.064 4.12,2.372 4.12,2.372 4.014,2.184 3.997,2.156 3.913,2.008 3.818,1.865 3.712,1.732 3.456,1.341 3.114,1.012 2.714,0.771 2.215,0.446 1.664,0.212 1.086,0.075 0.909,0.041 0.653,0.034 0.497,-0.005 0.332,-0.028 0.164,-0.026 0,0"
             style="fill:#000000;fill-opacity:1;fill-rule:nonzero;stroke:none"
             id="path540" /></g></g></g><g
       id="g542"><g
         id="g544"
         clip-path="url(#clipPath548)"><g
           id="g550"
           transform="translate(0.4717,448.1963)"><path
             d="m 0,0 c 8.844,-1.914 8.825,-1.988 9.443,-2.042 5.307,-0.459 9.882,4.743 11.996,7.146 6.035,6.863 6.706,15.036 7.147,20.418 0.394,4.809 1.224,17.13 -6.636,29.352 -5.025,7.814 -11.41,12.179 -15.058,14.293 0.401,1.431 0.982,4.25 0.254,7.657 -0.326,1.527 -1.389,5.39 -4.849,8.422 -5.02,4.4 -11.318,3.749 -13.017,3.573 -1.74,-0.179 -8.642,-0.893 -12.76,-6.89 -5.072,-7.384 -1.316,-15.95 -1.022,-16.59 2.655,-5.774 8.689,-10.426 15.654,-10.301 5.344,0.096 9.113,2.964 10.424,4.067 C 2.424,58.654 3.813,57.861 5.39,56.69 19.042,46.55 18.804,28.711 18.737,23.767 18.7,20.989 18.319,18.157 16.322,16.775 14.76,15.694 12.824,15.929 12.127,16.013 9.253,16.36 7.358,18.294 5.898,19.826 c -1.973,2.071 -2.827,3.806 -3.94,5.721 -0.593,1.018 -3.812,6.552 -6.61,9.152 -6.673,6.199 -18.979,3.181 -23.136,2.161 -4.331,-1.062 -8.731,-2.141 -12.458,-5.847 -1.797,-1.787 -3.655,-4.412 -7.372,-9.661 -2.427,-3.426 -3.019,-4.484 -4.577,-5.466 -3.437,-2.168 -7.673,-1.515 -10.423,-0.763 0.018,-0.329 0.192,-2.627 2.16,-4.068 1.625,-1.189 3.843,-1.333 5.721,-0.381 0.071,-0.802 0.276,-1.911 0.889,-3.051 2.261,-4.199 8.54,-5.966 13.602,-5.212 4.922,0.733 5.567,3.383 9.661,2.924 3.461,-0.389 7.043,-2.737 6.992,-4.704 -0.016,-0.63 -0.39,-0.639 -0.762,-1.779 -0.851,-2.604 0.312,-4.953 0.38,-5.085 0.314,-0.61 1.03,-2 2.67,-2.669 2.03,-0.828 3.888,0.094 4.195,0.254 2.303,1.193 2.75,3.655 2.797,3.94 -0.057,-0.4 -0.191,-1.713 0.635,-2.796 0.895,-1.174 2.326,-1.308 3.305,-1.398 0.685,-0.065 3.19,-0.298 4.576,1.143 2.149,2.237 -0.471,6.339 1.399,7.882 C -3.618,0.767 -2.401,0.52 0,0"
             style="fill:#f6a9cb;fill-opacity:1;fill-rule:nonzero;stroke:none"
             id="path552" /></g><g
           id="g554"
           transform="translate(-7.7842,445.5762)"><path
             d="m 0,0 c 4.511,0.205 6.246,0.743 7.65,1.413 1.107,0.527 4.533,2.161 5.886,5.414 1.437,3.453 -0.21,6.935 -2.354,11.3 -2.364,4.811 -6.048,12.313 -13.89,15.067 -1.655,0.581 -6.85,2.405 -9.534,-0.236 -1.477,-1.452 -1.577,-3.65 -1.53,-4.825 -1.5,0.367 -3.69,0.777 -6.357,0.823 -2.716,0.047 -5.248,0.091 -8.004,-1.177 -1.12,-0.514 -4.386,-2.016 -5.65,-5.061 -2.004,-4.824 2.29,-10.458 3.649,-12.241 C -24.391,2.94 -15.305,1.179 -11.653,0.471 -7.472,-0.34 -4.146,-0.188 0,0"
             style="fill:#ff81e7;fill-opacity:1;fill-rule:nonzero;stroke:none"
             id="path556" /></g><g
           id="g558"
           transform="translate(-17.8564,439.1025)"><path
             d="m 0,0 c -0.284,-0.979 -0.672,-2.395 -1.063,-4.114 -0.578,-2.534 -2.427,-10.894 -1.775,-19.626 0.837,-11.204 5.578,-20.152 8.5,-24.836 1.005,-0.071 2.071,-0.197 3.188,-0.399 4.063,-0.729 7.369,-2.187 9.828,-3.586 -2.48,0.178 -4.958,0.355 -7.438,0.532 0.753,-0.15 2.331,-0.569 3.852,-1.86 1.437,-1.219 2.106,-2.611 2.39,-3.32 -1.395,0.627 -3.181,1.281 -5.312,1.727 -1.635,0.341 -3.119,0.487 -4.383,0.531 0.097,-0.59 0.361,-1.697 1.195,-2.788 0.551,-0.722 1.158,-1.184 1.594,-1.461 -1.789,-0.378 -2.955,-0.022 -3.586,0.265 -0.282,0.128 -0.638,0.325 -2.39,1.859 -1.945,1.704 -1.933,1.836 -2.391,2.125 -0.936,0.591 -2.513,1.004 -5.313,0.133 -0.241,1.285 0.086,2.146 0.266,2.523 0.872,1.827 3.343,2.858 6.109,2.391 -1.604,3.36 -2.881,6.298 -3.851,8.633 -2.469,5.947 -3.824,9.258 -4.781,13.812 -0.904,4.303 -1.035,7.731 -1.063,9.031 -0.086,3.99 0.301,10.667 3.447,18.619 C -1.984,0.127 -0.992,0.063 0,0"
             style="fill:#fdff00;fill-opacity:1;fill-rule:nonzero;stroke:none"
             id="path560" /></g><g
           id="g562"
           transform="translate(-8.1055,439.2764)"><path
             d="m 0,0 c -2.942,-2.872 -4.933,-5.592 -6.214,-7.578 -2.642,-4.097 -3.014,-6.223 -3.055,-7.703 -0.021,-0.79 -0.044,-2.034 0.532,-3.453 0.553,-1.366 1.465,-2.41 4.515,-4.649 3.243,-2.381 3.504,-2.147 5.711,-3.851 1.567,-1.21 3.413,-2.657 5.18,-5.047 2.04,-2.761 2.908,-5.342 3.187,-6.242 1.205,-3.888 0.972,-7.29 0.665,-9.297 -0.93,2.214 -1.86,4.427 -2.79,6.64 -0.029,-0.717 -0.175,-1.85 -0.796,-3.054 -1.241,-2.406 -3.465,-3.339 -4.118,-3.586 1.528,5.483 1.439,7.073 0.93,7.304 -0.089,0.04 -0.305,0.092 -1.992,-1.062 -1.098,-0.751 -1.991,-1.446 -2.656,-1.992 -0.159,0.917 -0.292,2.477 0.265,4.25 1.134,3.606 4.232,5.238 4.914,5.578 -0.777,0.748 -1.99,1.853 -3.586,3.055 -2.608,1.963 -3.899,2.421 -6.242,4.117 -2.632,1.904 -3.948,2.857 -4.914,4.383 -3.159,4.991 -0.589,11.491 -0.398,11.953 0.765,1.858 1.839,3.23 3.984,5.976 1.515,1.937 2.902,3.434 3.888,4.44 C -1.993,0.121 -0.997,0.061 0,0"
             style="fill:#fdff00;fill-opacity:1;fill-rule:nonzero;stroke:none"
             id="path564" /></g><g
           id="g566"
           transform="translate(927.625,-8.9854)"><path
             d="m 0,0 h -322.355 c -6.482,0 -11.736,5.254 -11.736,11.735 v 2.408 c 0,6.481 5.254,11.735 11.736,11.735 H 0 c 6.48,0 11.735,-5.254 11.735,-11.735 V 11.735 C 11.735,5.254 6.48,0 0,0"
             style="fill:#a3877f;fill-opacity:1;fill-rule:nonzero;stroke:none"
             id="path568" /></g><path
           d="M 712.448,16.893 H 621.26 v 263.704 h 91.188 z"
           style="fill:#ffd400;fill-opacity:1;fill-rule:nonzero;stroke:none"
           id="path570" /><g
           id="g572"
           transform="translate(714.4658,134.5732)"><path
             d="m 0,0 h -94.412 c -14.647,0 -26.52,11.873 -26.52,26.52 v 5.438 c 0,14.646 11.873,26.52 26.52,26.52 H 0 c 14.646,0 26.52,-11.874 26.52,-26.52 V 26.52 C 26.52,11.873 14.646,0 0,0"
             style="fill:#ff6b5c;fill-opacity:1;fill-rule:nonzero;stroke:none"
             id="path574" /></g><path
           d="M 913.307,16.893 H 712.449 v 187.92 h 200.858 z"
           style="fill:#fff3ae;fill-opacity:1;fill-rule:nonzero;stroke:none"
           id="path576" /><path
           d="M 913.307,141.619 H 712.449 v 63.193 h 200.858 z"
           style="fill:#92918e;fill-opacity:1;fill-rule:nonzero;stroke:none"
           id="path578" /><path
           d="m 691.622,232.979 h -45.718 v 30.987 h 45.718 z"
           style="fill:#b9fcf7;fill-opacity:1;fill-rule:nonzero;stroke:none"
           id="path580" /><path
           d="m 691.622,79.866 h -45.718 v 30.986 h 45.718 z"
           style="fill:#b9fcf7;fill-opacity:1;fill-rule:nonzero;stroke:none"
           id="path582" /><path
           d="M 792.018,157.723 H 746.3 v 30.986 h 45.718 z"
           style="fill:#55ffee;fill-opacity:1;fill-rule:nonzero;stroke:none"
           id="path584" /><path
           d="m 877.495,157.723 h -45.718 v 30.986 h 45.718 z"
           style="fill:#55ffee;fill-opacity:1;fill-rule:nonzero;stroke:none"
           id="path586" /><g
           id="g588"
           transform="translate(945.0234,204.8125)"><path
             d="m 0,0 h -258.093 l 56.48,82.878 h 145.468 z"
             style="fill:#ff1e00;fill-opacity:1;fill-rule:nonzero;stroke:none"
             id="path590" /></g><g
           id="g592"
           transform="translate(666.8545,392.2598)"><path
             d="M 0,0 -62.647,-111.803 H 62.646 Z"
             style="fill:#ff1e00;fill-opacity:1;fill-rule:nonzero;stroke:none"
             id="path594" /></g><path
           d="M 844.077,112.488 H 786.984 V 16.892 h 57.093 z"
           style="fill:#839e9e;fill-opacity:1;fill-rule:nonzero;stroke:none"
           id="path596" /><path
           d="m 814.191,16.893 h 1.34 v 95.6 h -1.34 z"
           style="fill:#000000;fill-opacity:1;fill-rule:nonzero;stroke:none"
           id="path598" /><path
           d="m 853.253,223.631 h -70.216 v 18.696 h 70.216 z"
           style="fill:#ffffff;fill-opacity:1;fill-rule:nonzero;stroke:none"
           id="path600" /></g></g><text
       transform="matrix(1,0,0,-1,794.9653,226.5771)"
       style="font-variant:normal;font-weight:normal;font-stretch:normal;font-size:19.0708px;font-family:'IBM Plex Mono';-inkscape-font-specification:IBMPlexMono;writing-mode:lr-tb;fill:#000000;fill-opacity:1;fill-rule:nonzero;stroke:none"
       id="text604"><tspan
         id="tspan602"
         x="0"
         y="0" /></text><g
       id="g606"><g
         id="g608"
         clip-path="url(#clipPath612)"><g
           id="g614"
           transform="translate(112.7402,277.249)"><path
             d="m 0,0 c 1.065,3.139 1.065,6.542 0,9.681 -2.966,7.99 -12.475,9.4 -13.581,9.682 -3.829,0.519 -7.727,-0.127 -11.183,-1.854 -3.456,-1.728 -6.31,-4.455 -8.188,-7.828 C -33.234,9.141 -33.751,6.086 -34.905,0 v -1.951 c -0.533,0.759 -1.194,1.419 -1.953,1.951 -4.708,3.195 -11.77,0.422 -15.512,-1.951 -3.617,-2.243 -6.351,-5.662 -7.743,-9.682 -1.204,-3.775 -1.204,-7.832 0,-11.608 1.591,-5.491 5.011,-10.276 9.697,-13.56 h 87.251 c -2.216,1.637 -4.174,3.592 -5.814,5.805 -1.822,2.283 -3.138,4.926 -3.86,7.755 -1.035,4.488 0.729,5.521 0,9.681 -0.789,3.789 -2.838,7.203 -5.813,9.681 C 17.582,-0.847 13.392,-0.494 7.767,0 5.183,0.215 2.584,0.215 0,0"
             style="fill:#ffffff;fill-opacity:1;fill-rule:nonzero;stroke:none"
             id="path616" /></g><g
           id="g618"
           transform="translate(495.0547,213.4443)"><path
             d="m 0,0 c 1.066,3.139 1.066,6.541 0,9.681 -2.965,7.99 -12.475,9.4 -13.58,9.682 -3.83,0.519 -7.728,-0.127 -11.184,-1.854 -3.456,-1.728 -6.309,-4.455 -8.188,-7.828 C -33.233,9.141 -33.751,6.086 -34.904,0 v -1.951 c -0.533,0.759 -1.194,1.419 -1.954,1.951 -4.707,3.195 -11.769,0.422 -15.511,-1.951 -3.617,-2.243 -6.352,-5.662 -7.743,-9.682 -1.204,-3.775 -1.204,-7.832 0,-11.608 1.591,-5.491 5.01,-10.276 9.697,-13.56 h 87.25 c -2.215,1.637 -4.174,3.592 -5.814,5.805 -1.821,2.283 -3.138,4.926 -3.86,7.755 -1.035,4.488 0.73,5.521 0,9.681 -0.789,3.789 -2.838,7.203 -5.813,9.681 C 17.582,-0.847 13.393,-0.494 7.768,0 5.184,0.215 2.584,0.215 0,0"
             style="fill:#ffffff;fill-opacity:1;fill-rule:nonzero;stroke:none"
             id="path620" /></g><g
           id="g622"
           transform="translate(610.0293,617.4775)"><path
             d="m 0,0 c 1.066,3.139 1.066,6.541 0,9.681 -2.965,7.99 -12.474,9.4 -13.58,9.682 -3.83,0.519 -7.728,-0.127 -11.184,-1.854 -3.456,-1.728 -6.309,-4.455 -8.187,-7.828 -0.282,-0.54 -0.8,-3.595 -1.953,-9.681 v -1.951 c -0.533,0.759 -1.194,1.419 -1.954,1.951 -4.707,3.195 -11.769,0.422 -15.511,-1.951 -3.617,-2.243 -6.352,-5.662 -7.743,-9.682 -1.204,-3.776 -1.204,-7.832 0,-11.608 1.591,-5.491 5.01,-10.276 9.697,-13.56 h 87.25 c -2.215,1.637 -4.173,3.592 -5.814,5.804 -1.821,2.283 -3.137,4.927 -3.86,7.756 -1.035,4.487 0.73,5.521 0,9.681 -0.788,3.789 -2.838,7.203 -5.813,9.681 C 17.582,-0.847 13.393,-0.494 7.768,0 5.184,0.215 2.585,0.215 0,0"
             style="fill:#ffffff;fill-opacity:1;fill-rule:nonzero;stroke:none"
             id="path624" /></g><g
           id="g626"
           transform="translate(1148.0498,231.7734)"><path
             d="m 0,0 c 1.066,3.139 1.066,6.541 0,9.681 -2.965,7.99 -12.474,9.4 -13.58,9.682 -3.83,0.519 -7.728,-0.127 -11.184,-1.854 -3.455,-1.728 -6.309,-4.455 -8.187,-7.828 -0.282,-0.54 -0.8,-3.595 -1.953,-9.681 v -1.951 c -0.533,0.759 -1.194,1.419 -1.954,1.951 -4.707,3.195 -11.769,0.422 -15.511,-1.951 -3.617,-2.243 -6.352,-5.662 -7.743,-9.682 -1.204,-3.776 -1.204,-7.832 0,-11.608 1.591,-5.491 5.01,-10.276 9.697,-13.56 h 87.25 c -2.215,1.637 -4.173,3.592 -5.814,5.804 -1.821,2.283 -3.137,4.927 -3.86,7.756 -1.034,4.487 0.73,5.521 0,9.681 -0.788,3.789 -2.838,7.203 -5.812,9.681 C 17.582,-0.847 13.393,-0.494 7.768,0 5.184,0.215 2.585,0.215 0,0"
             style="fill:#ffffff;fill-opacity:1;fill-rule:nonzero;stroke:none"
             id="path628" /></g><g
           id="g630"
           transform="translate(876.4619,356.7539)"><path
             d="m 0,0 c 1.065,3.139 1.065,6.541 0,9.681 -2.966,7.99 -12.475,9.4 -13.581,9.681 -3.829,0.52 -7.727,-0.126 -11.183,-1.853 -3.456,-1.728 -6.31,-4.455 -8.188,-7.828 C -33.234,9.141 -33.751,6.086 -34.905,0 v -1.951 c -0.533,0.759 -1.194,1.419 -1.953,1.951 -4.708,3.195 -11.77,0.422 -15.512,-1.951 -3.617,-2.243 -6.351,-5.662 -7.743,-9.682 -1.204,-3.776 -1.204,-7.832 0,-11.608 1.591,-5.491 5.01,-10.277 9.697,-13.56 h 87.251 c -2.216,1.637 -4.174,3.592 -5.814,5.804 -1.822,2.283 -3.138,4.927 -3.861,7.756 -1.034,4.487 0.73,5.521 0,9.681 -0.788,3.789 -2.837,7.203 -5.812,9.681 C 17.582,-0.847 13.392,-0.494 7.767,0 5.183,0.215 2.584,0.215 0,0"
             style="fill:#ffffff;fill-opacity:1;fill-rule:nonzero;stroke:none"
             id="path632" /></g><g
           id="g634"
           transform="translate(1235.833,445.1523)"><path
             d="m 0,0 c 1.066,3.139 1.066,6.541 0,9.681 -2.965,7.99 -12.475,9.4 -13.58,9.681 -3.83,0.52 -7.728,-0.126 -11.184,-1.853 -3.456,-1.728 -6.309,-4.455 -8.188,-7.828 C -33.233,9.141 -33.751,6.086 -34.904,0 v -1.951 c -0.533,0.759 -1.194,1.419 -1.954,1.951 -4.707,3.195 -11.769,0.422 -15.511,-1.951 -3.617,-2.243 -6.352,-5.662 -7.744,-9.682 -1.203,-3.776 -1.203,-7.832 0,-11.608 1.591,-5.491 5.011,-10.277 9.698,-13.56 h 87.25 c -2.215,1.637 -4.174,3.592 -5.814,5.804 -1.822,2.283 -3.138,4.927 -3.86,7.756 -1.035,4.487 0.73,5.521 0,9.681 -0.789,3.789 -2.838,7.203 -5.813,9.681 C 17.582,-0.847 13.393,-0.494 7.768,0 5.184,0.215 2.584,0.215 0,0"
             style="fill:#ffffff;fill-opacity:1;fill-rule:nonzero;stroke:none"
             id="path636" /></g><g
           id="g638"
           transform="translate(690.2432,502.8467)"><path
             d="m 0,0 c 0.962,2.833 0.962,5.904 0,8.737 -2.676,7.211 -11.259,8.485 -12.257,8.739 -3.456,0.468 -6.973,-0.115 -10.093,-1.673 -3.119,-1.56 -5.694,-4.022 -7.389,-7.066 C -29.994,8.25 -30.461,5.493 -31.502,0 v -1.761 c -0.48,0.686 -1.077,1.282 -1.764,1.761 -4.248,2.884 -10.621,0.382 -13.999,-1.761 -3.264,-2.024 -5.731,-5.109 -6.988,-8.737 -1.086,-3.408 -1.086,-7.068 0,-10.477 1.436,-4.956 4.523,-9.274 8.752,-12.238 h 78.745 c -1.999,1.478 -3.766,3.242 -5.247,5.238 -1.644,2.061 -2.832,4.447 -3.484,7 -0.934,4.05 0.658,4.983 0,8.738 -0.712,3.42 -2.561,6.5 -5.246,8.737 C 15.868,-0.764 12.087,-0.445 7.01,0 4.678,0.194 2.332,0.194 0,0"
             style="fill:#ffffff;fill-opacity:1;fill-rule:nonzero;stroke:none"
             id="path640" /></g><g
           id="g642"
           transform="translate(780.0703,670.0947)"><path
             d="m 0,0 c 0.963,2.834 0.963,5.904 0,8.738 -2.676,7.21 -11.258,8.484 -12.256,8.738 -3.457,0.468 -6.974,-0.115 -10.094,-1.673 -3.118,-1.56 -5.694,-4.022 -7.389,-7.065 C -29.993,8.25 -30.46,5.493 -31.501,0 v -1.761 c -0.48,0.686 -1.077,1.282 -1.764,1.761 -4.249,2.884 -10.622,0.382 -13.999,-1.761 -3.264,-2.024 -5.732,-5.109 -6.988,-8.737 -1.087,-3.408 -1.087,-7.068 0,-10.477 1.436,-4.956 4.523,-9.274 8.752,-12.238 h 78.744 c -1.999,1.478 -3.766,3.242 -5.246,5.238 -1.644,2.061 -2.833,4.447 -3.484,7 -0.935,4.05 0.658,4.983 0,8.738 -0.712,3.42 -2.562,6.5 -5.247,8.737 C 15.868,-0.764 12.087,-0.445 7.011,0 4.678,0.194 2.333,0.194 0,0"
             style="fill:#ffffff;fill-opacity:1;fill-rule:nonzero;stroke:none"
             id="path644" /></g><g
           id="g646"
           transform="translate(1060.6826,673.7705)"><path
             d="m 0,0 c 0.732,2.156 0.732,4.493 0,6.65 -2.036,5.489 -8.568,6.457 -9.328,6.651 -2.631,0.356 -5.309,-0.087 -7.683,-1.274 -2.374,-1.186 -4.334,-3.06 -5.625,-5.377 C -22.829,6.278 -23.185,4.181 -23.977,0 v -1.341 c -0.365,0.522 -0.82,0.975 -1.342,1.341 -3.234,2.194 -8.084,0.29 -10.655,-1.341 -2.485,-1.541 -4.363,-3.888 -5.319,-6.65 -0.827,-2.594 -0.827,-5.38 0,-7.974 1.093,-3.772 3.442,-7.058 6.661,-9.314 h 59.935 c -1.522,1.124 -2.866,2.467 -3.993,3.986 -1.251,1.569 -2.157,3.385 -2.652,5.328 -0.711,3.083 0.501,3.792 0,6.651 -0.542,2.602 -1.949,4.947 -3.993,6.65 C 12.078,-0.582 9.199,-0.34 5.336,0 3.561,0.147 1.775,0.147 0,0"
             style="fill:#ffffff;fill-opacity:1;fill-rule:nonzero;stroke:none"
             id="path648" /></g><g
           id="g650"
           transform="translate(162.7031,133.6621)"><path
             d="m 0,0 c 0.665,1.957 0.665,4.079 0,6.037 -1.849,4.982 -7.778,5.861 -8.469,6.037 -2.387,0.323 -4.818,-0.079 -6.972,-1.156 C -17.597,9.841 -19.376,8.14 -20.548,6.037 -20.724,5.7 -21.046,3.795 -21.766,0 v -1.217 c -0.331,0.474 -0.744,0.885 -1.217,1.217 -2.936,1.992 -7.339,0.264 -9.672,-1.217 -2.256,-1.398 -3.961,-3.53 -4.829,-6.037 -0.751,-2.354 -0.751,-4.884 0,-7.238 0.992,-3.425 3.125,-6.407 6.047,-8.455 h 54.406 c -1.381,1.02 -2.603,2.239 -3.625,3.619 -1.136,1.424 -1.957,3.072 -2.407,4.836 -0.646,2.798 0.455,3.442 0,6.037 -0.493,2.362 -1.77,4.491 -3.625,6.036 C 10.963,-0.528 8.351,-0.308 4.843,0 3.231,0.134 1.611,0.134 0,0"
             style="fill:#ffffff;fill-opacity:1;fill-rule:nonzero;stroke:none"
             id="path652" /></g><g
           id="g654"
           transform="translate(1142.627,127.6787)"><path
             d="m 0,0 c 0.665,1.957 0.665,4.079 0,6.036 -1.849,4.983 -7.778,5.862 -8.469,6.038 -2.387,0.323 -4.818,-0.079 -6.972,-1.156 C -17.597,9.841 -19.376,8.14 -20.548,6.036 -20.724,5.699 -21.046,3.795 -21.766,0 v -1.217 c -0.331,0.474 -0.744,0.885 -1.217,1.217 -2.936,1.992 -7.339,0.264 -9.672,-1.217 -2.256,-1.398 -3.961,-3.53 -4.829,-6.037 -0.751,-2.354 -0.751,-4.884 0,-7.238 0.992,-3.425 3.125,-6.408 6.047,-8.455 h 54.406 c -1.381,1.02 -2.603,2.239 -3.625,3.619 -1.137,1.424 -1.957,3.072 -2.407,4.836 -0.646,2.798 0.455,3.442 0,6.037 -0.493,2.362 -1.77,4.49 -3.625,6.036 C 10.963,-0.528 8.351,-0.308 4.843,0 3.231,0.134 1.611,0.134 0,0"
             style="fill:#ffffff;fill-opacity:1;fill-rule:nonzero;stroke:none"
             id="path656" /></g><g
           id="g658"
           transform="translate(1248.0303,635.7373)"><path
             d="m 0,0 c 0.732,2.156 0.732,4.494 0,6.65 -2.037,5.489 -8.569,6.457 -9.329,6.651 -2.63,0.357 -5.308,-0.087 -7.682,-1.274 -2.374,-1.186 -4.334,-3.06 -5.625,-5.377 C -22.829,6.279 -23.185,4.181 -23.977,0 v -1.34 c -0.366,0.522 -0.82,0.975 -1.342,1.34 -3.234,2.195 -8.084,0.29 -10.655,-1.34 -2.485,-1.541 -4.363,-3.889 -5.319,-6.65 -0.827,-2.594 -0.827,-5.381 0,-7.975 1.093,-3.772 3.442,-7.058 6.661,-9.314 h 59.935 c -1.522,1.124 -2.867,2.467 -3.993,3.987 -1.252,1.568 -2.157,3.384 -2.653,5.327 -0.711,3.083 0.502,3.793 0,6.651 -0.541,2.603 -1.949,4.947 -3.993,6.65 C 12.077,-0.581 9.199,-0.339 5.336,0 3.561,0.147 1.775,0.147 0,0"
             style="fill:#ffffff;fill-opacity:1;fill-rule:nonzero;stroke:none"
             id="path660" /></g></g></g><path
       d="M 751.318,464.892 H 377.052 v 53.113 h 374.266 z"
       style="fill:#ffffff;fill-opacity:1;fill-rule:nonzero;stroke:#000000;stroke-width:2;stroke-linecap:butt;stroke-linejoin:miter;stroke-miterlimit:10;stroke-dasharray:none;stroke-opacity:1"
       id="path662" /><text
       transform="matrix(1,0,0,-1,396.3574,485.6377)"
       style="font-variant:normal;font-stretch:normal;font-size:20px;font-family:'IBM Plex Mono Text';-inkscape-font-specification:IBMPlexMono-Text;writing-mode:lr-tb;fill:#000000;fill-opacity:1;fill-rule:nonzero;stroke:none"
       id="text666"><tspan
         id="tspan664"
         x="0"
         y="0" /></text><g
       id="g668"
       transform="translate(725.1807,495.3857)"><path
         d="M 0,0 15.162,15.162"
         style="fill:none;stroke:#000000;stroke-width:2;stroke-linecap:butt;stroke-linejoin:miter;stroke-miterlimit:10;stroke-dasharray:none;stroke-opacity:1"
         id="path670" /></g><g
       id="g672"
       transform="translate(740.3428,495.3857)"><path
         d="M 0,0 -15.162,15.162"
         style="fill:none;stroke:#000000;stroke-width:2;stroke-linecap:butt;stroke-linejoin:miter;stroke-miterlimit:10;stroke-dasharray:none;stroke-opacity:1"
         id="path674" /></g><path
       d="M 0,0 H 1280 Z"
       style="fill:#606060;fill-opacity:1;fill-rule:nonzero;stroke:none"
       id="path676" /><g
       id="g678"><g
         id="g680"
         clip-path="url(#clipPath684)"><path
           d="m 1280,-191.067 h 48.432 V 2211.66 H 1280 Z"
           style="fill:#606060;fill-opacity:1;fill-rule:nonzero;stroke:none"
           id="path686" /></g></g></g></svg>
