<?xml version="1.0" encoding="UTF-8" standalone="no"?>
<svg
   xmlns:dc="http://purl.org/dc/elements/1.1/"
   xmlns:cc="http://creativecommons.org/ns#"
   xmlns:rdf="http://www.w3.org/1999/02/22-rdf-syntax-ns#"
   xmlns:svg="http://www.w3.org/2000/svg"
   xmlns="http://www.w3.org/2000/svg"
   xmlns:sodipodi="http://sodipodi.sourceforge.net/DTD/sodipodi-0.dtd"
   xmlns:inkscape="http://www.inkscape.org/namespaces/inkscape"
   viewBox="0 0 1280 720"
   version="1.1"
   id="svg365"
   sodipodi:docname="segment_0.svg"
   inkscape:version="1.0.2 (e86c870879, 2021-01-15)">
  <metadata
     id="metadata369">
    <rdf:RDF>
      <cc:Work
         rdf:about="">
        <dc:format>image/svg+xml</dc:format>
        <dc:type
           rdf:resource="http://purl.org/dc/dcmitype/StillImage" />
      </cc:Work>
    </rdf:RDF>
  </metadata>
  <sodipodi:namedview
     pagecolor="#ffffff"
     bordercolor="#666666"
     borderopacity="1"
     objecttolerance="10"
     gridtolerance="10"
     guidetolerance="10"
     inkscape:pageopacity="0"
     inkscape:pageshadow="2"
     inkscape:window-width="1366"
     inkscape:window-height="708"
     id="namedview367"
     showgrid="false"
     inkscape:zoom="3.3724366"
     inkscape:cx="1095.1845"
     inkscape:cy="681.1718"
     inkscape:window-x="0"
     inkscape:window-y="0"
     inkscape:window-maximized="1"
     inkscape:current-layer="svg365"
     inkscape:document-rotation="0" />
  <defs
     id="defs4">
    <style
       id="style2">.bduy3bdd{fill:#f7efe2;}.n87ehd,.INfmTsxiVr,.VxlfUWMFYd,.lLhZUfdkWQ{fill:none;}.WJQNmIMxhW{stroke:#ff0020;stroke-width:16px;stroke-dasharray:30.47 20.31;}.arqWxPkFpk,.BeBRxhhvfs,.WJQNmIMxhW,.REjTpgcrPm,.INfmTsxiVr,.uMZuCMsnXK,.FJsmjCpUvm,.VxlfUWMFYd,.aZtxaGfyho,.lLhZUfdkWQ{stroke-miterlimit:10;}.iRlbySsGiC{fill:#d8e5a5;}.ICkoNuMfwD{fill:#fff3ae;}.ABTzGhADsu,.arqWxPkFpk,.FJsmjCpUvm,.aZtxaGfyho{fill:#fff;}.arqWxPkFpk,.aZtxaGfyho,.lLhZUfdkWQ{}.INfmTsxiVr,.uMZuCMsnXK,.FJsmjCpUvm,.VxlfUWMFYd,.aZtxaGfyho{stroke-width:2px;}.WOBFMluLsr{fill:#0097dd;}.fgZhmFSZcl{fill:#a8e0a1;}.lLhZUfdkWQ{stroke-width:5px;}.uMZuCMsnXK,.tQvGnYWGsZ{fill:#00ffa9;}.JeVByXUQJZ{fill:#754c24;}.dykBufvFKi{fill:#6dfc6d;}.iwailErkSp{fill:#b9fcf7;}.ZjfcoccGWY{fill:#5fe;}.sjZzndrvBF{fill:#ff76eb;}.BeBRxhhvfs,.REjTpgcrPm,.FJsmjCpUvm,.VxlfUWMFYd{stroke:#000;}.BeBRxhhvfs{stroke-width:0.25px;}.aBnmMpTBIH{fill:#6000ff;}.otwzXjgrUF{fill:#ff0020;}.bPGsrAimnz{fill:#ffd400;}.XQMkvtNFrQ{fill:#ff81e7;}.cOYvMwtoiN{fill:#fdff00;}.osHmrwRLQn{fill:#f6a9cb;}.INfmTsxiVr,.uMZuCMsnXK{stroke:#00ffa9;}.ejcatWqoRW{font-size:20px;font-family:IBMPlexMono-Text, IBM Plex Mono;letter-spacing:0em;}</style>
        
        <linearGradient id="hover0grad" x1="50%" y1="0%" x2="50%" y2="100%" > 
            <stop offset="0%" stop-color="#ffffff">
                <animate attributeName="stop-color" values="#ffffff; #ff96f3; #ff96f3; #ffffff" dur="5s" repeatCount="indefinite"></animate>
            </stop>
            <stop offset="100%" stop-color="#ff96f3">
                <animate attributeName="stop-color" values="#ff96f3; #ffffff; #ffffff; #ff96f3" dur="5s" repeatCount="indefinite"></animate>
            </stop>
        </linearGradient> 

  </defs>
  <g
     id="фон">
    <rect
       class="bduy3bdd"
       x="-12.87"
       y="-23.29"
       width="3863.25"
       height="2193.02"
       id="rect6" />
  </g>
  <g
     id="линии">
    <path
       class="n87ehd"
       d="M2188.39,236.55c-21.1-23.07-47.86-58.19-84.87-27.07-60.39,50.8-148.47-63.45-197.47-30.51-68,45.75-132.81,37.17-183.56,26.7-29.36-6.06-107.55,37.25-147.3,67.4-37.4,28.33-65.06,49.13-133.22,27.52-46.09-14.61-68.3,5.37-82.92,9.82a265.78,265.78,0,0,1-81-14.05"
       id="path9" />
    <path
       class="n87ehd"
       d="M805.13,409.1c-15.3-27.27-33.37-67.56-76.49-45.68-70.37,35.72-130.12-95.59-185.34-74.66-76.66,29.06-137.78,6-184.82-15.78-27.21-12.59-113.2,11.79-158.78,32.1-42.86,19.08-74.53,33-136-3.52-41.56-24.72-67.73-10.32-83-9.31a266.49,266.49,0,0,1-75.67-32.12"
       id="path11" />
  </g>
  <g
     id="части_ланндш"
     data-name="части ланндш">
    <rect
       class="iRlbySsGiC"
       x="169.47"
       y="415.73999"
       width="715.66998"
       height="281.03"
       rx="39.860001"
       id="rect14" />
    <path
       class="ICkoNuMfwD"
       d="M 472.66,502.91 C 434.57,493 416.82,492.78 413.45,481 c -4.07,-14.22 18.44,-26 78.51,-88.81 30.35,-31.71 41.7,-46.55 46.34,-52.77 26.39,-35.32 22,-40.62 34.75,-50.19 28.67,-21.57 55,2.15 130,1.28 62.09,-0.71 85.13,-17.45 103,0 17.13,16.77 15.19,51.14 3.86,73.37 -7.09,13.92 -16.72,20.81 -48.9,41.18 -72.87,46.13 -73.19,42.26 -86.24,54.06 -44.76,40.49 -28,74.24 -59.2,87.52 -30.67,13.06 -47.9,-18.96 -142.91,-43.73 z"
       id="path16" />
    <path
       class="aZtxaGfyho"
       d="m 1196.84,141.77 v 112.32 a 93.87,93.87 0 0 1 -5.41,31.54 v 173.93 a 94.28,94.28 0 0 1 -94.28,94.28 h -72.24 A 94.28,94.28 0 0 1 930.63,459.56 V 348.37 H 736.86 A 94.28,94.28 0 0 1 642.58,254.09 V 141.77 a 94.28,94.28 0 0 1 94.28,-94.28 h 365.7 a 94.28,94.28 0 0 1 94.28,94.28 z"
       id="path18" />
    <path
       class="WOBFMluLsr"
       d="m -12.87,88.42 c -1.17,50.52 -2.2,94.87 22.52,123.15 C 42.41,249 106.19,242 179.44,234 299,220.8 326.47,184 384.67,206 c 33.84,12.75 27.28,26.2 98.89,72.76 48.6,31.6 74.2,48.25 110.08,56 60.07,12.93 150.07,1.11 169.79,-44.78 25.89,-60.24 -85.93,-140.53 -57.84,-184.71 16.83,-26.49 100.13,24.14 166.79,-13.14 15.18,-8.49 30.26,-18 29.12,-42.08 C 897,-44.6 53.42,-104.73 0,48.54 -3.91,59.77 -11.89,46 -12.87,88.42 Z"
       id="path20" />
    <rect
       class="fgZhmFSZcl"
       x="-12.87"
       y="343.92999"
       width="264.62"
       height="276.57999"
       rx="36.740002"
       id="rect22" />
  </g>
  <g
     id="hover0"
     data-name="выделение правильный цвет"
     style="visibility: hidden">
    <ellipse
       stroke="url(#hover0grad)"
       class="lLhZUfdkWQ"
       cx="105.58"
       cy="582.87"
       rx="96.5"
       ry="20.209999"
       id="ellipse25" />
  </g>
  <g
     id="Layer_1"
     data-name="Layer 1">
    <rect
       class="iRlbySsGiC"
       x="1150.97"
       y="347.02"
       width="721.8"
       height="376.57"
       rx="67"
       id="rect28" />
    <g
       id="Layer_8"
       data-name="Layer 8">
      <path
         class="fgZhmFSZcl"
         d="M1278.7,646.06l307.09-299H1766.9c-73.49,124.32-228.66,248.65-302.15,373H1280Q1279.36,683,1278.7,646.06Z"
         id="path30" />
    </g>
    <path
       class="tQvGnYWGsZ"
       d="M903.06,557.65c-8.43,7.41-17.85,15.68-31.46,17.43-11.75,1.51-14.28-3.44-48-9.39a109.55,109.55,0,0,0-37.84-.42c-42.31,6.21-46.17,6.11-51,3.86-9.55-4.44-18.91-15.13-16.19-22.58s16.82-8.41,18.25-8.47c-7.54.29-29.7,0-46.25-15.86-9-8.57-19.6-24.89-14.47-33.61,5.88-9.92,28.78-4.23,30.6-11,1.51-5.58-14-9.92-14.89-20.44s13.22-21.29,25.12-25.07c19.73-6.19,37.24,5.76,39.94,7.64,0-.66,1.16-10.92,9.36-14.86s18.51,1.24,22.95,8.51a18.52,18.52,0,0,1,2.64,8.23,29,29,0,0,1,7.65-13.78A31.28,31.28,0,0,1,825,419.75c12.24,2.09,23.45,12.29,24.64,25.49A28.59,28.59,0,0,1,844,464.36a43.85,43.85,0,0,1,15.39-11c8.94-3.76,26.61-7.59,35.75,1.66,10.58,10.77,3.55,32.93-5.1,45a48.4,48.4,0,0,1-13.67,12.85,37.86,37.86,0,0,1,10.29-.93c14.43.64,32.07,9.63,33.1,21.69C920.41,542.42,912.48,549.38,903.06,557.65Z"
       id="path33" />
    <path
       class="JeVByXUQJZ"
       d="M814.24,542.26H797V671.49h17.25Z"
       id="path35" />
    <path
       class="tQvGnYWGsZ"
       d="M804.53,555.19c19.63,0,35.54-13,35.54-29.09S824.16,497,804.53,497,769,510,769,526.1,784.9,555.19,804.53,555.19Z"
       id="path37" />
    <path
       class="dykBufvFKi"
       d="M875,683.28c-2,.23-2.17-.16-.81-1.51-1.7.7-1.83.44-.7-.84-1.16.37-1.69.23-1.72-.27a.21.21,0,0,1-.09-.13.22.22,0,0,1,0-.16,1.89,1.89,0,0,1,0-.75c-.94.31-1.26,0-.38-.37-.73-.08-1.15-.2-1.21-.37s.27-.36,1-.65c-1.89.09-1.95-.17-.32-1.05-2,.56-2.26.5-.33-.69-2.21.89-2.18.63-.5-.8-2.28,1.48-2.42,1.32-.76-.82-1.77,1.52-2.1,1.56-.83-.66-.89.93-1.32,1.32-1.59,1.17s-.14-.28,0-.57a2.17,2.17,0,0,1,.24-.86h-.22l-.08.12h0a.42.42,0,0,0-.08.32.48.48,0,0,0,0,.17h0v.08h-.28l.08.08h-.09l.09.09h-.19l.29.15-.29-.13h0l.11.08h-.08a1.07,1.07,0,0,0,.16.14,2.86,2.86,0,0,1-.54-.3l.55.28-.57-.28.31.17-.31-.16c.13.09.31.21.53.34l-.58-.31.36.21-.29-.16.29.17h-.11l.27.16-.24-.14h0l.24.14-.18-.09.16.1-.24-.13a1.4,1.4,0,0,0,.26.16,1.49,1.49,0,0,1-.3-.18L866,675l-.48-.27-.13-.08.82.57-.69-.38.18.13.45.32H866l.25.16-.53-.32.51.36c-1.25-.76-2-1.21-.9-.6-.44-.28-.53-.36,0-.09l-.1-.08c-.39-.29-.47-.39-.31-.35l-.11-.09a1.06,1.06,0,0,1-.29-.37,2,2,0,0,1-.4-.17c-.35-.15-.5-.3-.3-.56a.52.52,0,0,1,.14-.19h-.56s0-.07.11-.15c-.15-.11,0-.34.3-.66-.89.26-1.33.33-.52-.52-1.14.56-1,.23-.32-.54-.87.56-1.21.71-.41-.25-.94.75-.7.41-.13-.29-.91.78-1.32,1.1-.4-.13-1,1.15-.72.75,0-.16-.78.88-1.12,1.32-.26,0-1,1.19-.76.74-.19-.29-.57.68-.88,1-.39-.1-.77,1-.74.65-.43-.33-.58.82-.87,1.05-.65-.14-.58,1-.63.53-.62-.31-.29.43-.53.61-.72.36,0,.25-.08.3-.11.24a1,1,0,0,1-.2-.45.49.49,0,0,1-.12.13.39.39,0,0,1-.16.07c-.21.15-.43,0-.71-.31l-.11-.1a.88.88,0,0,1-.61-.11h-.1c-.07,0-.13-.11-.21-.15.06.36-.49.18-1.44-.27.68.54,1.17.94,1.12.71.07.27,0,.36-.23.33,0,.15,0,.16-.25.08a1.67,1.67,0,0,1-.75-.22c.42.3.4.38,0,.3.29.21.28.23-.53-.17l.53.17-.58-.41c.26.49-.37.24-.37-.34-.53,0-.65-.32-.43-.8-.26-.18-.18-.58,0-1.07-1.15.33-2,.5-2-.66-1.59,1.1-2.25.87-2.65-1-.9.91-1.49.23-2.15-.74-.19.5-.43.85-.77.75-.16.57-.45.69-.91.33-.52.51-1.25.3-.35-.21-1.17,0-2,0-2.17-.26s.12-.8,1.17-1.75c-3.61,1.5-4.37,1.33-4.81-2.72-1.11,3.64-1.89,3.45-4.44,1.15.49,1,.53,1.4.26,1.52a1,1,0,0,1-.64-.12,1,1,0,0,1-.41-.52c-.61.53-1.33.37-.43-.51-2.07.38-2.43,0-1.11-1.62-2.37,1.33-3.27,1.33-3.4-1.69-1.48,2.87-2.19,2.65-3.72.2.11,1.32-.6.54-1.4-.61,0,1.54-.21,2.26-1.11,2,0,.51-.7,0-1.71-.78.85,1.52.47,1.45-.61.5.56.89.07.82-.7.57-.16.14-.57.09-.34-.24-1,.24-1.32.2-.48-.75-1.48.74-1.72.57-.68-.84-1.64,1.33-2,1.43-.9-.76-1.68,2-1.9,1.74-1.12-.65-1.17,2.35-1.38,2.58-.67-.28-1.06,2.8-1.22,2.53-.93-.25-.71,2.72-1,3-1.32-.15-.3,3.14-.7,2.91-1.85.24.3,2.65-.15,2.71-2,.86.16.29.27.53.36.73.49.69.58.9.3.67,0,.12,0,.14-.17,0s-.24,0-.46-.18c.08.29,0,.4-.35.34a.42.42,0,0,1-.31,0c.51.21.29.16-.4-.12l-.44-.18a.55.55,0,0,1-.24.12.62.62,0,0,1-.27,0c-.15-.11.21-.51,1.11-1.26a7.61,7.61,0,0,1-2.3.86c-1.18.15-1.6-.66-1.75-3a8,8,0,0,1-1.2,2.34.87.87,0,0,1-.59.35.92.92,0,0,1-.66-.15,7.89,7.89,0,0,1-1.85-1.75c.44,1.07.62,1.68.89,1.6l.21-.13a.46.46,0,0,1-.21.13.91.91,0,0,1-1.25,0c-.67.52-1,0-1-1.63,0,2.49-.51,2.48-.8-.17-.66,1.72-1.08,2.28-1.57,1.7a.64.64,0,0,1-.29.22.63.63,0,0,1-.36,0h-.14a1.1,1.1,0,0,1-.67,0c-.31.12-.79-.12-1.46-.63l-.23-.19-.33-.24c.11.93-.26.8-.69.13,0-.07-.1-.42-.21-.88s-.18-1-.28-1.7c-1,4-1.89,4-5.2,1.83a1.34,1.34,0,0,1,.12.24c2.42,1.85,2.48,1.93.2.38.5.73.57,1.13.29,1.33a.87.87,0,0,1-.42.14.69.69,0,0,1-.35,0c-.27,0-.67,0-.74-.38.07.31.22.41.32.42h0c-.28,0-.59,0-.3-.4-.74.31-1.18.43-1.15.18a.34.34,0,0,1-.2,0,1,1,0,0,1-.35,0,1,1,0,0,1-.33-.13c-.58.16-.74-.07-.39-.91a5.23,5.23,0,0,1,0-1.25c-1.45,2.65-1.58,2.65-.28-.14-2,2.86-2.57,2.88-3.2-.73-.35,1.23-.72,2-.31,2.34-.41.24-.74.41-.94.54l.86-.11-.61.17h.32l-3.56.74c-.82.16-1.32.25-.67-.23-1.32.59-1.52.6-.24-.27-1.64.89-1.83.91-.34-.39-2.19,1.32-2.65,1.39-1.58-1.32-1.74,1.76-2.87,2.45-4.46,2.18h-.08a1.43,1.43,0,0,1-.68.07c0,.06-.16.09-.35.06s-.3.16-.62.08a12.31,12.31,0,0,1-2.38-1.12c1.19.94,1.73,1.41,1.75,1.39a1.57,1.57,0,0,1-.61-.08l-.08.08c-.4.36-.85.29-1.33-.35-.23.56-.31.68-.34.39-.59.76-.86.53-.78-1-.94,2-1.32,2-1.93-.12-.25,2.28-.66,2.33-1.93.43.22,1,.24,1.52,0,1.62s-.73-.19-1.45-.88c.31.74.39,1.11.31,1.19a.43.43,0,0,1-.16,0,.51.51,0,0,1-.17,0A.45.45,0,0,1,757,661a.35.35,0,0,1-.07-.15.89.89,0,0,0-.22.16.2.2,0,0,0,0,.13.18.18,0,0,0,.11.08h.39a1.62,1.62,0,0,1-.62,0,4.58,4.58,0,0,1-.83.08h-.44a.54.54,0,0,1-.37-.07.42.42,0,0,1-.14-.09.64.64,0,0,1-.08-.14c-.88.52-.89.48,0-.15a2.29,2.29,0,0,1,.37-1c-2.78,2-3.53,2.19-4-1.58-1.07,4.06-1.84,4.2-5.57,2.33a4.53,4.53,0,0,1,.94,1.45c1,.45,1,.5,0,.2a.55.55,0,0,1,0,.28.52.52,0,0,1-.17.22.63.63,0,0,1-.37.21c0,.2-.68.29-1.87.44A4.18,4.18,0,0,0,746,663h-.15c0,.18-.46.27-1.24.35a1.55,1.55,0,0,1-.43,0H744a1.61,1.61,0,0,1-.39-.57,5.68,5.68,0,0,1-.38-1.47c-1.44,3.18-2.35,3.43-5.44,1.69.53.94.67,1.51.89,1.33a.57.57,0,0,0,.13-.14.57.57,0,0,1-.13.14c-.91,1-1.6.9-1.92-1.06.12,2.39-.18,2.47-.21,0-.71,2.64-1.14,2.83-1.32-.17-.7,3.24-1.13,3.37-2.78.38.81,3.24.38,3.39-2.12,1.23,1.75,2.13,1.42,2-.34.19,1,1.42,1,1.83-.17,1.44.51.5.46.5-.33,0,.26.7-.12.78-1,.47.37.15.08-.25-.24-.9-.07.78-.17,1.33-.34,1.45s-.38-.23-.73-1.19c-.22,2.4-.9,2.3-2.64.71.94,1.88.87,2.29-1,.82,1.32,2,.86,2.09-1.2,1.26,1.32,1.32.77,1.58-.49.74.67.84.32,1.06-.45.84.37.1.32-.22.24-1-.48,1.05-1,1.63-1.33,1.62s-.6-.6-.8-2c-.86,2.9-1.51,2.57-2.85.25.43,2.38.23,3.11-2.29,1.67,1.91,2.47,1.49,2.76-1.4,2.18,1.69.86.94.84-.47.61,1,.87,1.12,1.42,0,1.43.86.44.64.71-.08,0,.23.71,0,.49-.36-.25a3.37,3.37,0,0,1-.15,1c0,.08-.12-.13-.2-.83-.13,1.48-.31,1-.59-.14,0,1.49-.11,2.23-.9.34.21,2.09-.26,1.55-1.1.14.2,1.33.21,2.24-1.48,1.06,1.32,2.5,1,2.94-1.85,2.2,1.53,1.32.63,1.43-.76,1.47.69.37,1.15.7,1.19,1s-.22.71-1.24.93l.69.25a2,2,0,0,0-.17-.36c.51.45.53.49.17.36.38.88,0,1.1-1.32.73.75.45,1.15.75,1.13.86,5.3,0-2.32,4.57-4.2,7.18,15.13.09,30.25.59,45.37,1.19,43-1.32,92.1-4.27,127.75-4.78a1.5,1.5,0,0,1,1-1.2C873.84,685.44,873.58,684.66,875,683.28Z"
       id="path39" />
  </g>
  <g
     id="Layer_2"
     data-name="Layer 2">
    <path
       class="WOBFMluLsr"
       d="m 1405.17,56.93 a 75.36,75.36 0 0 1 25.42,-5.23 42.58,42.58 0 0 1 5.05,0.06 41.54,41.54 0 0 1 20.46,7.51 c 1.13,0.56 2.81,0 4.54,0.23 1.48,0 3,0 4.5,0 1.5,0 2.92,0 4.43,-0.06 12.34,-2.46 23.56,-14.24 37,-9.2 6.73,2.81 12.34,9 19.94,9.12 a 39.69,39.69 0 0 0 4.64,0.14 h 21.6 a 32.54,32.54 0 0 1 29.1,18 c 7.59,-22.79 17.52,-65.15 -4.6,-95.1 -38.18,-51.72 -149.15,-35.67 -156.52,-10.1 -3.15,10.91 14.38,17.24 12.9,31.42 -3.36,32.11 -96,23.92 -143.62,74.61 -41.5,44.14 -48.21,132.19 -13.46,163.26 30,26.79 115.44,13.25 188.05,-21.94 l 3.68,-1.81 c 4.62,-2.06 9.11,-5.43 14.16,-6.54 a 46.83,46.83 0 0 0 6,-0.25 38.91,38.91 0 0 0 29,-17.92 45.41,45.41 0 0 0 2.88,-5.11 49,49 0 0 0 2.26,-5.54 51.62,51.62 0 0 0 1.63,-5.89 57,57 0 0 0 1,-6.19 c 0.51,-1.41 1,-2.82 1.76,-4.72 6.91,-19.4 16.11,-45.26 16.11,-45.26 -0.49,0.57 -25.39,10.54 -53.55,21.84 -1.48,0.64 -3,1.26 -4.47,1.88 -1.47,0.62 -3,1.3 -4.49,1.92 -1.49,0.62 -3,1.25 -4.55,1.87 -12,5 -23.27,10.65 -35.83,14.26 l -5,2 c -8.1,3.33 -14.87,6.15 -19.42,8.14 l -3.46,1.57 c -8.35,3.15 -17.33,3.71 -25.74,6.51 5,-3.92 10.66,-7.29 15.73,-11 l 5,-3.36 73,-49.47 c 1.84,-1.25 3.7,-2.5 5.54,-3.76 9.6,-6.44 18.58,-14.29 28.41,-19.27 1.3,-0.86 2.6,-1.74 3.89,-2.61 32.13,-21.77 45.19,-30 45.19,-30 -2.93,2.21 -15.56,12.68 -47.44,37.05 l -3.57,2.72 c -4.53,4 -9.58,6.8 -14.23,10.84 l -4.75,3.61 c -23.85,18.09 -49.39,37.22 -71.48,53.2 l -3,2.21 a 175.78,175.78 0 0 1 -48.47,27.82 22.47,22.47 0 0 0 -3.1,1.93 c -1,0.71 -1.87,1.45 -2.79,2.17 -7.57,7.13 -19.35,11.05 -27.77,5.44 a 39.57,39.57 0 0 1 -18.51,-29.45 16.66,16.66 0 0 1 0.44,-3.8 18.14,18.14 0 0 1 1.58,-4.22 c 0.71,-1.51 1.59,-2.94 2.49,-4.48 3.9,-6.29 9.51,-14.15 11.2,-19.2 3.93,-9.53 6.73,-21.88 11,-32.54 A 24.11,24.11 0 0 1 1348,110 c 5.43,-6.42 13.29,-6.42 20.58,-5.85 C 1365.8,93.53 1372,84 1377,75.7 a 33.07,33.07 0 0 1 5.09,-6.59 c 5.62,-5.32 11.23,-9.25 18.59,-11.24 1.4,-0.37 2.91,-0.66 4.49,-0.94 z"
       id="path42" />
    <path
       class="iwailErkSp"
       d="m 1126.56,389.31 42.5,-18.21 c 2,0.12 4.07,0.23 6.12,0.33 46.36,2.14 98.41,-2.28 155.38,-18 a 96.07,96.07 0 0 0 1.93,-10.94 c 5.13,-43.41 -19,-92.3 -58.87,-118.07 a 123.44,123.44 0 0 0 -56.3,-19.3 117.81,117.81 0 0 0 -52.76,8 c -27.23,11.05 -42.38,29.45 -49.22,38 a 134.61,134.61 0 0 0 -22.84,42.14 33.76,33.76 0 0 0 -14.57,0.66 40.23,40.23 0 0 0 -15.33,9.08 c -6.19,5.84 -10.59,17 -12,31.32 a 116.37,116.37 0 0 0 1,28.71 l 14.78,5.93 a 69.52,69.52 0 0 1 -2,-10.68 66.36,66.36 0 0 1 1.73,-23.75 c 2.46,-9.51 5.44,-12.25 6.91,-13.39 a 10.62,10.62 0 0 1 6.26,-2.59 c 5.14,-0.09 8.9,4.79 11.45,8.21 1.07,1.43 5,6.83 8.2,18.78 a 113.67,113.67 0 0 1 3.67,27.86 c 0.09,3.26 0,6 0,7.77 z"
       id="path44" />
    <path
       class="ZjfcoccGWY"
       d="m 1066.37,368.93 35.62,-5.87 a 102.92,102.92 0 0 0 -1.68,-11.5 73,73 0 0 0 -9.64,-24.83 c -2.93,-4.61 -4.94,-6.44 -7.53,-7.29 a 12.48,12.48 0 0 0 -8.93,0.77 c -6.52,3.27 -8,11.94 -9.47,20.64 a 65.44,65.44 0 0 0 0,20.59 68,68 0 0 0 1.63,7.49 z"
       id="path46" />
    <path
       class="iwailErkSp"
       d="M 1066.37,368.93 1051.59,363 c -0.33,-2.1 -0.75,-5.13 -1,-8.78 -0.51,-6.38 -1.24,-15.47 1,-26.53 1.27,-6.43 3.26,-15.91 10.35,-24 a 19.77,19.77 0 0 1 6.3,-5.12 c 6.78,-3.3 13.89,-1.18 16.76,-0.33 16.73,5 26.92,26.48 32.17,37.58 9.16,19.32 10,34.59 10.15,39.3 a 90.22,90.22 0 0 1 -0.67,14.16 l -24,-8.17 c 0.1,-2.86 0.15,-7.1 -0.15,-12.24 a 120.36,120.36 0 0 0 -6,-31.1 c -2.28,-6.82 -4.42,-11.16 -8.39,-14.8 -1.81,-1.65 -4.3,-3.87 -7.86,-4.08 -5.49,-0.31 -9.56,4.39 -10.64,5.65 -1.69,1.95 -4.66,6.19 -5.21,19.69 a 100,100 0 0 0 1.97,24.7 z"
       id="path48" />
    <path
       class="ZjfcoccGWY"
       d="m 1068.15,298.6 a 31.48,31.48 0 0 1 7.53,-3.91 c 3.68,-1.31 7.33,-1.81 15,-1.7 a 161.07,161.07 0 0 1 16.6,1.1 c 12.15,1.47 18.23,2.2 25.31,5 a 64.22,64.22 0 0 1 15.56,8.71 63.38,63.38 0 0 1 16.19,18.47 c 10.72,19.17 6,39.7 4.69,44.85 l -42.5,18.21 a 85.54,85.54 0 0 0 0.68,-8.7 c 0.39,-14.49 -3,-25.42 -5.12,-32.32 a 120.1,120.1 0 0 0 -13.73,-28.89 c -4.87,-7.86 -8.63,-12.21 -13.49,-15.82 a 29.83,29.83 0 0 0 -11.9,-5.84 28.27,28.27 0 0 0 -14.82,0.84 z"
       id="path50" />
    <path
       class="ABTzGhADsu"
       d="m 1149.65,227.42 q 3.48,1.26 7,2.33 c 2.36,0.7 4.73,1.42 7.14,1.94 l 3.6,0.85 c 1.2,0.28 2.4,0.57 3.62,0.76 l 3.64,0.65 c 1.21,0.21 2.41,0.45 3.64,0.57 a 148.29,148.29 0 0 0 29.39,1.31 c 2.45,-0.17 4.9,-0.28 7.33,-0.59 l 3.65,-0.4 c 1.22,-0.15 2.43,-0.36 3.64,-0.54 l 3.63,-0.53 3.62,-0.62 c 2.43,-0.35 4.83,-0.84 7.24,-1.26 9.67,-1.69 19.2,-4.11 28.88,-6.42 l 0.14,0.38 a 120,120 0 0 1 -13.8,5.77 c -1.18,0.44 -2.36,0.82 -3.56,1.19 l -3.58,1.11 c -2.41,0.64 -4.83,1.33 -7.26,1.89 -2.43,0.56 -4.89,1.1 -7.38,1.45 l -3.71,0.57 c -1.24,0.16 -2.49,0.27 -3.74,0.4 -1.25,0.13 -2.49,0.26 -3.74,0.34 l -3.75,0.21 c -2.5,0.2 -5,0.19 -7.51,0.25 A 151.23,151.23 0 0 1 1178,236.5 c -1.23,-0.19 -2.44,-0.5 -3.66,-0.78 l -3.64,-0.84 c -1.22,-0.25 -2.42,-0.61 -3.61,-1 l -3.59,-1 a 119.37,119.37 0 0 1 -14,-5.09 z"
       id="path52" />
    <path
       class="ABTzGhADsu"
       d="m 1197.13,210.19 c -0.88,1.9 -1.75,3.78 -2.46,5.72 -0.37,1 -0.72,1.92 -1,2.89 -0.28,0.97 -0.66,1.93 -0.94,2.91 -0.59,1.95 -0.72,4 -1.54,5.86 a 23.37,23.37 0 0 1 -3.08,5.59 l -0.39,-0.07 a 13.74,13.74 0 0 1 -0.38,-6.59 11.39,11.39 0 0 1 1,-3.07 l 1.46,-2.89 a 47.65,47.65 0 0 1 3.19,-5.56 50.11,50.11 0 0 1 3.9,-5 z"
       id="path54" />
    <path
       class="ABTzGhADsu"
       d="m 1227.29,211.56 a 29.28,29.28 0 0 1 4.12,3.29 c 0.62,0.63 1.24,1.27 1.83,2 0.59,0.73 1.12,1.39 1.63,2.13 0.51,0.74 1.07,1.45 1.59,2.21 a 7.8,7.8 0 0 1 1.09,2.47 9.73,9.73 0 0 1 -0.14,5.57 l -0.39,0.1 a 18.2,18.2 0 0 1 -3.2,-4.21 c -0.86,-1.38 -1.06,-3 -1.73,-4.56 a 44.82,44.82 0 0 0 -2.25,-4.42 41,41 0 0 0 -2.82,-4.24 z"
       id="path56" />
    <path
       class="ABTzGhADsu"
       d="m 1119.46,255.34 a 204.72,204.72 0 0 0 42.15,10.41 222.79,222.79 0 0 0 43.26,1.77 l 5.4,-0.39 c 1.8,-0.12 3.6,-0.23 5.39,-0.46 l 5.38,-0.62 2.69,-0.32 2.68,-0.41 c 3.57,-0.53 7.14,-1 10.69,-1.68 l 5.33,-0.9 c 1.78,-0.29 3.55,-0.68 5.32,-1 l 5.32,-1 5.3,-1.16 c 1.76,-0.39 3.55,-0.71 5.3,-1.16 l 5.28,-1.25 c 7,-1.68 14.06,-3.55 21.11,-5.4 l 0.13,0.38 c -1.67,0.72 -3.35,1.43 -5,2.1 -1.65,0.67 -3.37,1.41 -5.08,2 -3.44,1.21 -6.85,2.55 -10.35,3.6 -3.5,1.05 -7,2.2 -10.5,3.13 l -5.3,1.41 -5.35,1.23 c -1.79,0.38 -3.57,0.82 -5.37,1.15 l -5.41,1 c -3.6,0.66 -7.25,1 -10.88,1.5 -7.28,0.79 -14.59,1.24 -21.9,1.46 a 224.23,224.23 0 0 1 -43.7,-3 205.93,205.93 0 0 1 -42,-12 z"
       id="path58" />
    <path
       class="ABTzGhADsu"
       d="m 1155.76,263.17 c 0.38,-2.19 0.9,-4.35 1.4,-6.51 0.5,-2.16 1.15,-4.3 1.83,-6.42 0.34,-1.06 0.62,-2.14 0.93,-3.22 a 14.29,14.29 0 0 1 1.32,-3.06 21.5,21.5 0 0 1 1.93,-2.77 14.08,14.08 0 0 1 2.53,-2.46 l 0.36,0.18 a 16.91,16.91 0 0 1 -0.34,3.48 27.43,27.43 0 0 1 -0.83,3.21 15.58,15.58 0 0 1 -1.33,3 c -0.55,0.95 -1.12,1.89 -1.61,2.87 l -2.91,5.89 c -1,2 -1.92,4 -2.9,6 z"
       id="path60" />
    <path
       class="ABTzGhADsu"
       d="m 1222.28,261.61 a 32.58,32.58 0 0 0 -0.49,-5.84 c -0.29,-1.94 -0.65,-3.86 -1,-5.8 -0.35,-1.94 -1.09,-3.71 -1.17,-5.63 a 23.22,23.22 0 0 1 0.24,-6.05 l 0.38,-0.13 a 12.34,12.34 0 0 1 3.3,5.4 10.19,10.19 0 0 1 0.49,3.05 c 0,1 -0.07,2.07 -0.06,3.06 0,2 0,4 -0.19,6 a 26.33,26.33 0 0 1 -1.12,6 z"
       id="path62" />
    <path
       class="ABTzGhADsu"
       d="m 1276.24,250.8 c -1,-1.9 -2.08,-3.79 -3.23,-5.61 -0.55,-0.91 -1.12,-1.82 -1.7,-2.71 -0.58,-0.89 -1.15,-1.79 -1.75,-2.67 -0.6,-0.88 -1.28,-1.7 -1.94,-2.53 a 16.44,16.44 0 0 1 -1.73,-2.64 27.88,27.88 0 0 1 -1.34,-2.93 17.7,17.7 0 0 1 -1,-3.28 l 0.32,-0.25 a 12.32,12.32 0 0 1 2.93,1.87 17.13,17.13 0 0 1 2.38,2.36 12.36,12.36 0 0 1 1.78,2.79 l 1.36,3 a 58.74,58.74 0 0 1 2.48,6.11 63.75,63.75 0 0 1 1.8,6.31 z"
       id="path64" />
    <path
       class="ABTzGhADsu"
       d="m 1099.64,284.07 c 4,2.1 8,4.07 12.21,5.77 4.21,1.7 8.36,3.31 12.64,4.67 a 153.43,153.43 0 0 0 26.27,5.78 c 17.79,2.43 35.84,2.24 53.84,1.78 9,-0.28 18,-0.61 27,-1 9,-0.39 17.87,-1 26.75,-2.15 8.88,-1.15 17.72,-2.64 26.5,-4.52 8.78,-1.88 17.48,-4.16 26.14,-6.72 l 0.14,0.37 a 212.4,212.4 0 0 1 -52.23,14.83 c -4.5,0.67 -9,1.21 -13.57,1.55 -4.57,0.34 -9.08,0.48 -13.61,0.6 l -27.09,0.26 c -18.05,0.06 -36.24,-0.15 -54.19,-3 a 154.94,154.94 0 0 1 -26.35,-6.62 q -6.4,-2.25 -12.59,-5.08 c -4.13,-1.83 -8.14,-3.93 -12.07,-6.15 z"
       id="path66" />
    <path
       class="ABTzGhADsu"
       d="m 1124.35,294.49 a 42.87,42.87 0 0 1 -0.57,-8 44.22,44.22 0 0 1 1,-8.09 c 0.55,-2.66 1,-5.44 2.43,-7.83 a 21.15,21.15 0 0 1 2.35,-3.39 15.2,15.2 0 0 1 3.08,-2.84 l 0.34,0.22 a 32.49,32.49 0 0 1 -1,4 c -0.37,1.26 -0.76,2.49 -1.18,3.69 a 33.86,33.86 0 0 1 -1.46,3.52 33.4,33.4 0 0 0 -1.53,3.52 57.9,57.9 0 0 0 -2,7.44 51.55,51.55 0 0 0 -1,7.79 z"
       id="path68" />
    <path
       class="ABTzGhADsu"
       d="m 1180.49,300.34 c -0.25,-2.44 -0.43,-4.88 -0.62,-7.33 -0.19,-2.45 -0.22,-4.92 -0.28,-7.38 a 23.67,23.67 0 0 1 0.33,-7.46 20.38,20.38 0 0 1 1.23,-3.57 14.83,14.83 0 0 1 2,-3.33 l 0.39,0.1 a 23,23 0 0 1 0.38,3.79 c 0,1.23 0,2.43 0,3.62 a 23.1,23.1 0 0 1 -0.48,3.52 32.26,32.26 0 0 0 -0.61,3.56 q -0.4,3.6 -0.91,7.21 c -0.35,2.42 -0.6,4.85 -1,7.28 z"
       id="path70" />
    <path
       class="ABTzGhADsu"
       d="m 1256.41,298 c -0.34,-2.82 -0.49,-5.6 -0.86,-8.4 -0.37,-2.8 -0.67,-5.54 -1.18,-8.23 a 35.9,35.9 0 0 0 -1,-3.95 37.55,37.55 0 0 1 -1,-3.92 c -0.27,-1.34 -0.53,-2.68 -0.75,-4.06 a 38.1,38.1 0 0 1 -0.5,-4.3 l 0.36,-0.17 a 16.32,16.32 0 0 1 2.77,3.47 22.38,22.38 0 0 1 2,3.92 17.29,17.29 0 0 1 1,4.25 c 0.17,1.45 0.25,2.92 0.35,4.36 0.1,1.44 0.14,2.88 0.14,4.31 0,1.43 -0.06,2.85 -0.13,4.26 -0.17,2.82 -0.44,5.66 -0.74,8.47 z"
       id="path72" />
    <path
       class="ABTzGhADsu"
       d="m 1218.18,307.68 a 125.14,125.14 0 0 1 4.55,14.75 126.52,126.52 0 0 1 2.75,15.25 c 0.6,5.13 1.3,10.33 0.89,15.52 a 59.84,59.84 0 0 1 -2.92,15.29 l -0.4,-0.05 c -0.26,-2.61 -0.36,-5.17 -0.45,-7.72 -0.08,-1.28 -0.06,-2.54 -0.13,-3.81 -0.07,-1.27 0,-2.53 -0.1,-3.8 -0.07,-2.52 -0.06,-5 0,-7.57 0.06,-2.57 0,-5.06 -0.06,-7.59 -0.06,-2.53 -0.32,-5.06 -0.58,-7.58 -0.26,-2.52 -0.55,-5.05 -0.94,-7.56 a 149.12,149.12 0 0 0 -3,-15 z"
       id="path74" />
    <path
       class="ABTzGhADsu"
       d="m 1146.79,375.9 a 119,119 0 0 0 -3.77,-23.19 114.7,114.7 0 0 0 -8.06,-21.9 c -0.86,-1.74 -1.78,-3.45 -2.74,-5.12 -0.96,-1.67 -2,-3.37 -3,-5 -2,-3.3 -4.13,-6.5 -6.42,-9.55 a 56.35,56.35 0 0 0 -3.63,-4.39 c -0.63,-0.73 -1.3,-1.4 -2,-2.09 -0.7,-0.69 -1.36,-1.35 -2.08,-2 a 78,78 0 0 0 -9.22,-7.17 l 0.17,-0.36 a 43.79,43.79 0 0 1 19.84,13.49 56.68,56.68 0 0 1 6.73,10.07 c 0.93,1.77 1.82,3.55 2.71,5.32 0.89,1.77 1.74,3.62 2.53,5.46 a 117.53,117.53 0 0 1 7.1,22.79 113.22,113.22 0 0 1 2.22,23.63 z"
       id="path76" />
    <path
       class="ABTzGhADsu"
       d="m 1128.12,365.81 c 1,-0.61 2.06,-1.14 3.11,-1.68 1.05,-0.54 2.09,-1 3.15,-1.48 1.06,-0.48 2,-1.28 3.22,-1.29 a 6.62,6.62 0 0 1 1.81,0.12 6,6 0 0 1 2,0.71 l 0.1,0.38 a 6,6 0 0 1 -1.34,1.62 6.53,6.53 0 0 1 -1.5,1 c -1,0.6 -2.27,0.38 -3.42,0.52 -1.15,0.14 -2.31,0.25 -3.48,0.33 -1.17,0.08 -2.34,0.14 -3.53,0.13 z"
       id="path78" />
    <path
       class="ABTzGhADsu"
       d="m 1115.85,329.37 c 1.3,-0.44 2.6,-0.77 3.91,-1.16 1.31,-0.39 2.61,-0.67 3.92,-1 1.31,-0.33 2.59,-0.94 4,-0.76 a 8.41,8.41 0 0 1 4.14,1.43 v 0.4 a 8.47,8.47 0 0 1 -3.82,2.15 c -1.3,0.42 -2.67,0 -4,0 -1.33,0 -2.68,-0.13 -4,-0.24 -1.32,-0.11 -2.7,-0.23 -4.06,-0.43 z"
       id="path80" />
    <path
       class="ABTzGhADsu"
       d="m 1125.91,309.06 c 1.32,-0.43 2.64,-0.75 4,-1.12 1.36,-0.37 2.65,-0.65 4,-0.93 1.35,-0.28 2.62,-0.91 4,-0.72 a 8.57,8.57 0 0 1 4.17,1.46 v 0.4 a 8.43,8.43 0 0 1 -3.88,2.12 c -1.31,0.41 -2.7,0 -4.05,-0.07 -1.35,-0.07 -2.72,-0.15 -4.08,-0.27 -1.36,-0.12 -2.72,-0.26 -4.09,-0.47 z"
       id="path82" />
    <path
       class="ABTzGhADsu"
       d="m 1141.28,336.18 c 1.65,-0.47 3.28,-0.87 4.89,-1.38 1.61,-0.51 3.2,-1 4.79,-1.46 1.59,-0.46 3,-1.39 4.72,-1.52 a 13.77,13.77 0 0 1 5.28,0.31 l 0.13,0.38 a 11,11 0 0 1 -4.39,3.18 c -1.59,0.73 -3.39,0.61 -5.1,0.79 -0.85,0.08 -1.71,0.15 -2.57,0.21 l -2.57,0.09 c -1.72,0 -3.43,0 -5.14,-0.2 z"
       id="path84" />
    <path
       class="ABTzGhADsu"
       d="m 1075.66,315.23 c -0.45,-1.19 -0.83,-2.39 -1.21,-3.59 -0.38,-1.2 -0.7,-2.4 -1,-3.61 -0.3,-1.21 -1,-2.37 -0.81,-3.63 a 7.65,7.65 0 0 1 0.39,-1.9 6.51,6.51 0 0 1 1,-2 h 0.4 a 6.6,6.6 0 0 1 1.41,1.71 8.14,8.14 0 0 1 0.79,1.77 c 0.43,1.19 0,2.48 0,3.72 0,1.24 -0.09,2.49 -0.19,3.74 -0.1,1.25 -0.21,2.51 -0.38,3.77 z"
       id="path86" />
    <path
       class="ABTzGhADsu"
       d="m 1051.65,334.42 c 1,0 2,0.05 3,0.11 1,0.06 2,0.16 2.94,0.29 0.94,0.13 2.05,-0.09 2.88,0.49 a 5.17,5.17 0 0 1 1.2,1 5.44,5.44 0 0 1 1,1.59 l -0.12,0.38 a 5.59,5.59 0 0 1 -3.29,0.85 c -1,0 -1.77,-0.8 -2.64,-1.25 -0.87,-0.45 -1.73,-0.92 -2.58,-1.44 -0.85,-0.52 -1.69,-1 -2.51,-1.62 z"
       id="path88" />
    <path
       class="ABTzGhADsu"
       d="m 1098,340.07 c 1,-1.15 2.14,-2.21 3.21,-3.32 1.07,-1.11 2.21,-2.12 3.34,-3.15 1.13,-1.03 2,-2.34 3.44,-3 a 10.38,10.38 0 0 1 4.74,-1.2 l 0.24,0.32 a 10.35,10.35 0 0 1 -2.63,4.12 c -1,1.14 -2.59,1.59 -3.92,2.34 -1.33,0.75 -2.67,1.48 -4,2.18 -1.33,0.7 -2.74,1.39 -4.16,2 z"
       id="path90" />
    <path
       class="ABTzGhADsu"
       d="m 1106.57,363.66 c 1.28,-0.1 2.54,-0.12 3.81,-0.15 1.27,-0.03 2.52,0 3.78,0 1.26,0 2.57,-0.27 3.74,0.24 a 8.23,8.23 0 0 1 1.74,0.9 6.7,6.7 0 0 1 1.63,1.51 l -0.07,0.39 a 6.7,6.7 0 0 1 -2,0.88 7.79,7.79 0 0 1 -1.94,0.26 c -1.28,0.09 -2.41,-0.65 -3.61,-1 -1.2,-0.35 -2.38,-0.78 -3.57,-1.22 -1.19,-0.44 -2.37,-0.9 -3.54,-1.43 z"
       id="path92" />
    <path
       class="ABTzGhADsu"
       d="m 1066.29,339.41 c 2.34,-0.55 4.69,-1 7,-1.49 2.31,-0.49 4.7,-0.9 7,-1.3 1.18,-0.2 2.35,-0.48 3.52,-0.73 a 17.68,17.68 0 0 1 3.55,-0.37 25.85,25.85 0 0 1 3.61,0.24 17.15,17.15 0 0 1 3.68,0.85 v 0.4 a 16.65,16.65 0 0 1 -3.44,1.55 25.88,25.88 0 0 1 -3.5,0.94 17.57,17.57 0 0 1 -3.55,0.33 c -1.2,0 -2.4,-0.06 -3.59,0 -2.39,0.07 -4.78,0.1 -7.17,0.11 -2.39,0.01 -4.79,0 -7.19,-0.1 z"
       id="path94" />
    <path
       class="ABTzGhADsu"
       d="m 1086.25,364.19 c -0.35,-2.16 -0.6,-4.32 -0.91,-6.49 -0.31,-2.17 -0.5,-4.33 -0.7,-6.49 -0.11,-1.09 -0.28,-2.17 -0.44,-3.25 a 14.73,14.73 0 0 1 -0.07,-3.25 21.52,21.52 0 0 1 0.54,-3.26 14.94,14.94 0 0 1 1.15,-3.28 h 0.4 a 14.2,14.2 0 0 1 1.26,3.23 21.87,21.87 0 0 1 0.65,3.24 14.8,14.8 0 0 1 0,3.26 c -0.12,1.08 -0.26,2.17 -0.32,3.25 -0.13,2.17 -0.3,4.35 -0.5,6.52 -0.2,2.17 -0.41,4.34 -0.69,6.52 z"
       id="path96" />
    <ellipse
       class="arqWxPkFpk"
       cx="154.12"
       cy="164.11"
       rx="194.75"
       ry="88.809998"
       transform="rotate(-40.13,154.14516,164.13388)"
       id="ellipse98" />
    <ellipse
       class="arqWxPkFpk"
       cx="461.42999"
       cy="289.94"
       rx="151.24001"
       ry="68.959999"
       transform="rotate(-40.13,461.48846,289.95311)"
       id="ellipse100" />
    <g
       id="kap3">
      <path
         class="tQvGnYWGsZ"
         d="m 329,667.1 c 0,0 0.71,-0.28 0.68,-0.58 0,-0.46 -1.8,-0.16 -2.76,-1.17 a 3,3 0 0 1 -0.24,-3.5 c 0.37,-0.46 0.76,-0.43 1.56,-1.28 a 3.15,3.15 0 0 0 0.76,-1 c 0.37,-0.87 -0.11,-1.37 0,-2.46 a 3.59,3.59 0 0 1 0.85,-2 4.06,4.06 0 0 1 3.4,-0.95 c 1,0.15 0.92,0.48 1.75,0.52 0.23,0 0.82,0 3,-0.94 1.32,-0.59 1.48,-0.76 1.94,-0.71 a 3,3 0 0 1 1.94,1.46 4.22,4.22 0 0 1 0.47,2.89 c -0.42,2.18 -2.58,2.82 -8.89,6.85 -1.55,0.98 -5.46,1.37 -4.46,2.87 z"
         id="path102" />
      <path
         class="tQvGnYWGsZ"
         d="m 343.27,656.88 a 2.29,2.29 0 0 1 -0.42,-2.09 c 0.32,-0.88 1.3,-1.2 2.33,-1.53 1.03,-0.33 2.53,-0.83 3.62,-0.1 0.9,0.61 0.49,1.38 1.44,2.14 0.29,0.24 0.58,0.36 3.53,0.84 1.65,0.26 2,0.29 2.41,0.65 a 3,3 0 0 1 1,2.09 c 0.07,1.07 -0.52,1.45 -0.24,2.13 0.28,0.68 0.87,0.54 1.4,1.12 0.86,0.94 0.8,2.85 -0.05,4.18 -0.74,1.15 -2.3,2.23 -3.44,1.81 -1.39,-0.51 -0.69,-2.73 -2.46,-5.71 -0.57,-1 -2,-3.45 -4.69,-4.32 -1.97,-0.66 -3.48,-0.01 -4.43,-1.21 z"
         id="path104" />
      <circle
         class="fgZhmFSZcl"
         cx="342.69"
         cy="670.73999"
         r="14.9"
         id="circle106" />
      <path
         class="tQvGnYWGsZ"
         d="m 345.32,673.83 c 0,-0.19 -0.2,-0.38 -1.12,-0.74 a 15.72,15.72 0 0 0 -2.46,-0.7 8.36,8.36 0 0 1 -2.69,-0.88 7.68,7.68 0 0 1 -1.72,-1.67 c -1.48,-1.71 -1.39,-2 -2,-2.56 -1.51,-1.41 -3.74,-1.31 -5.11,-1.25 -1.37,0.06 -3.82,0.17 -4.78,1.81 a 2.48,2.48 0 0 0 -0.14,2.51 2.39,2.39 0 0 0 1.72,0.84 c 0.54,0.06 0.63,-0.06 2.64,-0.42 a 3.5,3.5 0 0 1 1.81,0 2.48,2.48 0 0 1 1,0.56 c 0.55,0.52 0.37,0.89 0.84,1.25 a 2,2 0 0 0 1.53,0.28 c 0.52,-0.09 0.55,-0.31 1.11,-0.37 a 1.71,1.71 0 0 1 1.12,0.19 c 0.35,0.22 0.32,0.44 0.6,0.69 0.28,0.25 0.69,0.23 1.67,0.28 a 18.74,18.74 0 0 1 2.33,0.28 3.44,3.44 0 0 1 1.39,0.37 c 0.56,0.34 0.59,0.69 1,0.75 0.56,0.03 1.35,-0.7 1.26,-1.22 z"
         id="path108" />
      <path
         class="tQvGnYWGsZ"
         d="m 334.62,683.27 a 6.17,6.17 0 0 1 0.48,-1.45 8.15,8.15 0 0 1 3.71,-3.53 19.16,19.16 0 0 0 2.09,-1 18.46,18.46 0 0 0 2.33,-2.19 8.51,8.51 0 0 1 2.69,-2 14,14 0 0 1 1.9,-0.47 20.23,20.23 0 0 0 3.07,-1.11 27.22,27.22 0 0 0 4.13,-2.14 c 1.83,-1.18 2.36,-1.88 3.49,-1.81 a 2.59,2.59 0 0 1 1.72,0.79 2.55,2.55 0 0 1 0.51,2.37 3,3 0 0 1 -1.68,1.76 c -0.84,0.44 -1.28,0.25 -2.88,0.79 -0.64,0.22 -1,0.37 -1,0.37 -0.77,0.31 -0.75,0.38 -1,0.42 -0.58,0.09 -0.77,-0.21 -1.58,-0.32 a 3,3 0 0 0 -1.35,0 c -0.21,0.07 -0.65,0.26 -1.71,1.72 -0.89,1.22 -0.77,1.36 -1.12,1.54 -1,0.47 -1.88,-0.62 -2.79,-0.14 -0.44,0.23 -0.43,0.61 -0.88,1.48 a 7,7 0 0 1 -2.32,2.79 c -0.62,0.37 -1.64,0.46 -3.67,0.65 a 4.41,4.41 0 0 0 -2.55,0.65 3,3 0 0 0 -0.9,1.14 z"
         id="path110" />
    </g>
    <g
       id="kap5">
      <path
         class="tQvGnYWGsZ"
         d="m 512.4,653.06 c 0,0 1.08,0.2 1.28,-0.18 0.31,-0.6 -2.08,-1.59 -2.47,-3.57 a 4.3,4.3 0 0 1 2.42,-4.47 c 0.8,-0.28 1.26,0.06 2.89,-0.35 a 4.89,4.89 0 0 0 1.7,-0.63 c 1.12,-0.78 0.93,-1.77 1.9,-3 a 5.07,5.07 0 0 1 2.58,-1.77 c 2.41,-0.63 4.6,1.22 4.9,1.48 1.06,0.92 0.74,1.29 1.73,2 0.27,0.19 1,0.65 4.38,1.15 2.06,0.3 2.39,0.22 2.92,0.63 a 4.19,4.19 0 0 1 1.24,3.29 6.16,6.16 0 0 1 -1.65,3.9 C 534,653.87 530.87,653 520,653 c -2.51,0 -7.56,-2.49 -7.6,0.06 z"
         id="path112" />
      <path
         class="tQvGnYWGsZ"
         d="m 537.84,651.64 a 3.3,3.3 0 0 1 1.1,-2.88 c 1.08,-0.83 2.52,-0.47 4,-0.08 1.48,0.39 3.75,1 4.51,2.69 0.63,1.45 -0.46,2.06 0.11,3.73 0.17,0.51 0.42,0.89 3.67,3.76 1.81,1.59 2.21,1.9 2.45,2.66 a 4.42,4.42 0 0 1 -0.37,3.35 c -0.74,1.36 -1.75,1.38 -1.93,2.44 -0.18,1.06 0.64,1.32 0.84,2.44 0.33,1.82 -1.23,4.11 -3.29,5.08 -1.8,0.84 -4.54,0.95 -5.61,-0.44 -1.32,-1.71 1.26,-3.88 1.41,-8.9 0,-1.63 0.17,-5.8 -2.4,-8.92 -1.91,-2.36 -4.26,-2.73 -4.49,-4.93 z"
         id="path114" />
      <circle
         class="fgZhmFSZcl"
         cx="526.40002"
         cy="668.15997"
         r="21.58"
         id="circle116" />
      <path
         class="tQvGnYWGsZ"
         d="m 527.21,674 c 0.11,-0.26 0.06,-0.62 -0.79,-1.77 a 21.87,21.87 0 0 0 -2.47,-2.76 12.59,12.59 0 0 1 -2.61,-3.17 10.91,10.91 0 0 1 -0.81,-3.37 c -0.48,-3.24 -0.17,-3.51 -0.47,-4.68 -0.75,-2.89 -3.56,-4.5 -5.28,-5.49 -1.72,-0.99 -4.81,-2.74 -7.26,-1.48 a 3.62,3.62 0 0 0 -2.11,3 3.41,3.41 0 0 0 1.46,2.35 c 0.61,0.51 0.82,0.42 3.56,1.54 a 5.08,5.08 0 0 1 2.25,1.35 3.48,3.48 0 0 1 0.77,1.43 c 0.26,1.07 -0.24,1.39 0,2.19 a 3,3 0 0 0 1.66,1.52 c 0.71,0.29 0.91,0 1.65,0.41 a 2.53,2.53 0 0 1 1.22,1.09 c 0.26,0.54 0,0.8 0.2,1.32 0.2,0.52 0.66,0.82 1.83,1.64 a 26.74,26.74 0 0 1 2.63,2.14 c 1,0.93 1.26,1.21 1.41,1.53 0.42,0.85 0.2,1.3 0.62,1.66 a 1.85,1.85 0 0 0 2.54,-0.45 z"
         id="path118" />
      <path
         class="tQvGnYWGsZ"
         d="m 506.82,677.25 a 8.79,8.79 0 0 1 1.7,-1.41 11.83,11.83 0 0 1 7.28,-1.45 c 1.81,0.14 1.8,0.46 3.32,0.43 1.52,-0.03 1.9,-0.38 4.53,-0.88 a 12.34,12.34 0 0 1 4.84,-0.35 20.21,20.21 0 0 1 2.69,0.9 28.4,28.4 0 0 0 4.62,1 38.49,38.49 0 0 0 6.71,0.59 c 3.15,0 4.34,-0.48 5.67,0.47 a 3.73,3.73 0 0 1 1.49,2.3 3.68,3.68 0 0 1 -1.21,3.3 4.42,4.42 0 0 1 -3.41,0.86 c -1.38,-0.12 -1.77,-0.69 -4.14,-1.26 -1,-0.23 -1.54,-0.34 -1.54,-0.34 a 7.65,7.65 0 0 1 -1.57,-0.28 c -0.78,-0.34 -0.78,-0.85 -1.68,-1.62 a 4.26,4.26 0 0 0 -1.69,-1 c -0.31,-0.08 -1,-0.2 -3.43,0.77 -2,0.81 -2,1.07 -2.55,1 -1.55,-0.16 -1.83,-2.21 -3.3,-2.33 -0.73,0 -1,0.41 -2.23,1.14 a 10.17,10.17 0 0 1 -5,1.61 c -1,0 -2.36,-0.7 -5,-2 -1.43,-0.73 -2.33,-1.3 -3.63,-1.18 a 4.36,4.36 0 0 0 -2,0.7 z"
         id="path120" />
    </g>
    <g
       id="g201">
      <g
         id="kap1">
        <path
           class="tQvGnYWGsZ"
           d="m 210.92,680.24 c 0,0 -0.11,-1 -0.49,-1 -0.59,-0.11 -0.81,2.2 -2.4,3 a 3.84,3.84 0 0 1 -4.44,-0.9 c -0.45,-0.62 -0.28,-1.1 -1.06,-2.38 a 4.2,4.2 0 0 0 -1,-1.28 c -1,-0.76 -1.76,-0.33 -3.07,-0.84 a 4.54,4.54 0 0 1 -2.18,-1.74 c -1.17,-1.89 -0.16,-4.25 0,-4.57 0.51,-1.15 0.91,-1 1.24,-2 0.09,-0.28 0.3,-1 -0.16,-4 -0.28,-1.83 -0.44,-2.1 -0.23,-2.66 a 3.74,3.74 0 0 1 2.49,-1.91 5.46,5.46 0 0 1 3.76,0.39 c 2.58,1.26 2.64,4.18 5.52,13.42 0.67,2.13 -0.16,7.1 2.02,6.47 z"
           id="path122" />
        <path
           class="tQvGnYWGsZ"
           d="m 203.06,658.89 a 2.92,2.92 0 0 1 -2.75,-0.19 c -1,-0.7 -1.05,-2 -1.12,-3.42 -0.07,-1.42 -0.16,-3.44 1.12,-4.55 1.07,-0.91 1.88,-0.14 3.16,-1.06 0.39,-0.29 0.65,-0.6 2.24,-4.12 0.89,-2 1,-2.38 1.64,-2.79 a 3.94,3.94 0 0 1 3,-0.56 c 1.36,0.28 1.64,1.14 2.59,1 0.95,-0.14 1,-0.9 1.86,-1.36 1.47,-0.76 3.83,0 5.2,1.48 1.19,1.31 2,3.63 1.09,4.91 -1.12,1.56 -3.64,-0.07 -8,1.12 -1.4,0.38 -5,1.36 -7,4.38 -1.51,2.27 -1.21,4.39 -3.03,5.16 z"
           id="path124" />
        <circle
           class="fgZhmFSZcl"
           cx="220.14999"
           cy="664.34003"
           r="19.26"
           id="circle126" />
        <path
           class="tQvGnYWGsZ"
           d="m 224.9,662.13 c -0.25,0 -0.54,0.11 -1.31,1.13 a 19.85,19.85 0 0 0 -1.7,2.83 11.16,11.16 0 0 1 -2,3.06 9.92,9.92 0 0 1 -2.67,1.58 c -2.64,1.25 -3,1 -3.87,1.62 -2.28,1.4 -2.92,4.21 -3.31,5.94 -0.39,1.73 -1.09,4.82 0.63,6.58 a 3.21,3.21 0 0 0 3.08,1 3.05,3.05 0 0 0 1.63,-1.86 c 0.27,-0.65 0.14,-0.8 0.38,-3.44 a 4.49,4.49 0 0 1 0.56,-2.27 3.11,3.11 0 0 1 1,-1 c 0.84,-0.51 1.24,-0.16 1.85,-0.62 a 2.67,2.67 0 0 0 0.87,-1.81 c 0.06,-0.68 -0.2,-0.79 -0.09,-1.52 a 2.23,2.23 0 0 1 0.62,-1.33 c 0.39,-0.36 0.66,-0.24 1.07,-0.51 0.41,-0.27 0.52,-0.78 0.92,-2 a 23.31,23.31 0 0 1 1.14,-2.8 4.32,4.32 0 0 1 0.94,-1.61 c 0.61,-0.58 1.06,-0.51 1.26,-1 0.32,-0.68 -0.32,-1.92 -1,-1.97 z"
           id="path128" />
        <path
           class="tQvGnYWGsZ"
           d="m 233,678.68 a 8.33,8.33 0 0 1 -1.65,-1.09 10.47,10.47 0 0 1 -3.14,-5.84 24.91,24.91 0 0 0 -0.5,-2.93 c -0.44,-1.35 -0.82,-1.53 -1.93,-3.64 a 11.1,11.1 0 0 1 -1.57,-4 18.23,18.23 0 0 1 0.07,-2.53 24.79,24.79 0 0 0 -0.35,-4.2 33.88,33.88 0 0 0 -1.25,-5.88 c -0.85,-2.69 -1.54,-3.58 -1.07,-5 a 3.33,3.33 0 0 1 1.57,-1.87 3.24,3.24 0 0 1 3.12,0.17 4,4 0 0 1 1.64,2.69 c 0.25,1.2 -0.13,1.69 0,3.86 0.05,0.87 0.11,1.4 0.11,1.4 a 7.38,7.38 0 0 1 0.18,1.42 c -0.09,0.75 -0.53,0.89 -0.95,1.85 a 3.87,3.87 0 0 0 -0.4,1.7 c 0,0.29 0.1,0.91 1.56,2.73 1.22,1.52 1.43,1.42 1.53,1.91 0.27,1.37 -1.41,2.14 -1.12,3.43 0.14,0.64 0.61,0.75 1.55,1.61 a 9.1,9.1 0 0 1 2.68,3.84 c 0.25,0.9 0,2.2 -0.44,4.8 -0.25,1.41 -0.49,2.33 -0.06,3.41 a 4,4 0 0 0 1.12,1.51 z"
           id="path130" />
      </g>
    </g>
    <g
       id="kap2">
      <path
         class="tQvGnYWGsZ"
         d="m 307.25,588.24 c 0,0 1,0.21 1.15,-0.12 0.29,-0.53 -1.82,-1.47 -2.12,-3.25 a 3.85,3.85 0 0 1 2.28,-3.93 c 0.72,-0.22 1.12,0.09 2.59,-0.24 a 4.12,4.12 0 0 0 1.53,-0.51 c 1,-0.67 0.87,-1.56 1.77,-2.64 A 4.51,4.51 0 0 1 316.8,576 c 2.17,-0.5 4.08,1.21 4.33,1.44 0.93,0.86 0.64,1.18 1.5,1.82 0.24,0.18 0.87,0.61 3.88,1.14 1.83,0.33 2.13,0.26 2.59,0.64 a 3.8,3.8 0 0 1 1,3 5.47,5.47 0 0 1 -1.58,3.44 c -2,2 -4.8,1.16 -14.48,0.92 -2.25,-0.04 -6.69,-2.4 -6.79,-0.16 z"
         id="path132" />
      <path
         class="tQvGnYWGsZ"
         d="m 330,587.64 a 2.91,2.91 0 0 1 1.06,-2.54 c 1,-0.72 2.25,-0.35 3.59,0 1.34,0.35 3.32,1 4,2.52 0.52,1.3 -0.47,1.83 0,3.33 0.14,0.46 0.35,0.81 3.18,3.45 1.57,1.47 1.92,1.75 2.12,2.44 a 4,4 0 0 1 -0.42,3 c -0.7,1.19 -1.6,1.18 -1.79,2.12 -0.19,0.94 0.53,1.2 0.69,2.2 0.24,1.63 -1.2,3.64 -3.07,4.45 -1.63,0.7 -4.08,0.73 -5,-0.54 -1.13,-1.56 1.23,-3.43 1.49,-7.9 0.09,-1.45 0.31,-5.17 -1.91,-8 -1.72,-2.17 -3.8,-2.56 -3.94,-4.53 z"
         id="path134" />
      <circle
         class="fgZhmFSZcl"
         cx="319.35001"
         cy="602.08002"
         r="19.26"
         id="circle136" />
      <path
         class="tQvGnYWGsZ"
         d="m 319.93,607.29 c 0.1,-0.23 0.06,-0.55 -0.66,-1.6 a 19.65,19.65 0 0 0 -2.14,-2.53 11.53,11.53 0 0 1 -2.25,-2.89 10,10 0 0 1 -0.63,-3 c -0.35,-2.91 -0.06,-3.14 -0.3,-4.19 -0.59,-2.6 -3.06,-4.11 -4.57,-5 -1.51,-0.89 -4.22,-2.58 -6.44,-1.52 a 3.26,3.26 0 0 0 -2,2.59 3.12,3.12 0 0 0 1.24,2.14 c 0.53,0.47 0.72,0.39 3.14,1.46 a 4.62,4.62 0 0 1 2,1.26 3.23,3.23 0 0 1 0.64,1.31 c 0.21,1 -0.25,1.22 0,1.94 a 2.66,2.66 0 0 0 1.44,1.41 c 0.63,0.27 0.82,0.07 1.46,0.41 a 2.23,2.23 0 0 1 1.07,1 c 0.21,0.49 0,0.71 0.14,1.19 0.14,0.48 0.57,0.74 1.59,1.5 a 24.63,24.63 0 0 1 2.29,2 c 0.92,0.86 1.09,1.12 1.22,1.4 0.35,0.77 0.14,1.17 0.51,1.51 a 1.67,1.67 0 0 0 2.25,-0.39 z"
         id="path138" />
      <path
         class="tQvGnYWGsZ"
         d="m 301.64,609.68 a 8.4,8.4 0 0 1 1.56,-1.21 10.5,10.5 0 0 1 6.53,-1.1 27.23,27.23 0 0 0 2.95,0.47 c 1.42,0 1.71,-0.29 4.07,-0.67 a 11.14,11.14 0 0 1 4.33,-0.19 18.29,18.29 0 0 1 2.37,0.88 25.32,25.32 0 0 0 4.1,1 34.09,34.09 0 0 0 6,0.69 c 2.81,0.06 3.89,-0.31 5.05,0.58 a 3.38,3.38 0 0 1 1.27,2.09 3.29,3.29 0 0 1 -1.17,2.91 4,4 0 0 1 -3.06,0.68 c -1.23,-0.15 -1.57,-0.66 -3.66,-1.23 -0.85,-0.23 -1.37,-0.34 -1.37,-0.34 a 9.38,9.38 0 0 1 -1.39,-0.29 c -0.69,-0.33 -0.68,-0.78 -1.46,-1.49 a 3.77,3.77 0 0 0 -1.48,-0.93 c -0.28,-0.08 -0.89,-0.2 -3.08,0.6 -1.84,0.67 -1.81,0.91 -2.31,0.84 -1.38,-0.18 -1.57,-2 -2.88,-2.16 -0.65,-0.07 -0.91,0.34 -2,0.95 a 9,9 0 0 1 -4.51,1.31 c -0.93,-0.05 -2.08,-0.68 -4.4,-2 -1.26,-0.69 -2.05,-1.22 -3.21,-1.15 a 4,4 0 0 0 -1.79,0.58 z"
         id="path140" />
    </g>
    <g
       id="kap4">
      <path
         class="tQvGnYWGsZ"
         d="m 426.74,645.28 c 0,0 0.71,-0.28 0.68,-0.58 0,-0.46 -1.8,-0.15 -2.76,-1.17 a 3,3 0 0 1 -0.24,-3.5 c 0.37,-0.46 0.76,-0.43 1.56,-1.27 a 3.17,3.17 0 0 0 0.76,-1 c 0.36,-0.87 -0.11,-1.37 0,-2.45 a 3.44,3.44 0 0 1 0.85,-2 4.06,4.06 0 0 1 3.4,-1 c 1,0.15 0.91,0.48 1.75,0.52 0.23,0 0.82,0 3,-0.94 1.31,-0.58 1.48,-0.75 1.94,-0.71 a 2.88,2.88 0 0 1 1.93,1.47 4.28,4.28 0 0 1 0.48,2.88 c -0.42,2.18 -2.58,2.82 -8.89,6.85 -1.5,1.01 -5.38,1.4 -4.46,2.9 z"
         id="path142" />
      <path
         class="tQvGnYWGsZ"
         d="m 441.06,635.06 a 2.28,2.28 0 0 1 -0.42,-2.09 c 0.32,-0.88 1.3,-1.2 2.32,-1.53 1.02,-0.33 2.54,-0.83 3.63,-0.09 0.9,0.61 0.49,1.37 1.44,2.13 0.29,0.24 0.58,0.37 3.53,0.84 1.64,0.26 2,0.29 2.41,0.65 a 3,3 0 0 1 1,2.09 c 0.07,1.07 -0.51,1.45 -0.23,2.14 0.28,0.69 0.86,0.53 1.39,1.11 0.87,0.94 0.81,2.85 0,4.18 -0.74,1.15 -2.3,2.23 -3.44,1.81 -1.4,-0.51 -0.7,-2.73 -2.46,-5.71 -0.57,-1 -2,-3.45 -4.69,-4.32 -2.03,-0.66 -3.54,-0.01 -4.48,-1.21 z"
         id="path144" />
      <circle
         class="fgZhmFSZcl"
         cx="440.48001"
         cy="648.91998"
         r="14.9"
         id="circle146" />
      <path
         class="tQvGnYWGsZ"
         d="m 443.1,652 c 0,-0.19 -0.2,-0.39 -1.11,-0.75 a 14.81,14.81 0 0 0 -2.46,-0.69 8.65,8.65 0 0 1 -2.7,-0.89 7.41,7.41 0 0 1 -1.72,-1.67 c -1.47,-1.71 -1.39,-2 -2,-2.55 -1.51,-1.42 -3.74,-1.32 -5.11,-1.26 -1.37,0.06 -3.82,0.17 -4.79,1.81 a 2.52,2.52 0 0 0 -0.14,2.51 2.43,2.43 0 0 0 1.72,0.84 c 0.55,0.07 0.63,-0.06 2.65,-0.42 a 3.62,3.62 0 0 1 1.81,-0.05 2.55,2.55 0 0 1 1,0.56 c 0.55,0.53 0.37,0.9 0.83,1.26 a 2.09,2.09 0 0 0 1.54,0.27 c 0.52,-0.09 0.55,-0.3 1.11,-0.37 a 1.77,1.77 0 0 1 1.12,0.19 c 0.34,0.22 0.31,0.45 0.6,0.69 0.29,0.24 0.69,0.24 1.67,0.28 a 20.44,20.44 0 0 1 2.32,0.28 3.72,3.72 0 0 1 1.4,0.37 c 0.55,0.34 0.59,0.69 1,0.75 0.56,0.1 1.36,-0.63 1.26,-1.16 z"
         id="path148" />
      <path
         class="tQvGnYWGsZ"
         d="m 432.41,661.45 a 6.72,6.72 0 0 1 0.47,-1.45 8.21,8.21 0 0 1 3.72,-3.53 19,19 0 0 0 2.09,-1 18.28,18.28 0 0 0 2.32,-2.18 8.43,8.43 0 0 1 2.7,-2 13.26,13.26 0 0 1 1.9,-0.47 19.2,19.2 0 0 0 3.07,-1.11 25.89,25.89 0 0 0 4.13,-2.14 c 1.83,-1.17 2.36,-1.88 3.48,-1.81 a 2.62,2.62 0 0 1 1.72,0.79 2.52,2.52 0 0 1 0.51,2.37 3,3 0 0 1 -1.67,1.77 c -0.85,0.43 -1.29,0.24 -2.88,0.78 -0.64,0.22 -1,0.38 -1,0.38 a 5.67,5.67 0 0 1 -1,0.41 c -0.58,0.1 -0.77,-0.2 -1.58,-0.32 a 2.86,2.86 0 0 0 -1.35,0 c -0.21,0.07 -0.66,0.25 -1.72,1.71 -0.88,1.23 -0.77,1.37 -1.11,1.54 -1,0.47 -1.88,-0.62 -2.79,-0.14 -0.44,0.23 -0.43,0.61 -0.88,1.48 a 7.07,7.07 0 0 1 -2.32,2.79 c -0.62,0.37 -1.64,0.46 -3.67,0.65 a 4.52,4.52 0 0 0 -2.56,0.65 3,3 0 0 0 -0.9,1.15 z"
         id="path150" />
    </g>
    <g
       id="pig4">
      <path
         class="sjZzndrvBF"
         d="m 1025.59,672.65 a 40.89,40.89 0 0 0 -8,0.91 L 1009.07,662 c 12.81,-2.93 14.31,-20 1.57,-23.17 a 11.45,11.45 0 0 0 -5.36,0.29 65,65 0 0 0 -21.67,-23.76 c 1.87,-1.83 3.67,-3.73 5.46,-5.61 10.49,5 36.66,11.84 57.06,-2.45 l -5.68,12.62 c 40.06,12.89 49.41,53.35 16,76.64 A 40,40 0 0 1 1049,700 c 2.46,-14.36 -1.61,-28.24 -23.41,-27.35 z"
         id="path152" />
      <path
         class="sjZzndrvBF"
         d="m 1051.24,638.87 -58.66,29.56 c 14.39,24.33 37.5,36.7 53.14,20.08 9.84,-10 10.9,-24.79 8.8,-33.27 -4.67,-19.3 -28.87,-34.28 -57.57,-29.67 11.31,22.39 -4.13,42.07 -23.69,41.25 l 9.34,8.88 c 9.77,-0.35 27.8,-5.43 36.4,-21.27 14.12,3 26.23,9.28 27,16.65 0.91,9 -15,21.31 -41.3,25.64 l 11.16,10.63 a 102,102 0 0 0 40.52,-10.85 z"
         id="path154" />
      <path
         class="ABTzGhADsu"
         d="m 1015.12,633 a 6.69,6.69 0 0 1 -1.56,-2.47 8.65,8.65 0 0 1 -0.4,-2.25 5.29,5.29 0 0 1 0.59,-2.68 6.58,6.58 0 0 1 2.78,-2.82 6.52,6.52 0 0 1 3.9,-0.69 c 4.48,0.65 7.42,6.86 5.38,10.21 -1.81,3.03 -7.65,3.7 -10.69,0.7 z"
         id="path156" />
      <path
         class="BeBRxhhvfs"
         d="m 1015.5,633.09 -0.66,-0.63 a 7.8,7.8 0 0 1 -1.34,-2.3 4.82,4.82 0 0 1 -0.35,-2.06 4.71,4.71 0 0 1 0,-0.75 l 0.06,-0.38 c 0.2,-3 3.08,-4.65 5.8,-5.11 a 7.55,7.55 0 0 1 1.42,6.56 7.47,7.47 0 0 1 -4.38,5.09 4.75,4.75 0 0 1 -0.55,-0.42 z"
         id="path158" />
      <path
         class="sjZzndrvBF"
         d="m 1072.41,672.37 c -0.81,-1.18 -2.74,-0.09 -1.93,1.12 a 12,12 0 0 0 4.17,4.38 5.48,5.48 0 0 0 2.38,0.6 5.36,5.36 0 0 0 2.39,-0.51 4.69,4.69 0 0 0 1.66,-1.68 4.64,4.64 0 0 0 0.63,-2.27 c 0.06,-0.68 0.12,-1.65 0.16,-2 0.04,-0.35 0.12,-1.41 0.52,-1.59 l -0.54,0.15 c 0.26,0 -0.14,-0.13 0,0 l 0.39,0.22 1,0.54 1.8,0.94 3.75,2 c 1.16,0.68 2.36,-1.26 1.1,-1.93 l -6.28,-3.43 c -0.79,-0.42 -1.65,-0.93 -2.55,-0.42 a 3.44,3.44 0 0 0 -1.26,2.08 c -0.37,1.38 -0.11,2.9 -0.57,4.26 a 2.57,2.57 0 0 1 -0.5,0.76 2.31,2.31 0 0 1 -0.76,0.51 2.43,2.43 0 0 1 -0.89,0.17 2.23,2.23 0 0 1 -0.88,-0.18 7.93,7.93 0 0 1 -3.89,-3.69 z"
         id="path160" />
    </g>
  </g>
  <g
     id="Layer_3"
     data-name="Layer 3">
    <path
       class="aBnmMpTBIH"
       d="m 483.14,310.5 c 0.33,1.65 0.87,4.35 -0.74,7 a 8.32,8.32 0 0 1 -4.88,3.56 5.57,5.57 0 0 1 -3.7,0 5,5 0 0 1 -2.08,-1.63 c -1.28,1.29 -2.51,2.89 -2.07,4.14 0.26,0.75 0.9,0.76 1.78,1.78 1.18,1.38 2,3.68 1.18,4.74 -0.22,0.29 -0.72,0.69 -3.26,0.59 a 35.71,35.71 0 0 1 -6.21,-1 23.4,23.4 0 0 0 -6.67,-0.14 c -3.56,0.36 -5.34,0.54 -6.66,1.18 a 3.76,3.76 0 0 1 -2.52,0.45 3.22,3.22 0 0 1 -1.48,-0.89 7.18,7.18 0 0 1 3.11,-7.7 7.66,7.66 0 0 1 3.26,-1.19 c -2.18,-1.49 -9.54,-6.91 -10.07,-15.25 a 15.31,15.31 0 0 1 0.15,-3.25 c -4.36,2.53 -8.78,3 -11.11,1 a 4.79,4.79 0 0 1 -1.77,-3.25 4.52,4.52 0 0 1 1.92,-3.85 c 1.07,-0.76 1.54,-0.31 3.56,-1 a 16.82,16.82 0 0 0 4.35,-2.21 7.89,7.89 0 0 0 2.73,-2.94 22.62,22.62 0 0 0 2.75,-8.23 c -5.13,3.19 -15.71,4.44 -18.19,1.29 -0.41,-0.52 -1.08,-1.67 -0.5,-5.73 0.58,-4.06 2,-13.57 10.46,-19.16 a 23.34,23.34 0 0 1 12.44,-3.81 22,22 0 0 1 5.13,-6.06 c 2.05,-1.65 3.4,-2.07 6.53,-4.66 A 17.58,17.58 0 0 0 464,241 c 1.43,-2.13 1.18,-3.44 2.95,-6.37 1,-1.69 1.7,-2.8 2.64,-2.8 1.41,0 2.45,2.47 3.11,4 0.86,2 2,4.8 1.24,7.92 -0.41,1.67 -0.92,1.63 -4,6.38 -2.62,4 -2.32,4.11 -3.73,5.75 a 13.85,13.85 0 0 1 -6.52,4.81 11.33,11.33 0 0 1 -4,0.47 6.09,6.09 0 0 0 1.48,2.52 c 0.78,0.77 2.7,2.21 11.11,1.48 4.91,-0.43 5.23,-1 8,-0.74 1.55,0.14 6.89,0.65 7.7,3.4 0.55,1.85 -1.17,3.85 -2.07,4.89 -2.2,2.56 -5,3.43 -8.74,4.59 a 24.36,24.36 0 0 1 -6.66,1.33 14.69,14.69 0 0 1 -7.1,-1 13,13 0 0 1 -3.71,-2.52 c 0,1 3,8.17 5.13,12.48 a 13.35,13.35 0 0 0 1.94,2.88 c 2.56,2.88 8.8,10.08 9.1,10.41 v 0 a 6.13,6.13 0 0 1 1.15,1.6 7.84,7.84 0 0 1 0.74,3 c 0.47,-0.42 2.76,-2.37 5.18,-1.78 3,0.75 3.85,5.05 4.2,6.8 z"
       id="path163" />
    <path
       class="ABTzGhADsu"
       d="m 443.66,274.49 c -0.17,-1.94 -3.15,-3.55 -5.14,-2.5 a 3.19,3.19 0 0 0 -1.61,3.34 2.65,2.65 0 0 0 0.55,1.26 4,4 0 0 0 0.83,0.77 3.4,3.4 0 0 0 1.34,0.53 c 2.07,0.33 4.18,-1.66 4.03,-3.4 z"
       id="path165" />
    <path
       d="m 440.13,277.83 a 3.18,3.18 0 0 0 0.24,-3.33 3.15,3.15 0 0 0 -2.49,-2.17 c -0.94,1 -1.62,2.48 -0.8,3.74 0,0 0.08,0.13 0.09,0.16 a 2.11,2.11 0 0 0 0.21,0.31 2.18,2.18 0 0 0 0.74,0.71 3.82,3.82 0 0 0 1.21,0.52 c 0.13,0 0.32,0 0.44,0.06 a 1.09,1.09 0 0 0 0.36,0 z"
       id="path167" />
    <path
       class="otwzXjgrUF"
       d="m 425.84,281.64 c -0.3,0.41 0.28,1.36 0.47,1.65 a 2.17,2.17 0 0 0 1.14,1.11 c 1,0.29 2.42,-0.77 2.35,-1.51 -0.09,-1.09 -3.43,-1.98 -3.96,-1.25 z"
       id="path169" />
    <path
       class="ABTzGhADsu"
       d="m 435.21,270.65 c -0.15,-1.75 -2.84,-3.2 -4.64,-2.26 a 2.92,2.92 0 0 0 -1.45,3 2.51,2.51 0 0 0 0.5,1.13 3.28,3.28 0 0 0 0.75,0.69 2.91,2.91 0 0 0 1.21,0.48 3.28,3.28 0 0 0 3.63,-3.04 z"
       id="path171" />
    <path
       d="m 432,273.66 a 3.34,3.34 0 0 0 -2,-5 c -0.85,0.9 -1.46,2.24 -0.72,3.37 l 0.08,0.14 a 1.81,1.81 0 0 0 0.19,0.29 2.05,2.05 0 0 0 0.67,0.64 3.29,3.29 0 0 0 1.09,0.46 c 0.11,0 0.29,0 0.39,0.06 z"
       id="path173" />
    <path
       class="bPGsrAimnz"
       d="m 101.61,113.53 c -2.35,-0.87 -4.47,-0.19 -8,1 -4.86,1.63 -8.48,2.88 -10.51,3.58 a 50.83,50.83 0 0 0 7.71,2.43 c 3.28,0.75 2.36,0.2 7.26,1.14 a 6.14,6.14 0 0 0 2.85,0.21 c 2.19,-0.53 4.49,-2.93 4,-5.18 -0.35,-2.09 -2.86,-3.02 -3.31,-3.18 z"
       id="path175" />
    <path
       class="bPGsrAimnz"
       d="m 110.07,225.33 c -0.75,0.65 -0.38,1.19 -1,2.28 -1.23,2 -3.49,1.74 -6.81,3.67 a 15.86,15.86 0 0 0 -3.13,2.37 21.57,21.57 0 0 0 3.25,0.17 20.74,20.74 0 0 0 5.68,-0.94 3.25,3.25 0 0 0 0.77,2 3,3 0 0 0 0.71,0.59 2.88,2.88 0 0 0 1.48,-1.24 2.76,2.76 0 0 0 0.35,-1.18 1.59,1.59 0 0 0 0.48,0.88 1.77,1.77 0 0 0 1.24,0.36 c 1,0 3.1,0 5.8,-0.06 a 5.49,5.49 0 0 0 -1.9,-1.72 c -1.7,-0.91 -3.15,-0.41 -3.67,-1.3 -0.31,-0.54 -0.05,-1.22 0.24,-2 0.76,-2 2.1,-2.4 2,-3.14 -0.3,-1.2 -3.87,-2.15 -5.49,-0.74 z"
       id="path177" />
    <path
       class="bPGsrAimnz"
       d="m 127,223.47 c -0.23,0.95 0.57,1.46 0.53,3.25 a 4.57,4.57 0 0 1 -0.53,2.37 c -1.21,2 -4,1.47 -5,3.43 a 3,3 0 0 0 -0.3,1.36 c 0.92,0 1.68,0 2.25,0 2.45,-0.11 3.67,-0.17 4.62,-0.65 0.37,-0.19 0.85,-0.49 1.18,-0.29 0.33,0.2 0.28,0.63 0.36,1.12 a 5.16,5.16 0 0 0 0.94,2.25 3.15,3.15 0 0 0 1.19,-0.83 3.73,3.73 0 0 0 0.65,-3.19 2.48,2.48 0 0 0 0.94,1.06 2.7,2.7 0 0 0 1.6,0.3 30.43,30.43 0 0 1 6.21,0.53 6,6 0 0 0 -2.48,-3 12.3,12.3 0 0 0 -3.85,-1.06 c -1.81,-0.33 -2,-0.2 -2.36,-0.54 -0.36,-0.34 -0.58,-1.17 -0.24,-5 0.22,-2.47 0.32,-2.85 0,-3.19 -1.05,-1.15 -5.23,0.14 -5.71,2.08 z"
       id="path179" />
    <path
       class="XQMkvtNFrQ"
       d="m 108.6,129.17 c 0.55,2.53 -1.31,4.44 -4.21,8.62 -2.77,4 -0.63,1.61 -6.21,10.22 -2.86,4.41 -3.67,5.41 -6.21,9.22 -5.54,8.28 -8.31,12.42 -10.22,17.44 -1.85,4.83 -3.93,12.57 -1.81,13.82 0.84,0.5 2.12,-0.15 3,-0.6 2.78,-1.41 3.39,-3.87 5.21,-6.21 A 15.13,15.13 0 0 1 95,176.87 c -0.06,1.27 -0.15,3.14 -0.2,5.41 -0.17,7.81 -0.31,14.56 1,21.44 1.49,7.79 2.55,13.31 7.42,17.64 5.49,4.87 12.62,5.38 15.23,5.41 a 24.92,24.92 0 0 0 8.42,-1.4 22.14,22.14 0 0 0 7.41,-4.21 c 1.85,-1.65 4.07,-4.33 6.21,-11 1.21,-3.78 2.45,-9 3,-22.65 0.15,-3.71 0.28,-8.77 0.2,-14.83 a 42.89,42.89 0 0 1 3.81,4.81 l 6.81,10 c 0.63,0.93 1.41,2 2.41,2 1.22,-0.05 2.05,-1.83 2.4,-2.6 a 14.87,14.87 0 0 0 0.6,-9.22 c -2.61,-11.22 -6.21,-17.63 -6.21,-17.63 a 85.25,85.25 0 0 0 -15.23,-19.64 29.65,29.65 0 0 0 0.2,-7.62 31.32,31.32 0 0 0 -5.83,-14.78 23.08,23.08 0 0 0 -7.62,-7.21 17.72,17.72 0 0 0 -7.61,-2.41 c -2.7,-0.19 -4.65,0.36 -7.62,1.21 a 48.31,48.31 0 0 0 -9.94,4.09 c -1,0.91 -1.11,1.46 -1,1.8 0.23,0.81 1.64,0.6 2.6,1.81 a 2.85,2.85 0 0 1 0.56,2.47 2.81,2.81 0 0 1 -1.8,1.69 1.72,1.72 0 0 0 0.28,1 c 0.53,0.79 1.56,0.73 2.67,1 a 7.52,7.52 0 0 1 3.31,2.15 8.55,8.55 0 0 1 2.12,3.57 z"
       id="path181" />
    <path
       class="cOYvMwtoiN"
       d="m 99.94,145.25 c 0.65,-0.73 1.63,-1.81 2.92,-3 3.62,-3.46 6.78,-6.48 11.16,-7.56 a 15.31,15.31 0 0 1 10,0.93 c 5.58,2.76 8.83,9.71 8.23,17.43 0.18,1 0.44,2.4 0.76,4.16 0.89,5 0.92,5.42 1.13,6.31 0.57,2.43 1.37,3.67 4,8.32 1.21,2.1 3.1,5.42 5.48,9.72 l -0.05,-10.09 a 20.67,20.67 0 0 1 -2.28,-1.77 19.68,19.68 0 0 1 -4,-5 c -1.28,-2.34 -1.57,-4.25 -2.15,-8.07 a 23.24,23.24 0 0 1 0.25,-8.83 c 0.28,-1.17 0.61,-2.1 1.27,-2.27 1.07,-0.28 2.4,1.6 3.15,2.64 7,9.85 5.7,6.7 9.59,13.13 a 59.86,59.86 0 0 1 4.29,7.82 49.28,49.28 0 0 1 2.65,8.33 52.52,52.52 0 0 1 1.29,11.73 11.67,11.67 0 0 0 1.89,-3.28 13.39,13.39 0 0 0 0.43,-6.88 44.08,44.08 0 0 0 -2.7,-9.89 68.06,68.06 0 0 0 -4.46,-10.24 66.61,66.61 0 0 0 -6.38,-9.38 c -1,-1.24 -2.64,-3.3 -4.87,-5.69 -1.25,-1.34 -2.37,-2.47 -3.28,-3.34 a 29.25,29.25 0 0 0 0.35,-4.92 30.13,30.13 0 0 0 -1.81,-9.73 32.56,32.56 0 0 0 -3.5,-6.87 25,25 0 0 0 -5,-5.84 19,19 0 0 0 -8.91,-4.44 c -3.48,-0.63 -6.14,0.05 -9.62,0.94 a 29.48,29.48 0 0 0 -9.94,4.09 2.1,2.1 0 0 0 -1,1.21 1.14,1.14 0 0 0 0,0.77 c 0.2,0.4 0.63,0.41 1.26,0.71 a 4.06,4.06 0 0 1 1.26,0.92 2.66,2.66 0 0 1 0.56,2.47 2.71,2.71 0 0 1 -1.8,1.69 1.39,1.39 0 0 0 0.13,0.67 c 0.34,0.72 1.18,0.82 2.34,1.22 a 10.19,10.19 0 0 1 3.15,1.64 8,8 0 0 1 1.46,1.58 6.24,6.24 0 0 1 1.41,3.34 c 0,0.3 0,1.25 -1.23,3.55 -1.08,2 -1.56,2.13 -3.07,4.39 -0.73,1.1 -0.63,1.09 -2.59,4.38 -0.71,1.24 -1.35,2.31 -1.77,3 z"
       id="path183" />
    <path
       class="ABTzGhADsu"
       d="m 118.54,117.06 c 0.46,-2.48 -2.71,-5.53 -5.56,-4.92 a 4.18,4.18 0 0 0 -3.17,3.62 3.69,3.69 0 0 0 0.24,1.77 5,5 0 0 0 0.78,1.24 4.49,4.49 0 0 0 1.49,1.14 c 2.47,1.09 5.8,-0.63 6.22,-2.85 z"
       id="path185" />
    <path
       d="m 113,120 c 1,-0.6 1.69,-2.24 1.46,-4.08 -0.23,-1.84 -1.21,-3.23 -2.36,-3.58 -1.53,0.92 -2.89,2.54 -2.3,4.4 0,0 0,0.2 0,0.23 a 3.57,3.57 0 0 0 0.16,0.46 3,3 0 0 0 0.68,1.15 5.09,5.09 0 0 0 1.33,1.07 c 0.15,0.08 0.39,0.15 0.52,0.23 A 2,2 0 0 0 113,120 Z"
       id="path187" />
    <g
       id="animal0"
       onmouseover="hover('hover0', 1)"
       onmouseout="hover('hover0', 0)"
       onclick="kapusta()"
       class="button">
      <path
         class="cOYvMwtoiN"
         d="m 167.11,448.65 c 0.72,2.67 1.9,6.71 3.64,11.53 3.57,9.87 5.43,14.83 9.41,16.4 a 11.2,11.2 0 0 0 11.23,-2.43 c 2.44,-2.35 2.88,-5.39 3.34,-10 1.06,-10.56 1.58,-15.84 1.22,-21.55 -0.48,-7.41 -1,-15 -3.95,-24.29 a 80.43,80.43 0 0 0 -16.39,-28.53 5.2,5.2 0 0 0 -3.34,-2.12 c -2.47,-0.31 -4.36,1.83 -5.16,2.73 -2.21,2.49 -2.27,4.83 -3.34,8.5 -0.64,2.16 -1.84,4.58 -4.25,9.41 -1.3,2.61 -3.44,6.55 -10,15.78 -6.06,8.51 -9.08,12.76 -11.23,14.88 A 56.71,56.71 0 0 1 117.63,452 56.53,56.53 0 0 1 99.11,455 c -19.38,0.42 -33.9,-7.25 -40.67,-10.92 -11.51,-6.25 -17.9,-9.73 -21.86,-17.31 -8.89,-17 3.51,-37.7 5.16,-40.37 a 23.54,23.54 0 0 0 -10,4.56 c -2.12,1.67 -9.14,7.83 -8.8,17.6 0.34,10 8.17,15.74 9.1,16.39 -0.16,1.86 -0.33,4.47 -0.3,7.59 0,5 0.1,13.09 3.34,22.16 a 54.79,54.79 0 0 0 11.52,18.84 q 0.51,9.76 0.91,19.73 0.59,14.61 0.91,28.84 a 7.64,7.64 0 0 0 -3.94,3 8.26,8.26 0 0 0 -0.61,7 9.59,9.59 0 0 0 3.64,4.89 c 0,1.84 0.05,4.7 0,8.2 -0.13,10.6 -0.66,11.17 -0.91,22.16 -0.19,8.22 0.09,8.76 -0.61,11.23 -0.77,2.76 -1.82,4.56 -0.91,6.37 1.34,2.66 5.58,2.73 5.77,2.73 3.24,0 6.84,-2 7,-4.25 0.12,-1.91 -2.36,-3.45 -3,-3.94 -3.55,-2.6 -5.88,-11.78 0,-41.28 a 7.42,7.42 0 0 0 3.94,-3.34 7.7,7.7 0 0 0 -0.91,-8.2 64.49,64.49 0 0 0 4.81,-9.68 65.34,65.34 0 0 0 4.55,-21.86 53.63,53.63 0 0 0 6.07,4.25 c 19.3,11.6 41.26,8.14 52.21,5.47 q 1.24,7.13 2.43,14.26 1.08,6.52 2.13,13 a 9.07,9.07 0 0 0 -2.43,3.65 c -1.37,3.86 0.12,8.53 3.64,12.14 a 85.34,85.34 0 0 1 0.3,12.44 c -0.15,3.06 -0.42,5.12 -0.6,10 -0.28,7.4 0.1,8.92 0.91,10.32 1.24,2.15 4,4.93 7.28,4.55 2.21,-0.25 4.58,-1.93 4.86,-3.94 0.3,-2.21 -2,-4.17 -2.73,-4.86 -2.94,-2.81 -5.34,-9.39 -2.73,-26.1 a 6.84,6.84 0 0 0 3.33,-3.65 7.15,7.15 0 0 0 -2.12,-7.58 q 0,-5 0,-10 0.08,-15.3 0.61,-30.05 a 72,72 0 0 0 13,-13.66 74.46,74.46 0 0 0 13.71,-36.73 z"
         id="path189" />
      <path
         class="aBnmMpTBIH"
         d="m 142,579.71 c 1.62,-0.7 2.84,-0.33 7.63,0.35 2.92,0.42 5.28,0.68 6.7,0.82 a 11.33,11.33 0 0 1 -1.65,1.18 12.17,12.17 0 0 1 -5.28,1.64 l 5,2.35 a 15.64,15.64 0 0 1 -3.76,1.77 c -4.94,1.54 -11.73,0.85 -12.69,-2 -0.64,-1.99 1.52,-5.04 4.05,-6.11 z"
         id="path191" />
      <path
         class="aBnmMpTBIH"
         d="m 50.59,587.66 c 0,-1.14 1.58,-2 3.55,-3.15 1.4,-0.79 4,-2.23 6.75,-1.55 1.45,0.35 1.64,0.95 3.38,1.73 a 12.49,12.49 0 0 0 6,1 7.75,7.75 0 0 1 -2.27,1.31 8.83,8.83 0 0 1 -6.48,-0.45 8.5,8.5 0 0 0 6.57,3 15.17,15.17 0 0 1 -5.47,2 C 57,592.4 50.66,589.9 50.59,587.66 Z"
         id="path193" />
      <path
         class="aBnmMpTBIH"
         d="m 174.62,387.66 c 0.54,-1.29 -1.09,-3.16 -3,-5.06 -3.84,-3.88 -6.29,-6.36 -11.85,-9.58 -5.56,-3.22 -8.3,-4.8 -12.2,-4.71 -1.56,0 -6.66,0.17 -8.37,3.66 -1.22,2.51 0,5.32 0.35,6.1 a 5.68,5.68 0 0 1 1.75,-3.48 c 2.65,-2.29 7.22,-0.58 9.23,0.17 6,2.23 9.29,6.83 11,9.24 a 31.77,31.77 0 0 1 4.88,10.8 9.21,9.21 0 0 1 3.31,-4.7 c 2.28,-1.56 4.38,-1.19 4.9,-2.44 z"
         id="path195" />
      <path
         class="aBnmMpTBIH"
         d="m 173.79,407.25 c 2.71,1.45 2,7.4 1.44,12.49 -0.65,5.66 -1.23,10.79 -5,16.08 a 26.12,26.12 0 0 1 -7.92,7.2 43.49,43.49 0 0 1 -1.92,-12.24 c 0,-3.56 -0.18,-17.28 7.92,-22.33 0.76,-0.45 3.55,-2.23 5.48,-1.2 z"
         id="path197" />
    </g>
    <path
       class="aBnmMpTBIH"
       d="m 191.77,473.76 a 11.45,11.45 0 0 1 -2,-2.6 12.53,12.53 0 0 1 -1.24,-8.09 6.34,6.34 0 0 1 4.11,1.24 6.14,6.14 0 0 1 1.8,2.27 12.57,12.57 0 0 1 -0.61,3.23 13,13 0 0 1 -2.06,3.95 z"
       id="path199" />
    <path
       class="ABTzGhADsu"
       d="m 176.16,431.08 c 0.37,-4.27 6.92,-7.79 11.29,-5.5 a 7.06,7.06 0 0 1 3.53,7.34 6.17,6.17 0 0 1 -1.21,2.77 9.09,9.09 0 0 1 -1.82,1.68 7.49,7.49 0 0 1 -2.95,1.17 c -4.54,0.72 -9.17,-3.66 -8.84,-7.46 z"
       id="path201" />
    <path
       class="REjTpgcrPm"
       d="m 183.89,438.39 c -1.4,-1.45 -1.73,-4.42 -0.52,-7.31 1.21,-2.89 3.44,-4.71 5.48,-4.76 2.06,2.19 3.54,5.45 1.75,8.21 0,0 -0.17,0.31 -0.2,0.35 a 5.17,5.17 0 0 1 -0.46,0.69 5,5 0 0 1 -1.63,1.57 8.29,8.29 0 0 1 -2.65,1.13 c -0.29,0.06 -0.7,0.07 -1,0.13 a 2.45,2.45 0 0 1 -0.77,-0.01 z"
       id="path203" />
    <path
       class="bPGsrAimnz"
       d="m 230.64,44.75 c 2.36,-0.87 4.48,-0.19 8,1 4.86,1.63 8.49,2.87 10.52,3.57 a 52.26,52.26 0 0 1 -7.72,2.44 c -3.28,0.75 -2.36,0.19 -7.25,1.14 a 6.12,6.12 0 0 1 -2.85,0.2 c -2.2,-0.52 -4.49,-2.92 -4,-5.18 0.35,-2.07 2.86,-3 3.3,-3.17 z"
       id="path205" />
    <path
       class="bPGsrAimnz"
       d="m 222.18,156.55 c 0.75,0.65 0.38,1.19 1,2.29 1.23,2 3.48,1.74 6.8,3.66 a 17,17 0 0 1 3.14,2.37 20.38,20.38 0 0 1 -3.26,0.18 20.7,20.7 0 0 1 -5.68,-1 3.16,3.16 0 0 1 -0.76,2 3,3 0 0 1 -0.71,0.6 2.91,2.91 0 0 1 -1.48,-1.25 2.77,2.77 0 0 1 -0.36,-1.18 1.56,1.56 0 0 1 -0.47,0.89 1.76,1.76 0 0 1 -1.24,0.35 c -1.06,0 -3.1,0 -5.8,-0.06 a 5.63,5.63 0 0 1 1.89,-1.71 c 1.7,-0.91 3.16,-0.41 3.67,-1.3 0.31,-0.55 0.06,-1.22 -0.24,-2 -0.75,-2 -2.1,-2.39 -1.95,-3.13 0.27,-1.16 3.83,-2.11 5.45,-0.71 z"
       id="path207" />
    <path
       class="bPGsrAimnz"
       d="m 205.23,154.69 c 0.23,0.95 -0.57,1.47 -0.53,3.26 a 4.78,4.78 0 0 0 0.53,2.37 c 1.21,2 4,1.46 5,3.43 a 3,3 0 0 1 0.3,1.36 c -0.91,0 -1.68,0 -2.25,0 -2.45,-0.12 -3.67,-0.17 -4.61,-0.65 -0.38,-0.19 -0.86,-0.49 -1.19,-0.3 -0.33,0.19 -0.28,0.63 -0.35,1.12 a 5.23,5.23 0 0 1 -0.95,2.25 3,3 0 0 1 -1.18,-0.83 3.73,3.73 0 0 1 -0.65,-3.19 2.46,2.46 0 0 1 -0.95,1.06 2.62,2.62 0 0 1 -1.6,0.3 32.12,32.12 0 0 0 -6.21,0.53 5.88,5.88 0 0 1 2.49,-3 12.19,12.19 0 0 1 3.84,-1.07 c 1.81,-0.33 2,-0.2 2.37,-0.53 0.37,-0.33 0.57,-1.18 0.24,-5 -0.23,-2.48 -0.33,-2.86 0,-3.2 1.07,-1.14 5.24,0.16 5.7,2.09 z"
       id="path209" />
    <path
       class="XQMkvtNFrQ"
       d="m 223.65,60.4 c -0.55,2.52 1.32,4.44 4.21,8.62 2.77,4 0.63,1.61 6.22,10.22 2.86,4.4 3.66,5.4 6.21,9.22 5.53,8.28 8.3,12.42 10.22,17.43 1.85,4.83 3.93,12.57 1.8,13.83 -0.84,0.49 -2.12,-0.15 -3,-0.6 -2.79,-1.42 -3.4,-3.87 -5.21,-6.22 a 15.33,15.33 0 0 0 -6.82,-4.81 c 0.07,1.28 0.15,3.15 0.2,5.42 0.17,7.81 0.32,14.56 -1,21.44 -1.49,7.78 -2.55,13.31 -7.41,17.63 -5.49,4.88 -12.62,5.39 -15.24,5.41 a 24.84,24.84 0 0 1 -8.41,-1.4 22,22 0 0 1 -7.42,-4.21 c -1.85,-1.65 -4.06,-4.32 -6.21,-11 -1.21,-3.77 -2.45,-9 -3,-22.64 -0.16,-3.72 -0.29,-8.78 -0.21,-14.83 a 41.7,41.7 0 0 0 -3.8,4.81 l -6.82,10 c -0.63,0.92 -1.41,2 -2.4,2 -1.22,0 -2.06,-1.84 -2.41,-2.61 a 14.84,14.84 0 0 1 -0.6,-9.21 c 2.62,-11.23 6.22,-17.64 6.22,-17.64 A 85.18,85.18 0 0 1 194,71.62 a 29.12,29.12 0 0 1 -0.2,-7.61 31.06,31.06 0 0 1 5.81,-14.83 23,23 0 0 1 7.61,-7.18 17.74,17.74 0 0 1 7.62,-2.4 c 2.69,-0.19 4.65,0.35 7.61,1.2 a 48.7,48.7 0 0 1 10,4.09 c 1,0.91 1.1,1.47 1,1.81 -0.22,0.81 -1.64,0.6 -2.59,1.8 a 2.51,2.51 0 0 0 1.24,4.17 1.8,1.8 0 0 1 -0.29,0.95 c -0.53,0.8 -1.56,0.74 -2.67,1.05 a 7.47,7.47 0 0 0 -3.31,2.15 8.58,8.58 0 0 0 -2.18,3.58 z"
       id="path211" />
    <path
       class="cOYvMwtoiN"
       d="m 232.31,76.48 c -0.64,-0.73 -1.63,-1.81 -2.91,-3 -3.62,-3.45 -6.79,-6.48 -11.17,-7.55 a 15.21,15.21 0 0 0 -10,0.92 c -5.58,2.77 -8.83,9.71 -8.23,17.43 -0.17,1 -0.44,2.41 -0.75,4.16 -0.9,5 -0.93,5.42 -1.14,6.31 -0.57,2.43 -1.36,3.68 -4,8.33 -1.2,2.1 -3.09,5.42 -5.47,9.71 V 102.7 A 20.12,20.12 0 0 0 195,95.85 c 1.27,-2.35 1.56,-4.26 2.14,-8.08 a 23.24,23.24 0 0 0 -0.25,-8.83 c -0.28,-1.17 -0.6,-2.1 -1.26,-2.27 -1.07,-0.28 -2.41,1.6 -3.16,2.65 -7,9.85 -5.69,6.7 -9.58,13.12 a 58.68,58.68 0 0 0 -4.29,7.82 49.28,49.28 0 0 0 -2.65,8.33 52.69,52.69 0 0 0 -1.29,11.74 11.59,11.59 0 0 1 -1.9,-3.29 13.39,13.39 0 0 1 -0.43,-6.88 44.78,44.78 0 0 1 2.7,-9.89 60.75,60.75 0 0 1 10.84,-19.61 c 1,-1.25 2.64,-3.3 4.87,-5.69 1.25,-1.35 2.38,-2.47 3.29,-3.35 a 28,28 0 0 1 -0.36,-4.91 30.28,30.28 0 0 1 1.79,-9.71 32.06,32.06 0 0 1 3.5,-6.86 24.87,24.87 0 0 1 5,-5.85 19,19 0 0 1 8.9,-4.44 c 3.48,-0.62 6.14,0.06 9.62,0.94 a 29.49,29.49 0 0 1 10,4.09 2.16,2.16 0 0 1 1,1.22 1.09,1.09 0 0 1 0,0.77 c -0.19,0.39 -0.63,0.4 -1.25,0.7 a 4.06,4.06 0 0 0 -1.26,0.92 2.71,2.71 0 0 0 -0.57,2.48 2.76,2.76 0 0 0 1.81,1.69 1.57,1.57 0 0 1 -0.14,0.67 c -0.34,0.71 -1.18,0.81 -2.34,1.21 a 10.48,10.48 0 0 0 -3.14,1.65 7.55,7.55 0 0 0 -1.59,1.54 6.28,6.28 0 0 0 -1.41,3.34 c 0,0.31 0,1.25 1.23,3.56 1.09,2 1.57,2.12 3.07,4.39 0.73,1.09 0.64,1.08 2.6,4.38 0.75,1.32 1.4,2.39 1.82,3.08 z"
       id="path213" />
    <path
       class="ABTzGhADsu"
       d="m 213.72,48.29 c -0.47,-2.49 2.7,-5.53 5.55,-4.92 a 4.14,4.14 0 0 1 3.18,3.63 3.65,3.65 0 0 1 -0.25,1.76 5.54,5.54 0 0 1 -0.77,1.25 4.28,4.28 0 0 1 -1.5,1.13 c -2.47,1.13 -5.8,-0.63 -6.21,-2.85 z"
       id="path215" />
    <path
       d="m 219.28,51.22 c -1,-0.6 -1.69,-2.24 -1.46,-4.07 0.23,-1.83 1.21,-3.23 2.37,-3.58 1.52,0.91 2.88,2.54 2.3,4.39 l -0.06,0.23 a 3.68,3.68 0 0 1 -0.15,0.47 3.05,3.05 0 0 1 -0.68,1.15 4.86,4.86 0 0 1 -1.33,1.06 c -0.16,0.08 -0.39,0.15 -0.53,0.23 a 1.21,1.21 0 0 1 -0.46,0.12 z"
       id="path217" />
    <path
       class="WOBFMluLsr"
       d="m 1063.48,128.1 a 88.4,88.4 0 0 0 12.92,0.51 c 8.25,0.06 12.37,0.08 15.46,1.19 6.75,2.43 10.77,7.84 16.32,15.3 a 45,45 0 0 1 5.27,8.5 c 2.25,4.86 1.59,6 3.74,10 a 38.42,38.42 0 0 0 7.14,9.18 c 4,4 5.41,4.12 7,7.14 a 11.64,11.64 0 0 1 1.36,8.15 11.46,11.46 0 0 1 -5.27,7 7.68,7.68 0 0 0 -1.87,-3.23 c -1.69,-1.67 -3.57,-1.72 -5.78,-2.38 a 17.45,17.45 0 0 1 -8.33,-5.43 c -2.4,-3.05 -2.57,-6.58 -2.72,-9.52 -0.33,-6.63 2.17,-9.11 0.51,-12.75 a 9.8,9.8 0 0 0 -5.1,-4.59 22.63,22.63 0 0 0 -0.68,5.1 15.81,15.81 0 0 0 0.85,6.29 c 0.86,2.27 2.24,2.3 3.3,5 a 13.41,13.41 0 0 1 0.77,3 26.64,26.64 0 0 1 0,6.78 c -0.27,3.67 -0.44,2.52 -0.88,7 -0.22,2.28 -0.23,3.12 -1,3.84 -0.77,0.72 -1.94,0.82 -4.32,1 -3,0.18 -4.07,-0.42 -4.4,-0.64 -0.54,-0.35 -1.18,-0.67 -1.29,-1.28 -0.2,-1.21 1.8,-2.51 3,-3 a 6.9,6.9 0 0 1 2.64,-0.56 19.93,19.93 0 0 0 0.64,-6.33 8.48,8.48 0 0 0 -0.72,-3.68 c -1.1,-2.1 -3,-2.28 -6.17,-4.08 a 35.75,35.75 0 0 1 -7,-5.53 48.67,48.67 0 0 1 -5.28,-5.6 c 0,0 1.71,1.93 9.57,10.87 a 6.1,6.1 0 0 1 0.19,1.58 6.43,6.43 0 0 1 -0.56,2.5 c -0.56,1.35 -1.21,3.34 -2.5,7.33 -1.1,3.38 -1,4.14 -2,4.92 -1,0.78 -2,0.8 -3.9,0.92 -2.51,0.16 -4.75,0.3 -5.75,-1.11 -0.86,-1.22 -0.36,-3 -0.09,-3.71 a 24.78,24.78 0 0 1 2.87,-0.56 c 0.72,-0.09 1.41,-0.15 2,-0.18 a 19.82,19.82 0 0 0 1.77,-3.62 c 0.69,-1.91 1.27,-3.55 0.83,-5.47 a 7,7 0 0 0 -0.93,-2.13 c -1.88,-3.08 -4.4,-3.54 -7.14,-5.94 a 16.1,16.1 0 0 1 -3.61,-4.64 l -4.64,0.47 c -2.28,0.24 -4.54,0.48 -6.77,0.74 0.31,3.88 0.51,7.16 0.65,9.65 0.34,6.28 -0.09,1.31 0.09,10.47 0.07,3.63 0.16,5.42 -1.11,6.5 -0.7,0.58 -1.92,0.7 -4.36,0.92 -2.91,0.27 -4.38,0.39 -5,-0.37 a 3.22,3.22 0 0 1 0.56,-4 3.46,3.46 0 0 1 3.43,-0.84 c -0.06,-1 -0.17,-2.43 -0.37,-4.17 -0.46,-3.93 -0.8,-6.83 -2,-10 a 24.55,24.55 0 0 0 -3.62,-6.3 24.54,24.54 0 0 1 1.11,4.91 c 0.12,1 0.4,3.72 -0.64,9.83 a 81.46,81.46 0 0 1 -2.23,9.46 l -10.29,-0.09 a 3.64,3.64 0 0 1 0,-2.14 c 0.57,-1.83 2.76,-3.13 5.47,-3.15 0,-0.71 0.09,-1.73 0.09,-3 0,-3.48 -0.45,-5.1 -1.3,-10.38 -1.1,-6.81 -1.19,-9.2 -3,-11 l -1.85,-1.85 -3.25,-3.25 c -2.86,-2.86 -4.67,-4.39 -5.56,-5.29 -2,-2 -4.08,-5.46 -4.64,-12.24 a 4.51,4.51 0 0 0 -1.11,-1.57 4.76,4.76 0 0 0 -1.86,-1 6.75,6.75 0 0 0 -2.68,-0.1 32.92,32.92 0 0 1 -3.44,0.37 7.34,7.34 0 0 1 -3.06,-0.92 9.12,9.12 0 0 1 -3.43,-3.16 c 1.44,-1.5 2.61,-2.74 3.43,-3.61 1.72,-1.83 3.81,-4.08 3.81,-4.08 a 8.57,8.57 0 0 1 0,-3.34 10.94,10.94 0 0 1 2.13,-4.27 22.71,22.71 0 0 1 4.73,-5.1 c 0.45,-0.35 0.83,-0.63 1.1,-0.81 a 9.59,9.59 0 0 1 -0.26,-1.63 11.31,11.31 0 0 1 1.37,-6.12 9.58,9.58 0 0 1 6.22,6.21 12,12 0 0 1 4,0.08 13.19,13.19 0 0 1 5.14,2.32 c 2.46,1.68 3.6,3.07 6.09,5.65 3.89,4 5.83,6.06 7.79,7.12 2.33,1.15 4.38,1.43 8.4,1.94 z"
       id="path219" />
    <path
       class="ABTzGhADsu"
       d="m 1029.14,123.73 c -0.2,-2.43 -3.92,-4.43 -6.41,-3.13 a 4.08,4.08 0 0 0 -1.67,1.77 4,4 0 0 0 -0.33,2.41 3.51,3.51 0 0 0 0.68,1.57 5.23,5.23 0 0 0 1,1 4.2,4.2 0 0 0 1.67,0.67 c 2.63,0.36 5.25,-2.13 5.06,-4.29 z"
       id="path221" />
    <path
       d="m 1024.75,127.88 a 4,4 0 0 0 0.3,-4.15 3.93,3.93 0 0 0 -3.11,-2.7 c -1.18,1.24 -2,3.09 -1,4.66 0,0 0.1,0.17 0.11,0.2 a 2.7,2.7 0 0 0 0.27,0.39 2.8,2.8 0 0 0 0.92,0.89 4.59,4.59 0 0 0 1.51,0.64 c 0.16,0 0.4,0 0.54,0.08 a 1.41,1.41 0 0 0 0.46,-0.01 z"
       id="path223" />
    <path
       class="WOBFMluLsr"
       d="m 982.14,397.54 a 88.45,88.45 0 0 0 12.92,0.51 c 8.25,0.05 12.38,0.08 15.47,1.19 6.74,2.42 10.77,7.84 16.32,15.3 a 45,45 0 0 1 5.27,8.5 c 2.25,4.86 1.59,6 3.74,10 a 38.16,38.16 0 0 0 7.14,9.18 c 4,4 5.4,4.11 7,7.13 a 11.73,11.73 0 0 1 1.35,8.16 11.46,11.46 0 0 1 -5.26,7 7.62,7.62 0 0 0 -1.87,-3.23 c -1.7,-1.67 -3.58,-1.72 -5.78,-2.38 a 17.34,17.34 0 0 1 -8.33,-5.44 c -2.4,-3 -2.58,-6.57 -2.72,-9.51 -0.33,-6.63 2.17,-9.11 0.51,-12.75 a 9.84,9.84 0 0 0 -5.1,-4.59 22.63,22.63 0 0 0 -0.68,5.1 15.81,15.81 0 0 0 0.85,6.29 c 0.86,2.27 2.23,2.3 3.3,5 a 14,14 0 0 1 0.77,3 26.64,26.64 0 0 1 0,6.78 c -0.27,3.67 -0.45,2.52 -0.88,7 -0.23,2.28 -0.23,3.12 -1,3.84 -0.77,0.72 -2,0.82 -4.33,1 -3.05,0.18 -4.06,-0.42 -4.4,-0.64 -0.53,-0.35 -1.17,-0.67 -1.28,-1.28 -0.21,-1.21 1.8,-2.51 3,-3 a 7,7 0 0 1 2.64,-0.56 19.92,19.92 0 0 0 0.65,-6.33 8.33,8.33 0 0 0 -0.73,-3.68 c -1.1,-2.1 -3,-2.28 -6.16,-4.08 a 35.46,35.46 0 0 1 -7,-5.53 50.4,50.4 0 0 1 -5.29,-5.6 c 0,0 1.71,1.93 9.58,10.87 a 6.17,6.17 0 0 1 0.18,1.58 6.53,6.53 0 0 1 -0.55,2.5 c -0.56,1.35 -1.21,3.34 -2.51,7.33 -1.1,3.38 -1,4.13 -2,4.91 -1,0.78 -2,0.81 -3.89,0.93 -2.51,0.16 -4.75,0.3 -5.75,-1.11 -0.87,-1.22 -0.36,-3 -0.09,-3.71 a 24.37,24.37 0 0 1 2.87,-0.56 q 1.08,-0.13 2,-0.18 a 20,20 0 0 0 1.76,-3.62 c 0.7,-1.91 1.28,-3.55 0.84,-5.47 a 7.3,7.3 0 0 0 -0.93,-2.13 c -1.88,-3.08 -4.4,-3.54 -7.14,-5.94 A 16.42,16.42 0 0 1 993,434.6 l -4.63,0.47 q -3.42,0.35 -6.77,0.74 c 0.31,3.88 0.51,7.16 0.65,9.64 0.34,6.29 -0.09,1.32 0.09,10.48 0.07,3.63 0.16,5.42 -1.12,6.5 -0.69,0.58 -1.91,0.7 -4.35,0.92 -2.92,0.27 -4.39,0.39 -5,-0.37 a 3.23,3.23 0 0 1 0.55,-4 3.49,3.49 0 0 1 3.44,-0.83 c -0.06,-1 -0.17,-2.43 -0.37,-4.17 -0.46,-3.93 -0.81,-6.83 -2,-10 a 25,25 0 0 0 -3.61,-6.31 24.83,24.83 0 0 1 1.11,4.92 c 0.12,1 0.4,3.72 -0.65,9.83 a 79.12,79.12 0 0 1 -2.22,9.46 l -10.3,-0.09 a 3.82,3.82 0 0 1 0,-2.14 c 0.58,-1.84 2.77,-3.13 5.47,-3.15 0,-0.71 0.1,-1.73 0.1,-3 0,-3.48 -0.45,-5.11 -1.3,-10.38 -1.1,-6.81 -1.2,-9.2 -3,-11 L 957.24,430.27 954,427 c -2.87,-2.86 -4.67,-4.39 -5.56,-5.29 -1.95,-2 -4.08,-5.46 -4.64,-12.24 a 4.51,4.51 0 0 0 -1.11,-1.57 4.76,4.76 0 0 0 -1.86,-1 6.81,6.81 0 0 0 -2.69,-0.1 32.83,32.83 0 0 1 -3.43,0.37 7.44,7.44 0 0 1 -3.06,-0.92 9.12,9.12 0 0 1 -3.43,-3.16 c 1.44,-1.5 2.61,-2.74 3.43,-3.61 1.72,-1.83 3.8,-4.08 3.8,-4.08 a 9,9 0 0 1 0,-3.34 10.83,10.83 0 0 1 2.14,-4.27 22.49,22.49 0 0 1 4.72,-5.1 c 0.46,-0.35 0.84,-0.63 1.1,-0.81 a 9.78,9.78 0 0 1 -0.25,-1.63 11.13,11.13 0 0 1 1.37,-6.12 9.58,9.58 0 0 1 6.22,6.21 12,12 0 0 1 4,0.08 13.19,13.19 0 0 1 5.14,2.32 c 2.45,1.68 3.59,3.07 6.08,5.65 3.89,4 5.84,6.06 7.8,7.12 2.3,1.24 4.36,1.49 8.37,2.03 z"
       id="path225" />
    <path
       class="ABTzGhADsu"
       d="m 947.81,393.17 c -0.21,-2.43 -3.93,-4.43 -6.41,-3.13 a 4,4 0 0 0 -2,4.18 3.53,3.53 0 0 0 0.69,1.57 5.46,5.46 0 0 0 1,0.95 4.14,4.14 0 0 0 1.68,0.66 c 2.6,0.42 5.23,-2.07 5.04,-4.23 z"
       id="path227" />
    <path
       d="m 943.42,397.32 a 4,4 0 0 0 0.3,-4.15 3.94,3.94 0 0 0 -3.12,-2.7 c -1.17,1.24 -2,3.09 -1,4.66 l 0.11,0.2 a 3.77,3.77 0 0 0 0.26,0.39 2.93,2.93 0 0 0 0.93,0.89 4.63,4.63 0 0 0 1.5,0.64 c 0.17,0 0.4,0 0.55,0.08 a 1.42,1.42 0 0 0 0.47,-0.01 z"
       id="path229" />
    <path
       class="cOYvMwtoiN"
       d="m 597.28,611.85 c -0.4,1.48 -1,3.72 -2,6.39 -2,5.48 -3,8.23 -5.22,9.1 a 6.22,6.22 0 0 1 -6.23,-1.35 c -1.36,-1.3 -1.6,-3 -1.86,-5.56 -0.58,-5.86 -0.87,-8.79 -0.67,-11.95 a 52,52 0 0 1 2.17,-13.48 44.75,44.75 0 0 1 9.09,-15.83 2.9,2.9 0 0 1 1.86,-1.17 c 1.37,-0.17 2.42,1 2.86,1.51 1.23,1.38 1.26,2.68 1.85,4.72 a 35.5,35.5 0 0 0 2.36,5.22 63,63 0 0 0 5.56,8.75 c 3.36,4.72 5,7.08 6.23,8.26 a 31.63,31.63 0 0 0 11.45,7.24 31.26,31.26 0 0 0 10.27,1.68 c 10.76,0.23 18.81,-4 22.57,-6.06 6.38,-3.47 9.93,-5.39 12.12,-9.6 4.94,-9.46 -1.94,-20.92 -2.86,-22.4 a 13,13 0 0 1 5.56,2.53 c 1.18,0.93 5.07,4.34 4.88,9.77 a 12.14,12.14 0 0 1 -5,9.09 c 0.09,1 0.18,2.48 0.17,4.21 a 35.81,35.81 0 0 1 -1.85,12.29 30.41,30.41 0 0 1 -6.4,10.44 q -0.28,5.43 -0.51,11 -0.33,8.1 -0.5,16 a 4.25,4.25 0 0 1 2.18,1.68 4.58,4.58 0 0 1 0.34,3.88 5.28,5.28 0 0 1 -2,2.69 c 0,1 0,2.61 0,4.55 0.07,5.88 0.37,6.19 0.51,12.29 0.1,4.57 0,4.86 0.33,6.23 0.43,1.54 1,2.53 0.51,3.54 -0.74,1.48 -3.1,1.51 -3.2,1.51 -1.8,0 -3.8,-1.12 -3.88,-2.35 -0.06,-1.06 1.31,-1.92 1.69,-2.19 2,-1.44 3.26,-6.54 0,-22.91 a 4,4 0 0 1 -2.19,-1.85 4.3,4.3 0 0 1 0.5,-4.55 35.8,35.8 0 0 1 -5.22,-17.51 29.08,29.08 0 0 1 -3.36,2.36 c -10.71,6.43 -22.89,4.51 -29,3 q -0.69,4 -1.35,7.91 c -0.4,2.42 -0.79,4.83 -1.18,7.25 a 5,5 0 0 1 1.35,2 c 0.76,2.14 -0.07,4.73 -2,6.73 a 47.63,47.63 0 0 0 -0.17,6.91 c 0.09,1.69 0.24,2.84 0.34,5.56 0.16,4.1 -0.06,4.94 -0.51,5.72 -0.68,1.19 -2.22,2.73 -4,2.53 a 3.06,3.06 0 0 1 -2.69,-2.19 c -0.17,-1.23 1.11,-2.31 1.51,-2.7 1.63,-1.56 3,-5.21 1.52,-14.48 a 3.8,3.8 0 0 1 -1.85,-2 4,4 0 0 1 1.18,-4.21 c 0,-1.84 0,-3.69 0,-5.56 q 0,-8.49 -0.34,-16.67 a 39.67,39.67 0 0 1 -7.24,-7.58 41.26,41.26 0 0 1 -7.68,-20.39 z"
       id="path231" />
    <path
       class="aBnmMpTBIH"
       d="m 611.23,684.56 c -0.9,-0.39 -1.58,-0.19 -4.24,0.19 -1.62,0.23 -2.92,0.38 -3.71,0.46 a 6.29,6.29 0 0 0 0.91,0.65 6.79,6.79 0 0 0 2.93,0.91 l -2.8,1.31 a 8.6,8.6 0 0 0 2.09,1 c 2.74,0.86 6.5,0.48 7,-1.1 0.4,-1.14 -0.8,-2.83 -2.18,-3.42 z"
       id="path233" />
    <path
       class="aBnmMpTBIH"
       d="m 661.92,689 c 0,-0.64 -0.87,-1.14 -2,-1.75 a 5.2,5.2 0 0 0 -3.75,-0.86 c -0.81,0.19 -0.91,0.53 -1.88,1 a 7.08,7.08 0 0 1 -3.34,0.56 4.52,4.52 0 0 0 1.27,0.71 4.83,4.83 0 0 0 3.59,-0.26 4.58,4.58 0 0 1 -3.64,1.67 8.44,8.44 0 0 0 3,1.12 c 3.21,0.41 6.71,-0.98 6.75,-2.19 z"
       id="path235" />
    <path
       class="aBnmMpTBIH"
       d="m 593.11,578 c -0.3,-0.72 0.6,-1.75 1.65,-2.81 a 26.8,26.8 0 0 1 6.57,-5.31 c 3.07,-1.78 4.6,-2.67 6.77,-2.61 0.86,0 3.69,0.09 4.64,2 a 4.08,4.08 0 0 1 -0.2,3.38 3.11,3.11 0 0 0 -1,-1.93 c -1.48,-1.27 -4,-0.33 -5.13,0.09 a 13.19,13.19 0 0 0 -6.09,5.13 17.72,17.72 0 0 0 -2.7,6 5.16,5.16 0 0 0 -1.84,-2.61 c -1.21,-0.83 -2.38,-0.63 -2.67,-1.33 z"
       id="path237" />
    <path
       class="aBnmMpTBIH"
       d="m 593.57,588.88 c -1.5,0.8 -1.12,4.1 -0.8,6.92 0.36,3.14 0.69,6 2.8,8.93 a 14.57,14.57 0 0 0 4.39,4 24.07,24.07 0 0 0 1.07,-6.79 c 0,-2 0.1,-9.59 -4.4,-12.39 -0.44,-0.28 -1.99,-1.24 -3.06,-0.67 z"
       id="path239" />
    <path
       class="aBnmMpTBIH"
       d="m 583.6,625.78 a 6.08,6.08 0 0 0 1.09,-1.45 6.92,6.92 0 0 0 0.69,-4.49 3.54,3.54 0 0 0 -2.27,0.7 3.21,3.21 0 0 0 -1,1.25 7.06,7.06 0 0 0 0.33,1.8 7.4,7.4 0 0 0 1.16,2.19 z"
       id="path241" />
    <path
       class="ABTzGhADsu"
       d="m 592.26,602.1 c -0.21,-2.37 -3.84,-4.32 -6.26,-3.05 a 3.89,3.89 0 0 0 -2,4.07 3.39,3.39 0 0 0 0.66,1.53 5.35,5.35 0 0 0 1,0.94 4,4 0 0 0 1.63,0.64 c 2.58,0.41 5.15,-2.02 4.97,-4.13 z"
       id="path243" />
    <path
       class="REjTpgcrPm"
       d="m 588,606.15 a 3.91,3.91 0 0 0 0.29,-4 3.86,3.86 0 0 0 -3,-2.64 c -1.15,1.21 -2,3 -1,4.55 l 0.12,0.2 a 3.11,3.11 0 0 0 0.25,0.38 2.81,2.81 0 0 0 0.91,0.87 4.81,4.81 0 0 0 1.47,0.63 c 0.16,0 0.39,0 0.53,0.07 a 1.36,1.36 0 0 0 0.43,-0.06 z"
       id="path245" />
  </g>
  <g
     id="Layer_4"
     data-name="Layer 4">
    <path
       class="osHmrwRLQn"
       d="M538.45,462.7c5.32,1.15,5.31,1.19,5.68,1.23,3.2.27,6-2.86,7.23-4.31,3.63-4.13,4-9.05,4.3-12.29a27.64,27.64,0,0,0-4-17.68A26.82,26.82,0,0,0,542.6,421a9.65,9.65,0,0,0,.15-4.61,9.48,9.48,0,0,0-2.92-5.07,10.16,10.16,0,0,0-7.84-2.15c-1,.11-5.2.54-7.68,4.15-3.06,4.45-.8,9.6-.62,10a10.47,10.47,0,0,0,9.43,6.2,10.1,10.1,0,0,0,6.27-2.45,18.94,18.94,0,0,1,2.3,1.46c8.22,6.1,8.08,16.85,8,19.82,0,1.68-.25,3.38-1.46,4.21a3.61,3.61,0,0,1-2.52.46,6.31,6.31,0,0,1-3.75-2.29,15.88,15.88,0,0,1-2.38-3.45,28.61,28.61,0,0,0-4-5.51c-4-3.73-11.42-1.91-13.93-1.3s-5.26,1.29-7.5,3.52a49.64,49.64,0,0,0-4.44,5.82c-1.46,2.06-1.82,2.7-2.76,3.29-2.07,1.31-4.62.91-6.27.46A3.35,3.35,0,0,0,502,456a3.3,3.3,0,0,0,3.44.23,4.93,4.93,0,0,0,.54,1.84c1.36,2.52,5.14,3.59,8.19,3.13s3.35-2,5.82-1.76c2.08.24,4.24,1.65,4.21,2.84,0,.38-.24.38-.46,1.07a4.32,4.32,0,0,0,.23,3.06,3.2,3.2,0,0,0,1.61,1.61,3.06,3.06,0,0,0,2.52-.16,3.38,3.38,0,0,0,1.69-2.37,2.27,2.27,0,0,0,.38,1.69,2.66,2.66,0,0,0,2,.84,3.49,3.49,0,0,0,2.75-.69c1.3-1.35-.28-3.82.85-4.75C536.27,462.23,537,462.38,538.45,462.7Z"
       id="path248" />
    <path
       class="XQMkvtNFrQ"
       d="M531.29,428.8a4.7,4.7,0,0,0-1.55,1.81c-1,2.2-.08,5.24,2.35,7.64a8.37,8.37,0,0,1-4.69.13,8.71,8.71,0,0,1-5.43-4.76,9,9,0,0,1-.47-5.43,10.35,10.35,0,0,1,2.82-5.29,3,3,0,0,0,.87.94c1.79,1.23,4.3-.14,4.42-.2a10.24,10.24,0,0,0-.2,2,3.57,3.57,0,0,0,.4,2.21A2.61,2.61,0,0,0,531.29,428.8Z"
       id="path250" />
    <path
       class="XQMkvtNFrQ"
       d="M533.47,464.27a10.87,10.87,0,0,0,4.61-.85,6.92,6.92,0,0,0,3.55-3.26c.86-2.08-.13-4.17-1.42-6.8-1.43-2.9-3.64-7.42-8.37-9.08-1-.34-4.12-1.44-5.74.15a3.85,3.85,0,0,0-.92,2.9,17,17,0,0,0-3.83-.49,10.2,10.2,0,0,0-4.82.71,6.47,6.47,0,0,0-3.4,3c-1.21,2.91,1.38,6.3,2.2,7.38,3.46,4.53,8.93,5.59,11.13,6A27.07,27.07,0,0,0,533.47,464.27Z"
       id="path252" />
    <path
       class="cOYvMwtoiN"
       d="M527.41,468.17c-.17.59-.41,1.44-.64,2.48a41.65,41.65,0,0,0-1.07,11.82,33.42,33.42,0,0,0,5.12,14.95c.6.05,1.25.12,1.92.24a18.85,18.85,0,0,1,5.92,2.16l-4.48-.32a5.27,5.27,0,0,1,2.32,1.12,5.4,5.4,0,0,1,1.44,2,16.25,16.25,0,0,0-3.2-1,16.65,16.65,0,0,0-2.64-.32,3.77,3.77,0,0,0,.72,1.68,3.54,3.54,0,0,0,1,.88,3.38,3.38,0,0,1-2.16-.16,6,6,0,0,1-1.44-1.12c-1.17-1-1.17-1.1-1.44-1.28a3.74,3.74,0,0,0-3.2-.08,2.38,2.38,0,0,1,.16-1.52,3.35,3.35,0,0,1,3.68-1.44c-1-2-1.74-3.79-2.32-5.19a44.13,44.13,0,0,1-2.88-8.32,30.74,30.74,0,0,1-.64-5.44,28.62,28.62,0,0,1,2.08-11.21Z"
       id="path254" />
    <path
       class="cOYvMwtoiN"
       d="M533.28,468.07a26.52,26.52,0,0,0-3.74,4.56c-1.59,2.47-1.82,3.75-1.84,4.64a4.88,4.88,0,0,0,.32,2.08c.33.82.88,1.45,2.72,2.8s2.11,1.29,3.44,2.32a15.06,15.06,0,0,1,3.12,3,13,13,0,0,1,1.92,3.76,12.65,12.65,0,0,1,.4,5.59l-1.68-4a4.46,4.46,0,0,1-.48,1.83,4.64,4.64,0,0,1-2.48,2.16c.92-3.3.86-4.25.56-4.39-.06,0-.19-.06-1.2.64-.66.45-1.2.87-1.6,1.2a5.33,5.33,0,0,1,.16-2.56,5.81,5.81,0,0,1,3-3.36,23.44,23.44,0,0,0-2.16-1.84c-1.57-1.19-2.35-1.46-3.76-2.48a10.27,10.27,0,0,1-3-2.64c-1.9-3-.36-6.92-.24-7.2a15.64,15.64,0,0,1,2.4-3.6,32.15,32.15,0,0,1,2.34-2.67Z"
       id="path256" />
    <path
       class="ABTzGhADsu"
       d="M530.94,421.22a3.33,3.33,0,0,1-1.44.07,4.26,4.26,0,0,1-1.06-.35,2.91,2.91,0,0,1-1-.92,3.16,3.16,0,0,1-.54-1.86,3.24,3.24,0,0,1,.63-1.84c1.38-1.76,4.74-1.52,5.69.17C534.05,418,533,420.67,530.94,421.22Z"
       id="path258" />
    <path
       class="REjTpgcrPm"
       d="M531,421.11c-.12,0-.29.1-.42.13a3.84,3.84,0,0,1-1.31,0,2.35,2.35,0,0,1-1-.34,2.14,2.14,0,0,1-.32-.2l-.15-.11c-1.26-.8-1.25-2.43-.81-3.71a3.12,3.12,0,0,1,3.15.94,3.18,3.18,0,0,1,1.15,3.12A1.24,1.24,0,0,1,531,421.11Z"
       id="path260" />
    <path
       class="REjTpgcrPm"
       d="M697.86,623.39v67.83q3.15,0,6.3-.05V623.39"
       id="path262" />
    <path
       class="REjTpgcrPm"
       d="M709.63,619.82v71.37c2.1,0,4.2,0,6.3.08V619.82"
       id="path264" />
    <path
       class="REjTpgcrPm"
       d="M721.41,616.24v75.14l6.3.18V616.25"
       id="path266" />
    <path
       class="REjTpgcrPm"
       d="M733.18,612.67v79.07l6.3.24V612.67"
       id="path268" />
    <path
       class="REjTpgcrPm"
       d="M745,609.1v83.12l6.3.28V609.1"
       id="path270" />
    <path
       class="REjTpgcrPm"
       d="M756.73,605.53v86.91q3.15-.18,6.3-.25V605.53"
       id="path272" />
    <path
       class="REjTpgcrPm"
       d="M768.51,602v90.18q3.15,0,6.3.06V602"
       id="path274" />
    <path
       class="REjTpgcrPm"
       d="M780.28,600.68v91.65l6.3.19V600.34"
       id="path276" />
    <path
       class="REjTpgcrPm"
       d="M880.78,623.39v67.83q-3.15,0-6.3-.05V623.39"
       id="path278" />
    <path
       class="REjTpgcrPm"
       d="M869,619.82v71.37c-2.1,0-4.2,0-6.3.08V619.82"
       id="path280" />
    <path
       class="REjTpgcrPm"
       d="M857.23,616.24v75.14l-6.3.18V616.25"
       id="path282" />
    <path
       class="REjTpgcrPm"
       d="M845.45,612.67v79.07l-6.3.24V612.67"
       id="path284" />
    <path
       class="REjTpgcrPm"
       d="M833.68,609.1v83.12l-6.3.28V609.1"
       id="path286" />
    <path
       class="REjTpgcrPm"
       d="M815.61,605.53v87h6.3v-87"
       id="path288" />
    <path
       class="REjTpgcrPm"
       d="M803.83,602v90.9c2.1,0,4.2,0,6.3-.11V602"
       id="path290" />
    <path
       class="REjTpgcrPm"
       d="M792.06,600.11v92.57q3.15.09,6.3.13V600"
       id="path292" />
    <path
       class="INfmTsxiVr"
       d="M422.61,499a100.86,100.86,0,0,1-6.51-39.15c.09-2.52.28-5,.55-7.31"
       id="path294" />
    <ellipse
       class="JeVByXUQJZ"
       cx="419.36"
       cy="444.39"
       rx="12.82"
       ry="4.92"
       transform="translate(-119.74 731.98) rotate(-74.74)"
       id="ellipse296" />
    <path
       class="INfmTsxiVr"
       d="M430.19,495.44a101,101,0,0,1,22.71-32.55c1.83-1.74,3.67-3.35,5.5-4.84"
       id="path298" />
    <ellipse
       class="JeVByXUQJZ"
       cx="466.02"
       cy="454.13"
       rx="12.82"
       ry="4.92"
       transform="translate(-165.71 298.17) rotate(-30.39)"
       id="ellipse300" />
    <path
       class="INfmTsxiVr"
       d="M425.24,498.18a101,101,0,0,1,6.94-39.07c.93-2.35,1.92-4.58,3-6.71"
       id="path302" />
    <ellipse
       class="JeVByXUQJZ"
       cx="440.41"
       cy="445.65"
       rx="12.82"
       ry="4.92"
       transform="translate(-176.84 553.2) rotate(-55.22)"
       id="ellipse304" />
    <path
       class="uMZuCMsnXK"
       d="M425.08,499.93c1.29-2.08-6.6-13.78-19.69-16.64-8.91-2-24.19-.67-32.56,11.21a30.16,30.16,0,0,0-4.58,10.37c7.84-5.29,18.6-10.86,30.51-11.22C414.43,493.18,423.8,502,425.08,499.93Z"
       id="path306" />
    <path
       class="uMZuCMsnXK"
       d="M425,499.43c-1.12-1.5,5.86-11.9,17.39-15.9,7.85-2.73,21.3-3.69,28.62,4.73a19.39,19.39,0,0,1,4,7.71c-6.89-3.21-16.34-6.27-26.82-5C434.39,492.64,426.11,500.92,425,499.43Z"
       id="path308" />
    <path
       class="osHmrwRLQn"
       d="M646.28,378.76C641,379.91,641,380,640.59,380c-3.19.27-6-2.86-7.22-4.31-3.63-4.13-4-9.05-4.3-12.29a27.68,27.68,0,0,1,4-17.68,26.68,26.68,0,0,1,9.07-8.6,9.7,9.7,0,0,1-.15-4.62,9.37,9.37,0,0,1,2.92-5.07,10.18,10.18,0,0,1,7.83-2.15c1,.11,5.21.54,7.69,4.15,3.05,4.45.79,9.61.61,10a10.45,10.45,0,0,1-9.42,6.2,10.14,10.14,0,0,1-6.28-2.45,18.94,18.94,0,0,0-2.3,1.46c-8.22,6.11-8.07,16.85-8,19.83,0,1.67.25,3.37,1.45,4.21a3.62,3.62,0,0,0,2.53.45,6.26,6.26,0,0,0,3.75-2.29,15.47,15.47,0,0,0,2.37-3.45,29.53,29.53,0,0,1,4-5.51c4-3.73,11.43-1.91,13.93-1.3s5.26,1.29,7.51,3.52A49.64,49.64,0,0,1,675,365.9c1.46,2.06,1.81,2.7,2.75,3.29,2.07,1.31,4.62.91,6.28.46a3.39,3.39,0,0,1-1.3,2.45,3.31,3.31,0,0,1-3.45.23,4.71,4.71,0,0,1-.53,1.84c-1.37,2.53-5.15,3.59-8.19,3.14s-3.36-2-5.82-1.77c-2.09.24-4.24,1.65-4.21,2.84,0,.38.23.38.46,1.07a4.32,4.32,0,0,1-.23,3.06,2.94,2.94,0,0,1-4.14,1.46,3.42,3.42,0,0,1-1.68-2.38,2.37,2.37,0,0,1-.38,1.69,2.66,2.66,0,0,1-2,.84,3.51,3.51,0,0,1-2.76-.69c-1.29-1.35.28-3.82-.84-4.75C648.46,378.3,647.73,378.44,646.28,378.76Z"
       id="path310" />
    <path
       class="XQMkvtNFrQ"
       d="M653.44,344.86a4.57,4.57,0,0,1,1.54,1.81c1,2.2.09,5.24-2.34,7.64a8.36,8.36,0,0,0,4.69.13,8.68,8.68,0,0,0,5.43-4.76,9,9,0,0,0,.47-5.43,10.39,10.39,0,0,0-2.82-5.29,3.1,3.1,0,0,1-.87.94c-1.8,1.23-4.31-.14-4.42-.2a10.24,10.24,0,0,1,.2,2,3.5,3.5,0,0,1-.41,2.21A2.59,2.59,0,0,1,653.44,344.86Z"
       id="path312" />
    <path
       class="XQMkvtNFrQ"
       d="M651.25,380.33a11,11,0,0,1-4.61-.85,6.91,6.91,0,0,1-3.54-3.26c-.86-2.08.13-4.17,1.42-6.8,1.42-2.9,3.64-7.42,8.36-9.07,1-.35,4.13-1.45,5.74.14a3.85,3.85,0,0,1,.92,2.9,17.76,17.76,0,0,1,3.83-.49,10.18,10.18,0,0,1,4.82.71,6.44,6.44,0,0,1,3.4,3c1.21,2.91-1.37,6.3-2.19,7.38-3.46,4.53-8.93,5.6-11.13,6A27.14,27.14,0,0,1,651.25,380.33Z"
       id="path314" />
    <path
       class="cOYvMwtoiN"
       d="M657.32,384.23c.17.59.4,1.45.64,2.48A42,42,0,0,1,659,398.53a33.64,33.64,0,0,1-5.12,15,15.25,15.25,0,0,0-1.92.24,18.44,18.44,0,0,0-5.92,2.15l4.48-.32a5.12,5.12,0,0,0-3.76,3.12,16,16,0,0,1,3.2-1,16.52,16.52,0,0,1,2.64-.32,3.77,3.77,0,0,1-.72,1.68,3.52,3.52,0,0,1-1,.88,3.31,3.31,0,0,0,2.16-.16,6.27,6.27,0,0,0,1.44-1.12c1.17-1,1.16-1.1,1.44-1.28a3.74,3.74,0,0,1,3.2-.08,2.53,2.53,0,0,0-.16-1.52,3.34,3.34,0,0,0-3.68-1.43c1-2,1.73-3.8,2.32-5.2a44.61,44.61,0,0,0,2.88-8.32,29.44,29.44,0,0,0,.63-5.44,28.57,28.57,0,0,0-2.07-11.21Z"
       id="path316" />
    <path
       class="cOYvMwtoiN"
       d="M651.44,384.13a26.66,26.66,0,0,1,3.75,4.56c1.59,2.47,1.81,3.75,1.84,4.64a5,5,0,0,1-.32,2.08c-.34.82-.89,1.45-2.72,2.8s-2.11,1.29-3.44,2.32a14.59,14.59,0,0,0-3.12,3,12.7,12.7,0,0,0-1.92,3.76,12.4,12.4,0,0,0-.4,5.6l1.68-4a4.53,4.53,0,0,0,.48,1.84,4.73,4.73,0,0,0,2.48,2.16c-.92-3.31-.87-4.26-.56-4.4,0,0,.18-.06,1.2.64.66.45,1.2.87,1.6,1.2a5.6,5.6,0,0,0-.16-2.56,5.88,5.88,0,0,0-3-3.36,23.44,23.44,0,0,1,2.16-1.84c1.57-1.18,2.35-1.46,3.76-2.48a10.55,10.55,0,0,0,3-2.64c1.9-3,.35-6.92.24-7.2a16,16,0,0,0-2.4-3.6c-.92-1.16-1.75-2.06-2.34-2.67Z"
       id="path318" />
    <path
       class="ABTzGhADsu"
       d="M653.78,337.28a3.33,3.33,0,0,0,1.44.07,4.47,4.47,0,0,0,1.07-.35,2.88,2.88,0,0,0,1-.92,3.24,3.24,0,0,0,.55-1.86,3.19,3.19,0,0,0-.64-1.83c-1.38-1.77-4.74-1.53-5.69.16C650.68,334.06,651.77,336.73,653.78,337.28Z"
       id="path320" />
    <path
       class="REjTpgcrPm"
       d="M653.69,337.17c.11,0,.29.1.42.13a3.79,3.79,0,0,0,1.3,0,2.21,2.21,0,0,0,1-.34,2.14,2.14,0,0,0,.32-.2l.15-.11c1.25-.8,1.25-2.43.8-3.71a3.12,3.12,0,0,0-3.15.94,3.21,3.21,0,0,0-1.15,3.12A1.3,1.3,0,0,0,653.69,337.17Z"
       id="path322" />
    <path
       class="tQvGnYWGsZ"
       d="M1295.27,667.82c-3.51,3.08-7.43,6.52-13.09,7.25-4.89.63-6-1.43-20-3.91a45.72,45.72,0,0,0-15.74-.18c-17.61,2.59-19.22,2.55-21.23,1.61-4-1.85-7.87-6.29-6.74-9.4s7-3.5,7.59-3.52c-3.13.12-12.35,0-19.24-6.6-3.73-3.57-8.16-10.36-6-14,2.44-4.13,12-1.76,12.73-4.59.63-2.32-5.82-4.12-6.2-8.5s5.51-8.86,10.46-10.44c8.21-2.57,15.49,2.4,16.62,3.18,0-.27.48-4.54,3.89-6.18s7.71.52,9.55,3.54a7.72,7.72,0,0,1,1.11,3.42,12.07,12.07,0,0,1,3.18-5.73,13,13,0,0,1,4.92-2.87,13.18,13.18,0,0,1,5.68-.49c5.1.87,9.77,5.12,10.26,10.61a11.9,11.9,0,0,1-2.34,8,18.23,18.23,0,0,1,6.4-4.58c3.72-1.56,11.07-3.16,14.88.7,4.4,4.47,1.48,13.7-2.12,18.7a20.14,20.14,0,0,1-5.69,5.35,15.77,15.77,0,0,1,4.28-.38c6,.26,13.35,4,13.78,9C1302.49,661.48,1299.19,664.37,1295.27,667.82Z"
       id="path324" />
    <path
       class="JeVByXUQJZ"
       d="M1258.31,661.41h-7.18v53.78h7.18Z"
       id="path326" />
    <path
       class="tQvGnYWGsZ"
       d="M1254.27,666.79c8.17,0,14.79-5.42,14.79-12.1s-6.62-12.11-14.79-12.11-14.79,5.42-14.79,12.11S1246.1,666.79,1254.27,666.79Z"
       id="path328" />
  </g>
  <g
     id="clouds"
     class="clouds-move">
    <path
       class="ABTzGhADsu"
       d="M1217.41,475.59a12.08,12.08,0,0,0,0-7.79c-2.38-6.44-10-7.57-10.93-7.8a15.45,15.45,0,0,0-15.6,7.8c-.23.43-.65,2.89-1.58,7.79v1.58a6.21,6.21,0,0,0-1.57-1.58c-3.79-2.57-9.48-.34-12.49,1.58A14.92,14.92,0,0,0,1169,485a15.38,15.38,0,0,0,0,9.35,20.2,20.2,0,0,0,7.81,10.92h70.27a22.28,22.28,0,0,1-4.68-4.67,16.55,16.55,0,0,1-3.11-6.25c-.84-3.61.58-4.45,0-7.8a13.8,13.8,0,0,0-4.69-7.79c-3-2.44-6.4-2.73-10.93-3.13A38.48,38.48,0,0,0,1217.41,475.59Z"
       id="path331" />
    <path
       class="ABTzGhADsu"
       d="M1247,37.41a12.11,12.11,0,0,0,0-7.8c-2.39-6.43-10-7.57-10.93-7.8a15.52,15.52,0,0,0-15.61,7.8c-.22.44-.64,2.9-1.57,7.8V39a6.5,6.5,0,0,0-1.57-1.57c-3.79-2.58-9.48-.34-12.49,1.57a14.86,14.86,0,0,0-6.24,7.8,15.35,15.35,0,0,0,0,9.34A20.17,20.17,0,0,0,1206.35,67h70.27a22.09,22.09,0,0,1-4.69-4.67,16.67,16.67,0,0,1-3.1-6.25c-.84-3.61.58-4.44,0-7.79a13.86,13.86,0,0,0-4.69-7.8c-3-2.44-6.4-2.73-10.93-3.12A36.35,36.35,0,0,0,1247,37.41Z"
       id="path333" />
    <path
       class="ABTzGhADsu"
       d="M412.32,84.28a12.08,12.08,0,0,0,0-7.79c-2.39-6.44-10-7.57-10.93-7.8a15.45,15.45,0,0,0-15.6,7.8c-.23.43-.65,2.89-1.58,7.79v1.57a6.5,6.5,0,0,0-1.57-1.57c-3.79-2.57-9.48-.34-12.49,1.57a15,15,0,0,0-6.24,7.8,15.38,15.38,0,0,0,0,9.35,20.24,20.24,0,0,0,7.81,10.92H442a22.09,22.09,0,0,1-4.68-4.68A16.43,16.43,0,0,1,434.2,103c-.84-3.62.58-4.45,0-7.8a13.8,13.8,0,0,0-4.69-7.79c-3-2.45-6.4-2.73-10.93-3.13A38.48,38.48,0,0,0,412.32,84.28Z"
       id="path335" />
    <path
       class="ABTzGhADsu"
       d="M681.65,23.35a12.11,12.11,0,0,0,0-7.8c-2.39-6.43-10-7.57-10.94-7.79a15.46,15.46,0,0,0-15.6,7.79c-.23.44-.64,2.9-1.57,7.8v1.57A6.37,6.37,0,0,0,652,23.35c-3.79-2.57-9.47-.34-12.49,1.57a14.93,14.93,0,0,0-6.23,7.8,15.38,15.38,0,0,0,0,9.35A20.19,20.19,0,0,0,641.05,53h70.26a22.57,22.57,0,0,1-4.68-4.68,16.58,16.58,0,0,1-3.11-6.24c-.83-3.62.59-4.45,0-7.8a13.79,13.79,0,0,0-4.68-7.8c-3-2.44-6.41-2.72-10.94-3.12A38.36,38.36,0,0,0,681.65,23.35Z"
       id="path337" />
    <path
       class="ABTzGhADsu"
       d="M666.19,197.8a12.08,12.08,0,0,0,0-7.79c-2.39-6.44-10-7.57-10.93-7.8a15.45,15.45,0,0,0-15.6,7.8c-.23.43-.65,2.89-1.58,7.79v1.57a6.5,6.5,0,0,0-1.57-1.57c-3.79-2.57-9.48-.34-12.49,1.57a15,15,0,0,0-6.24,7.8,15.38,15.38,0,0,0,0,9.35,20.24,20.24,0,0,0,7.81,10.92h70.27a22.37,22.37,0,0,1-4.69-4.68,16.56,16.56,0,0,1-3.1-6.24c-.84-3.61.58-4.45,0-7.8a13.8,13.8,0,0,0-4.69-7.79c-3-2.45-6.4-2.73-10.93-3.13A38.48,38.48,0,0,0,666.19,197.8Z"
       id="path339" />
    <path
       class="ABTzGhADsu"
       d="M287.75,291.89a12.11,12.11,0,0,0,0-7.8c-2.39-6.43-10-7.57-10.94-7.79a15.48,15.48,0,0,0-15.6,7.79c-.22.44-.64,2.9-1.57,7.8v1.57a6.5,6.5,0,0,0-1.57-1.57c-3.79-2.57-9.48-.34-12.49,1.57a14.9,14.9,0,0,0-6.24,7.8,15.38,15.38,0,0,0,0,9.35,20.24,20.24,0,0,0,7.81,10.92h70.27a22.38,22.38,0,0,1-4.69-4.68,16.8,16.8,0,0,1-3.11-6.24c-.83-3.62.59-4.45,0-7.8a13.79,13.79,0,0,0-4.68-7.8c-3-2.44-6.4-2.72-10.93-3.12A38.48,38.48,0,0,0,287.75,291.89Z"
       id="path341" />
    <path
       class="ABTzGhADsu"
       d="M105,671a12.08,12.08,0,0,0,0-7.79c-2.39-6.44-10-7.57-10.94-7.8a15.47,15.47,0,0,0-15.6,7.8c-.22.43-.64,2.89-1.57,7.79v1.58A6.37,6.37,0,0,0,75.3,671c-3.79-2.57-9.48-.34-12.49,1.58a14.88,14.88,0,0,0-6.24,7.79,15.38,15.38,0,0,0,0,9.35,20.2,20.2,0,0,0,7.81,10.92h70.26A22.52,22.52,0,0,1,130,696a16.7,16.7,0,0,1-3.11-6.25c-.83-3.61.59-4.45,0-7.8a13.73,13.73,0,0,0-4.68-7.79c-3-2.44-6.4-2.73-10.93-3.13A38.48,38.48,0,0,0,105,671Z"
       id="path343" />
    <path
       class="ABTzGhADsu"
       d="M320.48,483.38a12.11,12.11,0,0,0,0-7.8c-2.38-6.43-10-7.57-10.93-7.79a15.46,15.46,0,0,0-15.6,7.79c-.23.44-.65,2.9-1.58,7.8V485a6.33,6.33,0,0,0-1.57-1.57c-3.79-2.57-9.48-.34-12.49,1.57a15,15,0,0,0-6.24,7.8,15.38,15.38,0,0,0,0,9.35A20.24,20.24,0,0,0,279.88,513h70.27a22.33,22.33,0,0,1-4.68-4.68,16.58,16.58,0,0,1-3.11-6.24c-.84-3.62.58-4.45,0-7.8a13.9,13.9,0,0,0-4.68-7.8c-3-2.44-6.41-2.72-10.94-3.12A38.48,38.48,0,0,0,320.48,483.38Z"
       id="path345" />
    <path
       class="ABTzGhADsu"
       d="M526.07,512.25a12.08,12.08,0,0,0,0-7.79c-2.39-6.44-10.05-7.57-10.94-7.8a15.47,15.47,0,0,0-15.6,7.8c-.23.43-.64,2.89-1.57,7.79v1.57a6.5,6.5,0,0,0-1.57-1.57c-3.8-2.57-9.48-.34-12.5,1.57a14.93,14.93,0,0,0-6.23,7.8,15.38,15.38,0,0,0,0,9.35,20.19,20.19,0,0,0,7.81,10.92h70.26a22.33,22.33,0,0,1-4.68-4.68,16.43,16.43,0,0,1-3.11-6.24c-.83-3.61.59-4.45,0-7.8a13.73,13.73,0,0,0-4.68-7.79c-3-2.45-6.41-2.73-10.94-3.13A38.36,38.36,0,0,0,526.07,512.25Z"
       id="path347" />
    <path
       class="ABTzGhADsu"
       d="M821.31,383.11a12.08,12.08,0,0,0,0-7.79c-2.39-6.44-10-7.57-10.93-7.8a15.45,15.45,0,0,0-15.6,7.8c-.23.43-.65,2.89-1.58,7.79v1.58a6.37,6.37,0,0,0-1.57-1.58c-3.79-2.57-9.48-.34-12.49,1.58a14.88,14.88,0,0,0-6.24,7.79,15.38,15.38,0,0,0,0,9.35,20.2,20.2,0,0,0,7.81,10.92H851a22.33,22.33,0,0,1-4.69-4.67,16.67,16.67,0,0,1-3.1-6.25c-.84-3.61.58-4.45,0-7.8a13.8,13.8,0,0,0-4.69-7.79c-3-2.44-6.4-2.73-10.93-3.13A38.48,38.48,0,0,0,821.31,383.11Z"
       id="path349" />
    <path
       class="ABTzGhADsu"
       d="M1154.37,595a12.08,12.08,0,0,0,0-7.79c-2.39-6.44-10-7.57-10.94-7.8a15.47,15.47,0,0,0-15.6,7.8c-.23.43-.64,2.89-1.57,7.79v1.58a6.24,6.24,0,0,0-1.58-1.58c-3.79-2.57-9.47-.34-12.49,1.58a14.91,14.91,0,0,0-6.23,7.79,15.38,15.38,0,0,0,0,9.35,20.15,20.15,0,0,0,7.81,10.92H1184a22.52,22.52,0,0,1-4.68-4.67,16.55,16.55,0,0,1-3.11-6.25c-.83-3.61.59-4.45,0-7.8a13.73,13.73,0,0,0-4.68-7.79c-3-2.44-6.41-2.73-10.94-3.13A38.36,38.36,0,0,0,1154.37,595Z"
       id="path351" />
  </g>
  <g
     id="реплики">
    <g
       id="g376">
      <g
         id="window1"
         style="visibility: hidden;">
        <rect
           class="FJsmjCpUvm"
           x="236.52"
           y="322.04001"
           width="397.39001"
           height="78.519997"
           id="rect354" />
        <text
           class="ejcatWqoRW"
           transform="translate(255.82,354.41)"
           id="text358">Мее-еее...<tspan
   x="0"
   y="24"
   id="tspan356">Помоги мне собрать капусту...</tspan></text>
        <line
           class="VxlfUWMFYd"
           x1="610.32001"
           y1="344.66"
           x2="625.48999"
           y2="329.48999"
           id="line360" />
        <line
           class="VxlfUWMFYd"
           x1="625.48999"
           y1="344.66"
           x2="610.32001"
           y2="329.48999"
           id="line362" />
      </g>
    </g>
    <rect
       style="fill:#0000ff;fill-rule:evenodd;fill-opacity:0"
       id="rect378"
       width="15.169983"
       height="15.170013"
       x="610.32001"
       y="329.48999"
       onclick="closeWindow('window1')"
       class="button" />
  </g>
</svg>
