<?xml version="1.0" encoding="utf-8"?>
<!-- Generator: Adobe Illustrator 25.0.1, SVG Export Plug-In . SVG Version: 6.00 Build 0)  -->
<svg version="1.1" xmlns="http://www.w3.org/2000/svg" xmlns:xlink="http://www.w3.org/1999/xlink" x="0px" y="0px"
	 viewBox="0 0 1280 720" style="enable-background:new 0 0 1280 720;" xml:space="preserve">
<style type="text/css">
	.st0{fill:#F7EFE2;}
	.st1{fill:none;stroke:#FF0020;stroke-width:16;stroke-miterlimit:10;stroke-dasharray:30.47,20.31;}
	.st2{fill:none;stroke:#FF81E7;stroke-width:16;stroke-miterlimit:10;stroke-dasharray:30.47,20.31;}
	.st3{fill:none;stroke:#00FFA9;stroke-width:16;stroke-miterlimit:10;stroke-dasharray:29.94,19.96;}
	.st4{fill:#D8E5A5;}
	.st5{fill:#A8E0A1;}
	.st6{fill:#FFF3AE;}
	.st7{fill:#6000FF;}
	.st8{fill:#FF81E7;}
	.st9{fill:#FFFFFF;stroke:#FFFFFF;stroke-width:2;stroke-miterlimit:10;}
	.st10{fill:#0097DD;}
	.st11{fill:#FF76EB;}
	.st12{fill:#FFFFFF;}
	.st13{stroke:#000000;stroke-miterlimit:10;}
	.st14{fill:#FB6700;}
	.st15{fill:none;stroke:#FF0020;stroke-width:16;stroke-miterlimit:10;}
	.st16{fill:none;stroke:#FF0020;stroke-width:16;stroke-miterlimit:10;stroke-dasharray:29.82,19.88;}
	.st17{fill:none;stroke:#FF0020;stroke-width:16;stroke-miterlimit:10;stroke-dasharray:29.73,19.82;}
	.st18{fill:#6DFC6D;}
	.st19{fill:#00FFA9;}
	.st20{fill:#754C24;}
	.st21{fill:#FF0020;}
	.st22{fill:#FDFF00;}
	.st23{fill:#EB7000;}
	.st24{fill:none;}
	.st25{fill:#231F20;}
	.st26{fill:#FF00BD;stroke:#FF00BD;stroke-width:0.5;stroke-miterlimit:10;}
	.st27{opacity:0.59;}
	.st28{fill:none;stroke:#F7EFE2;stroke-width:50;stroke-miterlimit:10;}
	.st29{fill:none;stroke:#00FFA9;stroke-width:50;stroke-miterlimit:10;}
	.st30{fill:#F0ED00;}
	.st31{fill:none;stroke:#000000;stroke-miterlimit:10;}
	.st32{fill:#01140D;}
	.st33{fill:#F9C6CA;}
	.st34{fill:#FFFFFF;stroke:#000000;stroke-width:2;stroke-miterlimit:10;}
	.st35{stroke:#000000;stroke-width:0.25;stroke-miterlimit:10;}
	.st36{fill:#FFD400;}
	.st37{fill:#B9FCF7;}
	.st38{fill:#55FFEE;}
	.st39{fill:#FFFFFF;stroke:#FFFFFF;stroke-miterlimit:10;}
	.st40{fill:none;stroke:#00FFA9;stroke-width:2;stroke-miterlimit:10;}
	.st41{fill:#00FFA9;stroke:#00FFA9;stroke-width:2;stroke-miterlimit:10;}
	.st42{fill:#8E5F53;}
	.st43{fill:#634137;}
	.st44{fill:#F6A9CB;}
	.st45{fill:none;stroke:#6000FF;stroke-miterlimit:10;}
	.st46{fill:none;stroke:#F0ED00;stroke-miterlimit:10;}
	.st47{fill:none;stroke:#F0ED00;stroke-width:2;stroke-miterlimit:10;}
	.st48{fill:#A5A5A5;}
	.st49{fill:#7C7C7C;}
	.st50{display:none;}
	.st51{display:inline;}
	.st52{fill:none;stroke:#000000;stroke-width:2;stroke-miterlimit:10;}
	.st53{font-family:'IBMPlexMono-Text';}
	.st54{font-size:20px;}
	.st55{display:inline;fill:#FFFFFF;stroke:#231F20;stroke-width:2;stroke-miterlimit:10;}
	.st56{display:inline;opacity:0.12;fill:#0097DD;}
	.st57{display:inline;opacity:0.12;fill:#FF76EB;}
	.st58{display:inline;fill:#FF0020;}
	.st59{display:inline;fill:#6000FF;}
	.st60{display:inline;fill:#FF76EB;}
	.st61{display:inline;fill:#FDFF00;}
	.st62{display:inline;fill:#FB6700;}
	.st63{display:inline;fill:#FFFFFF;}
	.st64{display:inline;stroke:#000000;stroke-miterlimit:10;}
	.st65{display:inline;fill:#FFD400;}
	.st66{display:inline;fill:#EB7000;}
	.st67{display:inline;fill:#231F20;}
	.st68{display:inline;fill:#00FFA9;}
	.st69{display:inline;opacity:0.35;fill:#0097DD;}
	.st70{display:inline;opacity:0.35;}
	.st71{display:inline;opacity:0.35;fill:#0097DD;stroke:#0097DD;stroke-width:3;stroke-miterlimit:10;}
	.st72{fill:none;stroke:#000000;stroke-width:3;stroke-miterlimit:10;}
	.st73{fill:#606060;}
</style>
<g id="Layer_5">
	<rect x="-12.9" y="-1463.3" class="st0" width="3863.3" height="2193"/>
</g>
<g id="Layer_9">
	<path class="st2" d="M1254.1,93.6c-29.2-9.6-69.1-26.9-84.1,17.9c-24.4,73.2-123.5,72.9-147.5,125.2
		c-33.3,72.6-103.1,82.9-150.5,98.6c-27.4,9.1-90.2,42.7-107.9,88.1c-16.7,42.6-29.1,74-96.5,88.5c-45.6,9.8-53.9,37.8-63.8,48.8
		c-23.1,13-48.1,22.2-74.3,27.3"/>
	<path class="st1" d="M1114.9,464.5c-26,23.1-59,58.2-104.6,27.1c-74.4-50.8-183,63.5-243.4,30.5c-83.9-45.8-163.7-37.2-226.3-26.7
		c-36.2,6.1-59.3,9.2-108.3-21c-46.1-28.3-95.3,44.4-174.7-20.5c-27.9-15.9-50.9-33.9-68.9-44.7c-17.5-10.5-37.6-16-58.1-15.9
		c-43.2,0.3-111.8,4.2-137.8,11.3"/>
</g>
<g id="Layer_11">
	<g>
		<path class="st4" d="M514.3,558.5v134.2c0,22.6-15.5,41-34.7,41H-47.2c-19.2,0-34.7-18.4-34.7-41V476.5c0-22.6,15.5-41,34.7-41
			h228.7c19.2,0,34.7,18.4,34.7,41v0c0,22.6,15.5,41,34.7,41h228.7C498.8,517.5,514.3,535.8,514.3,558.5z"/>
	</g>
	<path class="st4" d="M1280-59.9L1280-59.9c0,33.1-26.8,59.9-59.9,59.9L919,0c-8.2,0-14.8,6.6-14.8,14.8v106.6h1v295.4
		c0,8.2-6.6,14.8-14.8,14.8H272.1c-8.2,0-14.8-6.6-14.8-14.8V136.1c0-8.2,6.6-14.8,14.8-14.8h219.6c8.2,0,14.8-6.6,14.8-14.8V-26.7
		c0-1.5-0.2-3-0.7-4.5c-1.4-4.4-2.2-9.1-2.2-13.9v-14.8c0-33.1,26.8-59.9,59.9-59.9h656.8C1253.2-119.7,1280-92.9,1280-59.9z"/>
	<path class="st7" d="M816-12c1.8-2.4,1.5-5.6-0.4-7.2c-2.2-1.9-5.6-0.6-7.2,0.9c-1.4,1.2-2.8,3.6-2.1,5.8c0.8,2.6,4.2,4.4,7.9,3.3
		c-2.5-0.4-5,0.8-6.2,2.8c-1.5,2.6-0.6,5.8,1.4,7.6c2,1.8,5.1,2.2,7.2,0.9c2.8-1.7,3.7-6.3,1.1-9.9c0.6,0.9,1.9,2.8,4.2,3.9
		c2.8,1.3,7.5,1.5,8.8-1.1c1.1-2.1-0.3-5.7-3-7c-2.7-1.4-6.4-0.4-8.5,2.6c4.7-0.7,7.4-3.7,7-5.8c-0.3-2-3.5-3.9-6.3-3.2
		C817.5-17.6,815.6-14.9,816-12z"/>
	<path class="st6" d="M509.2,374.2H100.4c-43.4,0-78.6-35.2-78.6-78.6V183.8c0-43.4,35.2-78.6,78.6-78.6h408.7
		c43.4,0,78.6,35.2,78.6,78.6v111.9C587.8,339,552.6,374.2,509.2,374.2z"/>
	<path class="st7" d="M594.3,72.4c1.8-2.4,1.5-5.6-0.4-7.2c-2.2-1.9-5.6-0.6-7.2,0.9c-1.4,1.2-2.8,3.6-2.1,5.8
		c0.8,2.6,4.2,4.4,7.9,3.3c-2.5-0.4-5,0.8-6.2,2.8c-1.5,2.6-0.6,5.8,1.4,7.6c2,1.8,5.1,2.2,7.2,0.9c2.8-1.7,3.7-6.3,1.1-9.9
		c0.6,0.9,1.9,2.8,4.2,3.9c2.8,1.3,7.5,1.5,8.8-1.1c1.1-2.1-0.3-5.7-3-7c-2.7-1.4-6.4-0.4-8.5,2.6c4.7-0.7,7.4-3.7,7-5.8
		c-0.3-2-3.5-3.9-6.3-3.2C595.7,66.7,593.9,69.4,594.3,72.4z"/>
	<path class="st7" d="M853.2,196.9c1.8-2.4,1.5-5.6-0.4-7.2c-2.2-1.9-5.6-0.6-7.2,0.9c-1.4,1.2-2.8,3.6-2.1,5.8
		c0.8,2.6,4.2,4.4,7.9,3.3c-2.5-0.4-5,0.8-6.2,2.8c-1.5,2.6-0.6,5.8,1.4,7.6c2,1.8,5.1,2.2,7.2,0.9c2.8-1.7,3.7-6.3,1.1-9.9
		c0.6,0.9,1.9,2.8,4.2,3.9c2.8,1.3,7.5,1.5,8.8-1.1c1.1-2.1-0.3-5.7-3-7c-2.7-1.4-6.4-0.4-8.5,2.6c4.7-0.7,7.4-3.7,7-5.8
		c-0.3-2-3.5-3.9-6.3-3.2C854.7,191.2,852.8,193.9,853.2,196.9z"/>
	<path class="st7" d="M745.6,298.6c1.8-2.4,1.5-5.6-0.4-7.2c-2.2-1.9-5.6-0.6-7.2,0.9c-1.4,1.2-2.8,3.6-2.1,5.8
		c0.8,2.6,4.2,4.4,7.9,3.3c-2.5-0.4-5,0.8-6.2,2.8c-1.5,2.6-0.6,5.8,1.4,7.6c2,1.8,5.1,2.2,7.2,0.9c2.8-1.7,3.7-6.3,1.1-9.9
		c0.6,0.9,1.9,2.8,4.2,3.9c2.8,1.3,7.5,1.5,8.8-1.1c1.1-2.1-0.3-5.7-3-7c-2.7-1.4-6.4-0.4-8.5,2.6c4.7-0.7,7.4-3.7,7-5.8
		c-0.3-2-3.5-3.9-6.3-3.2C747,292.9,745.2,295.6,745.6,298.6z"/>
	<path class="st7" d="M865.8,356.6c1.8-2.4,1.5-5.6-0.4-7.2c-2.2-1.9-5.6-0.6-7.2,0.9c-1.4,1.2-2.8,3.6-2.1,5.8
		c0.8,2.6,4.2,4.4,7.9,3.3c-2.5-0.4-5,0.8-6.2,2.8c-1.5,2.6-0.6,5.8,1.4,7.6c2,1.8,5.1,2.2,7.2,0.9c2.8-1.7,3.7-6.3,1.1-9.9
		c0.6,0.9,1.9,2.8,4.2,3.9c2.8,1.3,7.5,1.5,8.8-1.1c1.1-2.1-0.3-5.7-3-7c-2.7-1.4-6.4-0.4-8.5,2.6c4.7-0.7,7.4-3.7,7-5.8
		c-0.3-2-3.5-3.9-6.3-3.2C867.2,351,865.4,353.7,865.8,356.6z"/>
	<path class="st7" d="M585.1,384.2c1.8-2.4,1.5-5.6-0.4-7.2c-2.2-1.9-5.6-0.6-7.2,0.9c-1.4,1.2-2.8,3.6-2.1,5.8
		c0.8,2.6,4.2,4.4,7.9,3.3c-2.5-0.4-5,0.8-6.2,2.8c-1.5,2.6-0.6,5.8,1.4,7.6c2,1.8,5.1,2.2,7.2,0.9c2.8-1.7,3.7-6.3,1.1-9.9
		c0.6,0.9,1.9,2.8,4.2,3.9c2.8,1.3,7.5,1.5,8.8-1.1c1.1-2.1-0.3-5.7-3-7c-2.7-1.4-6.4-0.4-8.5,2.6c4.7-0.7,7.4-3.7,7-5.8
		c-0.3-2-3.5-3.9-6.3-3.2C586.5,378.6,584.7,381.3,585.1,384.2z"/>
	<path class="st5" d="M-5,573.5c8.4,2.4,20.6,6.5,34.1,14.1c19.3,10.8,27.9,20.9,40.4,30.5c0,0,25.4,19.5,63.2,27.5
		c47.6,10.1,59.3-20.7,121.8-26.4c16.8-1.5,80.6-7.3,124.1,34c22.2,21,31.2,46.7,35.1,62.8c-139.6,0-279.2,0-418.8,0
		C-5,668.4-5,621-5,573.5z"/>
</g>
<g id="Layer_1">
	<g>
		<g>
			<polygon class="st14" points="1257.2,455.3 1265.5,450 1269.9,467.4 1273.7,500.5 1290.7,558.6 1286.7,580.1 1312.8,570.7 
				1303.1,555.2 1288.4,471.8 1320.6,571.3 1342.6,564.2 1332.8,546 1304.1,468.8 1356.1,458.9 1378.4,539.2 1377,557.9 
				1398.7,549.7 1390.4,534.6 1374.4,450.2 1400.6,530.2 1406.6,547.5 1430.8,544 1413.4,529.4 1398.8,447.5 1384.9,398.7 
				1385.2,364.9 1377.6,315.5 1383.2,278.1 1381.4,242.3 1388.4,233.8 1416.3,234.1 1439.6,236.5 1412.7,207.1 1392.8,196.7 
				1380,200.4 1377.2,172.7 1367.9,177.8 1374.1,196.1 1351.9,192.8 1354.5,207.2 1369.9,214.8 1365.7,222.8 1358.1,280.6 
				1339.8,380.2 1316.4,395.8 1271,429.9 1270.4,441 1265,440.3 1243.8,484.3 			"/>
		</g>
	</g>
	<g>
		<g>
		</g>
	</g>
	<path class="st12" d="M1256,112.2c3.1-10.4,15.1-11.5,20.9-23.7c13.1-27.1,27-9.6,29.8-21.7c1.5-6.3,3.4-9.5,6.7-12.4
		c7.1-6.4,27.6,2.7,54.3,7.9c7.7,1.5,19.4,4.5,54.8,0.2c9.9-1.2,13.2-6.9,25.1-9.6c7.4-1.7,28-6.5,35.5,2.5
		c4.4,5.3,0.4,10.6,3.7,16.7c4.1,7.7,22.3-0.9,33.7-0.8c6.4,0.1,16.8,6.5,22.1,9.9c18.7,11.9,11.2,55.1-7.3,70.4
		c-7.2,5.9-17.4,7.7-56.9,0.5c-52.9-9.6-57.4-16.8-83-20.3c-66.5-9.1-105.8,29.8-129.5,8.1C1259,133.7,1253.2,121.9,1256,112.2z"/>
	<path class="st4" d="M1510.6,693.5h-195.5c-26.6,0-48.2-21.6-48.2-48.2V470.6c0-26.6,21.6-48.2,48.2-48.2h195.5
		c26.6,0,48.2,21.6,48.2,48.2v174.7C1558.8,671.9,1537.3,693.5,1510.6,693.5z"/>
	<g id="Layer_8">
	</g>
	<g>
		<path class="st19" d="M201.9,585.8c-5.2,4.6-11,9.7-19.4,10.8c-7.3,0.9-8.8-2.1-29.6-5.8c-7.7-1.4-15.6-1.5-23.4-0.3
			c-26.1,3.8-28.5,3.8-31.5,2.4c-5.9-2.7-11.7-9.3-10-13.9c1.7-4.6,10.4-5.2,11.3-5.2c-4.7,0.2-18.3,0-28.6-9.8
			c-5.5-5.3-12.1-15.4-8.9-20.8c3.6-6.1,17.8-2.6,18.9-6.8c0.9-3.4-8.6-6.1-9.2-12.6c-0.6-6.5,8.2-13.1,15.5-15.5
			c12.2-3.8,23,3.6,24.7,4.7c0-0.4,0.7-6.7,5.8-9.2c5.1-2.4,11.4,0.8,14.2,5.3c0.9,1.5,1.5,3.3,1.6,5.1c0.8-3.2,2.4-6.2,4.7-8.5
			c2.1-1.9,4.6-3.4,7.3-4.3c2.7-0.9,5.6-1.1,8.4-0.7c7.6,1.3,14.5,7.6,15.2,15.7c0.3,4.2-0.9,8.4-3.5,11.8c2.6-2.9,5.9-5.2,9.5-6.8
			c5.5-2.3,16.4-4.7,22.1,1c6.5,6.6,2.2,20.3-3.2,27.8c-2.3,3.2-5.1,5.9-8.4,7.9c2.1-0.5,4.2-0.7,6.4-0.6
			c8.9,0.4,19.8,5.9,20.4,13.4C212.6,576.3,207.7,580.6,201.9,585.8z"/>
		<path class="st20" d="M147,576.3h-10.6v79.8H147V576.3z"/>
		<path class="st19" d="M141,584.2c12.1,0,21.9-8,21.9-18s-9.8-18-21.9-18c-12.1,0-21.9,8-21.9,18S128.9,584.2,141,584.2z"/>
	</g>
	<g>
		<path class="st19" d="M345.4,595.7c-2.8,2.4-5.8,5.1-10.3,5.7c-3.8,0.5-4.7-1.1-15.7-3.1c-4.1-0.8-8.3-0.8-12.4-0.1
			c-13.8,2-15.1,2-16.7,1.3c-3.1-1.5-6.2-4.9-5.3-7.4c0.9-2.4,5.5-2.8,6-2.8c-2.5,0.1-9.7,0-15.1-5.2c-2.9-2.8-6.4-8.1-4.7-11
			c1.9-3.2,9.4-1.4,10-3.6c0.5-1.8-4.6-3.2-4.9-6.7c-0.3-3.4,4.3-7,8.2-8.2c6.5-2,12.2,1.9,13.1,2.5c0-0.2,0.4-3.6,3.1-4.9
			c2.7-1.3,6.1,0.4,7.5,2.8c0.5,0.8,0.8,1.7,0.9,2.7c0.4-1.7,1.3-3.3,2.5-4.5c1.1-1,2.4-1.8,3.9-2.3c1.4-0.5,3-0.6,4.5-0.4
			c4,0.7,7.7,4,8.1,8.3c0.2,2.2-0.5,4.5-1.8,6.3c1.4-1.6,3.1-2.8,5-3.6c2.9-1.2,8.7-2.5,11.7,0.5c3.5,3.5,1.2,10.8-1.7,14.7
			c-1.2,1.7-2.7,3.1-4.5,4.2c1.1-0.3,2.2-0.4,3.4-0.3c4.7,0.2,10.5,3.1,10.8,7.1C351,590.7,348.4,593,345.4,595.7z"/>
		<path class="st20" d="M316.3,590.7h-5.6v42.3h5.6V590.7z"/>
		<path class="st19" d="M313.1,594.9c6.4,0,11.6-4.3,11.6-9.5c0-5.3-5.2-9.5-11.6-9.5c-6.4,0-11.6,4.3-11.6,9.5
			C301.5,590.6,306.7,594.9,313.1,594.9z"/>
	</g>
	<path class="st5" d="M727.2,408.1l-195,302.7c-8.4,13,1,30.2,16.5,30.2h390.1c15.5,0,24.9-17.2,16.5-30.2l-195-302.7
		C752.4,396.1,734.9,396.1,727.2,408.1z"/>
	<path class="st4" d="M903.8,560.8l-84.2,145.8c-7.5,13.1,1.9,29.4,17,29.4h168.4c15.1,0,24.5-16.3,17-29.4l-84.2-145.8
		C930.2,547.7,911.3,547.7,903.8,560.8z"/>
	<path class="st5" d="M1098.9,465.9L924.6,736.3c-8.4,13,1,30.2,16.5,30.2h348.5c15.5,0,24.9-17.2,16.5-30.2l-174.2-270.4
		C1124.1,453.9,1106.6,453.9,1098.9,465.9z"/>
</g>
<g id="Layer_2">
	<g>
		<path class="st10" d="M-37.5,145.4c-11.2-33.8,56-231.9,79.8-261.8c11.7-14.7,30.2-37.9,60.8-53.3c72.7-36.7,111,22.2,263,26.7
			c24.5,0.7,59.2,0.3,90.4,23c21.2,15.4,22.9,28.6,43.7,51.1C538-27.9,536,55.7,534.3,90.1c-0.7,14.8-5.7,29.1-14.3,41.2
			c-29.9,41.5-109.2,110.6-245.6,115.1C127.1,251.2-21,195.4-37.5,145.4z"/>
	</g>
</g>
<g id="Layer_3">
	<g>
		<path class="st21" d="M29.3,651.7c-0.3,1.7-0.9,4.5,0.8,7.2c1.6,2.6,4.1,3.4,5.1,3.7c0.9,0.2,2.3,0.6,3.8,0
			c1.1-0.5,1.8-1.2,2.2-1.7c1.3,1.3,2.6,3,2.2,4.3c-0.3,0.8-0.9,0.8-1.8,1.8c-1.2,1.4-2.1,3.8-1.2,4.9c0.2,0.3,0.7,0.7,3.4,0.6
			c2.9-0.1,4.3-0.7,6.5-1.1c3.1-0.5,5.5-0.3,6.9-0.2c3.7,0.4,5.5,0.6,6.9,1.2c0.4,0.2,1.5,0.7,2.6,0.5c0.7-0.2,1.2-0.6,1.5-0.9
			c0.2-0.7,0.4-2.2-0.2-4c-0.7-2.3-2.4-3.5-3.1-4c-1.4-0.9-2.7-1.1-3.4-1.2c2.3-1.5,9.9-7.2,10.5-15.8c0.1-1,0-2.2-0.2-3.4
			c4.5,2.6,9.1,3.1,11.5,1.1c0.3-0.3,1.7-1.5,1.8-3.4c0.1-1.8-1-3.3-2-4c-1.1-0.8-1.6-0.3-3.7-1.1c-1.1-0.4-3-1.2-4.5-2.3
			c-1.8-1.4-2-1.7-2.8-3.1c-1.3-2.1-2.6-5.9-2.9-8.5c5.3,3.3,16.3,4.6,18.9,1.3c0.4-0.5,1.1-1.7,0.5-5.9c-0.6-4.4-2-14.1-10.9-19.9
			c-5-3.3-10.1-3.8-12.9-3.9c-1.8-3.2-3.8-5.1-5.3-6.3c-2.1-1.7-3.5-2.1-6.8-4.8c-1.9-1.6-2.9-2.4-3.5-3.4c-1.5-2.2-1.2-3.6-3.1-6.6
			c-1-1.7-1.8-2.9-2.7-2.9c-1.5,0-2.5,2.6-3.2,4.2c-0.9,2.1-2.1,5-1.3,8.2c0.4,1.7,1,1.7,4.2,6.6c2.7,4.1,2.4,4.3,3.9,6
			c1.5,1.7,3.5,4,6.8,5c1.7,0.5,3.2,0.5,4.2,0.5c-0.2,0.7-0.7,1.7-1.5,2.6c-0.8,0.8-2.8,2.3-11.5,1.5c-5.1-0.4-5.4-1-8.3-0.8
			c-1.6,0.2-7.1,0.7-8,3.5c-0.6,1.9,1.2,4,2.2,5.1c2.3,2.7,5.2,3.6,9.1,4.8c2.1,0.6,4.1,1.3,6.9,1.4c2.1,0.1,4.6,0.2,7.4-1.1
			c1.8-0.8,3.1-1.8,3.8-2.6c0,1.1-3.1,8.5-5.3,13c-0.5,1.1-1.2,2.1-2,3c-2.6,3-9.1,10.5-9.4,10.8c0,0,0,0,0,0
			c-0.5,0.5-0.9,1-1.2,1.7c-0.6,1.2-0.7,2.3-0.8,3.1c-0.5-0.4-2.9-2.5-5.4-1.8C30.6,645.4,29.7,649.9,29.3,651.7z"/>
		<g>
			<path class="st12" d="M70.3,614.3c0.2-2,3.3-3.7,5.3-2.6c0.6,0.3,1.1,0.8,1.4,1.5c0.3,0.6,0.4,1.3,0.3,2
				c-0.1,0.5-0.3,0.9-0.6,1.3c-0.2,0.3-0.5,0.6-0.9,0.8c-0.4,0.3-0.9,0.5-1.4,0.6C72.4,618.2,70.2,616.1,70.3,614.3z"/>
			<path d="M74,617.8c-0.7-0.7-0.8-2.1-0.2-3.5s1.6-2.2,2.6-2.3c1,1,1.7,2.6,0.8,3.9c0,0-0.1,0.1-0.1,0.2c-0.1,0.1-0.1,0.2-0.2,0.3
				c-0.2,0.3-0.5,0.6-0.8,0.7c-0.4,0.2-0.8,0.4-1.3,0.5c-0.1,0-0.3,0-0.5,0.1C74.2,617.8,74.1,617.8,74,617.8z"/>
		</g>
		<path class="st30" d="M88.8,621.7c0.3,0.4-0.3,1.4-0.5,1.7c-0.3,0.4-0.6,1-1.2,1.1c-1.1,0.3-2.5-0.8-2.4-1.6
			C84.8,621.9,88.3,621,88.8,621.7z"/>
		<g>
			<path class="st12" d="M79.1,610.3c0.2-1.8,2.9-3.3,4.8-2.3c0.5,0.3,1,0.8,1.3,1.3c0.3,0.6,0.4,1.2,0.3,1.8
				c-0.1,0.4-0.2,0.8-0.5,1.2c-0.2,0.3-0.5,0.5-0.8,0.7c-0.4,0.3-0.8,0.4-1.3,0.5C80.9,613.8,79,611.9,79.1,610.3z"/>
			<path d="M82.4,613.4c-0.6-0.6-0.7-1.9-0.2-3.1s1.5-2,2.3-2c0.9,0.9,1.5,2.3,0.7,3.5c0,0-0.1,0.1-0.1,0.2
				c-0.1,0.1-0.1,0.2-0.2,0.3c-0.2,0.3-0.4,0.5-0.7,0.7c-0.3,0.2-0.7,0.4-1.1,0.5c-0.1,0-0.3,0-0.4,0.1
				C82.6,613.5,82.5,613.5,82.4,613.4z"/>
		</g>
	</g>
	<g>
		<path class="st21" d="M213,646.9c-0.3,1.3-0.7,3.5,0.6,5.6c1.2,2,3.2,2.7,3.9,2.9c0.7,0.2,1.8,0.5,3,0c0.9-0.4,1.4-1,1.7-1.3
			c1,1,2,2.3,1.7,3.3c-0.2,0.6-0.7,0.6-1.4,1.4c-1,1.1-1.6,3-1,3.8c0.2,0.2,0.6,0.6,2.6,0.5c2.2-0.1,3.3-0.5,5-0.8
			c2.4-0.4,4.3-0.2,5.4-0.1c2.9,0.3,4.3,0.4,5.4,1c0.3,0.2,1.1,0.6,2,0.4c0.6-0.1,0.9-0.5,1.2-0.7c0.1-0.6,0.3-1.7-0.1-3.1
			c-0.6-1.8-1.8-2.7-2.4-3.1c-1-0.7-2.1-0.9-2.6-1c1.8-1.2,7.7-5.6,8.1-12.3c0.1-0.8,0-1.7-0.1-2.6c3.5,2,7.1,2.4,9,0.8
			c0.2-0.2,1.3-1.1,1.4-2.6c0.1-1.4-0.7-2.5-1.6-3.1c-0.9-0.6-1.2-0.2-2.9-0.8c-0.9-0.3-2.4-0.9-3.5-1.8c-1.4-1.1-1.5-1.3-2.2-2.4
			c-1-1.6-2-4.6-2.2-6.6c4.1,2.6,12.7,3.6,14.7,1c0.3-0.4,0.9-1.3,0.4-4.6c-0.5-3.4-1.6-10.9-8.4-15.5c-3.9-2.6-7.9-3-10-3
			c-1.4-2.5-3-4-4.1-4.9c-1.7-1.3-2.7-1.7-5.3-3.8c-1.5-1.2-2.2-1.8-2.8-2.6c-1.2-1.7-1-2.8-2.4-5.1c-0.8-1.4-1.4-2.3-2.1-2.3
			c-1.1,0-2,2-2.5,3.3c-0.7,1.7-1.6,3.9-1,6.4c0.3,1.3,0.7,1.3,3.3,5.1c2.1,3.2,1.9,3.3,3,4.6c1.2,1.3,2.7,3.1,5.3,3.9
			c1.3,0.4,2.5,0.4,3.3,0.4c-0.2,0.6-0.5,1.4-1.2,2c-0.6,0.6-2.2,1.8-9,1.2c-4-0.3-4.2-0.8-6.4-0.6c-1.2,0.1-5.5,0.5-6.2,2.7
			c-0.4,1.5,0.9,3.1,1.7,3.9c1.8,2.1,4,2.8,7,3.7c1.6,0.5,3.2,1,5.4,1.1c1.6,0.1,3.6,0.1,5.7-0.8c1.4-0.6,2.4-1.4,3-2
			c0,0.8-2.4,6.6-4.1,10.1c-0.4,0.8-0.9,1.6-1.6,2.3c-2.1,2.3-7.1,8.1-7.3,8.4c0,0,0,0,0,0c-0.4,0.4-0.7,0.8-0.9,1.3
			c-0.4,0.9-0.6,1.8-0.6,2.4c-0.4-0.3-2.2-1.9-4.2-1.4C213.9,642,213.3,645.5,213,646.9z"/>
		<g>
			<path class="st12" d="M244.8,617.8c0.1-1.6,2.5-2.9,4.1-2c0.5,0.3,0.8,0.7,1.1,1.1c0.2,0.5,0.3,1,0.2,1.6c-0.1,0.4-0.2,0.7-0.4,1
				c-0.2,0.2-0.4,0.4-0.7,0.6c-0.3,0.2-0.7,0.4-1.1,0.4C246.4,620.8,244.7,619.2,244.8,617.8z"/>
			<path d="M247.7,620.5c-0.5-0.5-0.6-1.6-0.2-2.7c0.4-1.1,1.3-1.7,2-1.7c0.8,0.8,1.3,2,0.6,3c0,0-0.1,0.1-0.1,0.1
				c-0.1,0.1-0.1,0.2-0.2,0.3c-0.2,0.2-0.4,0.4-0.6,0.6c-0.3,0.2-0.6,0.3-1,0.4c-0.1,0-0.3,0-0.4,0
				C247.9,620.5,247.8,620.5,247.7,620.5z"/>
		</g>
		<path class="st30" d="M259.2,623.6c0.2,0.3-0.2,1.1-0.4,1.3c-0.2,0.3-0.5,0.8-0.9,0.9c-0.8,0.2-2-0.6-1.9-1.2
			C256.1,623.7,258.8,623,259.2,623.6z"/>
		<g>
			<path class="st12" d="M251.6,614.7c0.1-1.4,2.3-2.6,3.7-1.8c0.4,0.2,0.8,0.6,1,1c0.2,0.4,0.3,0.9,0.2,1.4
				c-0.1,0.3-0.2,0.6-0.4,0.9c-0.2,0.2-0.4,0.4-0.6,0.6c-0.3,0.2-0.6,0.3-1,0.4C253.1,617.4,251.5,616,251.6,614.7z"/>
			<path d="M254.2,617.1c-0.5-0.5-0.6-1.5-0.2-2.4c0.4-1,1.1-1.6,1.8-1.6c0.7,0.7,1.2,1.8,0.6,2.7c0,0-0.1,0.1-0.1,0.1
				c0,0.1-0.1,0.2-0.2,0.2c-0.1,0.2-0.3,0.4-0.5,0.5c-0.3,0.2-0.6,0.3-0.9,0.4c-0.1,0-0.2,0-0.3,0
				C254.4,617.2,254.3,617.2,254.2,617.1z"/>
		</g>
	</g>
</g>
<g id="Layer_4">
	<g>
		<g>
			<g>
				<path class="st48" d="M856,57.6c-1.8-1.6-4.1-2-6-2.1c-2.2-2.9-5.6-6.9-10.5-10.5c-12-8.9-24.8-10-37.6-10.9
					c-14.3-1-12.5,1.5-39.4,2.3c0,0-6.1,0.2-23,3.3c-1.1,0.2-3.6,0.7-6.6,2.1c-2.1,1-3.6,2.1-4.6,2.9c-3.3-1-8.5-3.2-11.3,0.7
					c-3.4,4.6-5.4,10.3-12.6,17.8C697,70.5,690.2,68.1,686,76c-2,3.8-2.5,8.1-2.6,9.4c-0.3,3-0.6,6.5,1.2,10.2
					c1.6,3.3,5.3,8,10.1,7.9c1.5,0,2.7-0.5,3.5-1c2.5,1,7.2,2.4,12.9,1.4c4.5-0.8,11.5-3.6,11.9-7.2c0.1-0.6,0-2,0.9-3.5
					c0.6-1,1.3-1.7,1.8-2.1c6.3,0.3,7.9,4.6,9.1,9.9c0.4,1.6,0.1,3.5,0.4,5.6c0.6,4.1,0.2-2.1,0.7,7.9c0,1,0.1,4.8,0.5,4.5
					c0,0.9-0.1,2.6-0.2,4.6c-0.3,7.4-0.5,7.9,0,8.6c3,4.6,11.5,2.7,14.8,2c4.3-1,5.3-2.4,5.7-2.9c1.3-2,0.7-4.3,0.2-7.2
					c-0.6-3.2-1.3-7.7-1.6-13.5c11.5,0,21.1,0.4,29.1,0.9c0.6-0.2,1.3-0.4,1.9-0.3c3,0.1,5.9,0.7,8.8,1.3c1.5,0.2,2.9,0.3,4.2,0.5
					c0.2,0,0.4,0.1,0.6,0.1c3.2,0.1,6.4-0.3,9.6-0.7c3.8-0.5,7.6-1.2,11.3-0.5c3.2,0.1,6.3,1.6,7.3,4.9c0.1,0.3,0.2,0.6,0.2,0.9
					c0.1,0.2,0.2,0.4,0.2,0.6c0.5,1.3,0.6,2.8,0.6,4.2c0.1,1.6-0.1,3.2-0.5,4.7c0,0,0,0.1,0,0.1c0,0.2,0.1,0.3,0.1,0.5
					c0.1,0.4,0.2,0.8,0.3,1.2c0.4,1.2,1.3,2.2,2.6,2.5c8.1,2.4,14.8,2,17-1.4c0.4-0.6,0.7-1.3,0.8-2.3c0.2-10.5,0-21.7-1-33.4
					c-0.2-2.8-0.5-5.6-0.8-8.4c1.7-3.1,4.3-8.6,4.7-16c0.2-4.1-0.3-7.6-1-10.1c2.8,1,3.8,2.4,4.3,3.3c2.2,4.5-3.7,9.6-2.1,17.8
					c0.3,1.4,0.6,3.1,1.2,3.1C856.9,84.1,863.5,64.1,856,57.6z"/>
				<ellipse transform="matrix(0.866 -0.5 0.5 0.866 74.22 363.0772)" class="st49" cx="714.6" cy="43" rx="4.5" ry="5.9"/>
				<ellipse transform="matrix(0.5 -0.866 0.866 0.5 326.9131 654.8178)" class="st49" cx="730.5" cy="44.3" rx="5.9" ry="4.5"/>
			</g>
			<path class="st49" d="M683.3,87c0.4-0.1-2.3,11.1,8.2,15.7c2.4,1,4.9,0.3,6.7-0.4c0.6,0.2,1.3,0.5,2.3,0.8c3.1,0.9,5.6,1,6.8,1
				c4.6,0,8-1.5,10.2-2.4c2.6-1.1,4.3-1.9,4.9-3.6c0.2-0.7,0.2-1.3,0.8-3.2c0.5-1.5,0.7-2,1.1-2.5c0.5-0.7,0.9-0.8,1.4-1.5
				c0.6-0.8,0.9-1.7,1.1-2.4c-1.3-0.2-3.3-0.2-5.2,0.8c-1.7,0.9-2,1.9-4.6,4.5c-2.3,2.3-3.5,3.4-5,3.9c-3,0.9-6-0.7-7.2-1.3
				c-2.6-1.3-2.8-2.5-5-2.9c-1.6-0.3-2.9,0.1-4.7,0.6c-3,0.8-3.2,1.6-4.9,1.6c-2.5,0-4.2-1.8-4.6-2.1C684.3,92.5,683.1,87,683.3,87z
				"/>
			<path class="st49" d="M753.5,133.3c0.8-0.7,0.3-2.5,0-3.4c-0.4-1.2-0.8-2.6-1.5-2.7c-0.8-0.1-1.9,1.4-2.6,3.6
				c0.4-1.1,0.1-2.2-0.7-2.9c-0.6-0.5-1.4-0.7-2.1-0.5c-1.1,0.4-1.8,1.8-1.5,3.3c0-0.4,0-1.5-0.8-2.5c-0.3-0.3-0.8-1-1.4-1
				c-0.9,0-1.8,1.4-2.2,3.5c0-0.4,0.1-1.4-0.6-2.3c-0.2-0.3-0.8-1.2-1.6-1.3c-1-0.1-2.2,1.1-2.5,3.1c0,0.4-0.1,1.1,0.3,1.9
				c0.1,0.2,0.5,0.9,1.8,1.7c1.3,0.8,2.5,1,3.3,1.1c2.8,0.4,5.1,0,8.5-0.6c1.7-0.3,0.9-0.3,2.8-0.7
				C753.1,133.5,753.3,133.5,753.5,133.3z"/>
			<path class="st49" d="M830.4,130.6c-0.5-0.8,0-2,0.6-3.2c0.6-1.3,1.1-2.3,1.8-2.3c0.7,0,1.2,0.8,1.5,1.3c0.8,1.2,0.9,2.5,0.9,3.3
				c0-0.9,0.1-2.1,0.8-3.2c0.3-0.4,0.6-1,1.2-1c0.7-0.1,1.2,0.6,1.5,0.8c1,1.2,0.9,2.7,0.8,3.3c-0.1-0.6-0.1-1.8,0.6-2.9
				c0.3-0.4,0.8-1.3,1.5-1.3c0.9,0,1.5,1.2,1.8,1.8c0.5,1,0.5,1.9,0.5,2.4c0-0.2-0.4-2,0.9-3.3c0.3-0.3,0.7-0.8,1.3-0.8
				c0.7,0,1.2,0.8,1.5,1.4c0.4,0.7,1.5,2.3,0.8,3.6c-0.2,0.5-0.6,0.7-1.2,1.1c-1.4,0.9-2.8,1.1-3.5,1.2c-0.5,0.1-2.1,0.3-5.2,0.1
				c-0.9-0.1-2.9-0.5-7-1.4C831.3,131.2,830.7,131.1,830.4,130.6z"/>
		</g>
		<path class="st12" d="M724.1,66.4c-0.5-0.2-1-0.5-1.4-0.8c-0.3-0.3-0.6-0.6-0.8-1c-0.3-0.5-0.4-1-0.4-1.5c0-0.8,0.2-1.5,0.7-2.2
			c0.4-0.6,1.1-1.1,1.8-1.4c2.5-0.8,5.6,1.5,5.5,3.8C729.2,65.3,726.4,67.2,724.1,66.4z"/>
		<path class="st13" d="M724.3,66.4c-0.1-0.1-0.3-0.1-0.5-0.1c-0.5-0.2-0.9-0.5-1.3-0.8c-0.3-0.3-0.6-0.6-0.7-1
			c-0.1-0.1-0.1-0.3-0.2-0.4c0,0-0.1-0.2-0.1-0.2c-0.7-1.6,0.3-3.2,1.6-4.1c1.1,0.2,2.1,1.3,2.5,2.9c0.4,1.6,0,3.1-0.9,3.8
			C724.5,66.4,724.4,66.4,724.3,66.4z"/>
		<path class="st12" d="M712.6,66.4c-0.5-0.2-1-0.5-1.4-0.8c-0.3-0.3-0.6-0.6-0.8-1c-0.3-0.5-0.4-1-0.4-1.5c0-0.8,0.2-1.5,0.7-2.2
			c0.4-0.6,1.1-1.1,1.8-1.4c2.5-0.8,5.6,1.5,5.5,3.8C717.7,65.3,714.9,67.2,712.6,66.4z"/>
		<path class="st13" d="M712.8,66.4c-0.1-0.1-0.3-0.1-0.5-0.1c-0.5-0.2-0.9-0.5-1.3-0.8c-0.3-0.3-0.6-0.6-0.7-1
			c-0.1-0.1-0.1-0.3-0.2-0.4c0,0-0.1-0.2-0.1-0.2c-0.7-1.6,0.3-3.2,1.6-4.1c1.1,0.2,2.1,1.3,2.5,2.9c0.4,1.6,0,3.1-0.9,3.8
			C713,66.4,712.9,66.4,712.8,66.4z"/>
	</g>
	<g>
		<path class="st30" d="M352.6,616.3c0.2-6.6,0.5-16.8,8.4-23.2c8.4-6.9,19.4-4.7,21.3-4.3c3.3,0.7,10.9,2.2,15.4,9.2
			c3.5,5.5,3.7,12.3,1.9,17.3c-1.1,3.1-2,3-8.9,12.1c-4.3,5.7-6.4,8.6-7.3,10.5c-3.2,7.3-1.5,11.7-5.4,14.8c-2,1.6-4.6,2.3-6.7,2.2
			C361.3,654.2,352.1,634.1,352.6,616.3z"/>
		<path class="st7" d="M369.5,665.2c-1.3-2.4-5.2-3.5-8-2.6c-5.9,2.1-9.1,15.4-4.3,24.7c4.7,9.1,15.3,10.9,16.8,11.1
			c7.2,1.1,12.8-1.5,15.1-2.6c10.1-4.8,14.1-14.2,15.3-17.3c2.9-7.3,2.7-13.9,2.3-17.6c0.8,2,2,4.5,4,7.1c2.4,3.2,4.9,5.4,6.8,6.8
			c-0.1,1.8,1.8,2.9,1.9,6.3c0.5,11.1-3.4,25.6,4,29.8c0.3,0.2,9.1,1.3,13.6-1.2c7.1-3.9,3-20,9.1-22.2c1.5-0.5,1.8,0.5,5.1,0.9
			c9.3,1.1,15-6,17.6-4c1.4,1.1,0.2,3.5-0.3,12.2c-0.3,6.4-0.5,9.7,0.9,11.6c3.1,4.6,12.8,5.8,18.8,2c5.8-3.8,6.4-12.1,7.4-28.7
			c0.8-14.7,1.3-23-1.7-34.1c-3.2-11.9-6.1-22.3-14.8-28.4c-18.4-13-42,8.2-62.2-6.3c-6.1-4.4-6.9-8.4-13.6-10.2
			c-10.6-2.9-23.2,3.3-30.1,12.2c-0.7,0.9-10.1,13.2-6.3,23.9c0.3,1,2.3,4.2,6.3,10.8c3.7,6.1,4.5,7.1,6,10.2
			c2.7,5.6,4.2,8.7,3.7,12.8c-0.2,1.2-1,7.6-6,9.4c-3.7,1.3-8.6-0.4-9.9-3.4C364.9,674.1,371.6,669.2,369.5,665.2z"/>
		<path class="st30" d="M403.3,622.4c0.2-6.6,0.5-16.8,8.4-23.2c8.4-6.9,19.4-4.7,21.3-4.3c3.3,0.7,10.9,2.2,15.4,9.2
			c3.5,5.5,3.7,12.3,1.9,17.3c-1.1,3.1-2,3-8.9,12.1c-4.3,5.7-6.4,8.6-7.3,10.5c-3.2,7.3-1.5,11.7-5.4,14.8c-2,1.6-4.6,2.3-6.7,2.2
			C412,660.3,402.8,640.2,403.3,622.4z"/>
		<path class="st30" d="M496.8,644.4c-2.2,0.2-4.4-0.4-6.2-1.6c-0.3-0.2-0.6-0.5-0.7-0.8c-0.2-0.3-0.3-0.7-0.4-1
			c-0.1-0.4,0-0.7,0-1.1c0.1-0.4,0.2-0.7,0.5-1c1.1-1.3,2.8-2,4-3.3c0.7-0.7,1.2-1.6,1.3-2.6c0-1.2-1.1-1.8-2.1-2.3l-7.5-4.2
			c-1.5-0.9-2.7,1.6-1.3,2.4l4.4,2.5l2.1,1.2l1.2,0.7l0.5,0.3c0.2,0.1-0.1-0.3,0,0l-0.2-0.6c0.1,0.5-0.9,1.3-1.3,1.5
			c-0.4,0.3-1.3,1-2,1.5c-0.8,0.5-1.5,1.2-1.9,2.1c-0.4,0.8-0.7,1.8-0.7,2.8c0.1,1,0.5,1.9,1,2.8c0.5,0.8,1.3,1.5,2.1,2
			c2.2,1.1,4.7,1.6,7.1,1.5c1.7,0.1,1.6-2.6-0.1-2.7L496.8,644.4z"/>
		<g>
			<path class="st12" d="M376.8,649.4c-0.8-0.3-1.4-0.7-2-1.2c-0.4-0.4-0.8-0.9-1.1-1.5c-0.4-0.7-0.5-1.4-0.5-2.2c0-1.1,0.4-2.1,1-3
				c0.6-0.9,1.5-1.5,2.6-1.9c3.5-1.1,7.8,2.3,7.5,5.5C384,647.9,380,650.4,376.8,649.4z"/>
			<path class="st13" d="M377.1,649.3c-0.2-0.1-0.5-0.2-0.7-0.2c-0.7-0.3-1.3-0.7-1.8-1.2c-0.4-0.4-0.8-0.8-1-1.4
				c-0.1-0.2-0.2-0.4-0.2-0.6l-0.1-0.3c-0.9-2.3,0.6-4.5,2.4-5.7c0.8,0.4,1.6,1,2.2,1.7c0.6,0.7,1,1.6,1.2,2.5
				c0.2,0.9,0.2,1.9-0.1,2.8c-0.2,0.9-0.7,1.7-1.3,2.5C377.4,649.4,377.2,649.3,377.1,649.3z"/>
		</g>
		<g>
			<path class="st12" d="M393.1,649.9c-0.8-0.3-1.4-0.7-2-1.2c-0.4-0.4-0.8-0.9-1.1-1.5c-0.4-0.7-0.5-1.4-0.5-2.2c0-1.1,0.4-2.1,1-3
				c0.6-0.9,1.5-1.5,2.6-1.9c3.5-1.1,7.8,2.3,7.5,5.5C400.3,648.4,396.3,651,393.1,649.9z"/>
			<path class="st13" d="M393.4,649.8c-0.2-0.1-0.5-0.2-0.7-0.2c-0.7-0.3-1.3-0.7-1.8-1.2c-0.4-0.4-0.8-0.8-1-1.4
				c-0.1-0.2-0.2-0.4-0.2-0.6l-0.1-0.3c-0.9-2.3,0.6-4.5,2.4-5.7c0.8,0.4,1.6,1,2.2,1.7c0.6,0.7,1,1.6,1.2,2.5
				c0.2,0.9,0.2,1.9-0.1,2.8c-0.2,0.9-0.7,1.7-1.3,2.5C393.7,649.9,393.5,649.9,393.4,649.8z"/>
		</g>
	</g>
	<g>
		<path class="st22" d="M367.3,68.5c0.4-1.3,0.8-2.3,1.2-3.2c1.1-2.2,3.1-6.6,7.4-9c4.6-2.5,9.4-1.5,12.1-0.9
			c2.6,0.6,7.5,1.6,10.9,6.2c2.8,3.7,3,7.7,3,8.8c0.3,10.1-9.8,16.4-10.4,16.7c1.3,0.1,3.2,0.2,5.5,0.5c3,0.4,5.6,0.7,8.6,1.6
			c4.2,1.2,3.9,1.9,6.2,2.1c3.9,0.4,7-1.2,8.8-2.1c3.8-2,6.2-4.8,7.4-6.5c0.7,3,2.9,13.5-2.7,24.1c-7.5,14.1-22.7,16.9-26.3,17.6
			c-5.3,1-17.5,3.2-26.7-4.9c-1.5-1.3-10.1-8.5-8.6-18.8c1.1-7.6,6.9-12,8.3-13c0.3-0.4,0.6-1,0.5-1.6c-0.2-1.1-1.5-1.7-1.9-2
			C367.1,82.1,365.7,74.3,367.3,68.5z"/>
		<path class="st14" d="M369.1,75.4c1,1.3,2,1.6,3.5,2c0.9,0.2,0.7,2,0.3,2.9c-1.2,2.1-7.4,2-11.7-0.7c-4.4-2.7-6.9-8.1-5.9-9.4
			c0.7-0.8,2.7-0.2,3.4,0c2.2,0.6,2.4,1.7,3.6,1.7c2.1-0.1,3.1-3.1,4.7-2.7c0.3,0.1,0.5,0.2,0.7,0.4
			C369.4,71.2,367.8,73.7,369.1,75.4z"/>
		<path class="st14" d="M357.9,81.9c-0.1,0.3,0.1,0.5,0.4,0.5c1.1-0.2,2.6-0.4,4.3-0.6c4.8-0.5,6.2-0.3,6.4-0.8
			c0.2-1-4.5-4.6-8.2-2.7C359,79.1,358.3,80.9,357.9,81.9z"/>
		<path class="st36" d="M377.7,104c0-0.9,0.1-3,1.4-4.8c2.1-3,7-3.1,8-3.1c4.5-0.1,5.9,2.5,10.8,3.3c3.3,0.5,6.1-0.1,8-0.7
			c-2.4,2.2-4.8,4.5-7.2,6.7c1.9-0.1,3.8-0.2,5.7-0.2c-0.6,0.9-1.6,2.1-3,3.3c-0.9,0.8-8.5,6.8-16.1,4.8
			C380.4,112,377.4,107.9,377.7,104z"/>
		<path class="st12" d="M379.8,74c-0.7-0.2-1.4-0.6-2-1.2c-0.4-0.4-0.8-0.9-1.1-1.4c-0.4-0.6-0.5-1.4-0.6-2.1c0-1.1,0.3-2.1,0.9-3
			c0.6-0.9,1.4-1.5,2.4-1.9c3.4-1.1,7.6,2.1,7.4,5.2C386.7,72.4,382.9,75,379.8,74z"/>
		<path class="st13" d="M380,73.9c-0.2-0.1-0.5-0.1-0.7-0.2c-0.6-0.3-1.2-0.6-1.8-1.1c-0.4-0.4-0.8-0.8-1-1.3
			c-0.1-0.2-0.2-0.4-0.3-0.5c0,0-0.1-0.3-0.1-0.3c-1-2.2,0.4-4.3,2.1-5.7c1.5,0.3,2.8,1.8,3.4,4c0.5,2.2,0,4.3-1.2,5.1
			C380.4,74,380.2,73.9,380,73.9z"/>
	</g>
	<g>
		<path class="st22" d="M47.7,272c-0.9-1.8-0.6-6.4,0-7.1c1.3,0.5,5.5,3.3,8,2.8c3.5-0.7,5.4-2.4,6.4-4c5.3-7.9,11.2-20.6,14.1-23.1
			c7.4-6.4,12.8-13.8,36.9-15.6c1.2-0.1,2.6-0.4,4.3-1c15.7-5.7,19.9-31.5,21.1-39.1c0.1-0.9-0.2-4.6,1-9.3c0.8-3.1,1.3-5.2,2.8-7
			c4-4.9,13.8-6.2,20.1-1.5c1,0.7,4.4,3.6,5.3,8.5c1.1,6.9-3.8,11.8-4.3,12.3c-1.1,0.1-2.7,0.3-4.5,1c-5.8,2.2-8.7,7-9.8,8.8
			c-3.2,5.3-2.6,9.1-3.3,25.6c-0.6,15.2-1.4,18.9-2.3,22.1c-0.7,2.4-2.2,7.8-5.8,13.8c-9.4,15.8-24.8,21.7-27.4,22.6
			c-5.7,2.1-15.6,5.7-27.1,2c-7.3-2.3-12.2-6.6-14.8-9.3c-1.2,0.8-8.4,5.5-15.1,2.8C51.9,276.7,49.1,274.9,47.7,272z"/>
		<path class="st14" d="M85.8,284.5c0.7-2.2,4.3-3.6,5.7-2.6c0.7,0.6,0.5,1.6,0.1,5.9c-0.5,6-0.3,8,0,9.4c0.4,2,0.6,3.3,1.8,4.6
			c0.9,1,2.2,1.9,5.9,2.6c2.4,0.5,6,1,10.5,0.6c-0.1,0.1-2.4,1.1-2.8,3.5c-0.3,1.8,0.6,3.5,2.1,4.5c-2.3-0.7-5.6-1.4-9.5-1.1
			c-2.1,0.1-3.8-0.2-4.3,0.6c-0.4,0.8,0.4,2,0.9,2.6c-0.8-0.5-2-1.2-3.5-1.9c-3.3-1.5-4-1.2-4.8-2c-2-2,1.2-5.2,1-12
			c-0.1-3.4-0.2-7-2.1-10.9C86.2,287,85.4,285.8,85.8,284.5z"/>
		<path class="st14" d="M114.7,279.8c0.3,0.7,0.6,1.8,1,3c0.7,2.1,1.1,3.3,1.4,4.8c0.8,3.4,1.2,5.6,0.1,6.8
			c-0.5,0.5-1.4,0.8-3.1,1.5c-1.1,0.4-1.9,0.6-2.1,1.3c-0.2,0.5,0,0.9,0.1,1.3c0.1-0.1,0.6-0.8,1.5-0.9c0.7-0.1,1.3,0.2,1.5,0.3
			c-0.5,1.2-0.9,2.7-1.2,4.3c-0.4,2.1-0.6,4.1-0.6,5.7c0.4-0.3,0.7-0.6,1.1-0.9c0.6-0.5,1.5-0.7,2.3-0.5c0.7,0.2,1.4,0.3,2.1,0.4
			c3.1,0.4,5.8,0,7.6-0.4c0.3-0.1,1.4-0.2,2.4,0.4c1.3,0.7,1.7,1.8,1.8,2.1c0.7-1.1,0.7-2.4,0-3.2c-0.5-0.6-1.2-0.8-1.5-0.8
			c0.5,0.4,1.4,1,2.5,1.1c0.7,0.1,1.1-0.1,3-0.6c2.5-0.7,3.2-0.7,3.7-0.6c0.9,0.1,1.6,0.5,2,0.7c0.2-1.7,0-3.2-0.6-3.1
			c-4.9,0.6-6.3,0.6-12.2-1.7c-3.4-1.4-4.4-3.8-4.7-4.2c-0.2-0.3-0.7-1.2-1.2-3.6c-0.7-3.1-0.8-5.5-0.9-6.6c-0.1-2.1-0.4-5.2-1.2-9
			C117.9,278.1,116.3,278.9,114.7,279.8z"/>
		<path class="st14" d="M160.3,187.9c0.3,1,2.6,0.7,4.8,1.2c4.8,1.2,6.1,4.7,8.7,5.8c1.5,0.7,3.6-1.3,3.8-2.6
			c0.1-1.7-3.1-4.3-16.8-8.3c0,0.3,0.1,0.6,0.1,1.1C160.7,186.8,160.1,187.3,160.3,187.9z"/>
		<path class="st14" d="M164.2,177.7c0.2-0.2,0.9,0.1,2-0.2c0.6-0.2,0.8-0.9,1.3-0.9c0.5,0,0.8,0.7,0.9,1c0.7,1.2,2.2,1.7,4.4,2.3
			c3,0.9,10.4,2.4,13.5,0.4c0.3-0.2,1.2-0.9,2.2-0.6c0,0,0.9,0.2,1.1,0.8c0.3,0.9-1.2,2.1-1.6,2.4c-3.2,2.5-6.7,0.8-13.5,2.3
			c-2.6,0.6-2.7,1.3-4.4,1.1c-3.6-0.5-7.2-1.7-9.4-2.3c0.4,0,1.9-0.4,2.6-0.7c0.7-0.3,1.5-0.9,1.8-1.5
			C165.7,180.2,163.1,178.6,164.2,177.7z"/>
		<path class="st12" d="M148.2,174.9c-0.2-3.1,4.1-6.3,7.5-5.2c1,0.4,1.8,1,2.4,1.9c0.6,0.9,0.9,1.9,0.9,3c0,0.7-0.2,1.5-0.6,2.1
			c-0.3,0.5-0.7,1-1.1,1.4c-0.6,0.5-1.2,0.9-2,1.2C152.2,180.3,148.4,177.7,148.2,174.9z"/>
		<path class="st13" d="M154.5,179.3c-1.2-0.9-1.7-3-1.2-5.2c0.5-2.2,1.9-3.7,3.4-4c1.7,1.3,3.1,3.5,2.2,5.7c0,0-0.1,0.2-0.1,0.3
			c-0.1,0.2-0.2,0.4-0.3,0.5c-0.2,0.5-0.6,0.9-1,1.3c-0.5,0.5-1.1,0.8-1.8,1.1c-0.2,0.1-0.5,0.1-0.7,0.2
			C154.9,179.3,154.7,179.3,154.5,179.3z"/>
		<path class="st36" d="M122.5,249.6c-0.2,7.9-10.8,12.5-14.5,14.1c-19.8,8.5-46.1-0.9-46.6-8.5c-0.2-3.3,4.4-6.6,7.5-7.9
			c6.2-2.6,9.3,1.4,17-0.4c4.8-1.1,4.2-2.8,12.9-6.5c6.4-2.8,9.6-4.2,13.1-3.4C117.5,238.2,122.6,243.9,122.5,249.6z"/>
	</g>
	<g>
		<g>
			<g>
				<path class="st48" d="M620.4,198.1c1.8-1.6,4.1-2,6-2.1c2.2-2.9,5.6-6.9,10.5-10.5c12-8.9,24.8-10,37.6-10.9
					c14.3-1,12.5,1.5,39.4,2.3c0,0,6.1,0.2,23,3.3c1.1,0.2,3.6,0.7,6.6,2.1c2.1,1,3.6,2.1,4.6,2.9c3.3-1,8.5-3.2,11.3,0.7
					c3.4,4.6,5.4,10.3,12.6,17.8c7.1,7.3,13.9,4.9,18.2,12.8c2,3.8,2.5,8.1,2.6,9.4c0.3,3,0.6,6.5-1.2,10.2c-1.6,3.3-5.3,8-10.1,7.9
					c-1.5,0-2.7-0.5-3.5-1c-2.5,1-7.2,2.4-12.9,1.4c-4.5-0.8-11.5-3.6-11.9-7.2c-0.1-0.6,0-2-0.9-3.5c-0.6-1-1.3-1.7-1.8-2.1
					c-6.3,0.3-7.9,4.6-9.1,9.9c-0.4,1.6-0.1,3.5-0.4,5.6c-0.6,4.1-0.2-2.1-0.7,7.9c0,1-0.1,4.8-0.5,4.5c0,0.9,0.1,2.6,0.2,4.6
					c0.3,7.4,0.5,7.9,0,8.6c-3,4.6-11.5,2.7-14.8,2c-4.3-1-5.3-2.4-5.7-2.9c-1.3-2-0.7-4.3-0.2-7.2c0.6-3.2,1.3-7.7,1.6-13.5
					c-11.5,0-21.1,0.4-29.1,0.9c-0.6-0.2-1.3-0.4-1.9-0.3c-3,0.1-5.9,0.7-8.8,1.3c-1.5,0.2-2.9,0.3-4.2,0.5c-0.2,0-0.4,0.1-0.6,0.1
					c-3.2,0.1-6.4-0.3-9.6-0.7c-3.8-0.5-7.6-1.2-11.3-0.5c-3.2,0.1-6.3,1.6-7.3,4.9c-0.1,0.3-0.2,0.6-0.2,0.9
					c-0.1,0.2-0.2,0.4-0.2,0.6c-0.5,1.3-0.6,2.8-0.6,4.2c-0.1,1.6,0.1,3.2,0.5,4.7c0,0,0,0.1,0,0.1c0,0.2-0.1,0.3-0.1,0.5
					c-0.1,0.4-0.2,0.8-0.3,1.2c-0.4,1.2-1.3,2.2-2.6,2.5c-8.1,2.4-14.8,2-17-1.4c-0.4-0.6-0.7-1.3-0.8-2.3c-0.2-10.5,0-21.7,1-33.4
					c0.2-2.8,0.5-5.6,0.8-8.4c-1.7-3.1-4.3-8.6-4.7-16c-0.2-4.1,0.3-7.6,1-10.1c-2.8,1-3.8,2.4-4.3,3.3c-2.2,4.5,3.7,9.6,2.1,17.8
					c-0.3,1.4-0.6,3.1-1.2,3.1C619.5,224.6,612.9,204.6,620.4,198.1z"/>
				<ellipse transform="matrix(0.5 -0.866 0.866 0.5 221.9181 751.5003)" class="st49" cx="761.8" cy="183.6" rx="5.9" ry="4.5"/>
				<ellipse transform="matrix(0.866 -0.5 0.5 0.866 7.5179 397.6872)" class="st49" cx="745.9" cy="184.8" rx="4.5" ry="5.9"/>
			</g>
			<path class="st49" d="M793.1,227.5c-0.4-0.1,2.3,11.1-8.2,15.7c-2.4,1-4.9,0.3-6.7-0.4c-0.6,0.2-1.3,0.5-2.3,0.8
				c-3.1,0.9-5.6,1-6.8,1c-4.6,0-8-1.5-10.2-2.4c-2.6-1.1-4.3-1.9-4.9-3.6c-0.2-0.7-0.2-1.3-0.8-3.2c-0.5-1.5-0.7-2-1.1-2.5
				c-0.5-0.7-0.9-0.8-1.4-1.5c-0.6-0.8-0.9-1.7-1.1-2.4c1.3-0.2,3.3-0.2,5.2,0.8c1.7,0.9,2,1.9,4.6,4.5c2.3,2.3,3.5,3.4,5,3.9
				c3,0.9,6-0.7,7.2-1.3c2.6-1.3,2.8-2.5,5-2.9c1.6-0.3,2.9,0.1,4.7,0.6c3,0.8,3.2,1.6,4.9,1.6c2.5,0,4.2-1.8,4.6-2.1
				C792.1,233,793.3,227.6,793.1,227.5z"/>
			<path class="st49" d="M722.9,273.8c-0.8-0.7-0.3-2.5,0-3.4c0.4-1.2,0.8-2.6,1.5-2.7c0.8-0.1,1.9,1.4,2.6,3.6
				c-0.4-1.1-0.1-2.2,0.7-2.9c0.6-0.5,1.4-0.7,2.1-0.5c1.1,0.4,1.8,1.8,1.5,3.3c0-0.4,0-1.5,0.8-2.5c0.3-0.3,0.8-1,1.4-1
				c0.9,0,1.8,1.4,2.2,3.5c0-0.4-0.1-1.4,0.6-2.3c0.2-0.3,0.8-1.2,1.6-1.3c1-0.1,2.2,1.1,2.5,3.1c0,0.4,0.1,1.1-0.3,1.9
				c-0.1,0.2-0.5,0.9-1.8,1.7c-1.3,0.8-2.5,1-3.3,1.1c-2.8,0.4-5.1,0-8.5-0.6c-1.7-0.3-0.9-0.3-2.8-0.7
				C723.3,274,723.1,274,722.9,273.8z"/>
			<path class="st49" d="M646,271.1c0.5-0.8,0-2-0.6-3.2c-0.6-1.3-1.1-2.3-1.8-2.3c-0.7,0-1.2,0.8-1.5,1.3c-0.8,1.2-0.9,2.5-0.9,3.3
				c0-0.9-0.1-2.1-0.8-3.2c-0.3-0.4-0.6-1-1.2-1c-0.7-0.1-1.2,0.6-1.5,0.8c-1,1.2-0.9,2.7-0.8,3.3c0.1-0.6,0.1-1.8-0.6-2.9
				c-0.3-0.4-0.8-1.3-1.5-1.3c-0.9,0-1.5,1.2-1.8,1.8c-0.5,1-0.5,1.9-0.5,2.4c0-0.2,0.4-2-0.9-3.3c-0.3-0.3-0.7-0.8-1.3-0.8
				c-0.7,0-1.2,0.8-1.5,1.4c-0.4,0.7-1.5,2.3-0.8,3.6c0.2,0.5,0.6,0.7,1.2,1.1c1.4,0.9,2.8,1.1,3.5,1.2c0.5,0.1,2.1,0.3,5.2,0.1
				c0.9-0.1,2.9-0.5,7-1.4C645.1,271.7,645.7,271.6,646,271.1z"/>
		</g>
		<path class="st12" d="M752.3,207c0.5-0.2,1-0.5,1.4-0.8c0.3-0.3,0.6-0.6,0.8-1c0.3-0.5,0.4-1,0.4-1.5c0-0.8-0.2-1.5-0.7-2.2
			c-0.4-0.6-1.1-1.1-1.8-1.4c-2.5-0.8-5.6,1.5-5.5,3.8C747.2,205.8,750,207.7,752.3,207z"/>
		<path class="st13" d="M752.1,206.9c0.1-0.1,0.3-0.1,0.5-0.1c0.5-0.2,0.9-0.5,1.3-0.8c0.3-0.3,0.6-0.6,0.7-1
			c0.1-0.1,0.1-0.3,0.2-0.4c0,0,0.1-0.2,0.1-0.2c0.7-1.6-0.3-3.2-1.6-4.1c-1.1,0.2-2.1,1.3-2.5,2.9c-0.4,1.6,0,3.1,0.9,3.8
			C751.9,207,752,206.9,752.1,206.9z"/>
		<path class="st12" d="M763.8,207c0.5-0.2,1-0.5,1.4-0.8c0.3-0.3,0.6-0.6,0.8-1c0.3-0.5,0.4-1,0.4-1.5c0-0.8-0.2-1.5-0.7-2.2
			c-0.4-0.6-1.1-1.1-1.8-1.4c-2.5-0.8-5.6,1.5-5.5,3.8C758.7,205.8,761.5,207.7,763.8,207z"/>
		<path class="st13" d="M763.6,206.9c0.1-0.1,0.3-0.1,0.5-0.1c0.5-0.2,0.9-0.5,1.3-0.8c0.3-0.3,0.6-0.6,0.7-1
			c0.1-0.1,0.1-0.3,0.2-0.4c0,0,0.1-0.2,0.1-0.2c0.7-1.6-0.3-3.2-1.6-4.1c-1.1,0.2-2.1,1.3-2.5,2.9c-0.4,1.6,0,3.1,0.9,3.8
			C763.4,207,763.5,206.9,763.6,206.9z"/>
	</g>
	<g>
		<path class="st22" d="M117.5,7.1c-0.4-1.3-0.8-2.3-1.2-3.2c-1.1-2.2-3.1-6.6-7.4-9c-4.6-2.5-9.4-1.5-12.1-0.9
			c-2.6,0.6-7.5,1.6-10.9,6.2C83,4,82.9,8,82.8,9c-0.3,10.1,9.8,16.4,10.4,16.7c-1.3,0.1-3.2,0.2-5.5,0.5c-3,0.4-5.6,0.7-8.6,1.6
			c-4.2,1.2-3.9,1.9-6.2,2.1c-3.9,0.4-7-1.2-8.8-2.1c-3.8-2-6.2-4.8-7.4-6.5c-0.7,3-2.9,13.5,2.7,24.1C67,59.6,82.2,62.4,85.8,63.1
			c5.3,1,17.5,3.2,26.7-4.9c1.5-1.3,10.1-8.5,8.6-18.8c-1.1-7.6-6.9-12-8.3-13c-0.3-0.4-0.6-1-0.5-1.6c0.2-1.1,1.5-1.7,1.9-2
			C117.8,20.7,119.1,12.9,117.5,7.1z"/>
		<path class="st14" d="M115.7,14c-1,1.3-2,1.6-3.5,2c-0.9,0.2-0.7,2-0.3,2.9c1.2,2.1,7.4,2,11.7-0.7c4.4-2.7,6.9-8.1,5.9-9.4
			c-0.7-0.8-2.7-0.2-3.4,0c-2.2,0.6-2.4,1.7-3.6,1.7c-2.1-0.1-3.1-3.1-4.7-2.7c-0.3,0.1-0.5,0.2-0.7,0.4
			C115.4,9.7,117,12.3,115.7,14z"/>
		<path class="st14" d="M126.9,20.4c0.1,0.3-0.1,0.5-0.4,0.5c-1.1-0.2-2.6-0.4-4.3-0.6c-4.8-0.5-6.2-0.3-6.4-0.8
			c-0.2-1,4.5-4.6,8.2-2.7C125.8,17.7,126.5,19.4,126.9,20.4z"/>
		<path class="st36" d="M107.2,42.5c0-0.9-0.1-3-1.4-4.8c-2.1-3-7-3.1-8-3.1C93.3,34.6,92,37.2,87,38c-3.3,0.5-6.1-0.1-8-0.7
			c2.4,2.2,4.8,4.5,7.2,6.7c-1.9-0.1-3.8-0.2-5.7-0.2c0.6,0.9,1.6,2.1,3,3.3c0.9,0.8,8.5,6.8,16.1,4.8
			C104.4,50.6,107.4,46.5,107.2,42.5z"/>
		<path class="st12" d="M105,12.5c0.7-0.2,1.4-0.6,2-1.2c0.4-0.4,0.8-0.9,1.1-1.4c0.4-0.6,0.5-1.4,0.6-2.1c0-1.1-0.3-2.1-0.9-3
			c-0.6-0.9-1.4-1.5-2.4-1.9c-3.4-1.1-7.6,2.1-7.4,5.2C98.1,10.9,101.9,13.6,105,12.5z"/>
		<path class="st13" d="M104.8,12.5c0.2-0.1,0.5-0.1,0.7-0.2c0.6-0.3,1.2-0.6,1.8-1.1c0.4-0.4,0.8-0.8,1-1.3
			c0.1-0.2,0.2-0.4,0.3-0.5c0,0,0.1-0.3,0.1-0.3c1-2.2-0.4-4.3-2.1-5.7c-1.5,0.3-2.8,1.8-3.4,4c-0.5,2.2,0,4.3,1.2,5.1
			C104.4,12.6,104.6,12.5,104.8,12.5z"/>
	</g>
	<g>
		<path class="st40" d="M535.2,123.2c-12.7-11.4-26.2-27.1-36.2-48c-1.6-3.5-3.1-6.9-4.4-10.2"/>
		
			<ellipse transform="matrix(0.9771 -0.2126 0.2126 0.9771 0.1764 105.911)" class="st20" cx="492.6" cy="52.1" rx="7.5" ry="19.4"/>
		<path class="st40" d="M542.9,113.1c-1.1-17,0.2-37.7,7.7-59.6c1.2-3.6,2.6-7.1,4-10.4"/>
		<ellipse transform="matrix(0.531 -0.8474 0.8474 0.531 236.066 491.59)" class="st20" cx="562.1" cy="32.5" rx="19.4" ry="7.5"/>
		<path class="st40" d="M538.2,120.3c-8.1-15-15.7-34.3-18.1-57.4c-0.4-3.8-0.6-7.5-0.7-11.1"/>
		<ellipse transform="matrix(0.126 -0.992 0.992 0.126 417.2262 551.7604)" class="st20" cx="521.8" cy="39.1" rx="19.4" ry="7.5"/>
		<path class="st41" d="M539.2,122.8c0.3-3.7-18.5-13.9-38.1-8.6c-13.3,3.6-33,16.1-35.9,37.9c-0.9,6.9,0.1,13,1.1,17.1
			c6.8-12.6,17.4-27.6,33.1-36.4C520.2,121.2,538.9,126.4,539.2,122.8z"/>
		<path class="st41" d="M538.7,122.2c-2.6-1.2-0.5-20.1,12.2-33.5c8.6-9.2,26-19.9,41.8-13.7c5,2,8.5,5.1,10.8,7.6
			c-11.5,0.5-26.3,3-39.5,12.1C546.6,106.4,541.3,123.4,538.7,122.2z"/>
	</g>
	<g>
		<path class="st40" d="M447,307.8c-3.9-10.5-7.1-23.9-6.5-39.2c0.1-2.5,0.3-5,0.6-7.3"/>
		
			<ellipse transform="matrix(0.2632 -0.9647 0.9647 0.2632 82.698 614.6938)" class="st20" cx="443.8" cy="253.2" rx="12.8" ry="4.9"/>
		<path class="st40" d="M454.6,304.3c4.6-10.3,11.6-22,22.7-32.5c1.8-1.7,3.7-3.3,5.5-4.8"/>
		
			<ellipse transform="matrix(0.8626 -0.5059 0.5059 0.8626 -65.6341 284.2614)" class="st20" cx="490.4" cy="262.9" rx="12.8" ry="4.9"/>
		<path class="st40" d="M449.7,307c-0.2-11.2,1.3-24.9,6.9-39.1c0.9-2.3,1.9-4.6,3-6.7"/>
		
			<ellipse transform="matrix(0.5704 -0.8214 0.8214 0.5704 -9.3093 491.1355)" class="st20" cx="464.8" cy="254.5" rx="12.8" ry="4.9"/>
		<path class="st41" d="M449.5,308.7c1.3-2.1-6.6-13.8-19.7-16.6c-8.9-1.9-24.2-0.7-32.6,11.2c-2.6,3.8-3.9,7.6-4.6,10.4
			c7.8-5.3,18.6-10.9,30.5-11.2C438.9,302,448.2,310.8,449.5,308.7z"/>
		<path class="st41" d="M449.4,308.2c-1.1-1.5,5.9-11.9,17.4-15.9c7.9-2.7,21.3-3.7,28.6,4.7c2.3,2.7,3.4,5.6,4,7.7
			c-6.9-3.2-16.3-6.3-26.8-5C458.8,301.5,450.5,309.7,449.4,308.2z"/>
	</g>
</g>
<g id="Layer_10">
</g>
<g id="clouds">
	<path class="st12" d="M1289.4,271.9c0.7-1.9,0.7-4,0-5.9c-1.8-4.9-7.7-5.8-8.3-5.9c-2.4-0.3-4.7,0.1-6.9,1.1s-3.9,2.7-5,4.8
		c-0.2,0.3-0.5,2.2-1.2,5.9v1.2c-0.3-0.5-0.7-0.9-1.2-1.2c-2.9-2-7.2-0.3-9.5,1.2c-2.2,1.4-3.9,3.5-4.8,5.9c-0.7,2.3-0.7,4.8,0,7.1
		c1,3.4,3.1,6.3,6,8.3h53.6c-1.4-1-2.6-2.2-3.6-3.6c-1.1-1.4-1.9-3-2.4-4.8c-0.6-2.8,0.4-3.4,0-5.9c-0.5-2.3-1.7-4.4-3.6-5.9
		c-2.3-1.9-4.9-2.1-8.3-2.4C1292.6,271.8,1291,271.8,1289.4,271.9z"/>
	<path class="st12" d="M655.8,479.3c1.4-4.1,1.4-8.5,0-12.6c-3.9-10.4-16.3-12.3-17.7-12.6c-5-0.7-10.1,0.2-14.6,2.4
		c-4.5,2.3-8.2,5.8-10.7,10.2c-0.4,0.7-1,4.7-2.5,12.6v2.5c-0.7-1-1.6-1.9-2.5-2.5c-6.1-4.2-15.4-0.6-20.2,2.5
		c-4.7,2.9-8.3,7.4-10.1,12.6c-1.6,4.9-1.6,10.2,0,15.1c2.1,7.2,6.5,13.4,12.7,17.7h113.8c-2.9-2.1-5.4-4.7-7.6-7.6
		c-2.4-3-4.1-6.4-5-10.1c-1.4-5.9,1-7.2,0-12.6c-1-4.9-3.7-9.4-7.6-12.6c-4.9-4-10.4-4.4-17.7-5.1
		C662.5,479.1,659.1,479.1,655.8,479.3z"/>
	<path class="st12" d="M994.5,382.3c0.7-1.9,0.7-4,0-5.9c-1.8-4.9-7.7-5.8-8.3-5.9c-2.4-0.3-4.7,0.1-6.9,1.1c-2.1,1.1-3.9,2.7-5,4.8
		c-0.2,0.3-0.5,2.2-1.2,5.9v1.2c-0.3-0.5-0.7-0.9-1.2-1.2c-2.9-2-7.2-0.3-9.5,1.2c-2.2,1.4-3.9,3.5-4.8,5.9c-0.7,2.3-0.7,4.8,0,7.1
		c1,3.4,3.1,6.3,6,8.3h53.6c-1.4-1-2.6-2.2-3.6-3.6c-1.1-1.4-1.9-3-2.4-4.8c-0.6-2.8,0.4-3.4,0-5.9c-0.5-2.3-1.7-4.4-3.6-5.9
		c-2.3-1.9-4.9-2.1-8.3-2.4C997.7,382.2,996.1,382.2,994.5,382.3z"/>
	<path class="st12" d="M54.6,477.4c0.7-1.9,0.7-4,0-5.9c-1.8-4.9-7.7-5.8-8.3-5.9c-2.4-0.3-4.7,0.1-6.9,1.1c-2.1,1.1-3.9,2.7-5,4.8
		c-0.2,0.3-0.5,2.2-1.2,5.9v1.2c-0.3-0.5-0.7-0.9-1.2-1.2c-2.9-2-7.2-0.3-9.5,1.2c-2.2,1.4-3.9,3.5-4.8,5.9c-0.7,2.3-0.7,4.8,0,7.1
		c1,3.4,3.1,6.3,6,8.3h53.6c-1.4-1-2.6-2.2-3.6-3.6c-1.1-1.4-1.9-3-2.4-4.8c-0.6-2.8,0.4-3.4,0-5.9c-0.5-2.3-1.7-4.4-3.6-5.9
		c-2.3-1.9-4.9-2.1-8.3-2.4C57.7,477.3,56.1,477.3,54.6,477.4z"/>
	<path class="st12" d="M923.9,136c1.1-3.1,1.1-6.5,0-9.7c-3-8-12.5-9.4-13.6-9.7c-3.8-0.5-7.7,0.1-11.2,1.9
		c-3.5,1.7-6.3,4.5-8.2,7.8c-0.3,0.5-0.8,3.6-2,9.7v2c-0.5-0.8-1.2-1.4-2-2c-4.7-3.2-11.8-0.4-15.5,2c-3.6,2.2-6.4,5.7-7.7,9.7
		c-1.2,3.8-1.2,7.8,0,11.6c1.6,5.5,5,10.3,9.7,13.6h87.3c-2.2-1.6-4.2-3.6-5.8-5.8c-1.8-2.3-3.1-4.9-3.9-7.8c-1-4.5,0.7-5.5,0-9.7
		c-0.8-3.8-2.8-7.2-5.8-9.7c-3.8-3-8-3.4-13.6-3.9C929.1,135.8,926.5,135.8,923.9,136z"/>
	<path class="st12" d="M1177.6,202c1.1-3.1,1.1-6.5,0-9.7c-3-8-12.5-9.4-13.6-9.7c-3.8-0.5-7.7,0.1-11.2,1.9s-6.3,4.5-8.2,7.8
		c-0.3,0.5-0.8,3.6-2,9.7v2c-0.5-0.8-1.2-1.4-2-2c-4.7-3.2-11.8-0.4-15.5,2c-3.6,2.2-6.4,5.7-7.7,9.7c-1.2,3.8-1.2,7.8,0,11.6
		c1.6,5.5,5,10.3,9.7,13.6h87.3c-2.2-1.6-4.2-3.6-5.8-5.8c-1.8-2.3-3.1-4.9-3.9-7.8c-1-4.5,0.7-5.5,0-9.7c-0.8-3.8-2.8-7.2-5.8-9.7
		c-3.8-3-8-3.4-13.6-3.9C1182.8,201.8,1180.2,201.8,1177.6,202z"/>
	<path class="st12" d="M1165.6-0.8c1.1-3.1,1.1-6.5,0-9.7c-3-8-12.5-9.4-13.6-9.7c-3.8-0.5-7.7,0.1-11.2,1.9s-6.3,4.5-8.2,7.8
		c-0.3,0.5-0.8,3.6-2,9.7v2c-0.5-0.8-1.2-1.4-2-2c-4.7-3.2-11.8-0.4-15.5,2c-3.6,2.2-6.4,5.7-7.7,9.7c-1.2,3.8-1.2,7.8,0,11.6
		c1.6,5.5,5,10.3,9.7,13.6h87.3c-2.2-1.6-4.2-3.6-5.8-5.8c-1.8-2.3-3.1-4.9-3.9-7.8c-1-4.5,0.7-5.5,0-9.7c-0.8-3.8-2.8-7.2-5.8-9.7
		c-3.8-3-8-3.4-13.6-3.9C1170.8-1.1,1168.2-1.1,1165.6-0.8z"/>
	<path class="st12" d="M1041.2,549.2c1.1-3.1,1.1-6.5,0-9.7c-3-8-12.5-9.4-13.6-9.7c-3.8-0.5-7.7,0.1-11.2,1.9
		c-3.5,1.7-6.3,4.5-8.2,7.8c-0.3,0.5-0.8,3.6-2,9.7v2c-0.5-0.8-1.2-1.4-2-2c-4.7-3.2-11.8-0.4-15.5,2c-3.6,2.2-6.4,5.7-7.7,9.7
		c-1.2,3.8-1.2,7.8,0,11.6c1.6,5.5,5,10.3,9.7,13.6h87.3c-2.2-1.6-4.2-3.6-5.8-5.8c-1.8-2.3-3.1-4.9-3.9-7.8c-1-4.5,0.7-5.5,0-9.7
		c-0.8-3.8-2.8-7.2-5.8-9.7c-3.8-3-8-3.4-13.6-3.9C1046.4,549,1043.8,549,1041.2,549.2z"/>
	<path class="st12" d="M390.8,353.9c1.1-3.1,1.1-6.5,0-9.7c-3-8-12.5-9.4-13.6-9.7c-3.8-0.5-7.7,0.1-11.2,1.9
		c-3.5,1.7-6.3,4.5-8.2,7.8c-0.3,0.5-0.8,3.6-2,9.7v2c-0.5-0.8-1.2-1.4-2-2c-4.7-3.2-11.8-0.4-15.5,2c-3.6,2.2-6.4,5.7-7.7,9.7
		c-1.2,3.8-1.2,7.8,0,11.6c1.6,5.5,5,10.3,9.7,13.6h87.3c-2.2-1.6-4.2-3.6-5.8-5.8c-1.8-2.3-3.1-4.9-3.9-7.8c-1-4.5,0.7-5.5,0-9.7
		c-0.8-3.8-2.8-7.2-5.8-9.7c-3.8-3-8-3.4-13.6-3.9C396,353.7,393.4,353.7,390.8,353.9z"/>
	<path class="st12" d="M425.9,518.7c1.1-3.1,1.1-6.5,0-9.7c-3-8-12.5-9.4-13.6-9.7c-3.8-0.5-7.7,0.1-11.2,1.9
		c-3.5,1.7-6.3,4.5-8.2,7.8c-0.3,0.5-0.8,3.6-2,9.7v2c-0.5-0.8-1.2-1.4-2-2c-4.7-3.2-11.8-0.4-15.5,2c-3.6,2.2-6.4,5.7-7.7,9.7
		c-1.2,3.8-1.2,7.8,0,11.6c1.6,5.5,5,10.3,9.7,13.6h87.3c-2.2-1.6-4.2-3.6-5.8-5.8c-1.8-2.3-3.1-4.9-3.9-7.8c-1-4.5,0.7-5.5,0-9.7
		c-0.8-3.8-2.8-7.2-5.8-9.7c-3.8-3-8-3.4-13.6-3.9C431.1,518.5,428.5,518.5,425.9,518.7z"/>
	<path class="st12" d="M1070.6,294.1c0.7-1.9,0.7-4,0-5.9c-1.8-4.9-7.7-5.8-8.3-5.9c-2.4-0.3-4.7,0.1-6.9,1.1s-3.9,2.7-5,4.8
		c-0.2,0.3-0.5,2.2-1.2,5.9v1.2c-0.3-0.5-0.7-0.9-1.2-1.2c-2.9-2-7.2-0.3-9.5,1.2c-2.2,1.4-3.9,3.5-4.8,5.9c-0.7,2.3-0.7,4.8,0,7.1
		c1,3.4,3.1,6.3,6,8.3h53.6c-1.4-1-2.6-2.2-3.6-3.6c-1.1-1.4-1.9-3-2.4-4.8c-0.6-2.8,0.4-3.4,0-5.9c-0.5-2.3-1.7-4.4-3.6-5.9
		c-2.3-1.9-4.9-2.1-8.3-2.4C1073.8,294,1072.2,294,1070.6,294.1z"/>
	<path class="st12" d="M853.1,589c0.7-1.9,0.7-4,0-5.9c-1.8-4.9-7.7-5.8-8.3-5.9c-2.4-0.3-4.7,0.1-6.9,1.1c-2.1,1.1-3.9,2.7-5,4.8
		c-0.2,0.3-0.5,2.2-1.2,5.9v1.2c-0.3-0.5-0.7-0.9-1.2-1.2c-2.9-2-7.2-0.3-9.5,1.2c-2.2,1.4-3.9,3.5-4.8,5.9c-0.7,2.3-0.7,4.8,0,7.1
		c1,3.4,3.1,6.3,6,8.3h53.6c-1.4-1-2.6-2.2-3.6-3.6c-1.1-1.4-1.9-3-2.4-4.8c-0.6-2.8,0.4-3.4,0-5.9c-0.5-2.3-1.7-4.4-3.6-5.9
		c-2.3-1.9-4.9-2.1-8.3-2.4C856.3,588.8,854.7,588.8,853.1,589z"/>
	<path class="st12" d="M1198.3,539.6c0.7-1.9,0.7-4,0-5.9c-1.8-4.9-7.7-5.8-8.3-5.9c-2.4-0.3-4.7,0.1-6.9,1.1
		c-2.1,1.1-3.9,2.7-5,4.8c-0.2,0.3-0.5,2.2-1.2,5.9v1.2c-0.3-0.5-0.7-0.9-1.2-1.2c-2.9-2-7.2-0.3-9.5,1.2c-2.2,1.4-3.9,3.5-4.8,5.9
		c-0.7,2.3-0.7,4.8,0,7.1c1,3.4,3.1,6.3,6,8.3h53.6c-1.4-1-2.6-2.2-3.6-3.6c-1.1-1.4-1.9-3-2.4-4.8c-0.6-2.8,0.4-3.4,0-5.9
		c-0.5-2.3-1.7-4.4-3.6-5.9c-2.3-1.9-4.9-2.1-8.3-2.4C1201.5,539.5,1199.9,539.5,1198.3,539.6z"/>
	<path class="st12" d="M689.8,343.1c0.7-1.9,0.7-4,0-5.9c-1.8-4.9-7.7-5.8-8.3-5.9c-2.4-0.3-4.7,0.1-6.9,1.1c-2.1,1.1-3.9,2.7-5,4.8
		c-0.2,0.3-0.5,2.2-1.2,5.9v1.2c-0.3-0.5-0.7-0.9-1.2-1.2c-2.9-2-7.2-0.3-9.5,1.2c-2.2,1.4-3.9,3.5-4.8,5.9c-0.7,2.3-0.7,4.8,0,7.1
		c1,3.4,3.1,6.3,6,8.3h53.6c-1.4-1-2.6-2.2-3.6-3.6c-1.1-1.4-1.9-3-2.4-4.8c-0.6-2.8,0.4-3.4,0-5.9c-0.5-2.3-1.7-4.4-3.6-5.9
		c-2.3-1.9-4.9-2.1-8.3-2.4C693,343,691.4,343,689.8,343.1z"/>
	<path class="st12" d="M624.3,111.1c0.7-1.9,0.7-4,0-5.9c-1.8-4.9-7.7-5.8-8.3-5.9c-2.4-0.3-4.7,0.1-6.9,1.1c-2.1,1.1-3.9,2.7-5,4.8
		c-0.2,0.3-0.5,2.2-1.2,5.9v1.2c-0.3-0.5-0.7-0.9-1.2-1.2c-2.9-2-7.2-0.3-9.5,1.2c-2.2,1.4-3.9,3.5-4.8,5.9c-0.7,2.3-0.7,4.8,0,7.1
		c1,3.4,3.1,6.3,6,8.3H647c-1.4-1-2.6-2.2-3.6-3.6c-1.1-1.4-1.9-3-2.4-4.8c-0.6-2.8,0.4-3.4,0-5.9c-0.5-2.3-1.7-4.4-3.6-5.9
		c-2.3-1.9-4.9-2.1-8.3-2.4C627.5,111,625.9,111,624.3,111.1z"/>
	<path class="st12" d="M285,39c0.7-1.9,0.7-4,0-5.9c-1.8-4.9-7.7-5.8-8.3-5.9c-2.4-0.3-4.7,0.1-6.9,1.1c-2.1,1.1-3.9,2.7-5,4.8
		c-0.2,0.3-0.5,2.2-1.2,5.9v1.2c-0.3-0.5-0.7-0.9-1.2-1.2c-2.9-2-7.2-0.3-9.5,1.2c-2.2,1.4-3.9,3.5-4.8,5.9c-0.7,2.3-0.7,4.8,0,7.1
		c1,3.4,3.1,6.3,6,8.3h53.6c-1.4-1-2.6-2.2-3.6-3.6c-1.1-1.4-1.9-3-2.4-4.8c-0.6-2.8,0.4-3.4,0-5.9c-0.5-2.3-1.7-4.4-3.6-5.9
		c-2.3-1.9-4.9-2.1-8.3-2.4C288.2,38.9,286.6,38.9,285,39z"/>
	<path class="st12" d="M462,181.2c0.7-1.9,0.7-4,0-5.9c-1.8-4.9-7.7-5.8-8.3-5.9c-2.4-0.3-4.7,0.1-6.9,1.1c-2.1,1.1-3.9,2.7-5,4.8
		c-0.2,0.3-0.5,2.2-1.2,5.9v1.2c-0.3-0.5-0.7-0.9-1.2-1.2c-2.9-2-7.2-0.3-9.5,1.2c-2.2,1.4-3.9,3.5-4.8,5.9c-0.7,2.3-0.7,4.8,0,7.1
		c1,3.4,3.1,6.3,6,8.3h53.6c-1.4-1-2.6-2.2-3.6-3.6c-1.1-1.4-1.9-3-2.4-4.8c-0.6-2.8,0.4-3.4,0-5.9c-0.5-2.3-1.7-4.4-3.6-5.9
		c-2.3-1.9-4.9-2.1-8.3-2.4C465.2,181,463.6,181,462,181.2z"/>
</g>
<g id="реплики" class="st50">
	<g>
	</g>
	<g class="st51">
		<rect x="682" y="230.4" class="st34" width="386.1" height="255.6"/>
		<text transform="matrix(1 0 0 1 701.3544 265.8113)"><tspan x="0" y="0" class="st53 st54">при нажатии на жирафа будет </tspan><tspan x="0" y="24" class="st53 st54">появляться очень важная </tspan><tspan x="0" y="48" class="st53 st54">информация о создателе правах</tspan><tspan x="0" y="72" class="st53 st54">годе создания а также месте </tspan><tspan x="0" y="96" class="st53 st54">обучения...</tspan></text>
		<g>
			<line class="st52" x1="1040.2" y1="258.1" x2="1055.3" y2="242.9"/>
			<line class="st52" x1="1055.3" y1="258.1" x2="1040.2" y2="242.9"/>
		</g>
	</g>
</g>
<g id="редактор" class="st50">
</g>
<g id="БОРДЕРЫ">
</g>
</svg>
