<?xml version="1.0" encoding="utf-8"?>
<!-- Generator: Adobe Illustrator 25.0.1, SVG Export Plug-In . SVG Version: 6.00 Build 0)  -->
<svg version="1.1" xmlns="http://www.w3.org/2000/svg" xmlns:xlink="http://www.w3.org/1999/xlink" x="0px" y="0px"
	 viewBox="0 0 1280 720" style="enable-background:new 0 0 1280 720;" xml:space="preserve">
<style type="text/css">
	.st0{fill:#F7EFE2;}
	.st1{fill:none;stroke:#FF0020;stroke-width:16;stroke-miterlimit:10;stroke-dasharray:30.47,20.31;}
	.st2{fill:none;stroke:#FF81E7;stroke-width:16;stroke-miterlimit:10;stroke-dasharray:30.47,20.31;}
	.st3{fill:none;stroke:#00FFA9;stroke-width:16;stroke-miterlimit:10;stroke-dasharray:29.94,19.96;}
	.st4{fill:#D8E5A5;}
	.st5{fill:#A8E0A1;}
	.st6{fill:#FFF3AE;}
	.st7{fill:#6000FF;}
	.st8{fill:#FF81E7;}
	.st9{fill:#FFFFFF;stroke:#FFFFFF;stroke-width:2;stroke-miterlimit:10;}
	.st10{fill:#0097DD;}
	.st11{fill:#FF76EB;}
	.st12{fill:#FFFFFF;}
	.st13{stroke:#000000;stroke-miterlimit:10;}
	.st14{fill:#FB6700;}
	.st15{fill:none;stroke:#FF0020;stroke-width:16;stroke-miterlimit:10;}
	.st16{fill:none;stroke:#FF0020;stroke-width:16;stroke-miterlimit:10;stroke-dasharray:29.82,19.88;}
	.st17{fill:none;stroke:#FF0020;stroke-width:16;stroke-miterlimit:10;stroke-dasharray:29.73,19.82;}
	.st18{fill:#6DFC6D;}
	.st19{fill:#00FFA9;}
	.st20{fill:#754C24;}
	.st21{fill:#FF0020;}
	.st22{fill:#FDFF00;}
	.st23{fill:#EB7000;}
	.st24{fill:none;}
	.st25{fill:#231F20;}
	.st26{fill:#FF00BD;stroke:#FF00BD;stroke-width:0.5;stroke-miterlimit:10;}
	.st27{opacity:0.59;}
	.st28{fill:none;stroke:#F7EFE2;stroke-width:50;stroke-miterlimit:10;}
	.st29{fill:none;stroke:#00FFA9;stroke-width:50;stroke-miterlimit:10;}
	.st30{fill:#F0ED00;}
	.st31{fill:none;stroke:#000000;stroke-miterlimit:10;}
	.st32{fill:#01140D;}
	.st33{fill:#F9C6CA;}
	.st34{stroke:#000000;stroke-width:0.25;stroke-miterlimit:10;}
	.st35{fill:#FFD400;}
	.st36{fill:#B9FCF7;}
	.st37{fill:#55FFEE;}
	.st38{fill:#FFFFFF;stroke:#FFFFFF;stroke-miterlimit:10;}
	.st39{fill:#FFFFFF;stroke:#000000;stroke-width:2;stroke-miterlimit:10;}
	.st40{fill:none;stroke:#00FFA9;stroke-width:2;stroke-miterlimit:10;}
	.st41{fill:#00FFA9;stroke:#00FFA9;stroke-width:2;stroke-miterlimit:10;}
	.st42{fill:#F6A9CB;}
	.st43{fill:none;stroke:#6000FF;stroke-miterlimit:10;}
	.st44{fill:none;stroke:#F0ED00;stroke-miterlimit:10;}
	.st45{fill:none;stroke:#F0ED00;stroke-width:2;stroke-miterlimit:10;}
	.st46{fill:#A5A5A5;}
	.st47{fill:#7C7C7C;}
	.st48{display:none;}
	.st49{display:inline;}
	.st50{font-family:'IBMPlexMono-Text';}
	.st51{font-size:20px;}
	.st52{fill:none;stroke:#000000;stroke-width:2;stroke-miterlimit:10;}
	.st53{display:inline;fill:#FFFFFF;stroke:#231F20;stroke-width:2;stroke-miterlimit:10;}
	.st54{display:inline;opacity:0.12;fill:#0097DD;}
	.st55{display:inline;opacity:0.12;fill:#FF76EB;}
	.st56{display:inline;fill:#FF0020;}
	.st57{display:inline;fill:#6000FF;}
	.st58{display:inline;fill:#FF76EB;}
	.st59{display:inline;fill:#FDFF00;}
	.st60{display:inline;fill:#FB6700;}
	.st61{display:inline;fill:#FFFFFF;}
	.st62{display:inline;stroke:#000000;stroke-miterlimit:10;}
	.st63{display:inline;fill:#FFD400;}
	.st64{display:inline;fill:#EB7000;}
	.st65{display:inline;fill:#231F20;}
	.st66{display:inline;fill:#00FFA9;}
	.st67{display:inline;opacity:0.35;fill:#0097DD;}
	.st68{display:inline;opacity:0.35;}
	.st69{display:inline;opacity:0.35;fill:#0097DD;stroke:#0097DD;stroke-width:3;stroke-miterlimit:10;}
	.st70{fill:none;stroke:#000000;stroke-width:3;stroke-miterlimit:10;}
	.st71{fill:#606060;}
</style>
<g id="Layer_5">
	<rect x="-1292.9" y="-1463.3" class="st0" width="3863.3" height="2193"/>
</g>
<g id="Layer_9">
	<path class="st2" d="M577.1,371.8c21.1-20.2,48.8-56.7,80.8-19.5c50,58.1,133.5,18.4,174.7,57.2c57.3,53.9,120.4,35.8,166.6,31.4
		c26.8-2.5,93.2,3.7,126.5,38.6c31.2,32.8,54.3,57,117,43.6c42.4-9.1,59.7,18.2,73.4,19.8c26.1,3,52.6,1.2,78-5.4"/>
	<path class="st3" d="M1285.7,286.6c28.6-33.9,64.7-93.6,119.1-42.4c84.9,79.8,204.7,6.5,273.3,58.7
		c95.2,72.4,187.7,34.9,256.8,20.9c40-8.1,141.5-9.3,197.3,38.2c52.5,44.7,91.2,77.5,183.9,47.2c62.7-20.5,93.1,18,114.1,18.2
		c40,0.4,79.6-6.6,117-20.6"/>
</g>
<g id="Layer_11">
</g>
<g id="Layer_1">
	<path class="st4" d="M1310.5,378.8H969.9c-26.6,0-48.2-21.6-48.2-48.2V136.2c0-26.6,21.6-48.2,48.2-48.2h340.5
		c26.6,0,48.2,21.6,48.2,48.2v194.3C1358.7,357.2,1337.1,378.8,1310.5,378.8z"/>
	<g>
		<g>
			<polygon class="st14" points="-22.8,455.3 -14.5,450 -10.1,467.4 -6.3,500.5 10.7,558.6 6.7,580.1 32.8,570.7 23.1,555.2 
				8.4,471.8 40.6,571.3 62.6,564.2 52.8,546 24.1,468.8 76.1,458.9 98.4,539.2 97,557.9 118.7,549.7 110.4,534.6 94.4,450.2 
				120.6,530.2 126.6,547.5 150.8,544 133.4,529.4 118.8,447.5 104.9,398.7 105.2,364.9 97.6,315.5 103.2,278.1 101.4,242.3 
				108.4,233.8 136.3,234.1 159.6,236.5 132.7,207.1 112.8,196.7 100,200.4 97.2,172.7 87.9,177.8 94.1,196.1 71.9,192.8 
				74.5,207.2 89.9,214.8 85.7,222.8 78.1,280.6 59.8,380.2 36.4,395.8 -9,429.9 -9.6,441 -15,440.3 -36.2,484.3 			"/>
		</g>
		<g>
			<path class="st12" d="M107.7,208.1c1.4-4,8.5-5.8,12.1-2.6c1.9,1.7,3,5,1.7,7.9c-0.5,1.1-1.1,1.7-1.8,2.3
				c-0.7,0.5-1.4,0.9-2.1,1.2c-1,0.4-2.1,0.5-3.1,0.4C109.9,216.9,106.5,211.7,107.7,208.1z"/>
			<path d="M113.3,216.9c-1-1.7-0.6-4.6,1.2-7.1c1.8-2.4,4.4-3.7,6.3-3.3c1.5,2.5,2.1,6-0.3,8.2c0,0-0.2,0.3-0.3,0.3
				c-0.2,0.3-0.4,0.3-0.6,0.5c-0.5,0.5-1.2,0.9-1.9,1.1c-0.8,0.3-1.9,0.5-2.8,0.5c-0.3,0-0.7-0.1-0.9-0.1
				C113.7,217.1,113.4,217,113.3,216.9z"/>
		</g>
	</g>
	<g>
		<g>
			<path class="st5" d="M1066.3-364.7c-2.2,11.9,14.4,15.3,19.3,40.8c3.8,19.7-3.7,30-11.9,63.5c-8.7,35.6-13,53.4-8.9,71.1
				c7.6,32.8,38.1,51.6,62.4,66.6c38,23.4,56.1,19.6,98.1,37.8c46.5,20.2,62.5,41.4,89.2,59c88.6,58.6,255.2,51.9,296.7-24.8
				c26-48-1.6-115.2-26.5-150.2c-26.8-37.7-70.8-58-157.8-97.2c-29.6-13.3-65.8-16-109.8-44.2c-25.6-16.4-25.5-21.7-42.9-32.8
				C1195.7-425.1,1072-396,1066.3-364.7z"/>
			<path class="st5" d="M558.6,352.7c-35.7-0.8-28.7-79.1-100.3-134.7c-57.9-44.9-110.1-30.9-131.8-77.4
				c-11.3-24.1-12.3-60.1,5.7-77.4c30-28.8,90.4,15.8,120.4-11.5c28.2-25.6-9.2-80,14.3-103.2c34.8-34.3,188.3,14.1,217.8,111.8
				c13.5,44.6-6.3,88.9-45.9,177.7C610.1,302.6,587.4,353.4,558.6,352.7z"/>
			<path class="st10" d="M553.4-50.2c-6.3,16.2,55.3,32.7,79.5,94.2c28.1,71.5-15.5,150.1-20.6,159c-39.7,69.3-87.1,59.1-109,114.9
				c-24.5,62.3,3,155.5,58.9,185.5c62.7,33.7,120.8-33.9,182.6,2.9c46.5,27.8,27.3,74.2,82.5,117.8c56.5,44.6,128.8,37.2,147.3,35.3
				c18-1.8,125-12.7,156.1-87c28.4-67.6-22-150.1-58.9-189.8c-56-60.4-113.2-57.2-123.7-106c-4.2-19.5,8-48.4,32.4-106
				c32.2-76.2,47.9-90.1,41.2-114.9c-9.1-33.8-49.8-50-88.4-64.8c-62.1-23.8-99.1-19.3-185.5-26.5C622.9-45.8,559.8-66.8,553.4-50.2
				z"/>
			<g>
				<path class="st4" d="M989.1-487.9H764c-6.5,0-12.8,2.6-17.4,7.2c-4.6,4.6-7.2,10.9-7.2,17.4v190.5c0,6.5-2.6,12.8-7.2,17.4
					c-4.6,4.6-10.9,7.2-17.4,7.2H593.6c-6.5,0-12.8,2.6-17.4,7.2c-4.6,4.6-7.2,10.9-7.2,17.4v205.1c0,6.5,2.6,12.8,7.2,17.4
					c4.6,4.6,10.9,7.2,17.4,7.2h250.3c6.5,0,12.8-2.6,17.4-7.2c4.6-4.6,7.2-10.9,7.2-17.4v-374.2c0-6.5,2.6-12.8,7.2-17.4
					c4.6-4.6,10.9-7.2,17.4-7.2h95.9c6.5,0,12.8-2.6,17.4-7.2c4.6-4.6,7.2-10.9,7.2-17.4v-21.3c0-3.2-0.6-6.4-1.9-9.4
					c-1.2-3-3-5.7-5.3-8c-2.3-2.3-5-4.1-8-5.4C995.6-487.3,992.3-487.9,989.1-487.9z M837-484.9c16,0,32,0.7,47.9,1.3
					C868.9-484.2,852.9-484.9,837-484.9z"/>
				<path class="st21" d="M590.9-14.4c15.2-9.2,28-32.9,24.7-51.9c-2.9-16.4-16.3-21-14.3-30c2.1-9.5,18.8-11.8,27.5-11.7
					c16.5,0.2,29.6,9.6,35.7,14.1c17.2,12.6,19.5,23.3,28.6,22.5c10.3-0.9,12-15,22.3-15.2c8-0.1,14.3,8.1,22.6,18.9
					c13.1,17.1,11.3,24.6,19.3,29c13.4,7.4,27.3-8.7,32.2-1.8c3.5,4.9-0.7,16.7-4.4,27C782.5-6,779.3,4,777,7.9
					c-62.4,0.8-124.6-2.5-186.9-1.7c-9.5-3.5-19.7-8.1-19.4-12S580.7-8.3,590.9-14.4z"/>
				<path d="M719.3,8.2c-0.2-5.6-0.8-15-1.5-24.3c-1.3-15.7-3-20.2-6-24c-4.7-6-10.8-7.9-22-11.3c-14.5-4.4-27.1-8.3-32.6-2.7
					c-6.5,6.5,3.7,18.7,0,30.6c-3.2,10.6-17.5,21.6-63.2,26c4,1.5,7.9,2.9,11.7,4.3C643.5,10.7,681.4,7.2,719.3,8.2z"/>
			</g>
			<path class="st18" d="M990.1-3.6c-2,0.2-2.2-0.2-0.8-1.5c-1.7,0.7-1.8,0.4-0.7-0.8c-1.2,0.4-1.7,0.2-1.7-0.3c0,0-0.1-0.1-0.1-0.1
				c0-0.1,0-0.1,0-0.2c-0.1-0.2-0.1-0.5,0-0.8c-0.9,0.3-1.3,0-0.4-0.4c-0.7-0.1-1.2-0.2-1.2-0.4c-0.1-0.2,0.3-0.4,1-0.6
				c-1.9,0.1-1.9-0.2-0.3-1c-2,0.6-2.3,0.5-0.3-0.7c-2.2,0.9-2.2,0.6-0.5-0.8c-2.3,1.5-2.4,1.3-0.8-0.8c-1.8,1.5-2.1,1.6-0.8-0.7
				c-0.9,0.9-1.3,1.3-1.6,1.2c-0.3-0.1-0.1-0.3,0-0.6c0-0.3,0.1-0.6,0.2-0.9h-0.2l-0.1,0.1h0.1h-0.1c-0.1,0.1-0.1,0.2-0.1,0.3
				c0,0.1,0,0.1,0,0.2h0.1h-0.1c0,0,0,0,0,0.1h-0.2h-0.1l0.1,0.1h-0.1l0.1,0.1h0.1h-0.1h-0.2l0.3,0.1l-0.3-0.1h0.1c0,0,0,0-0.1,0
				h0.1h-0.1l0.1,0.1h-0.1c0,0.1,0.1,0.1,0.2,0.1c-0.2-0.1-0.4-0.2-0.5-0.3l0.6,0.3l-0.6-0.3l0.3,0.2l-0.3-0.2
				c0.1,0.1,0.3,0.2,0.5,0.3l-0.6-0.3l0.4,0.2l-0.3-0.2l0.3,0.2h-0.1l0.3,0.2l-0.2-0.1h0.1h-0.1l0.2,0.1l-0.2-0.1l0.2,0.1l-0.2-0.1
				c0.1,0.1,0.2,0.1,0.3,0.2c-0.1,0-0.2-0.1-0.3-0.2L981-12c-0.2-0.1-0.3-0.2-0.5-0.3l-0.1-0.1l0.8,0.6l-0.7-0.4l0.2,0.1l0.4,0.3
				h-0.1l0.3,0.2l-0.5-0.3l0.5,0.4c-1.2-0.8-1.9-1.2-0.9-0.6c-0.4-0.3-0.5-0.4,0-0.1l-0.1-0.1c-0.4-0.3-0.5-0.4-0.3-0.3l-0.1-0.1
				c-0.1-0.1-0.2-0.2-0.3-0.4c-0.1,0-0.3-0.1-0.4-0.2c-0.4-0.1-0.5-0.3-0.3-0.6c0-0.1,0.1-0.1,0.1-0.2c-0.4,0-0.6,0-0.6,0
				c0,0,0-0.1,0.1-0.1c-0.2-0.1,0-0.3,0.3-0.7c-0.9,0.3-1.3,0.3-0.5-0.5c-1.1,0.6-1,0.2-0.3-0.5c-0.9,0.6-1.2,0.7-0.4-0.3
				c-0.9,0.8-0.7,0.4-0.1-0.3c-0.9,0.8-1.3,1.1-0.4-0.1c-1,1.2-0.7,0.8,0-0.2c-0.8,0.9-1.1,1.3-0.3,0c-1,1.2-0.8,0.7-0.2-0.3
				c-0.6,0.7-0.9,1-0.4-0.1c-0.8,1-0.7,0.6-0.4-0.3c-0.6,0.8-0.9,1-0.6-0.1c-0.6,1-0.6,0.5-0.6-0.3c-0.3,0.4-0.5,0.6-0.7,0.4
				c0,0.3-0.1,0.3-0.1,0.2c0-0.1-0.1-0.1-0.2-0.4c0,0.1-0.1,0.1-0.1,0.1c0,0-0.1,0.1-0.2,0.1c-0.2,0.2-0.4,0-0.7-0.3l-0.1-0.1
				c-0.2,0-0.4,0-0.6-0.1h-0.1c-0.1,0-0.1-0.1-0.2-0.1c0.1,0.4-0.5,0.2-1.4-0.3c0.7,0.5,1.2,0.9,1.1,0.7c0.1,0.3,0,0.4-0.2,0.3
				c0,0.1,0,0.2-0.3,0.1c-0.3,0-0.5-0.1-0.8-0.2c0.4,0.3,0.4,0.4,0,0.3c0.3,0.2,0.3,0.2-0.5-0.2l0.5,0.2l-0.6-0.4
				c0.3,0.5-0.4,0.2-0.4-0.3c-0.5,0-0.6-0.3-0.4-0.8c-0.3-0.2-0.2-0.6,0-1.1c-1.2,0.3-2.1,0.5-2-0.7c-1.6,1.1-2.2,0.9-2.6-1
				c-0.9,0.9-1.5,0.2-2.2-0.7c-0.2,0.5-0.4,0.8-0.8,0.8c-0.2,0.6-0.4,0.7-0.9,0.3c-0.5,0.5-1.2,0.3-0.3-0.2c-1.2,0-2,0-2.2-0.3
				c-0.2-0.3,0.1-0.8,1.2-1.7c-3.6,1.5-4.4,1.3-4.8-2.7c-1.1,3.6-1.9,3.5-4.4,1.2c0.5,1,0.5,1.4,0.3,1.5c-0.2,0-0.5,0-0.6-0.1
				c-0.2-0.1-0.3-0.3-0.4-0.5c-0.6,0.5-1.3,0.4-0.4-0.5c-2.1,0.4-2.4,0-1.1-1.6c-2.4,1.3-3.3,1.3-3.4-1.7c-1.5,2.9-2.2,2.6-3.7,0.2
				c0.1,1.3-0.6,0.5-1.4-0.6c0,1.5-0.2,2.3-1.1,2c0,0.5-0.7,0-1.7-0.8c0.8,1.5,0.5,1.5-0.6,0.5c0.6,0.9,0.1,0.8-0.7,0.6
				c-0.2,0.1-0.6,0.1-0.3-0.2c-1,0.2-1.3,0.2-0.5-0.8c-1.5,0.7-1.7,0.6-0.7-0.8c-1.6,1.3-2,1.4-0.9-0.8c-1.7,2-1.9,1.7-1.1-0.6
				c-1.2,2.4-1.4,2.6-0.7-0.3c-1.1,2.8-1.2,2.5-0.9-0.3c-0.7,2.7-1,3-1.3-0.1c-0.3,3.1-0.7,2.9-1.9,0.2c0.3,2.6-0.1,2.7-2,0.9
				c0.2,0.3,0.3,0.5,0.4,0.7c0.5,0.7,0.6,0.9,0.3,0.7c0,0.1,0,0.1-0.2,0c-0.2-0.1-0.2,0-0.5-0.2c0.1,0.3,0,0.4-0.3,0.3
				c-0.1,0-0.2,0-0.3,0c0.5,0.2,0.3,0.2-0.4-0.1l-0.4-0.2c-0.1,0.1-0.2,0.1-0.2,0.1c-0.1,0-0.2,0-0.3,0c-0.1-0.1,0.2-0.5,1.1-1.3
				c-0.7,0.4-1.5,0.7-2.3,0.9c-1.2,0.1-1.6-0.7-1.7-3c-0.3,0.8-0.7,1.6-1.2,2.3c-0.1,0.2-0.3,0.3-0.6,0.4s-0.5,0-0.7-0.2
				c-0.7-0.5-1.3-1.1-1.9-1.7c0.4,1.1,0.6,1.7,0.9,1.6l0.2-0.1c-0.1,0.1-0.1,0.1-0.2,0.1c-0.2,0.2-0.4,0.3-0.6,0.3
				c-0.2,0-0.5-0.1-0.6-0.3c-0.7,0.5-1,0-1-1.6c0,2.5-0.5,2.5-0.8-0.2c-0.7,1.7-1.1,2.3-1.6,1.7c-0.1,0.1-0.2,0.2-0.3,0.2
				c-0.1,0-0.2,0.1-0.4,0h-0.1c-0.2,0.1-0.4,0.1-0.7,0c-0.3,0.1-0.8-0.1-1.5-0.6l-0.2-0.2l-0.3-0.2c0.1,0.9-0.3,0.8-0.7,0.1
				c0-0.1-0.1-0.4-0.2-0.9c-0.1-0.5-0.2-1-0.3-1.7c-1,4-1.9,4-5.2,1.8c0,0.1,0.1,0.2,0.1,0.2c2.4,1.9,2.5,1.9,0.2,0.4
				c0.5,0.7,0.6,1.1,0.3,1.3c-0.1,0.1-0.3,0.1-0.4,0.1c-0.1,0-0.2,0-0.3,0c-0.3,0-0.7,0-0.7-0.4c0.1,0.3,0.2,0.4,0.3,0.4h0.1h-0.1
				c-0.3,0-0.6,0-0.3-0.4c-0.7,0.3-1.2,0.4-1.2,0.2c-0.1,0-0.1,0-0.2,0c-0.1,0-0.2,0-0.3,0c-0.1,0-0.2-0.1-0.3-0.1
				c-0.6,0.2-0.7-0.1-0.4-0.9c0-0.4,0-0.8,0-1.2c-1.4,2.6-1.6,2.6-0.3-0.1c-2,2.9-2.6,2.9-3.2-0.7c-0.3,1.2-0.7,2.1-0.3,2.3
				c-0.4,0.2-0.7,0.4-0.9,0.5l0.9-0.1l-0.6,0.2h0.3l-3.6,0.7c-0.8,0.2-1.3,0.3-0.7-0.2c-1.3,0.6-1.5,0.6-0.2-0.3
				c-1.6,0.9-1.8,0.9-0.3-0.4c-2.2,1.3-2.6,1.4-1.6-1.3c-1.7,1.8-2.9,2.4-4.5,2.2H883c-0.2,0.1-0.5,0.1-0.7,0.1
				c0,0.1-0.2,0.1-0.3,0.1c-0.2,0-0.3,0.2-0.6,0.1c-0.8-0.3-1.6-0.7-2.4-1.1c1.2,0.9,1.7,1.4,1.7,1.4c0,0-0.3,0.1-0.6-0.1l-0.1,0.1
				c-0.4,0.4-0.8,0.3-1.3-0.3c-0.2,0.6-0.3,0.7-0.3,0.4c-0.6,0.8-0.9,0.5-0.8-1c-0.9,2-1.3,2.1-1.9-0.1c-0.3,2.3-0.7,2.3-1.9,0.4
				c0.2,1,0.2,1.5,0,1.6c-0.2,0.1-0.7-0.2-1.4-0.9c0.3,0.7,0.4,1.1,0.3,1.2c0,0-0.1,0-0.2,0c-0.1,0-0.1,0-0.2,0
				c-0.1,0-0.1-0.1-0.1-0.1c0,0-0.1-0.1-0.1-0.2c-0.1,0-0.2,0.1-0.2,0.2c0,0,0,0.1,0,0.1c0,0,0.1,0.1,0.1,0.1h0.2H872
				c0.1,0,0.2,0,0.3,0c-0.2,0-0.4,0-0.6,0c-0.3,0.1-0.6,0.1-0.8,0.1c-0.2,0-0.3,0-0.3,0c0,0-0.1,0-0.1,0c-0.1,0-0.3,0-0.4-0.1
				c-0.1,0-0.1-0.1-0.1-0.1c0,0-0.1-0.1-0.1-0.1c-0.9,0.5-0.9,0.5,0-0.1c0-0.4,0.2-0.7,0.4-1c-2.8,2.1-3.5,2.2-4-1.6
				c-1.1,4.1-1.8,4.2-5.6,2.3c0.4,0.4,0.7,0.9,0.9,1.5c1,0.4,1,0.5,0,0.2c0,0.1,0,0.2,0,0.3c0,0.1-0.1,0.2-0.2,0.2
				c-0.1,0.1-0.2,0.2-0.4,0.2c0,0.2-0.7,0.3-1.9,0.4c0.6,0,1.3-0.2,1.9-0.4h-0.1c0,0.2-0.5,0.3-1.2,0.3c-0.1,0-0.3,0-0.4,0H859
				c-0.2-0.2-0.3-0.4-0.4-0.6c-0.2-0.5-0.3-1-0.4-1.5c-1.4,3.2-2.4,3.4-5.4,1.7c0.5,0.9,0.7,1.5,0.9,1.3c0.1,0,0.1-0.1,0.1-0.1
				c0,0.1-0.1,0.1-0.1,0.1c-0.9,1-1.6,0.9-1.9-1.1c0.1,2.4-0.2,2.5-0.2,0c-0.7,2.6-1.1,2.8-1.3-0.2c-0.7,3.2-1.1,3.4-2.8,0.4
				c0.8,3.2,0.4,3.4-2.1,1.2c1.7,2.1,1.4,2-0.3,0.2c1,1.4,1,1.8-0.2,1.4c0.5,0.5,0.5,0.5-0.3,0c0.3,0.7-0.1,0.8-1,0.5
				c0.4,0.1,0.1-0.3-0.2-0.9c-0.1,0.8-0.2,1.3-0.3,1.4c-0.2,0.1-0.4-0.2-0.7-1.2c-0.2,2.4-0.9,2.3-2.6,0.7c0.9,1.9,0.9,2.3-1,0.8
				c1.3,2,0.9,2.1-1.2,1.3c1.3,1.3,0.8,1.6-0.5,0.7c0.7,0.8,0.3,1.1-0.4,0.8c0.4,0.1,0.3-0.2,0.2-1c-0.5,1-1,1.6-1.3,1.6
				c-0.4,0-0.6-0.6-0.8-2c-0.9,2.9-1.5,2.6-2.8,0.3c0.4,2.4,0.2,3.1-2.3,1.7c1.9,2.5,1.5,2.8-1.4,2.2c1.7,0.9,0.9,0.8-0.5,0.6
				c1,0.9,1.1,1.4,0,1.4c0.9,0.4,0.6,0.7-0.1,0c0.2,0.7,0,0.5-0.4-0.3c0,0.3,0,0.7-0.1,1c0,0.1-0.1-0.1-0.2-0.8
				c-0.1,1.5-0.3,1-0.6-0.1c0,1.5-0.1,2.2-0.9,0.3c0.2,2.1-0.3,1.5-1.1,0.1c0.2,1.3,0.2,2.2-1.5,1.1c1.3,2.5,1,2.9-1.9,2.2
				c1.5,1.3,0.6,1.4-0.8,1.5c0.7,0.4,1.2,0.7,1.2,1c0,0.3-0.2,0.7-1.2,0.9l0.7,0.3c0-0.1-0.1-0.2-0.2-0.4c0.5,0.4,0.5,0.5,0.2,0.4
				c0.4,0.9,0,1.1-1.3,0.7c0.8,0.4,1.2,0.8,1.1,0.9c5.3,0-2.3,4.6-4.2,7.2c15.1,0.1,30.3,0.6,45.4,1.2c43-1.3,92.1-4.3,127.7-4.8
				c0-0.3,0.1-0.5,0.3-0.7c0.2-0.2,0.4-0.4,0.6-0.5C988.9-1.5,988.6-2.2,990.1-3.6z"/>
		</g>
	</g>
	<path class="st12" d="M-24,112.2c3.1-10.4,15.1-11.5,20.9-23.7C10.1,61.5,24,79,26.8,66.9c1.5-6.3,3.4-9.5,6.7-12.4
		c7.1-6.4,27.6,2.7,54.3,7.9c7.7,1.5,19.4,4.5,54.8,0.2c9.9-1.2,13.2-6.9,25.1-9.6c7.4-1.7,28-6.5,35.5,2.5
		c4.4,5.3,0.4,10.6,3.7,16.7c4.1,7.7,22.3-0.9,33.7-0.8c6.4,0.1,16.8,6.5,22.1,9.9c18.7,11.9,11.2,55.1-7.3,70.4
		c-7.2,5.9-17.4,7.7-56.9,0.5c-52.9-9.6-57.4-16.8-83-20.3C49,122.9,9.6,161.8-14,140.1C-21,133.7-26.8,121.9-24,112.2z"/>
	<path class="st10" d="M198.3,83.5c9,0,16.3-6.8,16.3-15.1s-7.3-15.1-16.3-15.1c-9,0-16.3,6.8-16.3,15.1S189.3,83.5,198.3,83.5z"/>
	<path class="st12" d="M190.1,70.1c0.1,5.8,8.7,11.2,14.8,8.6c1.8-0.8,3.3-2.2,4.3-3.9c1-1.7,1.4-3.7,1.2-5.7
		c-0.1-1.4-0.6-2.7-1.4-3.8c-0.7-0.9-1.4-1.8-2.3-2.5c-1.1-0.9-2.5-1.5-3.9-1.8C196.8,59.5,190,64.9,190.1,70.1z"/>
	<path class="st13" d="M201.3,60.9c-2.1,1.8-2.8,5.8-1.4,9.9c1.3,4,4.2,6.8,7,7c3-2.7,5.3-7.1,3.2-11c0-0.1-0.2-0.4-0.2-0.5
		c-0.2-0.3-0.4-0.7-0.6-1c-0.5-0.9-1.2-1.7-2.1-2.3c-1.1-0.8-2.2-1.4-3.5-1.8c-0.4-0.1-0.9-0.2-1.3-0.3
		C202.1,60.8,201.7,60.8,201.3,60.9z"/>
	<path class="st10" d="M234,83.5c9,0,16.3-6.8,16.3-15.1s-7.3-15.1-16.3-15.1c-9,0-16.3,6.8-16.3,15.1S225,83.5,234,83.5z"/>
	<path class="st12" d="M225.9,70.6c0.1,5.8,8.7,11.2,14.8,8.6c1.8-0.8,3.3-2.2,4.3-3.9c1-1.7,1.4-3.7,1.2-5.7
		c-0.1-1.4-0.6-2.7-1.4-3.8c-0.7-0.9-1.4-1.8-2.3-2.5c-1.2-0.9-2.5-1.5-3.9-1.9C232.5,60,225.8,65.4,225.9,70.6z"/>
	<path class="st13" d="M237.1,61.4c-2.1,1.8-2.8,5.8-1.4,9.9c1.3,4,4.2,6.8,7,7c3-2.7,5.3-7.1,3.2-11c-0.1-0.2-0.2-0.3-0.2-0.5
		c-0.2-0.3-0.4-0.7-0.6-1c-0.5-0.9-1.2-1.7-2.1-2.3c-1.1-0.8-2.2-1.4-3.5-1.8c-0.4-0.1-0.9-0.2-1.3-0.3
		C237.8,61.3,237.4,61.3,237.1,61.4z"/>
	<path class="st21" d="M194.6,88c4.1,2.9,8.7,4.9,13.6,5.9c13.8,2.8,25-3.5,28-5.4c-1,1.7-2.2,3.2-3.6,4.5c-7.4,6.8-19.6,7-28.5,2.7
		C200.4,93.9,197.2,91.3,194.6,88z"/>
	<path class="st26" d="M146.8,78c7,6.2,13.9,12.8,22.1,17.3c1.4,0.8,2.6-1.4,1.2-2.2c-8-4.4-14.7-11-21.5-17
		C147.3,75,145.6,76.9,146.8,78L146.8,78z"/>
	<path class="st26" d="M169.2,95.5l8.2,9.4c0.2,0.2,0.6,0.3,0.9,0.3c0.3,0,0.6-0.2,0.9-0.4c0.2-0.2,0.3-0.6,0.3-0.9
		c0-0.3-0.1-0.6-0.4-0.9c-2.7-3.1-5.4-6.3-8.2-9.4c-0.2-0.2-0.6-0.4-0.9-0.3c-0.3,0-0.6,0.2-0.9,0.4c-0.2,0.2-0.3,0.6-0.3,0.9
		C168.9,94.9,169,95.2,169.2,95.5z"/>
	<path class="st26" d="M170.8,96.4c4.2,1.8,8.8,2.7,13.4,2.7c1.6,0,1.5-2.5-0.1-2.5c-4.2,0-8.3-0.9-12.1-2.4c-0.3-0.1-0.6-0.2-1-0.1
		c-0.3,0.1-0.6,0.3-0.7,0.6c-0.1,0.3-0.2,0.6-0.1,1C170.2,96,170.5,96.3,170.8,96.4z"/>
	<path class="st26" d="M171.7,95.1c3.7-0.8,7.3-1.8,10.8-3c0.2,0,0.3-0.1,0.5-0.2c0.1-0.1,0.2-0.2,0.3-0.4c0.1-0.1,0.1-0.3,0.1-0.5
		c0-0.2,0-0.3-0.1-0.5c-0.1-0.2-0.1-0.3-0.2-0.4s-0.2-0.2-0.4-0.3c-0.2-0.1-0.3-0.1-0.5-0.1c-0.2,0-0.3,0-0.5,0.1
		c-3.5,1.2-7.2,2.2-10.8,3c-0.3,0.1-0.6,0.3-0.7,0.6c-0.2,0.3-0.2,0.6-0.1,1c0.1,0.3,0.3,0.6,0.6,0.7
		C171,95.2,171.3,95.2,171.7,95.1z"/>
	<path class="st8" d="M816.3,579.9v93.8c0,51.6-43.3,93.4-96.8,93.4H381.9c-24.6,0-47.1-8.8-64.1-23.4c-3.1-2.7-6.5-5.1-10-7.3
		c-36.3-23.6-78.7-150.7-114-214c-29.8-53.4-48.6-144.6,0-195.5c56.7-59.4,186.4-44.6,255.6,11.3c34.5,27.9,50.7,59.9,69.1,94.2
		c17.8,33.2,53.3,54.1,92.1,54.1h109C773,486.5,816.3,528.4,816.3,579.9z"/>
	<g>
		<path class="st19" d="M368.9,277.2c-6.3,5.5-13.3,11.7-23.5,13c-8.8,1.1-10.7-2.6-35.8-7c-9.3-1.7-18.9-1.8-28.2-0.3
			c-31.6,4.6-34.4,4.6-38,2.9c-7.1-3.3-14.1-11.3-12.1-16.8c2-5.6,12.5-6.3,13.6-6.3c-5.6,0.2-22.1,0-34.5-11.8
			c-6.7-6.4-14.6-18.6-10.8-25.1c4.4-7.4,21.5-3.2,22.8-8.2c1.1-4.2-10.4-7.4-11.1-15.2c-0.7-7.9,9.9-15.9,18.7-18.7
			c14.7-4.6,27.8,4.3,29.8,5.7c0-0.5,0.9-8.1,7-11.1c6.1-2.9,13.8,0.9,17.1,6.4c1.1,1.9,1.8,4,2,6.1c0.9-3.9,2.9-7.4,5.7-10.3
			c2.5-2.3,5.5-4.1,8.8-5.1c3.3-1,6.8-1.3,10.2-0.9c9.1,1.6,17.5,9.2,18.4,19c0.4,5.1-1.1,10.2-4.2,14.3c3.2-3.5,7.1-6.3,11.5-8.2
			c6.7-2.8,19.8-5.7,26.7,1.2c7.9,8,2.6,24.6-3.8,33.5c-2.7,3.8-6.2,7.1-10.2,9.6c2.5-0.6,5.1-0.8,7.7-0.7
			c10.8,0.5,23.9,7.2,24.7,16.2C381.9,265.8,375.9,271,368.9,277.2z"/>
		<path class="st20" d="M302.7,265.7h-12.9v96.4h12.9V265.7z"/>
		<path class="st19" d="M295.4,275.4c14.6,0,26.5-9.7,26.5-21.7c0-12-11.9-21.7-26.5-21.7c-14.6,0-26.5,9.7-26.5,21.7
			C268.9,265.6,280.8,275.4,295.4,275.4z"/>
	</g>
	<g>
		<path class="st19" d="M453,344.9c-3.4,2.9-7.1,6.2-12.5,6.9c-4.7,0.6-5.7-1.4-19.1-3.7c-5-0.9-10.1-1-15.1-0.2
			c-16.9,2.5-18.4,2.4-20.3,1.5c-3.8-1.8-7.5-6-6.4-9c1.1-3,6.7-3.4,7.3-3.4c-3,0.1-11.8,0-18.4-6.3c-3.6-3.4-7.8-9.9-5.8-13.4
			c2.3-4,11.5-1.7,12.2-4.4c0.6-2.2-5.6-4-5.9-8.1c-0.4-4.2,5.3-8.5,10-10c7.9-2.5,14.8,2.3,15.9,3c0-0.3,0.5-4.4,3.7-5.9
			c3.3-1.6,7.4,0.5,9.1,3.4c0.6,1,1,2.1,1.1,3.3c0.5-2.1,1.5-4,3-5.5c1.3-1.3,3-2.2,4.7-2.7c1.8-0.6,3.6-0.7,5.4-0.5
			c4.9,0.8,9.3,4.9,9.8,10.2c0.2,2.7-0.6,5.4-2.2,7.6c1.7-1.9,3.8-3.4,6.1-4.4c3.6-1.5,10.6-3,14.2,0.7c4.2,4.3,1.4,13.1-2,17.9
			c-1.5,2-3.3,3.8-5.4,5.1c1.3-0.3,2.7-0.4,4.1-0.4c5.8,0.3,12.8,3.8,13.2,8.6C459.9,338.8,456.8,341.6,453,344.9z"/>
		<path class="st20" d="M417.6,338.7h-6.9v51.5h6.9V338.7z"/>
		<path class="st19" d="M413.8,343.9c7.8,0,14.2-5.2,14.2-11.6s-6.3-11.6-14.2-11.6c-7.8,0-14.2,5.2-14.2,11.6
			S406,343.9,413.8,343.9z"/>
	</g>
	<g>
		<path class="st19" d="M255.5,361.3c-3.4,2.9-7.1,6.2-12.5,6.9c-4.7,0.6-5.7-1.4-19.1-3.7c-5-0.9-10.1-1-15.1-0.2
			c-16.9,2.5-18.4,2.4-20.3,1.5c-3.8-1.8-7.5-6-6.4-9c1.1-3,6.7-3.4,7.3-3.4c-3,0.1-11.8,0-18.4-6.3c-3.6-3.4-7.8-9.9-5.8-13.4
			c2.3-4,11.5-1.7,12.2-4.4c0.6-2.2-5.6-4-5.9-8.1c-0.4-4.2,5.3-8.5,10-10c7.9-2.5,14.8,2.3,15.9,3c0-0.3,0.5-4.4,3.7-5.9
			c3.3-1.6,7.4,0.5,9.1,3.4c0.6,1,1,2.1,1.1,3.3c0.5-2.1,1.5-4,3-5.5c1.3-1.3,3-2.2,4.7-2.7c1.8-0.6,3.6-0.7,5.4-0.5
			c4.9,0.8,9.3,4.9,9.8,10.2c0.2,2.7-0.6,5.4-2.2,7.6c1.7-1.9,3.8-3.4,6.1-4.4c3.6-1.5,10.6-3,14.2,0.7c4.2,4.3,1.4,13.1-2,17.9
			c-1.5,2-3.3,3.8-5.4,5.1c1.3-0.3,2.7-0.4,4.1-0.4c5.8,0.3,12.8,3.8,13.2,8.6C262.4,355.2,259.3,358,255.5,361.3z"/>
		<path class="st20" d="M220.1,355.2h-6.9v51.5h6.9V355.2z"/>
		<path class="st19" d="M216.3,360.3c7.8,0,14.2-5.2,14.2-11.6s-6.3-11.6-14.2-11.6c-7.8,0-14.2,5.2-14.2,11.6
			S208.5,360.3,216.3,360.3z"/>
	</g>
	<path class="st5" d="M1364.1,518.7l-149,231.2c-8.4,13,1,30.2,16.5,30.2h298c15.5,0,24.9-17.2,16.5-30.2l-149-231.2
		C1389.3,506.7,1371.8,506.7,1364.1,518.7z"/>
	<path class="st4" d="M230.6,693.5H35.1c-26.6,0-48.2-21.6-48.2-48.2V470.6c0-26.6,21.6-48.2,48.2-48.2h195.5
		c26.6,0,48.2,21.6,48.2,48.2v174.7C278.8,671.9,257.3,693.5,230.6,693.5z"/>
	<path class="st5" d="M1024.2,448.8l-195,302.7c-8.4,13,1,30.2,16.5,30.2h390.1c15.5,0,24.9-17.2,16.5-30.2l-195-302.7
		C1049.5,436.8,1032,436.8,1024.2,448.8z"/>
	<path class="st4" d="M1200.9,601.5l-84.2,145.8c-7.5,13.1,1.9,29.4,17,29.4H1302c15.1,0,24.5-16.3,17-29.4l-84.2-145.8
		C1227.2,588.5,1208.4,588.5,1200.9,601.5z"/>
	<g id="Layer_8">
	</g>
	<path class="st5" d="M-181.1,465.9l-174.2,270.4c-8.4,13,1,30.2,16.5,30.2H9.6c15.5,0,24.9-17.2,16.5-30.2l-174.2-270.4
		C-155.9,453.9-173.4,453.9-181.1,465.9z"/>
</g>
<g id="Layer_2">
</g>
<g id="Layer_3">
</g>
<g id="Layer_4">
	<g>
		<path class="st40" d="M384.2,137.5c-9.5-8.6-19.7-20.4-27.2-36.2c-1.2-2.6-2.3-5.2-3.3-7.7"/>
		<ellipse transform="matrix(0.9771 -0.2126 0.2126 0.9771 -9.8048 76.7835)" class="st20" cx="352.2" cy="84" rx="5.6" ry="14.6"/>
		<path class="st40" d="M390,129.9c-0.8-12.8,0.1-28.4,5.8-44.9c0.9-2.7,1.9-5.3,3-7.8"/>
		
			<ellipse transform="matrix(0.531 -0.8474 0.8474 0.531 131.0295 375.2166)" class="st20" cx="404.5" cy="69.2" rx="14.6" ry="5.6"/>
		<path class="st40" d="M386.5,135.3c-6.1-11.3-11.8-25.8-13.6-43.2c-0.3-2.9-0.5-5.6-0.5-8.3"/>
		<ellipse transform="matrix(0.126 -0.992 0.992 0.126 253.3787 435.9381)" class="st20" cx="374.1" cy="74.2" rx="14.6" ry="5.6"/>
		<path class="st41" d="M387.2,137.1c0.2-2.8-13.9-10.5-28.7-6.5c-10,2.7-24.8,12.1-27,28.5c-0.7,5.2,0,9.8,0.8,12.9
			c5.1-9.5,13.1-20.8,24.9-27.4C372.9,135.9,387,139.9,387.2,137.1z"/>
		<path class="st41" d="M386.9,136.7c-1.9-0.9-0.4-15.1,9.2-25.2c6.5-6.9,19.6-15,31.4-10.3c3.7,1.5,6.4,3.8,8.1,5.7
			c-8.7,0.4-19.8,2.3-29.8,9.1C392.8,124.8,388.8,137.6,386.9,136.7z"/>
	</g>
	<g>
		<path class="st40" d="M560.8,37.5c-2.5-8.7-4.2-19.7-2.7-31.9c0.2-2,0.5-4,0.9-5.8"/>
		
			<ellipse transform="matrix(0.3387 -0.9409 0.9409 0.3387 377.7506 524.0836)" class="st20" cx="561.7" cy="-6.7" rx="10.4" ry="4"/>
		<path class="st40" d="M567.2,35.1c4.3-8,10.8-17,20.4-24.8c1.6-1.3,3.2-2.5,4.7-3.5"/>
		<ellipse transform="matrix(0.8999 -0.4361 0.4361 0.8999 58.1246 261.4917)" class="st20" cx="598.7" cy="4.1" rx="10.4" ry="4"/>
		<path class="st40" d="M563,37c0.6-9.1,2.6-19.9,8.1-31c0.9-1.8,1.8-3.6,2.8-5.2"/>
		<ellipse transform="matrix(0.6336 -0.7737 0.7737 0.6336 215.364 446.056)" class="st20" cx="578.6" cy="-4.3" rx="10.4" ry="4"/>
		<path class="st41" d="M562.8,38.4c1.2-1.6-4.4-11.5-14.8-14.7c-7.1-2.1-19.4-2.1-26.9,6.9c-2.4,2.9-3.6,5.9-4.4,8.1
			c6.7-3.8,15.7-7.6,25.3-7.1C554.6,32.3,561.6,40,562.8,38.4z"/>
		<path class="st41" d="M562.7,38c-0.8-1.3,5.5-9.2,15-11.7c6.5-1.7,17.4-1.6,22.7,5.6c1.7,2.3,2.4,4.7,2.7,6.5
			c-5.3-3-12.8-6.1-21.3-5.7C570.7,33.1,563.5,39.3,562.7,38z"/>
	</g>
	<path class="st42" d="M1069.8,293.2c-8.3,1.8-8.3,1.9-8.9,1.9c-5,0.4-9.3-4.5-11.3-6.7c-5.7-6.5-6.3-14.2-6.7-19.2
		c-0.4-4.5-1.2-16.1,6.2-27.6c4.7-7.4,10.7-11.5,14.2-13.5c-0.4-1.3-0.9-4-0.2-7.2c0.3-1.4,1.3-5.1,4.6-7.9
		c4.7-4.1,10.7-3.5,12.3-3.4c1.6,0.2,8.1,0.8,12,6.5c4.8,7,1.2,15,1,15.6c-2.5,5.4-8.2,9.8-14.7,9.7c-5-0.1-8.6-2.8-9.8-3.8
		c-0.8,0.4-2.1,1.2-3.6,2.3c-12.9,9.5-12.6,26.3-12.6,31c0,2.6,0.4,5.3,2.3,6.6c1.5,1,3.3,0.8,4,0.7c2.7-0.3,4.5-2.1,5.9-3.6
		c1.9-2,2.7-3.6,3.7-5.4c0.6-1,3.6-6.2,6.2-8.6c6.3-5.8,17.9-3,21.8-2c4.1,1,8.2,2,11.7,5.5c1.7,1.7,3.4,4.2,6.9,9.1
		c2.3,3.2,2.8,4.2,4.3,5.1c3.2,2,7.2,1.4,9.8,0.7c0,0.3-0.2,2.5-2,3.8c-1.5,1.1-3.6,1.3-5.4,0.4c-0.1,0.8-0.3,1.8-0.8,2.9
		c-2.1,4-8,5.6-12.8,4.9c-4.6-0.7-5.2-3.2-9.1-2.8c-3.3,0.4-6.6,2.6-6.6,4.4c0,0.6,0.4,0.6,0.7,1.7c0.8,2.5-0.3,4.7-0.4,4.8
		c-0.3,0.6-1,1.9-2.5,2.5c-1.9,0.8-3.7-0.1-4-0.2c-2.2-1.1-2.6-3.4-2.6-3.7c0.1,0.4,0.2,1.6-0.6,2.6c-0.8,1.1-2.2,1.2-3.1,1.3
		c-0.6,0.1-3,0.3-4.3-1.1c-2-2.1,0.4-6-1.3-7.4C1073.2,292.5,1072,292.7,1069.8,293.2z"/>
	<path class="st8" d="M1081,240.2c1.4,1,2.1,2.1,2.4,2.8c1.6,3.4,0.1,8.2-3.7,11.9c1.2,0.4,4,1.1,7.3,0.2c5.8-1.6,8.2-6.8,8.5-7.4
		c1.6-3.7,1-7,0.7-8.5c-0.8-4.4-3.3-7.2-4.4-8.3c-0.4,0.7-1,1.2-1.4,1.5c-2.8,1.9-6.7-0.2-6.9-0.3c0.3,1.3,0.3,2.3,0.3,3.1
		c0,1.6,0,2.6-0.6,3.5C1082.6,239.7,1081.6,240.1,1081,240.2z"/>
	<path class="st8" d="M1077.6,295.7c-4.2-0.2-5.9-0.7-7.2-1.3c-1-0.5-4.3-2-5.5-5.1c-1.4-3.3,0.2-6.5,2.2-10.6
		c2.2-4.5,5.7-11.6,13.1-14.2c1.6-0.5,6.5-2.3,9,0.2c1.4,1.4,1.5,3.4,1.4,4.5c1.4-0.3,3.5-0.7,6-0.8c2.6,0,4.9-0.1,7.5,1.1
		c1.1,0.5,4.1,1.9,5.3,4.8c1.9,4.5-2.2,9.8-3.4,11.5c-5.4,7.1-14,8.8-17.4,9.4C1084.6,296,1081.5,295.9,1077.6,295.7z"/>
	<path class="st22" d="M1087,301.8c0.3,0.9,0.6,2.3,1,3.9c0.5,2.4,2.3,10.3,1.7,18.5c-0.8,10.5-5.3,19-8,23.4c-0.9,0.1-2,0.2-3,0.4
		c-3.8,0.7-6.9,2.1-9.3,3.4c2.3-0.2,4.7-0.3,7-0.5c-0.7,0.1-2.2,0.5-3.6,1.8c-1.4,1.1-2,2.5-2.3,3.1c1.3-0.6,3-1.2,5-1.6
		c1.5-0.3,2.9-0.5,4.1-0.5c-0.1,0.6-0.3,1.6-1.1,2.6c-0.5,0.7-1.1,1.1-1.5,1.4c1.7,0.4,2.8,0,3.4-0.3c0.3-0.1,0.6-0.3,2.3-1.8
		c1.8-1.6,1.8-1.7,2.3-2c0.9-0.6,2.4-0.9,5-0.1c0.2-1.2-0.1-2-0.3-2.4c-0.8-1.7-3.1-2.7-5.8-2.3c1.5-3.2,2.7-5.9,3.6-8.1
		c2.3-5.6,3.6-8.7,4.5-13c0.9-4.1,1-7.3,1-8.5c0.1-3.8-0.3-10-3.2-17.5C1088.9,301.7,1088,301.7,1087,301.8z"/>
	<path class="st22" d="M1077.9,301.6c2.8,2.7,4.6,5.3,5.9,7.1c2.5,3.9,2.8,5.9,2.9,7.3c0,0.7,0,1.9-0.5,3.3
		c-0.5,1.3-1.4,2.3-4.3,4.4c-3.1,2.2-3.3,2-5.4,3.6c-1.5,1.1-3.2,2.5-4.9,4.8c-1.9,2.6-2.7,5-3,5.9c-1.1,3.7-0.9,6.9-0.6,8.8
		c0.9-2.1,1.8-4.2,2.6-6.3c0,0.7,0.2,1.7,0.8,2.9c1.2,2.3,3.3,3.1,3.9,3.4c-1.4-5.2-1.4-6.7-0.9-6.9c0.1,0,0.3-0.1,1.9,1
		c1,0.7,1.9,1.4,2.5,1.9c0.1-0.9,0.3-2.3-0.3-4c-1.1-3.4-4-4.9-4.6-5.3c0.7-0.7,1.9-1.7,3.4-2.9c2.5-1.8,3.7-2.3,5.9-3.9
		c2.5-1.8,3.7-2.7,4.6-4.1c3-4.7,0.6-10.8,0.4-11.3c-0.7-1.7-1.7-3-3.8-5.6c-1.4-1.8-2.7-3.2-3.7-4.2
		C1079.7,301.5,1078.8,301.6,1077.9,301.6z"/>
	<path class="st12" d="M1078,221c1.5-2.6,6.7-3,8.9-0.3c0.6,0.8,1,1.8,1,2.9c0,1-0.3,2.1-0.9,2.9c-0.4,0.6-0.9,1.1-1.6,1.4
		c-0.5,0.3-1.1,0.4-1.7,0.6c-0.7,0.1-1.5,0.1-2.2-0.1C1078.4,227.5,1076.7,223.3,1078,221z"/>
	<path class="st13" d="M1080.8,228c-0.5-1.3,0.2-3.4,1.8-4.9c1.6-1.5,3.6-2,4.9-1.5c0.7,2,0.7,4.6-1.3,5.8c0,0-0.2,0.1-0.2,0.2
		c-0.2,0.1-0.3,0.2-0.5,0.3c-0.5,0.3-1,0.5-1.5,0.5c-0.7,0.1-1.4,0.1-2,0c-0.2,0-0.5-0.2-0.7-0.2
		C1081.2,228.1,1081,228.1,1080.8,228z"/>
	<g>
		<path class="st42" d="M1151.8,172.1c-6.4,1.4-6.4,1.4-6.9,1.5c-3.9,0.3-7.2-3.4-8.7-5.2c-4.4-5-4.9-10.9-5.2-14.8
			c-0.3-3.5-0.9-12.4,4.8-21.3c3.7-5.7,8.3-8.8,10.9-10.4c-0.3-1-0.7-3.1-0.2-5.6c0.2-1.1,1-3.9,3.5-6.1c3.6-3.2,8.2-2.7,9.5-2.6
			c1.3,0.1,6.3,0.6,9.3,5c3.7,5.4,1,11.6,0.7,12.1c-1.9,4.2-6.3,7.6-11.4,7.5c-3.9-0.1-6.6-2.2-7.6-3c-0.6,0.3-1.6,0.9-2.8,1.8
			c-9.9,7.4-9.7,20.3-9.7,23.9c0,2,0.3,4.1,1.8,5.1c1.1,0.8,2.5,0.6,3,0.6c2.1-0.3,3.5-1.7,4.5-2.8c1.4-1.5,2.1-2.8,2.9-4.2
			c0.4-0.7,2.8-4.8,4.8-6.7c4.8-4.5,13.8-2.3,16.8-1.6c3.1,0.8,6.3,1.6,9.1,4.2c1.3,1.3,2.7,3.2,5.4,7c1.8,2.5,2.2,3.3,3.3,4
			c2.5,1.6,5.6,1.1,7.6,0.6c0,0.2-0.1,1.9-1.6,3c-1.2,0.9-2.8,1-4.2,0.3c-0.1,0.6-0.2,1.4-0.6,2.2c-1.6,3.1-6.2,4.3-9.9,3.8
			c-3.6-0.5-4-2.5-7-2.1c-2.5,0.3-5.1,2-5.1,3.4c0,0.5,0.3,0.5,0.6,1.3c0.6,1.9-0.2,3.6-0.3,3.7c-0.2,0.4-0.7,1.5-1.9,1.9
			c-1.5,0.6-2.8-0.1-3-0.2c-1.7-0.9-2-2.7-2-2.9c0,0.3,0.1,1.2-0.5,2c-0.6,0.9-1.7,0.9-2.4,1c-0.5,0-2.3,0.2-3.3-0.8
			c-1.6-1.6,0.3-4.6-1-5.7C1154.4,171.6,1153.5,171.8,1151.8,172.1z"/>
		<path class="st8" d="M1160.4,131.2c1.1,0.8,1.6,1.6,1.9,2.2c1.2,2.7,0.1,6.3-2.8,9.2c0.9,0.3,3.1,0.9,5.7,0.2
			c4.5-1.2,6.3-5.2,6.6-5.7c1.2-2.8,0.8-5.4,0.6-6.6c-0.7-3.4-2.6-5.5-3.4-6.4c-0.3,0.6-0.7,0.9-1.1,1.1c-2.2,1.5-5.2-0.2-5.3-0.2
			c0.2,1,0.2,1.8,0.2,2.4c0,1.2,0,2-0.5,2.7C1161.7,130.8,1160.9,131.1,1160.4,131.2z"/>
		<path class="st8" d="M1157.8,174c-3.3-0.1-4.5-0.5-5.6-1c-0.8-0.4-3.3-1.6-4.3-3.9c-1-2.5,0.2-5,1.7-8.2
			c1.7-3.5,4.4-8.9,10.1-10.9c1.2-0.4,5-1.7,6.9,0.2c1.1,1.1,1.1,2.7,1.1,3.5c1.1-0.3,2.7-0.6,4.6-0.6c2,0,3.8-0.1,5.8,0.9
			c0.8,0.4,3.2,1.5,4.1,3.7c1.5,3.5-1.7,7.6-2.7,8.9c-4.2,5.5-10.8,6.8-13.4,7.3C1163.2,174.3,1160.8,174.2,1157.8,174z"/>
		<path class="st22" d="M1165.1,178.7c0.2,0.7,0.5,1.7,0.8,3c0.4,1.8,1.8,7.9,1.3,14.3c-0.6,8.1-4.1,14.6-6.2,18
			c-0.7,0.1-1.5,0.1-2.3,0.3c-3,0.5-5.4,1.6-7.1,2.6c1.8-0.1,3.6-0.3,5.4-0.4c-0.5,0.1-1.7,0.4-2.8,1.4c-1,0.9-1.5,1.9-1.7,2.4
			c1-0.5,2.3-0.9,3.9-1.3c1.2-0.2,2.3-0.4,3.2-0.4c-0.1,0.4-0.3,1.2-0.9,2c-0.4,0.5-0.8,0.9-1.2,1.1c1.3,0.3,2.1,0,2.6-0.2
			c0.2-0.1,0.5-0.2,1.7-1.4c1.4-1.2,1.4-1.3,1.7-1.5c0.7-0.4,1.8-0.7,3.9-0.1c0.2-0.9-0.1-1.6-0.2-1.8c-0.6-1.3-2.4-2.1-4.4-1.7
			c1.2-2.4,2.1-4.6,2.8-6.3c1.8-4.3,2.8-6.7,3.5-10c0.7-3.1,0.8-5.6,0.8-6.6c0.1-2.9-0.2-7.8-2.5-13.5
			C1166.5,178.6,1165.8,178.7,1165.1,178.7z"/>
		<path class="st22" d="M1158,178.6c2.1,2.1,3.6,4.1,4.5,5.5c1.9,3,2.2,4.5,2.2,5.6c0,0.6,0,1.5-0.4,2.5c-0.4,1-1.1,1.8-3.3,3.4
			c-2.4,1.7-2.5,1.6-4.1,2.8c-1.1,0.9-2.5,1.9-3.8,3.7c-1.5,2-2.1,3.9-2.3,4.5c-0.9,2.8-0.7,5.3-0.5,6.8c0.7-1.6,1.4-3.2,2-4.8
			c0,0.5,0.1,1.3,0.6,2.2c0.9,1.7,2.5,2.4,3,2.6c-1.1-4-1-5.1-0.7-5.3c0.1,0,0.2-0.1,1.4,0.8c0.8,0.5,1.4,1.1,1.9,1.4
			c0.1-0.7,0.2-1.8-0.2-3.1c-0.8-2.6-3.1-3.8-3.6-4.1c0.6-0.5,1.4-1.3,2.6-2.2c1.9-1.4,2.8-1.8,4.5-3c1.9-1.4,2.9-2.1,3.6-3.2
			c2.3-3.6,0.4-8.3,0.3-8.7c-0.6-1.4-1.3-2.3-2.9-4.3c-1.1-1.4-2.1-2.5-2.8-3.2C1159.4,178.5,1158.7,178.6,1158,178.6z"/>
		<path class="st12" d="M1158.1,116.4c1.1-2,5.2-2.3,6.9-0.2c0.5,0.6,0.7,1.4,0.8,2.2c0,0.8-0.2,1.6-0.7,2.2
			c-0.3,0.5-0.7,0.8-1.2,1.1c-0.4,0.2-0.8,0.3-1.3,0.4c-0.6,0.1-1.2,0.1-1.7-0.1C1158.4,121.4,1157.1,118.2,1158.1,116.4z"/>
		<path class="st13" d="M1160.3,121.8c-0.4-1,0.1-2.6,1.4-3.8c1.3-1.2,2.8-1.6,3.8-1.1c0.5,1.6,0.5,3.5-1,4.5c0,0-0.2,0.1-0.2,0.1
			c-0.1,0.1-0.3,0.2-0.4,0.2c-0.4,0.2-0.7,0.4-1.2,0.4c-0.5,0.1-1.1,0.1-1.6,0c-0.2,0-0.4-0.1-0.5-0.2
			C1160.6,121.9,1160.4,121.8,1160.3,121.8z"/>
	</g>
	<g>
		<path class="st42" d="M1280.5,271.8c8.8,1.9,8.8,2,9.4,2c5.3,0.5,9.9-4.7,12-7.1c6-6.9,6.7-15,7.1-20.4c0.4-4.8,1.2-17.1-6.6-29.4
			c-5-7.8-11.4-12.2-15.1-14.3c0.4-1.4,1-4.3,0.3-7.7c-0.3-1.5-1.4-5.4-4.8-8.4c-5-4.4-11.3-3.7-13-3.6c-1.7,0.2-8.6,0.9-12.8,6.9
			c-5.1,7.4-1.3,15.9-1,16.6c2.7,5.8,8.7,10.4,15.7,10.3c5.3-0.1,9.1-3,10.4-4.1c0.8,0.5,2.2,1.2,3.8,2.4
			c13.7,10.1,13.4,28,13.3,32.9c0,2.8-0.4,5.6-2.4,7c-1.6,1.1-3.5,0.8-4.2,0.8c-2.9-0.3-4.8-2.3-6.2-3.8c-2-2.1-2.8-3.8-3.9-5.7
			c-0.6-1-3.8-6.6-6.6-9.2c-6.7-6.2-19-3.2-23.1-2.2c-4.3,1.1-8.7,2.1-12.5,5.8c-1.8,1.8-3.7,4.4-7.4,9.7c-2.4,3.4-3,4.5-4.6,5.5
			c-3.4,2.2-7.7,1.5-10.4,0.8c0,0.3,0.2,2.6,2.2,4.1c1.6,1.2,3.8,1.3,5.7,0.4c0.1,0.8,0.3,1.9,0.9,3.1c2.3,4.2,8.5,6,13.6,5.2
			c4.9-0.7,5.6-3.4,9.7-2.9c3.5,0.4,7,2.7,7,4.7c0,0.6-0.4,0.6-0.8,1.8c-0.9,2.6,0.3,5,0.4,5.1c0.3,0.6,1,2,2.7,2.7
			c2,0.8,3.9-0.1,4.2-0.3c2.3-1.2,2.7-3.7,2.8-3.9c-0.1,0.4-0.2,1.7,0.6,2.8c0.9,1.2,2.3,1.3,3.3,1.4c0.7,0.1,3.2,0.3,4.6-1.1
			c2.1-2.2-0.5-6.3,1.4-7.9C1276.9,271,1278.1,271.3,1280.5,271.8z"/>
		<path class="st8" d="M1268.6,215.5c-1.5,1.1-2.2,2.2-2.6,3c-1.7,3.7-0.1,8.7,3.9,12.7c-1.3,0.4-4.3,1.2-7.8,0.2
			c-6.2-1.7-8.7-7.2-9-7.9c-1.7-3.9-1.1-7.5-0.8-9c0.9-4.7,3.5-7.6,4.7-8.8c0.5,0.8,1,1.3,1.4,1.6c3,2,7.2-0.2,7.3-0.3
			c-0.3,1.3-0.3,2.5-0.3,3.3c0,1.7,0,2.7,0.7,3.7C1266.8,214.9,1267.9,215.3,1268.6,215.5z"/>
		<path class="st8" d="M1272.2,274.4c4.5-0.2,6.2-0.7,7.7-1.4c1.1-0.5,4.5-2.2,5.9-5.4c1.4-3.5-0.2-6.9-2.4-11.3
			c-2.4-4.8-6-12.3-13.9-15.1c-1.7-0.6-6.8-2.4-9.5,0.2c-1.5,1.5-1.6,3.7-1.5,4.8c-1.5-0.4-3.7-0.8-6.4-0.8c-2.7,0-5.2-0.1-8,1.2
			c-1.1,0.5-4.4,2-5.7,5.1c-2,4.8,2.3,10.5,3.6,12.2c5.7,7.5,14.8,9.3,18.5,10C1264.7,274.8,1268.1,274.6,1272.2,274.4z"/>
		<path class="st22" d="M1262.1,280.9c-0.3,1-0.7,2.4-1.1,4.1c-0.6,2.5-2.4,10.9-1.8,19.6c0.8,11.2,5.6,20.2,8.5,24.8
			c1,0.1,2.1,0.2,3.2,0.4c4.1,0.7,7.4,2.2,9.8,3.6c-2.5-0.2-5-0.4-7.4-0.5c0.8,0.1,2.3,0.6,3.9,1.9c1.4,1.2,2.1,2.6,2.4,3.3
			c-1.4-0.6-3.2-1.3-5.3-1.7c-1.6-0.3-3.1-0.5-4.4-0.5c0.1,0.6,0.4,1.7,1.2,2.8c0.6,0.7,1.2,1.2,1.6,1.5c-1.8,0.4-3,0-3.6-0.3
			c-0.3-0.1-0.6-0.3-2.4-1.9c-1.9-1.7-1.9-1.8-2.4-2.1c-0.9-0.6-2.5-1-5.3-0.1c-0.2-1.3,0.1-2.1,0.3-2.5c0.9-1.8,3.3-2.9,6.1-2.4
			c-1.6-3.4-2.9-6.3-3.9-8.6c-2.5-5.9-3.8-9.3-4.8-13.8c-0.9-4.3-1-7.7-1.1-9c-0.1-4,0.3-10.7,3.4-18.6
			C1260.2,280.8,1261.2,280.8,1262.1,280.9z"/>
		<path class="st22" d="M1271.9,280.7c-2.9,2.9-4.9,5.6-6.2,7.6c-2.6,4.1-3,6.2-3.1,7.7c0,0.8,0,2,0.5,3.5c0.6,1.4,1.5,2.4,4.5,4.6
			c3.2,2.4,3.5,2.1,5.7,3.9c1.6,1.2,3.4,2.7,5.2,5c2,2.8,2.9,5.3,3.2,6.2c1.2,3.9,1,7.3,0.7,9.3c-0.9-2.2-1.9-4.4-2.8-6.6
			c0,0.7-0.2,1.9-0.8,3.1c-1.2,2.4-3.5,3.3-4.1,3.6c1.5-5.5,1.4-7.1,0.9-7.3c-0.1,0-0.3-0.1-2,1.1c-1.1,0.8-2,1.4-2.7,2
			c-0.2-0.9-0.3-2.5,0.3-4.2c1.1-3.6,4.2-5.2,4.9-5.6c-0.8-0.7-2-1.9-3.6-3.1c-2.6-2-3.9-2.4-6.2-4.1c-2.6-1.9-3.9-2.9-4.9-4.4
			c-3.2-5-0.6-11.5-0.4-12c0.8-1.9,1.8-3.2,4-6c1.5-1.9,2.9-3.4,3.9-4.4C1269.9,280.6,1270.9,280.7,1271.9,280.7z"/>
		<path class="st12" d="M1268,202.9c-0.8,0.2-1.6,0.2-2.4,0.1c-0.6-0.1-1.2-0.3-1.8-0.6c-0.7-0.4-1.3-0.9-1.7-1.5
			c-0.6-0.9-0.9-2-0.9-3.1c0-1.1,0.4-2.2,1.1-3c2.3-2.9,7.9-2.5,9.4,0.3C1273.2,197.6,1271.4,202,1268,202.9z"/>
		<path class="st13" d="M1268.2,202.7c-0.2,0-0.5,0.2-0.7,0.2c-0.7,0.1-1.4,0.2-2.2,0c-0.6-0.1-1.1-0.3-1.6-0.6
			c-0.2-0.1-0.4-0.2-0.5-0.3c0,0-0.2-0.2-0.2-0.2c-2.1-1.3-2.1-4-1.3-6.2c1.4-0.6,3.5,0,5.2,1.6c1.7,1.6,2.4,3.7,1.9,5.2
			C1268.6,202.6,1268.4,202.7,1268.2,202.7z"/>
	</g>
</g>
<g id="Layer_10">
</g>
<g id="clouds">
	<path class="st12" d="M1041.4,76.5c0.7-2.1,0.7-4.4,0-6.5c-2-5.4-8.4-6.3-9.2-6.5c-2.6-0.4-5.2,0.1-7.5,1.3c-2.3,1.2-4.3,3-5.5,5.3
		c-0.2,0.4-0.5,2.4-1.3,6.5v1.3c-0.4-0.5-0.8-1-1.3-1.3c-3.2-2.2-7.9-0.3-10.5,1.3c-2.4,1.5-4.3,3.8-5.2,6.5c-0.8,2.5-0.8,5.3,0,7.8
		c1.1,3.7,3.4,6.9,6.5,9.1h58.8c-1.5-1.1-2.8-2.4-3.9-3.9c-1.2-1.5-2.1-3.3-2.6-5.2c-0.7-3,0.5-3.7,0-6.5c-0.5-2.6-1.9-4.9-3.9-6.5
		c-2.5-2-5.4-2.3-9.2-2.6C1044.9,76.4,1043.1,76.4,1041.4,76.5z"/>
	<path class="st12" d="M1230.6,58.2c1.2-3.5,1.2-7.4,0-10.9c-3.3-9-14.1-10.6-15.3-10.9c-4.3-0.6-8.7,0.1-12.6,2.1
		c-3.9,1.9-7.1,5-9.2,8.8c-0.3,0.6-0.9,4.1-2.2,10.9v2.2c-0.6-0.9-1.3-1.6-2.2-2.2c-5.3-3.6-13.3-0.5-17.5,2.2
		c-4.1,2.5-7.2,6.4-8.7,10.9c-1.4,4.3-1.4,8.8,0,13.1c1.8,6.2,5.6,11.6,10.9,15.3h98.3c-2.5-1.8-4.7-4-6.6-6.5
		c-2.1-2.6-3.5-5.6-4.4-8.7c-1.2-5.1,0.8-6.2,0-10.9c-0.9-4.3-3.2-8.1-6.6-10.9c-4.2-3.4-9-3.8-15.3-4.4
		C1236.4,58,1233.5,58,1230.6,58.2z"/>
	<path class="st12" d="M1110.3,25.5c0.8-2.3,0.8-4.8,0-7.1c-2.2-5.9-9.2-6.9-10-7.1c-2.8-0.4-5.7,0.1-8.2,1.4
		c-2.5,1.3-4.6,3.3-6,5.8c-0.2,0.4-0.6,2.6-1.4,7.1V27c-0.4-0.6-0.9-1-1.4-1.4c-3.5-2.4-8.7-0.3-11.4,1.4c-2.7,1.7-4.7,4.2-5.7,7.1
		c-0.9,2.8-0.9,5.8,0,8.5c1.2,4,3.7,7.6,7.1,10h64.2c-1.6-1.2-3.1-2.6-4.3-4.3c-1.3-1.7-2.3-3.6-2.8-5.7c-0.8-3.3,0.5-4.1,0-7.1
		c-0.6-2.8-2.1-5.3-4.3-7.1c-2.8-2.2-5.9-2.5-10-2.9C1114.1,25.4,1112.2,25.4,1110.3,25.5z"/>
	<path class="st12" d="M616.1,189.9c0.7-1.9,0.7-4,0-5.9c-1.8-4.9-7.7-5.8-8.3-5.9c-2.4-0.3-4.7,0.1-6.9,1.1c-2.1,1.1-3.9,2.7-5,4.8
		c-0.2,0.3-0.5,2.2-1.2,5.9v1.2c-0.3-0.5-0.7-0.9-1.2-1.2c-2.9-2-7.2-0.3-9.5,1.2c-2.2,1.4-3.9,3.5-4.8,5.9c-0.7,2.3-0.7,4.8,0,7.1
		c1,3.4,3.1,6.3,6,8.3h53.6c-1.4-1-2.6-2.2-3.6-3.6c-1.1-1.4-1.9-3-2.4-4.8c-0.6-2.8,0.4-3.4,0-5.9c-0.5-2.3-1.7-4.4-3.6-5.9
		c-2.3-1.9-4.9-2.1-8.3-2.4C619.3,189.7,617.7,189.7,616.1,189.9z"/>
	<path class="st12" d="M896.4,158.3c0.7-1.9,0.7-4,0-5.9c-1.8-4.9-7.7-5.8-8.3-5.9c-2.4-0.3-4.7,0.1-6.9,1.1c-2.1,1.1-3.9,2.7-5,4.8
		c-0.2,0.3-0.5,2.2-1.2,5.9v1.2c-0.3-0.5-0.7-0.9-1.2-1.2c-2.9-2-7.2-0.3-9.5,1.2c-2.2,1.4-3.9,3.5-4.8,5.9c-0.7,2.3-0.7,4.8,0,7.1
		c1,3.4,3.1,6.3,6,8.3H919c-1.4-1-2.6-2.2-3.6-3.6c-1.1-1.4-1.9-3-2.4-4.8c-0.6-2.8,0.4-3.4,0-5.9c-0.5-2.3-1.7-4.4-3.6-5.9
		c-2.3-1.9-4.9-2.1-8.3-2.4C899.6,158.2,898,158.2,896.4,158.3z"/>
	<path class="st12" d="M967.5,474.2c0.7-1.9,0.7-4,0-5.9c-1.8-4.9-7.7-5.8-8.3-5.9c-2.4-0.3-4.7,0.1-6.9,1.1c-2.1,1.1-3.9,2.7-5,4.8
		c-0.2,0.3-0.5,2.2-1.2,5.9v1.2c-0.3-0.5-0.7-0.9-1.2-1.2c-2.9-2-7.2-0.3-9.5,1.2c-2.2,1.4-3.9,3.5-4.8,5.9c-0.7,2.3-0.7,4.8,0,7.1
		c1,3.4,3.1,6.3,6,8.3h53.6c-1.4-1-2.6-2.2-3.6-3.6c-1.1-1.4-1.9-3-2.4-4.8c-0.6-2.8,0.4-3.4,0-5.9c-0.5-2.3-1.7-4.4-3.6-5.9
		c-2.3-1.9-4.9-2.1-8.3-2.4C970.7,474.1,969.1,474.1,967.5,474.2z"/>
	<path class="st12" d="M586,397.3c0.7-1.9,0.7-4,0-5.9c-1.8-4.9-7.7-5.8-8.3-5.9c-2.4-0.3-4.7,0.1-6.9,1.1c-2.1,1.1-3.9,2.7-5,4.8
		c-0.2,0.3-0.5,2.2-1.2,5.9v1.2c-0.3-0.5-0.7-0.9-1.2-1.2c-2.9-2-7.2-0.3-9.5,1.2c-2.2,1.4-3.9,3.5-4.8,5.9c-0.7,2.3-0.7,4.8,0,7.1
		c1,3.4,3.1,6.3,6,8.3h53.6c-1.4-1-2.6-2.2-3.6-3.6c-1.1-1.4-1.9-3-2.4-4.8c-0.6-2.8,0.4-3.4,0-5.9c-0.5-2.3-1.7-4.4-3.6-5.9
		c-2.3-1.9-4.9-2.1-8.3-2.4C589.2,397.2,587.6,397.2,586,397.3z"/>
	<path class="st12" d="M971.8,222.7c0.7-1.9,0.7-4,0-5.9c-1.8-4.9-7.7-5.8-8.3-5.9c-2.4-0.3-4.7,0.1-6.9,1.1c-2.1,1.1-3.9,2.7-5,4.8
		c-0.2,0.3-0.5,2.2-1.2,5.9v1.2c-0.3-0.5-0.7-0.9-1.2-1.2c-2.9-2-7.2-0.3-9.5,1.2c-2.2,1.4-3.9,3.5-4.8,5.9c-0.7,2.3-0.7,4.8,0,7.1
		c1,3.4,3.1,6.3,6,8.3h53.6c-1.4-1-2.6-2.2-3.6-3.6c-1.1-1.4-1.9-3-2.4-4.8c-0.6-2.8,0.4-3.4,0-5.9c-0.5-2.3-1.7-4.4-3.6-5.9
		c-2.3-1.9-4.9-2.1-8.3-2.4C975,222.6,973.4,222.6,971.8,222.7z"/>
	<path class="st12" d="M1176.1,442.8c1.1-3.1,1.1-6.5,0-9.7c-3-8-12.5-9.4-13.6-9.7c-3.8-0.5-7.7,0.1-11.2,1.9
		c-3.5,1.7-6.3,4.5-8.2,7.8c-0.3,0.5-0.8,3.6-2,9.7v2c-0.5-0.8-1.2-1.4-2-2c-4.7-3.2-11.8-0.4-15.5,2c-3.6,2.2-6.4,5.7-7.7,9.7
		c-1.2,3.8-1.2,7.8,0,11.6c1.6,5.5,5,10.3,9.7,13.6h87.3c-2.2-1.6-4.2-3.6-5.8-5.8c-1.8-2.3-3.1-4.9-3.9-7.8c-1-4.5,0.7-5.5,0-9.7
		c-0.8-3.8-2.8-7.2-5.8-9.7c-3.8-3-8-3.4-13.6-3.9C1181.3,442.5,1178.7,442.5,1176.1,442.8z"/>
	<path class="st12" d="M1076.8,560.9c1.1-3.1,1.1-6.5,0-9.7c-3-8-12.5-9.4-13.6-9.7c-3.8-0.5-7.7,0.1-11.2,1.9
		c-3.5,1.7-6.3,4.5-8.2,7.8c-0.3,0.5-0.8,3.6-2,9.7v2c-0.5-0.8-1.2-1.4-2-2c-4.7-3.2-11.8-0.4-15.5,2c-3.6,2.2-6.4,5.7-7.7,9.7
		c-1.2,3.8-1.2,7.8,0,11.6c1.6,5.5,5,10.3,9.7,13.6h87.3c-2.2-1.6-4.2-3.6-5.8-5.8c-1.8-2.3-3.1-4.9-3.9-7.8c-1-4.5,0.7-5.5,0-9.7
		c-0.8-3.8-2.8-7.2-5.8-9.7c-3.8-3-8-3.4-13.6-3.9C1082,560.7,1079.4,560.7,1076.8,560.9z"/>
	<path class="st12" d="M1249.1,533.2c0.7-2,0.7-4.1,0-6c-1.8-5-7.8-5.9-8.5-6c-2.4-0.3-4.8,0.1-7,1.2c-2.2,1.1-3.9,2.8-5.1,4.9
		c-0.2,0.3-0.5,2.2-1.2,6v1.2c-0.3-0.5-0.7-0.9-1.2-1.2c-2.9-2-7.3-0.3-9.7,1.2c-2.3,1.4-4,3.5-4.8,6c-0.8,2.4-0.8,4.9,0,7.2
		c1,3.4,3.1,6.4,6,8.5h54.4c-1.4-1-2.6-2.2-3.6-3.6c-1.1-1.4-2-3.1-2.4-4.8c-0.6-2.8,0.5-3.4,0-6c-0.5-2.4-1.8-4.5-3.6-6
		c-2.3-1.9-5-2.1-8.5-2.4C1252.3,533.1,1250.7,533.1,1249.1,533.2z"/>
	<path class="st12" d="M833.5,572.9c0.7-1.9,0.7-4,0-5.9c-1.8-4.9-7.7-5.8-8.3-5.9c-2.4-0.3-4.7,0.1-6.9,1.1c-2.1,1.1-3.9,2.7-5,4.8
		c-0.2,0.3-0.5,2.2-1.2,5.9v1.2c-0.3-0.5-0.7-0.9-1.2-1.2c-2.9-2-7.2-0.3-9.5,1.2c-2.2,1.4-3.9,3.5-4.8,5.9c-0.7,2.3-0.7,4.8,0,7.1
		c1,3.4,3.1,6.3,6,8.3h53.6c-1.4-1-2.6-2.2-3.6-3.6c-1.1-1.4-1.9-3-2.4-4.8c-0.6-2.8,0.4-3.4,0-5.9c-0.5-2.3-1.7-4.4-3.6-5.9
		c-2.3-1.9-4.9-2.1-8.3-2.4C836.7,572.8,835.1,572.8,833.5,572.9z"/>
	<path class="st12" d="M776,500.4c0.7-1.9,0.7-4,0-5.9c-1.8-4.9-7.7-5.8-8.3-5.9c-2.4-0.3-4.7,0.1-6.9,1.1c-2.1,1.1-3.9,2.7-5,4.8
		c-0.2,0.3-0.5,2.2-1.2,5.9v1.2c-0.3-0.5-0.7-0.9-1.2-1.2c-2.9-2-7.2-0.3-9.5,1.2c-2.2,1.4-3.9,3.5-4.8,5.9c-0.7,2.3-0.7,4.8,0,7.1
		c1,3.4,3.1,6.3,6,8.3h53.6c-1.4-1-2.6-2.2-3.6-3.6c-1.1-1.4-1.9-3-2.4-4.8c-0.6-2.8,0.4-3.4,0-5.9c-0.5-2.3-1.7-4.4-3.6-5.9
		c-2.3-1.9-4.9-2.1-8.3-2.4C779.2,500.2,777.6,500.2,776,500.4z"/>
	<path class="st12" d="M260.9,409.8c0.7-1.9,0.7-4,0-5.9c-1.8-4.9-7.7-5.8-8.3-5.9c-2.4-0.3-4.7,0.1-6.9,1.1c-2.1,1.1-3.9,2.7-5,4.8
		c-0.2,0.3-0.5,2.2-1.2,5.9v1.2c-0.3-0.5-0.7-0.9-1.2-1.2c-2.9-2-7.2-0.3-9.5,1.2c-2.2,1.4-3.9,3.5-4.8,5.9c-0.7,2.3-0.7,4.8,0,7.1
		c1,3.4,3.1,6.3,6,8.3h53.6c-1.4-1-2.6-2.2-3.6-3.6c-1.1-1.4-1.9-3-2.4-4.8c-0.6-2.8,0.4-3.4,0-5.9c-0.5-2.3-1.7-4.4-3.6-5.9
		c-2.3-1.9-4.9-2.1-8.3-2.4C264.1,409.7,262.5,409.7,260.9,409.8z"/>
	<path class="st12" d="M390.3,214.4c0.8-2.4,0.8-5,0-7.3c-2.2-6.1-9.5-7.1-10.3-7.3c-2.9-0.4-5.9,0.1-8.5,1.4
		c-2.6,1.3-4.8,3.4-6.2,5.9c-0.2,0.4-0.6,2.7-1.5,7.3v1.5c-0.4-0.6-0.9-1.1-1.5-1.5c-3.6-2.4-8.9-0.3-11.8,1.5
		c-2.7,1.7-4.8,4.3-5.9,7.3c-0.9,2.9-0.9,5.9,0,8.8c1.2,4.2,3.8,7.8,7.3,10.3h66.1c-1.7-1.2-3.2-2.7-4.4-4.4
		c-1.4-1.7-2.4-3.7-2.9-5.9c-0.8-3.4,0.6-4.2,0-7.3c-0.6-2.9-2.2-5.5-4.4-7.3c-2.9-2.3-6-2.6-10.3-2.9
		C394.2,214.2,392.2,214.2,390.3,214.4z"/>
	<path class="st12" d="M9.4,271.9c0.7-1.9,0.7-4,0-5.9c-1.8-4.9-7.7-5.8-8.3-5.9c-2.4-0.3-4.7,0.1-6.9,1.1c-2.1,1.1-3.9,2.7-5,4.8
		c-0.2,0.3-0.5,2.2-1.2,5.9v1.2c-0.3-0.5-0.7-0.9-1.2-1.2c-2.9-2-7.2-0.3-9.5,1.2c-2.2,1.4-3.9,3.5-4.8,5.9c-0.7,2.3-0.7,4.8,0,7.1
		c1,3.4,3.1,6.3,6,8.3h53.6c-1.4-1-2.6-2.2-3.6-3.6c-1.1-1.4-1.9-3-2.4-4.8c-0.6-2.8,0.4-3.4,0-5.9c-0.5-2.3-1.7-4.4-3.6-5.9
		c-2.3-1.9-4.9-2.1-8.3-2.4C12.6,271.8,11,271.8,9.4,271.9z"/>
	<path class="st12" d="M176.7,288.3c0.7-1.9,0.7-4,0-5.9c-1.8-4.9-7.7-5.8-8.3-5.9c-2.4-0.3-4.7,0.1-6.9,1.1c-2.1,1.1-3.9,2.7-5,4.8
		c-0.2,0.3-0.5,2.2-1.2,5.9v1.2c-0.3-0.5-0.7-0.9-1.2-1.2c-2.9-2-7.2-0.3-9.5,1.2c-2.2,1.4-3.9,3.5-4.8,5.9c-0.7,2.3-0.7,4.8,0,7.1
		c1,3.4,3.1,6.3,6,8.3h53.6c-1.4-1-2.6-2.2-3.6-3.6c-1.1-1.4-1.9-3-2.4-4.8c-0.6-2.8,0.4-3.4,0-5.9c-0.5-2.3-1.7-4.4-3.6-5.9
		c-2.3-1.9-4.9-2.1-8.3-2.4C179.9,288.2,178.3,288.2,176.7,288.3z"/>
	<path class="st12" d="M312.2,31.9c0.7-1.9,0.7-4,0-5.9c-1.8-4.9-7.7-5.8-8.3-5.9c-2.4-0.3-4.7,0.1-6.9,1.1c-2.1,1.1-3.9,2.7-5,4.8
		c-0.2,0.3-0.5,2.2-1.2,5.9v1.2c-0.3-0.5-0.7-0.9-1.2-1.2c-2.9-2-7.2-0.3-9.5,1.2c-2.2,1.4-3.9,3.5-4.8,5.9c-0.7,2.3-0.7,4.8,0,7.1
		c1,3.4,3.1,6.3,6,8.3h53.6c-1.4-1-2.6-2.2-3.6-3.6c-1.1-1.4-1.9-3-2.4-4.8c-0.6-2.8,0.4-3.4,0-5.9c-0.5-2.3-1.7-4.4-3.6-5.9
		c-2.3-1.9-4.9-2.1-8.3-2.4C315.4,31.7,313.8,31.7,312.2,31.9z"/>
	<path class="st12" d="M288,605.4c0.7-1.9,0.7-4,0-5.9c-1.8-4.9-7.7-5.8-8.3-5.9c-2.4-0.3-4.7,0.1-6.9,1.1c-2.1,1.1-3.9,2.7-5,4.8
		c-0.2,0.3-0.5,2.2-1.2,5.9v1.2c-0.3-0.5-0.7-0.9-1.2-1.2c-2.9-2-7.2-0.3-9.5,1.2c-2.2,1.4-3.9,3.5-4.8,5.9c-0.7,2.3-0.7,4.8,0,7.1
		c1,3.4,3.1,6.3,6,8.3h53.6c-1.4-1-2.6-2.2-3.6-3.6c-1.1-1.4-1.9-3-2.4-4.8c-0.6-2.8,0.4-3.4,0-5.9c-0.5-2.3-1.7-4.4-3.6-5.9
		c-2.3-1.9-4.9-2.1-8.3-2.4C291.1,605.3,289.5,605.3,288,605.4z"/>
</g>
<g id="реплики" class="st48">
	<g class="st49">
		<rect x="584.3" y="25.3" class="st39" width="374.3" height="100.2"/>
		<text transform="matrix(1 0 0 1 603.5873 57.6949)"><tspan x="0" y="0" class="st50 st51">Привет, Друг!</tspan><tspan x="0" y="24" class="st50 st51">Ты мне не поможешь собрать</tspan><tspan x="0" y="48" class="st50 st51">моих проказников-утят?</tspan></text>
		<g>
			<line class="st52" x1="932.4" y1="47.9" x2="947.6" y2="32.8"/>
			<line class="st52" x1="947.6" y1="47.9" x2="932.4" y2="32.8"/>
		</g>
	</g>
	<g class="st49">
		<rect x="553.5" y="403.3" class="st39" width="416" height="119.5"/>
		<text transform="matrix(1 0 0 1 572.8151 435.6387)"><tspan x="0" y="0" class="st50 st51">Здравствуй.</tspan><tspan x="0" y="24" class="st50 st51">Мы моолодая семья </tspan><tspan x="0" y="48" class="st50 st51">бегемотов-хамелеонов.И мы очень </tspan><tspan x="0" y="72" class="st50 st51">голодны.</tspan></text>
		<g>
			<line class="st52" x1="946" y1="427.5" x2="961.2" y2="412.3"/>
			<line class="st52" x1="961.2" y1="427.5" x2="946" y2="412.3"/>
		</g>
	</g>
	<g>
	</g>
</g>
<g id="редактор" class="st48">
</g>
<g id="БОРДЕРЫ">
</g>
</svg>
