<?xml version="1.0" encoding="UTF-8" standalone="no"?>
<svg
   xmlns:dc="http://purl.org/dc/elements/1.1/"
   xmlns:cc="http://creativecommons.org/ns#"
   xmlns:rdf="http://www.w3.org/1999/02/22-rdf-syntax-ns#"
   xmlns:svg="http://www.w3.org/2000/svg"
   xmlns="http://www.w3.org/2000/svg"
   xmlns:sodipodi="http://sodipodi.sourceforge.net/DTD/sodipodi-0.dtd"
   xmlns:inkscape="http://www.inkscape.org/namespaces/inkscape"
   viewBox="0 0 1280 720"
   version="1.1"
   id="svg338"
   sodipodi:docname="segment_1.svg"
   inkscape:version="1.0.2 (e86c870879, 2021-01-15)">
  <metadata
     id="metadata342">
    <rdf:RDF>
      <cc:Work
         rdf:about="">
        <dc:format>image/svg+xml</dc:format>
        <dc:type
           rdf:resource="http://purl.org/dc/dcmitype/StillImage" />
      </cc:Work>
    </rdf:RDF>
  </metadata>
  <sodipodi:namedview
     pagecolor="#ffffff"
     bordercolor="#666666"
     borderopacity="1"
     objecttolerance="10"
     gridtolerance="10"
     guidetolerance="10"
     inkscape:pageopacity="0"
     inkscape:pageshadow="2"
     inkscape:window-width="1600"
     inkscape:window-height="1147"
     id="namedview340"
     showgrid="false"
     inkscape:zoom="1.7444445"
     inkscape:cx="1124.3748"
     inkscape:cy="500.80069"
     inkscape:window-x="0"
     inkscape:window-y="0"
     inkscape:window-maximized="1"
     inkscape:current-layer="Layer_2"
     inkscape:document-rotation="0" />
  <defs
     id="defs4">
    <style
       id="style2">.azvimgIHmh{fill:#f7efe2;}.vawZSKUKun,.lPfmftEyPz,.tahrtmRWRl,.OvoCiwLQSG,.aWEhuFKsuy,.kWcMHLfJRd{fill:none;}.lPfmftEyPz,.OvoCiwLQSG{stroke:#00ffa9;}.VUMGuVmRjY,.qAdfBQfaIl,.vawZSKUKun,.lPfmftEyPz,.tahrtmRWRl,.OvoCiwLQSG,.lAqGDhRyoj,.faqimSEgfV,.qXiQkrzsOK,.aWEhuFKsuy,.kWcMHLfJRd{stroke-miterlimit:10;}.OvoCiwLQSG{stroke-width:16px;stroke-dasharray:29.94 19.96;}.cxlUMiTiOQ{fill:#d8e5a5;}.WEIPZzvrlZ{fill:#6000ff;}.kWcMHLfJRd{stroke:#fff;stroke-width:5px;}.vkRYzcqzAv{fill:#a8e0a1;}.hELEZFWOnh{fill:#754c24;}.qXiQkrzsOK,.eWOToAEdiT{fill:#fff;}.JSvetLfOSU{fill:#0097dd;}.VUMGuVmRjY,.tahrtmRWRl,.lAqGDhRyoj,.qXiQkrzsOK,.aWEhuFKsuy{stroke:#000;}.MZuURTddai{fill:#ff0020;}.qAdfBQfaIl{fill:#ff00bd;stroke:#ff00bd;stroke-width:0.5px;}.WuOLVCbDiS{fill:#fdff00;}.FGXYlPJvQD{fill:#6dfc6d;}.vawZSKUKun{stroke:#f7efe2;}.vawZSKUKun,.lPfmftEyPz{stroke-width:50px;}.sXsTgDygJp{fill:#f0ed00;}.PaBVoeMeDH{fill:#00ffa9;}.OfJIjDWiDY{fill:#01140d;}.chaUrlMNOz{fill:#ff76eb;}.lAqGDhRyoj{stroke-width:0.25px;}.nMpcBfqpcc{fill:#ffd400;}.vnMMJAcxCc{fill:#ff1e00;}.iyRHVzZjKs{fill:#5fe;}.esTfSjhaBF{fill:#a3877f;}.GSdJltwSFI{fill:#a59d81;}.QpMBUUOGyR{fill:#b9fcf7;}.faqimSEgfV{fill:#231f20;stroke:#231f20;}.qXiQkrzsOK,.aWEhuFKsuy{stroke-width:2px;}.iZKpirzIcH{font-size:20px;font-family:IBMPlexMono-Text, IBM Plex Mono;letter-spacing:0em;}</style>
  </defs>
  <g
     id="фон">
    <rect
       class="azvimgIHmh"
       x="-12.87"
       y="-743.29"
       width="3863.25"
       height="2193.02"
       id="rect6" />
  </g>
  <g
     id="линии">
    <path
       class="OvoCiwLQSG"
       d="M1228.84,657.72c7.11-28.31,11.24-74,58.12-59.48,73.23,22.65,122.9-55.29,178.47-44.28,77.18,15.3,121-33.6,157.81-61.84,21.33-16.34,81-46.39,127.67-34.42,43.9,11.24,76.29,19.43,122.31-25.22,31.12-30.2,60.25-16.24,72.72-22.2a212,212,0,0,0,63.22-46"
       id="path9" />
    <path
       class="OvoCiwLQSG"
       d="M13.3,130.6C41.91,96.69,78.05,37.05,132.38,88.17c84.89,79.81,204.74,6.52,273.29,58.65,95.19,72.41,187.67,34.88,256.79,20.89,40-8.08,141.52-9.32,197.33,38.21,52.45,44.65,91.22,77.46,183.87,47.2,62.66-20.47,93.12,18,114.13,18.22a322.28,322.28,0,0,0,117-20.62"
       id="path11" />
  </g>
  <g
     id="части_ланндш"
     data-name="части ланндш">
    <path
       class="cxlUMiTiOQ"
       d="M1280,660.14h0A59.86,59.86,0,0,1,1220.14,720H919a14.76,14.76,0,0,0-14.76,14.76V841.32h1V1136.7a14.76,14.76,0,0,1-14.76,14.76H272.07a14.76,14.76,0,0,1-14.76-14.76V856.08a14.76,14.76,0,0,1,14.76-14.76H491.63a14.76,14.76,0,0,0,14.76-14.76V693.29a14.4,14.4,0,0,0-.7-4.47,45.12,45.12,0,0,1-2.19-13.92V660.14a59.86,59.86,0,0,1,59.86-59.86h656.78A59.86,59.86,0,0,1,1280,660.14Z"
       id="path14" />
    <path
       class="WEIPZzvrlZ"
       d="M816,708a5.38,5.38,0,0,0-.35-7.23c-2.22-1.92-5.56-.55-7.22.89-1.41,1.21-2.84,3.56-2.12,5.81.82,2.58,4.25,4.37,7.93,3.35a6.13,6.13,0,0,0-6.17,2.82,6.34,6.34,0,0,0,8.64,8.46c2.76-1.75,3.68-6.31,1.06-9.87a9.46,9.46,0,0,0,4.23,3.88c2.83,1.26,7.47,1.46,8.81-1.06,1.12-2.12-.33-5.68-3-7.05s-6.43-.39-8.46,2.64c4.7-.69,7.38-3.7,7-5.81s-3.45-3.92-6.34-3.17A5.72,5.72,0,0,0,816,708Z"
       id="path16" />
    <path
       class="WEIPZzvrlZ"
       d="M1048,643.59a5.37,5.37,0,0,0-.35-7.22c-2.22-1.92-5.57-.56-7.22.88-1.41,1.22-2.84,3.56-2.12,5.82.82,2.58,4.25,4.36,7.93,3.34a5.89,5.89,0,0,0-4.76,10.4,6.23,6.23,0,0,0,7.23.88c2.76-1.74,3.68-6.31,1.06-9.87a9.41,9.41,0,0,0,4.23,3.88c2.83,1.26,7.47,1.46,8.81-1.06,1.12-2.11-.33-5.68-3-7a6.75,6.75,0,0,0-8.46,2.65c4.7-.7,7.38-3.71,7-5.82s-3.45-3.92-6.34-3.17A5.74,5.74,0,0,0,1048,643.59Z"
       id="path18" />
    <path
       class="WEIPZzvrlZ"
       d="M986.91,618.91a5.37,5.37,0,0,0-.35-7.22c-2.22-1.92-5.57-.56-7.22.88-1.41,1.22-2.84,3.56-2.12,5.82.82,2.58,4.25,4.36,7.93,3.34a5.89,5.89,0,0,0-4.76,10.4,6.23,6.23,0,0,0,7.23.88c2.76-1.74,3.68-6.31,1.06-9.87a9.41,9.41,0,0,0,4.23,3.88c2.83,1.26,7.47,1.46,8.81-1.06,1.12-2.11-.33-5.68-3-7.05a6.75,6.75,0,0,0-8.46,2.65c4.7-.7,7.38-3.71,7-5.82s-3.45-3.92-6.34-3.17A5.74,5.74,0,0,0,986.91,618.91Z"
       id="path20" />
    <path
       class="WEIPZzvrlZ"
       d="M912,629.51a4.77,4.77,0,0,0-.31-6.4c-2-1.7-4.93-.49-6.4.78-1.24,1.08-2.51,3.16-1.87,5.15.73,2.29,3.76,3.87,7,3A5.41,5.41,0,0,0,905,634.5a5.61,5.61,0,0,0,7.65,7.49c2.44-1.54,3.25-5.58.93-8.73a8.47,8.47,0,0,0,3.75,3.43c2.51,1.12,6.62,1.29,7.8-.94,1-1.87-.29-5-2.65-6.24a6,6,0,0,0-7.49,2.34c4.16-.61,6.54-3.28,6.24-5.15s-3.06-3.47-5.62-2.81A5.07,5.07,0,0,0,912,629.51Z"
       id="path22" />
    <path
       class="WEIPZzvrlZ"
       d="M938.73,674.89a5.37,5.37,0,0,0-.35-7.22c-2.22-1.92-5.56-.56-7.22.88-1.41,1.22-2.84,3.56-2.12,5.81.82,2.58,4.25,4.37,7.93,3.35a6.13,6.13,0,0,0-6.17,2.82,6.34,6.34,0,0,0,8.64,8.46c2.76-1.74,3.68-6.31,1.06-9.87a9.46,9.46,0,0,0,4.23,3.88c2.83,1.26,7.47,1.46,8.81-1.06,1.12-2.12-.33-5.68-3-7.05a6.74,6.74,0,0,0-8.46,2.65c4.7-.7,7.39-3.71,7-5.82s-3.45-3.92-6.34-3.17A5.73,5.73,0,0,0,938.73,674.89Z"
       id="path24" />
    <path
       class="WEIPZzvrlZ"
       d="M633.57,685a5.39,5.39,0,0,0-.35-7.23c-2.22-1.92-5.57-.56-7.22.88-1.41,1.22-2.84,3.57-2.12,5.82.82,2.58,4.24,4.36,7.93,3.35a6.11,6.11,0,0,0-6.17,2.82,6.34,6.34,0,0,0,8.64,8.46c2.76-1.75,3.67-6.31,1.06-9.87a9.42,9.42,0,0,0,4.22,3.88c2.84,1.26,7.48,1.46,8.82-1.06,1.12-2.12-.34-5.69-3-7s-6.43-.39-8.46,2.64c4.7-.69,7.38-3.7,7.05-5.81s-3.45-3.92-6.34-3.18A5.73,5.73,0,0,0,633.57,685Z"
       id="path26" />
    <path
       class="WEIPZzvrlZ"
       d="M1226.19,643.57a5.39,5.39,0,0,0-.35-7.22c-2.23-1.92-5.57-.56-7.23.88-1.4,1.22-2.83,3.56-2.11,5.81.82,2.58,4.24,4.37,7.93,3.35a6.13,6.13,0,0,0-6.17,2.82,6.34,6.34,0,0,0,8.63,8.46c2.77-1.75,3.68-6.31,1.06-9.87a9.52,9.52,0,0,0,4.23,3.88c2.84,1.26,7.47,1.46,8.81-1.06,1.13-2.12-.33-5.68-3-7a6.73,6.73,0,0,0-8.46,2.65c4.7-.7,7.38-3.71,7-5.82s-3.46-3.92-6.35-3.17A5.71,5.71,0,0,0,1226.19,643.57Z"
       id="path28" />
  </g>
  <g
     id="hover1"
     data-name="выделение правильный цвет"
     style="visibility: hidden">
    <ellipse
       class="kWcMHLfJRd"
       cx="1093.5699"
       cy="674.15002"
       rx="106.19"
       ry="22.24"
       id="ellipse31" />
  </g>
  <g
     id="Layer_1"
     data-name="Layer 1">
    <path
       class="vkRYzcqzAv"
       d="M1434,226.56c-.24-.72-.56-1.4-.86-2.09v0c-19.39.78-38.89,2.06-58.58,4.69-29,4-57,5-86,12a302.93,302.93,0,0,0-61.88,23.63,24.91,24.91,0,0,0-10.74,10.52A269.23,269.23,0,0,0,1195,328.05a25.13,25.13,0,0,0-.89,5.09c-7.44,107,39,236.84,80.93,242.38,24.61,3.25,57.87-35.06,67.25-69.92,7.3-27.16-4-36.83-3.33-90.55.54-41.34.8-62,12-79.91,21.26-34,54.79-28.37,74.58-67.25C1429.84,259.37,1438.89,241.57,1434,226.56Z"
       id="path34" />
    <path
       class="hELEZFWOnh"
       d="M1302.09,520.62h-25.95v2.6h25.95Z"
       id="path36" />
    <path
       class="hELEZFWOnh"
       d="M1300.14,478.61h-26v2.6h26Z"
       id="path38" />
    <path
       class="hELEZFWOnh"
       d="M1300.91,436.61h-26v2.6h26Z"
       id="path40" />
    <path
       class="hELEZFWOnh"
       d="M1299,394.61h-26v2.6h26Z"
       id="path42" />
    <path
       class="hELEZFWOnh"
       d="M1300.17,352.77h-26v2.6h26Z"
       id="path44" />
    <path
       class="hELEZFWOnh"
       d="M1298.21,310.76h-26v2.6h26Z"
       id="path46" />
    <path
       class="hELEZFWOnh"
       d="M1299,268.76h-26v2.6h26Z"
       id="path48" />
    <rect
       class="cxlUMiTiOQ"
       x="1150.97"
       y="-372.98"
       width="721.8"
       height="376.57"
       rx="67"
       id="rect50" />
    <path
       class="eWOToAEdiT"
       d="M13.24,102.81C16.3,92.46,28.32,91.3,34.18,79.16,47.3,52.05,61.18,69.55,64,57.47c1.48-6.28,3.43-9.5,6.66-12.4C77.8,38.64,98.24,47.81,125,53c7.72,1.48,19.43,4.51,54.8.21C189.7,52,193,46.3,204.87,43.55c7.43-1.72,28-6.47,35.51,2.53,4.43,5.28.43,10.59,3.67,16.71,4.06,7.73,22.31-.91,33.7-.8,6.43.06,16.76,6.51,22.15,9.94,18.71,11.94,11.22,55.05-7.29,70.39-7.19,6-17.42,7.65-56.93.5-52.86-9.56-57.4-16.75-83-20.26-66.51-9.1-105.84,29.79-129.5,8.1C16.17,124.27,10.4,112.43,13.24,102.81Z"
       id="path52" />
    <path
       class="JSvetLfOSU"
       d="M235.48,74.1c9,0,16.26-6.78,16.26-15.14s-7.28-15.14-16.26-15.14S219.2,50.6,219.2,59,226.49,74.1,235.48,74.1Z"
       id="path54" />
    <path
       class="eWOToAEdiT"
       d="M227.32,60.66c.1,5.82,8.72,11.25,14.81,8.57a9.63,9.63,0,0,0,5.57-9.66,8.07,8.07,0,0,0-1.38-3.85A12.55,12.55,0,0,0,244,53.24a9.8,9.8,0,0,0-3.91-1.85C234,50,227.25,55.46,227.32,60.66Z"
       id="path56" />
    <path
       class="VUMGuVmRjY"
       d="M238.56,51.47c-2.12,1.85-2.79,5.84-1.44,9.88s4.22,6.75,7,7c3-2.71,5.34-7.06,3.19-11a4.67,4.67,0,0,0-.23-.51,8.91,8.91,0,0,0-.57-1,7,7,0,0,0-2.07-2.3,11.54,11.54,0,0,0-3.51-1.83c-.39-.11-.94-.16-1.29-.28A3.9,3.9,0,0,0,238.56,51.47Z"
       id="path58" />
    <path
       class="JSvetLfOSU"
       d="M271.17,74.1c9,0,16.27-6.78,16.27-15.14s-7.28-15.14-16.27-15.14S254.9,50.6,254.9,59,262.19,74.1,271.17,74.1Z"
       id="path60" />
    <path
       class="eWOToAEdiT"
       d="M263.07,61.16c.09,5.82,8.71,11.24,14.8,8.57a9.63,9.63,0,0,0,5.57-9.66,8,8,0,0,0-1.38-3.85,12.8,12.8,0,0,0-2.28-2.48,10.07,10.07,0,0,0-3.92-1.86C269.73,50.54,263,56,263.07,61.16Z"
       id="path62" />
    <path
       class="VUMGuVmRjY"
       d="M274.3,52c-2.12,1.84-2.8,5.84-1.44,9.88s4.21,6.75,7,7c3-2.72,5.32-7.06,3.18-11q-.14-.26-.24-.51a7.52,7.52,0,0,0-.56-1,7.22,7.22,0,0,0-2.07-2.29,11.54,11.54,0,0,0-3.51-1.83c-.38-.12-.94-.17-1.29-.28A3.84,3.84,0,0,0,274.3,52Z"
       id="path64" />
    <path
       class="MZuURTddai"
       d="M231.86,78.62a36.72,36.72,0,0,0,13.59,5.92c13.85,2.83,25-3.54,28-5.42a19.46,19.46,0,0,1-3.61,4.52c-7.37,6.77-19.65,7-28.48,2.71A27.71,27.71,0,0,1,231.86,78.62Z"
       id="path66" />
    <path
       class="qAdfBQfaIl"
       d="M184,68.54c7,6.15,13.86,12.82,22.1,17.34,1.42.78,2.57-1.45,1.15-2.23-8-4.41-14.7-11-21.52-17-1.24-1.06-2.94.78-1.73,1.85Z"
       id="path68" />
    <path
       class="qAdfBQfaIl"
       d="M206.45,86l8.16,9.38a1.28,1.28,0,0,0,.91.34,1.29,1.29,0,0,0,.87-.4,1.3,1.3,0,0,0,.33-.9,1.26,1.26,0,0,0-.39-.88c-2.73-3.13-5.44-6.26-8.16-9.39a1.26,1.26,0,0,0-1.78.06,1.3,1.3,0,0,0-.33.9A1.33,1.33,0,0,0,206.45,86Z"
       id="path70" />
    <path
       class="qAdfBQfaIl"
       d="M208,87a35.32,35.32,0,0,0,13.38,2.73c1.62,0,1.49-2.5-.12-2.51a32.25,32.25,0,0,1-12.11-2.45,1.25,1.25,0,0,0-.95-.07,1.33,1.33,0,0,0-.75.61,1.3,1.3,0,0,0-.07,1A1.26,1.26,0,0,0,208,87Z"
       id="path72" />
    <path
       class="qAdfBQfaIl"
       d="M208.88,85.7a88.5,88.5,0,0,0,10.82-3,1.37,1.37,0,0,0,.45-.23,1.35,1.35,0,0,0,.33-.38,1.35,1.35,0,0,0,.09-1,1.14,1.14,0,0,0-.25-.44,1.11,1.11,0,0,0-.4-.31,1.15,1.15,0,0,0-.48-.13,1.22,1.22,0,0,0-.5.08,84.6,84.6,0,0,1-10.82,3,1.24,1.24,0,0,0-.82,1.57,1.24,1.24,0,0,0,.62.73A1.33,1.33,0,0,0,208.88,85.7Z"
       id="path74" />
  </g>
  <g
     id="Layer_2"
     data-name="Layer 2">
    <path
       class="WuOLVCbDiS"
       d="M1502.91,13.5H1343.72c-17.92,2.39-39.83-3.95-56.76,3.31a32.66,32.66,0,0,0-6.11,3.41,43.66,43.66,0,0,0-15.1,20.49,39.48,39.48,0,0,0-1.11,4,40.24,40.24,0,0,0-.92,8.54V220.77a39.79,39.79,0,0,0,28.17,38.06,42.25,42.25,0,0,1-13.19-7.92,42.44,42.44,0,0,0,13.19,7.92,39.31,39.31,0,0,0,11.64,1.73h199.38a39.8,39.8,0,0,0,39.81-39.8V53.35a39.82,39.82,0,0,0-39.81-39.85Z"
       id="path77" />
    <path
       class="JSvetLfOSU"
       d="M-37.54,865.44c-11.24-33.82,56-231.91,79.76-261.77C54,589,72.45,565.78,103,550.32,175.65,513.6,214,572.5,366,577c24.5.72,59.24.27,90.39,23,21.2,15.44,22.87,28.58,43.73,51.12,37.86,40.93,35.87,124.62,34.2,159A77,77,0,0,1,520,851.3C490.12,892.84,410.8,961.85,274.36,966.35,127.07,971.2-21,915.37-37.54,865.44Z"
       id="path79" />
    <path
       class="FGXYlPJvQD"
       d="M21.84,325.86c2.84-1.63,3.35-2.92.61-5.24,3.73.39,4.1-.28,1.5-2.5,3.23,1.17,3.48.72,1.35-1.41,3.1.88,3.81.08,2.78-1.86,1.25,1.45.76,1.75-2.41,1.51,2.57.67,3.38-.05,3-1.84,1.82.49,2.35,0,.71-.62,1.32-.15,2.12-.35,2.22-.63s-.5-.63-2-1.12c3.58.16,3.67-.28.6-1.76,3.72,1,4.27.89.63-1.11,4.14,1.48,4.1,1.05.95-1.33,4.28,2.47,4.55,2.28,1.41-1.4,3.34,2.53,3.94,2.59,1.56-1.11,1.67,1.57,2.59,2.19,3,2,.13-.12.18-.47,0-1a4.1,4.1,0,0,0-.89-2.16c.92.65,1.5,1.15,1,1.85,1,.11,1,.41.32.83,1.33-.54,1.94-1,0-.61,1.8-1.22,1-1.64-1.11-1.94,2.58,0,3.83.2,1.11,1.83,3.22-.85,2.46-.23.3,1,2.74-1.31,4.09-2,.3-.19,3.85-2.14,2.63-1.74-.71-.47,3.35-1.33,4.69-1.79.69.43,4-1.91,2.6-1.18-.27.24,2.46-1.37,3.42-2-.21-.92,3.22-1.82,1.86-1.83-1.11-1.59,2.61-.05,3.65.16,1.11,1.71,2.71-.79,1.87-.25,0,.62,1.56-.89,2.08-1.34-.24-.89,1.93-1.3,1-1.66-1.12-1.95,1.92.5,2.7,1,1.27,2.23,1.78-.23,1.36.22.25.82,1.18-.6,1.64-1.07-.23-.8,1.54-1.26.74-1.77-1.26-2.23,2.22.23,3.23.53,1.11,1.91,2.54-.55,1.94,0,.23.89,2-1,3-1.53,0-.59,2.77-1.64,1.67-1.77-1.11-1.58,3.15-.39,4.56-.46,1.11,1.43,3.84-1.27,2.8-.58.18.86,3-1.48,4.42-2.23.29-.21,4.16-2.24,2.79-1.73-.62-.31,3.19-1.24,4.42-1.61.76.55,3.63-1.79,2.38-1.07-.2.3,2.23-1.32,3.12-2-.22-.87,3-1.85,1.73-1.91-1.22-1.66,3-.29,4.38-.28,1.23,1.66,3.6-1.22,2.64-.52.26.92,2.78-1.51,4.14-2.27.26-.25,3.93-2.33,2.63-1.86-.71-.41,3.12-1.37,4.28-1.9.18-.32,3.65-2,2.11-1.92-1.23-1.65,2.8-.62,3.9-1.09.07-.8,3.59-1.34,2.24-1.93-.73-2.68,3,.55,4.36,1,.58,2.07,4-.19,2.93.35,0,1.31,2.56-.57,4.06-.9.52.36,5.18-1.51,5.31-1.44.26.52,3.83-1.32,2.46-.79-.21.32,3.17-1.2,5-1.9.46.06l2.7-1.11c.7-.3,1.17-.54,1.23-.76,1.24-.15,1.27-.11,0,.1.08.28-.38.56-1,.91s-1.49.78-2.61,1.28c4.8-2.15,3.13-1.29-.21.32l2.38-1.11a6.37,6.37,0,0,0,1.12-.6c.24-.06.14,0-.36.28l-2.73,1.37,1.91-1a4.51,4.51,0,0,0,1.29-.87c1.29-.41,2-.8.72-1.67,1.61.14,2.3.14.58-.62,1.74.71,1.15.65-.49.44,1.5,1,.91,1.36-.72,1.72,0,.35-.38.63-.9,1a15.22,15.22,0,0,1-1.93,1.11,20.71,20.71,0,0,0,2.15-1.21c.58-.4,1-.8.83-1.29,1.18-.18,1.83-.43.78-1.29,1.56.1,1.44-.39.52-1.22,1.65.44,2.53.54,1-.86,2.15.93,1.86.35.59-.91,1.65.94,2.3,1.18.78-.43,1.76,1.27,1.37.64.26-.48,1.72,1.3,2.49,1.82.73-.23,2,2,1.4,1.27,0-.27,1.47,1.52,2.11,2.13.49,0,1.86,2,1.46,1.24.35-.47,1.07,1.15,1.66,1.65.76-.16,1.44,1.67,1.38,1.08.79-.56,1.08,1.38,1.63,1.76,1.2-.23,1.1,1.61,1.18.88,1.18-.52.73.93,1.28,1.21,1.68-.08.72,1.14,1.25.71,1.83-.25a1.57,1.57,0,0,0,1.76,0,13.9,13.9,0,0,0,2.06-1.24,19.46,19.46,0,0,1-1.81,1.11c-.54.28-1,.42-1.42.17-.95,1.21-1.61,1.41-2.28,0-.2,1.38-.3,2-.56.26.32,1.68.5,1.09.79-.29.68,1.21,1.35.89,2.23-.05a2.78,2.78,0,0,0,1.34-.58c.53-.32,1-.73,1.64-1.17-1.13.84-1.91,1.35-2.31,1.65s-.55.32-.41.08c.11,0,.46-.23,1-.62L59,294.31c-2.55,1.88-3.82,2.82-.48,0-1.17.9-2,1.57-2.64,2s-.9.5-.9.14c0,.28.19.13.73-.34s1.32-1.2,2.37-2.16c-3.07,2.57-1.93,1.44,0-.44-2,1.76-2.67,2.22-.58-.1-2.06,1.88-1.37,1-.17-.5-1.06,1.86-1.53,3,1.36,1.49-2.28,2.5-1.18,2.36,1.52,1.24-1.3.91-2.2,1.55-2.11,1.18-.27.86.48.68,2.46-.06-1.83.9-2.42,1.23-1.89.22-.08.92,1,.5,2.37-.1-1,.39-1.68.61-1.68.27-.27.29.09,0,1.2-.57-1.94.67-1.18.07-.07-.76-.94,1-1.42,1.53.3,1.12-1.63,1-1.08.94.53.45-2.25,1-1.3.46.07-.4-.48.82.7.4.7-.59,1-.09,1.24-.52.82-1.33.53-.29.39-1,0-1.77,2.13.54,3.78.83,3.78-1.12,3,1.84,4.22,1.47,4.87-1.63,1.67,1.54,2.8.38,4.06-1.25.33.85.79,1.43,1.44,1.27.3,1,.84,1.15,1.7.55,1,.84,2.33.48.66-.37,2.22.08,3.72,0,4.09-.43s-.26-1.34-2.23-2.92c6.79,2.49,8.19,2.12,9-4.55,2.08,6.07,3.55,5.76,8.35,1.91-.91,1.63-1,2.37-.48,2.55a1.82,1.82,0,0,0,1.17-.18,1.72,1.72,0,0,0,.81-.87c1.13.89,2.56.63.78-.86,3.91.64,4.6.06,2.09-2.7,4.44,2.14,6.15,2.27,6.4-2.82,2.78,4.77,4.13,4.34,7,.32-.17,2.22,1.16.9,2.65-1,0,2.57.4,3.81,2.09,3.42,0,.88,1.32.12,3.22-1.29-1.64,2.53-.9,2.41,1.11.81-1,1.48-.11,1.38,1.31,1,.29.23,1.08.14.66-.4,1.88.39,2.56.31.9-1.27,2.78,1.24,3.23,1,1.29-1.38,3.07,2.21,3.75,2.38,1.67-1.28,3.22,3.34,3.55,2.89,2.1-1.11,2.23,3.93,2.61,4.32,1.26-.45,2,4.68,2.29,4.21,1.73-.42,1.34,4.56,1.84,4.95,2.52-.23.57,5.21,1.32,4.83,3.49.37-.58,4.34.26,4.56,3.73,1.45-1.76,3.05-1.26,3.09,1.57,1-1.63,2.09-1,2,1.12,1-2.76,1.1-3.74,1.19-1.84-1.46-3.05,2.7-3.22,2.65-.66-.41-2.32,3.05-1.92,3.07,1.12.74-1.69,2.27-.76,2.19,1.53,1.28-3.34,1.05-2.55,1,0,0-1.78.59-1.79.22-1-1,.39,1.15,1.57,1.45,1.84,1.26s-.42-.82-2.09-2.1a15.74,15.74,0,0,0,4.32,1.46c2.15.23,3-1.14,3.27-5.1a12.7,12.7,0,0,0,2.22,3.92,1.86,1.86,0,0,0,1.13.59,1.79,1.79,0,0,0,1.23-.28,13.65,13.65,0,0,0,3.47-2.91c-1,2.16-1.26,3.24-2,2.45,1.81,1.32,3.1.76,4.15-2.35-.26,3.08-.76,3.64-2.67,1.42,2.3,2.4,3.17,2.09,3.33-1.53-.07,4.18,1,4.18,1.51-.28,1.84,4.33,2.69,4.33,4.55-.12.22,4.34,1.42,4.3,5,1.59-4.45,2.74-6,2.74-6.74-1.71-.85,4.54-.87,4.53-.16,0,.76,4.42,2.26,4.32,6.54,1.49-4.41,2.83-5.88,2.95-6.57-1.5-.61,4.45-.43,4.45.68,0,.64,4.33,2.17,4.19,6.21,1.62-4.51,2.47-5.81,2.42-5.38-1.62-.59,3.28.55,2.63,3.28.4-2.18,2.14-2.76,2.86-1.41-.09-.85,3.68.25,3.71,3.66,1.4-3.38,2.28-4.44,2.24-3.59-1.39-1.38,2.84-.84,2.08,1.11,0-2.41,2.09-3.41,2.85-2.67-.25-.52,3.94.7,4,5,1.6-4.87,2.62-6.76,2.8-7.09-1.65-.15,4.47,1.26,4.36,6.68,1.47-5.32,2.89-6.64,3-6.31-1.47.22,4.41,2,4.23,6.67,1.61-3.91,2.31-5,2.19-4.38-1.5-.9,2.66-.12,1.77,1.61-.11-1.14,1.86-1.33,2.74.18.51-.85,3.21,0,3.3,2.74,1.17-2.76,2.16-3.6,2-2.76-1.18-1.5,2.23-1.28,1.35-.17-.51-1.72,1.85-2.56,2.73-1.72.09-.57,3.63.51,3.63,4.29,1.4-4.57,2.54-6.4,2.73-6.68-1.5-.24,4.09,1.05,3.78,5.7,1-3.78,2.55-5.33,2.82-6.26-1-.47,4.16-.34,4.21.54,0,.89,4,2.56,3.87,6.46,1.41-4.5,2.45-5.9,2.51-5.7-1.43-.34,3.34,1,2.69,4.12.52-2.31,2.17-2.86,2.82-1.48-.17-.85,3.55.27,3.44,3.33,1.22-2.57,1.92-3.19,1.65-2.57-1.12-1.16,1.51-1.06.47-.69-1.11-.17,1.21.14,2.1,1.25,1.21-.22,2,.45,2.32,2.23,1-.3,1.79.42,1.54,1.26.43a11.13,11.13,0,0,1,.39-1.48,26.93,26.93,0,0,0,.53-2.82c2,6.76,3.57,6.76,9.77,3-1.2,1.87-1.24,2.82-.59,3.26s2,.4,2.28-.33a2.61,2.61,0,0,1-2.84.35c-.63-.44-.34-1.34,1.3-3.14-5.27,3.58-5.15,3.58.29.24-1.55,1.69-1.79,2.53-1.19,2.93s2,.37,2.43-.37a1.87,1.87,0,0,1-1,.6,2,2,0,0,1-1.15-.06c-.33-.24.28-.76,2.15-1.79-1.71,1-2.16,1.55-1.78,1.8s1.58.2,1.76-.54c-.19.74-.62.78-.78.67.53.14,1.36.13.77-.6,2.16.79,3,.8,1-1.05,3.91,1.87,4.94,1.88,2.64-2,0,3.9-1.21,3.89-3.23,2.64,2.72,1.3,4.61,1.37,4.05-3.08,2.74,4.46,2.95,4.48.52-.23,3.78,4.76,4.81,4.79,6-1.23.66,2.05,1.33,3.43.57,3.91,2.39,1.22,3.35,1.55.16.7,5.65.75,7.13.31,3.79-5.11,4.56,5.86,4.66,6.45-3.23,5.33,3,.58,5.13,1,6.67,1.25s2.48.42,1.26-.39c2.52,1,2.86,1,.47-.47,3.07,1.51,3.41,1.53.63-.64,4.08,2.28,5.05,2.28,3-2.17,5.24,4.7,7.44,4.85,15.06,1.17-6.94,3.74-8.45,3.63-10.45-2.67.63,6.22.78,6.24.87-.11,1.59,6.46,3.18,6.54,10,3.2-6.62,3.4-7.22,3.36-3.77-2.28-1.94,3.8-2.08,5.12-.14,4.68a23.47,23.47,0,0,0,4.45-1.88c-2.32,1.58-3.34,2.34-3.34,2.34.37.3,1.7-.22,3.93-1.86-1.58,1.7-2.31,2.27-2.85,1.65,1,1,2.22.75,3.34-1.39,0,2.27,0,2.61-.89.53,1.74,2.5,2.53,2.58,2.34-.58,1.76,3.34,2.51,3.42,3.62-.2.47,3.8,1.25,3.9,3.64.71-.42,1.68-.48,2.55,0,2.73s1.37-.36,2.7-1.47c-.56,1.23-.72,1.84-.56,2,.52.21,1.34,0,.84-1,1,1,.68,1.38-.43,1.3,1.37.23,1.95.07.4-.78,1.36.45,2.17.72,1.27.35,1,.62.35.57-1.27.4,2.34.33,3.73.51,1.72-.69,2.29,1.21,1.17,1-1.49.66,2.46.32,4.23.54,2.23-1.38,4,2.16,4.13,2.16.29-.26,2.4,2.16.79,1.89-2,1.4,2.69.47,4.67.78,2.84-2.08,5.27,3.42,6.65,3.64,7.5-2.68,2,6.8,3.43,7.05,10.45,3.9-3.58,3.76-1.57,4.12,2.68,4.32-4.35-.21-6.06-.5-1.61-3-5.87,2.25-5.69,2.29.32.49-4,2.22-2.2,2.59,1.47,3-3.93-.4-5.11-.65-.83-1.76-4,1.16-2.54,1.4.87,1.69-2.76-.29-3.58-.54-.67-1.47-2.72.47-1.75.3.48,0-2.29.94-1,1.57.43,1.39a2.91,2.91,0,0,0,.73-.94,8.23,8.23,0,0,0,.71-2.47c2.72,5.31,4.44,5.73,10.22,2.85-1.17,1.83-1.32,2.83-1.93,2.05,1.86,1.8,3.25,1.89,3.85-1.54-.21,4,.35,4.15.41,0,1.27,4.5,2.13,4.72,2.38-.29,1.34,5.42,2.12,5.63,5.21.64-1.51,5.4-.73,5.66,4,2.06-3.31,3.55-2.72,3.29.62.3-2.28,2.83-1.81,3.32,1.7,1.95-2.78,1.65-2.52,1.46-.23-.51-1.36,2.06-.67,2.36,1.26,1.75-.66.24-.15-.4.45-1.52a4.86,4.86,0,0,0,.65,2.4c.24.18.71-.36,1.36-2,.4,4,1.68,3.83,4.85,1.19-1.78,3.13-1.64,3.81,1.89,1.35-2.55,3.33-1.68,3.51,2.22,2.11-2.52,2.22-1.43,2.65.92,1.22-1.27,1.43-.59,1.77.84,1.43-.66.15-.58-.38-.44-1.66.89,1.73,1.8,2.69,2.5,2.69s1.17-1,1.53-3.34c1.62,4.88,2.82,4.31,5.33.42-.79,4-.43,5.2,4.31,2.8-3.57,4.12-2.77,4.62,2.64,3.64-3.19,1.44-1.77,1.4.89,1-2,1.46-2.13,2.38,0,2.38-1.6.74-1.2,1.19.16.08-.45,1.19.1.81.67-.41a5.53,5.53,0,0,0,.26,1.66c.11.14.23-.21.38-1.38.24,2.47.59,1.73,1.11-.24,0,2.49.2,3.74,1.67.57-.4,3.51.49,2.58,2.07.25-.37,2.24-.4,3.74,2.79,1.77-2.51,4.17-1.81,4.89,3.47,3.65-2.88,2.18-1.2,2.41,1.41,2.47-1.29.62-2.16,1.16-2.22,1.6-.21.66.41,1.18,2.34,1.53-1.86.57-2.4,1-1-.15-1.21,2-.5,2.48,2.23,1.78-2.83,1.52-3.07,2.07.6,1-3.66,2.32-3.42,3,1.32,2.51-4.31,2-4.17,2.69.58,3.62-4.54.53-4.49,1.27-.75,3.26-3.74-.29-3.83.69-2.06,3.1-2.1-.51-2.36.45-2.23,2-.84.31-1.29,1.25-1.8,2.17-13,23.17-78,40.77-156.28,40.77-84.48,0-153.55-20.53-158.38-46.42a6,6,0,0,0-.81-2.63C23.48,328.17,23.65,326.84,21.84,325.86Z"
       id="path81" />
    <path
       class="MZuURTddai"
       d="M35.68,644.58A57.21,57.21,0,0,1,.35,591.7V354.21A57.24,57.24,0,0,1,57.58,297H524a57.24,57.24,0,0,1,57.23,57.24V591.7A57.22,57.22,0,0,1,524,648.93H57.58A57.38,57.38,0,0,1,35.68,644.58Z"
       id="path83" />
    <path
       class="azvimgIHmh"
       d="M431.7,554.13a72.19,72.19,0,0,1-44.56-66.71v-66a72.18,72.18,0,0,1,72.19-72.19H660.24a72.18,72.18,0,0,1,72.19,72.19v66a72.2,72.2,0,0,1-72.19,72.21H459.33A72.18,72.18,0,0,1,431.7,554.13Z"
       id="path85" />
    <path
       class="FGXYlPJvQD"
       d="M475.83,515.67A66.34,66.34,0,0,1,501.22,388H606.47a66.34,66.34,0,1,1,0,132.68H501.22A66.44,66.44,0,0,1,475.83,515.67Z"
       id="path87" />
    <path
       class="azvimgIHmh"
       d="M488.39,485.63a32.62,32.62,0,0,1,12.48-62.76h140.8a32.62,32.62,0,1,1,0,65.24H500.87A32.61,32.61,0,0,1,488.39,485.63Z"
       id="path89" />
    <path
       class="vawZSKUKun"
       d="M161.62,538.53a66.32,66.32,0,0,1-66.34,66.31H78.34A66.29,66.29,0,0,1,12,538.53V402.93a66.29,66.29,0,0,1,66.31-66.32h17a66.29,66.29,0,0,1,66.31,66.32v135.6Z"
       id="path91" />
    <path
       class="lPfmftEyPz"
       d="M153.36,523.7a66.32,66.32,0,1,1-132.63,0V418.48a66.32,66.32,0,0,1,132.63,0V523.7Z"
       id="path93" />
    <path
       class="sXsTgDygJp"
       d="M290,452.66c-1.46-3.61-5.22-11.49-13.35-15-.39-.16-.75-.29-1.12-.42a14.31,14.31,0,0,0-2.51-3.18c-4-3.79-13.57-7.4-20.24-10a36.74,36.74,0,0,0-11.66-2.49c-1.53-5.83-7.49-21.36-15.81-37.73C218.38,370.3,218.08,371,215,362.76c-.26-.71-.58-1.62-1-2.57a11.68,11.68,0,0,0,3.79-5.19,10.94,10.94,0,0,0,.27-6.38,24.63,24.63,0,0,0-8.79,4.92c.62-2.86,1.24-5.7,1.86-8.54l-4.17-.55c.06,3.48.14,7,.22,10.45a14.57,14.57,0,0,0-4.39.92,19,19,0,0,0-7.49,4.72c-4.73,4.71-8.29,12.32-6.37,14.14,1.3,1.25,5-.35,8.6-1.93,5.07-2.23,8.66-5.4,10.81-4.46,1.27.55,2.12,2.42,2.51,3.61,3.34,10.25,0,0,4.45,13.59,1.84,5.56,3.12,9.1,4.45,14.47s2.1,10.13,3.62,19.68c1,6.44,1.52,9.65,1.93,13.36,1.12,9.44.48,11.2,1.12,20.25,1.42,20.37,5.41,25.56,1.11,33-1.79,3.1-4.81,5.62-3.88,7.49,1.13,2.3,7.74,2.5,9.7-.28,1.59-2.24-.19-6-.82-7.49-2.32-5.47-3.4-15.17,2.77-33.29,8.18,19.76,6.56,29.19,3,34.13-1.15,1.64-4.07,4.94-3,6.68s5.54,1,9.42,0c-.41-2.23-.79-4.45-1.11-6.68a138.72,138.72,0,0,1-.56-34.13h21.15c4.18,17.86,1.36,27.34-2.23,32.74-1.41,2.11-4.49,6.27-3.34,8.05s5.57,1,9.15,0c0-31.18,1.45-40.9,3.34-41.05,2.9-.25,11.37,21.58,3.34,33.56-1.66,2.48-4.52,5.24-3.61,6.93,1.06,2,6.58,1.11,11.38,0a46.73,46.73,0,0,1-2.51-7.49c-1.93-7.81-.94-13-.82-24.14,0-3.18,0-7.79-.28-13.35a29.34,29.34,0,0,0-1.56-7.53,19.65,19.65,0,0,1,4.05,2.22C285.58,445.69,287.25,449.58,290,452.66Z"
       id="path95" />
    <path
       class="eWOToAEdiT"
       d="M204.32,358.89a3.22,3.22,0,0,0-1.31-.17,3.32,3.32,0,0,0-1.27.37,3.22,3.22,0,0,0-1,.85,2.89,2.89,0,0,0-.54,1.18,4.27,4.27,0,0,0,0,1,2.37,2.37,0,0,0,.43,1.11,2.87,2.87,0,0,0,3.12,1.12c1.92-.56,2.84-3.47,1.73-4.8A3.13,3.13,0,0,0,204.32,358.89Z"
       id="path97" />
    <path
       class="VUMGuVmRjY"
       d="M201,359.8c-.05.09-.17.2-.24.32a3.37,3.37,0,0,0-.45,1.11,2.37,2.37,0,0,0,0,.92v.5a2.75,2.75,0,0,0,1.09,1.44,2.72,2.72,0,0,0,1.75.44,3.48,3.48,0,0,0,.46-1.44,3.32,3.32,0,0,0-2.45-3.46A1.29,1.29,0,0,0,201,359.8Z"
       id="path99" />
    <path
       d="M188.88,580v50.22h4.67V580"
       id="path101" />
    <path
       class="tahrtmRWRl"
       d="M188.88,580v50.22h4.67V580"
       id="path103" />
    <path
       d="M180.16,577.32v52.93c1.55-.06,3.11-.06,4.67-.06V577.32"
       id="path105" />
    <path
       class="tahrtmRWRl"
       d="M180.16,577.32v52.93c1.55-.06,3.11-.06,4.67-.06V577.32"
       id="path107" />
    <path
       d="M171.43,574.68v55.77l4.67-.13V574.68"
       id="path109" />
    <path
       class="tahrtmRWRl"
       d="M171.43,574.68v55.77l4.67-.13V574.68"
       id="path111" />
    <path
       d="M162.7,572v58.77l4.67-.18V572"
       id="path113" />
    <path
       class="tahrtmRWRl"
       d="M162.7,572v58.77l4.67-.18V572"
       id="path115" />
    <path
       d="M154,569.38v61.8l4.67-.21V569.38"
       id="path117" />
    <path
       class="tahrtmRWRl"
       d="M154,569.38v61.8l4.67-.21V569.38"
       id="path119" />
    <path
       d="M145.27,566.76V631c1.54,0,3.1.1,4.66.19v-64.4"
       id="path121" />
    <path
       class="tahrtmRWRl"
       d="M145.27,566.76V631c1.54,0,3.1.1,4.66.19v-64.4"
       id="path123" />
    <path
       d="M136.53,564.09v66.77h4.67V564.09"
       id="path125" />
    <path
       class="tahrtmRWRl"
       d="M136.53,564.09v66.77h4.67V564.09"
       id="path127" />
    <path
       d="M127.8,562.89v68.27l4.68-.14V563.14"
       id="path129" />
    <path
       class="tahrtmRWRl"
       d="M127.8,562.89v68.27l4.68-.14V563.14"
       id="path131" />
    <path
       d="M62.68,580v50.22H58V580"
       id="path133" />
    <path
       class="tahrtmRWRl"
       d="M62.68,580v50.22H58V580"
       id="path135" />
    <path
       d="M71.41,577.32v52.93c-1.56-.06-3.12-.06-4.67-.06V577.32"
       id="path137" />
    <path
       class="tahrtmRWRl"
       d="M71.41,577.32v52.93c-1.56-.06-3.12-.06-4.67-.06V577.32"
       id="path139" />
    <path
       d="M80.13,574.68v55.77l-4.67-.13V574.68"
       id="path141" />
    <path
       class="tahrtmRWRl"
       d="M80.13,574.68v55.77l-4.67-.13V574.68"
       id="path143" />
    <path
       d="M88.86,572v58.77l-4.67-.18V572"
       id="path145" />
    <path
       class="tahrtmRWRl"
       d="M88.86,572v58.77l-4.67-.18V572"
       id="path147" />
    <path
       d="M97.58,569.38v61.8L92.91,631V569.38"
       id="path149" />
    <path
       class="tahrtmRWRl"
       d="M97.58,569.38v61.8L92.91,631V569.38"
       id="path151" />
    <path
       d="M101.63,566.76V631.2h4.66V566.76"
       id="path153" />
    <path
       class="tahrtmRWRl"
       d="M101.63,566.76V631.2h4.66V566.76"
       id="path155" />
    <path
       d="M110.39,564.09v67.27c1.56.08,3.12.08,4.67.08V564.09"
       id="path157" />
    <path
       class="tahrtmRWRl"
       d="M110.39,564.09v67.27c1.56.08,3.12.08,4.67.08V564.09"
       id="path159" />
    <path
       d="M119.08,562.61v68.78c1.56,0,3.12-.09,4.67-.09V562.72"
       id="path161" />
    <path
       class="tahrtmRWRl"
       d="M119.08,562.61v68.78c1.56,0,3.12-.09,4.67-.09V562.72"
       id="path163" />
    <path
       class="PaBVoeMeDH"
       d="M145.71,252.94c-.37-4.13-6.42-7.25-11.39-7.47a13.5,13.5,0,0,0-3.54.32,16.74,16.74,0,0,0,4.7-4.45c3-4.18,5.42-11.8,1.75-15.51-3.1-3.17-9.18-1.86-12.24-.57a14.92,14.92,0,0,0-5.3,3.79,10,10,0,0,0,1.93-6.58,10.2,10.2,0,0,0-8.47-8.77,10.74,10.74,0,0,0-8.77,2.77,10,10,0,0,0-2.63,4.74,6.19,6.19,0,0,0-.89-2.83c-1.51-2.5-5.06-4.27-7.89-2.92s-3.22,4.88-3.22,5.12c-.93-.66-7-4.78-13.75-2.64-4.12,1.3-8.94,5-8.63,8.62s5.64,5.11,5.12,7c-.63,2.33-8.51.38-10.52,3.79-1.77,3,1.89,8.62,5,11.56,5.7,5.42,13.32,5.52,15.91,5.42-.49,0-5.32.34-6.27,2.92s2.23,6.26,5.57,7.79c1.66.77,3,.8,17.54-1.34a39.43,39.43,0,0,1,8-.43,37.3,37.3,0,0,1,5,.59c11.6,2.05,12.49,3.74,16.53,3.22,4.67-.59,7.91-3.44,10.82-6C143.28,258.28,146,255.89,145.71,252.94Z"
       id="path165" />
    <path
       class="hELEZFWOnh"
       d="M103.56,296.59h5.93V255.84h-5.93Z"
       id="path167" />
    <path
       class="PaBVoeMeDH"
       d="M118.39,250.28c0-5.53-5.47-10-12.23-10s-12.23,4.48-12.23,10,5.48,10,12.23,10S118.39,255.8,118.39,250.28Z"
       id="path169" />
    <path
       class="PaBVoeMeDH"
       d="M194.13,241.3c-1.62-3.65-5.94-7.54-10.75-6.42a9.62,9.62,0,0,0-6.9,7.86c.09-9.1-3-16.74-7.7-18.13-6.48-1.91-14.8,8.26-17.52,17.17-.46,1.7-3.4,11.07,1.76,19.73,5.4,9,15.73,10.86,20.73,11.74,6.71,1.19,11.94.19,16.85-.8,9.45-1.9,18.69-3.74,23.14-11.25,4.12-7,4.12-18.58-1.45-21.35-4.38-2.18-12.11,1.17-17.67,8.83A11.21,11.21,0,0,0,194.13,241.3Z"
       id="path171" />
    <path
       class="hELEZFWOnh"
       d="M179.28,296.59h4.46V264.73h-4.46Z"
       id="path173" />
    <path
       class="PaBVoeMeDH"
       d="M190.41,263.62c0-3.89-3.81-7-8.52-7s-8.53,3.15-8.53,7,3.82,7.05,8.53,7.05S190.41,267.51,190.41,263.62Z"
       id="path175" />
    <path
       class="PaBVoeMeDH"
       d="M448.18,552.91c-2.47-5.58-9.07-11.51-16.44-9.81-5.26,1.21-9.42,6-10.54,12,.07-13.92-4.55-25.6-11.77-27.72-9.89-2.92-22.62,12.72-26.77,26.24-.81,2.6-5.21,16.94,2.69,30.18,8.25,13.82,24,16.59,31.68,17.94,10.26,1.8,18.25.28,25.76-1.23,14.44-2.89,28.49-5.72,35.37-17.21,6.37-10.67,6.29-28.39-2.23-32.63-6.71-3.33-18.54,1.78-27,13.5A17.15,17.15,0,0,0,448.18,552.91Z"
       id="path177" />
    <path
       class="hELEZFWOnh"
       d="M425.52,637.45h6.8V588.74h-6.8Z"
       id="path179" />
    <path
       class="PaBVoeMeDH"
       d="M442.53,587c0-5.94-5.84-10.76-13-10.76s-13,4.82-13,10.76,5.84,10.77,13,10.77S442.53,593,442.53,587Z"
       id="path181" />
    <path
       class="FGXYlPJvQD"
       d="M313.26,404.88c-.09-.62-.24-1.59-.4-2.77-.57-4.21-.88-6.53-1.12-9.47-.05-.75-.13-1.91-.2-3.33a4.73,4.73,0,0,1-4.78,1.23,5.39,5.39,0,0,1-2.23-1.11c-.32-.31-1.21-1.19-1.43-6.47-.15-3.55.18-4.72.59-5.63a4,4,0,0,1,1.92-2.22,3.17,3.17,0,0,1,1.32-.25,3.11,3.11,0,0,1,1.3.35c1.2.81,1.11,2.72,1.11,3.75a14.65,14.65,0,0,1-.69,4.25,2.21,2.21,0,0,0-.1,1.58,1.4,1.4,0,0,0,.38.52,1.45,1.45,0,0,0,.57.31c.12,0,.25,0,1.11-.14l.88-.2c-.11-1.19-.94-10.24,1.29-14.92a6.11,6.11,0,0,1,2.61-3,5.53,5.53,0,0,1,3.55-.45,5,5,0,0,1,2.72,1.49c.66.73,1,1.58,1.19,3.8.11,1.18.17,2.72-.44,9.18a28.82,28.82,0,0,1-.45,3.21c-.16.79-.19.72-.74,3-.87,3.57-.48,2.38-.69,3.11a12,12,0,0,0-.29,2,1.56,1.56,0,0,0,.1.88,1.5,1.5,0,0,0,.53.64,1.83,1.83,0,0,0,.89.33,1.93,1.93,0,0,0,.95-.13,2.23,2.23,0,0,0,1.11-1.19c.32-.71.15-1.22.09-2.56a19,19,0,0,1,0-2.61,8.23,8.23,0,0,1,.83-3.16,2.75,2.75,0,0,1,1.19-1.39,2.48,2.48,0,0,1,1-.17,2.45,2.45,0,0,1,1,.22,3.16,3.16,0,0,1,1.42,1.38A5.17,5.17,0,0,1,330,387c.17,1.14.07,2.25-.75,5.19-.65,2.53-1,3.81-1.77,4.69a4.57,4.57,0,0,1-2.91,1.93c-1,.11-2-.38-3.51-1.11-.45-.23-.9-.48-1.33-.75-.16,1.32-.33,2.66-.49,4-.15,1.11-.29,2.22-.45,3.33Z"
       id="path183" />
    <path
       class="OfJIjDWiDY"
       d="M325.37,376.69a5.91,5.91,0,0,1-.88,1.71,4.08,4.08,0,0,1-1.24,1.17,3.45,3.45,0,0,1-2,.44,3.3,3.3,0,0,1-1.44-.36,3.45,3.45,0,0,1-1.25-1.18,4.34,4.34,0,0,1-.59-2.07,6.61,6.61,0,0,1,0-.89,1.11,1.11,0,0,0-.88-.23.88.88,0,0,0-.35.17,5.63,5.63,0,0,1-.71,2.15,3.14,3.14,0,0,1-3.2,1.87,3.05,3.05,0,0,1-1.25-.43,3.72,3.72,0,0,1-1.11-.82,4.7,4.7,0,0,1-1-1.65,16.18,16.18,0,0,1-.35-1.71,2.12,2.12,0,0,1,0-.87,1.53,1.53,0,0,1,.14-.41,15.74,15.74,0,0,1,5.3.28,12.28,12.28,0,0,0,2.33.44,12.92,12.92,0,0,0,1.76,0,33.26,33.26,0,0,1,5.09.09,12.68,12.68,0,0,1,1.94.44A7.43,7.43,0,0,1,325.37,376.69Z"
       id="path185" />
    <path
       class="FGXYlPJvQD"
       d="M267.59,364.66c-.07-.4-.18-1-.3-1.81-.46-2.77-.7-4.28-.88-6.21a21.11,21.11,0,0,1-.15-2.22,4,4,0,0,1-1.56.81,4.82,4.82,0,0,1-2,.06,4.92,4.92,0,0,1-1.84-.74c-.27-.2-.94-.78-1.12-4.24-.11-2.32.15-3.09.47-3.68a2.82,2.82,0,0,1,1.48-1.46,2.69,2.69,0,0,1,2,.07c.95.53.88,1.78.88,2.46a8.51,8.51,0,0,1-.53,2.78,1.27,1.27,0,0,0-.16.51,1.29,1.29,0,0,0,.08.52,1.14,1.14,0,0,0,.3.35,1.2,1.2,0,0,0,.43.2,2.53,2.53,0,0,0,.87-.1l.69-.12c-.13-.79-.74-6.71,1-9.77a4.26,4.26,0,0,1,2-2,4.68,4.68,0,0,1,2.74-.29,4.07,4.07,0,0,1,2.09,1,3.54,3.54,0,0,1,.91,2.5,27.5,27.5,0,0,1-.33,6,16.73,16.73,0,0,1-.35,2.1c-.12.51-.14.48-.57,2-.67,2.35-.37,1.56-.53,2a8,8,0,0,0-.23,1.3.9.9,0,0,0,.07.58,1.24,1.24,0,0,0,.43.42,1.64,1.64,0,0,0,.69.21,1.72,1.72,0,0,0,.71-.09,1.36,1.36,0,0,0,.52-.3,1.44,1.44,0,0,0,.36-.48c.26-.46.08-.8.08-1.68a9.77,9.77,0,0,1,0-1.71,5.16,5.16,0,0,1,.64-2.07,1.89,1.89,0,0,1,.91-.9,2.27,2.27,0,0,1,1.5,0,2.23,2.23,0,0,1,1.11.9,3,3,0,0,1,.57,1.36,6.69,6.69,0,0,1-.57,3.39,7.78,7.78,0,0,1-1.37,3.08,3.61,3.61,0,0,1-2.23,1.26,6.23,6.23,0,0,1-2.7-.74c-.34-.15-.69-.31-1-.49-.13.86-.27,1.9-.38,2.62s-.24,1.45-.35,2.17Z"
       id="path187" />
    <path
       class="FGXYlPJvQD"
       d="M363.52,373c-.08-.44-.19-1.12-.33-2-.47-3-.73-4.59-.92-6.67,0-.55-.16-1.36-.16-2.36a4.08,4.08,0,0,1-1.61.93,5,5,0,0,1-2.1.06,5.14,5.14,0,0,1-1.94-.79c-.23-.21-.93-.84-1.11-4.57-.12-2.5.14-3.32.48-4a3,3,0,0,1,1.55-1.57,2.83,2.83,0,0,1,2.12.07c1,.58.92,1.92.92,2.65a9.59,9.59,0,0,1-.55,3,1.22,1.22,0,0,0-.17.55,1.32,1.32,0,0,0,.09.56,1.16,1.16,0,0,0,.31.39,1,1,0,0,0,.45.2,2.58,2.58,0,0,0,.91-.1l.72-.14c-.08-.85-.78-7.18,1-10.52a4.45,4.45,0,0,1,2.12-2.12,5,5,0,0,1,2.87-.31,4.14,4.14,0,0,1,2.23,1,4,4,0,0,1,1,2.69,30.54,30.54,0,0,1-.36,6.48,15.48,15.48,0,0,1-.37,2.23c-.12.55-.14.51-.59,2.12-.71,2.56-.39,1.72-.57,2.23a9.5,9.5,0,0,0-.23,1.4,1,1,0,0,0,.08.62,1.26,1.26,0,0,0,.43.46,1.89,1.89,0,0,0,.73.23,1.75,1.75,0,0,0,.75-.1,1.65,1.65,0,0,0,.93-.83c.26-.51.13-.86.07-1.82a11.3,11.3,0,0,1,0-1.84A5.28,5.28,0,0,1,373,359a2.07,2.07,0,0,1,1-1,2.21,2.21,0,0,1,1.56,0,2.43,2.43,0,0,1,1.11,1,3.28,3.28,0,0,1,.6,1.47,7.49,7.49,0,0,1-.6,3.65,8.56,8.56,0,0,1-1.43,3.34,3.83,3.83,0,0,1-2.36,1.36A6.29,6.29,0,0,1,370,368a9.33,9.33,0,0,1-1.11-.52c-.13.94-.29,2-.4,2.82s-.24,1.57-.36,2.33Z"
       id="path189" />
    <path
       class="FGXYlPJvQD"
       d="M399.86,337.45c-.08-.45-.19-1.13-.32-1.95-.48-3-.74-4.61-.93-6.68,0-.55-.15-1.37-.15-2.37a4.06,4.06,0,0,1-1.64.87,5,5,0,0,1-2.1.06,5.3,5.3,0,0,1-1.94-.79c-.23-.22-.93-.84-1.11-4.57-.12-2.5.14-3.32.48-4a3,3,0,0,1,1.56-1.57,2.76,2.76,0,0,1,2.11.08c1,.57.92,1.92.92,2.65a9.25,9.25,0,0,1-.55,3,1.22,1.22,0,0,0-.17.55,1.35,1.35,0,0,0,.09.56,1,1,0,0,0,.31.38.94.94,0,0,0,.45.21,2.58,2.58,0,0,0,.91-.1l.72-.14c-.08-.85-.78-7.18,1-10.52a4.63,4.63,0,0,1,2.12-2.12,5,5,0,0,1,2.87-.31,4.23,4.23,0,0,1,2.23,1,3.88,3.88,0,0,1,1,2.68,29.9,29.9,0,0,1-.36,6.48,15.48,15.48,0,0,1-.37,2.23c-.12.55-.14.51-.59,2.12-.71,2.55-.39,1.7-.56,2.23a8.08,8.08,0,0,0-.24,1.39,1,1,0,0,0,.08.62,1.35,1.35,0,0,0,.43.46,1.88,1.88,0,0,0,.73.22,1.72,1.72,0,0,0,1.3-.41,1.7,1.7,0,0,0,.38-.51c.27-.52.08-.86.08-1.82a9.32,9.32,0,0,1,0-1.83,5.28,5.28,0,0,1,.68-2.23,2,2,0,0,1,1-1,2.21,2.21,0,0,1,1.56,0,2.43,2.43,0,0,1,1.11,1,3.33,3.33,0,0,1,.6,1.47,7.38,7.38,0,0,1-.6,3.65,8.56,8.56,0,0,1-1.43,3.34,3.8,3.8,0,0,1-2.36,1.36,6.29,6.29,0,0,1-2.84-.81,9.33,9.33,0,0,1-1.11-.52c-.12.94-.26,1.87-.4,2.83-.11.78-.24,1.56-.36,2.32Z"
       id="path191" />
    <path
       class="FGXYlPJvQD"
       d="M310.64,341.38c-.11-.69-.29-1.67-.5-2.92-.75-4.45-1.15-6.92-1.44-10-.08-.82-.18-2-.26-3.53a6.45,6.45,0,0,1-2.57,1.3,7.94,7.94,0,0,1-3.53.05,7.5,7.5,0,0,1-2.82-1.11c-.44-.32-1.55-1.25-1.83-6.81-.19-3.71.23-5,.76-5.93a4.35,4.35,0,0,1,5.78-2.24c1.56.86,1.45,2.84,1.45,3.95a13.3,13.3,0,0,1-.88,4.45,2,2,0,0,0-.25.82,1.89,1.89,0,0,0,.12.85,1.64,1.64,0,0,0,.51.57,1.67,1.67,0,0,0,.69.31,4.17,4.17,0,0,0,1.45-.15l1.11-.22c-.14-1.23-1.21-10.78,1.64-15.7a6.86,6.86,0,0,1,3.33-3.16,8.42,8.42,0,0,1,4.52-.48,6.94,6.94,0,0,1,3.46,1.57c.84.77,1.26,1.77,1.52,4,.13,1.25.21,2.87-.57,9.67a23.79,23.79,0,0,1-.57,3.34c-.2.82-.23.76-.94,3.17-1.11,3.77-.61,2.5-.88,3.27a12.27,12.27,0,0,0-.38,2.08,1.52,1.52,0,0,0,.13.94,1.71,1.71,0,0,0,.69.67,2.71,2.71,0,0,0,1.14.35,3,3,0,0,0,1.19-.13,2.61,2.61,0,0,0,1.44-1.25c.42-.77.22-1.29.13-2.7a15.67,15.67,0,0,1,0-2.74,7.61,7.61,0,0,1,1.11-3.34,3.08,3.08,0,0,1,1.5-1.46,3.71,3.71,0,0,1,2.46,0,3.86,3.86,0,0,1,1.83,1.46,4.91,4.91,0,0,1,.93,2.22c.18,1.2.09,2.36-.93,5.47-.85,2.7-1.31,4-2.23,4.93a6,6,0,0,1-3.71,2c-1.3.08-2.49-.43-4.45-1.21a17.41,17.41,0,0,1-1.7-.78c-.2,1.4-.4,2.8-.62,4.22l-.57,3.49Z"
       id="path193" />
    <path
       class="sXsTgDygJp"
       d="M239.37,581.9c2.23-5.66,8.12-18,20.86-23.47l1.72-.69a23.25,23.25,0,0,1,3.94-5c6.23-5.92,21.33-11.56,31.73-15.66a57.86,57.86,0,0,1,18.27-3.9c2.4-9.14,11.71-33.47,24.78-59.13,10.79-21.23,11.31-20.16,16.08-33,.41-1.12.92-2.54,1.59-4a18.4,18.4,0,0,1-5.93-8.15,17,17,0,0,1-.43-10c6.09,2.15,10.86,4.9,13.76,7.71q-1.44-6.68-2.9-13.35l6.52-.87L369,428.72a23.35,23.35,0,0,1,6.86,1.46,29.32,29.32,0,0,1,11.74,7.39c7.44,7.38,13,19.31,10,22.17-2,1.94-7.79-.57-13.47-3.05-8-3.46-13.61-8.44-17-7-2,.86-3.32,3.8-3.92,5.66-5.22,16.09,0,0-7,21.3-2.85,8.71-4.87,14.21-7,22.61s-3.28,15.88-5.65,30.86c-1.6,10-2.4,15.05-3.05,20.86-1.67,14.8-.75,17.55-1.75,31.74-2.23,31.94-8.47,40-1.73,51.73,2.75,4.87,7.54,8.81,6.08,11.74-1.8,3.6-12.13,3.9-15.21-.44-2.49-3.53.29-9.32,1.3-11.74,3.61-8.65,5.3-23.79-4.35-52.17-12.82,30.89-10.35,45.69-4.78,53.42,1.8,2.52,6.4,7.73,4.78,10.44s-8.68,1.54-14.78,0c.63-3.39,1.24-6.87,1.74-10.44a218.51,218.51,0,0,0,.87-53.42H279.8c-6.55,28-2.1,42.85,3.47,51.3,2.19,3.3,7.2,9.59,5.22,12.61-1.83,2.78-8.78,1.53-14.35,0,.05-48.87-2.26-64.09-5.22-64.34-4.53-.38-17.81,33.84-5.22,52.6,2.61,3.86,7.08,8.23,5.66,10.87-1.64,3.11-10.3,1.77-17.81,0a72.22,72.22,0,0,0,3.92-11.74c3-12.24,1.48-20.35,1.3-37.83,0-4.92,0-12.1.44-20.87a46.49,46.49,0,0,1,2.43-11.79,31.48,31.48,0,0,0-6.34,3.53C246.38,571,243.74,577.1,239.37,581.9Z"
       id="path195" />
    <path
       class="eWOToAEdiT"
       d="M374,441.79a4.79,4.79,0,0,0,1.95.24,5.39,5.39,0,0,0,1.48-.39,3.51,3.51,0,0,0,1.47-1.11,4.37,4.37,0,0,0,.92-2.49,4.25,4.25,0,0,0-.69-2.57c-1.7-2.56-6.33-2.56-7.78-.34C370,437.1,371.27,440.83,374,441.79Z"
       id="path197" />
    <path
       class="VUMGuVmRjY"
       d="M373.83,441.64c.17.05.39.16.57.21a5.61,5.61,0,0,0,1.78.16,3.08,3.08,0,0,0,1.36-.38,3.17,3.17,0,0,0,.45-.23l.23-.14c1.78-1,2-3.2,1.47-5a4.44,4.44,0,0,0-2.37-.14,4.36,4.36,0,0,0-2.09,1.12,4.31,4.31,0,0,0-1.85,4.14A2,2,0,0,0,373.83,441.64Z"
       id="path199" />
    <path
       class="FGXYlPJvQD"
       d="M225.52,333.06c-.06-.41-.17-1-.3-1.81-.45-2.77-.7-4.29-.88-6.21,0-.54-.14-1.29-.14-2.23a4.08,4.08,0,0,1-1.57.82,4.79,4.79,0,0,1-2.13,0,4.46,4.46,0,0,1-1.71-.72c-.28-.2-.95-.78-1.11-4.24-.12-2.31.13-3.08.45-3.68a2.93,2.93,0,0,1,1.48-1.46,2.76,2.76,0,0,1,2,.07c.94.53.88,1.79.88,2.46a8.27,8.27,0,0,1-.54,2.78,1.16,1.16,0,0,0-.15.51,1.2,1.2,0,0,0,.08.53,1,1,0,0,0,.3.34.91.91,0,0,0,.42.2,2.39,2.39,0,0,0,.88-.1l.69-.12c-.12-.78-.75-6.71,1-9.77a4.14,4.14,0,0,1,2-2,4.85,4.85,0,0,1,2.74-.29,4,4,0,0,1,2.09,1,3.53,3.53,0,0,1,.93,2.49,28.81,28.81,0,0,1-.35,6,18.37,18.37,0,0,1-.34,2.1c-.13.51-.15.48-.57,2-.68,2.35-.38,1.57-.54,2a9.56,9.56,0,0,0-.23,1.3,1,1,0,0,0,.08.58,1.06,1.06,0,0,0,.42.42,1.68,1.68,0,0,0,.69.21,1.72,1.72,0,0,0,.71-.09,1.54,1.54,0,0,0,.88-.76c.26-.48.08-.81.08-1.68a12.34,12.34,0,0,1,0-1.72,4.92,4.92,0,0,1,.65-2.07,1.89,1.89,0,0,1,.92-.91,2.21,2.21,0,0,1,1.48,0,2.29,2.29,0,0,1,1.11.9,3.27,3.27,0,0,1,.58,1.37,6.81,6.81,0,0,1-.58,3.39,8,8,0,0,1-1.37,3.08,3.59,3.59,0,0,1-2.22,1.25,6.14,6.14,0,0,1-2.71-.74c-.37-.16-.72-.33-1-.48-.12.86-.27,1.89-.38,2.61s-.23,1.45-.34,2.17Z"
       id="path201" />
    <path
       class="FGXYlPJvQD"
       d="M251.71,396c-.07-.41-.18-1-.3-1.82-.46-2.76-.7-4.28-.88-6.21a21.07,21.07,0,0,1-.16-2.22,4.14,4.14,0,0,1-1.56.8,4.79,4.79,0,0,1-2.13,0,4.72,4.72,0,0,1-1.72-.71c-.26-.2-.94-.78-1.11-4.24-.11-2.32.15-3.09.46-3.69a2.85,2.85,0,0,1,1.49-1.45,2.69,2.69,0,0,1,2,.06c.95.54.88,1.79.88,2.46a8.51,8.51,0,0,1-.53,2.78,1.17,1.17,0,0,0-.16.51,1.08,1.08,0,0,0,.08.53,1.27,1.27,0,0,0,.3.35,1.07,1.07,0,0,0,.42.19,2.61,2.61,0,0,0,.88-.09l.68-.13c-.12-.78-.73-6.71,1-9.77a4.31,4.31,0,0,1,2-2,4.93,4.93,0,0,1,2.74-.29,4.12,4.12,0,0,1,2.09,1,3.56,3.56,0,0,1,.91,2.49,26.29,26.29,0,0,1-.35,6,14.8,14.8,0,0,1-.33,2.1c-.12.52-.14.48-.58,2-.67,2.33-.36,1.55-.53,2a7.25,7.25,0,0,0-.22,1.29.83.83,0,0,0,.07.58,1,1,0,0,0,.42.42,1.66,1.66,0,0,0,.69.23,1.79,1.79,0,0,0,.72-.09,1.61,1.61,0,0,0,.88-.78c.24-.48.06-.8.06-1.68a12.2,12.2,0,0,1,0-1.71,4.54,4.54,0,0,1,.65-2.07,1.89,1.89,0,0,1,.91-.92,2.24,2.24,0,0,1,1.49,0,2.35,2.35,0,0,1,1.12.92,2.89,2.89,0,0,1,.56,1.35,6.64,6.64,0,0,1-.56,3.4,7.74,7.74,0,0,1-1.37,3.07,3.58,3.58,0,0,1-2.23,1.26,6.11,6.11,0,0,1-2.7-.75,9.79,9.79,0,0,1-1-.48c-.11.87-.26,1.88-.38,2.62s-.22,1.45-.34,2.17Z"
       id="path203" />
    <path
       class="FGXYlPJvQD"
       d="M509.92,330.35l-.24-1.42c-.37-2.14-.57-3.33-.7-4.83a12.69,12.69,0,0,1-.14-1.71,3.1,3.1,0,0,1-1.26.62,4.29,4.29,0,0,1-3.11-.55c-.21-.19-.76-.65-.89-3.34a4.81,4.81,0,0,1,.37-2.87,2.23,2.23,0,0,1,1.2-1.12,2.29,2.29,0,0,1,1.63,0c.72.42.72,1.4.72,1.92a6.77,6.77,0,0,1-.44,2.17.9.9,0,0,0-.13.39,1,1,0,0,0,.06.41,1.12,1.12,0,0,0,.25.28.93.93,0,0,0,.34.15,2.52,2.52,0,0,0,.72-.07l.54-.1c-.06-.62-.59-5.23.8-7.62a3.43,3.43,0,0,1,1.64-1.53,4.11,4.11,0,0,1,2.22-.22,3.32,3.32,0,0,1,1.7.75,2.76,2.76,0,0,1,.74,1.94,20.93,20.93,0,0,1-.28,4.68,15.15,15.15,0,0,1-.27,1.64c-.1.42-.13.37-.47,1.54-.55,1.82-.3,1.21-.44,1.59a4.87,4.87,0,0,0-.17,1,.58.58,0,0,0,0,.45.83.83,0,0,0,.34.33,1.47,1.47,0,0,0,.55.17,1.51,1.51,0,0,0,.56-.07,1.26,1.26,0,0,0,.72-.6c.14-.37,0-.63,0-1.32a7.28,7.28,0,0,1,0-1.32,3.56,3.56,0,0,1,.52-1.61,1.57,1.57,0,0,1,.74-.72,1.79,1.79,0,0,1,2.1.7,2.34,2.34,0,0,1,.46,1.06,5.25,5.25,0,0,1-.46,2.65,5.91,5.91,0,0,1-1.12,2.39,2.86,2.86,0,0,1-1.81,1,5.1,5.1,0,0,1-2.23-.58c-.3-.12-.57-.25-.82-.37l-.31,2c-.09.58-.19,1.14-.28,1.69Z"
       id="path205" />
    <g
       id="animal1"
       onmouseover="hover('hover1', 1)"
       onmouseout="hover('hover1', 0)"
       class="button">
      <path
         class="chaUrlMNOz"
         d="m 1106.52,621 a 76.39,76.39 0 0 0 -9.63,11.53 l -26.63,-4.69 c 13.61,-20.55 -6.49,-45.73 -27.84,-33.5 a 21.49,21.49 0 0 0 -6.9,7.32 122,122 0 0 0 -60.16,-4.25 c 0.17,-4.9 0.17,-9.81 0.17,-14.68 20.65,-6.83 65.1,-31.32 74.32,-77.11 l 8.6,24.48 c 71.07,-34.29 136.1,8.57 120.87,83.37 a 73.55,73.55 0 0 1 -5.63,14.47 C 1158.46,605.13 1135,591.56 1106.52,621 Z"
         id="path207" />
      <path
         class="chaUrlMNOz"
         d="m 1097.67,541.9 -41.44,116 c 51,14.44 98.39,1.35 98.15,-41.44 0.48,-26.25 -17.27,-47.76 -31.08,-56.57 -31.29,-20.17 -83.54,-9.22 -116.56,34.16 44.31,15.78 48.8,62.47 21.17,86.64 h 24.18 c 12.81,-13.12 30.73,-43.34 21.93,-76 23.1,-14.13 47.62,-21.31 58.15,-12.26 12.89,11 7.26,48.28 -22.93,88.23 h 28.91 a 191.14,191.14 0 0 0 41,-67.13 z"
         id="path209" />
      <path
         class="eWOToAEdiT"
         d="m 1041.07,580.68 a 12.43,12.43 0 0 1 -5.31,-1.35 16.14,16.14 0 0 1 -3.46,-2.52 10,10 0 0 1 -2.66,-4.42 12.27,12.27 0 0 1 4.53,-13.4 c 6.94,-4.9 19,-0.27 20.51,6.91 1.38,6.46 -5.68,14.85 -13.61,14.78 z"
         id="path211" />
      <path
         class="lAqGDhRyoj"
         d="M 1041.66,580.27 H 1040 a 14.46,14.46 0 0 1 -4.81,-1.39 9.14,9.14 0 0 1 -3.14,-2.34 9.38,9.38 0 0 1 -0.93,-1.07 l -0.41,-0.59 c -3.63,-4.35 -1.84,-10.29 1.27,-14.44 a 14.25,14.25 0 0 1 6,2.31 14.1,14.1 0 0 1 5,17.34 8.63,8.63 0 0 1 -1.32,0.18 z"
         id="path213" />
      <path
         class="chaUrlMNOz"
         d="m 1169.75,560 c -2.62,-0.55 -3.83,3.42 -1.17,4 a 22.08,22.08 0 0 0 11.32,0.56 10,10 0 0 0 4,-2.25 10.14,10.14 0 0 0 2.59,-3.8 8.79,8.79 0 0 0 -2,-8.32 c -0.8,-1 -2,-2.38 -2.42,-3 -0.42,-0.62 -1.66,-2.07 -1.35,-2.83 l -0.55,0.9 c 0.31,-0.38 -0.34,0 0,0 l 0.83,-0.21 2,-0.55 3.66,-1 7.7,-2.11 c 2.45,-0.58 1.59,-4.76 -1,-4 l -13,3.46 c -1.63,0.45 -3.46,0.86 -4,2.73 a 6.42,6.42 0 0 0 1,4.45 c 1.28,2.35 3.59,4.08 4.73,6.53 a 4.33,4.33 0 0 1 0.3,1.67 4.1,4.1 0 0 1 -0.37,1.66 4.36,4.36 0 0 1 -2.42,2.3 14.83,14.83 0 0 1 -10.05,0 z"
         id="path215" />
    </g>
    <path
       class="chaUrlMNOz"
       d="M932.36,351.23a40.75,40.75,0,0,0-7.91,1.26l-9.06-11.22c12.67-3.49,13.41-20.66.55-23.22a11.45,11.45,0,0,0-5.35.53,65.07,65.07,0,0,0-22.69-22.79c1.78-1.91,3.5-3.88,5.21-5.84,10.7,4.49,37.14,10.22,56.89-5l-5.12,12.85C985.47,309,996.6,349,964.27,373.7a39.11,39.11,0,0,1-7.33,3.85C958.79,363.06,954.1,349.38,932.36,351.23Z"
       id="path217" />
    <path
       class="chaUrlMNOz"
       d="M956.5,316.35l-57.3,32.11c15.45,23.68,39.08,35,54,17.73,9.39-10.38,9.79-25.25,7.32-33.63-5.51-19.07-30.35-33-58.82-27.11,12.28,21.87-2.27,42.22-21.85,42.26l9.72,8.47c9.75-.79,27.54-6.66,35.43-22.87,14.24,2.42,26.61,8.12,27.68,15.45,1.31,8.95-14,21.95-40.13,27.44l11.62,10.13a102.2,102.2,0,0,0,40-12.63Z"
       id="path219" />
    <path
       class="eWOToAEdiT"
       d="M920.16,312.11a6.74,6.74,0,0,1-1.67-2.41,8.83,8.83,0,0,1-.5-2.22,5.28,5.28,0,0,1,.48-2.71A6.54,6.54,0,0,1,925,301c4.51.46,7.72,6.53,5.83,10C929.1,314,923.33,314.92,920.16,312.11Z"
       id="path221" />
    <path
       class="lAqGDhRyoj"
       d="M920.54,312.15l-.68-.6a7.65,7.65,0,0,1-1.45-2.23,5,5,0,0,1-.44-2.05,4.82,4.82,0,0,1,0-.76l0-.38c.07-3,2.87-4.78,5.57-5.35a7.51,7.51,0,0,1,1.71,6.49,7.5,7.5,0,0,1-4.15,5.28A4.81,4.81,0,0,1,920.54,312.15Z"
       id="path223" />
    <path
       class="chaUrlMNOz"
       d="M979.13,348.89c-.86-1.15-2.74,0-1.88,1.2a11.92,11.92,0,0,0,4.36,4.19,5.35,5.35,0,0,0,2.4.49,5.41,5.41,0,0,0,2.37-.61,4.69,4.69,0,0,0,2.11-4.05c0-.68,0-1.65.07-2s.06-1.42.45-1.61l-.54.17c.26-.05-.13-.13,0,0l.41.2,1,.49,1.84.87,3.83,1.85c1.19.62,2.31-1.36,1-2l-6.41-3.15c-.81-.39-1.69-.87-2.57-.31a3.42,3.42,0,0,0-1.17,2.13c-.31,1.39,0,2.9-.38,4.28a2.29,2.29,0,0,1-.47.78,2.17,2.17,0,0,1-.73.54,2.43,2.43,0,0,1-.88.22,2.33,2.33,0,0,1-.9-.15,7.9,7.9,0,0,1-4-3.52Z"
       id="path225" />
    <path
       class="chaUrlMNOz"
       d="M1163.54,208.75a41.37,41.37,0,0,0-1.37,7.89l-13.55,4.93c.81-13.12-15.19-19.38-21.79-8a11.43,11.43,0,0,0-1.23,5.23,65.14,65.14,0,0,0-28.92,14.07c-1.23-2.31-2.53-4.57-3.83-6.82,7.71-8.66,21.71-31.82,13.76-55.43l10.5,9c23.68-34.79,65.13-32.34,78.05,6.27a39.66,39.66,0,0,1,1.25,8.18C1183.31,187.59,1168.85,187.59,1163.54,208.75Z"
       id="path227" />
    <path
       class="chaUrlMNOz"
       d="M1138.38,174.6l11.79,64.62c27.41-6.93,45.8-25.61,34.28-45.31-6.78-12.25-20.71-17.45-29.44-17.83-19.83-1-41,18-44.72,46.85,24.67-4.53,39.19,15.84,32.88,34.37l11.16-6.45c2.42-9.48,2.64-28.21-10.13-40.93,6.91-12.69,16.32-22.54,23.59-21.17,8.9,1.67,16.23,20.36,12.94,46.86l13.35-7.71a102.16,102.16,0,0,0,1-41.93Z"
       id="path229" />
    <path
       class="eWOToAEdiT"
       d="M1122.58,207.6a6.78,6.78,0,0,1-2.81.8,9.14,9.14,0,0,1-2.27-.25,5.32,5.32,0,0,1-2.41-1.33,6.55,6.55,0,0,1-1.48-7.39c1.9-4.12,8.68-5.19,11.32-2.28C1127.29,199.76,1126.27,205.51,1122.58,207.6Z"
       id="path231" />
    <path
       class="lAqGDhRyoj"
       d="M1122.74,207.25l-.78.45a7.48,7.48,0,0,1-2.59.65,4.85,4.85,0,0,1-2.07-.25,4.37,4.37,0,0,1-.72-.25l-.35-.16c-2.83-1-3.59-4.26-3.26-7a7.52,7.52,0,0,1,3.41-.55,7.52,7.52,0,0,1,5.78,3.43,7.53,7.53,0,0,1,1.16,3.24A4.92,4.92,0,0,1,1122.74,207.25Z"
       id="path233" />
    <path
       class="chaUrlMNOz"
       d="M1176.5,163.75c-1.36.45-.86,2.6.53,2.17a11.91,11.91,0,0,0,5.38-2.77,5.44,5.44,0,0,0,1.43-4.55,4.7,4.7,0,0,0-3.14-3.31c-.64-.25-1.55-.57-1.91-.72s-1.32-.52-1.38-.95l0,.56c0-.26-.15.09,0,0l.33-.32.8-.8,1.41-1.45,3-3c1-.92-.54-2.62-1.54-1.6l-5.06,5.05c-.63.64-1.37,1.32-1.13,2.33a3.44,3.44,0,0,0,1.64,1.8c1.21.74,2.74.92,3.92,1.75a2.43,2.43,0,0,1,.59.69,2.34,2.34,0,0,1,.19,1.77,2.14,2.14,0,0,1-.43.8,7.81,7.81,0,0,1-4.64,2.68Z"
       id="path235" />
    <path
       class="chaUrlMNOz"
       d="M887.41,133.89a40.92,40.92,0,0,0-5.13,6.15l-14.2-2.51c7.25-11-3.46-24.38-14.85-17.86a11.54,11.54,0,0,0-3.68,3.9,65.16,65.16,0,0,0-32.08-2.26c.09-2.62.09-5.23.09-7.83,11-3.65,34.72-16.7,39.63-41.12l4.59,13c37.9-18.28,72.58,4.57,64.46,44.46a39.61,39.61,0,0,1-3,7.72C915.11,125.45,902.59,118.21,887.41,133.89Z"
       id="path237" />
    <path
       class="chaUrlMNOz"
       d="M882.7,91.73l-22.1,61.86c27.2,7.7,52.46.72,52.34-22.1.25-14-9.21-25.47-16.58-30.16-16.68-10.76-44.55-4.92-62.15,18.21,23.63,8.42,26,33.31,11.29,46.2h12.89c6.83-7,16.39-23.11,11.69-40.51,12.32-7.53,25.4-11.36,31-6.54,6.87,5.9,3.87,25.75-12.22,47.05h15.41a102,102,0,0,0,21.86-35.8Z"
       id="path239" />
    <path
       class="eWOToAEdiT"
       d="M852.51,112.41a6.52,6.52,0,0,1-2.83-.72,8.34,8.34,0,0,1-1.84-1.34,5.36,5.36,0,0,1-1.42-2.36,6.53,6.53,0,0,1,2.41-7.14c3.7-2.62,10.11-.15,10.94,3.68C860.51,108,856.75,112.45,852.51,112.41Z"
       id="path241" />
    <path
       class="lAqGDhRyoj"
       d="M852.83,112.19h-.91a7.46,7.46,0,0,1-2.56-.74,4.77,4.77,0,0,1-1.67-1.25,4.53,4.53,0,0,1-.5-.57l-.22-.31c-1.93-2.32-1-5.49.68-7.7a7.54,7.54,0,0,1,5.56,3.77,7.57,7.57,0,0,1,.33,6.71A4.18,4.18,0,0,1,852.83,112.19Z"
       id="path243" />
    <path
       class="chaUrlMNOz"
       d="M921.13,101.4c-1.4-.29-2,1.82-.62,2.14a11.79,11.79,0,0,0,6,.29,5.37,5.37,0,0,0,2.13-1.2,5.28,5.28,0,0,0,1.38-2A4.66,4.66,0,0,0,929,96.17c-.43-.53-1-1.27-1.29-1.58s-.89-1.11-.72-1.51l-.3.47c.17-.2-.18,0,0,0l.45-.11,1.08-.29,1.95-.55,4.11-1.13c1.31-.31.85-2.54-.53-2.15l-6.91,1.84c-.86.24-1.84.46-2.13,1.46a3.37,3.37,0,0,0,.51,2.37c.68,1.25,1.92,2.17,2.52,3.48a2.31,2.31,0,0,1,.17.89,2.46,2.46,0,0,1-.2.89,2.26,2.26,0,0,1-.52.74,2.49,2.49,0,0,1-.77.48,7.84,7.84,0,0,1-5.36,0Z"
       id="path245" />
    <path
       class="chaUrlMNOz"
       d="M595,90.82a40.41,40.41,0,0,0,2.09,7.74l-10.21,10.19c-4.8-12.23-21.95-11.17-23.15,1.89a11.38,11.38,0,0,0,1.09,5.26,64.9,64.9,0,0,0-20.28,25c-2.09-1.58-4.23-3.08-6.36-4.57,3.34-11.11,6.27-38-10.9-56.06L540.63,84c6.8-41.53,45.42-56.79,73.41-27.23a39.15,39.15,0,0,1,4.59,6.89C604,63.31,590.92,69.4,595,90.82Z"
       id="path247" />
    <path
       class="chaUrlMNOz"
       d="M557.81,70.48l38,53.61c21.93-17.84,30.72-42.53,12-55.53-11.31-8.25-26.14-7.09-34.21-3.76-18.39,7.48-29.61,33.65-20.79,61.34C573.19,111.63,595,124,597,143.44l7.4-10.56c-1.8-9.61-9.5-26.69-26.45-32.84.91-14.41,5.29-27.31,12.46-29.14,8.77-2.24,23.3,11.62,31.5,37l8.85-12.61a101.93,101.93,0,0,0-16.75-38.46Z"
       id="path249" />
    <path
       class="eWOToAEdiT"
       d="M557.41,107.06a6.57,6.57,0,0,1-2.22,1.91,8.69,8.69,0,0,1-2.15.74,5.35,5.35,0,0,1-2.75-.2,6.51,6.51,0,0,1-4.46-6.07c0-4.54,5.68-8.37,9.3-6.84C558.37,98,559.87,103.62,557.41,107.06Z"
       id="path251" />
    <path
       class="lAqGDhRyoj"
       d="M557.41,106.68l-.52.74a7.76,7.76,0,0,1-2.07,1.67,4.87,4.87,0,0,1-2,.65,3.82,3.82,0,0,1-.75.08h-.39c-3,.25-5.05-2.36-5.91-5a7.44,7.44,0,0,1,2.86-1.93,7.53,7.53,0,0,1,3.42-.46,7.52,7.52,0,0,1,5.69,3.58A4.89,4.89,0,0,1,557.41,106.68Z"
       id="path253" />
    <path
       class="chaUrlMNOz"
       d="M587.8,44.57c-1,1,.32,2.72,1.39,1.73a11.74,11.74,0,0,0,3.71-4.77,5.36,5.36,0,0,0-.61-4.73,4.7,4.7,0,0,0-1.91-1.39,4.79,4.79,0,0,0-2.34-.29l-2,.15c-.39,0-1.41.09-1.65-.28l.23.52c-.08-.26-.11.15,0,0l.16-.43.38-1.06.67-1.91,1.44-4c.49-1.25-1.59-2.15-2.07-.8L582.7,34c-.3.85-.68,1.77,0,2.59a3.49,3.49,0,0,0,2.25.94c1.41.16,2.87-.32,4.29-.07a2.32,2.32,0,0,1,.83.38,2.3,2.3,0,0,1,.61.67,2.35,2.35,0,0,1,.31.85,2.53,2.53,0,0,1-.05.91,7.86,7.86,0,0,1-3.08,4.39Z"
       id="path255" />
  </g>
  <g
     id="Layer_3"
     data-name="Layer 3">
    <path
       class="WEIPZzvrlZ"
       d="M319.14,288.12c-1.51-.77-2.55-3.41-2.81-4.09a11.27,11.27,0,0,1-.77-4.09c.4-.39,1-.94,1.66-1.59,0,0,2.16-2,4.59-4,6.25-5.16,25.69-18.4,39.24-28.52a49.11,49.11,0,0,1,12.1-7.24c5.42-2.16,12.33-2.86,15.44-3.09.07-.82-1.37-2.37-1.26-3.92.19-2.9.29-3.08.55-3.55,1.08-2.43,3.83-3.91,5.78-3.6s3.79,1,4.26,3.17c.41,1.89.82,4.21-.93,6.51a29,29,0,0,1,3.61-2.19c4.88-2.49,8.86-2.69,20.87-2.92,12.7-.25,15.5-.17,18.89.15A79.34,79.34,0,0,1,451.1,231a23.24,23.24,0,0,1,5.37,1.69,22.45,22.45,0,0,1,5.22,3.53c4.29,3.8,4.05,6,7.22,7.83,1.52.88,3.08,1.22,6,1.38a66.59,66.59,0,0,0,19.5-2.14c10.94-2.62,16.42-3.92,17-4,4.67-.55,12.38-1.38,21.33,1.54a43.31,43.31,0,0,1,15,8.6,34.79,34.79,0,0,1-3.07,3.37c-14,13.47-36.1,11.29-45.29,9.83a5.5,5.5,0,0,0,1.23,2.45c2.15,2.41,5.73,1.74,6,1.69a37.58,37.58,0,0,1-6.91,4.76c-10.81,5.8-21.71,4.83-26.86,4l-8.29-2.92c.14,3.41.38,7,.77,10.75.3,2.93.66,5.75,1.07,8.44l-5.83,2.92-1.08-7.52-2.76-14.89q-1.53,12.27-3.07,24.56h-10.9l1.08-29.47a8.48,8.48,0,0,0-.77-3.54,9.19,9.19,0,0,0-5.37-4.6,28.24,28.24,0,0,0-16.43-.31,27.37,27.37,0,0,0-8.6,4.3,45.56,45.56,0,0,0,3.54,15.35,24.09,24.09,0,0,1,2.45,10.9,19.49,19.49,0,0,1-.15,2L411,292.51q-.48-3.86-1.23-8a142.57,142.57,0,0,0-4-16.27c-.25,3-.51,6-.77,9.05q-.81,9.22-1.69,18.42H391.69c.16-3.25.32-6.9.47-10.9.32-9,.48-13.86.3-20.1-.09-3.3-.28-6.94-.61-10.9A10.39,10.39,0,0,0,388,250.6c-3.89-1.84-7.95-.5-10.74.46a28.45,28.45,0,0,0-8.29,4.61c-5.93,4.56-12.41,8.36-18.58,12.59-13.54,9.27-11.66,6.68-17.5,11.36C326.7,284.58,322,289.58,319.14,288.12Z"
       id="path258" />
    <path
       class="eWOToAEdiT"
       d="M389.61,241.3c-.22-2.56-4.15-4.67-6.78-3.3a4.24,4.24,0,0,0-2.12,4.41,3.7,3.7,0,0,0,.72,1.66,5.27,5.27,0,0,0,1.1,1,4.39,4.39,0,0,0,1.77.7C387,246.22,389.81,243.59,389.61,241.3Z"
       id="path260" />
    <path
       class="VUMGuVmRjY"
       d="M385,245.7c.84-.87,1-2.66.31-4.39s-2.06-2.84-3.29-2.86c-1.24,1.31-2.13,3.27-1.06,4.93,0,0,.11.18.12.21s.18.28.28.41a2.93,2.93,0,0,0,1,.94,5,5,0,0,0,1.59.68c.18,0,.43,0,.58.08A1.61,1.61,0,0,0,385,245.7Z"
       id="path262" />
  </g>
  <g
     id="Layer_4"
     data-name="Layer 4">
    <rect
       class="nMpcBfqpcc"
       x="564.06"
       y="497.17"
       width="322.67"
       height="168.9"
       transform="translate(1450.8 1163.24) rotate(-180)"
       id="rect265" />
    <polygon
       class="nMpcBfqpcc"
       points="725.4 369.83 886.74 497.17 564.06 497.17 725.4 369.83"
       id="polygon267" />
    <rect
       class="nMpcBfqpcc"
       x="692.72"
       y="255.09"
       width="71.1"
       height="154.37"
       transform="translate(1456.53 664.56) rotate(-180)"
       id="rect269" />
    <polygon
       class="vnMMJAcxCc"
       points="727.88 149.11 771.33 255.09 684.43 255.09 727.88 149.11"
       id="polygon271" />
    <polygon
       class="vnMMJAcxCc"
       points="534.16 497.17 548.33 514.45 726.5 368.29 904.59 514.39 918.76 497.12 727.17 339.94 726.44 340.83 725.76 340 534.16 497.17"
       id="polygon273" />
    <path
       class="iyRHVzZjKs"
       d="M856.67,601.66c.12-12.94.44-28,0-52.16-.13-7-4.26-30.15-25-30.86-21.19-.73-24.69,22-25,30.86-.88,23.77-.41,39.43,0,52.16Z"
       id="path275" />
    <polygon
       class="esTfSjhaBF"
       points="726.48 540.88 773 581.43 773 661.56 682.37 661.56 682.37 581.43 726.48 540.88"
       id="polygon277" />
    <rect
       class="GSdJltwSFI"
       x="670.81"
       y="661.56"
       width="115"
       height="18.46"
       transform="translate(1456.62 1341.57) rotate(-180)"
       id="rect279" />
    <path
       class="iyRHVzZjKs"
       d="M647.43,602.31c.12-12.94.44-28,0-52.16-.13-7-4.26-30.15-25-30.86-21.19-.73-24.68,22-25,30.86-.89,23.77-.42,39.43,0,52.16Z"
       id="path281" />
    <path
       class="QpMBUUOGyR"
       d="M753.46,501.5c.12-12.94.45-27.95,0-52.15-.13-7-4.26-30.15-25-30.87-21.18-.73-24.68,22-25,30.87-.89,23.77-.42,39.43,0,52.15Z"
       id="path283" />
    <path
       class="iyRHVzZjKs"
       d="M747.4,329c.09-9.82.33-21.21,0-39.57-.1-5.33-3.24-22.88-19-23.43-16.08-.55-18.73,16.7-19,23.43-.68,18-.32,29.91,0,39.57Z"
       id="path285" />
    <polygon
       class="vnMMJAcxCc"
       points="663.6 583.01 670.81 591.23 726.46 544.87 782.57 591.23 789.32 583 726.7 531.62 726.46 531.91 726.23 531.64 663.6 583.01"
       id="polygon287" />
    <ellipse
       class="faqimSEgfV"
       cx="735.3"
       cy="615.57"
       rx="4.25"
       ry="7.17"
       id="ellipse289" />
    <ellipse
       class="faqimSEgfV"
       cx="719.92"
       cy="615.57"
       rx="4.25"
       ry="7.17"
       id="ellipse291" />
    <path
       class="WuOLVCbDiS"
       d="M117.52,727.09a18.63,18.63,0,0,0-1.23-3.17c-1.06-2.23-3.14-6.61-7.4-9-4.57-2.53-9.36-1.49-12.14-.88-2.59.57-7.54,1.65-10.92,6.16a15.59,15.59,0,0,0-3,8.8c-.29,10.08,9.78,16.36,10.39,16.73-1.31.08-3.2.24-5.46.52a55.52,55.52,0,0,0-8.63,1.59c-4.2,1.2-3.86,1.85-6.16,2.11a15.25,15.25,0,0,1-8.8-2.11,20.68,20.68,0,0,1-7.39-6.51c-.74,3-2.91,13.49,2.69,24.09,7.48,14.13,22.69,16.95,26.3,17.61,5.26,1,17.5,3.25,26.75-4.92,1.47-1.3,10.09-8.49,8.61-18.81-1.07-7.56-6.86-12-8.29-13a2.25,2.25,0,0,1-.5-1.64c.17-1.11,1.46-1.72,1.92-2C117.75,740.66,119.1,732.9,117.52,727.09Z"
       id="path293" />
  </g>
  <g
     id="clouds">
    <path
       class="eWOToAEdiT"
       d="M1102.83,72.89a19.49,19.49,0,0,0,0-12.49c-3.83-10.3-16.1-12.12-17.52-12.49a24.78,24.78,0,0,0-25,12.49c-.37.7-1,4.64-2.52,12.49v2.52a10.4,10.4,0,0,0-2.52-2.52c-6.08-4.12-15.19-.54-20,2.52a23.83,23.83,0,0,0-10,12.49,24.53,24.53,0,0,0,0,15,32.33,32.33,0,0,0,12.51,17.5h112.55a36.22,36.22,0,0,1-7.5-7.49,26.76,26.76,0,0,1-5-10c-1.33-5.79,1-7.12,0-12.49a22.1,22.1,0,0,0-7.49-12.48c-4.86-3.92-10.27-4.37-17.52-5A59.87,59.87,0,0,0,1102.83,72.89Z"
       id="path296" />
    <path
       class="eWOToAEdiT"
       d="M1135.92,351.77a12.08,12.08,0,0,0,0-7.79c-2.38-6.43-10-7.56-10.92-7.79a15.46,15.46,0,0,0-15.59,7.79c-.22.44-.64,2.89-1.57,7.79v1.57a6.5,6.5,0,0,0-1.57-1.57c-3.79-2.57-9.47-.34-12.48,1.57a14.87,14.87,0,0,0-6.23,7.79,15.47,15.47,0,0,0,0,9.33,20.21,20.21,0,0,0,7.8,10.91h70.19a22.28,22.28,0,0,1-4.68-4.67,16.56,16.56,0,0,1-3.1-6.24c-.83-3.61.59-4.44,0-7.78a13.78,13.78,0,0,0-4.68-7.79c-3-2.44-6.4-2.72-10.92-3.12A38.36,38.36,0,0,0,1135.92,351.77Z"
       id="path298" />
    <path
       class="eWOToAEdiT"
       d="M620.35,195a12.08,12.08,0,0,0,0-7.79c-2.38-6.43-10-7.56-10.92-7.79a15.43,15.43,0,0,0-15.58,7.79c-.23.44-.65,2.89-1.57,7.79v1.57A6.37,6.37,0,0,0,590.7,195c-3.78-2.57-9.46-.34-12.47,1.57a14.87,14.87,0,0,0-6.23,7.79,15.32,15.32,0,0,0,0,9.33,20.16,20.16,0,0,0,7.8,10.91H650a22.23,22.23,0,0,1-4.67-4.67,16.43,16.43,0,0,1-3.11-6.24c-.83-3.61.59-4.44,0-7.78a13.77,13.77,0,0,0-4.67-7.79c-3-2.44-6.4-2.72-10.93-3.12A38.36,38.36,0,0,0,620.35,195Z"
       id="path300" />
    <path
       class="eWOToAEdiT"
       d="M901.48,213.59a12.08,12.08,0,0,0,0-7.79c-2.39-6.43-10-7.56-10.93-7.79A15.46,15.46,0,0,0,875,205.8c-.23.43-.64,2.89-1.57,7.79v1.56a6.29,6.29,0,0,0-1.57-1.56c-3.79-2.58-9.47-.34-12.48,1.56a14.94,14.94,0,0,0-6.23,7.79,15.35,15.35,0,0,0,0,9.34,20.16,20.16,0,0,0,7.8,10.91h70.19a22.52,22.52,0,0,1-4.68-4.67,16.63,16.63,0,0,1-3.1-6.24c-.84-3.61.58-4.44,0-7.79a13.81,13.81,0,0,0-4.68-7.78c-3-2.44-6.4-2.73-10.92-3.12A36.24,36.24,0,0,0,901.48,213.59Z"
       id="path302" />
    <path
       class="eWOToAEdiT"
       d="M855.62,397.94a12.08,12.08,0,0,0,0-7.79c-2.38-6.42-10-7.56-10.92-7.78a15.45,15.45,0,0,0-15.58,7.78c-.23.44-.65,2.9-1.58,7.79v1.57a6.33,6.33,0,0,0-1.57-1.57c-3.78-2.57-9.46-.34-12.47,1.57a14.94,14.94,0,0,0-6.23,7.79,15.35,15.35,0,0,0,0,9.34,20.17,20.17,0,0,0,7.8,10.9h70.18a22.19,22.19,0,0,1-4.67-4.66,16.58,16.58,0,0,1-3.11-6.24c-.83-3.61.59-4.44,0-7.79a13.8,13.8,0,0,0-4.67-7.79c-3-2.44-6.4-2.72-10.93-3.12A38.36,38.36,0,0,0,855.62,397.94Z"
       id="path304" />
    <path
       class="eWOToAEdiT"
       d="M438.65,49.92a12.08,12.08,0,0,0,0-7.79c-2.39-6.43-10-7.56-10.93-7.79a15.46,15.46,0,0,0-15.58,7.79c-.23.43-.64,2.89-1.57,7.79v1.57A6.17,6.17,0,0,0,409,49.92c-3.79-2.57-9.47-.34-12.48,1.57a14.88,14.88,0,0,0-6.23,7.78,15.35,15.35,0,0,0,0,9.34,20.16,20.16,0,0,0,7.8,10.91h70.19a22.52,22.52,0,0,1-4.68-4.67,16.63,16.63,0,0,1-3.1-6.24c-.84-3.61.58-4.44,0-7.79A13.85,13.85,0,0,0,455.82,53c-3-2.44-6.4-2.73-10.92-3.12A36.24,36.24,0,0,0,438.65,49.92Z"
       id="path306" />
    <path
       class="eWOToAEdiT"
       d="M775.6,34.68a12.08,12.08,0,0,0,0-7.79c-2.38-6.43-10-7.56-10.92-7.79a15.46,15.46,0,0,0-15.59,7.79c-.22.43-.64,2.89-1.57,7.79v1.57A6.33,6.33,0,0,0,746,34.68c-3.79-2.57-9.47-.34-12.48,1.57A14.8,14.8,0,0,0,727.25,44a15.32,15.32,0,0,0,0,9.33,20.11,20.11,0,0,0,7.8,10.91h70.18a22.47,22.47,0,0,1-4.67-4.67,16.43,16.43,0,0,1-3.11-6.24c-.83-3.61.59-4.44,0-7.78a13.73,13.73,0,0,0-4.68-7.79c-3-2.44-6.4-2.73-10.92-3.12A36.24,36.24,0,0,0,775.6,34.68Z"
       id="path308" />
    <path
       class="eWOToAEdiT"
       d="M297.18,193.18a12.08,12.08,0,0,0,0-7.79c-2.38-6.43-10-7.56-10.92-7.79a15.43,15.43,0,0,0-15.58,7.79c-.23.44-.65,2.89-1.58,7.79v1.57a6.33,6.33,0,0,0-1.57-1.57c-3.78-2.57-9.46-.34-12.47,1.57a14.87,14.87,0,0,0-6.23,7.79,15.32,15.32,0,0,0,0,9.33,20.16,20.16,0,0,0,7.8,10.91h70.18a22.23,22.23,0,0,1-4.67-4.67,16.43,16.43,0,0,1-3.11-6.24c-.83-3.61.59-4.44,0-7.78a13.77,13.77,0,0,0-4.67-7.79c-3-2.44-6.4-2.72-10.93-3.12A38.36,38.36,0,0,0,297.18,193.18Z"
       id="path310" />
    <path
       class="eWOToAEdiT"
       d="M30.45,219.15a12.08,12.08,0,0,0,0-7.79c-2.38-6.42-10-7.56-10.92-7.79A15.48,15.48,0,0,0,4,211.36c-.23.44-.65,2.89-1.57,7.79v1.57A6.37,6.37,0,0,0,.8,219.15c-3.78-2.57-9.46-.34-12.47,1.57a14.87,14.87,0,0,0-6.23,7.79,15.35,15.35,0,0,0,0,9.34,20.17,20.17,0,0,0,7.8,10.9H60.08a22.23,22.23,0,0,1-4.67-4.67,16.46,16.46,0,0,1-3.11-6.23c-.83-3.61.59-4.45,0-7.79a13.77,13.77,0,0,0-4.67-7.79c-3-2.44-6.4-2.72-10.93-3.12A38.36,38.36,0,0,0,30.45,219.15Z"
       id="path312" />
    <path
       class="eWOToAEdiT"
       d="M1165.64,719.15a15.13,15.13,0,0,0,0-9.68c-3-8-12.48-9.4-13.58-9.68a19.18,19.18,0,0,0-19.37,9.68c-.29.54-.8,3.6-2,9.68v2a7.85,7.85,0,0,0-2-2c-4.71-3.19-11.77-.42-15.51,2a18.54,18.54,0,0,0-7.74,9.69,19,19,0,0,0,0,11.6,25,25,0,0,0,9.69,13.56h87.25a27.78,27.78,0,0,1-5.81-5.8,20.59,20.59,0,0,1-3.86-7.76c-1-4.48.73-5.52,0-9.68A17.18,17.18,0,0,0,1187,723c-3.77-3-8-3.38-13.58-3.88A48,48,0,0,0,1165.64,719.15Z"
       id="path314" />
    <path
       class="eWOToAEdiT"
       d="M1039.27,455.92a9.29,9.29,0,0,0,0-5.94c-1.82-4.91-7.67-5.78-8.35-6a11.81,11.81,0,0,0-11.9,6c-.17.33-.49,2.2-1.2,5.94v1.2a4.89,4.89,0,0,0-1.2-1.2c-2.89-2-7.23-.26-9.53,1.2a11.43,11.43,0,0,0-4.76,5.95,11.73,11.73,0,0,0,0,7.13,15.37,15.37,0,0,0,6,8.33h53.61a16.74,16.74,0,0,1-3.57-3.56,12.82,12.82,0,0,1-2.38-4.77c-.63-2.75.45-3.39,0-5.95a10.5,10.5,0,0,0-3.57-5.94c-2.31-1.87-4.89-2.08-8.34-2.39A29.22,29.22,0,0,0,1039.27,455.92Z"
       id="path316" />
    <path
       class="eWOToAEdiT"
       d="M606.63,326.7a12.08,12.08,0,0,0,0-7.79c-2.39-6.43-10-7.56-10.93-7.79a15.5,15.5,0,0,0-15.58,7.79c-.23.44-.64,2.89-1.57,7.79v1.57A6.5,6.5,0,0,0,577,326.7c-3.79-2.57-9.47-.34-12.48,1.57a14.87,14.87,0,0,0-6.23,7.79,15.35,15.35,0,0,0,0,9.34,20.17,20.17,0,0,0,7.8,10.9h70.19a22.28,22.28,0,0,1-4.68-4.67,16.59,16.59,0,0,1-3.1-6.23c-.84-3.61.58-4.45,0-7.79a13.84,13.84,0,0,0-4.68-7.79c-3-2.44-6.4-2.72-10.92-3.12A38.36,38.36,0,0,0,606.63,326.7Z"
       id="path318" />
  </g>
  <g
     id="реплики">
    <g
       id="window2">
      <rect
         class="qXiQkrzsOK"
         x="587.83002"
         y="381.10001"
         width="433.42001"
         height="148.98"
         id="rect321" />
      <text
         class="iZKpirzIcH"
         transform="translate(607.13,413.47)"
         id="text331">Привет.<tspan
   x="0"
   y="24"
   id="tspan323">Ты не поверишь, но мои друзья</tspan><tspan
   x="0"
   y="48"
   id="tspan325">опять наелись летучих цветов.</tspan><tspan
   x="0"
   y="72"
   id="tspan327">Буду благодарен, если ты поможешь</tspan><tspan
   x="0"
   y="96"
   id="tspan329">возвратить их на землю.</tspan></text>
      <line
         class="aWEhuFKsuy"
         x1="995.97998"
         y1="406.35999"
         x2="1011.15"
         y2="391.20001"
         id="line333" />
      <line
         class="aWEhuFKsuy"
         x1="1011.15"
         y1="406.35999"
         x2="995.97998"
         y2="391.20001"
         id="line335" />
    </g>
    <rect
       style="fill:#0000ff;fill-rule:evenodd;opacity:0"
       id="rect354"
       width="15.170044"
       height="15.159973"
       x="995.97998"
       y="391.20001"
       onclick="closeWindow('window2')"
       class="button" />
  </g>
</svg>
