<?xml version="1.0" encoding="UTF-8" standalone="no"?>
<svg
   xmlns:dc="http://purl.org/dc/elements/1.1/"
   xmlns:cc="http://creativecommons.org/ns#"
   xmlns:rdf="http://www.w3.org/1999/02/22-rdf-syntax-ns#"
   xmlns:svg="http://www.w3.org/2000/svg"
   xmlns="http://www.w3.org/2000/svg"
   viewBox="0 0 1280 720"
   version="1.1"
   id="svg346">
  <metadata
     id="metadata350">
    <rdf:RDF>
      <cc:Work
         rdf:about="">
        <dc:format>image/svg+xml</dc:format>
        <dc:type
           rdf:resource="http://purl.org/dc/dcmitype/StillImage" />
        <dc:title></dc:title>
      </cc:Work>
    </rdf:RDF>
  </metadata>
  <defs
     id="defs4">
    <style
       id="style2">.QOMFeByXXW{fill:#f7efe2;}.GTTiGfgWxo,.qgSWcEJJqG{fill:none;}.GTTiGfgWxo,.qgSWcEJJqG,.jFlCgpKZZb{stroke:#00ffa9;}.GTTiGfgWxo,.qgSWcEJJqG,.jFlCgpKZZb,.PupJunZCPA{stroke-miterlimit:10;}.GTTiGfgWxo{stroke-width:16px;stroke-dasharray:29.94 19.96;}.rYttablgdv{fill:#a8e0a1;}.qxPLhiRhZx{fill:#fff3ae;}.gailwYCZEO{fill:#0097dd;}.Hjcoppjeyk{fill:#ff81e7;}.SJfmXyGCcM{fill:#ff76eb;}.jYMnUAGiaz{fill:#fff;}.PupJunZCPA{stroke:#000;}.gcjYZuRsiN{fill:#d8e5a5;}.HrxdviPGWL{fill:#ff0020;}.umWfsPgBEB{fill:#231f20;}.WYrbJIuPZS{fill:#6dfc6d;}.MlcuRoCAWF,.jFlCgpKZZb{fill:#00ffa9;}.LpaVhoojsp{fill:#754c24;}.JoCHzORjbs{fill:#eb7000;}.YtqfEryRlu{fill:#fdff00;}.dnNmHylUYb{fill:#f0ed00;}.FGmTZLygPV{fill:#6000ff;}.wwwFPIBocR{fill:#ffd400;}.vveCtCGXTY{fill:#f9c6ca;}.qgSWcEJJqG,.jFlCgpKZZb{stroke-width:2px;}</style>
  </defs>
  <g
     id="фон">
    <rect
       class="QOMFeByXXW"
       x="-2572.87"
       y="-23.29"
       width="3863.25"
       height="2193.02"
       id="rect6" />
  </g>
  <g
     id="линии">
    <path
       class="GTTiGfgWxo"
       d="M-34.67,774.31c31.28-31.81,71.17-89.07,127.88-32,88.61,89.12,218,25.83,289.87,85.27,99.76,82.55,199.18,53.06,273.17,45.31,42.85-4.46,151,3.79,209.4,57.36,54.85,50.32,95.4,87.31,194.84,65.23,67.25-14.94,98.82,27.07,121.2,29.23a349.85,349.85,0,0,0,125.2-10"
       id="path9" />
  </g>
  <g
     id="части_ланндш"
     data-name="части ланндш">
    <rect
       class="rYttablgdv"
       x="-125.9"
       y="202.54"
       width="787.84"
       height="493.8"
       rx="50.5"
       id="rect12" />
    <path
       class="qxPLhiRhZx"
       d="M415.72,346.9,687.71,818c18.47,32,64.66,32,83.13,0l272-471.08c18.48-32-4.62-72-41.57-72h-544C420.34,274.9,397.25,314.9,415.72,346.9Z"
       id="path14" />
    <path
       class="gailwYCZEO"
       d="M1328.43,998.58c-29.69,13.68-63.42,1.81-130.86-21.92-18.08-6.36-93.87-34.14-186.27-107.74-77.95-62.09-74.84-82.8-122.35-98.61-66.73-22.21-114.13,4.9-133.31-23.74-17.7-26.42,6.76-73.19,23.74-95,6.34-8.13,35.81-43.77,78.52-45.66,30.5-1.34,38.34-17,45.72-28.66C922,548.14,900.28,508.66,931,467.17c47.34-64.06,292.47-37,405.4,118.7C1441.37,730.62,1412.65,959.78,1328.43,998.58Z"
       id="path16" />
    <path
       class="Hjcoppjeyk"
       d="M433.92,648.88H281a30,30,0,0,0-26,15L178.47,796.36a30,30,0,0,0,0,30L255,958.86a30,30,0,0,0,26,15h153a30,30,0,0,0,26-15l76.48-132.47a30.05,30.05,0,0,0,0-30L459.93,663.89A30,30,0,0,0,433.92,648.88Z"
       id="path18" />
    <path
       class="Hjcoppjeyk"
       d="M140.08,423.25c42.31-39,52.15-43.51,67.59-58.87,42.16-41.94,90.37-129.55,58.87-200.6-15-33.85-49.71-67.6-93.75-76.32a120.28,120.28,0,0,0-45.79,0c23.88-20.68,45.67-25,56.69-26.17,52.56-5.39,109.48,36.89,137.37,106.85a243.85,243.85,0,0,1,19.62-43.61C418.76-11.37,606.6-30.89,656.84-34.65A501.66,501.66,0,0,0,512.93,61.29c-73.24,69.93-108.13,146-124.28,189.7a76.12,76.12,0,0,0,30.53,15.27c35.42,8.32,75.69-11.14,104.66-48-.34,12.57-3,49.25-30.53,78.49-34.12,36.27-92.45,46.22-146.09,24-17.54,24.22-37.09,49.07-58.87,74.13A1083,1083,0,0,1,78.62,580.57q.55-49.17,1.12-98.34C93.31,468.16,113.92,447.38,140.08,423.25Z"
       id="path20" />
  </g>
  <g
     id="Layer_1"
     data-name="Layer 1">
    <path
       class="SJfmXyGCcM"
       d="M1364.23,331.47a65.49,65.49,0,0,0-13.23-7.38,96.67,96.67,0,0,1,5.08,24.58c.94,18.26,1,33.19.91,43.45-.39,36.39-3.43,53.25,2.72,78.75a152,152,0,0,0,8.14,24.45c-15.64,3.68-33.66,6.46-37.11,0-2.94-5.51,6.36-14.59,11.78-22.64,26.23-39.07-1.42-110.32-10.87-109.53-6.17.52-11,32.2-10.86,134-11.69,3.18-26.07,5.8-29.87,0-4.13-6.29,6.3-19.39,10.86-26.24,11.71-17.63,20.93-48.56,7.24-106.82h-68.8A454,454,0,0,0,1242,475.4c1,7.43,2.27,14.69,3.63,21.72-12.7,3.23-27.43,5.65-30.78,0s6.2-16.46,10-21.72c11.48-16.1,16.74-46.91-10-111.34-20.09,59.09-16.57,90.63-9.06,108.62,2.1,5,7.9,17.11,2.72,24.44-6.42,9.06-28,8.43-31.68.91-3-6.09,6.82-14.3,12.67-24.44,14-24.3,1-41.21-3.63-107.71-2.07-29.54-.15-35.26-3.62-66.09-1.36-12.09-3-22.54-6.35-43.45-4.93-31.18-7.42-46.76-11.77-64.26s-8.56-28.93-14.49-47.08c-14.49-44.36-3.62-10.86-14.49-44.36-1.25-3.87-4-10-8.14-11.77-7.07-3.07-18.77,7.27-35.31,14.49-11.85,5.17-23.82,10.4-28.06,6.34-6.24-5.94,5.35-30.8,20.81-46.17,9.82-9.75,19.15-13.65,24.44-15.38,4.14-1.34,9.12-3,14.29-3q-.35-17-.71-34.09l13.58,1.81q-3,13.91-6,27.82c6.06-5.87,16-11.61,28.68-16.06a35.47,35.47,0,0,1-.91,20.81c-2.16,5.83-6.71,13-12.34,17,1.39,3.07,2.44,6,3.3,8.36,9.94,26.82,11,24.6,33.5,68.8,27.19,53.43,46.58,104.09,51.6,123.11a120.67,120.67,0,0,1,38,8.15c21.67,8.52,53.13,20.28,66.09,32.59a48.27,48.27,0,0,1,8.21,10.35c1.19.43,2.37.9,3.56,1.42,26.56,11.45,38.81,37.14,43.45,48.88C1384.13,354.1,1378.7,341.42,1364.23,331.47Z"
       id="path23" />
    <path
       class="jYMnUAGiaz"
       d="M1118.46,58.49c-3-4.6-12.66-4.54-16.17.69a9.13,9.13,0,0,0,.48,10.54,7.6,7.6,0,0,0,3.06,2.36,11.2,11.2,0,0,0,3.08.8,9.56,9.56,0,0,0,4.06-.5C1118.57,70.35,1121.16,62.59,1118.46,58.49Z"
       id="path25" />
    <path
       class="PupJunZCPA"
       d="M1114.19,71.53c.74-2.55-.76-6.08-3.89-8.61s-6.8-3.23-9.13-2c-1,3.7-.65,8.35,3,10.37l.45.29a8.74,8.74,0,0,0,1,.5,6.93,6.93,0,0,0,2.82.77,10.65,10.65,0,0,0,3.72-.33c.37-.1.83-.34,1.17-.43A4.24,4.24,0,0,0,1114.19,71.53Z"
       id="path27" />
    <rect
       class="gailwYCZEO"
       x="-458.73"
       y="243.59"
       width="519.78"
       height="278.95"
       rx="51.48"
       id="rect29" />
    <rect
       class="gcjYZuRsiN"
       x="-588.6"
       y="437.86"
       width="721.8"
       height="279.15"
       rx="67"
       id="rect31" />
    <path
       class="gcjYZuRsiN"
       d="M840.38,199a26.41,26.41,0,0,0-16.26,24.4v22.81a26.37,26.37,0,0,0,26.35,26.34H953.05a26.36,26.36,0,0,1,26.37,26.36V699.29a26.36,26.36,0,0,0,26.36,26.36h267.84A26.37,26.37,0,0,0,1300,699.29V479.88a26.36,26.36,0,0,0-26.37-26.35H1144a26.39,26.39,0,0,1-26.37-26.37V223.38A26.36,26.36,0,0,0,1091.26,197H850.47A26.48,26.48,0,0,0,840.38,199ZM962,201.65c17-.71,34.17-1.42,51.29-1.42C996.16,200.23,979.06,201,962,201.65Z"
       id="path33" />
    <path
       class="HrxdviPGWL"
       d="M1017.53,309.36v5c45.89,2.23,57.64,0,58.12-3,.18-1.13-1-4.1-2-6-1.29-2.4-2.14-2.79-4-6-1.25-2.21-1.88-3.37-2-5-.16-2.2.78-3.76,2-6l.08-.15h.06a9.11,9.11,0,0,0,1.07-.1l.42-.08a4.3,4.3,0,0,0,.92-.17A21.09,21.09,0,0,0,1086,275.33c.67-.55,1.51-1.23,2.71-2.05a53.77,53.77,0,0,1,5-3c3.56-2,4.2-1.92,5-3,1.5-2,1.19-4.56,1-6-.08-.68-.74-6-4-7a5.28,5.28,0,0,0-3,0,12.88,12.88,0,0,0-2,1,13.84,13.84,0,0,1-3,1s-1.38.34-3.29,1a24.19,24.19,0,0,0-7.74-7,21.57,21.57,0,0,0-14-2,22.3,22.3,0,0,0-9,4,60.51,60.51,0,0,1,4,5c-.15,0-3-4.84-7-5-3.15-.14-5.69,2.65-6,3a7.36,7.36,0,0,0-1.67,2.65,7.25,7.25,0,0,0-.39,3.1,7.14,7.14,0,0,0,.94,3,7.26,7.26,0,0,0,2.11,2.3,6.83,6.83,0,0,0,2,1h-.94a13.48,13.48,0,0,0,0,4,13.83,13.83,0,0,0,.94,3.28l-.94-1.27a7.83,7.83,0,0,1-1,5c-1.35,2.14-3.48,2.61-7,4-3.79,1.5-7.14,2.81-10,5-2.71,2.06-4.14,4.39-7,9-3.29,5.35-3.85,8.18-4,10A18.66,18.66,0,0,0,1017.53,309.36Z"
       id="path35" />
    <path
       class="umWfsPgBEB"
       d="M1096.91,257.9a10.16,10.16,0,0,1-2.2-.24,4,4,0,0,1-1.81-1.07,1.86,1.86,0,0,1-.46-.68,1.16,1.16,0,0,1,.52-1.31,2.24,2.24,0,0,1,1.57-.12,13.66,13.66,0,0,1,2.14.77,1.12,1.12,0,0,1,.49.66,1.09,1.09,0,0,1-.75,1.3,1.28,1.28,0,0,1-.84-.1l-.3-.13.26.1a7.78,7.78,0,0,0-1.77-.57h.27a.77.77,0,0,0-.37,0h.18l.26-.11.21-.16.28-.47v-.5l-.11-.26c-.06-.07-.11-.14-.17-.2a5.55,5.55,0,0,0,.49.48l-.21-.16a3.09,3.09,0,0,0,.71.4l-.26-.1a3.49,3.49,0,0,0,.77.2h-.28c.48.06,1,.07,1.45.11a1.1,1.1,0,0,1,.76.31,1,1,0,0,1,.27.54,1.05,1.05,0,0,1-.06.61,1.11,1.11,0,0,1-.39.47,1,1,0,0,1-.58.18Z"
       id="path37" />
    <path
       class="gailwYCZEO"
       d="M964.47,272.85a59,59,0,0,0,4.71-3.78c8.83-7.95,8.18-12.06,15.11-15,14.41-6,32.37,5.48,41.83,18.12,15.5,20.76,10.49,47.9,9.68,52l-52.21,1.33C982.73,306.23,979.86,285.67,964.47,272.85Z"
       id="path39" />
    <path
       class="jYMnUAGiaz"
       d="M989.76,269.94c1.37-3-1.72-7.88-5.5-8a5.49,5.49,0,0,0-5.22,3.61,4.6,4.6,0,0,0-.22,2.3,7.47,7.47,0,0,0,.57,1.83,5.51,5.51,0,0,0,1.56,1.9C983.8,273.79,988.53,272.64,989.76,269.94Z"
       id="path41" />
    <path
       class="PupJunZCPA"
       d="M981.76,271.91c1.54-.43,2.86-2.32,3.15-4.72s-.52-4.49-1.88-5.34c-2.21.66-4.46,2.32-4.28,4.85V267c0,.22,0,.43,0,.65a4.2,4.2,0,0,0,.51,1.68,6.38,6.38,0,0,0,1.36,1.79c.17.15.43.31.58.46A4.4,4.4,0,0,0,981.76,271.91Z"
       id="path43" />
    <path
       class="WYrbJIuPZS"
       d="M978.69,324.75c.16-9.23.57-17.95,1.22-24,0-.3.11-.64.15-1,.93,2.83,2.14,2,.65-2.79,3.21,2.07,3.8.21,1.72-8.62,3.71,6.83,5.11,7.27,5.35-9.06,2.3,15.32,3.42,13.91,5.79,1.07-.14,7.14,1,2.88,2.21-3.28,0,8.22.33,12.17,1.73,10.93,0,2.77,1.07.36,2.66-4.15-1.32,8.08-.72,7.76,1,2.61-.87,4.74-.1,4.41,1.07,3.05.23.75.89.47.55-1.27,1.55,1.24,2.14,1,.75-4.06,2.3,3.95,2.68,3.05,1.07-4.41,2.56,7.1,3.12,7.61,1.39-4.09,2.62,10.75,2.95,9.29,1.75-3.51,1.85,12.57,2.14,13.79,1.07-1.45,1.66,15,1.9,13.48,1.44-1.33,1.07,14.59,1.53,15.84,2.14-.74.46,16.69,1.07,15.54,2.89,1.21-.48,13.9.22,14.56,3.1,4.62-.23,1.56-.41,2.8-.56,3.88-.77,3.66-.92,4.78-.47,3.56,0,.68,0,.77.27.35.12.15.36-.2.73-1-.13,1.56.06,2,.52,1.79.1.22.27.2.51,0-.81,1.07-.44.83.61-.66.2-.26.43-.58.68-1,.34.77.7.92.8.6.22-.58-.34-2.62-1.73-6.72,1.48,2.64,2.67,4.28,3.59,4.68,1.82.77,2.51-3.6,2.72-16.31a104,104,0,0,0,1.78,12.56c.6,2.21,1.21,2.5,2,1a56.07,56.07,0,0,0,2.88-9.31c-.69,5.68-1,9-1.39,8.56-.09-.24-.2-.44-.31-.74a1.53,1.53,0,0,0,.31.74c.75,1.71,1.38,1.81,1.94,0,0,.09.06.1.1.17,1.07,2.76,1.52.18,1.62-8.73-.06,13.32.8,13.21,1.25-.88,1,9.14,1.67,12.14,2.45,9,.23,1.07.56,1.55,1,1.43a.55.55,0,0,0,.24-.07.61.61,0,0,0,.19.26.67.67,0,0,0,.3.13.69.69,0,0,0,.32,0,.73.73,0,0,0,.26-.2c.51.64,1.25-.64,2.3-3.44.1-.28.23-.62.35-1s.33-.81.5-1.27c-.16,4.89.41,4.18,1.07.65,0-.39.16-2.28.32-4.72s.31-5.44.44-9c1.63,21.64,2.95,21.66,8.11,9.74-.07.45-.14.84-.2,1.25-3.77,9.89-3.84,10.38-.31,2-.78,3.88-.87,6.05-.44,7.17a1.36,1.36,0,0,0,.65.8.54.54,0,0,0,.22.23.5.5,0,0,0,.32,0c.41.24,1.07-.23,1.15-2.05-.12,1.7-.34,2.21-.49,2.25l-.16-.13a.13.13,0,0,0,.16.13c.43.3.92,0,.48-2.06,1.13,1.59,1.84,2.14,1.79.91a.31.31,0,0,0,.32-.07c.42.24.77.09,1.07-.59.92.92,1.15-.4.63-4.87v-6.69c2.24,14.26,2.45,14.33.43-.76,3.12,15.26,4,15.38,5-3.88.55,6.55,1.07,10.94.47,12.47.65,1.25,1.16,2.22,1.48,2.86a11.43,11.43,0,0,1-1.34-.6l1,.95-.5-.25c2.52,1.86,4.28,3.12,5.57,4s2,1.32,1.07-1.25c2.14,3.11,2.37,3.21.38-1.49,2.56,4.81,2.85,4.88.54-2.07,3.39,7.22,4.18,7.43,2.45-6.94,2.74,9.47,4.48,13.16,7,11.66h.11a.89.89,0,0,0,1.07.32c.08.4.26.5.53.32.18.67.49.84,1,.42.8-.7,2-2.77,3.73-6-1.87,5-2.72,7.54-2.73,7.49.15.45.47.31,1-.47a2.91,2.91,0,0,0,.12.39c.62,1.91,1.31,1.61,2-1.8.35,3,.49,3.57.53,2,.94,4.1,1.35,2.83,1.22-5.35,1.47,10.7,2.14,10.92,3-.65.38,12.15,1.07,12.44,3,2.26-.36,5.35-.37,8.16,0,8.71s1.14-1.07,2.25-4.7a33.68,33.68,0,0,0-.47,6.42c.31.48.76.15.81-1.31a8.36,8.36,0,0,1,.36.87,1.67,1.67,0,0,1-.23,1.07h0a.29.29,0,0,1-.12.1l-.16-.07.14.07a.45.45,0,0,1-.23.08.65.65,0,0,1-.24,0c.45.29.79.37,1,.21a2.48,2.48,0,0,0,1.3.42c.33.08.52,0,.51-.32a1,1,0,0,0,.18-.23.47.47,0,0,0,.35-.06.49.49,0,0,0,.21-.3,2.48,2.48,0,0,0,.37-1.21c1.37,2.77,1.39,2.58,0-.79a37,37,0,0,0-.59-5.35c4.35,10.93,5.53,11.67,6.22-8.56,1.67,21.75,2.86,22.55,8.68,12.47a51.59,51.59,0,0,0-1.44,7.79c-1.6,2.45-1.61,2.74-.07,1.07a7.48,7.48,0,0,0,.32,2.7,2.09,2.09,0,0,0,.56,1.13,1.4,1.4,0,0,0,.09.29c0,.36,4.55-11.62,6-.22-.88,10.7-.3,21.4-.71,32.09-.87,22.67-7.37,46.43-5,69.1A37.25,37.25,0,0,0,1133,429c15,12.43,33.25,26.32,52.71,28.5,1.07,5.35,1.81,3.79-1.35,3.94-57.44,2.75-136.94-12.63-205.28-22-1.27-28.89,1.47-54.83,0-83.83-.43-8.78-.55-20.14-.37-30.81"
       id="path45" />
    <path
       class="rYttablgdv"
       d="M979.06,654.76c0,27.07-.65,34.91,4.21,54.1a6.42,6.42,0,0,0,.61,1.54v.07a6.58,6.58,0,0,0,1.73,2,6.49,6.49,0,0,0,5.06,1.24,6.41,6.41,0,0,0,2.47-1l304-201.41a6.48,6.48,0,0,0,2-2.08,6.61,6.61,0,0,0,.89-2.73c1.54-17,1.07-34.42-5-42.69-2-3.62-5.81-6.09-9.07-8.49a32.72,32.72,0,0,0-8.5-3c-6-.37-14.4-2.08-21.25-2.08-2.91,0-14.39-.53-18.19-.46-1.16-.15-2.22-.25-2.94-.27A184.6,184.6,0,0,1,1185,441c-5.7-2.14-11.4-2.85-16.39-5-36-13.72-42.31-53.78-45.23-91.48v-1.13c-.29-2.85-.07-5.92-1.33-8.55-2.74-5.64-6-7.49-10-4.81l-128.3,85c-1.72,1.12-5.16,3.2-5.26,5.23-1.27,25.82,1.92,50.28.72,76.23-.72,6.42,2.14,22.78.71,29.2-.71,31.34,3,40.46-.71,69.8v10c0,10.93.62,22.68.71,33.6a4,4,0,0,0,0,.85C980.28,642.92,978.37,652.33,979.06,654.76Z"
       id="path47" />
    <path
       class="WYrbJIuPZS"
       d="M1082.11,534.8a1.21,1.21,0,0,0-.77-1c1.23-.8,1.44-1.42.27-2.55,1.6.19,1.76-.11.65-1.2,1.39.55,1.49.34.57-.69.94.3,1.36.19,1.38-.22a.24.24,0,0,0,.09-.11.19.19,0,0,0,0-.13,1.51,1.51,0,0,0,0-.6c.76.26,1,0,.3-.3.59-.07.94-.17,1-.31s-.22-.29-.85-.51c1.54.06,1.57-.14.25-.86,1.6.46,1.84.42.27-.55,1.8.72,1.78.51.42-.65,1.84,1.2,2,1.07.61-.67,1.43,1.23,1.69,1.26.66-.52.73.74,1.12,1.07,1.3.94s.1-.22,0-.45a1.61,1.61,0,0,0-.2-.7h.19l.07.11h0a.36.36,0,0,1,.06.27.28.28,0,0,1,0,.13h.11l-.07.06h.07l-.06.07h.14l-.25.12.25-.1h0l-.09.06h.1l-.1.06h.06a.43.43,0,0,1-.11.12h-.07a3.21,3.21,0,0,0,.45-.24l-.45.21.45-.21-.26.15.25-.14-.42.27.46-.25-.27.17.22-.13-.22.14h.07l-.21.13.2-.11h0l-.18.12.13-.07-.13.09.19-.11-.19.13.22-.15.13-.07.39-.22.11-.06-.67.46.57-.31-.15.12-.38.24h.08l-.21.14.43-.26-.41.28c1.07-.61,1.58-1,.74-.48.35-.21.43-.28,0-.07l.08-.06c.32-.23.38-.32.25-.28l.1-.08a.92.92,0,0,0,.23-.29l.32-.14c.29-.12.4-.26.24-.45a.59.59,0,0,0-.1-.17h.44s0,0-.08-.11c.12-.09,0-.27-.24-.53.71.21,1.07.26.41-.43.93.45.8.18.26-.44.7.46,1,.58.33-.19.76.61.58.32.11-.24.74.62,1.07.88.32-.1.83.93.59.61,0-.13.63.72.91,1,.21,0,.8,1,.61.6.15-.24.46.57.72.82.33-.06.62.81.6.51.34-.28.46.67.71.86.52-.11.47.78.52.43.5-.25.24.34.43.5.59.3,0,.19.06.24.1.19a.9.9,0,0,0,.15-.36.35.35,0,0,0,.23.16c.17.11.34,0,.57-.25l.08-.09a.79.79,0,0,0,.5-.09h.08l.17-.12c0,.29.41.15,1.18-.21-.57.42-1,.75-.92.57,0,.21,0,.29.18.27,0,.12,0,.13.2,0a1.31,1.31,0,0,0,.62-.17c-.35.25-.33.31,0,.24-.23.17-.22.19.44-.13l-.44.13.48-.33c-.21.39.3.2.3-.28.43,0,.52-.26.35-.65.21-.14.15-.46,0-.85.92.27,1.66.4,1.62-.54,1.3.89,1.82.71,2.14-.8.73.75,1.21.18,1.76-.6.15.41.34.7.62.61.13.47.35.57.73.28.41.41,1,.23.28-.18,1,0,1.58,0,1.76-.21s-.11-.65-1-1.42c2.91,1.21,3.53,1.07,3.88-2.2.9,2.94,1.53,2.79,3.59.93-.39.78-.42,1.14-.21,1.23a.73.73,0,0,0,.52-.1.74.74,0,0,0,.34-.4c.48.42,1.07.3.33-.42,1.68.31,2,0,.9-1.31,1.91,1.07,2.64,1.07,2.76-1.37,1.2,2.31,1.78,2.14,3,.16-.08,1.07.5.43,1.14-.5,0,1.25.17,1.84.9,1.65,0,.43.57.06,1.38-.62-.7,1.22-.38,1.18.49.39-.45.72,0,.68.56.46.13.12.47.08.29-.19.8.19,1.07.16.38-.61,1.2.6,1.39.46.56-.66,1.32,1.07,1.61,1.14.71-.62,1.36,1.62,1.53,1.41.91-.54,1,1.91,1.07,2.14.54-.21.87,2.27,1,2,.75-.21.58,2.21.79,2.4,1.07-.11.24,2.52.56,2.35,1.5.18-.25,2.14.11,2.2,1.6.7a4.53,4.53,0,0,0-.28.59c-.39.56-.48.73-.24.54,0,.11,0,.12.13,0s.2,0,.38-.15c-.06.24,0,.31.27.27a.36.36,0,0,0,.25,0c-.4.16-.22.13.32-.1l.37-.15a.37.37,0,0,0,.2.09.41.41,0,0,0,.22,0c.11-.09-.19-.4-.91-1a6,6,0,0,0,1.87.71c.94.11,1.29-.55,1.41-2.46a7.17,7.17,0,0,0,1,1.89.73.73,0,0,0,.48.28.73.73,0,0,0,.54-.13,6.1,6.1,0,0,0,1.5-1.41c-.37.86-.5,1.36-.73,1.3a.61.61,0,0,1-.16-.12.31.31,0,0,0,.16.12.74.74,0,0,0,1,0c.54.42.78,0,.83-1.32,0,2,.42,2,.65-.13.53,1.38.87,1.84,1.28,1.36a.49.49,0,0,0,.22.18.57.57,0,0,0,.29,0h.14a.8.8,0,0,0,.53,0c.27.09.66-.11,1.2-.52l.18-.14.27-.2c-.08.74.22.64.56.1a4.65,4.65,0,0,1,.16-.72c.08-.36.16-.82.23-1.36.84,3.28,1.53,3.28,4.21,1.47l-.11.19c-1.95,1.5-2,1.58-.15.31-.4.59-.46.91-.23,1.07a.71.71,0,0,0,.34.13.66.66,0,0,0,.28,0,.5.5,0,0,0,.36-.05.49.49,0,0,0,.24-.27c-.07.26-.18.34-.26.34h0c.21,0,.47,0,.25-.31.57.25.95.33.92.14h.17a.62.62,0,0,0,.27,0,.74.74,0,0,0,.26-.1c.48.13.6-.06.33-.73a4.79,4.79,0,0,0,0-1.07c1.17,2.14,1.28,2.14.23-.11,1.61,2.3,2.06,2.32,2.58-.59.29,1,.57,1.65.25,1.89l.76.43-.69-.09.49.15h-.26c1.3.29,2.22.47,2.88.61s1.07.2.54-.18c1.07.47,1.23.47.2-.24,1.33.73,1.48.75.28-.31,1.75,1.07,2.14,1.12,1.26-1.07,1.42,1.43,2.32,2,3.62,1.77a1.45,1.45,0,0,0,.55.05.26.26,0,0,0,.28,0c.1.11.25.13.5.06a9.24,9.24,0,0,0,1.94-.9c-1,.76-1.4,1.14-1.41,1.13a.91.91,0,0,0,.49-.08l.06.07c.32.3.68.24,1.07-.27.19.45.26.55.28.31.48.61.7.42.63-.81.76,1.6,1.07,1.64,1.55-.11.22,1.84.55,1.88,1.58.34-.2.82-.2,1.23,0,1.32s.59-.16,1.15-.71c-.23.59-.3.89-.23,1a.2.2,0,0,0,.13,0,.31.31,0,0,0,.13,0,.31.31,0,0,0,.11-.09.17.17,0,0,0,0-.12l.19.14c0,.09,0,.13-.12.16h-.31a1.06,1.06,0,0,0,.5,0,5.05,5.05,0,0,0,.68.07h.35c.14,0,.24,0,.29-.06a.25.25,0,0,0,.12-.07.41.41,0,0,0,.07-.11c.71.42.72.39,0-.13a1.79,1.79,0,0,0-.31-.8c2.26,1.65,2.87,1.76,3.21-1.3.87,3.3,1.49,3.42,4.49,1.89a3.9,3.9,0,0,0-.75,1.17c-.82.38-.83.42,0,.18a.57.57,0,0,0,0,.22.36.36,0,0,0,.14.18.46.46,0,0,0,.28.17c0,.15.56.24,1.52.35a3.84,3.84,0,0,1-1.52-.35h.11c0,.13.39.22,1.07.28h.49a1.44,1.44,0,0,0,.31-.46,4.51,4.51,0,0,0,.31-1.2c1.17,2.57,1.9,2.77,4.39,1.38-.42.75-.52,1.21-.72,1.07l-.1-.1.1.1c.74.77,1.31.73,1.55-.85-.08,1.92.15,2,.19,0,.56,2.14.91,2.28,1.07-.15.56,2.63.91,2.73,2.24.32-.66,2.62-.32,2.73,1.72,1-1.42,1.72-1.15,1.59.26.14-.82,1.17-.79,1.5.15,1.18-.41.4-.37.41.27,0-.22.56.1.62.76.38-.29.11-.05-.21.2-.72,0,.63.14,1.07.28,1.15s.31-.17.58-1c.19,2,.73,1.85,2.14.57-.77,1.53-.71,1.85.81.66-1.07,1.62-.7,1.7,1,1-1.07,1.07-.63,1.28.38.6-.53.69-.26.85.36.68-.28.09-.24-.17-.19-.79.39.83.79,1.3,1.07,1.29s.49-.48.65-1.6c.7,2.35,1.22,2.07,2.29.2-.33,1.93-.17,2.52,1.87,1.36-1.55,2-1.2,2.23,1.13,1.76-1.38.7-.76.68.38.5-.83.7-.9,1.13,0,1.14-.68.36-.51.58.07,0-.18.58,0,.4.3-.19a2.71,2.71,0,0,0,.11.8c0,.08.1-.1.17-.67.1,1.2.25.84.48-.11,0,1.2.08,1.81.71.27-.17,1.7.22,1.25.9.12-.16,1.07-.18,1.82,1.2.86-1.07,2-.78,2.37,1.5,1.77-1.24,1.07-.51,1.17.6,1.2-.56.3-.93.56-.95.77s.17.58,1,.74l-.56.2c0-.09.08-.17.14-.28-.41.36-.42.39-.14.28-.32.72,0,.89,1.06.59-.6.36-.94.61-.92.7-5.9,0,8.16,7.13,2.24,7.21C1181.38,539.66,1121.54,535.37,1082.11,534.8Z"
       id="path49" />
    <path
       class="MlcuRoCAWF"
       d="M1120.75,491.37c2.79,2.45,5.91,5.19,10.41,5.76,3.88.51,4.73-1.13,15.88-3.1a38.48,38.48,0,0,1,4.78-.57,37.7,37.7,0,0,1,7.73.43c14,2.06,15.27,2,16.88,1.28,3.21-1.47,6.26-5,5.35-7.49s-5.56-2.79-6-2.8c2.48.09,9.81,0,15.29-5.22,3-2.83,6.48-8.22,4.78-11.1-1.93-3.29-9.51-1.41-10.11-3.65-.5-1.85,4.62-3.29,4.92-6.76s-4.34-7-8.31-8.29c-6.52-2.06-12.31,1.9-13.2,2.52,0-.22-.39-3.62-3.1-4.92s-6.13.42-7.59,2.82a6.21,6.21,0,0,0-.86,2.71,9.51,9.51,0,0,0-2.52-4.55,10.29,10.29,0,0,0-8.43-2.66,9.78,9.78,0,0,0-8.15,8.43,9.42,9.42,0,0,0,1.86,6.32,14.36,14.36,0,0,0-5.09-3.63c-3-1.26-8.8-2.52-11.77.54-3.52,3.56-1.17,10.89,1.69,14.9a15.86,15.86,0,0,0,4.51,4.28,12.86,12.86,0,0,0-3.39-.3c-4.78.22-10.61,3.21-11,7.17C1115,486.34,1117.66,488.64,1120.75,491.37Z"
       id="path51" />
    <path
       class="LpaVhoojsp"
       d="M1150.15,486.29h5.7V529h-5.7Z"
       id="path53" />
    <path
       class="MlcuRoCAWF"
       d="M1153.36,490.55c-6.49,0-11.76-4.3-11.76-9.61s5.27-9.62,11.76-9.62,11.76,4.3,11.76,9.62S1159.85,490.55,1153.36,490.55Z"
       id="path55" />
    <path
       class="HrxdviPGWL"
       d="M1276.51,703.57c-16.29-9.87-30-35.16-26.43-55.49,3.08-17.5,17.44-22.46,15.27-32.09-2.27-10.12-20.07-12.66-29.42-12.54-17.65.22-31.68,10.24-38.21,15-18.37,13.45-20.84,24.93-30.62,24.1-11-1-12.84-16-23.87-16.23-8.56-.15-15.31,8.67-24.16,20.18-14,18.27-12.08,26.33-20.67,31-14.33,7.86-29.24-9.32-34.5-1.95-3.74,5.2.78,17.85,4.7,28.89,2.89,8.1,6.32,18.76,8.8,22.94,66.71.89,133.27-2.68,200-1.8,10.2-3.79,21.09-8.71,20.76-12.84S1287.44,710.18,1276.51,703.57Z"
       id="path57" />
    <path
       d="M1139.14,727.77c.21-6,.84-16,1.63-26,1.35-16.75,3.21-21.61,6.42-25.68,5-6.42,11.58-8.47,23.53-12.11,15.47-4.72,29-8.83,34.91-2.84,6.94,7-3.92,20,0,32.77,3.48,11.32,18.76,23.13,67.67,27.81q-6.35,2.41-12.52,4.62C1220.25,730.42,1179.68,726.68,1139.14,727.77Z"
       id="path59" />
    <path
       class="WYrbJIuPZS"
       d="M839,266.94c1.41.15,1.55-.11.57-1,1.22.46,1.31.29.5-.55.83.24,1.2.16,1.22-.18a.16.16,0,0,0,.07-.09.2.2,0,0,0,0-.11,1,1,0,0,0,0-.49c.67.21.88,0,.26-.23.52-.07.83-.14.86-.26s-.19-.23-.75-.42c1.35.07,1.38-.11.22-.68,1.41.36,1.62.33.24-.46,1.57.58,1.55.41.36-.53,1.62,1,1.72.9.53-.55,1.26,1,1.49,1.07.59-.43.63.62,1,.86,1.13.77s.1-.17,0-.37a1.3,1.3,0,0,0-.17-.57h.14l.06.07h0a.57.57,0,0,1,.07.22v.11H845l-.07.07h.12l-.21.09.21-.08h0l-.07.06h0a.48.48,0,0,1-.11.09h-.05a2.82,2.82,0,0,0,.38-.21l-.38.18.4-.18-.22.12.22-.1c-.12.08-.25.15-.38.22l.41-.2-.25.15.2-.11-.2.12h.08l-.2.1.19-.09-.16.09.11,0-.1.06.17-.08-.18.11.2-.13.11-.06.33-.18h.09l-.57.38.49-.25-.13.09-.33.21h.06l-.18.12.39-.22-.37.23c.89-.49,1.39-.79.65-.39.31-.18.38-.23,0-.06.29-.19.34-.26.23-.24L846,261a.87.87,0,0,0,.21-.22l.28-.12c.25-.1.35-.21.21-.38a.31.31,0,0,0-.1-.13h.4s0,0-.09-.08c.11-.08,0-.24-.2-.44.62.17.95.21.36-.34.82.37.71.14.23-.35.61.36.87.47.29-.18.66.51.49.27.08-.19.66.51.94.73.28-.08.74.74.51.49,0-.11.56.58.8.82.18,0,.71.78.55.48.13-.19.41.46.63.65.29-.06.55.67.52.42.3-.22.41.54.62.69.46-.09.41.63.45.33.44-.21.2.28.37.41.51.23,0,.18,0,.21.08.16s.08-.07.14-.28a.2.2,0,0,0,.08.08.21.21,0,0,0,.11,0c.15.11.31,0,.5-.2l.08-.07a.62.62,0,0,0,.42-.08h.13l.15-.08c0,.22.36.1,1.07-.19-.49.36-.83.61-.8.47,0,.18,0,.24.16.23,0,.08,0,.11.18,0a1.5,1.5,0,0,0,.55-.15c-.31.2-.29.25,0,.19-.22.14-.19.15.37-.11l-.37.11.4-.26c-.18.33.26.15.27-.23.39,0,.46-.21.3-.54.19-.1.13-.37,0-.69.81.22,1.46.33,1.44-.44,1.13.73,1.59.58,1.84-.64.63.61,1.07.15,1.53-.49.13.33.29.55.54.5.11.37.31.45.64.21.37.33.88.18.25-.15.83,0,1.39,0,1.54-.17s-.09-.52-.82-1.15c2.54,1,3.09.85,3.4-1.79.78,2.4,1.34,2.28,3.14.76-.34.64-.36.92-.17,1a.79.79,0,0,0,.45-.08.74.74,0,0,0,.29-.34c.43.35,1,.24.3-.34,1.48.25,1.73,0,.78-1.07,1.68.83,2.31.89,2.42-1.07,1.07,1.88,1.56,1.71,2.63.12-.06.88.44.36,1-.4,0,1,.15,1.5.79,1.35,0,.34.5,0,1.21-.52-.6,1-.32,1,.44.32-.4.58,0,.54.49.38.12.09.4.06.24-.15.71.15,1,.13.35-.5,1.07.48,1.22.37.49-.55,1.15.88,1.41.94.63-.5,1.19,1.32,1.34,1.14.79-.44.84,1.55,1,1.7.47-.17.76,1.84.87,1.66.66-.17.51,1.79.7,2,1-.09.21,2.05.49,1.92,1.3.15-.21,1.71.11,1.79,1.41.57-.1.19-.18.34-.24.48-.35.45-.42.59-.23.43,0,.08,0,.09.12,0s.17,0,.33-.12c0,.19,0,.26.25.22a.28.28,0,0,0,.22,0c-.36.14-.2.11.28-.07l.31-.12c.16.09.32.11.37.06s-.15-.32-.8-.82a5.73,5.73,0,0,0,1.64.58c.84.09,1.14-.44,1.23-2a5,5,0,0,0,.85,1.54.71.71,0,0,0,.42.23.73.73,0,0,0,.48-.1,5.7,5.7,0,0,0,1.35-1.24c-.31.69-.43,1.07-.63,1.07l-.14-.09a.42.42,0,0,0,.14.09.73.73,0,0,0,.45.16.7.7,0,0,0,.44-.16c.48.34.7,0,.74-1.07,0,1.63.36,1.62.58-.11.46,1.07.76,1.5,1.07,1.07a.43.43,0,0,0,.2.15.57.57,0,0,0,.26,0h.13a.9.9,0,0,0,.46,0c.23.07.57-.07,1.07-.42L897,250l.23-.15c-.07.6.18.52.48.08a5.66,5.66,0,0,1,.15-.59,9.63,9.63,0,0,0,.21-1.07c.73,2.67,1.33,2.67,3.68,1.19a.86.86,0,0,1-.1.16c-1.71,1.22-1.74,1.27-.14.25-.35.48-.4.74-.2.88a.54.54,0,0,0,.3.1.45.45,0,0,0,.23,0c.2,0,.47,0,.54-.26-.06.22-.15.28-.23.28.2,0,.42,0,.23-.26.5.21.82.28.8.12a.2.2,0,0,0,.15,0,.67.67,0,0,0,.48-.06c.42.1.53-.06.29-.6a3.84,3.84,0,0,0,0-.83c1,1.76,1.07,1.77.19-.08,1.41,1.87,1.81,1.89,2.26-.48.26.8.51,1.35.21,1.53l.68.35-.61-.07.43.11h-.22l2.52.5c.57.1.94.16.47-.15.95.38,1.07.39.18-.19,1.15.59,1.28.6.25-.25,1.52.89,1.89.91,1.06-.86,1.26,1.17,2.05,1.62,3.21,1.43a1.06,1.06,0,0,0,.5,0c0,.06.11.07.23,0s.23.1.45,0a9.33,9.33,0,0,0,1.69-.72l-1.24.92c.07.05.21,0,.44-.07v.06c.29.23.6.2.92-.23.16.37.22.45.25.26.42.5.61.34.55-.66.67,1.3,1,1.34,1.36-.09.17,1.5.47,1.53,1.37.28-.16.66-.17,1,0,1.07s.52-.13,1.07-.58c-.21.49-.28.72-.21.78s.34,0,.36-.15l.17.11a.11.11,0,0,1,0,.08.14.14,0,0,1-.08,0h-.23a1.62,1.62,0,0,0,.44,0,5.8,5.8,0,0,0,.59,0h.31a.53.53,0,0,0,.25,0,.28.28,0,0,0,.17-.15c.62.34.64.31,0-.1a1.31,1.31,0,0,0-.26-.66c2,1.33,2.51,1.43,2.83-1.07.75,2.67,1.3,2.78,3.94,1.54a2.89,2.89,0,0,0-.66,1c-.72.3-.73.33,0,.13a.32.32,0,0,0,0,.19.31.31,0,0,0,.12.14.44.44,0,0,0,.25.14c0,.13.48.19,1.33.28a3.37,3.37,0,0,1-1.33-.28h.1c0,.11.34.17.9.23h.43a1.26,1.26,0,0,0,.27-.38,3.34,3.34,0,0,0,.27-1c1.07,2.08,1.67,2.25,3.86,1.12-.37.61-.47,1-.64.9l-.08-.09.08.09c.66.62,1.15.59,1.37-.71-.09,1.58.13,1.63.15,0,.5,1.77.8,1.85.9-.11.5,2.13.8,2.21,2,.25-.57,2.14-.28,2.23,1.5.82-1.25,1.39-1,1.28.23.11-.73.93-.71,1.21.13.95-.36.33-.32.33.23,0-.19.47.08.52.67.33-.26.08,0-.18.18-.6,0,.52.12.87.24.94s.27-.14.51-.77c.17,1.58.64,1.51,1.84.46-.68,1.24-.62,1.51.72.53-1,1.32-.62,1.38.84.83-.95.87-.54,1.07.34.49-.48.56-.22.68.32.54-.25.07-.22-.13-.17-.64.33.69.69,1.07,1,1.07s.42-.39.56-1.3c.62,1.9,1.07,1.69,2,.17-.3,1.56-.15,2,1.64,1.07-1.35,1.61-1.07,1.82,1,1.43-1.21.57-.68.55.33.41-.73.57-.79.92,0,.93-.61.29-.46.47,0,0-.16.47,0,.32.25-.16a2.05,2.05,0,0,0,.1.65c0,.07.09-.08.15-.53.09,1,.22.68.42-.1,0,1,.07,1.47.63.22-.15,1.37.18,1.07.78.1-.14.89-.16,1.48,1.07.7-.95,1.63-.69,1.92,1.3,1.44-1.07.86-.44.94.54,1-.49.25-.82.46-.85.64s.16.47.89.6l-.5.17c0-.08.07-.14.12-.23-.37.3-.38.32-.12.23-.27.57,0,.71,1,.47-.53.3-.82.49-.81.56-3.74,0,1.65,3,3,4.73-10.7,0-21.39.39-32.17.78-4.39-.13-8.94-.15-13.57-.13-5.1-.17-10.2,0-15.29.17-4.21,0-8.42.1-12.59.11-1.14,0-2.31-.07-3.46-.15,1.15.08,2.32.13,3.46.15-4.55,0-9.07,0-13.43-.15-24.22-.7-24.82-3-35.66-3.13,0-.31-.21-.57-.68-.79C839.8,268.35,840,267.85,839,266.94Z"
       id="path61" />
    <path
       class="PupJunZCPA"
       d="M952,233.71v38.51h-3.58V233.71Z"
       id="path63" />
    <path
       class="PupJunZCPA"
       d="M945.29,231.67v40.52h-3.57V231.67Z"
       id="path65" />
    <path
       class="PupJunZCPA"
       d="M938.62,229.65v42.66l-3.58.09V229.61Z"
       id="path67" />
    <path
       class="PupJunZCPA"
       d="M931.94,227.62v44.93l-3.58.14V227.61h3.58Z"
       id="path69" />
    <path
       class="PupJunZCPA"
       d="M925.26,225.59v47.19l-3.58.15V225.59Z"
       id="path71" />
    <path
       class="PupJunZCPA"
       d="M918.54,223.55V272.9c-1.19-.07-2.38-.12-3.57-.14V223.54Z"
       id="path73" />
    <path
       class="PupJunZCPA"
       d="M911.89,272.74h-3.58V221.53h3.58Z"
       id="path75" />
    <path
       class="PupJunZCPA"
       d="M905.2,272.84l-3.58.11V220.61l3.58.19Z"
       id="path77" />
    <path
       class="PupJunZCPA"
       d="M848.14,233.71v38.51h3.59V233.71Z"
       id="path79" />
    <path
       class="PupJunZCPA"
       d="M854.83,231.67v40.52h3.57V231.67Z"
       id="path81" />
    <path
       class="PupJunZCPA"
       d="M861.52,229.65v42.66l3.57.09V229.61Z"
       id="path83" />
    <path
       class="PupJunZCPA"
       d="M868.2,227.62v44.93l3.58.14V227.61H868.2Z"
       id="path85" />
    <path
       class="PupJunZCPA"
       d="M874.88,225.59v47.19l3.58.15V225.59Z"
       id="path87" />
    <path
       class="PupJunZCPA"
       d="M881.57,273V223.55h3.57V273Z"
       id="path89" />
    <path
       class="PupJunZCPA"
       d="M891.79,273.13c-1.18,0-2.38,0-3.57-.05V221.53h3.57Z"
       id="path91" />
    <path
       class="PupJunZCPA"
       d="M898.51,273c-1.19,0-2.38.06-3.57.08V220.4c1.19,0,2.38,0,3.57.08Z"
       id="path93" />
    <path
       class="jYMnUAGiaz"
       d="M1065.6,262.28c-1.38-3,1.71-7.88,5.5-8a5.46,5.46,0,0,1,5.21,3.61,4.49,4.49,0,0,1,.22,2.3A6.59,6.59,0,0,1,1076,262a5.37,5.37,0,0,1-1.55,1.9C1071.6,266.07,1066.82,264.92,1065.6,262.28Z"
       id="path95" />
    <path
       class="PupJunZCPA"
       d="M1073.6,264.21c-1.54-.43-2.87-2.32-3.16-4.72s.52-4.48,1.88-5.29c2.21.65,4.46,2.32,4.28,4.84v.32c0,.22,0,.43,0,.65a3.79,3.79,0,0,1-.51,1.67,6.15,6.15,0,0,1-1.36,1.8c-.17.16-.43.31-.58.46A5.6,5.6,0,0,1,1073.6,264.21Z"
       id="path97" />
    <path
       class="MlcuRoCAWF"
       d="M1108.54,498.73c2.82-3.89,6.74-5.59,9-4.47,2.81,1.4,2.84,7.28.73,10.82-2.28,3.81-6.94,4.74-11.77,5.71a21.3,21.3,0,0,1-8.56.4c-2.54-.45-7.77-1.37-10.51-6-2.62-4.38-1.15-9.14-.9-10,1.38-4.49,5.61-9.63,8.89-8.71,2.39.71,3.93,4.58,3.91,9.2a4.86,4.86,0,0,1,3.49-4c2.45-.57,4.63,1.4,5.45,3.21A5.68,5.68,0,0,1,1108.54,498.73Z"
       id="path99" />
    <path
       class="LpaVhoojsp"
       d="M1100.77,506.84H1103v22.54h-2.25Z"
       id="path101" />
    <path
       class="MlcuRoCAWF"
       d="M1102.09,509.85c-2.39,0-4.32-1.59-4.32-3.57s1.93-3.57,4.32-3.57,4.32,1.6,4.32,3.57S1104.48,509.85,1102.09,509.85Z"
       id="path103" />
    <path
       class="MlcuRoCAWF"
       d="M1211.25,500.76c2.82-3.89,6.74-5.58,9-4.47,2.82,1.4,2.85,7.27.74,10.82-2.28,3.8-7,4.75-11.77,5.71a21.48,21.48,0,0,1-8.56.39c-2.55-.43-7.78-1.35-10.51-5.94-2.62-4.39-1.16-9.15-.9-10,1.37-4.48,5.6-9.63,8.88-8.7,2.4.71,3.93,4.58,3.91,9.19a4.89,4.89,0,0,1,3.5-4c2.44-.55,4.63,1.42,5.44,3.21A5.72,5.72,0,0,1,1211.25,500.76Z"
       id="path105" />
    <path
       class="MlcuRoCAWF"
       d="M1204.79,511.91c-2.39,0-4.32-1.6-4.32-3.57s1.93-3.58,4.32-3.58,4.32,1.6,4.32,3.58S1207.18,511.91,1204.79,511.91Z"
       id="path107" />
    <path
       class="JoCHzORjbs"
       d="M960.51,503.48c1-1.45,9.44-10.88,29.84-12.69,10.63-.93,12.93-.64,21,1.74a39.48,39.48,0,0,1,13.58,7.77c.29.24,1.39,1.18,2,.85s.49-1.15.44-1.79a54,54,0,0,1-.07-8.72c.37-3.52,1.07-3.83,1.26-3.89.77-.24,1.78.71,2.31,1.48a4.67,4.67,0,0,1,.69,2.57c0,5.35-1.07,7.54.2,9.91a4.34,4.34,0,0,0,1.69,1.81,3.62,3.62,0,0,0,2.71.39c.27-.07,1.28-.43,2.35-2.35a13.53,13.53,0,0,0,1.43-6c.17-3.08-.32-3.92.47-5.64.16-.34,1.07-2.32,2.32-2.28a1.82,1.82,0,0,1,.72.25,2,2,0,0,1,.56.53c1.24,1.51.57,3.66,0,7.81-.17,1.21-.38,3-.52,5.11a23.4,23.4,0,0,1,3-1.06,37,37,0,0,1,14.74-1.44,33.8,33.8,0,0,1,12.94,3.85c1.84,1.07,4.76,2.67,4.48,3.89-.36,1.63-6.05,1.63-11.21,1.66a172.75,172.75,0,0,1-17.76-1.24l-7.2-.72c-.23.36-.44.72-.66,1.07,1.84,3.37,1.93,5.88,1.44,7.73-.58,2.14-.7,1.5-2,4.55-.1.23-1.17,1.36-1.26,1.59.09.39.19.78.32,1.2,6.1,31.32,30.93,55.24,40.4,85.59.3,1,.6,2,.87,3a44.68,44.68,0,0,1-3.78,7h-72.2a144.09,144.09,0,0,1-1.35-37.22c1.78-19,6.88-32.56,11.22-43.86,4.93-12.84,9.63-21.13,11-20.68a25.7,25.7,0,0,0,.11-8.92,7.94,7.94,0,0,0-.18-.95c-1.07-2.95-55.86,4.28-63.13,2.25-.8-.24-3-.82-3.31-2.26A2.62,2.62,0,0,1,960.51,503.48Z"
       id="path109" />
    <path
       class="jYMnUAGiaz"
       d="M1028.74,508.26a1.91,1.91,0,0,1,.47-.72,2.08,2.08,0,0,1,.73-.47,2.06,2.06,0,0,1,1.68.12,1.75,1.75,0,0,1,.65.82,1.72,1.72,0,0,1,0,1.05,1.78,1.78,0,0,1-.35.65,2.15,2.15,0,0,1-.48.36,1.79,1.79,0,0,1-.75.21,1.89,1.89,0,0,1-.78-.14,2,2,0,0,1-1.08-1.1A2.06,2.06,0,0,1,1028.74,508.26Z"
       id="path111" />
    <path
       d="M1030.42,510.22a1.67,1.67,0,0,1,0-1.79,1.76,1.76,0,0,1,1.44-1.07,1.63,1.63,0,0,1,.48,1,1.61,1.61,0,0,1-.23,1.07l-.06.08c0,.06-.09.11-.13.16a1.16,1.16,0,0,1-.43.33,2,2,0,0,1-.68.23h-.39Z"
       id="path113" />
    <path
       class="jYMnUAGiaz"
       d="M1035,508.53a2.19,2.19,0,0,1,.47-.72,2.15,2.15,0,0,1,.73-.46,2,2,0,0,1,1.68.11,1.78,1.78,0,0,1,.65.83,1.71,1.71,0,0,1,0,1,1.41,1.41,0,0,1-.35.63,2.23,2.23,0,0,1-.48.38,2,2,0,0,1-.75.21,1.75,1.75,0,0,1-.78-.15,2,2,0,0,1-1.08-1.1A2.1,2.1,0,0,1,1035,508.53Z"
       id="path115" />
    <path
       d="M1036.74,510.5a1.73,1.73,0,0,1,0-1.79,1.8,1.8,0,0,1,.57-.74,1.76,1.76,0,0,1,.88-.33,1.74,1.74,0,0,1,.47,1,1.64,1.64,0,0,1-.24,1.06l-.05.09-.13.15a1.22,1.22,0,0,1-.44.34,2.31,2.31,0,0,1-.67.23h-.39Z"
       id="path117" />
    <path
       class="JoCHzORjbs"
       d="M1030.17,404.48c.46-.69,4.48-5.16,14.16-6,5-.45,6.13-.31,10,.82a18.7,18.7,0,0,1,6.42,3.68c.14.12.67.57,1,.41s.24-.55.22-.85a26,26,0,0,1,0-4.14c.18-1.67.49-1.82.6-1.85.37-.11.85.34,1.07.71a2.38,2.38,0,0,1,.33,1.22c0,2.52-.5,3.58.09,4.7a2.14,2.14,0,0,0,.8.86,1.71,1.71,0,0,0,1.29.18c.13,0,.6-.2,1.07-1.07a6.48,6.48,0,0,0,.68-2.83c.08-1.47-.15-1.86.23-2.69.08-.16.51-1.07,1.07-1.07a1.12,1.12,0,0,1,.35.12.92.92,0,0,1,.26.26c.59.71.27,1.73,0,3.7-.07.58-.17,1.41-.25,2.43.35-.14.84-.34,1.43-.53a17.23,17.23,0,0,1,7-.68,16,16,0,0,1,6.15,1.83c.87.49,2.25,1.26,2.14,1.84-.18.78-2.87.78-5.35.79a81.75,81.75,0,0,1-8.43-.59l-3.42-.34-.31.51a4.9,4.9,0,0,1,.68,3.67c-.27,1.07-.33.72-1,2.14,0,.12-.55.65-.59.76s.09.38.15.57c2.89,14.86,14.68,26.22,19.18,40.65.14.47.27.94.4,1.42a20.77,20.77,0,0,1-1.78,3.32h-34.24a68.27,68.27,0,0,1-.64-17.66A72.42,72.42,0,0,1,1056.2,420c2.34-6.09,4.59-10,5.23-9.81a12.07,12.07,0,0,0,0-4.28,2.36,2.36,0,0,0-.08-.45c-.51-1.4-26.51,2-30,1.07-.37-.11-1.42-.39-1.57-1.07a1.2,1.2,0,0,1,.05-.5A1.24,1.24,0,0,1,1030.17,404.48Z"
       id="path119" />
    <path
       class="jYMnUAGiaz"
       d="M1062.53,406.75a1,1,0,0,1,.23-.35,1,1,0,0,1,.34-.22,1,1,0,0,1,.41-.06,1,1,0,0,1,.39.11.87.87,0,0,1,.31.4.9.9,0,0,1,0,.49.69.69,0,0,1-.17.3,1,1,0,0,1-.22.18.88.88,0,0,1-.36.1.89.89,0,0,1-.36-.07,1,1,0,0,1-.52-.52A.89.89,0,0,1,1062.53,406.75Z"
       id="path121" />
    <path
       d="M1063.34,407.69a.83.83,0,0,1,0-.86.9.9,0,0,1,.28-.33.86.86,0,0,1,.41-.16.82.82,0,0,1,.22.47.79.79,0,0,1-.11.5l-.07.08a.78.78,0,0,1-.2.16,1.19,1.19,0,0,1-.32.1h-.21Z"
       id="path123" />
    <path
       class="jYMnUAGiaz"
       d="M1065.53,406.87a.93.93,0,0,1,.57-.57,1.08,1.08,0,0,1,.4-.06,1.14,1.14,0,0,1,.4.11,1,1,0,0,1,.3.39.85.85,0,0,1,0,.5.73.73,0,0,1-.17.31,1.24,1.24,0,0,1-.23.17.89.89,0,0,1-.35.11.93.93,0,0,1-.68-.28,1,1,0,0,1-.21-.32A.88.88,0,0,1,1065.53,406.87Z"
       id="path125" />
    <path
       d="M1066.34,407.8a.82.82,0,0,1-.12-.43.79.79,0,0,1,.12-.42.91.91,0,0,1,.28-.34.85.85,0,0,1,.41-.15.79.79,0,0,1,.11,1l-.06.08a.45.45,0,0,1-.2.16.75.75,0,0,1-.32.1h-.11Z"
       id="path127" />
    <path
       class="LpaVhoojsp"
       d="M1204.56,511.84h2.25v22.54h-2.25Z"
       id="path129" />
    <path
       class="MlcuRoCAWF"
       d="M971.14,134.87c-4.87,4.27-10.3,9-18.16,10-6.77.87-8.23-2-27.68-5.41a63.32,63.32,0,0,0-21.84-.25c-24.41,3.59-26.63,3.53-29.43,2.23-5.5-2.56-10.9-8.73-9.33-13s9.7-4.85,10.52-4.88c-4.34.17-17.13,0-26.68-9.15-5.17-5-11.3-14.36-8.34-19.39,3.38-5.73,16.6-2.45,17.65-6.37.87-3.22-8.07-5.72-8.59-11.79s7.63-12.28,14.49-14.46c11.38-3.57,21.48,3.32,23,4.41,0-.38.67-6.3,5.4-8.58s10.68.72,13.24,4.92A10.61,10.61,0,0,1,907,67.91,16.78,16.78,0,0,1,911.37,60a18,18,0,0,1,14.7-4.65c7.07,1.2,13.54,7.09,14.22,14.71a16.54,16.54,0,0,1-3.25,11,25.15,25.15,0,0,1,8.88-6.35c5.16-2.17,15.35-4.38,20.63,1,6.1,6.21,2,19-2.95,25.94a28,28,0,0,1-7.88,7.41,21.5,21.5,0,0,1,5.93-.53c8.33.36,18.51,5.55,19.1,12.51C981.15,126.08,976.57,130.09,971.14,134.87Z"
       id="path131" />
    <path
       class="LpaVhoojsp"
       d="M919.89,126H910v74.56h9.94Z"
       id="path133" />
    <path
       class="MlcuRoCAWF"
       d="M914.3,133.45c11.32,0,20.5-7.51,20.5-16.78s-9.18-16.78-20.5-16.78-20.51,7.51-20.51,16.78S903,133.45,914.3,133.45Z"
       id="path135" />
    <path
       class="MlcuRoCAWF"
       d="M1051.46,168.57c-2.45,2.15-5.19,4.56-9.14,5.06-3.41.44-4.14-1-13.93-2.72a31.94,31.94,0,0,0-11-.13c-12.28,1.81-13.4,1.78-14.81,1.12-2.77-1.28-5.49-4.39-4.7-6.55s4.89-2.44,5.3-2.46c-2.19.09-8.62,0-13.43-4.6-2.6-2.49-5.68-7.23-4.19-9.76,1.7-2.88,8.35-1.23,8.88-3.2.44-1.62-4.06-2.88-4.32-5.94s3.83-6.18,7.29-7.27c5.73-1.8,10.81,1.67,11.59,2.21,0-.19.34-3.17,2.72-4.31s5.37.36,6.66,2.47a5.35,5.35,0,0,1,.77,2.39,8.4,8.4,0,0,1,2.22-4,9.09,9.09,0,0,1,7.4-2.34,8.61,8.61,0,0,1,7.15,7.4,8.32,8.32,0,0,1-1.63,5.55,12.56,12.56,0,0,1,4.47-3.19c2.59-1.09,7.72-2.21,10.38.48,3.07,3.12,1,9.56-1.49,13.05a13.85,13.85,0,0,1-4,3.73,10.76,10.76,0,0,1,3-.27c4.19.19,9.31,2.8,9.61,6.3C1056.49,164.15,1054.19,166.17,1051.46,168.57Z"
       id="path137" />
    <path
       class="LpaVhoojsp"
       d="M1025.67,164.11h-5v37.51h5Z"
       id="path139" />
    <path
       class="MlcuRoCAWF"
       d="M1022.85,167.86c5.7,0,10.32-3.78,10.32-8.45s-4.62-8.44-10.32-8.44-10.32,3.78-10.32,8.44S1017.15,167.86,1022.85,167.86Z"
       id="path141" />
  </g>
  <g
     id="Layer_2"
     data-name="Layer 2">
    <path
       class="YtqfEryRlu"
       d="M-39.22,159.45H-263.86a40.88,40.88,0,0,0-40.88,40.88v31a40.88,40.88,0,0,0,40.88,40.88H-39.22A40.88,40.88,0,0,0,1.66,231.35v-31A40.88,40.88,0,0,0-39.22,159.45Z"
       id="path144" />
    <path
       class="dnNmHylUYb"
       d="M370.59,834.42A76.39,76.39,0,0,0,361,846l-26.63-4.7c13.61-20.54-6.49-45.72-27.84-33.49a21.41,21.41,0,0,0-6.9,7.32,122,122,0,0,0-60.16-4.25c.17-4.91.17-9.81.17-14.68,20.65-6.84,65.1-31.32,74.32-77.12l8.6,24.49c71.07-34.29,136.1,8.56,120.87,83.37a73.79,73.79,0,0,1-5.63,14.47C422.53,818.6,399.05,805,370.59,834.42Z"
       id="path146" />
    <path
       class="HrxdviPGWL"
       d="M667.41,205.77c2.84,11.62,6.39,23.38,6.65,35.43a1.64,1.64,0,0,1-1.62,1.62,1.62,1.62,0,0,1-1.62-1.62c-.26-11.74-3.75-23.23-6.47-34.57-.49-2,2.62-2.9,3.12-.86Z"
       id="path148" />
    <path
       class="HrxdviPGWL"
       d="M674,241.65c1.94,4.95,3.92,9.89,5.86,14.85a1.68,1.68,0,0,1,0,.63,1.38,1.38,0,0,1-.2.6,1.46,1.46,0,0,1-.41.48,1.52,1.52,0,0,1-.57.28,1.47,1.47,0,0,1-.63.05,1.53,1.53,0,0,1-.59-.2,1.74,1.74,0,0,1-.48-.41,1.71,1.71,0,0,1-.29-.57l-5.85-14.85a1.67,1.67,0,0,1,0-.63,1.85,1.85,0,0,1,.2-.6,1.75,1.75,0,0,1,.42-.48,1.64,1.64,0,0,1,.56-.28,1.5,1.5,0,0,1,.63,0,1.56,1.56,0,0,1,.6.19,1.75,1.75,0,0,1,.48.42A1.73,1.73,0,0,1,674,241.65Z"
       id="path150" />
    <path
       class="HrxdviPGWL"
       d="M674.22,244a45.52,45.52,0,0,1-4.86,16.86c-.93,1.84-3.73.21-2.78-1.62A41.16,41.16,0,0,0,671,244a1.63,1.63,0,0,1,.47-1.14,1.61,1.61,0,0,1,1.14-.47,1.65,1.65,0,0,1,1.15.47,1.63,1.63,0,0,1,.47,1.14Z"
       id="path152" />
    <path
       class="HrxdviPGWL"
       d="M672.19,244.24a107.49,107.49,0,0,1-9.78,10.57,1.62,1.62,0,0,1-1.12.38,1.59,1.59,0,0,1-1.08-.47,1.62,1.62,0,0,1-.08-2.2,109,109,0,0,0,9.7-10.56,1.65,1.65,0,0,1,1.14-.47,1.61,1.61,0,0,1,1.14.47,1.62,1.62,0,0,1,0,2.28Z"
       id="path154" />
    <path
       class="HrxdviPGWL"
       d="M713.64,209.06c2.85,11.61,6.39,23.39,6.67,35.44a1.64,1.64,0,0,1-1.62,1.62,1.62,1.62,0,0,1-1.62-1.62c-.27-11.76-3.77-23.25-6.55-34.59C710,207.89,713.14,207,713.64,209.06Z"
       id="path156" />
    <path
       class="HrxdviPGWL"
       d="M720.32,245l5.86,14.85a1.54,1.54,0,0,1-.16,1.23,1.53,1.53,0,0,1-.41.47,1.76,1.76,0,0,1-.56.29,1.68,1.68,0,0,1-.63,0,1.38,1.38,0,0,1-.6-.2,1.46,1.46,0,0,1-.48-.41,1.52,1.52,0,0,1-.28-.57q-2.91-7.42-5.86-14.85a1.67,1.67,0,0,1-.05-.63,1.85,1.85,0,0,1,.2-.6,1.71,1.71,0,0,1,.42-.47,1.76,1.76,0,0,1,.56-.29,1.68,1.68,0,0,1,.63,0,1.42,1.42,0,0,1,.6.2,1.46,1.46,0,0,1,.48.41A1.52,1.52,0,0,1,720.32,245Z"
       id="path158" />
    <path
       class="HrxdviPGWL"
       d="M720.45,247.27a45.21,45.21,0,0,1-4.85,16.85c-1,1.86-3.75.23-2.8-1.61a41.12,41.12,0,0,0,4.38-15.24,1.62,1.62,0,0,1,1.62-1.62,1.6,1.6,0,0,1,1.62,1.62Z"
       id="path160" />
    <path
       class="HrxdviPGWL"
       d="M718.43,247.53a113,113,0,0,1-9.71,10.58,1.61,1.61,0,0,1-1.14.47,1.63,1.63,0,0,1-1.14-.47A1.69,1.69,0,0,1,706,257a1.6,1.6,0,0,1,.13-.62,1.58,1.58,0,0,1,.35-.53,106.79,106.79,0,0,0,9.71-10.57,1.62,1.62,0,0,1,1.11-.38,1.56,1.56,0,0,1,1.08.47,1.63,1.63,0,0,1,.48,1.08A1.68,1.68,0,0,1,718.43,247.53Z"
       id="path162" />
    <path
       class="FGmTZLygPV"
       d="M597.29,119.37c-6.47-11.32-5.25-23,2.43-33.54,6-8.81,14.14-8.08,24.17-2.5a62.8,62.8,0,0,1,3.31,5.74,94.12,94.12,0,0,1,3.64,15.35,9.72,9.72,0,0,0,6.07,8.49c6.88,2.84,11.71-3.23,12.94-9.3,1.49-5.9.88-11.64.52-17.44a110.4,110.4,0,0,0,.6-12.86c1.62-8.38,4.59-16.89,11.81-21.82,14.67-10.31,32.82-12.85,44.57-26.27,10.8,1.83,29.34,22.24,45.08,49.23a160.39,160.39,0,0,1-25,.37c-9.3-.81-19.41-3.24-26.68-9.71,6.88,8.48,17,13.33,24.27,21.42,12.07,1.8,24.26,3.43,36.45,4.77a237,237,0,0,1,9.7,22.88,95.66,95.66,0,0,1-69.56-23.61c10.52,21.42,21,46.48,43.68,58.6a102.55,102.55,0,0,0,35.38,11.48c.1,14.45-3.24,27.5-11.33,37.66-13.73,17.1-45.76,23.2-77.39,29.22-24.26,4.61-38.82,3.59-51.77,0A106.44,106.44,0,0,1,629.34,224c-1.39-19.75-1.8-38.82-7.17-57.75-2.52-13.67-9.1-24.18-15.07-34.83a20,20,0,0,0-1.31-2.41,6.29,6.29,0,0,0-.6-1.15C601.74,123.82,600.14,122.6,597.29,119.37Z"
       id="path164" />
    <path
       class="JoCHzORjbs"
       d="M591.12,106l7.15-.32-3.4,8.93-.83,2.15A86.77,86.77,0,0,1,591.12,106Z"
       id="path166" />
    <path
       class="JoCHzORjbs"
       d="M588.53,106.35l5.72-7.67,3.79,6.6.23.39a86.45,86.45,0,0,0-8.25,7.52l-7.22.81Z"
       id="path168" />
    <path
       class="jYMnUAGiaz"
       d="M612.71,97.21c.55,3-3.23,6.58-6.65,5.85a5,5,0,0,1-3.81-4.35,4.05,4.05,0,0,1,.3-2.09,6.35,6.35,0,0,1,.93-1.48,5,5,0,0,1,1.79-1.35C608.26,92.47,612.23,94.54,612.71,97.21Z"
       id="path170" />
    <path
       class="PupJunZCPA"
       d="M606.08,93.66a5.84,5.84,0,0,1,1.44,2.22,5.73,5.73,0,0,1,.29,2.63,5.82,5.82,0,0,1-.91,2.48A5.73,5.73,0,0,1,605,102.8c-1.81-1.08-3.43-3-2.73-5.25v-.29c0-.25.13-.31.19-.55a3.55,3.55,0,0,1,.83-1.38A5.59,5.59,0,0,1,604.88,94c.18-.1.47-.18.63-.28A5.67,5.67,0,0,1,606.08,93.66Z"
       id="path172" />
  </g>
  <g
     id="Layer_3"
     data-name="Layer 3">
    <path
       class="JoCHzORjbs"
       d="M694.44,527a16.4,16.4,0,0,1,3.09-7.47l.23-.27h-.15l-5-5c-9.28-9.28-10.85-11-13.38-13.39a88.94,88.94,0,0,0-15.37-11.4,65.92,65.92,0,0,1-3.47-13.64c-.5-3.54-.36-4.78-1.24-6.94-2.21-5.42-7.36-8.1-9.42-9.17-.87-.45-13.74-6.91-24-.25-4.11,2.66-6,6.23-7.68,9.42-2.49,4.71-3.29,8.72-4.47,27-1.1,17.06-.85,20.43-.25,24A64.79,64.79,0,0,0,618,535.64c-1,2.49-2,5.13-3,7.94a118.36,118.36,0,0,0-4.71,19.34,20.43,20.43,0,0,0,5,1.24,20.14,20.14,0,0,0,9.67-1.24,19.45,19.45,0,0,0,8.43-6.7,52.85,52.85,0,0,0,6,4.71,54.77,54.77,0,0,0,8.92,5,19.22,19.22,0,0,0,1,4.46c3.94,11.08,17.28,14.88,20.09,15.62a32.73,32.73,0,0,1,0-5.7,33.86,33.86,0,0,1,1.48-7.44c1.56.11,3.68.22,6.2.25,3.9,0,7.41-.11,10.33-.33,1.38-10.28,2.81-20.54,5-31.06C693.67,536.8,693.67,531.91,694.44,527Z"
       id="path175" />
    <path
       class="Hjcoppjeyk"
       d="M639.94,481.55c.57,0,.8-.48,2.18-2.07,2.26-2.58,3-2.77,3-3.68,0-1.58-1.71-2.49-2.06-2.68a5.82,5.82,0,0,0-5.72,0,3,3,0,0,0-1.18,2.17c0,.52,0,1.08,1.32,3.2S639.31,481.54,639.94,481.55Z"
       id="path177" />
    <path
       class="wwwFPIBocR"
       d="M637,477.82c-1.43-1.78-2.77-3.12-2.81-3.17-1.74-2.31-11.31-9.1-18.59-5.2a10.85,10.85,0,0,0-5.21,6.69c-1.13,5.11,2.68,9.35,3.88,10.68a17.08,17.08,0,0,0,7.52,4.69c2.54.88,6.29,2.19,10.17.75,6.18-2.3,7.79-9.72,7.93-10.42a13.72,13.72,0,0,0,1,6.2c2.78,6.62,9.95,8.28,10.67,8.43a16.05,16.05,0,0,0,10.9-1.73c1.89-1,4.1-2.16,5.21-4.71,1.59-3.66-.32-7.36-.74-8.19-2.26-4.36-6.7-5.8-7.94-6.19-7.54-2.43-14.36,2.13-15.62,3a19.26,19.26,0,0,0-2.79,2.27l-.58.66c-.48-.46-.9-1.21-1.64-2C637.79,478.92,637.44,478.43,637,477.82Z"
       id="path179" />
    <path
       class="jYMnUAGiaz"
       d="M628.75,467.34c.5-2.39,4.46-3.94,6.79-2.34a4,4,0,0,1,1.45,2,4,4,0,0,1,0,2.45,3.52,3.52,0,0,1-.87,1.49,5.33,5.33,0,0,1-1.16.83,4.41,4.41,0,0,1-1.75.46C630.63,472.29,628.3,469.48,628.75,467.34Z"
       id="path181" />
    <path
       d="M632.64,472a4,4,0,0,1,.21-4.19,4,4,0,0,1,3.44-2.32c1,1.38,1.63,3.33.43,4.78l-.14.18a2.67,2.67,0,0,1-.31.36,2.82,2.82,0,0,1-1,.78,4.92,4.92,0,0,1-1.59.46c-.16,0-.4,0-.55,0A1.76,1.76,0,0,1,632.64,472Z"
       id="path183" />
    <path
       class="jYMnUAGiaz"
       d="M643.9,469.63c.79-2.31,4.91-3.36,7-1.49a4,4,0,0,1,1.2,2.13,4.09,4.09,0,0,1-.25,2.44,3.7,3.7,0,0,1-1,1.37,4.86,4.86,0,0,1-1.25.67,4.23,4.23,0,0,1-1.8.25C645.15,474.77,643.19,471.7,643.9,469.63Z"
       id="path185" />
    <path
       d="M647.18,474.76a4,4,0,0,1,.72-4.13,4,4,0,0,1,3.7-1.88c.84,1.5,1.21,3.51-.16,4.8l-.16.16a2.17,2.17,0,0,1-.36.32,2.8,2.8,0,0,1-1.12.65,4.7,4.7,0,0,1-1.62.26c-.17,0-.4-.06-.55-.06A1.66,1.66,0,0,1,647.18,474.76Z"
       id="path187" />
    <path
       d="M604.28,476.12a41.26,41.26,0,0,1,4.84-.74,40.48,40.48,0,0,1,4.93-.17,16.34,16.34,0,0,1,4.93.43,11.45,11.45,0,0,1,2.31,1,10.27,10.27,0,0,1,2.13,1.47l-.09.28a15.65,15.65,0,0,1-4.93.2,39.32,39.32,0,0,1-4.6-1c-1.55-.29-3.12-.53-4.7-.72s-3.18-.34-4.8-.46Z"
       id="path189" />
    <path
       d="M605.82,483.34a24,24,0,0,1,7.42-2.78,16.13,16.13,0,0,1,4-.42,13.16,13.16,0,0,1,3.93.75v.1l-3.92.15c-1.28.07-2.57.06-3.85.21a26.76,26.76,0,0,0-7.5,2.08Z"
       id="path191" />
    <path
       d="M609.18,489.07a8.19,8.19,0,0,1,3.38-4.16,6.38,6.38,0,0,1,2.57-1.06,5.43,5.43,0,0,1,2.74.26v.1c-.9.21-1.73.38-2.54.62a14.67,14.67,0,0,0-2.38.77,8.64,8.64,0,0,0-3.68,3.51Z"
       id="path193" />
    <path
       d="M673.45,489.3a18.58,18.58,0,0,0-6.63-2.93c-1.18-.26-2.38-.33-3.57-.48l-3.64-.37v-.1a11.16,11.16,0,0,1,3.72-.52,13,13,0,0,1,3.71.7,17.19,17.19,0,0,1,6.48,3.62Z"
       id="path195" />
    <path
       d="M672.88,498.4a25.73,25.73,0,0,0-5.78-5.95c-1.12-.81-2.33-1.47-3.5-2.19l-3.6-2.12,0-.1a14.29,14.29,0,0,1,4.05,1.34,17.7,17.7,0,0,1,3.5,2.44,25.25,25.25,0,0,1,3,3,25.59,25.59,0,0,1,2.38,3.49Z"
       id="path197" />
    <path
       d="M667.86,500.77a13.74,13.74,0,0,0-3.37-6.34,20.51,20.51,0,0,0-2.74-2.27c-1-.72-2-1.36-3-2l0-.09a9.33,9.33,0,0,1,3.55,1.29,10.51,10.51,0,0,1,2.78,2.58,14,14,0,0,1,1.94,3.23,14.32,14.32,0,0,1,.93,3.61Z"
       id="path199" />
    <path
       class="wwwFPIBocR"
       d="M753.89,533.86a6.06,6.06,0,0,0-2.27-.2c-2,0-2.11.22-2.7.07-1.12-.3-1.59-1.3-2.82-3.32-.83-1.34-1.81-2.58-2.63-3.93-2-3.29-5.12-5.46-7.43-7.08-7.19-5-20.21-4.44-25.2-4.08A82.56,82.56,0,0,0,695,518.07c-4.24,10.53-5.88,21.59-7.34,32.84-1,7.33-1.91,14.64-2.56,21.93l.19,0a96.68,96.68,0,0,0,12.09-2.19,3.23,3.23,0,0,1,1.37,0c1.63.37,2.52,2.1,2.88,2.79,1.64,3.18,2.46,4.77,10.53,23.13a7.8,7.8,0,0,1,.72,3.33,7.42,7.42,0,0,1-.45,2.34c-1,2.78-1.65,5.69-2.88,8.37-3.21,6.92-3.1,11.11-7.65,21.78-3,7.09-4,7.36-4.5,9.81a5.88,5.88,0,0,1-1.53,3.06,6.72,6.72,0,0,1-2.43,1.35,20,20,0,0,0-4.68,2.7,12.32,12.32,0,0,0-4,6.48c-.41,1.6-.64,2.39-.36,3.06,1.12,2.73,6.81,1,19.26,1,.93,0,3.19,0,3.78-1.17.46-.94-.27-2.32-1-3.69-1.13-2.14-2.17-2.77-1.89-3.78a2,2,0,0,1,1.35-1.35c.76-.24,1.11.25,1.62,0,.79-.41.84-2.11.63-3.24s-.65-1.34-.81-2.34a5.3,5.3,0,0,1,.63-3.15c1.59-3.55.31-2.22,2.43-6.66,1.62-3.41,7.94-15.91,16.82-32.76a2.76,2.76,0,0,0,.4-.81,2.79,2.79,0,0,0,0-1.67,3.46,3.46,0,0,0-1.91-2.06c0-.6,0-1.52,0-2.63,0-4-.07-5.93-.15-7.1-.22-2.92-.74-6.11.15-8.1.37-.84.79-1,1-1.08.52-.15,1,.15,1.7.61a10.87,10.87,0,0,1,2.47,2.09c1.83,2.18,3,2.18,4.63,3.85.46.47,1.95,2.11,3.09,6.64.73,2.93,1,5.89.69,13.27-.61,13.47-2.06,14.46-1.93,19.45a15.72,15.72,0,0,1-1,5.71,7,7,0,0,1-1.39,2.39c-1.06,1.14-2,1.27-3.32,1.93a12.65,12.65,0,0,0-5,5.09c-.91,1.47-2.15,3.5-1.39,4.71.25.41.75.74,3.78,1.08a48.81,48.81,0,0,0,5.32.31c4.72-.06,4.08-.6,7-.47,2.06.1,3.61.42,5.25-.54a2.69,2.69,0,0,0,1.31-1.23c.53-1.23-.3-2.82-1.46-5-.65-1.23-1.14-1.92-1.08-3a2,2,0,0,1,.69-1.62c.41-.25.71,0,1.31-.23a2.71,2.71,0,0,0,1.39-1.15,4.31,4.31,0,0,0,.39-3.17,9.07,9.07,0,0,0-1.08-3.09c-1-1.71-.52-12.5,3.36-41.33a4.7,4.7,0,0,0,.17-1.67,5.37,5.37,0,0,0-1.3-2.88c-.66-.81-5.29-6.5-6.14-12.16a13.06,13.06,0,0,1,0-3.91,17.81,17.81,0,0,1,1.67-4.58,51.3,51.3,0,0,0,2.35-6.8c.81-2.78,1.11-4.48.82-6.48a10,10,0,0,0-.34-1.59c.41-.28,1-.67,1.59-1.17a24.87,24.87,0,0,0,2.69-2.49c1.8-1.94,2.7-2.92,2.69-4.07A3.34,3.34,0,0,0,753.89,533.86Z"
       id="path201" />
    <path
       class="HrxdviPGWL"
       d="M193,311.88c-1.5,1.47-3.58,3.43-6.16,5.62a93.21,93.21,0,0,1-17.13,12c-5,2.64-4.3,1.5-18.2,7.5-7.33,3.16-9.36,4.26-11.52,6.16a27.8,27.8,0,0,0-8,12.85,26.45,26.45,0,0,0-9-5.22c-2.66-.91-10.46-3.56-13.79-.14-4.26,4.39,2,15.4,2.81,16.73.32.55,6,10,10.84,9,1.14-.24,2.5-1.1,2.54-2s-1.39-1.77-3.48-2.94a22.32,22.32,0,0,0-3.61-1.74c-4.5-1.71-9.84-11.73-7.23-15,2.91-3.63,16.72-.18,18.61,6.56a8.07,8.07,0,0,1,.13,2.81,18,18,0,0,1-1.2,4.68c-.62,2.11-.35,3.79.13,6.83a29.82,29.82,0,0,0,2.68,8c4.27,8.24,18.82,15.41,33.46,19a98.76,98.76,0,0,0,15.93,2.54,10.21,10.21,0,0,1,3.08.94,12.5,12.5,0,0,1,5.08,5.08c4.72,7.43,7.13,11.15,9.77,11.65,1.59.29,3.09-.21,5.22-.94,3.19-1.08,3.22-2.09,5.63-2.95,2.63-.93,3.46,0,10.17,0,3.11,0,6.06,0,6.16-.53.17-1-11-2.92-10.85-3.88.06-.35,1.56-.53,2.67-.46a9.64,9.64,0,0,1,2.06.44c2.44.64,2.49.24,4.13.75,2.1.66,2.44,1.46,3.62,1.25,1-.17,2-.93,1.93-1.56-.1-1.08-3.35-1.63-5.18-1.94-4.88-.82-8.18-.18-8.56-1.31a1.12,1.12,0,0,1,.38-1.12c.47-.36,1.23,0,1.75.12,1.29.44,3,0,4.35.17,5.72.92,4.58.63,5.47.92a1.76,1.76,0,0,0,2-.28c.37-.25.32-.31.48-1.61.11-1-.86-1.15-1.74-1.32-3.8-.76-10.18.09-12.11.37a.56.56,0,0,1-.29-.41c0-.28.29-.5.47-.62a3.2,3.2,0,0,1,1.9-.44c1.77.07,1.69-.47,3.55-.46,2.65,0,3.67,1.09,5.48.37.74-.29.79-.56.79-.62.07-.81-2.8-1.64-2.93-1.68a11.86,11.86,0,0,0-4.38-.37c-3,.3-5,1.54-5.31,1-.13-.21.09-.64.29-.88a1.54,1.54,0,0,1,.79-.46c1.19-.31,4.37-2.79,4-3.84-.25-.75-2.4-1.09-3.77-.25-.77.48-.69,1-1.58,1.92-1.17,1.25-1.88,1-3.39,2.13-2,1.5-1.4,2.38-3.05,3.22a5.84,5.84,0,0,1-4.81.13,5.91,5.91,0,0,1-.88-.49,10.86,10.86,0,0,0,.27-3.06c0-.89-.32-3.82-5.3-9.73a61,61,0,0,0-8.19-7.95c-1.86-1.55-3.48-2.76-4.65-3.6a35.52,35.52,0,0,0,5.1.09,38.84,38.84,0,0,0,18.37-5.94c.21.39.54,1,.92,1.67,1.26,2.29,1.31,2.53,1.58,2.88,1.14,1.47,3.29,1.23,5.38,1.48,3.15.37,3.13,1.47,8.17,3.53,4,1.62,4,.92,12.89,3.62a46.57,46.57,0,0,1,6.5,2.22c3.64,1.8,4.07,3.05,7.14,3.81a21.52,21.52,0,0,0,5.85.44c.93,0,2-.84,3.22-.38a6,6,0,0,0,1.61.66,1.33,1.33,0,0,0,1.5-.62c.17-.45-.1-1-1-1.7-3.25-2.71-6.48-3.87-6.39-4.12a10.7,10.7,0,0,1,2.6.43,23.46,23.46,0,0,0,4.22.52,7.57,7.57,0,0,0,5.69-2c.69-.69.61-1,.58-1.1-.18-.42-.71-.35-2.86-.45-.8,0-1.48-.11-2.84-.28-1-.12-1.76-.23-2.23-.31s-1.13-.18-1.56-.26a7.81,7.81,0,0,0,2.51-1c1-.64,1.17-1.1,2.08-1.42.75-.27,1-.08,2.37-.19.8-.06,2.4-.34,2.48-.87s-.88-1.11-2.29-1.5c-3.05-.85-4.5.28-8.15.19a20.18,20.18,0,0,1-5.44-1,23.63,23.63,0,0,1-7.2-3.12,22.25,22.25,0,0,1-5.73-5.73c-2.2-3-3.22-5.43-4.79-9.33-1.88-4.68-4.07-10.27-4.26-17.72,0-.85,0-1.55,0-2a21.6,21.6,0,0,0,1.82,2.09,22.52,22.52,0,0,0,5.8,4.18c.75.39,2.95,1.49,9.5,3.17,5.89,1.51,10.45,2.49,10.45,2.49,3.44.74,4.78.95,6.33,2.16.81.62,1.59,1.46,2.16,1.21s.76-1.57.47-2.63c-.47-1.72-2-2-2.09-3.43a2.71,2.71,0,0,1,.61-1.82c1.46-2,5.07-1.63,6.47-1.49a17.22,17.22,0,0,1,4.78.88c.81.31,1.67.72,2.36.34a1.79,1.79,0,0,0,.81-1.62c-.1-1.41-2.13-2.24-2.76-2.5-3.79-1.55-7.55,0-7.75-.6-.12-.36,1-1,1.35-1.22.88-.51,2.83-1.45,7.34-1.68,1.6-.08,2.48,0,3-.67a1.9,1.9,0,0,0,0-2.16c-.67-.79-1.91-.12-3.64-.95-.75-.35-.73-.58-1.28-.87-1.54-.82-3.39,0-6.61,1.35-3.52,1.48-5.22,2.34-6,2.49-5.12,1-9.53-2.09-9.9-2.36-1.15-.82-1.1-1.09-4.25-4.65-2.16-2.44-4.41-4.83-5.66-6.07a42.12,42.12,0,0,0-9.84-7.14,14.86,14.86,0,0,0,3.17-1.82c3.29-2.49,4.64-6.12,5.59-8.56.28-.72.48-1.32.6-1.7a4.66,4.66,0,0,0,1.34-1c2-2.24,1-5.84.72-6.69-.92-3.22-3.19-4.95-5-6.33-2.55-1.93-3.93-1.8-4.32-1.75a4.39,4.39,0,0,0-2.22,1.08c-1.2.14-2.48.25-3.8.31-.54,0-1.08.05-1.6.05a10,10,0,0,0-.67-2.1c-2-4.49-6.69-6.23-8.28-6.74a2.47,2.47,0,0,0-.87-1.39,2.5,2.5,0,0,0-1.55-.52c-3.78,1.18-6.91,2.4-9.26,3.4-6.63,2.83-8.77,4.64-9.77,5.55a20,20,0,0,0-3.55,4.17,18.25,18.25,0,0,0-2.93,11.06A15.8,15.8,0,0,0,193,311.88Z"
       id="path203" />
    <path
       class="YtqfEryRlu"
       d="M202,313.42c-1.79-.89-2.66-1.13-3.49-.8-1.56.62-2.25,3-2,4.78.49,3,4,5.35,7.29,5.2,2.52-.11,5.5-1.7,5.63-3.55S206.7,315.74,202,313.42Z"
       id="path205" />
    <path
       class="YtqfEryRlu"
       d="M220.38,286.66c-.1.56-.23,1.4-.33,2.44a5.3,5.3,0,0,1-.25,1.71c-.5,1.13-1.83,1.17-2.81,1.72-2.35,1.31-3.46,5.9-1.84,9.19.16.33,1.49,2.94,4,3.49.89.19,2.14-.08,4.66-.61s3.27-.89,4.34-.43A4.21,4.21,0,0,1,230,306c2,3,6.22,5.6,9.86,5.33a10.9,10.9,0,0,0,4.37-1.47,5.4,5.4,0,0,0,1.34-1,5.64,5.64,0,0,0,1.19-3.68,8.9,8.9,0,0,0-.79-3.94,11.18,11.18,0,0,0-1.86-2.95,16.32,16.32,0,0,0-3.72-3.08,6.2,6.2,0,0,0-2.1-1,3.68,3.68,0,0,0-1.31-.12,3.74,3.74,0,0,0-1.33.45,5.22,5.22,0,0,0-.89.63c-.35.05-.72.08-1.08.12q-2.25.21-4.32.24a10.38,10.38,0,0,0-.83-2.46,10.69,10.69,0,0,0-2.26-3,12.44,12.44,0,0,0-2.69-2A15,15,0,0,0,220.38,286.66Z"
       id="path207" />
    <path
       class="jYMnUAGiaz"
       d="M218,302.18c-1.07-1.28-.24-4.07,1.61-4.64a2.78,2.78,0,0,1,3,1,2.49,2.49,0,0,1,.43,1.1,3.49,3.49,0,0,1,0,1,3,3,0,0,1-.49,1.14A3.13,3.13,0,0,1,218,302.18Z"
       id="path209" />
    <path
       d="M222.19,302.07a2.78,2.78,0,0,1-2.17-1.88,2.72,2.72,0,0,1,.2-2.83,2.64,2.64,0,0,1,2.76,1.78,1.55,1.55,0,0,1,0,.15,2,2,0,0,1,.06.32,2.05,2.05,0,0,1,0,.89,3.4,3.4,0,0,1-.42,1.05,3,3,0,0,0-.23.3A1.2,1.2,0,0,1,222.19,302.07Z"
       id="path211" />
    <path
       class="jYMnUAGiaz"
       d="M223.07,295.34c-1-1.21-.23-3.84,1.51-4.39a2.61,2.61,0,0,1,2.84,1,2.18,2.18,0,0,1,.4,1,3.47,3.47,0,0,1,0,.91,2.83,2.83,0,0,1-.47,1.08A2.94,2.94,0,0,1,223.07,295.34Z"
       id="path213" />
    <path
       d="M227,295.23a2.61,2.61,0,0,1-2-1.77,2.57,2.57,0,0,1,.19-2.68,2.49,2.49,0,0,1,2.6,1.69s0,.12,0,.14,0,.2.06.3a2,2,0,0,1,0,.84,2.9,2.9,0,0,1-.4,1c-.06.09-.16.21-.21.29A.88.88,0,0,1,227,295.23Z"
       id="path215" />
    <path
       class="HrxdviPGWL"
       d="M432.07,536a18.93,18.93,0,0,1,5.13,9.29c1.3,6.07-1,11-2.44,13.94a30.12,30.12,0,0,1-9.54,11.25c-6.17,4.42-12.29,5.25-18.59,6.11a59.16,59.16,0,0,1-16.38,0c-3.6-.52-3.44-.86-19.32-5.38A122.63,122.63,0,0,0,358.46,568c-3.89-.69-6.83-.95-12.72-1.46-6.2-.54-9.36-.81-11.74-.49-3.8.5-8.44,1.11-12,4.89a13.82,13.82,0,0,0-2.84,14.85A17,17,0,0,0,323.7,592,25.59,25.59,0,0,0,336.35,598a31.69,31.69,0,0,0,17.17-1.55,44.75,44.75,0,0,1-9.81-1.29,33.49,33.49,0,0,1-11.75-4.9c-3.35-2.31-7-4.84-7.36-8.91a8.57,8.57,0,0,1,1.94-5.94c1.34-1.53,3.13-2.28,6.07-2.84a36.43,36.43,0,0,1,12.65-.13c11.18,2,16.78,2.93,20.4,3.87,10.46,2.71,10.62,3.56,19,5.3a103.61,103.61,0,0,0,15.11,2.06,59.32,59.32,0,0,0,8.26.13,47.06,47.06,0,0,0,17-4.39,36,36,0,0,0,10.59-7.23,31.79,31.79,0,0,0,8.14-13A34,34,0,0,0,445.2,548a29.1,29.1,0,0,0-1.17-9.17c-1.54-4.89-5.37-11.4-8.26-10.85C433.2,528.47,432.31,534.34,432.07,536Z"
       id="path217" />
    <path
       class="vveCtCGXTY"
       d="M331.5,488.83c-1-.34-2.46-.83-4.27-1.31a40,40,0,0,0-13-1.81,30.76,30.76,0,0,0-7.39,1.31,14.9,14.9,0,0,0-.5-5.42c-.56-2-1.63-5.76-4.6-6.57-2.51-.69-4.86,1.17-5.26,1.48-2.38,1.87-2.82,4.67-3.12,6.57a14,14,0,0,0,2.47,10.52,12.06,12.06,0,0,0,2.13,2.13c-.86,1.42-2.09,3.5-3.45,6.08-6.86,13.08-8.23,22.39-8.54,24.82a36.39,36.39,0,0,0-.17,7.23c.21,4.66.87,5.8,1.32,6.41,1.51,2,4,2.51,5.58,2.79s4.93.68,12.66-2.3a58.88,58.88,0,0,0,14.79-8.22,57.83,57.83,0,0,0,6.74-6.08,45.64,45.64,0,0,0,5.58,3.95,46.64,46.64,0,0,0,7.07,3.45c-.45,1.64-.9,3.51-1.31,5.59-.78,3.9-.71,5-1.81,6.24a8,8,0,0,1-4.44,2.47c-1.22.2-2,0-3.28.54a4.91,4.91,0,0,0-2.1,1.55c-1.45,2-.42,4.68-.31,5l2.56-2.79a13.66,13.66,0,0,0-.07,1.86,14,14,0,0,0,.38,3c.36-.55.77-1.12,1.24-1.71a21.71,21.71,0,0,1,2.18-2.32,5.71,5.71,0,0,0,.31,2.32,5.94,5.94,0,0,0,1.31,2.17,3.35,3.35,0,0,1,.08-2.24c.33-.73.9-1.1,2.41-2s2-1.25,2.71-1.63a16.54,16.54,0,0,0,4.34-3.8,24.56,24.56,0,0,0,5-10.39l3,.62c.26,1.21.52,2.43.77,3.64.27,1.38.42,2.59.52,3.56.05.52.14,1.5.18,2.72,0,.84,0,.41,0,2.17a11.35,11.35,0,0,1-.08,1.18,2.59,2.59,0,0,1-.24.94,1.57,1.57,0,0,1-.45.55,1.74,1.74,0,0,1-.87.26,5,5,0,0,1-1.41-.08c-.78-.16-1-.3-1.5-.43a5.11,5.11,0,0,0-2.48,0,3.88,3.88,0,0,0-1.95,1.13,4.1,4.1,0,0,0-.79,3.41,8.68,8.68,0,0,1,.86-.41,7.67,7.67,0,0,1,2.11-.52,5.53,5.53,0,0,0-.78,1.46,5.68,5.68,0,0,0-.31,2.1l1.39-.41,2.79-1.56c-.12.33-.24.68-.34,1a13.76,13.76,0,0,0-.46,3.12,12.68,12.68,0,0,1,2.61-1.92,11.51,11.51,0,0,1,5.29-1.66c1.42-.07,2,.23,3-.22a4.6,4.6,0,0,0,2-1.83c1.54-2.37,2.14-4.93,2.94-8.92.26-1.28.57-2.83.9-4.6,3.77,1.15,7.06,2,9.69,2.56a70.12,70.12,0,0,0,10.76,1.9c1.17.09,3.78.23,7.91.59l2,.18a18.76,18.76,0,0,1-2,1,20.6,20.6,0,0,1-3.69,1.19c-3.6.83-4.4.5-7.19,1.13a24.94,24.94,0,0,0-5.83,2.14c-3.71,1.86-4.62,3.39-4.94,4a7,7,0,0,0-.71,2.2,14.39,14.39,0,0,1,1.73-1.19,14.6,14.6,0,0,1,3.27-1.43,5.69,5.69,0,0,0-1.31,1.9,6.07,6.07,0,0,0-.3,3.69,9.8,9.8,0,0,1,1.19-1.49,10.44,10.44,0,0,1,3.39-2.32,6.66,6.66,0,0,0-.95,2.32,6.88,6.88,0,0,0,.41,4,10.19,10.19,0,0,1,1.85-2.56,11,11,0,0,1,3.92-2.5A58.63,58.63,0,0,1,397.24,557c7.94-1,7.34-.41,11-1.07a36.84,36.84,0,0,0,14.41-5.16,32.62,32.62,0,0,0,10.86-11.56,33.45,33.45,0,0,0,3.73-12.81c.56-6.52-.92-11.4-2.31-15.83a54,54,0,0,0-12.28-21.71,46.39,46.39,0,0,0-32.91-15.48c-13.45-.85-23.75,3.44-29,5.69a71.93,71.93,0,0,0-9.78,5.12,10.2,10.2,0,0,0-2.8-1.47,12.15,12.15,0,0,0-6.81,0,17.37,17.37,0,0,0-6.68,2.94A16.44,16.44,0,0,0,331.5,488.83Z"
       id="path219" />
    <path
       class="HrxdviPGWL"
       d="M285.78,533.21a3.88,3.88,0,0,0-1.51,1.61,4.1,4.1,0,0,0-.57,3.35,3.73,3.73,0,0,0,2,2.19c1.61.68,3.19-.21,4-.69s2.47-1.41,2.54-2.77C292.35,534.65,288.1,532.07,285.78,533.21Z"
       id="path221" />
    <path
       class="HrxdviPGWL"
       d="M301.31,492c0-.62.08-1.48.09-2.51a36.8,36.8,0,0,0-.18-4.74,18.73,18.73,0,0,0-.75-4c-.46-1.48-.84-2.63-2-3.44a4.37,4.37,0,0,0-2-.79,7.75,7.75,0,0,0-1.57,1.74,8.82,8.82,0,0,0-1.06,2.42,15.47,15.47,0,0,0-.65,4.18,13.5,13.5,0,0,0,.62,4.87,17,17,0,0,0,2.33,4.28c.61.89,1.17,1.6,1.59,2.1Z"
       id="path223" />
    <path
       class="HrxdviPGWL"
       d="M332,498.88c.1-.54.3-1.15,2-3.46a43.39,43.39,0,0,1,5.3-6.45c3.26-3.24,5.07-5,7.95-5.42a6.71,6.71,0,0,1,2.81,0,6.12,6.12,0,0,1,3,2.05,9.09,9.09,0,0,1,2.13,5.27,10.16,10.16,0,0,1-.37,3.7,13,13,0,0,1-2.68,4.67,21.82,21.82,0,0,1-6.38,5.27c-3.49,1.84-6.5,3.44-9.48,2.12A7.6,7.6,0,0,1,332,498.88Z"
       id="path225" />
    <path
       class="jYMnUAGiaz"
       d="M306.29,511.79c.63-3.36-3.65-7.46-7.5-6.64A5.63,5.63,0,0,0,294.5,510a5,5,0,0,0,.34,2.38,7.26,7.26,0,0,0,1,1.68,5.82,5.82,0,0,0,2,1.53C301.24,517.17,305.73,514.79,306.29,511.79Z"
       id="path227" />
    <path
       class="PupJunZCPA"
       d="M298.78,515.76c1.39-.81,2.28-3,2-5.51s-1.63-4.36-3.2-4.83c-2.05,1.24-3.89,3.43-3.1,5.93l.08.32a3.88,3.88,0,0,0,.21.63,3.93,3.93,0,0,0,.91,1.55,6.61,6.61,0,0,0,1.8,1.44c.21.1.52.2.71.3A2,2,0,0,0,298.78,515.76Z"
       id="path229" />
    <path
       class="jYMnUAGiaz"
       d="M323.37,515.52c.64-3.36-3.64-7.47-7.49-6.65a5.6,5.6,0,0,0-4.29,4.89,4.89,4.89,0,0,0,.33,2.39,7.47,7.47,0,0,0,1,1.68,6,6,0,0,0,2,1.53C318.32,520.89,322.82,518.51,323.37,515.52Z"
       id="path231" />
    <path
       class="PupJunZCPA"
       d="M315.86,519.49c1.39-.82,2.29-3,2-5.51s-1.63-4.36-3.19-4.83c-2.06,1.23-3.89,3.43-3.11,5.93l.08.31a3.33,3.33,0,0,0,.21.63,4.17,4.17,0,0,0,.91,1.56,6.93,6.93,0,0,0,1.8,1.43c.21.11.53.21.71.31A2.29,2.29,0,0,0,315.86,519.49Z"
       id="path233" />
    <path
       class="HrxdviPGWL"
       d="M278.65,61.9c-1.5-.23-3.52-.58-5.89-1.13a66.32,66.32,0,0,1-14.32-4.69c-3.67-1.74-2.72-1.83-12.16-7.26-5-2.86-6.48-3.56-8.5-4a20,20,0,0,0-10.86.91,19.21,19.21,0,0,0-.85-7.42c-.62-1.92-2.45-7.56-5.86-8-4.36-.57-8,7.79-8.43,8.82-.18.42-3.19,7.73-.5,10.11.62.55,1.71,1,2.25.6s.42-1.57.2-3.28a17.22,17.22,0,0,0-.55-2.83c-1-3.33,2.52-10.72,5.53-10.62,3.34.12,7.29,9.56,4.22,13.55A5.68,5.68,0,0,1,221.37,48a12.87,12.87,0,0,1-3.22,1.32c-1.48.55-2.33,1.43-3.88,3a21.72,21.72,0,0,0-3.47,5c-2.91,6-.78,17.48,3.44,27.47A72.52,72.52,0,0,0,219.63,95a7.35,7.35,0,0,1,.79,2.18,9.07,9.07,0,0,1-.74,5.12c-2.25,5.91-3.36,8.91-2.51,10.64a7.4,7.4,0,0,0,2.79,2.61c2,1.37,2.59,1,4.11,2,1.67,1.12,1.51,2,4.38,5.87,1.33,1.79,2.59,3.5,3,3.31.64-.32-3-7.58-2.43-7.92.22-.12,1,.68,1.41,1.35a6.68,6.68,0,0,1,.64,1.37c.67,1.68.93,1.54,1.34,2.7.53,1.5.21,2,.84,2.63s1.39.75,1.73.44c.58-.52-.51-2.64-1.12-3.82-1.62-3.16-3.41-4.79-2.92-5.5a.82.82,0,0,1,.81-.26c.41.11.56.69.68,1.06.3.93,1.32,1.71,1.77,2.58,1.94,3.69,1.62,2.91,1.83,3.55.29.88.6.9,1,1.06.29.1.31,0,1.13-.42.59-.34.29-1,0-1.57-1.2-2.52-4.43-5.82-5.43-6.82a.46.46,0,0,1,.11-.34c.16-.14.42,0,.56,0a2.34,2.34,0,0,1,1.08.9c.72,1.06,1,.78,1.79,1.85,1.14,1.53,1,2.59,2.14,3.32.49.31.67.21.7.19.5-.3-.26-2.32-.29-2.41a8.74,8.74,0,0,0-1.67-2.69c-1.47-1.6-3-2.22-2.89-2.61.07-.16.41-.22.63-.21a1.08,1.08,0,0,1,.61.26c.69.55,3.49,1.32,3.94.66.33-.47-.4-1.85-1.47-2.27-.61-.25-.85,0-1.79-.09-1.23-.14-1.4-.64-2.69-1-1.74-.53-2,.22-3.17-.37a4.19,4.19,0,0,1-2.14-2.72,3.93,3.93,0,0,1-.1-.72,7.77,7.77,0,0,0,1.88-1.15c.5-.42,2.07-1.84,3.33-7.25a44.36,44.36,0,0,0,1.06-8.14c.09-1.74.09-3.2.07-4.23a26.14,26.14,0,0,0,2.14,3,28,28,0,0,0,11.33,8l-.56,1.25a21.43,21.43,0,0,0-1,2.15c-.36,1.29.7,2.43,1.46,3.74,1.14,2,.49,2.43,1.48,6.22.78,3,1.17,2.68,3.46,9a33,33,0,0,1,1.51,4.7c.54,2.88,0,3.66.89,5.76a15.28,15.28,0,0,0,2.26,3.56c.42.51,1.35.8,1.6,1.69a4.76,4.76,0,0,0,.31,1.22,1,1,0,0,0,1,.59c.33-.09.51-.47.56-1.29.16-3-.56-5.41-.38-5.46a7.73,7.73,0,0,1,.87,1.68,16.72,16.72,0,0,0,1.52,2.66A5.47,5.47,0,0,0,266.5,139c.69.09.85-.09.88-.15.17-.28-.11-.56-1-1.84-.33-.47-.57-.9-1.06-1.76-.36-.61-.63-1.11-.78-1.41s-.38-.73-.53-1a5.57,5.57,0,0,0,1.66,1c.81.32,1.13.21,1.71.59s.47.53,1.13,1.29c.38.43,1.22,1.23,1.57,1.06s.26-1-.12-2c-.82-2.12-2.1-2.47-3.62-4.62a15,15,0,0,1-1.77-3.56,17.21,17.21,0,0,1-1.29-5.5,16.1,16.1,0,0,1,.83-5.77,26.8,26.8,0,0,1,3.32-6.77,34.41,34.41,0,0,1,8.38-10.08c.48-.38.88-.67,1.16-.87a15.59,15.59,0,0,0-.33,7.09,31.18,31.18,0,0,0,2.26,6.84c1.67,4,3.06,7.09,3.06,7.09,1.05,2.3,1.51,3.17,1.48,4.58,0,.73-.16,1.55.23,1.77s1.23-.24,1.72-.86c.79-1,.32-2,1.08-2.69a2,2,0,0,1,1.31-.43c1.77,0,3.12,2.22,3.64,3.09a12,12,0,0,1,1.55,3.14c.18.6.3,1.27.83,1.5a1.28,1.28,0,0,0,1.28-.23c.76-.66.37-2.19.24-2.66-.73-2.86-3.26-4.34-3-4.73.15-.22,1,.15,1.28.25.68.29,2.05,1,4.13,3.51.74.89,1.08,1.42,1.67,1.42a1.35,1.35,0,0,0,1.24-.93c.16-.72-.75-1.15-1-2.5a9.51,9.51,0,0,1-.05-1.12c-.19-1.23-1.45-2-3.62-3.22-2.37-1.39-3.6-2-4-2.39a9.91,9.91,0,0,1-2.9-6.72c0-1,.15-1.1.85-4.45.48-2.3.89-4.62,1.06-5.88a30.3,30.3,0,0,0-.12-8.74,10.63,10.63,0,0,0,2.41,1,13.08,13.08,0,0,0,7.34-.46c.54-.15,1-.29,1.24-.39a3.28,3.28,0,0,0,1.17.33c2.15.18,3.78-2,4.17-2.46a8.69,8.69,0,0,0,1.5-5.6c0-2.3-.65-3-.86-3.24a3,3,0,0,0-1.57-.81c-.6-.64-1.21-1.33-1.82-2.07l-.71-.89a8.15,8.15,0,0,0,.93-1.3c1.73-3.07.71-6.53.32-7.67a1.74,1.74,0,0,0,.05-2.21,66.93,66.93,0,0,0-5.94-3.88c-4.48-2.6-6.45-3.06-7.41-3.24a14.14,14.14,0,0,0-3.93-.25,13.09,13.09,0,0,0-7.63,3.07A10.44,10.44,0,0,0,278.65,61.9Z"
       id="path235" />
    <path
       class="YtqfEryRlu"
       d="M281.64,67.77c-.26-1.41-.49-2-1-2.35-1-.63-2.7,0-3.6.92-1.53,1.59-1.36,4.61.14,6.44,1.15,1.41,3.35,2.44,4.47,1.72S282.34,71.49,281.64,67.77Z"
       id="path237" />
    <path
       class="YtqfEryRlu"
       d="M305,66.86c-.37.18-.91.47-1.55.86a4.46,4.46,0,0,1-1.1.6c-.86.19-1.46-.56-2.2-.89-1.77-.79-4.89.55-6.09,2.9a4.74,4.74,0,0,0-.29,3.79,9.37,9.37,0,0,0,2.35,2.42c1.34,1.17,1.92,1.51,2.12,2.33a3,3,0,0,1-.27,1.84c-.84,2.45-.55,6,1.18,8a7.82,7.82,0,0,0,2.72,1.88,3.41,3.41,0,0,0,3.81-.56,6.41,6.41,0,0,0,1.93-2.16,7.81,7.81,0,0,0,.89-2.34,11.46,11.46,0,0,0,.18-3.47,4.41,4.41,0,0,0-.32-1.63,2.35,2.35,0,0,0-.51-.81A2.43,2.43,0,0,0,307,79a2.86,2.86,0,0,0-.75-.24l-.53-.58c-.73-.8-1.39-1.6-2-2.38a7.72,7.72,0,0,0,1.06-1.54,7.55,7.55,0,0,0,.78-2.62,9.64,9.64,0,0,0,0-2.39A12.39,12.39,0,0,0,305,66.86Z"
       id="path239" />
    <path
       class="jYMnUAGiaz"
       d="M295,72.18a2.34,2.34,0,0,1,3.37-1.07,2,2,0,0,1,.69,1,2,2,0,0,1,0,1.21,1.76,1.76,0,0,1-.45.72,2.27,2.27,0,0,1-.58.39,1.86,1.86,0,0,1-.87.21A2.25,2.25,0,0,1,295,72.18Z"
       id="path241" />
    <path
       d="M296.88,74.54a2,2,0,0,1,.15-2.06,2,2,0,0,1,1.72-1.11,1.9,1.9,0,0,1,.16,2.36l-.07.09a1.29,1.29,0,0,1-.16.17,1.4,1.4,0,0,1-.52.38,2.3,2.3,0,0,1-.78.2c-.08,0-.2,0-.27,0A.85.85,0,0,1,296.88,74.54Z"
       id="path243" />
    <path
       class="jYMnUAGiaz"
       d="M301.14,72.14a2.2,2.2,0,0,1,3.17-1,1.84,1.84,0,0,1,.65,2.06,1.5,1.5,0,0,1-.42.68,2.51,2.51,0,0,1-.54.38,2,2,0,0,1-.82.19A2.11,2.11,0,0,1,301.14,72.14Z"
       id="path245" />
    <path
       d="M302.89,74.36a1.87,1.87,0,0,1,.14-1.94,1.85,1.85,0,0,1,1.62-1,1.78,1.78,0,0,1,.15,2.22l-.06.09-.15.16a1.42,1.42,0,0,1-.49.35,2.32,2.32,0,0,1-.74.2h-.26A.76.76,0,0,1,302.89,74.36Z"
       id="path247" />
    <path
       class="JoCHzORjbs"
       d="M838.15,363.16a10.59,10.59,0,0,0-2-4.83l-.15-.18h.1l3.22-3.21c6-6,7-7.14,8.66-8.67a57.8,57.8,0,0,1,9.94-7.38,41.93,41.93,0,0,0,2.25-8.82c.32-2.3.23-3.1.8-4.5,1.44-3.5,4.77-5.24,6.1-5.93.56-.3,8.89-4.48,15.57-.17a14.67,14.67,0,0,1,5,6.1c1.61,3.05,2.13,5.64,2.89,17.49.71,11.05.55,13.23.16,15.57a42.11,42.11,0,0,1-3,10.11c.67,1.61,1.32,3.32,1.93,5.13a77.72,77.72,0,0,1,3.05,12.52,13.2,13.2,0,0,1-3.21.8,13,13,0,0,1-6.26-.8,12.56,12.56,0,0,1-5.46-4.33,35.23,35.23,0,0,1-3.85,3.05,36.12,36.12,0,0,1-5.78,3.21,11.54,11.54,0,0,1-.64,2.88c-2.55,7.18-11.18,9.64-13,10.11a21.85,21.85,0,0,0-1-8.5c-1,.07-2.38.14-4,.16-2.53,0-4.79-.07-6.68-.21-.9-6.66-1.82-13.3-3.25-20.11C838.65,369.5,838.65,366.33,838.15,363.16Z"
       id="path249" />
    <path
       class="Hjcoppjeyk"
       d="M873.43,333.74c-.37,0-.52-.31-1.42-1.34-1.46-1.68-1.91-1.79-1.91-2.39,0-1,1.1-1.61,1.34-1.73a3.78,3.78,0,0,1,3.7,0,2,2,0,0,1,.76,1.41c0,.34,0,.7-.86,2.07S873.84,333.73,873.43,333.74Z"
       id="path251" />
    <path
       class="wwwFPIBocR"
       d="M875.36,331.32c.93-1.15,1.8-2,1.82-2.05,1.12-1.5,7.32-5.89,12-3.37a7.13,7.13,0,0,1,3.37,4.34c.73,3.31-1.74,6-2.52,6.91a11.17,11.17,0,0,1-4.87,3c-1.64.57-4.06,1.41-6.57.48-4-1.49-5-6.3-5.14-6.74a8.85,8.85,0,0,1-.64,4c-1.79,4.28-6.44,5.36-6.9,5.45a10.33,10.33,0,0,1-7.06-1.12,6.5,6.5,0,0,1-3.37-3,6.33,6.33,0,0,1,.48-5.29,8.55,8.55,0,0,1,5.13-4c4.89-1.58,9.3,1.38,10.11,1.92a11.92,11.92,0,0,1,1.81,1.47l.38.43c.31-.3.58-.79,1.06-1.33C874.82,332,875,331.72,875.36,331.32Z"
       id="path253" />
    <path
       class="jYMnUAGiaz"
       d="M880.67,324.54c-.33-1.55-2.89-2.55-4.39-1.52a2.66,2.66,0,0,0-.95,1.27,2.69,2.69,0,0,0,0,1.59,2.3,2.3,0,0,0,.57,1,3.41,3.41,0,0,0,.75.54,2.79,2.79,0,0,0,1.13.3A3,3,0,0,0,880.67,324.54Z"
       id="path255" />
    <path
       d="M878.15,327.57a2.61,2.61,0,0,0-.13-2.71,2.57,2.57,0,0,0-2.23-1.5,2.5,2.5,0,0,0-.28,3.09l.09.12a2.31,2.31,0,0,0,.2.24,2.07,2.07,0,0,0,.67.5,3.06,3.06,0,0,0,1,.3h.35A1,1,0,0,0,878.15,327.57Z"
       id="path257" />
    <path
       class="jYMnUAGiaz"
       d="M870.87,326c-.52-1.5-3.19-2.18-4.55-1a2.59,2.59,0,0,0-.78,1.38,2.56,2.56,0,0,0,.17,1.57,2.28,2.28,0,0,0,.68.89,3.46,3.46,0,0,0,.8.44,2.74,2.74,0,0,0,1.17.15A3,3,0,0,0,870.87,326Z"
       id="path259" />
    <path
       d="M868.74,329.34a3,3,0,0,0-2.86-3.89,2.51,2.51,0,0,0,.11,3.11l.1.1a1.51,1.51,0,0,0,.23.21,1.8,1.8,0,0,0,.72.42,3.46,3.46,0,0,0,1.06.17c.1,0,.26,0,.35,0A1,1,0,0,0,868.74,329.34Z"
       id="path261" />
    <path
       d="M896.49,330.47c-1,.16-2.08.29-3.1.5s-2,.4-3,.63a11.82,11.82,0,0,1-2.92.74,7.31,7.31,0,0,1-3.28-.6l-.08-.28a5.15,5.15,0,0,1,1.3-1.26,6.32,6.32,0,0,1,1.48-.81,8.08,8.08,0,0,1,3.25-.18,23.07,23.07,0,0,1,3.23.27,23.39,23.39,0,0,1,3.14.69Z"
       id="path263" />
    <path
       d="M895.47,335a17.76,17.76,0,0,0-4.87-1.22c-.82-.09-1.65,0-2.47-.1s-1.65-.12-2.53-.26l0-.1a6.75,6.75,0,0,1,2.55-.64,8.78,8.78,0,0,1,2.6.31,15,15,0,0,1,4.79,1.92Z"
       id="path265" />
    <path
       d="M893.26,338.64a5.6,5.6,0,0,0-2.43-2.16c-.49-.22-1-.28-1.51-.45s-1-.32-1.6-.55v-.1a3,3,0,0,1,1.81-.33,3.71,3.71,0,0,1,1.7.74,5.23,5.23,0,0,1,2.13,2.81Z"
       id="path267" />
    <path
       d="M851.69,338.69a10.81,10.81,0,0,1,4.17-2.47,7.2,7.2,0,0,1,2.42-.49,5.85,5.85,0,0,1,2.43.5l0,.1c-.81.18-1.58.28-2.34.39s-1.53.12-2.29.27a12.65,12.65,0,0,0-4.31,1.77Z"
       id="path269" />
    <path
       d="M852,344.6a15.7,15.7,0,0,1,1.48-2.32,16.47,16.47,0,0,1,1.92-2,9.83,9.83,0,0,1,2.27-1.63,7.43,7.43,0,0,1,2.7-.73l0,.1c-.76.56-1.51,1-2.25,1.51s-1.54.86-2.26,1.37a17.19,17.19,0,0,0-3.82,3.75Z"
       id="path271" />
    <path
       d="M855.28,346.16a8.22,8.22,0,0,1,1.76-4.52,6.18,6.18,0,0,1,1.81-1.72,5,5,0,0,1,2.39-.71l0,.1c-.65.52-1.27,1-1.86,1.44a20,20,0,0,0-1.77,1.42,9,9,0,0,0-2.26,4Z"
       id="path273" />
    <path
       class="wwwFPIBocR"
       d="M799.67,367.6a3.7,3.7,0,0,1,1.48-.14,11.58,11.58,0,0,0,1.74.05c.72-.19,1-.84,1.83-2.15.53-.86,1.17-1.67,1.7-2.54a15.84,15.84,0,0,1,4.81-4.58c4.65-3.24,13.08-2.88,16.31-2.64a53.35,53.35,0,0,1,10.23,1.77c2.74,6.82,3.81,14,4.75,21.26.64,4.75,1.24,9.48,1.66,14.19h-.12a61.58,61.58,0,0,1-7.83-1.42,2,2,0,0,0-.88,0c-1.06.23-1.64,1.36-1.87,1.8-1.06,2.06-1.59,3.09-6.81,15a5,5,0,0,0-.47,2.16,4.75,4.75,0,0,0,.29,1.51c.64,1.8,1.06,3.69,1.87,5.42,2.07,4.48,2,7.19,4.95,14.1,2,4.58,2.57,4.76,2.91,6.34a3.79,3.79,0,0,0,1,2,4.35,4.35,0,0,0,1.57.87,13,13,0,0,1,3,1.75,8,8,0,0,1,2.62,4.19c.26,1,.41,1.55.24,2-.73,1.77-4.41.63-12.47.64-.6,0-2.07,0-2.45-.76-.3-.6.18-1.5.64-2.38.73-1.39,1.41-1.79,1.23-2.45a1.36,1.36,0,0,0-.88-.87c-.49-.16-.72.16-1,0-.52-.26-.55-1.37-.41-2.1s.42-.87.52-1.52a3.36,3.36,0,0,0-.41-2c-1-2.3-.2-1.44-1.57-4.31-1.05-2.21-5.14-10.3-10.89-21.21a1.78,1.78,0,0,1-.26-.52,1.86,1.86,0,0,1,0-1.08,2.19,2.19,0,0,1,1.24-1.33c0-.39,0-1,0-1.71,0-2.56.05-3.83.1-4.59.14-1.89.48-4-.1-5.25-.24-.54-.51-.66-.65-.7-.33-.09-.67.1-1.1.4a7.14,7.14,0,0,0-1.59,1.35c-1.19,1.41-2,1.41-3,2.5-.3.3-1.26,1.36-2,4.29-.47,1.9-.66,3.81-.45,8.59.39,8.72,1.34,9.36,1.25,12.59a10.31,10.31,0,0,0,.65,3.69,4.61,4.61,0,0,0,.9,1.55,5.92,5.92,0,0,0,2.15,1.25,8.2,8.2,0,0,1,3.24,3.3c.59.95,1.39,2.26.9,3-.16.27-.49.49-2.45.7a29.51,29.51,0,0,1-3.44.2c-3.06,0-2.64-.39-4.55-.3-1.32.07-2.33.27-3.39-.35a1.76,1.76,0,0,1-.85-.79c-.35-.8.2-1.83,1-3.25a3.72,3.72,0,0,0,.7-1.95,1.36,1.36,0,0,0-.45-1.05c-.27-.16-.46,0-.85-.15a1.72,1.72,0,0,1-.9-.75,2.78,2.78,0,0,1-.25-2,5.61,5.61,0,0,1,.7-2c.67-1.11.34-8.09-2.18-26.75a3,3,0,0,1-.1-1.09,3.45,3.45,0,0,1,.83-1.86c.43-.53,3.43-4.21,4-7.87a8.54,8.54,0,0,0,0-2.53,11.09,11.09,0,0,0-1.09-3,33.36,33.36,0,0,1-1.51-4.41,9.33,9.33,0,0,1-.54-4.19,8,8,0,0,1,.23-1c-.27-.18-.63-.44-1-.76a15.17,15.17,0,0,1-1.74-1.61c-1.17-1.26-1.75-1.89-1.74-2.63A2.14,2.14,0,0,1,799.67,367.6Z"
       id="path275" />
  </g>
  <g
     id="Layer_4"
     data-name="Layer 4">
    <path
       class="MlcuRoCAWF"
       d="M-5.23,665.82c-2.76,2.42-5.84,5.13-10.3,5.7-3.84.49-4.67-1.12-15.7-3.07a35.94,35.94,0,0,0-12.37-.14c-13.84,2-15.1,2-16.69,1.26-3.12-1.45-6.18-4.94-5.29-7.38s5.5-2.75,6-2.77c-2.47.09-9.72,0-15.13-5.19-2.93-2.8-6.41-8.14-4.73-11,1.92-3.25,9.41-1.39,10-3.61.49-1.82-4.58-3.24-4.87-6.69s4.32-7,8.21-8.2c6.46-2,12.18,1.89,13.06,2.5,0-.21.38-3.57,3.07-4.86s6.05.41,7.5,2.79a6,6,0,0,1,.87,2.69,9.57,9.57,0,0,1,2.5-4.51,10.14,10.14,0,0,1,3.87-2.25,10.25,10.25,0,0,1,4.47-.39,9.73,9.73,0,0,1,8.06,8.34,9.38,9.38,0,0,1-1.85,6.26,14.31,14.31,0,0,1,5-3.6c2.92-1.23,8.7-2.49,11.69.54C-4.38,635.77-6.68,643-9.51,647a15.84,15.84,0,0,1-4.47,4.2,11.93,11.93,0,0,1,3.37-.3C-5.89,651.06-.12,654,.22,658,.44,660.84-2.15,663.11-5.23,665.82Z"
       id="path278" />
    <path
       class="jYMnUAGiaz"
       d="M-11.23,122.7c-31.49,34.92-78.5-10.84-174.26,11.66-36.84,8.67-56.94,24.85-132.73,46.12-56.64,15.91-73.1,4.28-84.41-3.4-29.15-19.81-46-81.66-20.4-101.67,7.37-5.75,21.54-16.59,30.92-17.57,16.6-1.74,44.42,8.33,49.28-3.51,3.86-9.38-2.71-16.57,3-24.89,9.71-14.17,40.39-10.09,51.45-8.61,17.76,2.36,23.3,10.18,37.89,10.56,52.2,1.36,68.87-4.68,79.91-7.91,38.34-11.23,66.89-27.44,78.18-19,5.11,3.78,8.4,8.21,11.43,17.17,5.81,17.23,23.64-10.23,46.53,27.5C-24.19,66-6.48,66-.6,80.7,4.9,94.33-1.89,112.41-11.23,122.7Z"
       id="path280" />
    <path
       class="qgSWcEJJqG"
       d="M578.21,393.79A115.15,115.15,0,0,1,551,357.63c-1.23-2.59-2.32-5.16-3.29-7.68"
       id="path282" />
    <ellipse
       class="LpaVhoojsp"
       cx="546.14"
       cy="340.31"
       rx="5.61"
       ry="14.62"
       transform="translate(-59.86 123.88) rotate(-12.27)"
       id="ellipse284" />
    <path
       class="qgSWcEJJqG"
       d="M584,386.22a115.17,115.17,0,0,1,5.8-44.88q1.41-4.08,3-7.8"
       id="path286" />
    <ellipse
       class="LpaVhoojsp"
       cx="598.46"
       cy="325.56"
       rx="14.62"
       ry="5.61"
       transform="translate(4.81 659.82) rotate(-57.93)"
       id="ellipse288" />
    <path
       class="qgSWcEJJqG"
       d="M580.45,391.61a115.19,115.19,0,0,1-13.58-43.18c-.3-2.86-.47-5.64-.54-8.34"
       id="path290" />
    <ellipse
       class="LpaVhoojsp"
       cx="568.09"
       cy="330.49"
       rx="14.62"
       ry="5.61"
       transform="translate(168.64 852.39) rotate(-82.76)"
       id="ellipse292" />
    <path
       class="jFlCgpKZZb"
       d="M581.21,393.46c.2-2.78-13.93-10.46-28.68-6.45-10,2.73-24.82,12.08-27,28.49a34.54,34.54,0,0,0,.84,12.91c5.14-9.48,13.08-20.78,24.93-27.42C566.89,392.25,581,396.22,581.21,393.46Z"
       id="path294" />
    <path
       class="jFlCgpKZZb"
       d="M580.86,393c-1.93-.93-.36-15.12,9.2-25.25,6.5-6.89,19.59-15,31.44-10.31a22.17,22.17,0,0,1,8.11,5.69c-8.66.38-19.83,2.27-29.76,9.08C586.78,381.17,582.77,393.91,580.86,393Z"
       id="path296" />
    <path
       class="qgSWcEJJqG"
       d="M725.61,752.27a115.31,115.31,0,0,1-2.22-45.21c.44-2.84,1-5.58,1.59-8.2"
       id="path298" />
    <ellipse
       class="LpaVhoojsp"
       cx="729.11"
       cy="690.01"
       rx="14.62"
       ry="5.61"
       transform="translate(-182.99 1109.27) rotate(-68.11)"
       id="ellipse300" />
    <path
       class="qgSWcEJJqG"
       d="M734.66,749.26a115.3,115.3,0,0,1,30-33.88c2.3-1.72,4.6-3.3,6.87-4.75"
       id="path302" />
    <ellipse
       class="LpaVhoojsp"
       cx="780.68"
       cy="707.19"
       rx="14.62"
       ry="5.61"
       transform="translate(-218.77 374.51) rotate(-23.76)"
       id="ellipse304" />
    <path
       class="qgSWcEJJqG"
       d="M728.7,751.72a115.26,115.26,0,0,1,13-43.35c1.36-2.53,2.78-4.93,4.24-7.2"
       id="path306" />
    <ellipse
       class="LpaVhoojsp"
       cx="752.79"
       cy="694.21"
       rx="14.62"
       ry="5.61"
       transform="translate(-265.79 799.67) rotate(-48.59)"
       id="ellipse308" />
  </g>
  <g
     id="clouds"
     class="clouds-move">
    <path
       class="jYMnUAGiaz"
       d="M137.86,184a19.49,19.49,0,0,0,0-12.49c-3.83-10.31-16.1-12.13-17.52-12.49a24.78,24.78,0,0,0-25,12.49c-.37.7-1,4.64-2.52,12.49v2.51A10.36,10.36,0,0,0,90.31,184c-6.08-4.12-15.18-.55-20,2.51a23.9,23.9,0,0,0-10,12.49,24.71,24.71,0,0,0,0,15,32.3,32.3,0,0,0,12.51,17.49H185.38a35.51,35.51,0,0,1-7.5-7.49,26.5,26.5,0,0,1-5-10c-1.34-5.79.94-7.12,0-12.49A22.14,22.14,0,0,0,165.4,189c-4.86-3.91-10.27-4.37-17.52-5A59.87,59.87,0,0,0,137.86,184Z"
       id="path311" />
    <path
       class="jYMnUAGiaz"
       d="M527.91,184a19.36,19.36,0,0,0,0-12.49c-3.82-10.31-16.09-12.13-17.52-12.49a24.78,24.78,0,0,0-25,12.49c-.36.7-1,4.64-2.52,12.49v2.51a10.36,10.36,0,0,0-2.52-2.51c-6.07-4.12-15.18-.55-20,2.51a24,24,0,0,0-10,12.49,24.71,24.71,0,0,0,0,15,32.35,32.35,0,0,0,12.51,17.49H575.43a35.74,35.74,0,0,1-7.5-7.49,26.5,26.5,0,0,1-5-10c-1.34-5.79.94-7.12,0-12.49a22.14,22.14,0,0,0-7.5-12.49c-4.86-3.91-10.26-4.37-17.52-5A59.87,59.87,0,0,0,527.91,184Z"
       id="path313" />
    <path
       class="jYMnUAGiaz"
       d="M160.07,542.7a19.49,19.49,0,0,0,0-12.49c-3.83-10.3-16.09-12.12-17.52-12.49a24.82,24.82,0,0,0-25,12.49c-.36.7-1,4.64-2.52,12.49v2.52a10.4,10.4,0,0,0-2.52-2.52c-6.07-4.12-15.18-.54-20,2.52a23.87,23.87,0,0,0-10,12.49,24.71,24.71,0,0,0,0,15A32.34,32.34,0,0,0,95,590.18H207.59a35.74,35.74,0,0,1-7.5-7.49,26.65,26.65,0,0,1-5-10c-1.34-5.79.94-7.13,0-12.49a22.1,22.1,0,0,0-7.5-12.49c-4.86-3.91-10.26-4.37-17.52-5A62.08,62.08,0,0,0,160.07,542.7Z"
       id="path315" />
    <path
       class="jYMnUAGiaz"
       d="M711.49,379.61a19.33,19.33,0,0,0,0-12.48C707.67,356.82,695.4,355,694,354.63a24.83,24.83,0,0,0-25,12.5c-.36.69-1,4.63-2.52,12.48v2.52a10.23,10.23,0,0,0-2.52-2.52c-6.07-4.12-15.18-.54-20,2.52a24,24,0,0,0-10,12.49,24.71,24.71,0,0,0,0,15,32.44,32.44,0,0,0,12.51,17.49H759a36,36,0,0,1-7.5-7.49,26.5,26.5,0,0,1-5-10c-1.33-5.79.94-7.13,0-12.49a22.14,22.14,0,0,0-7.5-12.49c-4.86-3.91-10.26-4.37-17.52-5A62.08,62.08,0,0,0,711.49,379.61Z"
       id="path317" />
    <path
       class="jYMnUAGiaz"
       d="M609.13,663.46a19.49,19.49,0,0,0,0-12.49c-3.83-10.31-16.1-12.13-17.52-12.49a24.78,24.78,0,0,0-25,12.49c-.37.7-1,4.64-2.52,12.49V666a10.4,10.4,0,0,0-2.52-2.52c-6.08-4.12-15.19-.54-20,2.52a23.83,23.83,0,0,0-10,12.49,24.53,24.53,0,0,0,0,15,32.33,32.33,0,0,0,12.51,17.5H656.64a36.47,36.47,0,0,1-7.5-7.49,26.76,26.76,0,0,1-5-10c-1.33-5.79,1-7.12,0-12.49a22.12,22.12,0,0,0-7.49-12.49c-4.86-3.91-10.27-4.36-17.52-5A59.87,59.87,0,0,0,609.13,663.46Z"
       id="path319" />
    <path
       class="jYMnUAGiaz"
       d="M849.3,181.48a12.11,12.11,0,0,0,0-7.8c-2.38-6.43-10-7.57-10.93-7.8a15.57,15.57,0,0,0-9,1.5,15.41,15.41,0,0,0-6.59,6.3c-.23.44-.65,2.9-1.58,7.8v1.57a6.33,6.33,0,0,0-1.57-1.57c-3.79-2.58-9.48-.34-12.49,1.57a14.92,14.92,0,0,0-6.24,7.79,15.38,15.38,0,0,0,0,9.35,20.17,20.17,0,0,0,7.81,10.92H879a22,22,0,0,1-4.68-4.67,16.55,16.55,0,0,1-3.11-6.25c-.84-3.61.58-4.44,0-7.79a13.86,13.86,0,0,0-4.68-7.8c-3-2.44-6.41-2.73-10.94-3.12A36.35,36.35,0,0,0,849.3,181.48Z"
       id="path321" />
    <path
       class="jYMnUAGiaz"
       d="M434,397.55a12.11,12.11,0,0,0,0-7.8c-2.39-6.43-10-7.57-10.94-7.8a15.51,15.51,0,0,0-15.6,7.8c-.22.44-.64,2.9-1.57,7.8v1.57a6.5,6.5,0,0,0-1.57-1.57c-3.79-2.57-9.48-.34-12.49,1.57a14.9,14.9,0,0,0-6.24,7.8,15.35,15.35,0,0,0,0,9.34,20.17,20.17,0,0,0,7.81,10.92h70.26a22.28,22.28,0,0,1-4.68-4.67,16.85,16.85,0,0,1-3.11-6.25c-.83-3.61.59-4.44,0-7.79a13.79,13.79,0,0,0-4.68-7.8c-3-2.44-6.4-2.72-10.93-3.12A38.48,38.48,0,0,0,434,397.55Z"
       id="path323" />
    <path
       class="jYMnUAGiaz"
       d="M70.42,42.79a12.08,12.08,0,0,0,0-7.79c-2.38-6.44-10-7.57-10.93-7.8A15.45,15.45,0,0,0,43.89,35c-.23.43-.65,2.89-1.58,7.79v1.57a6.33,6.33,0,0,0-1.57-1.57c-3.79-2.57-9.48-.34-12.49,1.57A15,15,0,0,0,22,52.16a15.38,15.38,0,0,0,0,9.35,20.24,20.24,0,0,0,7.81,10.92h70.27a22.33,22.33,0,0,1-4.68-4.68,16.51,16.51,0,0,1-3.11-6.24c-.84-3.62.58-4.45,0-7.8a13.9,13.9,0,0,0-4.68-7.8c-3-2.44-6.41-2.72-10.94-3.12A38.48,38.48,0,0,0,70.42,42.79Z"
       id="path325" />
    <path
       class="jYMnUAGiaz"
       d="M440.89,35.24a12.11,12.11,0,0,0,0-7.8c-2.39-6.43-10-7.57-10.93-7.79a15.46,15.46,0,0,0-15.6,7.79c-.23.44-.65,2.9-1.58,7.8v1.57a6.5,6.5,0,0,0-1.57-1.57c-3.79-2.57-9.48-.34-12.49,1.57a15,15,0,0,0-6.24,7.8,15.38,15.38,0,0,0,0,9.35,20.24,20.24,0,0,0,7.81,10.92h70.27a22.62,22.62,0,0,1-4.69-4.68,16.71,16.71,0,0,1-3.1-6.24c-.84-3.62.58-4.45,0-7.8a13.86,13.86,0,0,0-4.69-7.8c-3-2.44-6.4-2.72-10.93-3.12A38.48,38.48,0,0,0,440.89,35.24Z"
       id="path327" />
    <path
       class="jYMnUAGiaz"
       d="M1017.61,29.56a12.25,12.25,0,0,0,0-7.8c-2.39-6.43-10.05-7.57-10.94-7.8a15.58,15.58,0,0,0-9,1.5,15.41,15.41,0,0,0-6.59,6.3c-.23.44-.64,2.9-1.57,7.8v1.57a6.37,6.37,0,0,0-1.58-1.57c-3.79-2.58-9.48-.34-12.49,1.57a14.91,14.91,0,0,0-6.23,7.79,15.38,15.38,0,0,0,0,9.35A20.12,20.12,0,0,0,977,59.19h70.26a22.28,22.28,0,0,1-4.68-4.67,16.55,16.55,0,0,1-3.11-6.25c-.83-3.61.59-4.44,0-7.79a13.9,13.9,0,0,0-4.68-7.8c-3-2.44-6.41-2.73-10.94-3.12A36.24,36.24,0,0,0,1017.61,29.56Z"
       id="path329" />
    <path
       class="jYMnUAGiaz"
       d="M231.17,667.64a12.22,12.22,0,0,0,0-7.79c-2.39-6.44-10-7.57-10.94-7.8a15.45,15.45,0,0,0-15.6,7.8c-.23.43-.64,2.89-1.57,7.79v1.58a6.24,6.24,0,0,0-1.58-1.58c-3.79-2.57-9.47-.34-12.49,1.58a14.91,14.91,0,0,0-6.23,7.79,15.38,15.38,0,0,0,0,9.35,20.15,20.15,0,0,0,7.81,10.92h70.26a22.52,22.52,0,0,1-4.68-4.67,16.55,16.55,0,0,1-3.11-6.25c-.83-3.61.59-4.45,0-7.8a13.84,13.84,0,0,0-4.68-7.79c-3-2.44-6.41-2.73-10.94-3.13A38.36,38.36,0,0,0,231.17,667.64Z"
       id="path331" />
    <path
       class="jYMnUAGiaz"
       d="M1218.85,109.78a12.11,12.11,0,0,0,0-7.8c-2.39-6.43-10-7.57-10.94-7.79a15.48,15.48,0,0,0-15.6,7.79c-.23.44-.64,2.9-1.57,7.8v1.57a6.37,6.37,0,0,0-1.58-1.57c-3.79-2.57-9.47-.34-12.49,1.57a14.93,14.93,0,0,0-6.23,7.8,15.38,15.38,0,0,0,0,9.35,20.19,20.19,0,0,0,7.81,10.92h70.26a22.57,22.57,0,0,1-4.68-4.68,16.51,16.51,0,0,1-3.11-6.24c-.83-3.62.59-4.45,0-7.8a13.79,13.79,0,0,0-4.68-7.8c-3-2.44-6.41-2.72-10.94-3.12A38.36,38.36,0,0,0,1218.85,109.78Z"
       id="path333" />
    <path
       class="jYMnUAGiaz"
       d="M897.45,585a12.11,12.11,0,0,0,0-7.8c-2.39-6.43-10.05-7.57-10.94-7.79a15.48,15.48,0,0,0-15.6,7.79c-.22.44-.64,2.9-1.57,7.8v1.57a6.5,6.5,0,0,0-1.57-1.57c-3.79-2.57-9.48-.34-12.49,1.57a14.9,14.9,0,0,0-6.24,7.8,15.38,15.38,0,0,0,0,9.35,20.19,20.19,0,0,0,7.81,10.92h70.26a22.57,22.57,0,0,1-4.68-4.68,16.58,16.58,0,0,1-3.11-6.24c-.83-3.62.59-4.45,0-7.8a13.79,13.79,0,0,0-4.68-7.8c-3-2.44-6.41-2.72-10.94-3.12A38.36,38.36,0,0,0,897.45,585Z"
       id="path335" />
    <path
       class="jYMnUAGiaz"
       d="M525.59,531.69a12.08,12.08,0,0,0,0-7.79c-2.39-6.44-10-7.57-10.93-7.8a15.45,15.45,0,0,0-15.6,7.8c-.23.43-.65,2.89-1.58,7.79v1.57a6.5,6.5,0,0,0-1.57-1.57c-3.79-2.57-9.48-.34-12.49,1.57a14.9,14.9,0,0,0-6.24,7.8,15.38,15.38,0,0,0,0,9.35A20.24,20.24,0,0,0,485,561.33h70.27a22.14,22.14,0,0,1-4.69-4.68,16.56,16.56,0,0,1-3.1-6.24c-.84-3.62.58-4.45,0-7.8a13.8,13.8,0,0,0-4.69-7.79c-3-2.45-6.4-2.73-10.93-3.13A38.48,38.48,0,0,0,525.59,531.69Z"
       id="path337" />
    <path
       class="jYMnUAGiaz"
       d="M413.19,635.5a12.11,12.11,0,0,0,0-7.8c-2.39-6.43-10.05-7.57-10.94-7.8a15.51,15.51,0,0,0-15.6,7.8c-.22.44-.64,2.9-1.57,7.8v1.57a6.5,6.5,0,0,0-1.57-1.57c-3.79-2.58-9.48-.34-12.49,1.57a14.88,14.88,0,0,0-6.24,7.79,15.38,15.38,0,0,0,0,9.35,20.17,20.17,0,0,0,7.81,10.92h70.26a22.52,22.52,0,0,1-4.68-4.67,16.55,16.55,0,0,1-3.11-6.25c-.83-3.61.59-4.44,0-7.79a13.76,13.76,0,0,0-4.68-7.8c-3-2.44-6.41-2.73-10.94-3.12A36.24,36.24,0,0,0,413.19,635.5Z"
       id="path339" />
    <path
       class="jYMnUAGiaz"
       d="M989,358.9a12.11,12.11,0,0,0,0-7.8c-2.39-6.43-10.05-7.57-10.94-7.79a15.46,15.46,0,0,0-15.6,7.79c-.23.44-.64,2.9-1.57,7.8v1.57a6.37,6.37,0,0,0-1.58-1.57c-3.79-2.57-9.47-.34-12.49,1.57a14.93,14.93,0,0,0-6.23,7.8,15.38,15.38,0,0,0,0,9.35,20.19,20.19,0,0,0,7.81,10.92h70.26a22.57,22.57,0,0,1-4.68-4.68,16.58,16.58,0,0,1-3.11-6.24c-.83-3.62.59-4.45,0-7.8a13.9,13.9,0,0,0-4.68-7.8c-3-2.44-6.41-2.72-10.94-3.12A38.36,38.36,0,0,0,989,358.9Z"
       id="path341" />
    <path
       class="jYMnUAGiaz"
       d="M1229.46,559.41a12.11,12.11,0,0,0,0-7.8c-2.39-6.43-10-7.57-10.94-7.79a15.48,15.48,0,0,0-15.6,7.79c-.22.44-.64,2.9-1.57,7.8V561a6.5,6.5,0,0,0-1.57-1.57c-3.79-2.57-9.48-.34-12.49,1.57a14.9,14.9,0,0,0-6.24,7.8,15.38,15.38,0,0,0,0,9.35,20.19,20.19,0,0,0,7.81,10.92h70.26a22.57,22.57,0,0,1-4.68-4.68,16.58,16.58,0,0,1-3.11-6.24c-.83-3.62.59-4.45,0-7.8a13.79,13.79,0,0,0-4.68-7.8c-3-2.44-6.41-2.72-10.94-3.12A38.36,38.36,0,0,0,1229.46,559.41Z"
       id="path343" />
  </g>
</svg>
